<?xml version="1.0" encoding="UTF-8"?>
<svg width="831px" height="886px" viewBox="0 0 831 886" version="1.1" xmlns="http://www.w3.org/2000/svg" xmlns:xlink="http://www.w3.org/1999/xlink">
    <!-- Generator: Sketch 48.2 (47327) - http://www.bohemiancoding.com/sketch -->
    <title>1</title>
    <desc>Created with Sketch.</desc>
    <defs></defs>
    <g id="Page-1" stroke="none" stroke-width="1" fill="none" fill-rule="evenodd">
        <g id="1" transform="translate(1.000000, -4.000000)">
            <path d="M342,189 L396,189" id="Line" stroke="#AAB1B5" stroke-linecap="round" stroke-linejoin="round"></path>
            <path d="M349,365 L380,365" id="Line" stroke="#AAB1B5" stroke-linecap="round" stroke-linejoin="round"></path>
            <polygon id="Line" stroke="#AAB1B5" fill="#FFFFFF" fill-rule="nonzero" stroke-linecap="round" stroke-linejoin="round" stroke-dasharray="6,12" points="409 129.003287 409 589 691 589 691 124 409.999971 124"></polygon>
            <polygon id="Line-Copy-5" stroke="#AAB1B5" fill="#FFFFFF" fill-rule="nonzero" stroke-linecap="round" stroke-linejoin="round" stroke-dasharray="6,12" points="0 266.507681 0 589 410 589 410 263 1.4538583 263"></polygon>
            <path d="M794,460 L794,226" id="Line" stroke="#AAB1B5" stroke-linecap="round" stroke-linejoin="round"></path>
            <path d="M702,190 L756,190" id="Line" stroke="#AAB1B5" stroke-linecap="round" stroke-linejoin="round"></path>
            <path d="M550,294 L550,234" id="Line" stroke="#AAB1B5" stroke-linecap="round" stroke-linejoin="round"></path>
            <path d="M140,190 L258,190" id="Line" stroke="#AAB1B5" stroke-linecap="round" stroke-linejoin="round"></path>
            <path d="M550,144 L550,99.67732" id="Line" stroke="#AAB1B5" stroke-linecap="round" stroke-linejoin="round"></path>
            <path d="M550.5,405 L550.5,345" id="Line" stroke="#AAB1B5" stroke-linecap="round" stroke-linejoin="round"></path>
            <path d="M328,517 L328,427" id="Line" stroke="#AAB1B5" stroke-linecap="round" stroke-linejoin="round"></path>
            <path d="M288,487 L288,427" id="Line" stroke="#AAB1B5" stroke-linecap="round" stroke-linejoin="round"></path>
            <path d="M138,258.090447 L138,200" id="Line" stroke="#AAB1B5" stroke-linecap="round" stroke-linejoin="round"></path>
            <path d="M247,457 L247,427" id="Line" stroke="#AAB1B5" stroke-linecap="round" stroke-linejoin="round"></path>
            <path d="M489,405 L489,375" id="Line" stroke="#AAB1B5" stroke-linecap="round" stroke-linejoin="round"></path>
            <path d="M609,405 L609,375" id="Line" stroke="#AAB1B5" stroke-linecap="round" stroke-linejoin="round"></path>
            <path d="M489,375 L609,375" id="Line" stroke="#AAB1B5" stroke-linecap="round" stroke-linejoin="round"></path>
            <path d="M634,460 L794,460" id="Line" stroke="#AAB1B5" stroke-linecap="round" stroke-linejoin="round"></path>
            <path d="M137.5,177 L137.5,117" id="Line" stroke="#AAB1B5" stroke-linecap="round" stroke-linejoin="round"></path>
            <path d="M48,147 L48,117" id="Line" stroke="#AAB1B5" stroke-linecap="round" stroke-linejoin="round"></path>
            <path d="M228,147 L228,117" id="Line" stroke="#AAB1B5" stroke-linecap="round" stroke-linejoin="round"></path>
            <path d="M48,147 L228.084702,147" id="Line" stroke="#AAB1B5" stroke-linecap="round" stroke-linejoin="round"></path>
            <path d="M468,670 L468,630" id="Line" stroke="#AAB1B5" stroke-linecap="round" stroke-linejoin="round"></path>
            <path d="M723,669 L723,630" id="Line" stroke="#AAB1B5" stroke-linecap="round" stroke-linejoin="round"></path>
            <polyline id="Line" stroke="#AAB1B5" stroke-linecap="round" stroke-linejoin="round" points="468 630 795 630 795 483"></polyline>
            <path d="M185,365 L216,365" id="Line" stroke="#AAB1B5" stroke-linecap="round" stroke-linejoin="round"></path>
            <path d="M349,365 L380,365" id="Line" stroke="#AAB1B5" stroke-linecap="round" stroke-linejoin="round"></path>
            <path d="M723,776 L723,716" id="Line" stroke="#AAB1B5" stroke-linecap="round" stroke-linejoin="round"></path>
            <path d="M468,776 L468,716" id="Line-Copy" stroke="#AAB1B5" stroke-linecap="round" stroke-linejoin="round"></path>
            <path d="M643,776 L643,746" id="Line" stroke="#AAB1B5" stroke-linecap="round" stroke-linejoin="round"></path>
            <path d="M388,776 L388,746" id="Line-Copy-2" stroke="#AAB1B5" stroke-linecap="round" stroke-linejoin="round"></path>
            <path d="M803,776 L803,746" id="Line" stroke="#AAB1B5" stroke-linecap="round" stroke-linejoin="round"></path>
            <path d="M548,776 L548,746" id="Line-Copy-3" stroke="#AAB1B5" stroke-linecap="round" stroke-linejoin="round"></path>
            <path d="M643,746 L803.457159,746" id="Line" stroke="#AAB1B5" stroke-linecap="round" stroke-linejoin="round"></path>
            <path d="M388,746 L548.457159,746" id="Line-Copy-4" stroke="#AAB1B5" stroke-linecap="round" stroke-linejoin="round"></path>
            <g id="Page-1" stroke-linecap="round" stroke-linejoin="round" transform="translate(18.000000, 55.000000)" stroke="#2C2F31" stroke-width="2">
                <polyline id="Stroke-1" points="12.1875 11.3711806 12.1875 15.659375 12.1875 19.9996528 12.1875 20.8677083 12.1875 39.9649306 20 39.9649306 27.8125 39.9649306 27.8125 20.8677083 27.8125 19.9996528 27.8125 15.659375 27.8125 11.2322917"></polyline>
                <polyline id="Stroke-3" points="10.4513889 12.1875 20 6.97916667 29.5486111 12.1875"></polyline>
                <polyline id="Stroke-4" points="12.1875 20.8680556 0.0347222222 20.8680556 3.50694444 15.6597222 12.1875 15.6597222"></polyline>
                <polyline id="Stroke-6" points="27.8125 15.6597222 36.4930556 15.6597222 39.9652778 20.8680556 27.8125 20.8680556"></polyline>
                <polyline id="Stroke-8" points="38.2291667 20.8680556 38.2291667 39.9652778 1.77083333 39.9652778 1.77083333 20.8680556"></polyline>
                <polyline id="Stroke-10" points="20 3.50694444 24.3402778 3.50694444 24.3402778 0.0347222222 20 0.0347222222 20 6.97916667"></polyline>
                <path d="M24.3402778,18.2638889 C24.3402778,20.6614583 22.3975694,22.6041667 20,22.6041667 C17.6024306,22.6041667 15.6597222,20.6614583 15.6597222,18.2638889 C15.6597222,15.8663194 17.6024306,13.9236111 20,13.9236111 C22.3975694,13.9236111 24.3402778,15.8663194 24.3402778,18.2638889 Z" id="Stroke-12"></path>
                <polyline id="Stroke-14" points="21.5190972 19.6024306 20 18.2638889 20 16.2569444"></polyline>
                <path d="M15.6597222,39.9652778 L15.6597222,33.8888889 C15.6597222,31.4913194 17.6024306,29.5486111 20,29.5486111 C22.3975694,29.5486111 24.3402778,31.4913194 24.3402778,33.8888889 L24.3402778,39.9652778" id="Stroke-16"></path>
                <polygon id="Stroke-18" points="5.24305556 34.7569444 8.71527778 34.7569444 8.71527778 31.2847222 5.24305556 31.2847222"></polygon>
                <polygon id="Stroke-20" points="5.24305556 27.8125 8.71527778 27.8125 8.71527778 24.3402778 5.24305556 24.3402778"></polygon>
                <polygon id="Stroke-21" points="31.2847222 34.7569444 34.7569444 34.7569444 34.7569444 31.2847222 31.2847222 31.2847222"></polygon>
                <polygon id="Stroke-22" points="31.2847222 27.8125 34.7569444 27.8125 34.7569444 24.3402778 31.2847222 24.3402778"></polygon>
            </g>
            <g id="Page-1-Copy" stroke-linecap="round" stroke-linejoin="round" transform="translate(622.000000, 787.000000)" stroke="#2C2F31" stroke-width="2">
                <polyline id="Stroke-1" points="12.1875 11.3711806 12.1875 15.659375 12.1875 19.9996528 12.1875 20.8677083 12.1875 39.9649306 20 39.9649306 27.8125 39.9649306 27.8125 20.8677083 27.8125 19.9996528 27.8125 15.659375 27.8125 11.2322917"></polyline>
                <polyline id="Stroke-3" points="10.4513889 12.1875 20 6.97916667 29.5486111 12.1875"></polyline>
                <polyline id="Stroke-4" points="12.1875 20.8680556 0.0347222222 20.8680556 3.50694444 15.6597222 12.1875 15.6597222"></polyline>
                <polyline id="Stroke-6" points="27.8125 15.6597222 36.4930556 15.6597222 39.9652778 20.8680556 27.8125 20.8680556"></polyline>
                <polyline id="Stroke-8" points="38.2291667 20.8680556 38.2291667 39.9652778 1.77083333 39.9652778 1.77083333 20.8680556"></polyline>
                <polyline id="Stroke-10" points="20 3.50694444 24.3402778 3.50694444 24.3402778 0.0347222222 20 0.0347222222 20 6.97916667"></polyline>
                <path d="M24.3402778,18.2638889 C24.3402778,20.6614583 22.3975694,22.6041667 20,22.6041667 C17.6024306,22.6041667 15.6597222,20.6614583 15.6597222,18.2638889 C15.6597222,15.8663194 17.6024306,13.9236111 20,13.9236111 C22.3975694,13.9236111 24.3402778,15.8663194 24.3402778,18.2638889 Z" id="Stroke-12"></path>
                <polyline id="Stroke-14" points="21.5190972 19.6024306 20 18.2638889 20 16.2569444"></polyline>
                <path d="M15.6597222,39.9652778 L15.6597222,33.8888889 C15.6597222,31.4913194 17.6024306,29.5486111 20,29.5486111 C22.3975694,29.5486111 24.3402778,31.4913194 24.3402778,33.8888889 L24.3402778,39.9652778" id="Stroke-16"></path>
                <polygon id="Stroke-18" points="5.24305556 34.7569444 8.71527778 34.7569444 8.71527778 31.2847222 5.24305556 31.2847222"></polygon>
                <polygon id="Stroke-20" points="5.24305556 27.8125 8.71527778 27.8125 8.71527778 24.3402778 5.24305556 24.3402778"></polygon>
                <polygon id="Stroke-21" points="31.2847222 34.7569444 34.7569444 34.7569444 34.7569444 31.2847222 31.2847222 31.2847222"></polygon>
                <polygon id="Stroke-22" points="31.2847222 27.8125 34.7569444 27.8125 34.7569444 24.3402778 31.2847222 24.3402778"></polygon>
            </g>
            <g id="Page-1-Copy-2" stroke-linecap="round" stroke-linejoin="round" transform="translate(367.000000, 787.000000)" stroke="#2C2F31" stroke-width="2">
                <polyline id="Stroke-1" points="12.1875 11.3711806 12.1875 15.659375 12.1875 19.9996528 12.1875 20.8677083 12.1875 39.9649306 20 39.9649306 27.8125 39.9649306 27.8125 20.8677083 27.8125 19.9996528 27.8125 15.659375 27.8125 11.2322917"></polyline>
                <polyline id="Stroke-3" points="10.4513889 12.1875 20 6.97916667 29.5486111 12.1875"></polyline>
                <polyline id="Stroke-4" points="12.1875 20.8680556 0.0347222222 20.8680556 3.50694444 15.6597222 12.1875 15.6597222"></polyline>
                <polyline id="Stroke-6" points="27.8125 15.6597222 36.4930556 15.6597222 39.9652778 20.8680556 27.8125 20.8680556"></polyline>
                <polyline id="Stroke-8" points="38.2291667 20.8680556 38.2291667 39.9652778 1.77083333 39.9652778 1.77083333 20.8680556"></polyline>
                <polyline id="Stroke-10" points="20 3.50694444 24.3402778 3.50694444 24.3402778 0.0347222222 20 0.0347222222 20 6.97916667"></polyline>
                <path d="M24.3402778,18.2638889 C24.3402778,20.6614583 22.3975694,22.6041667 20,22.6041667 C17.6024306,22.6041667 15.6597222,20.6614583 15.6597222,18.2638889 C15.6597222,15.8663194 17.6024306,13.9236111 20,13.9236111 C22.3975694,13.9236111 24.3402778,15.8663194 24.3402778,18.2638889 Z" id="Stroke-12"></path>
                <polyline id="Stroke-14" points="21.5190972 19.6024306 20 18.2638889 20 16.2569444"></polyline>
                <path d="M15.6597222,39.9652778 L15.6597222,33.8888889 C15.6597222,31.4913194 17.6024306,29.5486111 20,29.5486111 C22.3975694,29.5486111 24.3402778,31.4913194 24.3402778,33.8888889 L24.3402778,39.9652778" id="Stroke-16"></path>
                <polygon id="Stroke-18" points="5.24305556 34.7569444 8.71527778 34.7569444 8.71527778 31.2847222 5.24305556 31.2847222"></polygon>
                <polygon id="Stroke-20" points="5.24305556 27.8125 8.71527778 27.8125 8.71527778 24.3402778 5.24305556 24.3402778"></polygon>
                <polygon id="Stroke-21" points="31.2847222 34.7569444 34.7569444 34.7569444 34.7569444 31.2847222 31.2847222 31.2847222"></polygon>
                <polygon id="Stroke-22" points="31.2847222 27.8125 34.7569444 27.8125 34.7569444 24.3402778 31.2847222 24.3402778"></polygon>
            </g>
            <g id="Arrow-head" stroke-linecap="round" stroke-linejoin="round" transform="translate(138.000000, 255.000000) scale(-1, 1) translate(-138.000000, -255.000000) translate(128.000000, 249.000000)" stroke="#AAB1B5">
                <path d="M10,11.25 L19.8571429,0" id="Line-4"></path>
                <path d="M-8.6e-07,11.25 L9.857142,0" id="Line-4" transform="translate(4.928571, 5.625000) scale(-1, 1) translate(-4.928571, -5.625000) "></path>
            </g>
            <g id="Arrow-head" stroke-linecap="round" stroke-linejoin="round" transform="translate(795.000000, 487.500000) rotate(-180.000000) translate(-795.000000, -487.500000) translate(785.000000, 482.000000)" stroke="#AAB1B5">
                <path d="M10,11 L20,-1.13686838e-13" id="Line-4"></path>
                <path d="M0,11 L10,-1.13686838e-13" id="Line-4" transform="translate(5.000000, 5.500000) scale(-1, 1) translate(-5.000000, -5.500000) "></path>
            </g>
            <g id="Arrow-head" stroke-linecap="round" stroke-linejoin="round" transform="translate(253.000000, 190.000000) rotate(-90.000000) translate(-253.000000, -190.000000) translate(243.000000, 184.000000)" stroke="#AAB1B5">
                <path d="M10,11.25 L19.8571429,0" id="Line-4"></path>
                <path d="M-8.6e-07,11.25 L9.857142,0" id="Line-4" transform="translate(4.928571, 5.625000) scale(-1, 1) translate(-4.928571, -5.625000) "></path>
            </g>
            <g id="Arrow-head" stroke-linecap="round" stroke-linejoin="round" transform="translate(392.000000, 189.000000) rotate(-90.000000) translate(-392.000000, -189.000000) translate(382.000000, 183.000000)" stroke="#AAB1B5">
                <path d="M10,11.25 L19.8571429,0" id="Line-4"></path>
                <path d="M-8.6e-07,11.25 L9.857142,0" id="Line-4" transform="translate(4.928571, 5.625000) scale(-1, 1) translate(-4.928571, -5.625000) "></path>
            </g>
            <g id="Arrow-head" stroke-linecap="round" stroke-linejoin="round" transform="translate(707.000000, 190.000000) rotate(90.000000) translate(-707.000000, -190.000000) translate(697.000000, 184.000000)" stroke="#AAB1B5">
                <path d="M10,11.25 L19.8571429,-1.13686838e-13" id="Line-4"></path>
                <path d="M-8.6e-07,11.25 L9.857142,-1.13686838e-13" id="Line-4" transform="translate(4.928571, 5.625000) scale(-1, 1) translate(-4.928571, -5.625000) "></path>
            </g>
            <g id="Arrow-head" stroke-linecap="round" stroke-linejoin="round" transform="translate(375.000000, 365.000000) rotate(-90.000000) translate(-375.000000, -365.000000) translate(365.000000, 359.000000)" stroke="#AAB1B5">
                <path d="M10,11.25 L19.8571429,0" id="Line-4"></path>
                <path d="M-8.6e-07,11.25 L9.857142,0" id="Line-4" transform="translate(4.928571, 5.625000) scale(-1, 1) translate(-4.928571, -5.625000) "></path>
            </g>
            <g id="Arrow-head" stroke-linecap="round" stroke-linejoin="round" transform="translate(211.000000, 365.000000) rotate(-90.000000) translate(-211.000000, -365.000000) translate(201.000000, 359.000000)" stroke="#AAB1B5">
                <path d="M10,11.25 L19.8571429,0" id="Line-4"></path>
                <path d="M-8.6e-07,11.25 L9.857142,0" id="Line-4" transform="translate(4.928571, 5.625000) scale(-1, 1) translate(-4.928571, -5.625000) "></path>
            </g>
            <polygon id="Blockchain" stroke="#2C2F31" fill="#F7F7F7" fill-rule="nonzero" stroke-linecap="round" stroke-linejoin="round" points="430 294 670 294 670 344 430 343.865117"></polygon>
            <polygon id="Blockchain" stroke="#2C2F31" stroke-linecap="round" stroke-linejoin="round" points="430 144 670 144 670 179 660 189 670 199 670 234 430 233.865117 430 199 440 188.932558 430 179"></polygon>
            <rect id="3" stroke="#2C2F31" stroke-linecap="round" stroke-linejoin="round" x="227" y="304" width="122" height="122"></rect>
            <rect id="2" stroke="#2C2F31" fill="#F7F7F7" fill-rule="nonzero" stroke-linecap="round" stroke-linejoin="round" x="48" y="318" width="122" height="122"></rect>
            <polygon stroke="#2C2F31" fill="#FFFFFF" fill-rule="nonzero" stroke-linecap="round" stroke-linejoin="round" points="55 304 184 304 184 433 55 433"></polygon>
            <text id="Blockchain" fill="#2C2F31" font-family="Helvetica" font-size="16" font-weight="normal">
                <tspan x="500.22" y="325">Blockchain</tspan>
            </text>
            <text id="Dapps" fill="#2C2F31" font-family="Helvetica" font-size="20" font-weight="normal">
                <tspan x="519.2" y="19">Dapps</tspan>
            </text>
            <text id="Sceptics" fill="#2C2F31" font-family="Helvetica" font-size="20" font-weight="normal">
                <tspan x="418.22" y="885">Sceptics</tspan>
            </text>
            <text id="Holders" fill="#2C2F31" font-family="Helvetica" font-size="20" font-weight="normal">
                <tspan x="676.38" y="885">Holders</tspan>
            </text>
            <text id="Raw-Protocol" fill="#2C2F31" font-family="Helvetica" font-size="20" font-weight="normal">
                <tspan x="131.08" y="565">Raw Protocol</tspan>
            </text>
            <text id="Issuer" fill="#2C2F31" font-family="Helvetica" font-size="20" font-weight="normal">
                <tspan x="102.04" y="19">Issuer</tspan>
            </text>
            <text id="Proof-on-Chain" fill="#2C2F31" font-family="Helvetica" font-size="12" font-weight="normal">
                <tspan x="498" y="548">Proof on Chain</tspan>
            </text>
            <text id="SDK" fill="#2C2F31" font-family="Helvetica" font-size="12" font-weight="normal">
                <tspan x="235" y="475">SDK</tspan>
            </text>
            <text id="DB" fill="#2C2F31" font-family="Helvetica" font-size="12" font-weight="normal">
                <tspan x="281" y="505">DB</tspan>
            </text>
            <text id="Process" fill="#2C2F31" font-family="Helvetica" font-size="12" font-weight="normal">
                <tspan x="304" y="534">Process</tspan>
            </text>
            <text id="Verify" fill="#2C2F31" font-family="Helvetica" font-size="12" font-weight="normal">
                <tspan x="446" y="696">Verify</tspan>
            </text>
            <text id="Payload" fill="#2C2F31" font-family="Helvetica" font-size="12" font-weight="normal">
                <tspan x="648" y="684">Payload</tspan>
            </text>
            <text id="Owner" fill="#2C2F31" font-family="Helvetica" font-size="12" font-weight="normal">
                <tspan x="655.392" y="696">Owner</tspan>
            </text>
            <text id="xCert" fill="#2C2F31" font-family="Helvetica" font-size="12" font-weight="normal">
                <tspan x="751.392" y="684">xCert</tspan>
            </text>
            <text id="Address" fill="#2C2F31" font-family="Helvetica" font-size="12" font-weight="normal">
                <tspan x="744" y="696">Address</tspan>
            </text>
            <polygon id="+" fill="#2C2F31" fill-rule="nonzero" points="724.280851 687.251064 724.280851 693 721.689362 693 721.689362 687.251064 716 687.251064 716 684.778723 721.689362 684.778723 721.689362 679 724.280851 679 724.280851 684.778723 730 684.778723 730 687.251064"></polygon>
            <text id="Advanced-protocol" fill="#2C2F31" font-family="Helvetica" font-size="16" font-weight="normal">
                <tspan x="465.224" y="183">Advanced protocol</tspan>
            </text>
            <text id="setup-for-business" fill="#2C2F31" font-family="Helvetica" font-size="16" font-weight="normal">
                <tspan x="460.296" y="204">setup for business</tspan>
            </text>
            <text id="Encripted" fill="#2C2F31" font-family="Helvetica" font-size="16" font-weight="normal">
                <tspan x="244.148" y="360">Encripted</tspan>
            </text>
            <text id="Proof" fill="#2C2F31" font-family="Helvetica" font-size="16" font-weight="normal">
                <tspan x="263.86" y="381">Proof</tspan>
            </text>
            <text id="xCert" fill="#2C2F31" font-family="Helvetica" font-size="16" font-weight="normal">
                <tspan x="94.86" y="353">xCert</tspan>
            </text>
            <text id="Payload" fill="#2C2F31" font-family="Helvetica" font-size="16" font-weight="normal">
                <tspan x="85.004" y="374">Payload</tspan>
            </text>
            <text id="Conventions" fill="#2C2F31" font-family="Helvetica" font-size="16" font-weight="normal">
                <tspan x="65.292" y="395">Conventions</tspan>
            </text>
            <g id="Group-2" stroke-linecap="round" stroke-linejoin="round" transform="translate(525.000000, 47.000000)" stroke="#2C2F31" stroke-width="2">
                <path d="M2.67857143,0 C1.2,0 0,1.2 0,2.67857143 L0,23.2142857 L8.92857143,23.2142857 L7.14285714,18.75 C7.14285714,16.2839286 9.14107143,14.2857143 11.6071429,14.2857143 C14.0732143,14.2857143 16.0714286,16.2839286 16.0714286,18.75 L14.2857143,23.2142857 L23.2142857,23.2142857 L23.2142857,0 L2.67857143,0 Z" id="Fill-1"></path>
                <path d="M26.7857143,0 L26.7857143,8.92857143 L31.25,7.14285714 C33.7160714,7.14285714 35.7142857,9.14107143 35.7142857,11.6071429 C35.7142857,14.0732143 33.7160714,16.0714286 31.25,16.0714286 L26.7857143,14.2857143 L26.7857143,23.2142857 L50,23.2142857 L50,2.67857143 C50,1.2 48.8,0 47.3214286,0 L26.7857143,0 Z" id="Fill-3" fill="#FEE4E2" fill-rule="nonzero"></path>
                <path d="M41.0714286,26.7857143 L42.8571429,31.25 C42.8571429,33.7160714 40.8589286,35.7142857 38.3928571,35.7142857 C35.9267857,35.7142857 33.9285714,33.7160714 33.9285714,31.25 L35.7142857,26.7857143 L26.7857143,26.7857143 L26.7857143,50 L47.3214286,50 C48.8,50 50,48.8 50,47.3214286 L50,26.7857143 L41.0714286,26.7857143 Z" id="Fill-5"></path>
                <path d="M0,26.7857143 L0,47.3214286 C0,48.8 1.2,50 2.67857143,50 L23.2142857,50 L23.2142857,41.0714286 L18.75,42.8571429 C16.2839286,42.8571429 14.2857143,40.8589286 14.2857143,38.3928571 C14.2857143,35.9267857 16.2839286,33.9285714 18.75,33.9285714 L23.2142857,35.7142857 L23.2142857,26.7857143 L0,26.7857143 Z" id="Fill-7" fill="#E8F7FC" fill-rule="nonzero"></path>
            </g>
            <g id="Coin" transform="translate(269.000000, 153.000000)">
                <circle id="Oval" stroke="#2C2F31" fill="#0971FF" fill-rule="nonzero" cx="36.5" cy="36.5" r="36.5"></circle>
                <g id="XCT" transform="translate(22.000000, 27.000000)" fill="#FFFFFF" font-family="Helvetica" font-size="16" font-weight="normal">
                    <text>
                        <tspan x="0" y="15">XCT</tspan>
                    </text>
                </g>
            </g>
            <g id="Coin" transform="translate(756.000000, 153.000000)">
                <circle id="Oval" stroke="#2C2F31" fill="#0971FF" fill-rule="nonzero" cx="36.5" cy="36.5" r="36.5"></circle>
                <g id="XCT" transform="translate(22.000000, 27.000000)" fill="#FFFFFF" font-family="Helvetica" font-size="16" font-weight="normal">
                    <text>
                        <tspan x="0" y="15">XCT</tspan>
                    </text>
                </g>
            </g>
            <g id="or" transform="translate(126.000000, 175.000000)">
                <circle id="Oval" stroke="#AAB1B5" fill="#F7F7F7" fill-rule="nonzero" stroke-linecap="round" stroke-linejoin="round" cx="11.232" cy="14.232" r="11.232"></circle>
                <g id="Group" transform="translate(5.000000, 0.000000)" fill="#2C2F31" font-family="Helvetica" font-size="10.368" font-weight="normal">
                    <text id="or">
                        <tspan x="0" y="10">or</tspan>
                    </text>
                </g>
            </g>
            <g id="or" transform="translate(783.000000, 446.000000)">
                <circle id="Oval" stroke="#AAB1B5" fill="#F7F7F7" fill-rule="nonzero" stroke-linecap="round" stroke-linejoin="round" cx="11.232" cy="14.232" r="11.232"></circle>
                <g id="Group" transform="translate(5.000000, 0.000000)" fill="#2C2F31" font-family="Helvetica" font-size="10.368" font-weight="normal">
                    <text id="or">
                        <tspan x="0" y="10">or</tspan>
                    </text>
                </g>
            </g>
            <g id="Platform" transform="translate(551.000000, 458.500000) rotate(180.000000) translate(-551.000000, -458.500000) translate(528.000000, 405.000000)">
                <polygon id="Xcert-image" stroke="#2C2F31" stroke-width="0.8" stroke-linecap="round" stroke-linejoin="round" transform="translate(23.000000, 53.296189) rotate(180.000000) translate(-23.000000, -53.296189) " points="0 -9.99999997e-07 46 -9.99999997e-07 46 87.4852371 26.2695779 106.59238 0 106.59238"></polygon>
                <path d="M31.537053,72.6641791 L20.3952519,83.6171117 C20.2001363,83.8089198 20.2001363,84.1195435 20.3952519,84.3113516 L21.5609953,85.4573341 C21.7561109,85.6491422 21.7561109,85.959766 21.5609953,86.1515741 L19.4233865,88.2529475 C19.2286835,88.4447556 18.9127035,88.4447556 18.7175879,88.2529475 L14.6634738,84.2675561 C14.4675332,84.074937 14.4687707,83.7614747 14.6667739,83.5704776 L25.9599649,72.6641791 L20.0615341,72.6641791 L21.4162055,73.9962925 C21.6133837,74.1897227 21.6109086,74.5044015 21.4112555,74.6949931 L19.2361086,76.7716302 C19.0405805,76.9585721 18.7283131,76.9561391 18.53526,76.766764 L14.362344,72.6641791 L12.1232587,72.6641791 C11.669089,72.6641791 11.2982456,73.0291417 11.2982456,73.4752071 L11.2982456,94.7817226 C11.2982456,95.2281935 11.669089,95.5927505 12.1232587,95.5927505 L14.2501423,95.5927505 L25.525183,84.5092424 C25.7198861,84.3174343 25.7198861,84.0068106 25.525183,83.815408 L24.3590271,82.66902 C24.1639115,82.4772119 24.1639115,82.1665882 24.3590271,81.9747801 L26.4966358,79.8734066 C26.6917514,79.682004 27.0077314,79.682004 27.202847,79.8734066 L31.2565486,83.858798 C31.4529017,84.0518227 31.4512517,84.3648795 31.253661,84.5558766 L19.8247554,95.5927505 L25.9917279,95.5927505 L24.5038168,94.1304671 C24.3070512,93.9366314 24.3095263,93.6219526 24.5091794,93.431361 L26.6839138,91.3547239 C26.8794419,91.167782 27.1917093,91.1702151 27.3847624,91.3599956 L31.6752427,95.577341 L33.7971762,95.5927505 C34.2509334,95.5927505 34.6221893,95.2281935 34.6221893,94.7817226 L34.6221893,73.4752071 C34.6221893,73.0291417 34.2509334,72.6641791 33.7971762,72.6641791 L31.537053,72.6641791 Z" id="Fill-10" fill="#3D8CFF" fill-rule="nonzero"></path>
            </g>
            <g id="Platform" transform="translate(489.000000, 458.500000) rotate(180.000000) translate(-489.000000, -458.500000) translate(466.000000, 405.000000)">
                <polygon id="Xcert-image" stroke="#2C2F31" stroke-width="0.8" stroke-linecap="round" stroke-linejoin="round" transform="translate(23.000000, 53.296189) rotate(180.000000) translate(-23.000000, -53.296189) " points="0 -9.99999997e-07 46 -9.99999997e-07 46 87.4852371 26.2695779 106.59238 0 106.59238"></polygon>
                <path d="M31.537053,72.6641791 L20.3952519,83.6171117 C20.2001363,83.8089198 20.2001363,84.1195435 20.3952519,84.3113516 L21.5609953,85.4573341 C21.7561109,85.6491422 21.7561109,85.959766 21.5609953,86.1515741 L19.4233865,88.2529475 C19.2286835,88.4447556 18.9127035,88.4447556 18.7175879,88.2529475 L14.6634738,84.2675561 C14.4675332,84.074937 14.4687707,83.7614747 14.6667739,83.5704776 L25.9599649,72.6641791 L20.0615341,72.6641791 L21.4162055,73.9962925 C21.6133837,74.1897227 21.6109086,74.5044015 21.4112555,74.6949931 L19.2361086,76.7716302 C19.0405805,76.9585721 18.7283131,76.9561391 18.53526,76.766764 L14.362344,72.6641791 L12.1232587,72.6641791 C11.669089,72.6641791 11.2982456,73.0291417 11.2982456,73.4752071 L11.2982456,94.7817226 C11.2982456,95.2281935 11.669089,95.5927505 12.1232587,95.5927505 L14.2501423,95.5927505 L25.525183,84.5092424 C25.7198861,84.3174343 25.7198861,84.0068106 25.525183,83.815408 L24.3590271,82.66902 C24.1639115,82.4772119 24.1639115,82.1665882 24.3590271,81.9747801 L26.4966358,79.8734066 C26.6917514,79.682004 27.0077314,79.682004 27.202847,79.8734066 L31.2565486,83.858798 C31.4529017,84.0518227 31.4512517,84.3648795 31.253661,84.5558766 L19.8247554,95.5927505 L25.9917279,95.5927505 L24.5038168,94.1304671 C24.3070512,93.9366314 24.3095263,93.6219526 24.5091794,93.431361 L26.6839138,91.3547239 C26.8794419,91.167782 27.1917093,91.1702151 27.3847624,91.3599956 L31.6752427,95.577341 L33.7971762,95.5927505 C34.2509334,95.5927505 34.6221893,95.2281935 34.6221893,94.7817226 L34.6221893,73.4752071 C34.6221893,73.0291417 34.2509334,72.6641791 33.7971762,72.6641791 L31.537053,72.6641791 Z" id="Fill-10" fill="#3D8CFF" fill-rule="nonzero"></path>
            </g>
            <g id="Platform" transform="translate(611.000000, 458.500000) rotate(180.000000) translate(-611.000000, -458.500000) translate(588.000000, 405.000000)">
                <polygon id="Xcert-image" stroke="#2C2F31" stroke-width="0.8" stroke-linecap="round" stroke-linejoin="round" transform="translate(23.000000, 53.296189) rotate(180.000000) translate(-23.000000, -53.296189) " points="0 -9.99999997e-07 46 -9.99999997e-07 46 87.4852371 26.2695779 106.59238 0 106.59238"></polygon>
                <path d="M31.537053,72.6641791 L20.3952519,83.6171117 C20.2001363,83.8089198 20.2001363,84.1195435 20.3952519,84.3113516 L21.5609953,85.4573341 C21.7561109,85.6491422 21.7561109,85.959766 21.5609953,86.1515741 L19.4233865,88.2529475 C19.2286835,88.4447556 18.9127035,88.4447556 18.7175879,88.2529475 L14.6634738,84.2675561 C14.4675332,84.074937 14.4687707,83.7614747 14.6667739,83.5704776 L25.9599649,72.6641791 L20.0615341,72.6641791 L21.4162055,73.9962925 C21.6133837,74.1897227 21.6109086,74.5044015 21.4112555,74.6949931 L19.2361086,76.7716302 C19.0405805,76.9585721 18.7283131,76.9561391 18.53526,76.766764 L14.362344,72.6641791 L12.1232587,72.6641791 C11.669089,72.6641791 11.2982456,73.0291417 11.2982456,73.4752071 L11.2982456,94.7817226 C11.2982456,95.2281935 11.669089,95.5927505 12.1232587,95.5927505 L14.2501423,95.5927505 L25.525183,84.5092424 C25.7198861,84.3174343 25.7198861,84.0068106 25.525183,83.815408 L24.3590271,82.66902 C24.1639115,82.4772119 24.1639115,82.1665882 24.3590271,81.9747801 L26.4966358,79.8734066 C26.6917514,79.682004 27.0077314,79.682004 27.202847,79.8734066 L31.2565486,83.858798 C31.4529017,84.0518227 31.4512517,84.3648795 31.253661,84.5558766 L19.8247554,95.5927505 L25.9917279,95.5927505 L24.5038168,94.1304671 C24.3070512,93.9366314 24.3095263,93.6219526 24.5091794,93.431361 L26.6839138,91.3547239 C26.8794419,91.167782 27.1917093,91.1702151 27.3847624,91.3599956 L31.6752427,95.577341 L33.7971762,95.5927505 C34.2509334,95.5927505 34.6221893,95.2281935 34.6221893,94.7817226 L34.6221893,73.4752071 C34.6221893,73.0291417 34.2509334,72.6641791 33.7971762,72.6641791 L31.537053,72.6641791 Z" id="Fill-10" fill="#3D8CFF" fill-rule="nonzero"></path>
            </g>
            <g id="Page-1-Copy-6" stroke-linecap="round" stroke-linejoin="round" transform="translate(123.000000, 55.000000)" stroke="#2C2F31" stroke-width="2">
                <path d="M12.0642857,24.4075088 C11.5621429,25.8110175 11.0692857,25.8882105 10.5878571,26.0418947 C4.65,27.9359298 0.357142857,32.6882105 0.357142857,39.7057544 L29.9728571,39.7057544 C29.9728571,32.6882105 25.6807143,27.9373333 19.7442857,26.0425965 C19.2628571,25.8882105 18.7692857,25.8110175 18.2671429,24.4075088" id="Stroke-1"></path>
                <path d="M6.599,13.5423158 C5.92471429,13.7563509 5.84828571,15.3626667 6.429,17.1296842 C6.99257143,18.8461754 7.96614286,20.0714386 8.63971429,19.9458246 C10.1768571,22.9296842 13.0761429,25.5472281 15.1647143,25.5472281 C17.254,25.5472281 20.1532857,22.9296842 21.6897143,19.9458246 C22.364,20.0714386 23.3375714,18.8461754 23.9011429,17.1296842 C24.4818571,15.3626667 24.4054286,13.7563509 23.7311429,13.5423158" id="Stroke-3"></path>
                <path d="M21.5934286,26.9338947 C21.5934286,28.4840702 18.7155714,29.7409123 15.1648571,29.7409123 C11.6141429,29.7409123 8.73628571,28.4840702 8.73628571,26.9338947" id="Stroke-5"></path>
                <path d="M6.599,13.5423158 C6.599,13.5423158 8.979,13.1795088 9.33614286,9.74091228 C10.6932857,8.89880702 18.4075714,11.9865263 19.3361429,13.1093333 C19.3361429,13.1093333 18.3361429,9.88126316 18.3361429,9.6005614 C18.3361429,9.31985965 21.6218571,11.1444211 22.4075714,14.5128421 C22.4075714,14.5128421 24.8361429,12.9689825 25.2647143,8.96898246 C25.6932857,4.96898246 21.1932857,-4.57487719 9.33614286,3.49529825 C8.05042857,3.63564912 2.599,2.17389474 6.599,13.5423158 Z" id="Stroke-7"></path>
            </g>
            <g id="Page-1-Copy-7" stroke-linecap="round" stroke-linejoin="round" transform="translate(707.000000, 787.000000)" stroke="#2C2F31" stroke-width="2">
                <path d="M12.0642857,24.4075088 C11.5621429,25.8110175 11.0692857,25.8882105 10.5878571,26.0418947 C4.65,27.9359298 0.357142857,32.6882105 0.357142857,39.7057544 L29.9728571,39.7057544 C29.9728571,32.6882105 25.6807143,27.9373333 19.7442857,26.0425965 C19.2628571,25.8882105 18.7692857,25.8110175 18.2671429,24.4075088" id="Stroke-1"></path>
                <path d="M6.599,13.5423158 C5.92471429,13.7563509 5.84828571,15.3626667 6.429,17.1296842 C6.99257143,18.8461754 7.96614286,20.0714386 8.63971429,19.9458246 C10.1768571,22.9296842 13.0761429,25.5472281 15.1647143,25.5472281 C17.254,25.5472281 20.1532857,22.9296842 21.6897143,19.9458246 C22.364,20.0714386 23.3375714,18.8461754 23.9011429,17.1296842 C24.4818571,15.3626667 24.4054286,13.7563509 23.7311429,13.5423158" id="Stroke-3"></path>
                <path d="M21.5934286,26.9338947 C21.5934286,28.4840702 18.7155714,29.7409123 15.1648571,29.7409123 C11.6141429,29.7409123 8.73628571,28.4840702 8.73628571,26.9338947" id="Stroke-5"></path>
                <path d="M6.599,13.5423158 C6.599,13.5423158 8.979,13.1795088 9.33614286,9.74091228 C10.6932857,8.89880702 18.4075714,11.9865263 19.3361429,13.1093333 C19.3361429,13.1093333 18.3361429,9.88126316 18.3361429,9.6005614 C18.3361429,9.31985965 21.6218571,11.1444211 22.4075714,14.5128421 C22.4075714,14.5128421 24.8361429,12.9689825 25.2647143,8.96898246 C25.6932857,4.96898246 21.1932857,-4.57487719 9.33614286,3.49529825 C8.05042857,3.63564912 2.599,2.17389474 6.599,13.5423158 Z" id="Stroke-7"></path>
            </g>
            <g id="Page-1-Copy-8" stroke-linecap="round" stroke-linejoin="round" transform="translate(452.000000, 787.000000)" stroke="#2C2F31" stroke-width="2">
                <path d="M12.0642857,24.4075088 C11.5621429,25.8110175 11.0692857,25.8882105 10.5878571,26.0418947 C4.65,27.9359298 0.357142857,32.6882105 0.357142857,39.7057544 L29.9728571,39.7057544 C29.9728571,32.6882105 25.6807143,27.9373333 19.7442857,26.0425965 C19.2628571,25.8882105 18.7692857,25.8110175 18.2671429,24.4075088" id="Stroke-1"></path>
                <path d="M6.599,13.5423158 C5.92471429,13.7563509 5.84828571,15.3626667 6.429,17.1296842 C6.99257143,18.8461754 7.96614286,20.0714386 8.63971429,19.9458246 C10.1768571,22.9296842 13.0761429,25.5472281 15.1647143,25.5472281 C17.254,25.5472281 20.1532857,22.9296842 21.6897143,19.9458246 C22.364,20.0714386 23.3375714,18.8461754 23.9011429,17.1296842 C24.4818571,15.3626667 24.4054286,13.7563509 23.7311429,13.5423158" id="Stroke-3"></path>
                <path d="M21.5934286,26.9338947 C21.5934286,28.4840702 18.7155714,29.7409123 15.1648571,29.7409123 C11.6141429,29.7409123 8.73628571,28.4840702 8.73628571,26.9338947" id="Stroke-5"></path>
                <path d="M6.599,13.5423158 C6.599,13.5423158 8.979,13.1795088 9.33614286,9.74091228 C10.6932857,8.89880702 18.4075714,11.9865263 19.3361429,13.1093333 C19.3361429,13.1093333 18.3361429,9.88126316 18.3361429,9.6005614 C18.3361429,9.31985965 21.6218571,11.1444211 22.4075714,14.5128421 C22.4075714,14.5128421 24.8361429,12.9689825 25.2647143,8.96898246 C25.6932857,4.96898246 21.1932857,-4.57487719 9.33614286,3.49529825 C8.05042857,3.63564912 2.599,2.17389474 6.599,13.5423158 Z" id="Stroke-7"></path>
            </g>
            <g id="Group" stroke-linecap="round" stroke-linejoin="round" transform="translate(208.000000, 75.000000)" stroke="#2C2F31" stroke-width="2">
                <path d="M4.618403,8.11250002 C4.47253104,8.20537799 4.19772875,8.788344 4.322052,9.29983156 C4.50694429,10.0605106 5.16460132,10.3573942 5.16460132,10.3573942 C5.16460132,10.3573942 6.19347031,11.7620618 6.19347031,12.5789533 C6.19347031,13.3958447 6.19347031,13.7132101 5.91774915,14.3947083 C5.64202799,15.0762064 0.229769409,15.8931397 0,19.9107754 L7.87754761,19.9107754 L15.8415842,19.9116527 C15.6118147,15.894017 10.1995562,15.0770838 9.92383501,14.3955856 C9.64811385,13.7140874 9.64811385,13.396722 9.64811385,12.5798306 C9.64811385,11.7629391 10.6769828,10.3582715 10.6769828,10.3582715 C10.6769828,10.3582715 11.3346399,10.061388 11.5195322,9.30070887 C11.6438554,8.78922131 11.3690531,8.2062553 11.2231812,8.11337733 C11.613099,6.88317747 12.3918487,2.64209338 7.96403655,2.48923661 C7.94435435,2.48634677 7.92477375,2.48686262 7.90529318,2.48745712 C3.44973549,2.64121607 4.22848517,6.88230016 4.618403,8.11250002 Z" id="Layer-5"></path>
                <path d="M28.7768188,8.11250002 C28.6309469,8.20537799 28.3561446,8.788344 28.4804678,9.29983156 C28.6653601,10.0605106 29.3230172,10.3573942 29.3230172,10.3573942 C29.3230172,10.3573942 30.3518862,11.7620618 30.3518862,12.5789533 C30.3518862,13.3958447 30.3518862,13.7132101 30.076165,14.3947083 C29.8004438,15.0762064 24.3881853,15.8931397 24.1584158,19.9107754 L40,19.9116527 C39.7702306,15.894017 34.357972,15.0770838 34.0822508,14.3955856 C33.8065297,13.7140874 33.8065297,13.396722 33.8065297,12.5798306 C33.8065297,11.7629391 34.8353987,10.3582715 34.8353987,10.3582715 C34.8353987,10.3582715 35.4930557,10.061388 35.677948,9.30070887 C35.8022713,8.78922131 35.527469,8.2062553 35.381597,8.11337733 C35.7715148,6.88317747 36.5502645,2.64209338 32.1224524,2.48923661 C32.1027702,2.48634677 32.0831896,2.48686262 32.063709,2.48745712 C27.6081513,2.64121607 28.386901,6.88230016 28.7768188,8.11250002 Z" id="Layer-6"></path>
                <path d="M26.7219814,16.1238424 C24.8065376,14.6709595 22.3035466,14.1271504 22.1054796,13.6433946 C21.7884002,12.8689649 21.7884002,12.5083224 21.7884002,11.5800367 C21.7884002,10.6517509 22.9715996,9.05553774 22.9715996,9.05553774 C22.9715996,9.05553774 23.7279052,8.71817004 23.9405313,7.85376199 C24.083503,7.27252612 23.7674804,6.61006475 23.5997276,6.5045216 C24.0481331,5.10656721 24.9436953,0.287153474 19.8517113,0.113452598 C19.8290768,0.110168685 19.8065591,0.110754884 19.7841565,0.111430453 C14.6602651,0.28615653 15.5558273,5.10557026 16.0042328,6.50352465 C15.83648,6.6090678 15.5204574,7.27152917 15.6634291,7.85276505 C15.8760552,8.71717309 16.6323608,9.0545408 16.6323608,9.0545408 C16.6323608,9.0545408 17.8155602,10.650754 17.8155602,11.5790397 C17.8155602,12.5073255 17.8155602,12.8679679 17.4984808,13.6423977 C17.3064349,14.1114476 14.947471,14.6369552 13.0582109,15.9928421 C14.4193039,16.7852654 15.7305307,17.977298 15.841527,19.9106558 L19.7522491,19.9106558 L24.1728463,19.911137 L24.1584158,19.9107754 C24.263049,18.0812112 25.4423953,16.9153894 26.7219814,16.1238424 Z" id="Layer-7"></path>
            </g>
            <g id="Group-Copy" stroke-linecap="round" stroke-linejoin="round" transform="translate(783.000000, 807.000000)" stroke="#2C2F31" stroke-width="2">
                <path d="M4.618403,8.11250002 C4.47253104,8.20537799 4.19772875,8.788344 4.322052,9.29983156 C4.50694429,10.0605106 5.16460132,10.3573942 5.16460132,10.3573942 C5.16460132,10.3573942 6.19347031,11.7620618 6.19347031,12.5789533 C6.19347031,13.3958447 6.19347031,13.7132101 5.91774915,14.3947083 C5.64202799,15.0762064 0.229769409,15.8931397 0,19.9107754 L7.87754761,19.9107754 L15.8415842,19.9116527 C15.6118147,15.894017 10.1995562,15.0770838 9.92383501,14.3955856 C9.64811385,13.7140874 9.64811385,13.396722 9.64811385,12.5798306 C9.64811385,11.7629391 10.6769828,10.3582715 10.6769828,10.3582715 C10.6769828,10.3582715 11.3346399,10.061388 11.5195322,9.30070887 C11.6438554,8.78922131 11.3690531,8.2062553 11.2231812,8.11337733 C11.613099,6.88317747 12.3918487,2.64209338 7.96403655,2.48923661 C7.94435435,2.48634677 7.92477375,2.48686262 7.90529318,2.48745712 C3.44973549,2.64121607 4.22848517,6.88230016 4.618403,8.11250002 Z" id="Layer-5"></path>
                <path d="M28.7768188,8.11250002 C28.6309469,8.20537799 28.3561446,8.788344 28.4804678,9.29983156 C28.6653601,10.0605106 29.3230172,10.3573942 29.3230172,10.3573942 C29.3230172,10.3573942 30.3518862,11.7620618 30.3518862,12.5789533 C30.3518862,13.3958447 30.3518862,13.7132101 30.076165,14.3947083 C29.8004438,15.0762064 24.3881853,15.8931397 24.1584158,19.9107754 L40,19.9116527 C39.7702306,15.894017 34.357972,15.0770838 34.0822508,14.3955856 C33.8065297,13.7140874 33.8065297,13.396722 33.8065297,12.5798306 C33.8065297,11.7629391 34.8353987,10.3582715 34.8353987,10.3582715 C34.8353987,10.3582715 35.4930557,10.061388 35.677948,9.30070887 C35.8022713,8.78922131 35.527469,8.2062553 35.381597,8.11337733 C35.7715148,6.88317747 36.5502645,2.64209338 32.1224524,2.48923661 C32.1027702,2.48634677 32.0831896,2.48686262 32.063709,2.48745712 C27.6081513,2.64121607 28.386901,6.88230016 28.7768188,8.11250002 Z" id="Layer-6"></path>
                <path d="M26.7219814,16.1238424 C24.8065376,14.6709595 22.3035466,14.1271504 22.1054796,13.6433946 C21.7884002,12.8689649 21.7884002,12.5083224 21.7884002,11.5800367 C21.7884002,10.6517509 22.9715996,9.05553774 22.9715996,9.05553774 C22.9715996,9.05553774 23.7279052,8.71817004 23.9405313,7.85376199 C24.083503,7.27252612 23.7674804,6.61006475 23.5997276,6.5045216 C24.0481331,5.10656721 24.9436953,0.287153474 19.8517113,0.113452598 C19.8290768,0.110168685 19.8065591,0.110754884 19.7841565,0.111430453 C14.6602651,0.28615653 15.5558273,5.10557026 16.0042328,6.50352465 C15.83648,6.6090678 15.5204574,7.27152917 15.6634291,7.85276505 C15.8760552,8.71717309 16.6323608,9.0545408 16.6323608,9.0545408 C16.6323608,9.0545408 17.8155602,10.650754 17.8155602,11.5790397 C17.8155602,12.5073255 17.8155602,12.8679679 17.4984808,13.6423977 C17.3064349,14.1114476 14.947471,14.6369552 13.0582109,15.9928421 C14.4193039,16.7852654 15.7305307,17.977298 15.841527,19.9106558 L19.7522491,19.9106558 L24.1728463,19.911137 L24.1584158,19.9107754 C24.263049,18.0812112 25.4423953,16.9153894 26.7219814,16.1238424 Z" id="Layer-7"></path>
            </g>
            <g id="Group-Copy-2" stroke-linecap="round" stroke-linejoin="round" transform="translate(528.000000, 807.000000)" stroke="#2C2F31" stroke-width="2">
                <path d="M4.618403,8.11250002 C4.47253104,8.20537799 4.19772875,8.788344 4.322052,9.29983156 C4.50694429,10.0605106 5.16460132,10.3573942 5.16460132,10.3573942 C5.16460132,10.3573942 6.19347031,11.7620618 6.19347031,12.5789533 C6.19347031,13.3958447 6.19347031,13.7132101 5.91774915,14.3947083 C5.64202799,15.0762064 0.229769409,15.8931397 0,19.9107754 L7.87754761,19.9107754 L15.8415842,19.9116527 C15.6118147,15.894017 10.1995562,15.0770838 9.92383501,14.3955856 C9.64811385,13.7140874 9.64811385,13.396722 9.64811385,12.5798306 C9.64811385,11.7629391 10.6769828,10.3582715 10.6769828,10.3582715 C10.6769828,10.3582715 11.3346399,10.061388 11.5195322,9.30070887 C11.6438554,8.78922131 11.3690531,8.2062553 11.2231812,8.11337733 C11.613099,6.88317747 12.3918487,2.64209338 7.96403655,2.48923661 C7.94435435,2.48634677 7.92477375,2.48686262 7.90529318,2.48745712 C3.44973549,2.64121607 4.22848517,6.88230016 4.618403,8.11250002 Z" id="Layer-5"></path>
                <path d="M28.7768188,8.11250002 C28.6309469,8.20537799 28.3561446,8.788344 28.4804678,9.29983156 C28.6653601,10.0605106 29.3230172,10.3573942 29.3230172,10.3573942 C29.3230172,10.3573942 30.3518862,11.7620618 30.3518862,12.5789533 C30.3518862,13.3958447 30.3518862,13.7132101 30.076165,14.3947083 C29.8004438,15.0762064 24.3881853,15.8931397 24.1584158,19.9107754 L40,19.9116527 C39.7702306,15.894017 34.357972,15.0770838 34.0822508,14.3955856 C33.8065297,13.7140874 33.8065297,13.396722 33.8065297,12.5798306 C33.8065297,11.7629391 34.8353987,10.3582715 34.8353987,10.3582715 C34.8353987,10.3582715 35.4930557,10.061388 35.677948,9.30070887 C35.8022713,8.78922131 35.527469,8.2062553 35.381597,8.11337733 C35.7715148,6.88317747 36.5502645,2.64209338 32.1224524,2.48923661 C32.1027702,2.48634677 32.0831896,2.48686262 32.063709,2.48745712 C27.6081513,2.64121607 28.386901,6.88230016 28.7768188,8.11250002 Z" id="Layer-6"></path>
                <path d="M26.7219814,16.1238424 C24.8065376,14.6709595 22.3035466,14.1271504 22.1054796,13.6433946 C21.7884002,12.8689649 21.7884002,12.5083224 21.7884002,11.5800367 C21.7884002,10.6517509 22.9715996,9.05553774 22.9715996,9.05553774 C22.9715996,9.05553774 23.7279052,8.71817004 23.9405313,7.85376199 C24.083503,7.27252612 23.7674804,6.61006475 23.5997276,6.5045216 C24.0481331,5.10656721 24.9436953,0.287153474 19.8517113,0.113452598 C19.8290768,0.110168685 19.8065591,0.110754884 19.7841565,0.111430453 C14.6602651,0.28615653 15.5558273,5.10557026 16.0042328,6.50352465 C15.83648,6.6090678 15.5204574,7.27152917 15.6634291,7.85276505 C15.8760552,8.71717309 16.6323608,9.0545408 16.6323608,9.0545408 C16.6323608,9.0545408 17.8155602,10.650754 17.8155602,11.5790397 C17.8155602,12.5073255 17.8155602,12.8679679 17.4984808,13.6423977 C17.3064349,14.1114476 14.947471,14.6369552 13.0582109,15.9928421 C14.4193039,16.7852654 15.7305307,17.977298 15.841527,19.9106558 L19.7522491,19.9106558 L24.1728463,19.911137 L24.1584158,19.9107754 C24.263049,18.0812112 25.4423953,16.9153894 26.7219814,16.1238424 Z" id="Layer-7"></path>
            </g>
        </g>
    </g>
</svg>