<?xml version="1.0" encoding="utf-8"?>
<!-- Generator: Adobe Illustrator 17.0.0, SVG Export Plug-In . SVG Version: 6.00 Build 0)  -->
<!DOCTYPE svg PUBLIC "-//W3C//DTD SVG 1.1//EN" "http://www.w3.org/Graphics/SVG/1.1/DTD/svg11.dtd">
<svg version="1.1" id="Layer_1" xmlns="http://www.w3.org/2000/svg" xmlns:xlink="http://www.w3.org/1999/xlink" x="0px" y="0px"
	 width="1110px" height="550.5px" viewBox="0 181.5 1110 550.5" enable-background="new 0 181.5 1110 550.5" xml:space="preserve">
<pattern  x="-164.5" y="762.5" width="6" height="6" patternUnits="userSpaceOnUse" id="pattern-15" viewBox="57.21 -56.642 6 6" overflow="visible">
	<g>
		<polygon fill="none" points="57.21,-50.642 63.21,-50.642 63.21,-56.642 57.21,-56.642 		"/>
		<g>
			
				<image overflow="visible" enable-background="new    " width="6" height="6" id="image-16_1_" xlink:href="E942E37232649B16.png"  transform="matrix(1 0 0 -1 0 0)">
			</image>
		</g>
	</g>
</pattern>
<pattern  x="-164.5" y="762.5" width="6" height="6" patternUnits="userSpaceOnUse" id="pattern-18" viewBox="3 -33 6 6" overflow="visible">
	<g>
		<polygon fill="none" points="3,-27 9,-27 9,-33 3,-33 		"/>
		<g>
			
				<image overflow="visible" enable-background="new    " width="6" height="6" id="image-19_1_" xlink:href="E942E37232649B1A.png"  transform="matrix(1 0 0 -1 0 0)">
			</image>
		</g>
	</g>
</pattern>
<pattern  x="-164.5" y="762.5" width="6" height="6" patternUnits="userSpaceOnUse" id="pattern-2" viewBox="0 -6 6 6" overflow="visible">
	<g>
		<polygon fill="none" points="0,0 6,0 6,-6 0,-6 		"/>
		<g>
			
				<image overflow="visible" enable-background="new    " width="6" height="6" id="image-3_1_" xlink:href="E942E37232649B1D.png"  transform="matrix(1 0 0 -1 5.9411 -5.0439)">
			</image>
		</g>
	</g>
</pattern>
<pattern  x="-164.5" y="762.5" width="6" height="6" patternUnits="userSpaceOnUse" id="pattern-21" viewBox="34 -29 6 6" overflow="visible">
	<g>
		<polygon fill="none" points="34,-23 40,-23 40,-29 34,-29 		"/>
		<g>
			
				<image overflow="visible" enable-background="new    " width="6" height="6" id="image-22_1_" xlink:href="E942E37232649B1E.png"  transform="matrix(1 0 0 -1 0 0)">
			</image>
		</g>
	</g>
</pattern>
<pattern  x="-164.5" y="762.5" width="6" height="6" patternUnits="userSpaceOnUse" id="pattern-24" viewBox="34 -29 6 6" overflow="visible">
	<g>
		<polygon fill="none" points="34,-23 40,-23 40,-29 34,-29 		"/>
		<g>
			
				<image overflow="visible" enable-background="new    " width="6" height="6" id="image-25_1_" xlink:href="E942E37232649B1C.png"  transform="matrix(1 0 0 -1 0 0)">
			</image>
		</g>
	</g>
</pattern>
<pattern  x="-164.5" y="762.5" width="6" height="6" patternUnits="userSpaceOnUse" id="pattern-27" viewBox="0 -16.835 6 6" overflow="visible">
	<g>
		<polygon fill="none" points="0,-10.835 6,-10.835 6,-16.835 0,-16.835 		"/>
		<g>
			
				<image overflow="visible" enable-background="new    " width="6" height="6" id="image-28_1_" xlink:href="E942E37232649B1B.png"  transform="matrix(1 0 0 -1 6 0)">
			</image>
		</g>
	</g>
</pattern>
<pattern  x="-164.5" y="762.5" width="6" height="6" patternUnits="userSpaceOnUse" id="pattern-5" viewBox="0 -6 6 6" overflow="visible">
	<g>
		<polygon fill="none" points="0,0 6,0 6,-6 0,-6 		"/>
		<g>
			
				<image overflow="visible" enable-background="new    " width="6" height="6" id="image-6_1_" xlink:href="E942E37232649B15.png"  transform="matrix(1 0 0 -1 5.9411 -5.0439)">
			</image>
		</g>
	</g>
</pattern>
<pattern  x="-164.5" y="762.5" width="6" height="6" patternUnits="userSpaceOnUse" id="pattern-8" viewBox="92.496 -6 6 6" overflow="visible">
	<g>
		<polygon fill="none" points="92.496,0 98.496,0 98.496,-6 92.496,-6 		"/>
		<g>
			
				<image overflow="visible" enable-background="new    " width="6" height="6" id="image-9_1_" xlink:href="E942E37232649B17.png"  transform="matrix(1 0 0 -1 0 -5.9062)">
			</image>
		</g>
	</g>
</pattern>
<title>how it works</title>
<desc>Created with Sketch.</desc>
<g id="xCERT-official-3" transform="translate(-246.000000, -1062.000000)">
	<g id="how-it-works" transform="translate(245.000000, 1063.000000)">
		<text transform="matrix(1 0 0 1 377.24 728)" fill="#2C2F31" font-family="'OverpassMono-Bold'" font-size="20">0xcert/dapp</text>
		<path id="Line-2-Copy-4" fill="none" stroke="#2C2F31" d="M490,509l336-191"/>
		<path id="Line-2-Copy-12" fill="none" stroke="#2C2F31" d="M701.149,640.755l371.456-210.803"/>
		<path id="Line-2-Copy-4_1_" fill="none" stroke="#2C2F31" d="M230,408l252.25,144.901"/>
		<path id="Line-2-Copy-13" fill="none" stroke="#2C2F31" d="M496,535l214.548,121.115"/>
		<path id="Line-2-Copy-4_2_" fill="none" stroke="#2C2F31" d="M863.91,309.462l209.426,120.187"/>
		<g id="Step" transform="translate(276.000000, 428.000000)">
			<circle id="Oval" fill="#FFF9B4" cx="15.05" cy="15.05" r="15.05"/>
			<text transform="matrix(1 0 0 1 11.9504 18.7)" fill="#7D8285" font-family="'OverpassMono-Bold'" font-size="11.2">1</text>
		</g>
		<g id="Step_1_" transform="translate(683.000000, 372.000000)">
			<circle id="Oval_1_" fill="#FFF9B4" cx="15.05" cy="15.05" r="15.05"/>
			<text transform="matrix(1 0 0 1 11.2504 18.7)" fill="#7D8285" font-family="'OverpassMono-Bold'" font-size="11.2">4</text>
		</g>
		<g id="Step_2_" transform="translate(958.000000, 359.000000)">
			<circle id="Oval_2_" fill="#FFF9B4" cx="15.05" cy="15.05" r="15.05"/>
			<text transform="matrix(1 0 0 1 11.9504 18.7)" fill="#7D8285" font-family="'OverpassMono-Bold'" font-size="11.2">3</text>
		</g>
		<path id="Line" fill="none" stroke="#2C2F31" d="M229,326.521v333.695"/>
		<path id="Line_6_" fill="none" stroke="#2C2F31" d="M228.954,158.881"/>
		<path id="Line_5_" fill="none" stroke="#2C2F31" d="M147,112"/>
		<path id="Line_2_" fill="none" stroke="#2C2F31" d="M146.799,279.938l81.701,46.582"/>
		<path id="Line_3_" fill="none" stroke="#2C2F31" d="M146.799,444.938l81.701,46.582"/>
		<path id="Line_4_" fill="none" stroke="#2C2F31" d="M146.799,612.938l81.701,46.582"/>
		<text transform="matrix(1 0 0 1 42.04 728)" fill="#2C2F31" font-family="'OverpassMono-Bold'" font-size="20">Issuer</text>
		<text transform="matrix(1 0 0 1 806.22 206)" fill="#2C2F31" font-family="'OverpassMono-Bold'" font-size="20">Sceptic</text>
		<g id="_x30_xCert" transform="translate(359.000000, 361.000000)">
			<g id="Group-15" transform="translate(0.000000, 56.630558)">
				<g id="Group-6-Copy-7" transform="translate(98.437500, 76.429855)">
					<g id="Shape-Copy-18">
						<g>
							<polyline id="path-1" fill="#FFFFFF" points="99.391,0.956 99.391,40.598 0.059,97.384 0.059,58.071 							"/>
						</g>
						<g>
							<pattern  id="path-1_2_" xlink:href="#pattern-2" patternTransform="matrix(1 0 0 -1 746.9964 -17048.5156)">
							</pattern>
							
								<polyline id="path-1_1_" fill="url(#path-1_2_)" fill-opacity="0.2" stroke="#2C2F31" stroke-linecap="round" stroke-linejoin="round" points="
								99.391,0.956 99.391,40.598 0.059,97.384 0.059,58.071 							"/>
						</g>
					</g>
				</g>
				<g id="Group-6-Copy-7_1_" transform="translate(98.437500, 37.636573)">
					<g id="Shape-Copy-18_1_">
						<g>
							<polyline id="path-4" fill="#FFFFFF" points="99.391,0.956 99.391,40.598 0.059,97.384 0.059,58.071 							"/>
						</g>
						<g>
							<pattern  id="path-4_2_" xlink:href="#pattern-5" patternTransform="matrix(1 0 0 -1 746.9964 -17009.7227)">
							</pattern>
							
								<polyline id="path-4_1_" fill="url(#path-4_2_)" fill-opacity="0.2" stroke="#2C2F31" stroke-linecap="round" stroke-linejoin="round" points="
								99.391,0.956 99.391,40.598 0.059,97.384 0.059,58.071 							"/>
						</g>
					</g>
				</g>
				<g id="Group-6-Copy-7_2_" transform="translate(0.000000, 0.956950)">
					<g id="Shape-Copy-18_2_">
						<g>
							<polyline id="path-7" fill="#FFFFFF" points="197.829,0.094 197.829,39.736 98.496,96.522 98.496,57.208 							"/>
						</g>
						<g>
							<pattern  id="path-7_2_" xlink:href="#pattern-8" patternTransform="matrix(1 0 0 -1 746.9964 -16972.1816)">
							</pattern>
							
								<polyline id="path-7_1_" fill="url(#path-7_2_)" fill-opacity="0.2" stroke="#2C2F31" stroke-linecap="round" stroke-linejoin="round" points="
								197.829,0.094 197.829,39.736 98.496,96.522 98.496,57.208 							"/>
						</g>
					</g>
					<polyline id="Shape-Copy-18_3_" fill="#FFFFFF" stroke="#2C2F31" stroke-linecap="round" stroke-linejoin="round" points="
						0.059,76.429 0.059,116.071 99.391,172.857 99.391,133.543 					"/>
					<polyline id="Shape-Copy-18_4_" fill="#FFFFFF" stroke="#2C2F31" stroke-linecap="round" stroke-linejoin="round" points="
						0.059,37.636 0.059,77.278 99.391,134.063 99.391,94.75 					"/>
					<polyline id="Shape-Copy-18_5_" fill="#FFFFFF" stroke="#2C2F31" stroke-linecap="round" stroke-linejoin="round" points="
						0.059,0.094 0.059,39.736 99.391,96.522 99.391,57.208 					"/>
				</g>
			</g>
			<g id="Group-2" transform="translate(0.144060, 0.000000)">
				<g id="Group-10">
					<polygon id="Path-6-Copy" fill="#0971FF" stroke="#2C2F31" points="0.233,57.289 99.277,113.573 197.005,57.36 100.327,0.456 
											"/>
					<path id="Shape" fill="#F7F7F7" stroke="#2C2F31" stroke-linecap="round" stroke-linejoin="round" d="M15.679,55.336
						c-1.471,0.981-1.471,1.962,0,2.943s3.924,0.981,5.395,0c1.471-0.981,1.471-2.453,0-2.943
						C19.602,54.355,17.15,54.355,15.679,55.336z"/>
					<path id="Shape_1_" fill="#F7F7F7" stroke="#2C2F31" stroke-linecap="round" stroke-linejoin="round" d="M97.979,10.253
						c-1.471,0.981-1.471,1.962,0,2.943c1.471,0.981,3.924,0.981,5.395,0s1.471-2.453,0-2.943
						C101.902,9.272,99.45,9.272,97.979,10.253z"/>
					<path id="Shape-Copy" fill="#F7F7F7" stroke="#2C2F31" stroke-linecap="round" stroke-linejoin="round" d="M175.433,55.401
						c-1.471,0.981-1.471,1.962,0,2.943s3.924,0.981,5.395,0c1.471-0.981,1.471-2.453,0-2.943
						C179.357,54.42,176.905,54.42,175.433,55.401z"/>
					<path id="Shape-Copy_1_" fill="#F7F7F7" stroke="#2C2F31" stroke-linecap="round" stroke-linejoin="round" d="M96.416,99.011
						c-1.471,0.981-1.471,1.962,0,2.943c1.471,0.981,3.924,0.981,5.395,0s1.471-2.453,0-2.943
						C100.34,98.03,97.887,98.03,96.416,99.011z"/>
				</g>
				<path id="logo" fill="#FFFFFF" d="M140.821,50.793l-46.132,0.684c-0.808,0.012-1.478,0.388-1.498,0.839l-0.119,2.696
					c-0.02,0.451-0.69,0.823-1.498,0.831l-8.851,0.088c-0.807,0.009-1.445-0.345-1.425-0.79l0.412-9.244
					c0.02-0.447,0.699-0.825,1.511-0.84l46.337-0.838l-11.911-6.754l-0.139,3.231c-0.019,0.47-0.703,0.866-1.518,0.881l-8.873,0.161
					c-0.798,0.015-1.424-0.338-1.405-0.791l0.425-9.814l-4.522-2.436c-0.917-0.491-2.453-0.423-3.416,0.147L52.23,54.614
					c-0.963,0.51-1.001,1.323-0.084,1.811l4.295,2.303l46.683-0.313c0.807-0.006,1.477-0.38,1.497-0.837l0.119-2.735
					c0.02-0.458,0.69-0.836,1.498-0.846l8.851-0.103c0.807-0.009,1.445,0.36,1.426,0.823l-0.413,9.643
					c-0.02,0.467-0.699,0.842-1.51,0.836l-46.893-0.306l12.453,7.028l0.15-3.383c0.021-0.448,0.705-0.806,1.519-0.795l8.872,0.115
					c0.798,0.01,1.424,0.377,1.404,0.822l-0.435,9.897l4.252,2.558c0.916,0.547,2.453,0.581,3.416,0.074l45.971-25.665
					c0.962-0.568,1-1.483,0.084-2.031"/>
			</g>
		</g>
		<g id="icon-identities" transform="translate(800.000000, 219.000000)">
			<g id="Group-6-Copy-13">
				<g id="Shape-Copy-10">
					<g>
						<polyline id="path-10" fill="#FFFFFF" points="99.442,68 99.442,86.905 52,113.985 52,95.237 						"/>
					</g>
					<g>
						
							<polyline id="path-10_1_" fill="#41FF8B" fill-opacity="0.13" stroke="#2C2F31" stroke-linecap="round" stroke-linejoin="round" points="
							99.442,68 99.442,86.905 52,113.985 52,95.237 						"/>
					</g>
				</g>
				<g id="Shape-Copy-14">
					<g>
						<polyline id="path-11" fill="#FFFFFF" points="99.442,49 99.442,67.905 52,94.985 52,76.237 						"/>
					</g>
					<g>
						
							<polyline id="path-11_1_" fill="#41FF8B" fill-opacity="0.13" stroke="#2C2F31" stroke-linecap="round" stroke-linejoin="round" points="
							99.442,49 99.442,67.905 52,94.985 52,76.237 						"/>
					</g>
				</g>
				<g id="Shape-Copy-18_6_">
					<g>
						<polyline id="path-12" fill="#FFFFFF" points="99.442,30 99.442,48.905 52,75.985 52,57.237 						"/>
					</g>
					<g>
						
							<polyline id="path-12_1_" fill="#41FF8B" fill-opacity="0.13" stroke="#2C2F31" stroke-linecap="round" stroke-linejoin="round" points="
							99.442,30 99.442,48.905 52,75.985 52,57.237 						"/>
					</g>
				</g>
				<polyline id="Shape-Copy-11" fill="#FFFFFF" stroke="#2C2F31" points="52.198,113.995 0,82.748 0,64 				"/>
				<polyline id="Shape-Copy-15" fill="none" stroke="#2C2F31" points="52.198,94.995 0,63.748 0,45 				"/>
				<polyline id="Shape-Copy-19" fill="#FFFFFF" stroke="#2C2F31" points="52.198,75.995 0,44.748 0,26 				"/>
				<g id="Shape_2_">
					<g>
						<polygon id="path-13" fill="#FFFFFF" points="52.198,56.822 0,25.692 48.718,0 99.595,29.485 						"/>
					</g>
					<g>
						<polygon id="path-13_1_" fill="#41FF8B" stroke="#2C2F31" stroke-linecap="round" stroke-linejoin="round" points="
							52.198,56.822 0,25.692 48.718,0 99.595,29.485 						"/>
					</g>
				</g>
			</g>
		</g>
		<g id="university" transform="translate(30.000000, 0.000000)">
			<path id="Fill-1" fill="#FFFFFF" stroke="#2C2F31" stroke-linecap="round" stroke-linejoin="round" d="M41.222,247.117
				c0-0.315,0.168-0.605,0.44-0.762l22.182-12.961V220.87l-32.103,18.088l-0.271,48.564l9.765-4.569"/>
			<path id="Fill-3" fill="#F7F7F7" stroke="#2C2F31" stroke-linecap="round" stroke-linejoin="round" d="M25.512,203.041v6.574
				c0,0.629-0.336,1.211-0.881,1.525c-0.272,0.157-0.577,0.236-0.88,0.236c-0.304,0-0.608-0.079-0.881-0.236l-5.693-3.287
				l-0.786,0.453l1,2.147l14.606,28.347l31.847-17.964L48.099,190L25.512,203.041z"/>
			<path id="Fill-5" fill="#FFFFFF" stroke="#2C2F31" stroke-linecap="round" stroke-linejoin="round" d="M43.294,281.36v-7.341
				l17.843,10.302v7.341L43.294,281.36z M43.294,257.617l17.843,10.302v7.341l-17.843-10.302V257.617z M63.449,296.318v-36.705
				l-5.617-3.243l-16.849-9.728v36.706L63.449,296.318z"/>
			<g id="Fill-7">
				<g>
					<path id="path-14" fill="#FFFFFF" d="M82.703,265.339l-6.049,3.492v-7.341l6.049-3.492V265.339z M82.703,281.742l-6.049,3.492
						v-7.341l6.049-3.492V281.742z M72.23,271.385l-6.049,3.492v-7.341l6.049-3.492V271.385z M72.23,287.788l-6.049,3.492v-7.341
						l6.049-3.492V287.788z M68.826,256.37l-5.616,3.243v36.705l22.465-12.97v-36.706L68.826,256.37z"/>
				</g>
				<g>
					<pattern  id="path-14_2_" xlink:href="#pattern-15" patternTransform="matrix(1 0 0 -1 382.7096 -16711.4258)">
					</pattern>
					
						<path id="path-14_1_" fill="url(#path-14_2_)" fill-opacity="0.2" stroke="#2C2F31" stroke-linecap="round" stroke-linejoin="round" d="
						M82.703,265.339l-6.049,3.492v-7.341l6.049-3.492V265.339z M82.703,281.742l-6.049,3.492v-7.341l6.049-3.492V281.742z
						 M72.23,271.385l-6.049,3.492v-7.341l6.049-3.492V271.385z M72.23,287.788l-6.049,3.492v-7.341l6.049-3.492V287.788z
						 M68.826,256.37l-5.616,3.243v36.705l22.465-12.97v-36.706L68.826,256.37z"/>
				</g>
			</g>
			<polygon id="Fill-10" fill="#F7F7F7" stroke="#2C2F31" stroke-linecap="round" stroke-linejoin="round" points="63.329,234.146 
				40.864,247.117 63.329,260.087 85.794,247.117 			"/>
			<path id="Fill-12" fill="#FFFFFF" stroke="#2C2F31" stroke-linecap="round" stroke-linejoin="round" d="M15.812,220.22
				c3.249,1.876,5.882,6.438,5.882,10.188c0,3.751-2.634,5.271-5.882,3.395c-3.248-1.876-5.883-6.437-5.883-10.188
				C9.929,219.864,12.564,218.344,15.812,220.22z M8.294,274.21v-18.743l15.967,9.278v18.683l7.21,4.163v-49.909L16.63,208.881
				v-7.532l9.121,5.266v-10.068l-11.028-6.367v17.759L0,219.513v49.909L8.294,274.21z"/>
			<polygon id="Fill-22" fill="#414042" points="17.873,225.832 17.347,225.179 15.704,227.516 14.191,225.634 13.888,226.065 
				15.926,228.601 			"/>
		</g>
		<text transform="matrix(1 0 0 1 964.3921 322)" fill="#9B9B9B" font-family="'OverpassMono-Bold'" font-size="14">Sceptic wants to</text>
		<text transform="matrix(1 0 0 1 1110.9994 322)" fill="#9B9B9B" font-family="'OverpassMono-Bold'" font-size="14"> </text>
		<text transform="matrix(1 0 0 1 955.7681 343)" fill="#9B9B9B" font-family="'OverpassMono-Bold'" font-size="14">verify certificate</text>
		<g id="Step_3_" transform="translate(567.000000, 566.000000)">
			<circle id="Oval_3_" fill="#FFF9B4" cx="15.05" cy="15.05" r="15.05"/>
			<text transform="matrix(1 0 0 1 11.9504 18.7)" fill="#7D8285" font-family="'OverpassMono-Bold'" font-size="11.2">2</text>
		</g>
		<text transform="matrix(1 0 0 1 441.072 619)" fill="#9B9B9B" font-family="'OverpassMono-Bold'" font-size="14">Receives blockchain</text>
		<text transform="matrix(1 0 0 1 604.9272 619)" fill="#9B9B9B" font-family="'OverpassMono-Bold'" font-size="14"> </text>
		<text transform="matrix(1 0 0 1 475.568 640)" fill="#9B9B9B" font-family="'OverpassMono-Bold'" font-size="14">certificate</text>
		<g id="Certificate" transform="translate(21.000000, 357.000000)">
			<path id="Stroke-7" fill="#FFFFFF" stroke="#2C2F31" d="M56.098,84.942L4.464,113.819c-1.446,0.809-3.274,0.292-4.083-1.154
				c-0.251-0.449-0.383-0.956-0.382-1.471l0.16-76.748c0.004-1.854,1.136-4.006,2.529-4.806L55.287,0.3
				c1.392-0.8,2.518,0.055,2.514,1.909l-0.167,80.12C57.631,83.414,57.044,84.412,56.098,84.942z"/>
			<path id="Fill-17" fill="none" stroke="#2C2F31" d="M9,88.011L47.309,66L9,88.011z"/>
			<g id="Stroke-23">
				<g>
					<path id="path-17" fill="#FFFFFF" d="M48.739,59.63L11.293,79.981c-1.271,0.73-2.297-0.05-2.293-1.741l0.042-20.231
						c0.003-1.691,1.036-3.654,2.306-4.384l37.446-20.351c1.269-0.729,2.296,0.05,2.293,1.741l-0.042,20.231
						C51.041,56.937,50.009,58.9,48.739,59.63z"/>
				</g>
				<g>
					<pattern  id="path-17_2_" xlink:href="#pattern-18" patternTransform="matrix(1 0 0 -1 319.5 -16997.5)">
					</pattern>
					
						<path id="path-17_1_" fill="url(#path-17_2_)" fill-opacity="0.2" stroke="#2C2F31" stroke-linecap="round" stroke-linejoin="round" d="
						M48.739,59.63L11.293,79.981c-1.271,0.73-2.297-0.05-2.293-1.741l0.042-20.231c0.003-1.691,1.036-3.654,2.306-4.384
						l37.446-20.351c1.269-0.729,2.296,0.05,2.293,1.741l-0.042,20.231C51.041,56.937,50.009,58.9,48.739,59.63z"/>
				</g>
			</g>
			<path id="Fill-49" fill="#30CAE8" stroke="#2C2F31" stroke-linecap="round" stroke-linejoin="round" d="M26.406,45.968
				c-0.009,4.114-2.926,9.121-6.516,11.184c-3.589,2.062-6.493,0.399-6.484-3.715c0.009-4.115,2.926-9.122,6.516-11.184
				C23.511,40.191,26.415,41.854,26.406,45.968"/>
			<g id="Holder" transform="translate(26.000000, 51.000000)">
				<path id="Stroke-1" fill="none" stroke="#2C2F31" stroke-linecap="round" stroke-linejoin="round" d="M4.744,11.86
					c-0.203,0.657-0.403,0.8-0.598,0.971C1.739,14.936,0,17.759,0,20.461l12-5.857c0-2.702-1.739-4.537-4.145-3.892
					c-0.195,0.052-0.395,0.137-0.599-0.287"/>
				<path id="Stroke-3" fill="none" stroke="#2C2F31" stroke-linecap="round" stroke-linejoin="round" d="M2.215,8.397
					C1.956,8.633,1.927,9.306,2.15,9.901c0.216,0.578,0.59,0.866,0.848,0.667c0.59,0.883,1.701,1.318,2.502,0.86
					c0.801-0.458,1.913-2.163,2.502-3.72C8.261,7.612,8.634,6.897,8.85,6.072c0.223-0.85,0.193-1.49-0.065-1.429"/>
				<path id="Stroke-5" fill="none" stroke="#2C2F31" stroke-linecap="round" stroke-linejoin="round" d="M8,10.981
					c0,0.542-1.119,1.621-2.5,2.41C4.119,14.18,3,14.38,3,13.838"/>
				<path id="Stroke-7_1_" fill="none" stroke="#2C2F31" stroke-linecap="round" stroke-linejoin="round" d="M2.573,8.771
					c0,0,0.946-0.691,1.087-2.202C4.2,5.91,7.265,5.443,7.634,5.699c0,0-0.397-1.115-0.397-1.232s1.305-0.104,1.618,1.119
					c0,0,0.965-1.193,1.135-2.954s-1.618-4.708-6.328,1.34C3.15,4.321,0.984,4.951,2.573,8.771z"/>
			</g>
			<path id="Fill-55" fill="none" stroke="#2C2F31" d="M9,92.011L47.308,70L9,92.011z"/>
			<path id="Fill-57" fill="none" stroke="#2C2F31" d="M9,97.011L47.309,75L9,97.011z"/>
			<path id="Fill-59" fill="none" stroke="#2C2F31" d="M9,101.011L47.308,79L9,101.011z"/>
			<path id="Fill-157" fill="none" stroke="#2C2F31" d="M39.899,20.875L8.649,38.831c-0.36,0.206-0.65-0.015-0.649-0.493
				l0.003-1.066c0.001-0.479,0.293-1.033,0.652-1.24l31.25-17.955c0.359-0.206,0.65,0.014,0.649,0.493l-0.002,1.066
				C40.551,20.114,40.259,20.669,39.899,20.875"/>
			<path id="Fill-159" fill="none" stroke="#2C2F31" d="M8.002,44.332l19.722-11.331C27.946,32.873,7.779,44.46,8.002,44.332z"/>
			<g id="Print" transform="translate(31.000000, 33.000000)">
				<path id="Fill-49_1_" fill="#7000FF" d="M28.656,69.757C12.795,78.872-0.036,71.521,0,53.34
					C0.039,35.155,12.929,13.028,28.794,3.913S57.489,2.149,57.45,20.331C57.411,38.512,44.521,60.64,28.656,69.757z"/>
				<g id="Page-1" transform="translate(12.121951, 10.076433)">
					<path id="Clip-2" fill="#FFFFFF" d="M30.408,4.331c2.027,2.991,3.421,9.235,2.894,16.773c-0.486,6.943-3.17,13.43-6.407,19.908
						c-0.13,0.259-0.053,0.587,0.172,0.73c0.063,0.04,0.13,0.061,0.197,0.066c0.175,0.012,0.351-0.089,0.444-0.276
						c3.278-6.559,5.998-13.134,6.517-20.182l0.028-0.405c0.515-7.694-0.948-14.109-3.099-17.283
						c-0.085-0.125-0.208-0.193-0.336-0.202c-0.112-0.008-0.227,0.03-0.323,0.116C30.29,3.761,30.251,4.099,30.408,4.331z"/>
					<path id="Fill-4" fill="#FFFFFF" d="M18.612,3.318C9.953,7.553,3.897,16.562,1.561,28.687c-0.053,0.274,0.126,0.539,0.4,0.593
						c0.312,0.026,0.542-0.147,0.591-0.401C4.827,17.074,10.687,8.32,19.054,4.228c3.776-1.847,6.987-2.064,9.284-0.629
						c0.237,0.147,0.548,0.076,0.695-0.162c0.148-0.237,0.076-0.549-0.161-0.697c-0.993-0.621-2.123-0.976-3.369-1.066
						C23.447,1.534,21.135,2.085,18.612,3.318z"/>
					<path id="Clip-8" fill="#FFFFFF" d="M3.787,34.297c-0.348,4.969,0.444,9.1,2.291,11.945c0.098,0.151,0.084,0.624-0.259,1.161
						c-0.375,0.589-0.832,0.801-1.032,0.796c-0.058,0-0.071-0.017-0.087-0.046c-1.777-3.098-2.524-7.486-2.16-12.688
						c0.019-0.278-0.191-0.519-0.47-0.538s-0.521,0.19-0.54,0.468C1.151,40.795,1.943,45.38,3.82,48.652
						c0.197,0.342,0.543,0.543,0.943,0.554c0.661,0.016,1.411-0.48,1.91-1.263c0.516-0.809,0.616-1.692,0.254-2.249
						c-1.701-2.622-2.458-6.644-2.13-11.327C5.705,21.381,11.151,11.54,19.739,7.37c3.319-1.612,6.115-1.763,8.087-0.438
						c2.806,1.886,4.021,6.722,3.513,13.986c-0.788,11.268-7.491,23.379-14.942,26.997c-2.143,1.041-4.117,1.281-5.868,0.71
						c-0.691-0.224-1.598,0.209-2.258,1.079c-0.575,0.758-0.819,1.651-0.635,2.329c0.108,0.397,0.36,0.697,0.709,0.843
						c0.812,0.339,1.671,0.54,2.567,0.603c1.784,0.125,3.712-0.298,5.692-1.26c2.679-1.301,5.398-3.573,7.866-6.573
						c0.177-0.215,0.145-0.533-0.071-0.71c-0.217-0.177-0.535-0.145-0.712,0.07c-2.376,2.888-4.979,5.068-7.527,6.306
						c-2.706,1.314-5.273,1.533-7.423,0.634c-0.024-0.01-0.086-0.036-0.123-0.175c-0.081-0.3,0.03-0.884,0.465-1.459
						c0.436-0.574,0.939-0.791,1.137-0.729c1.982,0.645,4.273,0.38,6.625-0.762c7.741-3.759,14.698-16.245,15.508-27.833
						c0.542-7.753-0.789-12.763-3.957-14.892c-0.918-0.617-1.974-0.967-3.146-1.049c-1.75-0.122-3.758,0.351-5.951,1.416
						C10.374,10.796,4.721,20.941,3.787,34.297z"/>
					<path id="Fill-7_1_" fill="#FFFFFF" d="M3.787,34.297c-0.348,4.969,0.444,9.1,2.291,11.945
						c0.098,0.151,0.084,0.624-0.259,1.161c-0.375,0.589-0.832,0.801-1.032,0.796c-0.058,0-0.071-0.017-0.087-0.046
						c-1.777-3.098-2.524-7.486-2.16-12.688c0.019-0.278-0.191-0.519-0.47-0.538s-0.521,0.19-0.54,0.468
						C1.151,40.795,1.943,45.38,3.82,48.652c0.197,0.342,0.543,0.543,0.943,0.554c0.661,0.016,1.411-0.48,1.91-1.263
						c0.516-0.809,0.616-1.692,0.254-2.249c-1.701-2.622-2.458-6.644-2.13-11.327C5.705,21.381,11.151,11.54,19.739,7.37
						c3.319-1.612,6.115-1.763,8.087-0.438c2.806,1.886,4.021,6.722,3.513,13.986c-0.788,11.268-7.491,23.379-14.942,26.997
						c-2.143,1.041-4.117,1.281-5.868,0.71c-0.691-0.224-1.598,0.209-2.258,1.079c-0.575,0.758-0.819,1.651-0.635,2.329
						c0.108,0.397,0.36,0.697,0.709,0.843c0.812,0.339,1.671,0.54,2.567,0.603c1.784,0.125,3.712-0.298,5.692-1.26
						c2.679-1.301,5.398-3.573,7.866-6.573c0.177-0.215,0.145-0.533-0.071-0.71c-0.217-0.177-0.535-0.145-0.712,0.07
						c-2.376,2.888-4.979,5.068-7.527,6.306c-2.706,1.314-5.273,1.533-7.423,0.634c-0.024-0.01-0.086-0.036-0.123-0.175
						c-0.081-0.3,0.03-0.884,0.465-1.459c0.436-0.574,0.939-0.791,1.137-0.729c1.982,0.645,4.273,0.38,6.625-0.762
						c7.741-3.759,14.698-16.245,15.508-27.833c0.542-7.753-0.789-12.763-3.957-14.892c-0.918-0.617-1.974-0.967-3.146-1.049
						c-1.75-0.122-3.758,0.351-5.951,1.416C10.374,10.796,4.721,20.941,3.787,34.297z"/>
					<path id="Fill-10_1_" fill="#FFFFFF" d="M19.415,10.435c-0.175,0.681-0.077,1.29,0.269,1.669
						c0.277,0.304,0.674,0.427,1.12,0.345c1.24-0.227,2.271,0.026,3.065,0.75c1.611,1.47,2.281,4.841,1.938,9.748
						c-0.21,2.999-0.959,6.148-2.168,9.103c-0.287,0.7-0.262,1.375,0.066,1.807c0.193,0.253,0.474,0.401,0.795,0.423
						c0.09,0.006,0.184,0.002,0.28-0.012c0.747-0.109,1.554-0.853,1.917-1.77c1.383-3.494,2.243-7.183,2.487-10.665
						c0.02-0.28-0.188-0.522-0.463-0.541s-0.514,0.192-0.534,0.472c-0.236,3.378-1.072,6.96-2.417,10.357
						c-0.246,0.62-0.783,1.091-1.13,1.142c-0.111,0.018-0.134-0.016-0.145-0.029c-0.068-0.089-0.107-0.376,0.065-0.796
						c1.25-3.056,2.025-6.314,2.242-9.422c0.371-5.306-0.391-8.863-2.266-10.574c-1.035-0.944-2.35-1.278-3.909-0.993
						c-0.152,0.027-0.196-0.021-0.211-0.037c-0.086-0.094-0.131-0.355-0.035-0.725c0.212-0.828,0.929-1.541,1.429-1.626
						c1.504-0.256,2.772,0.022,3.766,0.823c1.542,1.245,2.437,3.7,2.659,7.296c0.017,0.28,0.256,0.494,0.53,0.474
						c0.275-0.018,0.485-0.26,0.467-0.54c-0.24-3.895-1.261-6.596-3.034-8.026c-0.83-0.67-1.801-1.045-2.9-1.122
						c-0.521-0.036-1.072-0.005-1.65,0.093C20.695,8.223,19.714,9.266,19.415,10.435z"/>
					<path id="Clip-14" fill="#FFFFFF" d="M6.226,33.558c-0.415,5.931,1.077,10.647,3.989,12.614
						c0.868,0.586,1.823,0.915,2.841,0.986c1.24,0.087,2.574-0.208,3.96-0.885c2.23-1.089,4.457-3.122,6.441-5.88
						c0.471-0.655,0.679-1.408,0.556-2.014c-0.074-0.367-0.264-0.651-0.578-0.842c-0.683-0.412-1.668-0.033-2.398,0.926
						c-1.344,1.768-2.813,3.073-4.247,3.774c-1.413,0.69-2.694,0.772-3.806,0.244c-1.387-0.659-2.448-2.28-2.986-4.565
						c-0.103-0.438,0.275-1.3,0.9-1.714c0.256-0.17,0.428-0.175,0.482-0.152c0.035,0.014,0.054,0.069,0.065,0.114
						c0.495,2.098,1.439,3.532,2.731,4.145c0.981,0.466,2.112,0.414,3.268-0.152c3.675-1.794,7.039-8.602,7.499-15.175
						c0.336-4.802-0.402-7.85-2.193-9.059c-1.095-0.74-2.521-0.717-4.123,0.065c-3.952,1.93-6.642,6.97-7.379,13.829
						c-0.062,0.575-0.544,1.271-1.054,1.52c-0.174,0.085-0.3,0.089-0.344,0.06c-0.036-0.026-0.099-0.142-0.072-0.398
						c0.73-6.873,3.23-12.378,7.042-15.501c0.922-0.756,1.459-2.05,1.22-2.947c-0.116-0.439-0.399-0.751-0.796-0.878
						c-0.096-0.031-0.196-0.05-0.299-0.057c-0.451-0.032-0.959,0.163-1.434,0.555C10.179,16.579,6.882,24.174,6.226,33.558z
						 M7.237,33.629c0.637-9.104,3.804-16.447,8.918-20.675c0.297-0.245,0.56-0.337,0.717-0.326
						c0.023,0.002,0.044,0.006,0.062,0.012c0.026,0.008,0.088,0.028,0.127,0.173c0.121,0.457-0.211,1.35-0.883,1.901
						c-4.018,3.293-6.649,9.039-7.407,16.178c-0.062,0.583,0.12,1.071,0.499,1.336c0.369,0.259,0.868,0.267,1.37,0.022
						c0.822-0.401,1.517-1.4,1.617-2.324c0.699-6.504,3.183-11.251,6.815-13.025c1.276-0.623,2.323-0.669,3.113-0.136
						c1.427,0.964,2.049,3.857,1.749,8.147C23.495,31.163,20.385,37.593,17,39.246c-0.883,0.431-1.687,0.481-2.39,0.147
						c-0.99-0.469-1.763-1.699-2.178-3.462c-0.093-0.394-0.334-0.686-0.677-0.823c-0.418-0.164-0.921-0.077-1.415,0.249
						c-0.931,0.616-1.539,1.895-1.328,2.792c0.61,2.591,1.867,4.455,3.539,5.249c1.386,0.657,3.005,0.571,4.684-0.248
						c1.577-0.77,3.171-2.178,4.61-4.071c0.444-0.584,0.937-0.75,1.094-0.656c0.049,0.029,0.072,0.112,0.081,0.159
						c0.054,0.265-0.044,0.745-0.385,1.219c-1.886,2.622-3.984,4.546-6.063,5.56c-1.217,0.594-2.378,0.854-3.445,0.779
						c-0.847-0.059-1.636-0.328-2.347-0.809C8.173,43.569,6.847,39.195,7.237,33.629z"/>
					<path id="Fill-13" fill="#FFFFFF" d="M6.226,33.558c-0.415,5.931,1.077,10.647,3.989,12.614
						c0.868,0.586,1.823,0.915,2.841,0.986c1.24,0.087,2.574-0.208,3.96-0.885c2.23-1.089,4.457-3.122,6.441-5.88
						c0.471-0.655,0.679-1.408,0.556-2.014c-0.074-0.367-0.264-0.651-0.578-0.842c-0.683-0.412-1.668-0.033-2.398,0.926
						c-1.344,1.768-2.813,3.073-4.247,3.774c-1.413,0.69-2.694,0.772-3.806,0.244c-1.387-0.659-2.448-2.28-2.986-4.565
						c-0.103-0.438,0.275-1.3,0.9-1.714c0.256-0.17,0.428-0.175,0.482-0.152c0.035,0.014,0.054,0.069,0.065,0.114
						c0.495,2.098,1.439,3.532,2.731,4.145c0.981,0.466,2.112,0.414,3.268-0.152c3.675-1.794,7.039-8.602,7.499-15.175
						c0.336-4.802-0.402-7.85-2.193-9.059c-1.095-0.74-2.521-0.717-4.123,0.065c-3.952,1.93-6.642,6.97-7.379,13.829
						c-0.062,0.575-0.544,1.271-1.054,1.52c-0.174,0.085-0.3,0.089-0.344,0.06c-0.036-0.026-0.099-0.142-0.072-0.398
						c0.73-6.873,3.23-12.378,7.042-15.501c0.922-0.756,1.459-2.05,1.22-2.947c-0.116-0.439-0.399-0.751-0.796-0.878
						c-0.096-0.031-0.196-0.05-0.299-0.057c-0.451-0.032-0.959,0.163-1.434,0.555C10.179,16.579,6.882,24.174,6.226,33.558z
						 M7.237,33.629c0.637-9.104,3.804-16.447,8.918-20.675c0.297-0.245,0.56-0.337,0.717-0.326
						c0.023,0.002,0.044,0.006,0.062,0.012c0.026,0.008,0.088,0.028,0.127,0.173c0.121,0.457-0.211,1.35-0.883,1.901
						c-4.018,3.293-6.649,9.039-7.407,16.178c-0.062,0.583,0.12,1.071,0.499,1.336c0.369,0.259,0.868,0.267,1.37,0.022
						c0.822-0.401,1.517-1.4,1.617-2.324c0.699-6.504,3.183-11.251,6.815-13.025c1.276-0.623,2.323-0.669,3.113-0.136
						c1.427,0.964,2.049,3.857,1.749,8.147C23.495,31.163,20.385,37.593,17,39.246c-0.883,0.431-1.687,0.481-2.39,0.147
						c-0.99-0.469-1.763-1.699-2.178-3.462c-0.093-0.394-0.334-0.686-0.677-0.823c-0.418-0.164-0.921-0.077-1.415,0.249
						c-0.931,0.616-1.539,1.895-1.328,2.792c0.61,2.591,1.867,4.455,3.539,5.249c1.386,0.657,3.005,0.571,4.684-0.248
						c1.577-0.77,3.171-2.178,4.61-4.071c0.444-0.584,0.937-0.75,1.094-0.656c0.049,0.029,0.072,0.112,0.081,0.159
						c0.054,0.265-0.044,0.745-0.385,1.219c-1.886,2.622-3.984,4.546-6.063,5.56c-1.217,0.594-2.378,0.854-3.445,0.779
						c-0.847-0.059-1.636-0.328-2.347-0.809C8.173,43.569,6.847,39.195,7.237,33.629z"/>
					<path id="Clip-17" fill="#FFFFFF" d="M13.45,29.817c-0.24,3.435,0.451,6.041,1.849,6.972c0.317,0.21,0.657,0.328,1.012,0.353
						c0.391,0.027,0.8-0.059,1.214-0.258c1.429-0.686,2.793-2.684,3.745-5.48c0.09-0.265-0.055-0.552-0.323-0.641
						c-0.268-0.089-0.559,0.053-0.649,0.317c-0.84,2.468-2.075,4.344-3.223,4.896c-0.456,0.219-0.849,0.211-1.203-0.025
						c-0.867-0.577-1.635-2.675-1.398-6.063c0.358-5.117,1.941-8.831,4.235-9.932c0.589-0.282,1.077-0.306,1.452-0.071
						c0.475,0.298,1.263,1.311,1.211,4.758c-0.008,0.574-0.515,1.337-1.063,1.6c-0.199,0.094-0.313,0.08-0.346,0.06
						c-0.038-0.024-0.078-0.121-0.075-0.278c0.045-2.644-0.476-3.279-0.871-3.528c-0.298-0.187-0.652-0.199-0.997-0.034
						c-1.398,0.671-1.895,3.715-2.065,6.151c-0.026,0.377-0.041,0.749-0.044,1.105c-0.009,1.144,0.101,3.143,0.941,3.695
						c0.233,0.153,0.539,0.088,0.698-0.138c0.159-0.227,0.096-0.542-0.13-0.704c-0.164-0.116-0.498-0.964-0.484-2.844
						c0.003-0.335,0.017-0.686,0.041-1.043c0.311-4.445,1.294-5.201,1.51-5.316c0.084,0.099,0.41,0.615,0.375,2.636
						c-0.009,0.505,0.192,0.924,0.55,1.149c0.369,0.231,0.859,0.231,1.347-0.003c0.889-0.427,1.625-1.545,1.639-2.492
						c0.045-3.003-0.522-4.897-1.687-5.627c-0.239-0.15-0.562-0.286-0.97-0.314c-0.408-0.029-0.902,0.051-1.482,0.329
						C15.592,20.328,13.839,24.254,13.45,29.817z"/>
					<path id="Fill-16" fill="#FFFFFF" d="M13.45,29.817c-0.24,3.435,0.451,6.041,1.849,6.972c0.317,0.21,0.657,0.328,1.012,0.353
						c0.391,0.027,0.8-0.059,1.214-0.258c1.429-0.686,2.793-2.684,3.745-5.48c0.09-0.265-0.055-0.552-0.323-0.641
						c-0.268-0.089-0.559,0.053-0.649,0.317c-0.84,2.468-2.075,4.344-3.223,4.896c-0.456,0.219-0.849,0.211-1.203-0.025
						c-0.867-0.577-1.635-2.675-1.398-6.063c0.358-5.117,1.941-8.831,4.235-9.932c0.589-0.282,1.077-0.306,1.452-0.071
						c0.475,0.298,1.263,1.311,1.211,4.758c-0.008,0.574-0.515,1.337-1.063,1.6c-0.199,0.094-0.313,0.08-0.346,0.06
						c-0.038-0.024-0.078-0.121-0.075-0.278c0.045-2.644-0.476-3.279-0.871-3.528c-0.298-0.187-0.652-0.199-0.997-0.034
						c-1.398,0.671-1.895,3.715-2.065,6.151c-0.026,0.377-0.041,0.749-0.044,1.105c-0.009,1.144,0.101,3.143,0.941,3.695
						c0.233,0.153,0.539,0.088,0.698-0.138c0.159-0.227,0.096-0.542-0.13-0.704c-0.164-0.116-0.498-0.964-0.484-2.844
						c0.003-0.335,0.017-0.686,0.041-1.043c0.311-4.445,1.294-5.201,1.51-5.316c0.084,0.099,0.41,0.615,0.375,2.636
						c-0.009,0.505,0.192,0.924,0.55,1.149c0.369,0.231,0.859,0.231,1.347-0.003c0.889-0.427,1.625-1.545,1.639-2.492
						c0.045-3.003-0.522-4.897-1.687-5.627c-0.239-0.15-0.562-0.286-0.97-0.314c-0.408-0.029-0.902,0.051-1.482,0.329
						C15.592,20.328,13.839,24.254,13.45,29.817z"/>
				</g>
			</g>
		</g>
		<g id="Group-22" transform="translate(11.000000, 537.000000)">
			<g id="Card-Copy">
				<path id="Stroke-7_2_" fill="#FFFFFF" stroke="#2C2F31" d="M56.102,44.94L4.475,73.813c-1.446,0.809-3.274,0.292-4.083-1.154
					c-0.252-0.451-0.384-0.96-0.382-1.477l0.15-36.736c0.004-1.854,1.136-4.006,2.529-4.806L55.287,0.3
					c1.392-0.8,2.518,0.055,2.514,1.909l-0.164,40.124C57.633,43.416,57.046,44.411,56.102,44.94z"/>
				<g id="Fill-49_2_">
					<g>
						<path id="path-20" fill="#FFFFFF" d="M53,33.6c-0.009,4.114-2.926,9.121-6.516,11.184c-3.589,2.062-6.493,0.399-6.484-3.715
							c0.009-4.115,2.926-9.122,6.516-11.184S53.009,29.486,53,33.6"/>
					</g>
					<g>
						<pattern  id="path-20_2_" xlink:href="#pattern-21" patternTransform="matrix(1 0 0 -1 340.5 -17165.5)">
						</pattern>
						
							<path id="path-20_1_" fill="url(#path-20_2_)" fill-opacity="0.2" stroke="#2C2F31" stroke-linecap="round" stroke-linejoin="round" d="
							M53,33.6c-0.009,4.114-2.926,9.121-6.516,11.184c-3.589,2.062-6.493,0.399-6.484-3.715c0.009-4.115,2.926-9.122,6.516-11.184
							S53.009,29.486,53,33.6"/>
					</g>
				</g>
				<path id="Fill-157_1_" fill="none" stroke="#2C2F31" d="M8.649,57.831c-0.36,0.206-0.65-0.015-0.649-0.493l0.003-1.066
					c0.001-0.479,0.293-1.033,0.652-1.24l23.644-13.374c0.359-0.206,0.65,0.014,0.649,0.493l-0.002,1.066
					c0,0.272-0.293,1.033-0.652,1.239L8.649,57.831z"/>
				<path id="Fill-157_2_" fill="#41FF8B" stroke="#2C2F31" d="M34.076,23.375c-0.36,0.206-0.65-0.015-0.649-0.493l0.003-1.066
					c0.001-0.479,0.293-1.033,0.652-1.24l5.823-3.499c0.359-0.206,0.65,0.014,0.649,0.493l-0.002,1.066
					c-0.001,0.478-0.293,1.033-0.652,1.239L34.076,23.375z"/>
				<path id="Fill-157_3_" fill="#F67069" stroke="#2C2F31" d="M8.649,37.831c-0.36,0.206-0.65-0.015-0.649-0.493l0.003-1.066
					c0.001-0.479,0.293-1.033,0.652-1.24l22.194-12.749c0.359-0.206,0.65,0.014,0.649,0.493l-0.002,1.066
					c-0.001,0.478-0.293,1.033-0.652,1.239L8.649,37.831z"/>
				<path id="Fill-159_1_" fill="none" stroke="#2C2F31" d="M8.002,63.332l19.722-11.331C27.946,51.873,7.779,63.46,8.002,63.332z"
					/>
			</g>
			<g id="Card" transform="translate(31.000000, 5.000000)">
				<path id="Stroke-7_3_" fill="#FFFFFF" stroke="#2C2F31" d="M56.102,44.94L4.475,73.813c-1.446,0.809-3.274,0.292-4.083-1.154
					c-0.252-0.451-0.384-0.96-0.382-1.477l0.15-36.736c0.004-1.854,1.136-4.006,2.529-4.806L55.287,0.3
					c1.392-0.8,2.518,0.055,2.514,1.909l-0.164,40.124C57.633,43.416,57.046,44.411,56.102,44.94z"/>
				<g id="Fill-49_3_">
					<g>
						<path id="path-23" fill="#FFFFFF" d="M53,33.6c-0.009,4.114-2.926,9.121-6.516,11.184c-3.589,2.062-6.493,0.399-6.484-3.715
							c0.009-4.115,2.926-9.122,6.516-11.184S53.009,29.486,53,33.6"/>
					</g>
					<g>
						<pattern  id="path-23_2_" xlink:href="#pattern-24" patternTransform="matrix(1 0 0 -1 371.5 -17170.5)">
						</pattern>
						
							<path id="path-23_1_" fill="url(#path-23_2_)" fill-opacity="0.2" stroke="#2C2F31" stroke-linecap="round" stroke-linejoin="round" d="
							M53,33.6c-0.009,4.114-2.926,9.121-6.516,11.184c-3.589,2.062-6.493,0.399-6.484-3.715c0.009-4.115,2.926-9.122,6.516-11.184
							S53.009,29.486,53,33.6"/>
					</g>
				</g>
				<path id="Fill-157_4_" fill="none" stroke="#2C2F31" d="M8.649,57.831c-0.36,0.206-0.65-0.015-0.649-0.493l0.003-1.066
					c0.001-0.479,0.293-1.033,0.652-1.24l23.644-13.374c0.359-0.206,0.65,0.014,0.649,0.493l-0.002,1.066
					c0,0.272-0.293,1.033-0.652,1.239L8.649,57.831z"/>
				<path id="Fill-157_5_" fill="#30CAE8" stroke="#2C2F31" d="M34.076,23.375c-0.36,0.206-0.65-0.015-0.649-0.493l0.003-1.066
					c0.001-0.479,0.293-1.033,0.652-1.24l5.823-3.499c0.359-0.206,0.65,0.014,0.649,0.493l-0.002,1.066
					c-0.001,0.478-0.293,1.033-0.652,1.239L34.076,23.375z"/>
				<path id="Fill-157_6_" fill="#0971FF" stroke="#2C2F31" d="M8.649,37.831c-0.36,0.206-0.65-0.015-0.649-0.493l0.003-1.066
					c0.001-0.479,0.293-1.033,0.652-1.24l22.194-12.749c0.359-0.206,0.65,0.014,0.649,0.493l-0.002,1.066
					c-0.001,0.478-0.293,1.033-0.652,1.239L8.649,37.831z"/>
				<path id="Fill-159_2_" fill="none" stroke="#2C2F31" d="M8.002,63.332l19.722-11.331C27.946,51.873,7.779,63.46,8.002,63.332z"
					/>
			</g>
		</g>
		<text transform="matrix(1 0 0 1 22.38 320)" fill="#2C2F31" font-family="'OverpassMono-Bold'" font-size="14">University</text>
		<text transform="matrix(1 0 0 1 52.064 497)" fill="#2C2F31" font-family="'OverpassMono-Bold'" font-size="14">KYC</text>
		<text transform="matrix(1 0 0 1 0.82 643)" fill="#2C2F31" font-family="'OverpassMono-Bold'" font-size="14">Loyalty Program</text>
		<text transform="matrix(1 0 0 1 263.628 486)" fill="#9B9B9B" font-family="'OverpassMono-Bold'" font-size="14">Issues</text>
		<text transform="matrix(1 0 0 1 315.3718 486)" fill="#9B9B9B" font-family="'OverpassMono-Bold'" font-size="14"> </text>
		<text transform="matrix(1 0 0 1 242.068 504)" fill="#9B9B9B" font-family="'OverpassMono-Bold'" font-size="14">certificate</text>
		<text transform="matrix(1 0 0 1 593.384 322)" fill="#9B9B9B" font-family="'OverpassMono-Bold'" font-size="14">Checks certificate</text>
		<text transform="matrix(1 0 0 1 748.6152 322)" fill="#9B9B9B" font-family="'OverpassMono-Bold'" font-size="14"> </text>
		<text transform="matrix(1 0 0 1 619.256 343)" fill="#9B9B9B" font-family="'OverpassMono-Bold'" font-size="14">authenticity</text>
		<text transform="matrix(1 0 0 1 658.04 728)" fill="#2C2F31" font-family="'OverpassMono-Bold'" font-size="20">Holder</text>
		<g id="icon-tokens" transform="translate(635.000000, 567.000000)">
			<g id="Group-5-Copy-3" transform="translate(22.848439, 41.905739)">
				<g id="Shape_4_">
					<g>
						<path id="path-26" fill="#FFFFFF" d="M75.557,16.835v15.859c0,5.172-4.465,10.689-13.051,14.827
							c-15.798,7.586-39.496,7.931-53.233,0.69C3.091,45.108,0,40.97,0,36.488V20.628c0,4.138,3.091,8.62,9.273,11.724
							c13.738,7.241,37.435,6.896,53.233-0.69C71.092,27.525,75.557,22.008,75.557,16.835z"/>
					</g>
					<g>
						<pattern  id="path-26_2_" xlink:href="#pattern-27" patternTransform="matrix(1 0 0 -1 947.3484 -17200.9102)">
						</pattern>
						
							<path id="path-26_1_" fill="url(#path-26_2_)" fill-opacity="0.2" stroke="#2C2F31" stroke-linecap="round" stroke-linejoin="round" d="
							M75.557,16.835v15.859c0,5.172-4.465,10.689-13.051,14.827c-15.798,7.586-39.496,7.931-53.233,0.69
							C3.091,45.108,0,40.97,0,36.488V20.628c0,4.138,3.091,8.62,9.273,11.724c13.738,7.241,37.435,6.896,53.233-0.69
							C71.092,27.525,75.557,22.008,75.557,16.835z"/>
					</g>
				</g>
				<path id="Shape_5_" fill="#FFFFFF" stroke="#2C2F31" stroke-linecap="round" stroke-linejoin="round" d="M62.5,31.865
					c-15.794,7.608-39.485,7.954-53.219,0.692s-12.017-19.02,3.777-26.628s39.485-7.954,53.219-0.692S78.294,24.257,62.5,31.865z"/>
				<path id="Shape_6_" fill="#FFFFFF" stroke="#2C2F31" stroke-linecap="round" stroke-linejoin="round" d="M27.504,21.981
					c-4.51,2.057-11.101,1.714-15.264-0.343c-3.816-2.057-3.469-5.486,1.041-7.544s11.101-1.714,14.917,0.343
					C32.708,16.838,32.014,19.924,27.504,21.981z"/>
			</g>
			<g id="Group-5-Copy-4" transform="translate(0.000000, 20.317934)">
				<path id="Shape_7_" fill="#FFFFFF" stroke="#2C2F31" stroke-linecap="round" stroke-linejoin="round" d="M75.557,16.835v15.859
					c0,5.172-4.465,10.689-13.051,14.827c-15.798,7.586-39.496,7.931-53.233,0.69C3.091,45.108,0,40.97,0,36.488V20.628
					c0,4.138,3.091,8.62,9.273,11.724c13.738,7.241,37.435,6.896,53.233-0.69C71.092,27.525,75.557,22.008,75.557,16.835z"/>
				<path id="Shape_8_" fill="#FFFFFF" stroke="#2C2F31" stroke-linecap="round" stroke-linejoin="round" d="M62.5,31.865
					c-15.794,7.608-39.485,7.954-53.219,0.692s-12.017-19.02,3.777-26.628s39.485-7.954,53.219-0.692S78.294,24.257,62.5,31.865z"/>
			</g>
			<g id="Group-5-Copy-6" transform="translate(19.345011, 0.000000)">
				<path id="Shape_9_" fill="#FFFFFF" stroke="#2C2F31" stroke-linecap="round" stroke-linejoin="round" d="M75.557,16.835v15.859
					c0,5.172-4.465,10.689-13.051,14.827c-15.798,7.586-39.496,7.931-53.233,0.69C3.091,45.108,0,40.97,0,36.488V20.628
					c0,4.138,3.091,8.62,9.273,11.724c13.738,7.241,37.435,6.896,53.233-0.69C71.092,27.525,75.557,22.008,75.557,16.835z"/>
				<path id="Shape_10_" fill="#0971FF" stroke="#2C2F31" stroke-linecap="round" stroke-linejoin="round" d="M62.5,31.865
					c-15.794,7.608-39.485,7.954-53.219,0.692s-12.017-19.02,3.777-26.628s39.485-7.954,53.219-0.692S78.294,24.257,62.5,31.865z"/>
			</g>
		</g>
		<g id="Group-21" transform="translate(698.000000, 537.000000)">
			<circle id="Oval_4_" fill="#FFFFFF" stroke="#2C2F31" stroke-linecap="round" stroke-linejoin="round" cx="25" cy="25" r="25"/>
			<g id="Holder_2_" transform="translate(13.846154, 9.230769)">
				<path id="Stroke-1_1_" fill="none" stroke="#2C2F31" stroke-linecap="round" stroke-linejoin="round" d="M8.818,17.849
					c-0.378,1.044-0.749,1.102-1.112,1.216C3.234,20.474,0,24.01,0,29.231h22.308c0-5.221-3.233-8.756-7.705-10.165
					c-0.363-0.115-0.734-0.172-1.113-1.217"/>
				<path id="Stroke-3_1_" fill="none" stroke="#2C2F31" stroke-linecap="round" stroke-linejoin="round" d="M4.618,9.83
					c-0.504,0.161-0.561,1.373-0.127,2.705c0.421,1.295,1.149,2.219,1.653,2.124c1.149,2.25,3.317,4.224,4.879,4.224
					c1.562,0,3.73-1.974,4.879-4.224c0.504,0.095,1.232-0.829,1.653-2.124c0.434-1.333,0.377-2.544-0.127-2.705"/>
				<path id="Stroke-5_1_" fill="none" stroke="#2C2F31" stroke-linecap="round" stroke-linejoin="round" d="M16.009,19.66
					c0,1.143-2.174,2.069-4.855,2.069s-4.855-0.927-4.855-2.069"/>
				<path id="Stroke-7_4_" fill="none" stroke="#2C2F31" stroke-linecap="round" stroke-linejoin="round" d="M4.765,9.879
					c0,0,1.799-0.272,2.069-2.847c1.026-0.631,6.857,1.682,7.559,2.523c0,0-0.756-2.417-0.756-2.628c0-0.21,2.484,1.156,3.078,3.679
					c0,0,1.836-1.156,2.16-4.152c0.324-2.996-3.078-10.143-12.041-4.099C5.862,2.46,1.741,1.365,4.765,9.879z"/>
			</g>
		</g>
	</g>
</g>
</svg>
