<?xml version="1.0" encoding="UTF-8"?>
<svg width="478px" height="215px" viewBox="0 0 478 215" version="1.1" xmlns="http://www.w3.org/2000/svg" xmlns:xlink="http://www.w3.org/1999/xlink">
    <!-- Generator: Sketch 49.1 (51147) - http://www.bohemiancoding.com/sketch -->
    <title>10</title>
    <desc>Created with Sketch.</desc>
    <defs></defs>
    <g id="10" stroke="none" stroke-width="1" fill="none" fill-rule="evenodd">
        <path d="M105.5,108.5 L351.089088,108.5" id="Line-4" stroke="#7D8285" stroke-linecap="square" stroke-dasharray="3,6"></path>
        <g id="Group-5-Copy-6" transform="translate(194.000000, 86.000000)" fill-rule="nonzero" stroke="#2C2F31" stroke-linecap="round" stroke-linejoin="round">
            <path d="M69.8545907,15.5585225 L69.8545907,30.2150799 C69.8545907,34.9950003 65.7268194,40.093582 57.7887977,43.9175183 C43.1828379,50.9280682 21.2738981,51.2467296 8.5730634,44.554841 C2.8576878,41.6868888 0,37.8629525 0,33.7203548 L0,19.0637974 C0,22.8877337 2.8576878,27.0303314 8.5730634,29.8982836 C21.2738981,36.5901721 43.1828379,36.2715108 57.7887977,29.2609609 C65.7268194,25.4370246 69.8545907,20.3384429 69.8545907,15.5585225 Z" id="Shape" fill="#FFFFFF"></path>
            <path d="M57.7828411,29.448118 C43.1806868,36.4790072 21.2774555,36.7985931 8.57993015,30.0872897 C-4.11759525,23.3759864 -2.53040458,12.5100666 12.0717496,5.47917736 C26.6739038,-1.55171189 48.5771351,-1.87129777 61.2746605,4.84000561 C73.9721859,11.551309 72.3849953,22.4172287 57.7828411,29.448118 Z" id="Shape" fill="#000000"></path>
        </g>
        <path d="M241.3316,101.638174 L227.21843,101.561463 C226.971279,101.56012 226.766241,101.664098 226.760172,101.793854 L226.723913,102.569096 C226.717844,102.698851 226.512806,102.80283 226.265656,102.801486 L223.557976,102.786769 C223.31108,102.785564 223.11587,102.67941 223.121939,102.549655 L223.248039,99.8535918 C223.254133,99.7232876 223.461809,99.6187745 223.710208,99.6213594 L237.886123,99.7645399 L234.242124,97.7829505 L234.199721,98.6839685 C234.193855,98.8149599 233.984612,98.9194645 233.735461,98.9161895 L231.020918,98.880581 C230.776725,98.8774701 230.585415,98.7717488 230.591152,98.6435006 L230.721214,95.8682964 L229.337927,95.1160713 C229.057345,94.9634921 228.587335,94.9610747 228.292894,95.1103912 L214.22879,102.242563 C213.934081,102.392015 213.922547,102.638633 214.203129,102.791213 L215.517099,103.505743 L229.798775,103.583507 C230.04567,103.584711 230.250708,103.480733 230.256764,103.351252 L230.293036,102.575736 C230.299105,102.44598 230.504143,102.342002 230.751293,102.343345 L233.458974,102.358062 C233.705856,102.359541 233.901066,102.465695 233.895265,102.595315 L233.768911,105.29124 C233.762803,105.421818 233.55514,105.526057 233.306996,105.52361 L218.961047,105.378545 L222.770948,107.450352 L222.816961,106.460999 C222.823349,106.33001 223.032592,106.225505 223.281743,106.22878 L225.996031,106.26425 C226.240224,106.267361 226.431534,106.373083 226.42553,106.501466 L226.292346,109.354582 L227.593087,110.072608 C227.873414,110.225048 228.343411,110.22774 228.63812,110.078288 L242.702223,102.946116 C242.996664,102.796799 243.008212,102.549907 242.727884,102.397466" id="logo" fill="#FFFFFF"></path>
        <g id="Group-15" transform="translate(5.000000, 79.000000)" fill-rule="nonzero" stroke="#2C2F31" stroke-linecap="round" stroke-linejoin="round">
            <polyline id="Shape-Copy-18" fill="#F2F2F2" points="99.4113944 38.8874126 99.4113944 58.8079863 49.4956663 87.3435428 49.4956663 67.5881575"></polyline>
            <polyline id="Shape-Copy-18" fill="#F2F2F2" points="99.4113944 19.3933008 99.4113944 39.3138745 49.4956663 67.849431 49.4956663 48.0940457"></polyline>
            <polyline id="Shape-Copy-18" fill="#F2F2F2" points="99.4113944 0.528031264 99.4113944 20.448605 49.4956663 48.9841615 49.4956663 29.2287762"></polyline>
            <polyline id="Shape-Copy-18" fill="#FFFFFF" transform="translate(24.987450, 63.115478) scale(-1, 1) translate(-24.987450, -63.115478) " points="49.945314 38.8874126 49.945314 58.8079863 0.0295858544 87.3435428 0.0295858544 67.5881575"></polyline>
            <polyline id="Shape-Copy-18" fill="#FFFFFF" transform="translate(24.987450, 43.621366) scale(-1, 1) translate(-24.987450, -43.621366) " points="49.945314 19.3933008 49.945314 39.3138745 0.0295858544 67.849431 0.0295858544 48.0940457"></polyline>
            <polyline id="Shape-Copy-18" fill="#FFFFFF" transform="translate(24.987450, 24.756096) scale(-1, 1) translate(-24.987450, -24.756096) " points="49.945314 0.528031264 49.945314 20.448605 0.0295858544 48.9841615 0.0295858544 29.2287762"></polyline>
        </g>
        <g id="Group-10" transform="translate(5.000000, 50.000000)" stroke="#2C2F31">
            <polygon id="Path-6-Copy" fill="#000000" points="0.117309743 28.7883058 49.8880816 57.0717981 98.9974428 28.8242217 50.4156629 0.229305575"></polygon>
            <path d="M7.87871242,27.8068537 C7.13931935,28.2998661 7.13931935,28.7928784 7.87871242,29.2858908 C8.6181055,29.7789032 9.85042729,29.7789032 10.5898204,29.2858908 C11.3292134,28.7928784 11.3292134,28.0533599 10.5898204,27.8068537 C9.85042729,27.3138413 8.6181055,27.3138413 7.87871242,27.8068537 Z" id="Shape" fill="#F7F7F7" stroke-linecap="round" stroke-linejoin="round"></path>
            <path d="M49.2354493,5.15215314 C48.4960563,5.64516551 48.4960563,6.13817789 49.2354493,6.63119027 C49.9748424,7.12420264 51.2071642,7.12420264 51.9465573,6.63119027 C52.6859503,6.13817789 52.6859503,5.39865933 51.9465573,5.15215314 C51.2071642,4.65914076 49.9748424,4.65914076 49.2354493,5.15215314 Z" id="Shape" fill="#F7F7F7" stroke-linecap="round" stroke-linejoin="round"></path>
            <path d="M88.1574922,27.8396603 C87.4180991,28.3326727 87.4180991,28.8256851 88.1574922,29.3186975 C88.8968852,29.8117098 90.129207,29.8117098 90.8686001,29.3186975 C91.6079932,28.8256851 91.6079932,28.0861665 90.8686001,27.8396603 C90.129207,27.346648 88.8968852,27.346648 88.1574922,27.8396603 Z" id="Shape-Copy" fill="#F7F7F7" stroke-linecap="round" stroke-linejoin="round"></path>
            <path d="M48.4502734,49.7541164 C47.7108804,50.2471288 47.7108804,50.7401411 48.4502734,51.2331535 C49.1896665,51.7261659 50.4219883,51.7261659 51.1613814,51.2331535 C51.9007745,50.7401411 51.9007745,50.0006226 51.1613814,49.7541164 C50.4219883,49.261104 49.1896665,49.261104 48.4502734,49.7541164 Z" id="Shape-Copy" fill="#F7F7F7" stroke-linecap="round" stroke-linejoin="round"></path>
        </g>
        <path d="M75.89393,75.2684171 L52.71213,75.612218 C52.3061696,75.6183752 51.9693814,75.8070333 51.9594129,76.033852 L51.8998546,77.3887778 C51.8898861,77.6155188 51.553098,77.8023378 51.1471375,77.8063303 L46.6995963,77.8503776 C46.2940545,77.8546583 45.9734099,77.677028 45.9833784,77.4535941 L46.1905046,72.80856 C46.2005152,72.5839376 46.5416369,72.3939997 46.9496481,72.3864946 L70.2345107,71.9653303 L64.2490051,68.5713555 L64.1793548,70.1949931 C64.1697205,70.430979 63.8260241,70.6301049 63.4167781,70.6374566 L58.9579646,70.7184335 C58.5568616,70.725949 58.2426224,70.5486655 58.2520459,70.3208957 L58.4656814,65.3891183 L56.1935418,64.1649979 C55.7326674,63.9184977 54.9606455,63.9523678 54.4770071,64.2386522 L31.3758025,77.1883501 C30.8917245,77.4445183 30.872778,77.8531504 31.3336523,78.0985483 L33.4919338,79.2558146 L56.9505144,79.0983452 C57.3560563,79.0955142 57.6928444,78.9072299 57.7027919,78.6777642 L57.7623712,77.3031684 C57.7723397,77.0731387 58.1091279,76.8830154 58.5150883,76.8782595 L62.9626295,76.8264636 C63.3681503,76.8220154 63.6887949,77.0071603 63.679266,77.2402458 L63.4717212,82.0857552 C63.4616895,82.3203275 63.1205889,82.5088631 62.7129963,82.5060539 L39.1488415,82.352104 L45.4068531,85.8837731 L45.4824314,84.1838426 C45.4929239,83.9587263 45.8366203,83.7788305 46.2458663,83.78412 L50.7042612,83.8421303 C51.1053642,83.8472762 51.4196034,84.0314578 51.4097402,84.2553746 L51.1909777,89.2287361 L53.3275285,90.5139623 C53.7879842,90.7886361 54.5599851,90.8060125 55.0440631,90.5509466 L78.1452678,77.6538545 C78.6289061,77.3686714 78.6478737,76.9087928 78.187418,76.6330177" id="logo" fill="#FFFFFF"></path>
        <g id="Group-23" transform="translate(351.000000, 26.000000)" stroke="#2C2F31">
            <path d="M4.03974255,0.900325447 L117.458806,42.3023193 C118.640389,42.733639 119.427438,43.8562662 119.430089,45.1141084 L119.676774,162.161997 C119.680266,163.818847 118.339954,165.164821 116.683103,165.168313 C116.3214,165.169075 115.96254,165.104421 115.623847,164.977471 L2.25581608,122.484562 C1.0873155,122.046582 0.311963483,120.930996 0.30875956,119.683113 L0.0110413906,3.72613959 C0.00678745081,2.0692908 1.34648027,0.72270098 3.00332906,0.71844704 C3.35681756,0.717539463 3.70768476,0.77911254 4.03974255,0.900325447 Z" id="Rectangle-Copy" fill-opacity="0.909844882" fill="#FFFFFF"></path>
            <path d="M8.62212125,13.7837838 C10.0420446,13.7837838 11.1966355,12.498115 11.2009721,10.9121622 C11.2053087,9.32620933 9.92315537,8.04054054 8.33720255,8.04054054 C6.75124972,8.04054054 5.59665888,9.32620933 5.75835172,10.9121622 C5.92004457,12.498115 7.20219786,13.7837838 8.62212125,13.7837838 Z" id="Oval"></path>
            <path d="M17.2369861,16.6554054 C18.6569095,16.6554054 19.8115004,15.3697366 19.8158369,13.7837838 C19.8201735,12.197831 18.5380202,10.9121622 16.9520674,10.9121622 C15.3661146,10.9121622 14.2115237,12.197831 14.3732166,13.7837838 C14.5349094,15.3697366 15.8170627,16.6554054 17.2369861,16.6554054 Z" id="Oval-Copy"></path>
            <path d="M25.2775267,19.527027 C26.6974501,19.527027 27.8520409,18.2413582 27.8563775,16.6554054 C27.8607141,15.0694526 26.5785608,13.7837838 24.992608,13.7837838 C23.4066551,13.7837838 22.2520643,15.0694526 22.4137571,16.6554054 C22.57545,18.2413582 23.8576033,19.527027 25.2775267,19.527027 Z" id="Oval-Copy-2"></path>
            <path d="M0.287162162,15.2195946 L119.729353,58.947583" id="Line-2"></path>
            <path d="M36.3310811,68.75 L101.062763,92.7690341" id="Line-4-Copy"></path>
            <path d="M36.3310811,78.75 L101.062763,102.769034" id="Line-4-Copy"></path>
            <path d="M36.3310811,88.75 L101.062763,112.769034" id="Line-4-Copy"></path>
            <path d="M36.3310811,98.75 L101.062763,122.769034" id="Line-4-Copy"></path>
            <path d="M36.4695946,58.8277027 L62.3141892,68.5912162" id="Line-5"></path>
            <path d="M36.4695946,107.375 L62.3141892,117.138514" id="Line-5-Copy"></path>
        </g>
        <g id="Group-13" transform="translate(392.000000, 86.000000) scale(-1, 1) translate(-392.000000, -86.000000) translate(387.000000, 79.000000)">
            <path d="M1.91420588,13.5766027 C0.895088235,14.1311876 0.0718529412,13.5381247 0.0745,12.2524581 L0.0877352941,6.14951468 C0.0903823529,4.86384801 0.918911765,3.37157128 1.93714706,2.81698637 L8.15155882,0.209537736 C9.16979412,-0.34504717 9.99391176,0.247179245 9.99038235,1.53368239 L9.97714706,7.63578931 C9.9745,8.92229245 9.14597059,10.4145692 8.12773529,10.9691541 L1.91420588,13.5766027 Z" id="Fill-71" fill="#000000"></path>
            <polyline id="Stroke-75" stroke="#FFFFFF" stroke-width="1.26" stroke-linecap="round" stroke-linejoin="round" transform="translate(5.078881, 7.395246) scale(-1, 1) translate(-5.078881, -7.395246) " points="3.36867391 7.55267679 4.56944364 9.20125786 6.78908824 5.58923438"></polyline>
        </g>
        <path d="M366.028711,58.1818883 L377.974978,62.5427009 C379.156561,62.9740206 379.94361,64.0966477 379.946261,65.3544899 L379.971826,77.4849607 C379.975318,79.1418113 378.635006,80.4877848 376.978156,80.4912767 C376.616453,80.492039 376.257593,80.4273847 375.9189,80.3004346 L363.977916,75.8246834 C362.809416,75.3867029 362.034064,74.2711169 362.03086,73.0232346 L362.00001,61.0077024 C361.995756,59.3508537 363.335449,58.0042638 364.992298,58.0000099 C365.345786,57.9991023 365.696653,58.0606754 366.028711,58.1818883 Z" id="Rectangle-Copy" fill="#000000"></path>
        <polygon id="Triangle" fill="#7D8285" points="312 109 301 116 301 102"></polygon>
        <polygon id="Triangle-Copy" fill="#7D8285" points="161 109 150 116 150 102"></polygon>
    </g>
</svg>