<?xml version="1.0" encoding="utf-8"?>
<!-- Generator: Adobe Illustrator 17.0.0, SVG Export Plug-In . SVG Version: 6.00 Build 0)  -->
<!DOCTYPE svg PUBLIC "-//W3C//DTD SVG 1.1//EN" "http://www.w3.org/Graphics/SVG/1.1/DTD/svg11.dtd">
<svg version="1.1" id="Layer_1" xmlns="http://www.w3.org/2000/svg" xmlns:xlink="http://www.w3.org/1999/xlink" x="0px" y="0px"
	 width="478px" height="215px" viewBox="-4.5 -23.5 478 215" enable-background="new -4.5 -23.5 478 215" xml:space="preserve">
<pattern  x="-485.5" y="479.5" width="6" height="6" patternUnits="userSpaceOnUse" id="pattern-2" viewBox="0 -6 6 6" overflow="visible">
	<g>
		<polygon fill="none" points="0,0 6,0 6,-6 0,-6 		"/>
		<g>
			
				<image overflow="visible" enable-background="new    " width="6" height="6" id="image-3_1_" xlink:href="E04984611A9A5997.png"  transform="matrix(1 0 0 -1 5.9704 -5.5195)">
			</image>
		</g>
	</g>
</pattern>
<pattern  x="-485.5" y="479.5" width="6" height="6" patternUnits="userSpaceOnUse" id="pattern-5" viewBox="0 -6 6 6" overflow="visible">
	<g>
		<polygon fill="none" points="0,0 6,0 6,-6 0,-6 		"/>
		<g>
			
				<image overflow="visible" enable-background="new    " width="6" height="6" id="image-6_1_" xlink:href="E04984611A9A5995.png"  transform="matrix(1 0 0 -1 5.9704 -5.5195)">
			</image>
		</g>
	</g>
</pattern>
<pattern  x="-485.5" y="479.5" width="6" height="6" patternUnits="userSpaceOnUse" id="pattern-8" viewBox="43.496 -6 6 6" overflow="visible">
	<g>
		<polygon fill="none" points="43.496,0 49.496,0 49.496,-6 43.496,-6 		"/>
		<g>
			
				<image overflow="visible" enable-background="new    " width="6" height="6" id="image-9_1_" xlink:href="E04984611A9A599B.png"  transform="matrix(1 0 0 -1 0 -5.9528)">
			</image>
		</g>
	</g>
</pattern>
<title>DIGITAL ASSETS</title>
<desc>Created with Sketch.</desc>
<g id="xCERT-official-3" transform="translate(-216.000000, -3825.000000)">
	<g id="DIGITAL-ASSETS" transform="translate(217.000000, 3825.000000)">
		<path id="Line-4" fill="none" stroke="#7D8285" stroke-linecap="square" stroke-dasharray="3,6" d="M100.5,82.5h245.589"/>
		<g id="Group-5-Copy-2" transform="translate(189.000000, 60.000000)">
			<g id="Group-5-Copy-6">
				<path id="Shape" fill="#FFFFFF" stroke="#2C2F31" stroke-linecap="round" stroke-linejoin="round" d="M69.855,15.559v14.657
					c0,4.78-4.128,9.879-12.066,13.702c-14.606,7.011-36.515,7.329-49.216,0.637C2.858,41.687,0,37.863,0,33.72V19.064
					c0,3.824,2.858,7.967,8.573,10.834c12.701,6.692,34.61,6.373,49.216-0.637C65.727,25.437,69.855,20.338,69.855,15.559z"/>
				<path id="Shape_1_" fill="#0971FF" stroke="#2C2F31" stroke-linecap="round" stroke-linejoin="round" d="M57.783,29.448
					c-14.602,7.031-36.505,7.35-49.203,0.639S-2.53,12.51,12.072,5.479s36.505-7.35,49.203-0.639S72.385,22.417,57.783,29.448z"/>
			</g>
			<path id="logo" fill="#FFFFFF" d="M47.143,15.883L33.03,15.807c-0.247-0.001-0.452,0.103-0.458,0.232l-0.036,0.775
				c-0.006,0.13-0.211,0.234-0.458,0.232l-2.708-0.015c-0.247-0.001-0.442-0.107-0.436-0.237l0.126-2.696
				c0.006-0.13,0.214-0.235,0.462-0.232l14.176,0.143l-3.644-1.982l-0.042,0.901c-0.006,0.131-0.215,0.235-0.464,0.232l-2.715-0.036
				c-0.244-0.003-0.436-0.109-0.43-0.237l0.13-2.775l-1.383-0.752c-0.281-0.153-0.751-0.155-1.045-0.006L20.04,16.488
				c-0.295,0.149-0.306,0.396-0.026,0.549l1.314,0.715l14.282,0.078c0.247,0.001,0.452-0.103,0.458-0.232l0.036-0.776
				c0.006-0.13,0.211-0.234,0.458-0.232l2.708,0.015c0.247,0.001,0.442,0.108,0.436,0.237l-0.126,2.696
				c-0.006,0.131-0.214,0.235-0.462,0.232l-14.346-0.145l3.81,2.072l0.046-0.989c0.006-0.131,0.216-0.235,0.465-0.232l2.714,0.035
				c0.244,0.003,0.436,0.109,0.429,0.237L32.104,23.6l1.301,0.718c0.28,0.152,0.75,0.155,1.045,0.006l14.064-7.132
				c0.294-0.149,0.306-0.396,0.026-0.549"/>
		</g>
		<g id="_x30_xcert" transform="translate(0.000000, 24.000000)">
			<g id="Group-15" transform="translate(0.000000, 28.457567)">
				<g id="Group-6-Copy-7" transform="translate(49.466080, 38.406962)">
					<g id="Shape-Copy-18">
						<g>
							<polyline id="path-1" fill="#FFFFFF" points="49.945,0.48 49.945,20.401 0.03,48.937 0.03,29.181 							"/>
						</g>
						<g>
							<pattern  id="path-1_2_" xlink:href="#pattern-2" patternTransform="matrix(1 0 0 -1 343.9957 -17151.8457)">
							</pattern>
							
								<polyline id="path-1_1_" fill="url(#path-1_2_)" fill-opacity="0.2" stroke="#2C2F31" stroke-linecap="round" stroke-linejoin="round" points="
								49.945,0.48 49.945,20.401 0.03,48.937 0.03,29.181 							"/>
						</g>
					</g>
				</g>
				<g id="Group-6-Copy-7_1_" transform="translate(49.466080, 18.912851)">
					<g id="Shape-Copy-18_1_">
						<g>
							<polyline id="path-4" fill="#FFFFFF" points="49.945,0.48 49.945,20.401 0.03,48.937 0.03,29.181 							"/>
						</g>
						<g>
							<pattern  id="path-4_2_" xlink:href="#pattern-5" patternTransform="matrix(1 0 0 -1 343.9957 -17132.3516)">
							</pattern>
							
								<polyline id="path-4_1_" fill="url(#path-4_2_)" fill-opacity="0.2" stroke="#2C2F31" stroke-linecap="round" stroke-linejoin="round" points="
								49.945,0.48 49.945,20.401 0.03,48.937 0.03,29.181 							"/>
						</g>
					</g>
				</g>
				<g id="Group-6-Copy-7_2_" transform="translate(0.000000, 0.480879)">
					<g id="Shape-Copy-18_2_">
						<g>
							<polyline id="path-7" fill="#FFFFFF" points="99.411,0.047 99.411,19.968 49.496,48.503 49.496,28.748 							"/>
						</g>
						<g>
							<pattern  id="path-7_2_" xlink:href="#pattern-8" patternTransform="matrix(1 0 0 -1 343.9957 -17113.4863)">
							</pattern>
							
								<polyline id="path-7_1_" fill="url(#path-7_2_)" fill-opacity="0.2" stroke="#2C2F31" stroke-linecap="round" stroke-linejoin="round" points="
								99.411,0.047 99.411,19.968 49.496,48.503 49.496,28.748 							"/>
						</g>
					</g>
					<polyline id="Shape-Copy-18_3_" fill="#FFFFFF" stroke="#2C2F31" stroke-linecap="round" stroke-linejoin="round" points="
						0.03,38.407 0.03,58.327 49.945,86.863 49.945,67.107 					"/>
					<polyline id="Shape-Copy-18_4_" fill="#FFFFFF" stroke="#2C2F31" stroke-linecap="round" stroke-linejoin="round" points="
						0.03,18.912 0.03,38.833 49.945,67.369 49.945,47.613 					"/>
					<polyline id="Shape-Copy-18_5_" fill="#FFFFFF" stroke="#2C2F31" stroke-linecap="round" stroke-linejoin="round" points="
						0.03,0.047 0.03,19.968 49.945,48.503 49.945,28.748 					"/>
				</g>
			</g>
			<g id="Group-2" transform="translate(0.072392, 0.000000)">
				<g id="Group-10">
					<polygon id="Path-6-Copy" fill="#0971FF" stroke="#2C2F31" points="0.117,28.788 49.888,57.072 98.997,28.824 50.416,0.229 
											"/>
					<path id="Shape_2_" fill="#F7F7F7" stroke="#2C2F31" stroke-linecap="round" stroke-linejoin="round" d="M7.879,27.807
						c-0.739,0.493-0.739,0.986,0,1.479c0.739,0.493,1.972,0.493,2.711,0c0.739-0.493,0.739-1.233,0-1.479
						C9.85,27.314,8.618,27.314,7.879,27.807z"/>
					<path id="Shape_3_" fill="#F7F7F7" stroke="#2C2F31" stroke-linecap="round" stroke-linejoin="round" d="M49.235,5.152
						c-0.739,0.493-0.739,0.986,0,1.479c0.739,0.493,1.972,0.493,2.711,0c0.739-0.493,0.739-1.233,0-1.479
						C51.207,4.659,49.975,4.659,49.235,5.152z"/>
					<path id="Shape-Copy" fill="#F7F7F7" stroke="#2C2F31" stroke-linecap="round" stroke-linejoin="round" d="M88.157,27.84
						c-0.739,0.493-0.739,0.986,0,1.479c0.739,0.493,1.972,0.493,2.711,0c0.739-0.493,0.739-1.233,0-1.479
						C90.129,27.347,88.897,27.347,88.157,27.84z"/>
					<path id="Shape-Copy_1_" fill="#F7F7F7" stroke="#2C2F31" stroke-linecap="round" stroke-linejoin="round" d="M48.45,49.754
						c-0.739,0.493-0.739,0.986,0,1.479c0.739,0.493,1.972,0.493,2.711,0c0.739-0.493,0.739-1.233,0-1.479
						C50.422,49.261,49.19,49.261,48.45,49.754z"/>
				</g>
				<path id="logo_1_" fill="#FFFFFF" d="M70.764,25.524l-23.182,0.344c-0.406,0.006-0.743,0.195-0.753,0.422l-0.06,1.355
					c-0.01,0.227-0.347,0.414-0.753,0.418l-4.448,0.044c-0.406,0.004-0.726-0.173-0.716-0.397l0.207-4.645
					c0.01-0.225,0.351-0.415,0.759-0.422l23.285-0.421l-5.986-3.394l-0.07,1.624c-0.01,0.236-0.353,0.435-0.763,0.442l-4.459,0.081
					c-0.401,0.008-0.715-0.17-0.706-0.398l0.214-4.932l-2.272-1.224c-0.461-0.247-1.233-0.213-1.717,0.074l-23.101,12.95
					c-0.484,0.256-0.503,0.665-0.042,0.91l2.158,1.157l23.459-0.157c0.406-0.003,0.742-0.191,0.752-0.421l0.06-1.375
					c0.01-0.23,0.347-0.42,0.753-0.425l4.448-0.052c0.406-0.004,0.726,0.181,0.717,0.414l-0.208,4.846
					c-0.01,0.235-0.351,0.423-0.759,0.42l-23.564-0.154l6.258,3.532l0.076-1.7c0.01-0.225,0.354-0.405,0.763-0.4l4.458,0.058
					c0.401,0.005,0.715,0.189,0.705,0.413l-0.219,4.973l2.137,1.285c0.46,0.275,1.232,0.292,1.717,0.037L73.016,27.91
					c0.484-0.285,0.503-0.745,0.042-1.021"/>
			</g>
		</g>
		<g id="Group-24" transform="translate(346.000000, 0.000000)">
			<g id="Group-23">
				<path id="Rectangle-Copy" fill="#FFFFFF" fill-opacity="0.9098" stroke="#2C2F31" d="M4.04,0.9l113.419,41.402
					c1.182,0.431,1.969,1.554,1.971,2.812l0.247,117.048c0.003,1.657-1.337,3.003-2.994,3.006c-0.362,0.001-0.721-0.064-1.059-0.191
					L2.256,122.485c-1.169-0.438-1.944-1.554-1.947-2.801L0.011,3.726C0.007,2.069,1.346,0.723,3.003,0.718
					C3.357,0.718,3.708,0.779,4.04,0.9z"/>
				<path id="Oval" fill="none" stroke="#2C2F31" d="M8.622,13.784c1.42,0,2.575-1.286,2.579-2.872
					c0.004-1.586-1.278-2.872-2.864-2.872s-2.741,1.286-2.579,2.872C5.92,12.498,7.202,13.784,8.622,13.784z"/>
				<path id="Oval-Copy" fill="none" stroke="#2C2F31" d="M17.237,16.655c1.42,0,2.575-1.286,2.579-2.872
					c0.004-1.586-1.278-2.872-2.864-2.872s-2.741,1.286-2.579,2.872S15.817,16.655,17.237,16.655z"/>
				<path id="Oval-Copy-2" fill="none" stroke="#2C2F31" d="M25.278,19.527c1.42,0,2.575-1.286,2.579-2.872
					c0.004-1.586-1.278-2.872-2.864-2.872s-2.741,1.286-2.579,2.872S23.858,19.527,25.278,19.527z"/>
				<path id="Line-2" fill="none" stroke="#2C2F31" d="M0.287,15.22l119.442,43.728"/>
				<path id="Line-4-Copy" fill="none" stroke="#2C2F31" d="M36.331,68.75l64.732,24.019"/>
				<path id="Line-4-Copy_1_" fill="none" stroke="#2C2F31" d="M36.331,78.75l64.732,24.019"/>
				<path id="Line-4-Copy_2_" fill="none" stroke="#2C2F31" d="M36.331,88.75l64.732,24.019"/>
				<path id="Line-4-Copy_3_" fill="none" stroke="#2C2F31" d="M36.331,98.75l64.732,24.019"/>
				<path id="Line-5" fill="none" stroke="#2C2F31" d="M36.47,58.828l25.845,9.764"/>
				<path id="Line-5-Copy" fill="none" stroke="#2C2F31" d="M36.47,107.375l25.845,9.764"/>
			</g>
			
				<g id="Group-13" transform="translate(41.000000, 60.000000) scale(-1, 1) translate(-41.000000, -60.000000) translate(36.000000, 53.000000)">
				<path id="Fill-71" fill="#41FF8B" d="M1.914,13.577c-1.019,0.555-1.842-0.038-1.84-1.324L0.088,6.15
					C0.09,4.864,0.919,3.372,1.937,2.817L8.152,0.21C9.17-0.345,9.994,0.247,9.99,1.534L9.977,7.636
					c-0.003,1.287-0.831,2.779-1.849,3.333L1.914,13.577z"/>
				
					<polyline id="Stroke-75" fill="none" stroke="#FFFFFF" stroke-width="1.26" stroke-linecap="round" stroke-linejoin="round" points="
					6.789,7.553 5.588,9.201 3.369,5.589 				"/>
			</g>
			<path id="Rectangle-Copy_1_" fill="#0971FF" d="M15.049,31.999l11.946,4.361c1.182,0.431,1.969,1.554,1.971,2.812l0.026,12.13
				c0.003,1.657-1.337,3.003-2.994,3.006c-0.362,0.001-0.721-0.064-1.059-0.191l-11.941-4.476c-1.169-0.438-1.944-1.554-1.947-2.801
				L11.02,34.825c-0.004-1.657,1.335-3.003,2.992-3.008C14.366,31.816,14.717,31.878,15.049,31.999z"/>
		</g>
		<g id="Group-25" transform="translate(145.000000, 76.000000)">
			<polygon id="Triangle" fill="#7D8285" points="162,7 151,14 151,0 			"/>
			<polygon id="Triangle-Copy" fill="#7D8285" points="11,7 0,14 0,0 			"/>
		</g>
	</g>
</g>
</svg>
