<?xml version="1.0" encoding="UTF-8" standalone="no"?>
<!DOCTYPE svg PUBLIC "-//W3C//DTD SVG 1.1//EN" "http://www.w3.org/Graphics/SVG/1.1/DTD/svg11.dtd">
<svg width="100%" height="100%" viewBox="0 0 1440 612" version="1.1" xmlns="http://www.w3.org/2000/svg" xmlns:xlink="http://www.w3.org/1999/xlink" xml:space="preserve" xmlns:serif="http://www.serif.com/" style="fill-rule:evenodd;clip-rule:evenodd;stroke-linecap:round;">
    <ellipse id="path-1_23_" cx="720.246" cy="212.3" rx="158.99" ry="156.778" style="fill:white;"/>
    <ellipse id="path-1_22_" cx="720.246" cy="212.3" rx="158.99" ry="156.778" style="fill:white;"/>
    <ellipse id="path-1_21_" cx="720.246" cy="212.3" rx="158.99" ry="156.778" style="fill:white;"/>
    <ellipse id="path-1_20_" cx="720.246" cy="212.3" rx="158.99" ry="156.778" style="fill:white;"/>
    <ellipse id="path-1_19_" cx="720.246" cy="212.3" rx="158.99" ry="156.778" style="fill:white;"/>
    <ellipse id="path-1_18_" cx="720.246" cy="212.3" rx="158.99" ry="156.778" style="fill:white;"/>
    <ellipse id="path-1_17_" cx="720.246" cy="212.3" rx="158.99" ry="156.778" style="fill:white;"/>
    <ellipse id="path-1_16_" cx="720.246" cy="212.3" rx="158.99" ry="156.778" style="fill:white;"/>
    <ellipse id="path-1_15_" cx="720.246" cy="212.3" rx="158.99" ry="156.778" style="fill:white;"/>
    <ellipse id="path-1_14_" cx="720.246" cy="212.3" rx="158.99" ry="156.778" style="fill:white;"/>
    <ellipse id="path-1_13_" cx="720.246" cy="212.3" rx="158.99" ry="156.778" style="fill:white;"/>
    <ellipse id="path-1_12_" cx="720.246" cy="212.3" rx="158.99" ry="156.778" style="fill:white;"/>
    <ellipse id="path-1_11_" cx="720.246" cy="212.3" rx="158.99" ry="156.778" style="fill:white;"/>
    <ellipse id="path-1_10_" cx="720.246" cy="212.3" rx="158.99" ry="156.778" style="fill:white;"/>
    <ellipse id="path-1_9_" cx="720.246" cy="212.3" rx="158.99" ry="156.778" style="fill:white;"/>
    <ellipse id="path-1_8_" cx="720.246" cy="212.3" rx="158.99" ry="156.778" style="fill:white;"/>
    <ellipse id="path-1_7_" cx="720.246" cy="212.3" rx="158.99" ry="156.778" style="fill:white;"/>
    <ellipse id="path-1_6_" cx="720.246" cy="212.3" rx="158.99" ry="156.778" style="fill:white;"/>
    <ellipse id="path-1_5_" cx="720.246" cy="212.3" rx="158.99" ry="156.778" style="fill:white;"/>
    <ellipse id="path-1_4_" cx="720.246" cy="212.3" rx="158.99" ry="156.778" style="fill:white;"/>
    <ellipse id="path-1_3_" cx="720.246" cy="212.3" rx="158.99" ry="156.778" style="fill:white;"/>
    <ellipse id="path-1_2_" cx="720.246" cy="212.3" rx="158.99" ry="156.778" style="fill:white;"/>
    <ellipse id="path-1_1_" cx="720.246" cy="212.3" rx="158.99" ry="156.778" style="fill:white;"/>
    <g id="kitty-eth" transform="matrix(1,0,0,1,228,1)">
        <ellipse id="Oval" cx="492.246" cy="211.3" rx="158.99" ry="156.778" style="fill:rgb(227,227,227);"/>
        <clipPath id="_clip1">
            <ellipse id="Oval1" serif:id="Oval" cx="492.246" cy="211.3" rx="158.99" ry="156.778"/>
        </clipPath>
        <g clip-path="url(#_clip1)">
            <g>
                <path id="Shape" d="M640.915,395.109C632.806,389.457 615.85,383.56 607.004,380.856L606.758,380.856C610.198,371.518 610.69,361.197 607.987,351.368L575.058,243.983C577.761,241.034 579.481,239.068 579.481,239.068C587.59,244.228 600.123,238.331 605.283,235.628C605.529,235.382 605.774,235.137 605.529,234.891C605.529,234.645 605.283,234.4 605.038,234.4C594.963,234.4 580.465,226.537 580.465,226.537C592.014,229.486 596.438,226.291 597.666,224.571C597.912,224.325 597.912,224.08 597.666,223.834C597.666,223.588 597.42,223.588 597.175,223.588C593.489,223.342 580.957,221.376 571.864,200.489C570.635,197.54 569.407,194.837 567.932,192.134C565.229,186.728 560.56,178.373 555.4,170.018L555.646,168.789L564.984,129.963C565.475,127.751 564.738,125.294 562.772,123.82C560.806,122.591 558.103,122.591 556.383,123.82L531.564,142.25L531.073,142.741L530.09,142.25C526.895,140.53 523.209,139.055 519.769,138.073L519.032,137.827C520.998,132.421 526.65,129.472 526.65,129.472C519.769,123.083 507.728,133.158 507.728,133.158C500.847,126.523 510.923,113.745 510.923,113.745C498.636,108.093 489.544,129.963 489.544,129.963C488.561,119.396 473.326,117.676 473.326,117.676C478.486,123.328 475.783,133.403 475.783,133.403C468.657,126.277 454.896,132.912 454.896,132.912C459.319,133.158 463.251,135.124 466.445,138.318L465.954,138.564C460.548,140.038 455.633,142.496 450.964,145.936L426.143,130.454C424.177,129.225 421.474,129.225 419.754,130.7C417.788,132.174 417.051,134.632 417.788,136.843L428.6,175.177L429.337,177.88C426.88,184.023 424.914,189.675 423.685,192.624C422.948,194.59 422.211,196.556 421.473,198.522C416.313,212.283 405.255,222.85 391.248,227.519C391.002,227.519 390.757,227.765 390.757,228.01C390.757,228.256 391.003,228.501 391.248,228.501C395.18,229.484 405.009,231.696 412.135,224.569C412.135,224.569 405.009,234.398 396.408,237.839C396.162,237.839 395.917,238.085 395.917,238.576C395.917,238.822 396.163,239.067 396.408,239.067C402.06,239.313 407.957,238.33 412.872,235.627C410.66,238.822 407.957,241.525 405.254,243.982C405.991,244.474 405.745,244.719 405.991,244.965C405.991,245.211 406.237,245.456 406.728,245.211C409.677,244.965 413.117,244.228 415.329,242.999L415.329,245.211C415.329,247.423 417.049,249.88 419.261,252.092L399.111,358.003C398.128,365.375 398.865,372.993 401.568,380.119C394.442,381.839 376.995,388.228 366.674,394.863C361.759,398.058 364.708,405.43 371.097,405.184L421.472,404.201C422.209,404.692 423.192,405.184 423.929,405.675L423.929,406.412C423.929,410.835 422.7,414.521 418.277,414.521C415.328,414.767 412.871,416.487 412.379,418.453C411.396,422.63 413.362,425.825 417.539,426.071L433.512,427.054C440.393,427.545 446.29,422.877 447.519,415.996L448.502,411.081L549.253,411.081L549.99,415.013C550.727,419.682 553.922,423.368 558.099,425.334C559.328,425.825 560.802,426.071 562.276,426.071L579.723,425.58C583.9,425.089 585.375,422.631 584.883,418.699C584.637,417.47 583.654,414.03 580.214,413.784C577.265,413.538 575.545,412.064 574.808,409.607C579.231,408.378 583.409,406.658 587.095,404.201L636.488,405.184C642.881,405.675 645.829,398.549 640.915,395.109Z" style="fill:rgb(155,155,155);fill-rule:nonzero;"/>
                <path id="Shape_1_" d="M531.563,142.74L556.382,124.31C558.348,122.836 560.805,122.836 562.771,124.064C564.737,125.293 565.72,127.75 565.228,130.207L555.89,169.033L555.644,170.262M451.454,146.18L426.635,130.699C424.669,129.47 421.966,129.47 420.246,130.945C418.28,132.419 417.543,134.877 418.28,137.088L429.092,175.422L429.829,178.125M575.058,243.983L607.986,351.369C611.426,363.41 609.952,376.434 603.563,387.492C597.42,398.55 586.853,406.413 574.812,409.854M423.932,406.167C406.485,396.829 396.656,377.908 399.113,358.249L419.263,252.338" style="fill:none;stroke:rgb(49,50,61);stroke-width:1.84px;"/>
                <path id="Shape_2_" d="M457.597,365.866C457.351,368.815 456.86,371.518 456.368,374.467C455.877,377.416 455.385,380.119 454.894,383.068C453.911,388.72 452.928,394.372 451.699,400.024L448.504,416.98C447.767,420.175 446.292,422.878 443.835,425.089C441.378,427.3 438.429,428.529 435.234,428.529C434.497,428.529 433.76,428.529 433.022,428.529L430.81,428.283L426.633,428.037L418.032,427.546C416.312,427.546 414.592,426.809 413.363,425.826C412.134,424.597 411.397,422.877 411.151,421.157C411.151,420.42 411.151,419.437 411.397,418.7C411.643,417.717 412.134,416.98 412.626,416.243C413.855,415.014 415.329,414.031 417.049,413.786C417.54,413.786 417.786,413.54 418.278,413.54C418.524,413.54 418.769,413.54 419.261,413.54C419.752,413.54 420.244,413.294 420.735,413.049C421.718,412.312 422.209,411.329 422.455,410.346C422.701,409.117 422.946,407.643 422.701,406.414L422.455,401.991L421.718,384.79C421.227,381.104 420.489,377.418 419.506,373.732C418.277,370.292 416.311,366.851 414.1,363.903L414.1,363.657C414.1,363.657 414.1,363.411 414.346,363.411C414.592,363.165 414.837,363.165 414.837,363.411C417.54,366.114 419.752,369.554 421.226,373.24C422.7,376.926 423.683,380.612 424.175,384.544L424.912,401.745L425.158,406.168C425.158,407.642 425.158,409.363 424.667,410.837C424.176,412.557 423.193,414.032 421.964,415.014C421.227,415.505 420.49,415.751 419.507,415.997C419.016,415.997 418.77,416.243 418.278,416.243C418.032,416.243 417.787,416.243 417.295,416.489C416.066,416.735 415.083,417.226 414.346,418.209C414.1,418.7 413.855,418.946 413.609,419.438C413.609,419.929 413.363,420.667 413.363,421.158C413.363,422.387 413.854,423.37 414.592,424.107C415.575,424.844 416.558,425.336 417.787,425.336L426.388,425.827L430.811,426.073L433.023,426.319C433.76,426.319 434.252,426.319 434.989,426.319C437.692,426.319 440.149,425.336 442.115,423.616C444.081,421.896 445.555,419.684 446.047,416.981L449.242,400.025C450.225,394.373 451.454,388.721 452.437,383.069C452.928,380.12 453.666,377.417 454.403,374.714C455.14,372.011 455.632,369.062 456.369,366.359C456.369,366.359 456.369,366.113 456.615,366.113L456.861,366.113C457.352,365.621 457.597,365.621 457.597,365.866ZM541.392,362.918C542.129,366.113 542.866,369.553 543.604,372.747C544.341,375.942 544.833,379.382 545.57,382.576C546.799,389.211 547.782,395.846 549.01,402.48L550.73,412.555L551.221,415.012C551.467,415.749 551.467,416.486 551.713,417.224C552.204,418.698 552.942,419.927 554.17,421.156C555.153,422.385 556.382,423.122 557.856,423.859C559.085,424.596 560.559,424.842 562.033,424.842L572.108,424.351L577.268,424.105L579.725,424.105C580.462,424.105 580.954,423.859 581.691,423.614C582.92,423.123 583.657,421.894 583.657,420.665C583.657,419.928 583.657,419.191 583.657,418.453C583.657,417.715 583.411,417.224 582.92,416.487C582.674,415.996 582.183,415.504 581.691,415.258C581.445,415.012 581.2,415.012 580.954,415.012C580.708,415.012 580.708,415.012 580.463,415.012L579.726,415.012C578.743,415.012 577.76,414.521 576.777,414.275C575.794,413.784 575.057,413.046 574.565,412.063C573.828,410.343 573.336,408.377 573.582,406.411L573.582,401.251L573.582,396.091C573.582,394.371 573.828,392.651 574.073,390.931C575.793,380.61 580.462,371.272 587.588,363.655L587.834,363.409C587.834,363.409 588.08,363.409 588.08,363.655C588.326,363.901 588.326,364.146 588.08,364.146C579.971,374.958 575.056,387.736 575.793,401.006L575.793,408.378C575.793,409.115 576.039,409.607 576.284,410.344C577.021,411.573 578.25,412.064 579.479,412.064L580.707,412.064C581.198,412.064 581.69,412.31 582.181,412.555C583.164,413.046 583.901,413.784 584.393,414.767C584.884,415.75 585.376,416.487 585.376,417.716C585.376,418.699 585.376,419.682 585.376,420.665C585.376,421.648 584.885,422.631 584.393,423.614C583.902,424.597 582.919,425.334 581.936,425.58C580.953,426.071 579.97,426.317 578.987,426.317L576.53,426.317L571.37,426.563L561.295,426.809C559.329,426.809 557.609,426.318 555.889,425.58C552.449,423.86 549.991,420.911 548.763,417.471C548.517,416.734 548.272,415.751 548.272,414.768L547.781,412.311L546.061,402.236C545.078,395.601 543.849,388.966 542.866,382.332C542.375,378.892 541.883,375.697 541.392,372.257C540.901,368.817 540.409,365.622 540.163,362.182L540.163,361.936L540.409,361.69C541.147,362.672 541.392,362.672 541.392,362.918ZM469.147,143.969C468.656,142.495 467.918,141.266 466.935,140.037C465.952,138.808 464.969,137.825 463.74,137.088C461.283,135.614 458.334,134.631 455.385,134.631C454.648,134.631 454.402,133.894 454.402,133.402C454.402,132.91 454.648,132.665 455.139,132.419C456.859,131.682 458.579,130.945 460.545,130.453C462.511,129.962 464.231,129.716 466.197,129.47C468.163,129.224 470.129,129.47 472.095,129.961C474.061,130.452 475.781,131.435 477.255,132.91L475.289,133.401C475.535,132.172 475.78,130.944 475.78,129.469C475.78,128.24 475.78,127.012 475.78,125.537C475.534,123.08 474.551,120.622 473.077,118.656C472.586,118.165 472.831,117.427 473.323,116.936C473.569,116.69 473.814,116.69 474.306,116.69C476.272,116.936 477.992,117.427 479.958,117.919C481.678,118.41 483.398,119.393 485.118,120.376C486.838,121.359 488.313,122.833 489.295,124.308C490.524,126.028 491.015,127.994 491.261,129.96L489.541,129.714C490.524,127.502 491.753,125.045 492.981,123.079C494.21,120.867 495.93,118.902 497.65,116.936C499.37,114.97 501.582,113.496 504.039,112.513C506.742,111.53 509.445,111.776 512.148,112.759C512.639,113.005 512.885,113.742 512.885,114.233C512.885,114.233 512.885,114.479 512.639,114.479C511.656,115.953 510.673,117.182 509.936,118.902C509.199,120.376 508.462,121.851 507.97,123.571C507.479,125.045 507.233,126.766 507.479,128.486C507.725,129.96 508.462,131.435 509.445,132.418L507.971,132.418C509.445,131.189 510.92,130.206 512.394,129.469C513.868,128.486 515.589,127.749 517.309,127.257C519.029,126.52 520.995,126.274 522.961,126.52C524.927,126.766 526.893,127.503 528.367,128.977C528.859,129.468 528.859,130.206 528.367,130.697C528.367,130.697 528.121,130.943 527.876,130.943C526.647,131.434 525.419,132.172 524.19,132.909C522.961,133.646 521.978,134.383 520.75,135.366C519.767,136.349 518.784,137.332 518.293,138.561C517.556,139.79 517.31,141.018 517.31,142.493C517.31,142.739 517.064,142.984 516.819,142.984C516.574,142.984 516.328,142.738 516.328,142.493C516.328,141.019 516.574,139.298 517.065,138.07C517.802,136.596 518.539,135.367 519.522,134.138C520.505,133.155 521.734,132.172 522.962,131.435C524.191,130.452 525.419,129.715 526.894,128.978L526.648,130.944C525.665,129.961 524.191,129.224 522.716,129.224C521.242,129.224 519.521,129.224 518.047,129.961C516.573,130.452 514.852,131.19 513.624,131.927C512.15,132.664 510.675,133.647 509.447,134.63C508.956,134.876 508.218,134.876 507.973,134.63C506.499,133.156 505.516,131.19 505.27,129.224C505.024,127.258 505.27,125.292 505.761,123.326C506.252,121.606 506.99,119.886 507.973,118.166C508.956,116.446 509.939,114.971 510.922,113.497L511.413,115.217C509.447,114.234 506.99,113.988 505.024,114.726C502.812,115.463 500.847,116.938 499.372,118.658C497.652,120.378 496.177,122.344 494.949,124.31C493.721,126.276 492.492,128.487 491.509,130.699C491.263,131.19 490.772,131.436 490.526,131.19C490.28,131.19 490.035,130.699 490.035,130.453C489.789,128.733 489.298,127.258 488.315,125.784C487.332,124.31 485.858,123.327 484.383,122.344C482.909,121.361 481.188,120.87 479.468,120.378C477.748,119.887 476.028,119.395 474.308,119.395L475.291,117.429C476.274,118.658 477.011,119.886 477.748,121.361C478.239,122.835 478.485,124.064 478.731,125.538C478.977,127.012 478.977,128.487 478.731,129.961C478.731,131.435 478.485,132.91 477.994,134.138C477.748,134.875 477.257,135.121 476.52,135.121C476.274,135.121 476.029,134.875 476.029,134.875C474.8,133.646 473.326,132.909 471.852,132.418C469.64,131.927 467.92,131.927 466.2,131.927C464.48,131.927 462.76,132.418 461.04,132.91C459.32,133.402 457.6,133.893 456.125,134.63L455.634,132.418C458.829,132.909 462.023,134.138 464.48,136.104C465.709,137.087 466.937,138.07 467.92,139.299C468.903,140.528 469.64,142.002 470.132,143.722C470.132,143.968 470.132,144.213 469.886,144.213C469.638,144.215 469.392,144.215 469.147,143.969Z" style="fill:rgb(49,50,61);fill-rule:nonzero;"/>
                <path id="Shape_3_" d="M520.014,137.334C523.7,138.317 527.386,139.791 530.581,141.511C532.793,142.985 535.25,144.46 537.216,146.18C539.428,147.9 541.393,149.866 543.359,151.832C546.799,156.009 550.24,160.187 553.188,164.856C559.086,173.948 564.492,183.04 569.406,192.624L574.566,203.682C575.057,204.911 575.795,205.894 576.532,207.122C577.023,208.351 578.006,209.334 578.744,210.317C579.481,211.3 580.218,212.529 581.201,213.512C582.921,215.478 584.641,217.198 586.853,218.672C588.819,220.146 591.276,221.375 593.734,222.112C594.963,222.358 596.191,222.603 597.42,222.849L597.911,222.849C598.402,222.849 598.894,223.34 599.14,223.586C599.386,224.077 599.386,224.569 599.386,225.06C599.386,225.306 599.14,225.551 599.14,225.797L598.894,226.043C598.403,226.534 597.665,227.026 597.174,227.517C594.717,228.991 591.768,229.729 588.819,229.483C586.116,229.483 583.413,228.992 580.71,228.254L581.447,226.042C585.379,228.254 589.556,229.974 593.734,231.448C595.946,232.185 597.911,232.677 600.123,233.168C601.106,233.414 602.335,233.414 603.318,233.659L605.775,233.659C606.266,233.659 606.512,233.905 606.758,234.396C607.249,235.133 607.249,236.116 606.512,236.608L606.266,236.854L606.02,236.854L605.774,236.854L605.283,237.1L604.546,237.591L603.072,238.328C602.089,238.819 600.86,239.311 599.877,239.802C597.665,240.785 595.454,241.276 593.242,241.768C591.03,242.259 588.573,242.505 586.116,242.505C583.659,242.505 581.201,241.522 578.99,240.293L580.464,240.047C577.761,242.996 575.058,245.699 572.109,248.402C569.16,251.105 566.211,253.562 563.017,255.774L562.771,255.774C562.771,255.774 562.525,255.774 562.525,255.528C562.279,255.282 562.525,255.037 562.525,254.791C565.474,252.334 568.423,249.631 571.126,246.928C573.829,244.225 576.532,241.276 578.744,238.327C578.99,237.836 579.727,237.836 580.218,238.081C583.658,240.293 588.327,240.293 592.505,239.31C594.717,238.819 596.928,238.081 598.894,237.344C599.877,236.853 600.86,236.607 602.089,236.115C602.58,235.869 603.072,235.624 603.563,235.378L604.3,234.887L604.791,234.641L605.037,234.641C604.791,234.887 604.791,235.132 605.037,235.378L605.283,235.624L605.037,235.624L603.317,235.624C602.088,235.378 600.86,235.378 599.877,235.133C597.665,234.642 595.454,234.15 593.242,233.167C588.819,231.693 584.641,229.727 580.464,227.761C579.973,227.515 579.727,226.778 579.973,226.287C580.219,225.796 580.71,225.55 581.447,225.55C583.904,226.287 586.607,226.533 589.065,226.779C591.523,227.025 593.98,226.533 596.191,225.305C596.682,225.059 597.174,224.568 597.42,224.322L597.666,224.076L597.666,224.813C597.666,225.059 597.912,225.059 598.157,225.059L597.666,225.059C596.192,224.813 594.963,224.568 593.489,224.322C590.786,223.339 588.329,222.11 586.117,220.39C583.905,218.67 581.94,216.95 579.974,214.738C578.991,213.755 578.254,212.526 577.517,211.543C576.534,210.56 576.043,209.331 575.305,208.103C574.568,206.874 573.831,205.646 573.339,204.417L571.619,200.731L568.179,193.605C563.264,184.021 558.104,174.929 552.206,166.083C549.257,161.66 546.063,157.482 542.622,153.305C540.902,151.339 538.936,149.619 536.724,147.899C534.758,146.179 532.547,144.95 530.089,143.476C526.894,141.756 523.454,140.527 520.014,139.544C519.523,139.544 519.277,139.053 519.031,138.807C518.785,138.561 519.031,137.824 519.277,137.578C519.276,137.334 519.768,137.088 520.014,137.334ZM429.584,260.201C426.144,258.481 422.703,256.269 419.509,253.566C417.789,252.337 416.56,250.617 415.332,248.897C414.595,247.914 414.349,246.931 414.103,245.702C414.103,245.456 414.103,245.211 414.103,244.965L414.103,244.228L414.103,242.754L415.823,243.737C414.103,244.72 412.137,245.211 410.171,245.703C409.188,245.949 408.205,245.949 407.468,246.194L406.731,246.194C406.485,246.194 405.994,246.194 405.748,245.948C405.502,245.702 405.257,245.702 405.011,245.211C404.52,244.72 404.52,243.982 405.011,243.245C405.011,242.999 405.257,242.999 405.257,242.754L405.503,242.508L405.749,242.262C407.223,241.033 408.452,239.805 409.435,238.576C410.664,237.347 411.647,235.873 412.875,234.399L414.349,236.119C411.4,237.593 407.96,238.576 404.765,239.314C403.045,239.56 401.325,239.805 399.605,239.805L397.148,239.805C396.411,239.805 395.919,239.314 395.674,238.576C395.428,237.839 395.674,237.102 396.165,236.61C396.411,236.364 396.656,236.364 396.902,236.119L397.393,235.873C400.342,234.399 402.799,232.678 405.256,230.467C407.713,228.255 409.925,226.044 411.645,223.341L413.365,224.815C411.153,227.027 408.205,228.747 405.01,229.484C401.815,230.221 398.621,230.467 395.426,229.975C394.689,229.975 393.952,229.729 393.214,229.484C392.723,229.484 392.477,229.238 391.985,229.238L391.985,230.221L391.739,230.221C391.493,230.221 391.248,229.975 391.002,229.975C390.511,229.729 390.265,228.992 390.265,228.501C390.265,228.01 390.511,227.518 391.248,227.027C391.248,227.027 391.494,226.781 391.739,226.781L392.231,226.781L392.722,226.535C393.459,226.289 394.196,226.044 394.688,225.798C397.391,224.569 400.094,223.341 402.551,221.621C407.466,218.426 411.889,214.249 415.329,209.58C416.312,208.351 417.049,207.123 417.786,205.894C418.523,204.665 419.26,203.437 419.752,201.962C420.489,200.488 420.981,199.259 421.472,197.785L423.192,193.608C427.124,182.304 431.547,170.755 437.936,160.188C439.41,157.485 441.376,155.028 443.342,152.57C444.325,151.341 445.554,150.358 446.537,149.13C447.52,148.147 448.749,146.918 449.977,145.935C454.892,142.003 460.544,139.3 466.441,137.58C466.932,137.334 467.178,137.58 467.67,137.826C468.161,138.072 468.161,138.563 467.916,139.055C467.671,139.547 467.425,139.792 467.179,139.792C461.527,141.266 456.121,143.969 451.452,147.655C450.223,148.392 449.24,149.375 448.257,150.604C447.274,151.587 446.045,152.816 445.308,153.799C442.851,156.502 441.131,158.714 439.656,161.417C433.513,171.738 429.089,183.042 425.158,194.345L423.438,198.522C422.947,199.751 422.209,201.225 421.718,202.699C421.227,204.173 420.244,205.402 419.506,206.876C418.768,208.35 418.032,209.579 417.049,210.808C413.363,215.968 408.94,220.146 403.534,223.586C400.831,225.306 398.128,226.781 395.179,227.763C394.442,228.009 393.705,228.254 392.967,228.5L392.476,228.746L392.23,228.746L391.984,228.746C392.23,228.746 392.23,228.5 392.23,228.255C392.23,228.009 392.23,227.764 391.984,227.764C391.984,227.764 391.738,227.518 391.738,227.764L391.984,227.764L392.475,228.01L393.458,228.256C394.195,228.502 394.932,228.502 395.67,228.747C398.619,229.238 401.322,228.993 404.271,228.501C406.974,227.764 409.431,226.289 411.397,224.324C411.888,223.833 412.626,223.833 413.117,224.324C413.608,224.815 413.608,225.307 413.117,225.798C411.151,228.501 408.694,230.958 406.236,233.17C403.779,235.627 400.83,237.347 397.881,238.822L397.39,239.068C397.144,239.068 396.899,239.314 397.144,239.068C397.39,238.822 397.39,238.822 397.39,238.577C397.39,238.331 397.144,238.086 396.899,238.086L399.111,238.086C400.585,238.086 402.306,237.84 403.78,237.595C406.975,237.104 409.923,235.875 412.872,234.646C413.363,234.4 413.855,234.646 414.346,234.892C414.592,235.383 414.592,235.875 414.346,236.366C413.117,237.84 412.134,239.315 410.906,240.789C409.677,242.263 408.203,243.492 406.974,244.721C406.728,244.721 406.483,245.212 406.728,244.967C406.974,244.721 406.974,244.476 406.728,244.23L406.482,243.984L406.236,243.984L406.973,243.984C407.956,243.984 408.693,243.738 409.43,243.493C411.15,243.247 412.625,242.756 414.099,242.019C414.345,241.773 414.59,241.773 415.082,241.773C415.328,241.773 415.573,242.019 415.819,242.264C415.819,242.51 416.065,242.755 416.065,242.755L416.065,245.704C416.311,246.441 416.556,247.424 416.802,248.161C417.785,249.881 419.014,251.11 420.242,252.584C423.191,255.287 426.385,257.499 429.826,259.465L430.072,259.711L430.072,259.957C430.075,260.201 429.829,260.447 429.584,260.201Z" style="fill:rgb(49,50,61);fill-rule:nonzero;"/>
                <path id="Shape_4_" d="M469.392,193.116C469.392,211.055 463.249,214.986 453.174,213.266C448.259,212.283 443.099,212.283 438.184,213.02C427.617,214.74 420.491,210.317 420.491,194.098C420.491,180.828 431.058,169.77 444.327,169.525C450.716,169.279 457.105,171.737 461.774,176.16C466.689,180.583 469.392,186.727 469.392,193.116Z" style="fill:white;fill-rule:nonzero;"/>
                <path id="Shape_5_" d="M469.392,193.116C469.392,211.055 463.249,214.986 453.174,213.266C448.259,212.283 443.099,212.283 438.184,213.02C427.617,214.74 420.491,210.317 420.491,194.098C420.491,180.828 431.058,169.77 444.327,169.525C450.716,169.279 457.105,171.737 461.774,176.16C466.689,180.583 469.392,186.727 469.392,193.116Z" style="fill:none;stroke:rgb(49,50,61);stroke-width:1.47px;"/>
                <path id="Shape_6_" d="M521.242,189.921C521.242,207.86 527.385,211.791 537.46,210.071C542.375,209.088 547.535,209.088 552.45,209.825C563.017,211.545 570.143,207.122 570.143,190.903C570.143,177.633 559.576,166.575 546.307,166.33C539.918,166.084 533.529,168.542 528.86,172.965C523.945,177.143 521.242,183.286 521.242,189.921Z" style="fill:white;fill-rule:nonzero;"/>
                <path id="Shape_7_" d="M521.242,189.921C521.242,207.86 527.385,211.791 537.46,210.071C542.375,209.088 547.535,209.088 552.45,209.825C563.017,211.545 570.143,207.122 570.143,190.903C570.143,177.633 559.576,166.575 546.307,166.33C539.918,166.084 533.529,168.542 528.86,172.965C523.945,177.143 521.242,183.286 521.242,189.921Z" style="fill:none;stroke:rgb(49,50,61);stroke-width:1.47px;"/>
                <path id="Shape_8_" d="M506.744,225.798C506.744,225.798 507.481,240.051 499.126,241.033C486.102,242.262 488.314,228.993 488.314,228.993C488.314,228.993 491.754,235.382 495.932,234.153C502.812,232.433 506.744,225.798 506.744,225.798Z" style="fill:white;fill-rule:nonzero;"/>
                <path id="Shape_9_" d="M487.823,229.976C487.823,229.976 487.577,237.594 497.161,237.594C506.745,237.594 506.99,224.324 506.99,224.324L495.441,217.935L487.823,229.976Z" style="fill:white;fill-rule:nonzero;"/>
                <path id="Shape_10_" d="M495.932,218.672L497.406,230.221" style="fill:none;stroke:rgb(44,47,49);stroke-width:3.69px;"/>
                <path id="Shape_11_" d="M497.406,215.969C502.812,222.112 510.184,226.044 518.293,227.027C519.276,227.273 520.259,227.027 521.488,227.273L522.962,227.273L524.436,227.027C525.419,226.781 526.402,226.781 527.631,226.781L530.58,226.044C531.071,225.798 531.563,225.798 532.054,225.798L533.528,225.307L536.477,224.324C538.443,223.587 540.163,222.604 542.129,221.621L542.375,221.621C542.375,221.621 542.621,221.621 542.621,221.867C542.621,222.113 542.621,222.113 542.375,222.358C540.409,223.341 538.689,224.324 536.723,225.307L533.774,226.536L532.3,227.027C531.809,227.273 531.317,227.273 530.826,227.518L527.631,228.255C526.648,228.501 525.419,228.501 524.436,228.746L522.717,228.993L521.488,228.993C520.505,228.993 519.276,228.993 518.293,228.993C509.447,228.502 501.337,224.57 495.194,217.935C494.703,217.444 494.703,216.461 495.194,215.969C495.932,215.232 496.669,215.232 497.406,215.969Z" style="fill:rgb(49,50,61);fill-rule:nonzero;"/>
                <path id="Shape_12_" d="M446.785,231.45C451.454,233.907 456.123,235.627 461.283,236.365C466.198,237.348 471.358,237.348 476.273,235.874C478.73,235.137 480.942,234.154 482.908,232.679C484.874,231.205 486.84,229.484 488.314,227.519L489.543,226.045C489.789,225.554 490.28,225.062 490.526,224.571C491.263,223.588 491.755,222.359 492.246,221.376C492.737,220.147 493.229,219.164 493.72,217.936C494.211,216.708 494.211,215.479 495.44,214.496C495.931,214.005 496.669,214.25 496.914,214.496C497.16,214.742 497.16,214.742 497.16,214.987C497.406,216.461 496.669,217.69 496.177,218.919C495.686,220.148 495.194,221.376 494.457,222.605C493.966,223.834 493.228,225.062 492.491,226.045C492,226.536 491.754,227.274 491.262,227.765L490.033,229.239C488.313,231.205 486.347,233.171 484.135,234.645C481.923,236.119 479.466,237.348 476.763,237.84C471.603,239.069 466.196,239.069 461.036,237.84C455.876,236.611 450.961,234.645 446.538,231.942L446.538,231.696L446.538,231.45C446.294,231.45 446.539,231.45 446.785,231.45Z" style="fill:rgb(49,50,61);fill-rule:nonzero;"/>
                <path id="Shape_13_" d="M483.399,212.529C482.908,211.546 483.153,210.317 483.89,209.58C485.364,207.86 488.805,205.157 495.685,204.42C502.32,203.929 505.76,205.894 507.48,207.369C508.217,208.106 508.463,209.335 508.217,210.318C507.726,211.792 506.497,212.775 505.022,212.775C502.565,213.021 500.353,214.249 499.124,216.215C499.124,216.461 498.878,216.461 498.878,216.706C498.141,217.443 497.404,217.689 496.421,217.689C495.438,217.689 494.701,217.443 493.964,216.706C493.964,216.706 492.49,214.494 487.329,214.494C485.365,214.74 484.137,213.757 483.399,212.529ZM515.099,215.969C525.42,213.757 535.986,212.774 546.307,213.02C551.467,213.266 556.874,213.511 562.034,214.494C564.491,214.985 567.194,215.231 569.652,215.968C570.881,216.214 572.109,216.459 573.584,216.951L577.516,217.934C587.591,220.883 597.175,225.06 606.267,230.466C615.359,235.872 623.468,242.261 630.84,249.633C623.468,242.261 615.113,235.872 606.021,230.712C596.929,225.552 587.345,221.374 577.27,218.917L573.584,217.934C572.355,217.688 571.127,217.443 569.652,217.197C567.195,216.706 564.492,216.214 562.034,215.968C556.874,215.231 551.713,214.985 546.553,214.739C536.232,214.739 525.911,215.722 515.591,218.179C515.345,218.179 514.854,218.179 514.608,217.933C514.362,217.687 514.362,217.442 514.362,216.95C514.607,216.215 514.853,215.969 515.099,215.969ZM479.468,223.095C476.273,222.604 472.833,222.358 469.639,222.358C466.444,222.358 463.004,222.604 459.81,223.095C453.175,224.078 446.786,226.044 441.134,229.238C435.236,232.433 430.076,236.61 425.653,241.525C421.23,246.685 417.79,252.337 415.332,258.726C417.544,252.337 420.984,246.439 425.161,241.279C429.338,236.119 434.745,231.695 440.642,228.501C446.54,225.306 452.929,222.849 459.564,221.866C463.004,221.375 466.199,220.883 469.639,220.883C473.079,220.883 476.52,220.883 479.714,221.374C479.96,221.374 480.205,221.62 480.451,221.62C480.697,221.866 480.697,222.111 480.697,222.357C480.697,222.603 480.451,222.848 480.451,223.094C479.959,223.095 479.713,223.341 479.468,223.095Z" style="fill:rgb(49,50,61);fill-rule:nonzero;"/>
                <path id="Shape_14_" d="M359.795,252.337C367.167,245.456 375.276,239.559 383.877,234.398C388.3,231.941 392.723,229.483 397.392,227.517C420.491,217.196 446.293,213.51 471.358,217.196C471.604,217.196 472.095,217.442 472.095,217.687C472.341,217.933 472.095,218.424 471.849,218.67C471.603,218.916 471.358,219.161 470.866,218.916C450.962,215.721 430.811,217.196 411.398,222.848C406.729,224.322 401.814,226.043 397.391,228.008C392.722,229.974 388.299,232.185 383.876,234.643C375.522,239.805 367.167,245.703 359.795,252.337ZM519.768,210.563L548.027,207.123C552.696,206.632 557.365,205.894 562.28,205.649C576.533,205.158 590.785,208.106 603.809,214.495C612.164,218.918 620.765,223.341 629.12,227.519C620.519,223.342 612.164,218.918 603.564,214.741C594.963,210.809 585.871,208.352 576.288,207.123C571.619,206.632 566.95,206.386 562.281,206.632C557.612,206.878 552.943,207.615 548.274,208.352L520.015,212.284C519.769,212.284 519.524,212.284 519.278,212.038C519.032,211.792 519.032,211.547 519.032,211.301C518.785,211.054 519.276,210.563 519.768,210.563ZM476.764,227.273C473.324,226.536 469.883,226.536 466.443,227.273C463.003,228.256 460.054,230.222 457.597,232.925C455.385,235.628 453.911,239.068 453.174,242.509C452.683,246.195 452.928,249.881 453.911,253.321C452.682,249.635 452.437,245.949 452.682,242.509C453.173,238.823 454.402,235.383 456.859,232.434C459.071,229.485 462.265,227.274 465.951,226.045C469.637,225.062 473.323,224.816 477.009,225.554C477.5,225.554 477.746,226.045 477.746,226.783C477.746,227.029 477.5,227.274 477.255,227.274C477.256,227.273 477.01,227.273 476.764,227.273ZM519.768,219.409C523.7,218.672 527.631,218.918 531.317,220.146C535.003,221.375 538.443,223.586 540.901,226.535C543.359,229.484 545.078,233.17 545.324,237.102C545.57,240.788 545.078,244.72 543.604,248.16C544.833,244.72 545.324,240.788 544.833,237.102C544.342,233.416 542.621,229.976 540.164,227.273C537.707,224.57 534.512,222.604 530.826,221.621C527.386,220.638 523.454,220.638 520.014,221.375C519.768,221.375 519.523,221.375 519.277,221.375C519.031,221.129 519.031,221.129 518.786,220.884C519.031,220.146 519.276,219.655 519.768,219.409Z" style="fill:rgb(49,50,61);fill-rule:nonzero;"/>
                <path id="Shape_15_" d="M486.102,254.303C486.102,254.303 487.576,267.818 499.126,266.835C510.184,265.852 510.675,252.828 510.675,252.828C508.218,256.514 504.286,258.726 499.863,259.217C492.737,259.71 486.102,254.303 486.102,254.303Z" style="fill:white;fill-rule:nonzero;"/>
                <path id="Shape_16_" d="M511.167,252.092C510.921,253.321 510.43,254.795 509.693,255.778C508.956,257.007 507.973,257.99 506.744,258.727C505.515,259.464 504.287,260.201 503.058,260.693C501.829,261.184 500.355,261.43 498.881,261.43C496.178,261.43 493.475,260.939 491.018,259.464C488.561,258.235 486.595,256.269 485.366,253.812L485.366,253.566C485.366,253.566 485.366,253.32 485.612,253.32C485.858,253.32 486.103,253.32 486.103,253.32C487.823,255.04 489.789,256.269 492.001,257.252C494.213,257.989 496.424,258.481 498.882,258.481C501.094,258.481 503.305,257.744 505.271,256.515C506.254,256.024 507.237,255.286 507.974,254.303C508.711,253.32 509.448,252.583 510.186,251.354L510.432,251.108L510.678,251.108C510.921,251.846 511.167,252.092 511.167,252.092Z" style="fill:rgb(49,50,61);fill-rule:nonzero;"/>
                <circle id="Oval_2_" cx="447.031" cy="187.955" r="15.235" style="fill:rgb(155,155,155);"/>
                <circle id="Oval_3_" cx="446.539" cy="188.201" r="11.058" style="fill:rgb(49,50,61);"/>
                <circle id="Oval_4_" cx="452.683" cy="179.6" r="5.898" style="fill:white;"/>
                <circle id="Oval_5_" cx="543.604" cy="184.515" r="15.235" style="fill:rgb(155,155,155);"/>
                <circle id="Oval_6_" cx="543.85" cy="184.761" r="11.058" style="fill:rgb(49,50,61);"/>
                <circle id="Oval_7_" cx="552.696" cy="176.16" r="5.898" style="fill:white;"/>
            </g>
        </g>
    </g>
    <g id="BTC" transform="matrix(1,0,0,1,1,0)">
        <path id="Fill-504" d="M319.437,212.3C319.437,300.027 248.174,371.29 160.447,371.29C72.72,371.29 1.703,300.027 1.703,212.3C1.703,124.573 72.966,53.31 160.693,53.31C248.42,53.31 319.437,124.573 319.437,212.3" style="fill:rgb(227,227,227);fill-rule:nonzero;"/>
        <g id="fi-bitcoin" transform="matrix(2.68787,0.728931,-0.728931,2.68787,70.8721,38.9317)">
            <path d="M66.237,47.445C69.904,45.576 72.196,42.283 71.658,36.801C70.935,29.307 64.465,26.798 56.298,26.086L56.294,17.028C56.296,16.999 56.311,16.974 56.311,16.944C56.311,16.253 55.751,15.694 55.06,15.693L51.247,15.693C50.562,15.694 49.998,16.258 49.998,16.943L49.969,16.943L49.974,25.815C48.31,25.815 46.61,25.848 44.922,25.883L44.919,17.053C44.922,17.015 44.941,16.982 44.941,16.943C44.941,16.252 44.381,15.693 43.69,15.692L39.877,15.692C39.192,15.693 38.628,16.257 38.628,16.942L38.629,16.945L38.598,16.945L38.6,26.088C37.23,26.116 35.885,26.145 34.573,26.145L34.572,26.112L25.846,26.112L25.846,26.125L25.845,26.125C25.159,26.125 24.595,26.689 24.595,27.375L24.595,31.602C24.595,32.293 25.155,32.853 25.846,32.853L25.851,32.852L25.851,32.871C25.851,32.871 30.523,32.78 30.445,32.863C33.007,32.864 33.842,34.351 34.085,35.634L34.09,47.477L34.091,47.522L34.096,64.109C33.984,64.915 33.51,66.202 31.72,66.205C31.801,66.276 27.121,66.204 27.121,66.204L27.12,66.21C27.112,66.21 27.106,66.205 27.098,66.205C26.497,66.205 26.019,66.637 25.898,67.202L25.847,67.199L24.695,72.368L24.722,72.373C24.717,72.419 24.695,72.459 24.695,72.507C24.695,73.171 25.217,73.702 25.871,73.743L25.868,73.762L34.101,73.759C35.633,73.759 37.141,73.784 38.621,73.793L38.628,83.055L38.631,83.055C38.631,83.745 39.191,84.305 39.882,84.305L43.695,84.305C44.381,84.304 44.944,83.74 44.944,83.054L44.946,83.054L44.942,73.905C46.677,73.94 48.356,73.953 49.996,73.949L49.998,83.055L50.001,83.055C50.002,83.745 50.561,84.305 51.251,84.305L55.064,84.305C55.75,84.304 56.313,83.74 56.313,83.054L56.313,83.053L56.321,83.053L56.319,73.806C66.954,73.191 74.398,70.509 75.318,60.52C76.06,52.479 72.275,48.891 66.237,47.445ZM45.072,33.32C48.643,33.318 59.861,32.178 59.865,39.632C59.866,46.78 48.647,45.95 45.076,45.952L45.072,33.32ZM45.083,66.255L45.08,52.326C49.368,52.326 62.813,51.088 62.816,59.281C62.822,67.137 49.371,66.248 45.083,66.255Z" style="fill:rgb(44,47,49);fill-rule:nonzero;"/>
        </g>
    </g>
    <circle id="Oval-2-Copy" cx="1274.13" cy="215.249" r="160.956" style="fill:rgb(227,227,227);"/>
    <path id="Fill-10" d="M1341.95,123.099L1253.98,211.072C1252.51,212.546 1252.51,215.004 1253.98,216.724L1263.07,225.816C1264.55,227.29 1264.55,229.748 1263.07,231.468L1246.12,248.424C1244.64,249.898 1242.18,249.898 1240.46,248.424L1208.52,216.479C1207.04,215.005 1207.04,212.302 1208.52,210.827L1297.72,123.1L1251.03,123.1L1261.84,133.912C1263.32,135.386 1263.32,138.089 1261.84,139.564L1244.64,156.274C1243.17,157.748 1240.71,157.748 1238.99,156.274L1206.31,123.1L1188.61,123.1C1184.93,123.1 1181.98,126.049 1181.98,129.735L1181.98,301.011C1181.98,304.697 1184.93,307.646 1188.61,307.646L1205.32,307.646L1294.52,218.445C1296,216.971 1296,214.513 1294.52,212.793L1285.43,203.701C1283.96,202.227 1283.96,199.769 1285.43,198.049L1302.39,181.093C1303.86,179.619 1306.32,179.619 1308.04,181.093L1339.99,213.038C1341.46,214.512 1341.46,217.215 1339.99,218.69L1249.31,307.4L1297.96,307.4L1286.17,295.605C1284.69,294.131 1284.69,291.428 1286.17,289.953L1303.37,273.243C1304.84,271.769 1307.3,271.769 1309.02,273.243L1342.93,307.154L1359.64,307.4C1363.33,307.4 1366.28,304.451 1366.28,300.765L1366.28,129.733C1366.28,126.047 1363.33,123.098 1359.64,123.098L1341.95,123.098L1341.95,123.099Z" style="fill:rgb(44,47,49);fill-rule:nonzero;"/>
    <path id="Fungible-tokens" d="M45.952,467.126L45.952,432.723L69.051,432.723L69.051,438.375L51.604,438.375L51.604,446.73L64.136,446.73L64.136,452.382L51.604,452.382L51.604,467.372L45.952,467.372L45.952,467.126ZM86.007,467.617C83.304,467.617 81.092,466.88 79.126,465.16C77.16,463.44 76.423,460.983 76.423,457.297L76.423,442.062L82.075,442.062L82.075,456.069C82.075,460.246 83.795,462.212 87.235,462.212C90.921,462.212 92.887,460.246 92.887,456.069L92.887,441.816L98.539,441.816L98.539,467.127L92.887,467.127L92.887,464.67C91.413,466.634 89.201,467.617 86.007,467.617ZM119.672,441.324C122.375,441.324 124.587,442.061 126.307,443.781C128.027,445.501 128.764,447.958 128.764,451.644L128.764,466.88L123.112,466.88L123.112,452.627C123.112,450.415 122.621,448.941 121.638,447.958C120.655,446.975 119.426,446.484 117.952,446.484C114.266,446.484 112.3,448.45 112.3,452.627L112.3,466.88L106.648,466.88L106.648,441.815L111.808,441.815L111.808,445.01C112.299,444.027 113.282,443.29 114.757,442.553C116.478,441.815 117.952,441.324 119.672,441.324ZM146.703,477.201L143.754,472.532C147.194,472.286 149.652,471.795 151.126,470.812C152.355,470.075 153.092,468.6 153.092,466.88L153.092,465.406C151.863,466.88 149.897,467.618 147.194,467.618C143.999,467.618 141.542,466.389 139.576,464.178C137.61,461.966 136.627,458.772 136.627,454.349C136.627,450.417 137.61,447.223 139.576,444.765C141.542,442.308 143.999,441.325 147.194,441.325C149.651,441.325 151.617,442.062 152.846,443.537L152.846,442.063L158.498,442.063L158.498,464.425C158.498,468.602 157.515,471.797 155.795,473.763C154.075,475.727 151.126,476.709 146.703,477.201ZM148.177,462.211C150.389,462.211 151.863,461.474 153.092,459.754L153.092,449.187C151.863,447.467 150.389,446.73 148.177,446.73C146.211,446.73 144.982,447.467 144,448.696C143.018,449.925 142.526,451.891 142.526,454.594C142.526,457.051 143.017,458.771 144,460.246C144.983,461.72 146.212,462.211 148.177,462.211ZM178.648,438.621C177.665,438.621 176.928,438.375 176.191,437.638C175.454,436.901 175.208,436.164 175.208,435.181C175.208,434.198 175.454,433.461 176.191,432.724C176.928,431.987 177.665,431.741 178.648,431.741C179.631,431.741 180.368,431.987 181.105,432.724C181.842,433.461 182.088,434.198 182.088,435.181C182.088,436.164 181.842,436.901 181.105,437.638C180.614,438.129 179.631,438.621 178.648,438.621ZM181.597,462.211L188.478,462.211L188.478,467.126L169.065,467.126L169.065,462.211L175.946,462.211L175.946,446.976L169.065,446.976L169.065,442.061L181.597,442.061L181.597,462.211ZM210.102,467.617C207.399,467.617 205.187,466.88 203.713,465.16L203.713,467.126L198.061,467.126L198.061,434.198L203.713,431.495L203.713,443.782C204.45,443.045 205.433,442.308 206.662,441.816C207.891,441.324 209.119,441.079 210.348,441.079C213.543,441.079 216,442.308 217.966,444.519C219.932,446.731 220.915,450.171 220.915,454.103C220.915,458.28 219.932,461.475 217.966,463.932C216,466.389 213.297,467.617 210.102,467.617ZM209.119,462.211C211.085,462.211 212.559,461.474 213.542,460.245C214.525,458.771 215.016,457.05 215.016,454.593C215.016,452.136 214.525,450.17 213.542,448.695C212.559,447.466 211.085,446.729 209.119,446.729C207.89,446.729 206.662,446.975 205.679,447.466C204.696,447.957 203.959,448.449 203.467,449.186L203.467,459.753C204.942,461.474 206.662,462.211 209.119,462.211ZM241.802,462.211L249.174,462.211L249.174,467.126L228.778,467.126L228.778,462.211L236.15,462.211L236.15,436.655L230.252,436.655L227.549,431.74L241.556,431.74L241.556,462.211L241.802,462.211ZM280.874,453.365C280.874,454.839 280.874,456.068 280.628,456.805L263.427,456.805C263.673,458.525 264.41,460 265.639,461.228C266.622,462.211 268.096,462.702 269.816,462.702C272.028,462.702 273.748,461.965 275.468,460.245L278.908,463.931C276.451,466.634 273.502,467.863 269.816,467.863C266.13,467.863 263.181,466.634 260.97,464.177C258.759,461.72 257.775,458.525 257.775,454.593C257.775,450.416 258.758,447.221 260.97,445.009C263.182,442.797 266.13,441.569 269.816,441.569C273.011,441.569 275.714,442.552 277.679,444.518C279.891,446.484 280.874,449.433 280.874,453.365ZM263.427,451.89L275.222,451.89C274.976,450.17 274.485,448.695 273.502,447.713C272.519,446.73 271.29,446.239 269.816,446.239C268.096,446.239 266.621,446.73 265.393,447.713C264.41,448.942 263.672,450.17 263.427,451.89ZM89.939,531.508C85.024,531.508 82.567,529.296 82.567,524.627L82.567,510.62L77.407,510.62L77.407,505.705L82.567,505.705L82.567,498.087L88.219,495.384L88.219,505.705L96.82,505.705L96.82,510.62L88.219,510.62L88.219,523.398C88.219,525.364 89.448,526.347 91.659,526.347C93.133,526.347 94.362,525.856 96.082,525.118L95.345,530.278C94.116,531.262 92.15,531.508 89.939,531.508ZM117.952,531.508C114.266,531.508 111.317,530.279 109.106,528.068C106.894,525.856 105.911,522.416 105.911,518.484C105.911,514.552 106.894,511.358 109.106,508.9C111.318,506.443 114.266,505.214 117.952,505.214C121.638,505.214 124.587,506.443 126.798,508.9C129.01,511.357 129.993,514.552 129.993,518.484C129.993,522.416 129.01,525.61 126.798,528.068C124.587,530.525 121.638,531.508 117.952,531.508ZM117.952,526.102C119.918,526.102 121.638,525.365 122.621,524.136C123.604,522.662 124.341,520.941 124.341,518.484C124.341,516.027 123.85,514.307 122.621,512.832C121.638,511.358 119.918,510.62 117.952,510.62C115.986,510.62 114.512,511.357 113.283,512.832C112.054,514.306 111.563,516.027 111.563,518.484C111.563,520.941 112.054,522.661 113.283,524.136C114.512,525.611 115.986,526.102 117.952,526.102ZM154.075,531.017L146.949,517.256L143.263,520.942L143.263,531.263L137.611,531.263L137.611,498.335L143.263,495.632L143.263,514.554L152.109,505.953L158.744,505.953L151.126,513.325L160.218,531.264L154.075,531.264L154.075,531.017ZM189.952,517.256C189.952,518.73 189.952,519.959 189.706,520.696L172.505,520.696C172.751,522.416 173.488,523.891 174.717,525.119C175.946,526.347 177.174,526.593 178.894,526.593C181.106,526.593 182.826,525.856 184.546,524.136L187.986,527.822C185.529,530.525 182.58,531.754 178.894,531.754C175.208,531.754 172.259,530.525 170.048,528.068C167.837,525.611 166.853,522.416 166.853,518.484C166.853,514.307 167.836,511.112 170.048,508.9C172.26,506.688 175.208,505.46 178.894,505.46C182.089,505.46 184.792,506.443 186.757,508.409C188.969,510.375 189.952,513.324 189.952,517.256ZM172.751,515.781L184.546,515.781C184.3,514.061 183.809,512.586 182.826,511.604C181.843,510.621 180.614,510.13 179.14,510.13C177.42,510.13 175.945,510.621 174.717,511.604C173.734,512.832 172.997,514.061 172.751,515.781ZM210.594,505.215C213.297,505.215 215.509,505.952 217.229,507.672C218.949,509.392 219.932,511.849 219.932,515.535L219.932,530.771L214.28,530.771L214.28,516.518C214.28,514.306 213.789,512.832 212.806,511.849C211.823,510.866 210.594,510.375 209.12,510.375C205.434,510.375 203.468,512.341 203.468,516.518L203.468,530.771L197.816,530.771L197.816,505.706L202.976,505.706L202.976,508.901C203.467,507.918 204.45,507.181 205.925,506.444C207.4,505.707 208.874,505.215 210.594,505.215ZM239.345,531.508C237.133,531.508 235.168,531.017 233.447,530.279C231.726,529.541 230.252,528.313 229.024,527.084L232.71,523.644C234.676,525.61 237.133,526.593 239.591,526.593C240.82,526.593 241.803,526.347 242.54,525.856C243.277,525.365 243.769,524.873 243.769,523.89C243.769,523.399 243.523,522.907 243.032,522.416C242.541,521.925 242.049,521.679 241.312,521.433C240.575,521.187 239.838,520.696 238.609,520.204C238.363,520.204 238.363,520.204 238.363,519.958L238.117,519.958C237.871,519.958 237.871,519.958 237.871,519.712C236.642,519.221 235.659,518.729 235.168,518.483C234.677,518.237 233.939,517.746 232.956,517.254C232.219,516.763 231.482,516.271 231.236,515.78C230.745,515.289 230.499,514.797 230.253,514.06C230.007,513.323 229.762,512.586 229.762,511.603C229.762,509.391 230.745,507.917 232.465,506.443C234.185,505.214 236.642,504.477 239.346,504.477C243.278,504.477 246.472,505.706 248.684,508.409L244.998,511.604C243.278,510.13 241.312,509.392 239.1,509.392C237.871,509.392 236.888,509.638 236.151,509.883C235.414,510.374 234.922,510.866 234.922,511.603C234.922,511.849 235.168,512.34 235.413,512.586C235.658,512.832 236.15,513.323 236.887,513.569C237.624,513.815 238.116,514.06 238.607,514.306C239.098,514.552 239.836,514.797 240.819,515.043C243.768,516.272 245.734,517.255 246.717,517.992C248.437,519.466 249.42,521.187 249.42,523.398C249.42,525.61 248.437,527.575 246.717,528.804C244.505,531.017 242.294,531.508 239.345,531.508Z" style="fill:rgb(44,47,49);fill-rule:nonzero;"/>
    <path id="Non-fungible-tokens" d="M540.86,467.126L540.86,432.723L546.512,432.723L557.324,453.856C557.815,454.839 558.307,455.576 558.553,456.313C558.553,455.084 558.553,454.347 558.553,453.856L558.553,432.723L563.959,432.723L563.959,467.126L558.553,467.126L547.741,445.747C547.25,444.764 546.758,444.027 546.512,443.29C546.512,443.781 546.758,444.519 546.758,445.747L546.758,467.126L540.86,467.126ZM582.635,467.617C578.949,467.617 576,466.388 573.789,464.177C571.577,461.965 570.594,458.525 570.594,454.593C570.594,450.661 571.577,447.467 573.789,445.009C576.001,442.551 578.949,441.323 582.635,441.323C586.321,441.323 589.27,442.552 591.481,445.009C593.692,447.466 594.676,450.661 594.676,454.593C594.676,458.525 593.693,461.719 591.481,464.177C589.269,466.635 586.321,467.617 582.635,467.617ZM582.635,462.211C584.601,462.211 586.321,461.474 587.304,460.245C588.287,458.771 589.024,457.05 589.024,454.593C589.024,452.136 588.533,450.416 587.304,448.941C586.075,447.467 584.601,446.729 582.635,446.729C580.669,446.729 579.195,447.466 577.966,448.941C576.737,450.415 576.246,452.136 576.246,454.593C576.246,457.05 576.737,458.77 577.966,460.245C579.195,461.72 580.423,462.211 582.635,462.211ZM614.58,441.324C617.283,441.324 619.495,442.061 621.215,443.781C622.935,445.501 623.918,447.958 623.918,451.644L623.918,466.88L618.266,466.88L618.266,452.627C618.266,450.415 617.775,448.941 616.792,447.958C615.809,446.975 614.58,446.484 613.106,446.484C609.42,446.484 607.454,448.45 607.454,452.627L607.454,466.88L601.802,466.88L601.802,441.815L606.962,441.815L606.962,445.01C607.453,444.027 608.436,443.29 609.911,442.553C611.386,441.816 612.86,441.324 614.58,441.324ZM631.536,455.331L631.536,449.925L654.635,449.925L654.635,455.331L631.536,455.331ZM679.208,437.146C677.979,437.146 676.996,437.392 676.259,437.883C675.522,438.374 675.03,438.866 675.03,439.849L675.03,442.306L683.385,442.306L683.385,447.221L675.03,447.221L675.03,462.456L681.665,462.456L681.665,467.371L663.972,467.371L663.972,462.456L669.378,462.456L669.378,447.221L663.972,447.221L663.972,442.306L669.378,442.306L669.378,438.866C669.378,436.409 670.115,434.934 671.835,433.951C673.555,432.968 675.521,432.477 677.978,432.477C680.435,432.477 682.401,432.968 683.876,433.706L683.876,438.375C682.648,437.392 681.174,437.146 679.208,437.146ZM702.061,467.617C699.358,467.617 697.146,466.88 695.181,465.16C693.215,463.44 692.478,460.983 692.478,457.297L692.478,442.062L698.13,442.062L698.13,456.069C698.13,460.246 699.85,462.212 703.29,462.212C706.976,462.212 708.942,460.246 708.942,456.069L708.942,441.816L714.594,441.816L714.594,467.127L708.942,467.127L708.942,464.67C707.468,466.634 705.01,467.617 702.061,467.617ZM735.727,441.324C738.43,441.324 740.642,442.061 742.362,443.781C744.082,445.501 745.065,447.958 745.065,451.644L745.065,466.88L739.413,466.88L739.413,452.627C739.413,450.415 738.921,448.941 737.939,447.958C736.956,446.975 735.727,446.484 734.253,446.484C730.567,446.484 728.601,448.45 728.601,452.627L728.601,466.88L722.949,466.88L722.949,441.815L728.109,441.815L728.109,445.01C728.601,444.027 729.583,443.29 731.058,442.553C732.287,441.815 734.007,441.324 735.727,441.324ZM762.758,477.201L759.809,472.532C763.249,472.286 765.707,471.795 766.935,470.812C768.164,470.075 768.901,468.6 768.901,466.88L768.901,465.406C767.672,466.88 765.706,467.618 763.003,467.618C759.808,467.618 757.351,466.389 755.385,464.178C753.419,461.966 752.436,458.772 752.436,454.349C752.436,450.417 753.419,447.223 755.385,444.765C757.351,442.308 759.808,441.325 763.003,441.325C765.46,441.325 767.426,442.062 768.655,443.537L768.655,442.063L774.307,442.063L774.307,464.425C774.307,468.602 773.324,471.797 771.604,473.763C770.13,475.727 766.935,476.709 762.758,477.201ZM763.986,462.211C766.198,462.211 767.672,461.474 768.901,459.754L768.901,449.187C767.672,447.467 766.198,446.73 763.986,446.73C762.02,446.73 760.791,447.467 759.809,448.696C758.826,449.925 758.335,451.891 758.335,454.594C758.335,457.051 758.827,458.771 759.809,460.246C760.792,461.72 762.266,462.211 763.986,462.211ZM794.703,438.621C793.72,438.621 792.983,438.375 792.246,437.638C791.509,436.901 791.263,436.164 791.263,435.181C791.263,434.198 791.509,433.461 792.246,432.724C792.983,431.987 793.72,431.741 794.703,431.741C795.686,431.741 796.423,431.987 797.16,432.724C797.897,433.461 798.143,434.198 798.143,435.181C798.143,436.164 797.897,436.901 797.16,437.638C796.423,438.129 795.686,438.621 794.703,438.621ZM797.406,462.211L804.286,462.211L804.286,467.126L784.873,467.126L784.873,462.211L791.753,462.211L791.753,446.976L784.873,446.976L784.873,442.061L797.405,442.061L797.405,462.211L797.406,462.211ZM825.911,467.617C823.208,467.617 820.996,466.88 819.522,465.16L819.522,467.126L813.87,467.126L813.87,434.198L819.522,431.495L819.522,443.782C820.259,443.045 821.242,442.308 822.471,441.816C823.7,441.325 824.928,441.079 826.157,441.079C829.351,441.079 831.809,442.308 833.775,444.519C835.741,446.976 836.724,450.171 836.724,454.103C836.724,458.28 835.741,461.475 833.775,463.932C831.809,466.634 829.352,467.617 825.911,467.617ZM825.174,462.211C827.14,462.211 828.614,461.474 829.597,460.245C830.58,458.771 831.071,457.05 831.071,454.593C831.071,452.136 830.58,450.17 829.597,448.695C828.614,447.466 827.14,446.729 825.174,446.729C823.945,446.729 822.717,446.975 821.734,447.466C820.751,447.957 820.014,448.449 819.522,449.186L819.522,459.753C820.751,461.474 822.717,462.211 825.174,462.211ZM857.857,462.211L865.229,462.211L865.229,467.126L844.833,467.126L844.833,462.211L852.205,462.211L852.205,436.655L846.307,436.655L843.604,431.74L857.611,431.74L857.611,462.211L857.857,462.211ZM896.683,453.365C896.683,454.839 896.683,456.068 896.437,456.805L879.236,456.805C879.482,458.525 880.219,460 881.448,461.228C882.431,462.211 883.905,462.702 885.626,462.702C887.838,462.702 889.558,461.965 891.278,460.245L894.718,463.931C892.261,466.634 889.312,467.863 885.626,467.863C881.94,467.863 878.991,466.634 876.78,464.177C874.568,461.72 873.586,458.525 873.586,454.593C873.586,450.416 874.569,447.221 876.78,445.009C878.992,442.797 881.94,441.569 885.626,441.569C888.821,441.569 891.524,442.552 893.49,444.518C895.7,446.484 896.683,449.433 896.683,453.365ZM879.481,451.89L891.276,451.89C891.03,450.17 890.539,448.695 889.556,447.713C888.573,446.73 887.344,446.239 885.87,446.239C884.15,446.239 882.675,446.73 881.447,447.713C880.464,448.942 879.727,450.17 879.481,451.89ZM645.297,531.508C640.382,531.508 637.925,529.296 637.925,524.627L637.925,510.62L632.765,510.62L632.765,505.705L637.925,505.705L637.925,498.087L643.577,495.384L643.577,505.705L652.178,505.705L652.178,510.62L643.577,510.62L643.577,523.398C643.577,525.364 644.806,526.347 647.017,526.347C648.491,526.347 649.72,525.856 651.44,525.118L650.703,530.278C649.474,531.262 647.509,531.508 645.297,531.508ZM673.311,531.508C669.625,531.508 666.676,530.279 664.465,528.068C662.253,525.856 661.271,522.416 661.271,518.484C661.271,514.552 662.254,511.358 664.465,508.9C666.677,506.443 669.625,505.214 673.311,505.214C676.997,505.214 679.946,506.443 682.157,508.9C684.369,511.357 685.352,514.552 685.352,518.484C685.352,522.416 684.369,525.61 682.157,528.068C679.945,530.525 676.997,531.508 673.311,531.508ZM673.311,526.102C675.277,526.102 676.997,525.365 677.98,524.136C678.963,522.662 679.7,520.941 679.7,518.484C679.7,516.027 679.209,514.307 677.98,512.832C676.997,511.358 675.277,510.62 673.311,510.62C671.345,510.62 669.871,511.357 668.642,512.832C667.413,514.306 666.922,516.027 666.922,518.484C666.922,520.941 667.413,522.661 668.642,524.136C669.87,525.611 671.345,526.102 673.311,526.102ZM709.433,531.017L702.307,517.256L698.621,520.942L698.621,531.263L692.969,531.263L692.969,498.335L698.621,495.632L698.621,514.554L707.467,505.953L714.102,505.953L706.484,513.325L715.576,531.264L709.433,531.264L709.433,531.017ZM745.311,517.256C745.311,518.73 745.311,519.959 745.065,520.696L727.864,520.696C728.11,522.416 728.847,523.891 730.076,525.119C731.059,526.102 732.533,526.593 734.253,526.593C736.465,526.593 738.185,525.856 739.905,524.136L743.345,527.822C740.888,530.525 737.939,531.754 734.253,531.754C730.567,531.754 727.618,530.525 725.407,528.068C723.196,525.611 722.212,522.416 722.212,518.484C722.212,514.307 723.195,511.112 725.407,508.9C727.619,506.688 730.567,505.46 734.253,505.46C737.448,505.46 740.151,506.443 742.117,508.409C744.328,510.375 745.311,513.324 745.311,517.256ZM728.109,515.781L739.904,515.781C739.658,514.061 739.167,512.586 738.184,511.604C737.201,510.621 735.972,510.13 734.498,510.13C732.778,510.13 731.304,510.621 730.075,511.604C729.092,512.832 728.355,514.061 728.109,515.781ZM765.952,505.215C768.655,505.215 770.867,505.952 772.587,507.672C774.307,509.392 775.29,511.849 775.29,515.535L775.29,530.771L769.638,530.771L769.638,516.518C769.638,514.306 769.147,512.832 768.164,511.849C767.181,510.866 765.952,510.375 764.478,510.375C760.792,510.375 758.826,512.341 758.826,516.518L758.826,530.771L753.174,530.771L753.174,505.706L758.334,505.706L758.334,508.901C758.825,507.918 759.808,507.181 761.283,506.444C762.758,505.706 764.232,505.215 765.952,505.215ZM794.703,531.508C792.491,531.508 790.526,531.017 788.805,530.279C787.084,529.541 785.61,528.313 784.382,527.084L788.068,523.644C790.034,525.61 792.491,526.593 794.948,526.593C796.177,526.593 797.16,526.347 797.897,525.856C798.634,525.365 799.126,524.873 799.126,523.89C799.126,523.399 798.88,522.907 798.389,522.416C797.898,521.925 797.406,521.679 796.669,521.433C795.932,521.187 795.195,520.696 793.966,520.204C793.72,520.204 793.72,520.204 793.72,519.958L793.474,519.958C793.228,519.958 793.228,519.958 793.228,519.712C791.999,519.221 791.016,518.729 790.525,518.483C790.033,518.237 789.296,517.746 788.313,517.254C787.576,516.763 786.839,516.271 786.593,515.78C786.101,515.289 785.856,514.797 785.61,514.06C785.364,513.323 785.119,512.586 785.119,511.603C785.119,509.391 786.102,507.917 787.822,506.443C789.542,505.214 791.999,504.477 794.703,504.477C798.635,504.477 801.829,505.706 804.041,508.409L800.355,511.604C798.635,510.13 796.669,509.392 794.457,509.392C793.228,509.392 792.245,509.638 791.508,509.883C790.771,510.374 790.279,510.866 790.279,511.603C790.279,511.849 790.525,512.34 790.771,512.586C791.017,512.832 791.508,513.323 792.245,513.569C792.982,513.815 793.474,514.06 793.965,514.306C794.456,514.552 795.194,514.797 796.177,515.043C799.126,516.272 801.092,517.255 802.075,517.992C803.795,519.466 804.778,521.187 804.778,523.398C804.778,525.61 803.795,527.575 802.075,528.804C800.355,530.034 797.652,531.508 794.703,531.508Z" style="fill:rgb(44,47,49);fill-rule:nonzero;"/>
    <g>
        <path d="M1228.33,457.44L1221.76,457.44L1215.23,445.44L1208.8,457.44L1202.22,457.44L1212.2,440.064L1202.89,423.84L1209.47,423.84L1215.28,434.592L1221.04,423.84L1227.61,423.84L1218.3,439.968L1228.33,457.44Z" style="fill:rgb(44,47,49);fill-rule:nonzero;"/>
        <path d="M1245.32,458.016C1241.87,458.016 1239.13,456.88 1237.12,454.608C1235.1,452.337 1234.09,449.201 1234.09,445.2C1234.09,441.233 1235.12,438.096 1237.19,435.792C1239.25,433.488 1242,432.337 1245.42,432.337C1250.64,432.337 1254,434.561 1255.5,439.009L1250.27,440.784C1249.44,438.64 1247.84,437.568 1245.47,437.568C1243.64,437.568 1242.23,438.256 1241.22,439.632C1240.21,441.008 1239.71,442.864 1239.71,445.199C1239.71,447.536 1240.21,449.375 1241.22,450.72C1242.23,452.064 1243.61,452.736 1245.37,452.736C1247.93,452.736 1249.61,451.536 1250.41,449.136L1255.64,450.768C1254.17,455.6 1250.73,458.016 1245.32,458.016Z" style="fill:rgb(44,47,49);fill-rule:nonzero;"/>
        <path d="M1285.6,443.952C1285.6,445.361 1285.53,446.48 1285.4,447.312L1268.7,447.312C1269.05,449.104 1269.76,450.52 1270.84,451.56C1271.91,452.6 1273.29,453.12 1274.99,453.12C1277.13,453.12 1278.94,452.321 1280.41,450.721L1283.72,454.225C1281.42,456.753 1278.49,458.017 1274.94,458.017C1271.32,458.017 1268.47,456.849 1266.37,454.513C1264.28,452.177 1263.23,449.057 1263.23,445.153C1263.23,441.185 1264.29,438.057 1266.4,435.769C1268.51,433.481 1271.36,432.337 1274.94,432.337C1278.08,432.337 1280.64,433.32 1282.62,435.288C1284.6,437.257 1285.6,440.144 1285.6,443.952ZM1268.65,442.608L1280.17,442.608C1280.01,440.816 1279.44,439.464 1278.47,438.552C1277.49,437.64 1276.32,437.184 1274.94,437.184C1273.18,437.184 1271.76,437.663 1270.69,438.623C1269.62,439.584 1268.94,440.913 1268.65,442.608Z" style="fill:rgb(44,47,49);fill-rule:nonzero;"/>
        <path d="M1310.36,432.337C1312.57,432.337 1314.49,432.769 1316.12,433.633L1316.12,442.704L1310.75,442.704L1310.75,437.473L1310.27,437.473C1307.74,437.473 1305.79,438.065 1304.41,439.248C1303.04,440.433 1302.35,442.209 1302.35,444.576L1302.35,452.593L1309.21,452.593L1309.21,457.441L1291.64,457.441L1291.64,452.593L1296.83,452.593L1296.83,437.761L1291.64,437.761L1291.64,432.912L1301.96,432.912L1301.96,436.849C1302.64,435.441 1303.74,434.337 1305.28,433.537C1306.81,432.737 1308.51,432.337 1310.36,432.337Z" style="fill:rgb(44,47,49);fill-rule:nonzero;"/>
        <path d="M1335.8,458.016C1331,458.016 1328.6,455.792 1328.6,451.344L1328.6,437.76L1323.47,437.76L1323.47,432.911L1328.6,432.911L1328.6,425.424L1334.12,422.783L1334.12,432.911L1342.48,432.911L1342.48,437.76L1334.12,437.76L1334.12,450.287C1334.12,452.176 1335.28,453.119 1337.58,453.119C1338.92,453.119 1340.33,452.735 1341.81,451.968L1341.13,456.911C1339.72,457.648 1337.95,458.016 1335.8,458.016Z" style="fill:rgb(44,47,49);fill-rule:nonzero;"/>
    </g>
</svg>
