<?xml version="1.0" encoding="utf-8"?>
<!-- Generator: Adobe Illustrator 17.0.0, SVG Export Plug-In . SVG Version: 6.00 Build 0)  -->
<!DOCTYPE svg PUBLIC "-//W3C//DTD SVG 1.1//EN" "http://www.w3.org/Graphics/SVG/1.1/DTD/svg11.dtd">
<svg version="1.1" id="Layer_1" xmlns="http://www.w3.org/2000/svg" xmlns:xlink="http://www.w3.org/1999/xlink" x="0px" y="0px"
	 width="1440px" height="611.58px" viewBox="0 -131.993 1440 611.58" enable-background="new 0 -131.993 1440 611.58"
	 xml:space="preserve">
<g>
	<ellipse id="path-1_23_" fill="#FFFFFF" cx="720.246" cy="80.307" rx="158.99" ry="156.778"/>
</g>
<g>
	<ellipse id="path-1_22_" fill="#FFFFFF" cx="720.246" cy="80.307" rx="158.99" ry="156.778"/>
</g>
<g>
	<ellipse id="path-1_21_" fill="#FFFFFF" cx="720.246" cy="80.307" rx="158.99" ry="156.778"/>
</g>
<g>
	<ellipse id="path-1_20_" fill="#FFFFFF" cx="720.246" cy="80.307" rx="158.99" ry="156.778"/>
</g>
<g>
	<ellipse id="path-1_19_" fill="#FFFFFF" cx="720.246" cy="80.307" rx="158.99" ry="156.778"/>
</g>
<g>
	<ellipse id="path-1_18_" fill="#FFFFFF" cx="720.246" cy="80.307" rx="158.99" ry="156.778"/>
</g>
<g>
	<ellipse id="path-1_17_" fill="#FFFFFF" cx="720.246" cy="80.307" rx="158.99" ry="156.778"/>
</g>
<g>
	<ellipse id="path-1_16_" fill="#FFFFFF" cx="720.246" cy="80.307" rx="158.99" ry="156.778"/>
</g>
<g>
	<ellipse id="path-1_15_" fill="#FFFFFF" cx="720.246" cy="80.307" rx="158.99" ry="156.778"/>
</g>
<g>
	<ellipse id="path-1_14_" fill="#FFFFFF" cx="720.246" cy="80.307" rx="158.99" ry="156.778"/>
</g>
<g>
	<ellipse id="path-1_13_" fill="#FFFFFF" cx="720.246" cy="80.307" rx="158.99" ry="156.778"/>
</g>
<g>
	<ellipse id="path-1_12_" fill="#FFFFFF" cx="720.246" cy="80.307" rx="158.99" ry="156.778"/>
</g>
<g>
	<ellipse id="path-1_11_" fill="#FFFFFF" cx="720.246" cy="80.307" rx="158.99" ry="156.778"/>
</g>
<g>
	<ellipse id="path-1_10_" fill="#FFFFFF" cx="720.246" cy="80.307" rx="158.99" ry="156.778"/>
</g>
<g>
	<ellipse id="path-1_9_" fill="#FFFFFF" cx="720.246" cy="80.307" rx="158.99" ry="156.778"/>
</g>
<g>
	<ellipse id="path-1_8_" fill="#FFFFFF" cx="720.246" cy="80.307" rx="158.99" ry="156.778"/>
</g>
<g>
	<ellipse id="path-1_7_" fill="#FFFFFF" cx="720.246" cy="80.307" rx="158.99" ry="156.778"/>
</g>
<g>
	<ellipse id="path-1_6_" fill="#FFFFFF" cx="720.246" cy="80.307" rx="158.99" ry="156.778"/>
</g>
<g>
	<ellipse id="path-1_5_" fill="#FFFFFF" cx="720.246" cy="80.307" rx="158.99" ry="156.778"/>
</g>
<g>
	<ellipse id="path-1_4_" fill="#FFFFFF" cx="720.246" cy="80.307" rx="158.99" ry="156.778"/>
</g>
<g>
	<ellipse id="path-1_3_" fill="#FFFFFF" cx="720.246" cy="80.307" rx="158.99" ry="156.778"/>
</g>
<g>
	<ellipse id="path-1_2_" fill="#FFFFFF" cx="720.246" cy="80.307" rx="158.99" ry="156.778"/>
</g>
<g>
	<ellipse id="path-1_1_" fill="#FFFFFF" cx="720.246" cy="80.307" rx="158.99" ry="156.778"/>
</g>
<title>11</title>
<desc>Created with Sketch.</desc>
<g id="kitty-eth" transform="translate(228.000000, 1.000000)">
	<ellipse id="Oval" fill="#E3E3E3" cx="492.246" cy="79.307" rx="158.99" ry="156.778"/>
	<g id="Oval_1_">
	</g>
	<path id="Shape" fill="#9B9B9B" d="M640.915,263.116c-8.109-5.652-25.065-11.549-33.911-14.253h-0.246
		c3.44-9.338,3.932-19.659,1.229-29.488L575.058,111.99c2.703-2.949,4.423-4.915,4.423-4.915c8.109,5.16,20.642-0.737,25.802-3.44
		c0.246-0.246,0.491-0.491,0.246-0.737c0-0.246-0.246-0.491-0.491-0.491c-10.075,0-24.573-7.863-24.573-7.863
		c11.549,2.949,15.973-0.246,17.201-1.966c0.246-0.246,0.246-0.491,0-0.737c0-0.246-0.246-0.246-0.491-0.246
		c-3.686-0.246-16.218-2.212-25.311-23.099c-1.229-2.949-2.457-5.652-3.932-8.355c-2.703-5.406-7.372-13.761-12.532-22.116
		l0.246-1.229l9.338-38.826c0.491-2.212-0.246-4.669-2.212-6.143c-1.966-1.229-4.669-1.229-6.389,0l-24.819,18.43l-0.491,0.491
		l-0.983-0.491c-3.195-1.72-6.881-3.195-10.321-4.177l-0.737-0.246c1.966-5.406,7.618-8.355,7.618-8.355
		c-6.881-6.389-18.922,3.686-18.922,3.686c-6.881-6.635,3.195-19.413,3.195-19.413c-12.287-5.652-21.379,16.218-21.379,16.218
		c-0.983-10.567-16.218-12.287-16.218-12.287c5.16,5.652,2.457,15.727,2.457,15.727c-7.126-7.126-20.887-0.491-20.887-0.491
		c4.423,0.246,8.355,2.212,11.549,5.406l-0.491,0.246c-5.406,1.474-10.321,3.932-14.99,7.372L426.143-1.539
		c-1.966-1.229-4.669-1.229-6.389,0.246c-1.966,1.474-2.703,3.932-1.966,6.143l10.812,38.334l0.737,2.703
		c-2.457,6.143-4.423,11.795-5.652,14.744c-0.737,1.966-1.474,3.932-2.212,5.898c-5.16,13.761-16.218,24.328-30.225,28.997
		c-0.246,0-0.491,0.246-0.491,0.491c0,0.246,0.246,0.491,0.491,0.491c3.932,0.983,13.761,3.195,20.887-3.932
		c0,0-7.126,9.829-15.727,13.27c-0.246,0-0.491,0.246-0.491,0.737c0,0.246,0.246,0.491,0.491,0.491
		c5.652,0.246,11.549-0.737,16.464-3.44c-2.212,3.195-4.915,5.898-7.618,8.355c0.737,0.492,0.491,0.737,0.737,0.983
		c0,0.246,0.246,0.491,0.737,0.246c2.949-0.246,6.389-0.983,8.601-2.212v2.212c0,2.212,1.72,4.669,3.932,6.881l-20.15,105.911
		c-0.983,7.372-0.246,14.99,2.457,22.116l0,0c-7.126,1.72-24.573,8.109-34.894,14.744c-4.915,3.195-1.966,10.567,4.423,10.321
		l50.375-0.983c0.737,0.491,1.72,0.983,2.457,1.474v0.737c0,4.423-1.229,8.109-5.652,8.109c-2.949,0.246-5.406,1.966-5.898,3.932
		c-0.983,4.177,0.983,7.372,5.16,7.618l15.973,0.983c6.881,0.491,12.778-4.177,14.007-11.058l0.983-4.915h100.751l0.737,3.932
		c0.737,4.669,3.932,8.355,8.109,10.321c1.229,0.491,2.703,0.737,4.177,0.737l17.447-0.491c4.177-0.491,5.652-2.949,5.16-6.881
		c-0.246-1.229-1.229-4.669-4.669-4.915c-2.949-0.246-4.669-1.72-5.406-4.177c4.423-1.229,8.601-2.949,12.287-5.406l49.393,0.983
		C642.881,273.682,645.829,266.556,640.915,263.116z"/>
	<path id="Shape_1_" fill="none" stroke="#31323D" stroke-width="1.843" stroke-linecap="round" d="M531.563,10.747l24.819-18.43
		c1.966-1.474,4.423-1.474,6.389-0.246c1.966,1.229,2.949,3.686,2.457,6.143l-9.338,38.826l-0.246,1.229 M451.454,14.187
		L426.635-1.294c-1.966-1.229-4.669-1.229-6.389,0.246c-1.966,1.474-2.703,3.932-1.966,6.143l10.812,38.334l0.737,2.703
		 M575.058,111.99l32.928,107.386c3.44,12.041,1.966,25.065-4.423,36.123c-6.143,11.058-16.71,18.921-28.751,22.362
		 M423.932,274.174c-17.447-9.338-27.276-28.259-24.819-47.918l20.15-105.911"/>
	<path id="Shape_2_" fill="#31323D" d="M457.597,233.873c-0.246,2.949-0.737,5.652-1.229,8.601
		c-0.491,2.949-0.983,5.652-1.474,8.601c-0.983,5.652-1.966,11.304-3.195,16.956l-3.195,16.956
		c-0.737,3.195-2.212,5.898-4.669,8.109s-5.406,3.44-8.601,3.44c-0.737,0-1.474,0-2.212,0l-2.212-0.246l-4.177-0.246l-8.601-0.491
		c-1.72,0-3.44-0.737-4.669-1.72c-1.229-1.229-1.966-2.949-2.212-4.669c0-0.737,0-1.72,0.246-2.457
		c0.246-0.983,0.737-1.72,1.229-2.457c1.229-1.229,2.703-2.212,4.423-2.457c0.491,0,0.737-0.246,1.229-0.246
		c0.246,0,0.491,0,0.983,0c0.491,0,0.983-0.246,1.474-0.491c0.983-0.737,1.474-1.72,1.72-2.703c0.246-1.229,0.491-2.703,0.246-3.932
		l-0.246-4.423l-0.737-17.201l0,0c-0.491-3.686-1.229-7.372-2.212-11.058c-1.229-3.44-3.195-6.881-5.406-9.829v-0.246
		c0,0,0-0.246,0.246-0.246c0.246-0.246,0.491-0.246,0.491,0c2.703,2.703,4.915,6.143,6.389,9.829
		c1.474,3.686,2.457,7.372,2.949,11.304l0,0l0.737,17.201l0.246,4.423c0,1.474,0,3.195-0.491,4.669
		c-0.491,1.72-1.474,3.195-2.703,4.177c-0.737,0.491-1.474,0.737-2.457,0.983c-0.491,0-0.737,0.246-1.229,0.246
		c-0.246,0-0.491,0-0.983,0.246c-1.229,0.246-2.212,0.737-2.949,1.72c-0.246,0.491-0.491,0.737-0.737,1.229
		c0,0.491-0.246,1.229-0.246,1.72c0,1.229,0.491,2.212,1.229,2.949c0.983,0.737,1.966,1.229,3.195,1.229l8.601,0.491l4.423,0.246
		l2.212,0.246c0.737,0,1.229,0,1.966,0c2.703,0,5.16-0.983,7.126-2.703c1.966-1.72,3.44-3.932,3.932-6.635l3.195-16.956
		c0.983-5.652,2.212-11.304,3.195-16.956c0.491-2.949,1.229-5.652,1.966-8.355c0.737-2.703,1.229-5.652,1.966-8.355
		c0,0,0-0.246,0.246-0.246h0.246C457.352,233.628,457.597,233.628,457.597,233.873z M541.392,230.925
		c0.737,3.195,1.474,6.635,2.212,9.829c0.737,3.195,1.229,6.635,1.966,9.829c1.229,6.635,2.212,13.27,3.44,19.904l1.72,10.075
		l0.491,2.457c0.246,0.737,0.246,1.474,0.492,2.212c0.491,1.474,1.229,2.703,2.457,3.932c0.983,1.229,2.212,1.966,3.686,2.703
		c1.229,0.737,2.703,0.983,4.177,0.983l10.075-0.491l5.16-0.246h2.457c0.737,0,1.229-0.246,1.966-0.491
		c1.229-0.491,1.966-1.72,1.966-2.949c0-0.737,0-1.474,0-2.212s-0.246-1.229-0.737-1.966c-0.246-0.491-0.737-0.983-1.229-1.229
		c-0.246-0.246-0.491-0.246-0.737-0.246c-0.246,0-0.246,0-0.491,0h-0.737c-0.983,0-1.966-0.491-2.949-0.737
		c-0.983-0.491-1.72-1.229-2.212-2.212c-0.737-1.72-1.229-3.686-0.983-5.652v-5.16v-5.16c0-1.72,0.246-3.44,0.491-5.16
		c1.72-10.321,6.389-19.659,13.515-27.276l0.246-0.246c0,0,0.246,0,0.246,0.246c0.246,0.246,0.246,0.491,0,0.491
		c-8.109,10.812-13.024,23.59-12.287,36.86v5.16v1.229c0,0.246,0,0.737,0,0.983c0,0.737,0.246,1.229,0.491,1.966
		c0.737,1.229,1.966,1.72,3.195,1.72h0.491c0.246,0,0.491,0,0.737,0c0.491,0,0.983,0.246,1.474,0.491
		c0.983,0.491,1.72,1.229,2.212,2.212c0.491,0.983,0.983,1.72,0.983,2.949c0,0.983,0,1.966,0,2.949c0,0.983-0.491,1.966-0.983,2.949
		c-0.491,0.983-1.474,1.72-2.457,1.966c-0.983,0.491-1.966,0.737-2.949,0.737h-2.457l-5.16,0.246l-10.075,0.246
		c-1.966,0-3.686-0.491-5.406-1.229c-3.44-1.72-5.898-4.669-7.126-8.109c-0.246-0.737-0.491-1.72-0.491-2.703l-0.491-2.457
		l-1.72-10.075c-0.983-6.635-2.212-13.27-3.195-19.904c-0.491-3.44-0.983-6.635-1.474-10.075c-0.491-3.44-0.983-6.635-1.229-10.075
		v-0.246l0.246-0.246C541.147,230.679,541.392,230.679,541.392,230.925z M469.147,11.976c-0.491-1.474-1.229-2.703-2.212-3.932
		s-1.966-2.212-3.195-2.949c-2.457-1.474-5.406-2.457-8.355-2.457c-0.737,0-0.983-0.737-0.983-1.229s0.246-0.737,0.737-0.983
		c1.72-0.737,3.44-1.474,5.406-1.966c1.966-0.491,3.686-0.737,5.652-0.983s3.932,0,5.898,0.491s3.686,1.474,5.16,2.949l-1.966,0.491
		c0.246-1.229,0.491-2.457,0.491-3.932c0-1.229,0-2.457,0-3.932c-0.246-2.457-1.229-4.915-2.703-6.881l0,0
		c-0.491-0.491-0.246-1.229,0.246-1.72c0.246-0.246,0.491-0.246,0.983-0.246c1.966,0.246,3.686,0.737,5.652,1.229
		c1.72,0.491,3.44,1.474,5.16,2.457s3.195,2.457,4.177,3.932c1.229,1.72,1.72,3.686,1.966,5.652l-1.72-0.246
		c0.983-2.212,2.212-4.669,3.44-6.635c1.229-2.212,2.949-4.177,4.669-6.143c1.72-1.966,3.932-3.44,6.389-4.423
		c2.703-0.983,5.406-0.737,8.109,0.246c0.491,0.246,0.737,0.983,0.737,1.474c0,0,0,0.246-0.246,0.246
		c-0.983,1.474-1.966,2.703-2.703,4.423c-0.737,1.474-1.474,2.949-1.966,4.669c-0.491,1.474-0.737,3.195-0.491,4.915
		c0.246,1.474,0.983,2.949,1.966,3.932h-1.474c1.474-1.229,2.949-2.212,4.423-2.949c1.474-0.983,3.195-1.72,4.915-2.212
		c1.72-0.737,3.686-0.983,5.652-0.737s3.932,0.983,5.406,2.457c0.492,0.491,0.492,1.229,0,1.72c0,0-0.246,0.246-0.491,0.246
		c-1.229,0.491-2.457,1.229-3.686,1.966c-1.229,0.737-2.212,1.474-3.44,2.457c-0.983,0.983-1.966,1.966-2.457,3.195
		c-0.737,1.229-0.983,2.457-0.983,3.932c0,0.246-0.246,0.491-0.491,0.491s-0.491-0.246-0.491-0.491c0-1.474,0.246-3.195,0.737-4.423
		c0.737-1.474,1.474-2.703,2.457-3.932c0.983-0.983,2.212-1.966,3.44-2.703c1.229-0.983,2.457-1.72,3.932-2.457l-0.246,1.966
		c-0.983-0.983-2.457-1.72-3.932-1.72c-1.474,0-3.195,0-4.669,0.737c-1.474,0.491-3.195,1.229-4.423,1.966
		c-1.474,0.737-2.949,1.72-4.177,2.703c-0.491,0.246-1.229,0.246-1.474,0c-1.474-1.474-2.457-3.44-2.703-5.406
		c-0.246-1.966,0-3.932,0.491-5.898c0.491-1.72,1.229-3.44,2.212-5.16s1.966-3.195,2.949-4.669l0.491,1.72
		c-1.966-0.983-4.423-1.229-6.389-0.491c-2.212,0.737-4.177,2.212-5.652,3.932c-1.72,1.72-3.195,3.686-4.423,5.652
		s-2.457,4.177-3.44,6.389c-0.246,0.491-0.737,0.737-0.983,0.491c-0.246,0-0.491-0.491-0.491-0.737
		c-0.246-1.72-0.737-3.195-1.72-4.669s-2.457-2.457-3.932-3.44c-1.474-0.983-3.195-1.474-4.915-1.966
		c-1.72-0.491-3.44-0.983-5.16-0.983l0.983-1.966c0.983,1.229,1.72,2.457,2.457,3.932c0.491,1.474,0.737,2.703,0.983,4.177
		s0.246,2.949,0,4.423c0,1.474-0.246,2.949-0.737,4.177c-0.246,0.737-0.737,0.983-1.474,0.983c-0.246,0-0.491-0.246-0.491-0.246
		c-1.229-1.229-2.703-1.966-4.177-2.457c-2.212-0.491-3.932-0.491-5.652-0.491c-1.72,0-3.44,0.491-5.16,0.983
		s-3.44,0.983-4.915,1.72l-0.491-2.212c3.195,0.491,6.389,1.72,8.846,3.686c1.229,0.983,2.457,1.966,3.44,3.195
		s1.72,2.703,2.212,4.423c0,0.246,0,0.491-0.246,0.491C469.638,12.222,469.392,12.222,469.147,11.976L469.147,11.976z"/>
	<path id="Shape_3_" fill="#31323D" d="M520.014,5.341c3.686,0.983,7.372,2.457,10.567,4.177l0,0
		c2.212,1.474,4.669,2.949,6.635,4.669c2.212,1.72,4.177,3.686,6.143,5.652c3.44,4.177,6.881,8.355,9.829,13.024
		c5.898,9.092,11.304,18.184,16.218,27.768l3.44,7.372l1.72,3.686c0.491,1.229,1.229,2.212,1.966,3.44
		c0.491,1.229,1.474,2.212,2.212,3.195c0.737,0.983,1.474,2.212,2.457,3.195c1.72,1.966,3.44,3.686,5.652,5.16
		c1.966,1.474,4.423,2.703,6.881,3.44c1.229,0.246,2.457,0.491,3.686,0.737h0.491c0.491,0,0.983,0.491,1.229,0.737
		c0.246,0.491,0.246,0.983,0.246,1.474c0,0.246-0.246,0.491-0.246,0.737l-0.246,0.246c-0.491,0.491-1.229,0.983-1.72,1.474
		c-2.457,1.474-5.406,2.212-8.355,1.966c-2.703,0-5.406-0.491-8.109-1.229l0.737-2.212c3.932,2.212,8.109,3.932,12.287,5.406
		c2.212,0.737,4.177,1.229,6.389,1.72c0.983,0.246,2.212,0.246,3.195,0.491h1.72c0.246,0,0.246,0,0.737,0
		c0.491,0,0.737,0.246,0.983,0.737c0.491,0.737,0.491,1.72-0.246,2.212l-0.246,0.246h-0.246h-0.246l-0.491,0.246l-0.737,0.491
		l-1.474,0.737c-0.983,0.491-2.212,0.983-3.195,1.474c-2.212,0.983-4.423,1.474-6.635,1.966c-2.212,0.491-4.669,0.737-7.126,0.737
		s-4.915-0.983-7.126-2.212l1.474-0.246c-2.703,2.949-5.406,5.652-8.355,8.355c-2.949,2.703-5.898,5.16-9.092,7.372h-0.246
		c0,0-0.246,0-0.246-0.246c-0.246-0.246,0-0.491,0-0.737c2.949-2.457,5.898-5.16,8.601-7.863c2.703-2.703,5.406-5.652,7.618-8.601
		c0.246-0.491,0.983-0.491,1.474-0.246l0,0c3.44,2.212,8.109,2.212,12.287,1.229c2.212-0.491,4.423-1.229,6.389-1.966
		c0.983-0.491,1.966-0.737,3.195-1.229c0.491-0.246,0.983-0.491,1.474-0.737l0.737-0.491l0.491-0.246h0.246l0,0
		c-0.246,0.246-0.246,0.491,0,0.737l0.246,0.246h-0.246h-1.72c-1.229-0.246-2.457-0.246-3.44-0.491
		c-2.212-0.491-4.423-0.983-6.635-1.966c-4.423-1.474-8.601-3.44-12.778-5.406c-0.491-0.246-0.737-0.983-0.491-1.474
		c0.246-0.491,0.737-0.737,1.474-0.737c2.457,0.737,5.16,0.983,7.618,1.229s4.915-0.246,7.126-1.474
		c0.491-0.246,0.983-0.737,1.229-0.983l0.246-0.246v0.246c0,0.246,0,0.246,0,0.491c0,0.246,0.246,0.246,0.491,0.246h-0.491
		c-1.474-0.246-2.703-0.491-4.177-0.737c-2.703-0.983-5.16-2.212-7.372-3.932c-2.212-1.72-4.177-3.44-6.143-5.652
		c-0.983-0.983-1.72-2.212-2.457-3.195c-0.983-0.983-1.474-2.212-2.212-3.44c-0.737-1.229-1.474-2.457-1.966-3.686l-1.72-3.686
		l-3.44-7.126c-4.915-9.584-10.075-18.676-15.973-27.522c-2.949-4.423-6.143-8.601-9.584-12.778
		c-1.72-1.966-3.686-3.686-5.898-5.406c-1.966-1.72-4.177-2.949-6.635-4.423l0,0c-3.195-1.72-6.635-2.949-10.075-3.932
		c-0.491,0-0.737-0.491-0.983-0.737c-0.246-0.246,0-0.983,0.246-1.229C519.276,5.341,519.768,5.095,520.014,5.341L520.014,5.341z
		 M429.584,128.208c-3.44-1.72-6.881-3.932-10.075-6.635c-1.72-1.229-2.949-2.949-4.177-4.669c-0.737-0.983-0.983-1.966-1.229-3.195
		c0-0.246,0-0.491,0-0.737v-0.737v-1.474l1.72,0.983c-1.72,0.983-3.686,1.474-5.652,1.966c-0.983,0.246-1.966,0.246-2.703,0.491
		h-0.737c-0.246,0-0.737,0-0.983-0.246s-0.491-0.246-0.737-0.737c-0.491-0.491-0.491-1.229,0-1.966c0-0.246,0.246-0.246,0.246-0.491
		l0.246-0.246l0.246-0.246c1.474-1.229,2.703-2.457,3.686-3.686c1.229-1.229,2.212-2.703,3.44-4.177l1.474,1.72
		c-2.949,1.474-6.389,2.457-9.584,3.195c-1.72,0.246-3.44,0.491-5.16,0.491h-2.457c-0.737,0-1.229-0.491-1.474-1.229
		c-0.246-0.737,0-1.474,0.491-1.966c0.246-0.246,0.491-0.246,0.737-0.491l0.491-0.246c2.949-1.474,5.406-3.195,7.863-5.406
		c2.457-2.212,4.669-4.423,6.389-7.126l1.72,1.474c-2.212,2.212-5.16,3.932-8.355,4.669c-3.195,0.737-6.389,0.983-9.584,0.491
		c-0.737,0-1.474-0.246-2.212-0.491c-0.491,0-0.737-0.246-1.229-0.246l0,0.983h-0.246c-0.246,0-0.491-0.246-0.737-0.246
		c-0.491-0.246-0.737-0.983-0.737-1.474c0-0.491,0.246-0.983,0.983-1.474c0,0,0.246-0.246,0.491-0.246h0.246h0.246l0.491-0.246
		c0.737-0.246,1.474-0.491,1.966-0.737c2.703-1.229,5.406-2.457,7.863-4.177c4.915-3.195,9.338-7.372,12.778-12.041
		c0.983-1.229,1.72-2.457,2.457-3.686c0.737-1.229,1.474-2.457,1.966-3.932c0.737-1.474,1.229-2.703,1.72-4.177l1.72-4.177
		c3.932-11.304,8.355-22.853,14.744-33.42c1.474-2.703,3.44-5.16,5.406-7.618c0.983-1.229,2.212-2.212,3.195-3.44
		c0.983-0.983,2.212-2.212,3.44-3.195c4.915-3.932,10.567-6.635,16.464-8.355c0.491-0.246,0.737,0,1.229,0.246
		c0.491,0.246,0.491,0.737,0.246,1.229s-0.491,0.737-0.737,0.737c-5.652,1.474-11.058,4.177-15.727,7.863
		c-1.229,0.737-2.212,1.72-3.195,2.949c-0.983,0.983-2.212,2.212-2.949,3.195c-2.457,2.703-4.177,4.915-5.652,7.618
		c-6.143,10.321-10.567,21.625-14.498,32.928l-1.72,4.177c-0.491,1.229-1.229,2.703-1.72,4.177
		c-0.491,1.474-1.474,2.703-2.212,4.177s-1.474,2.703-2.457,3.932c-3.686,5.16-8.109,9.338-13.515,12.778
		c-2.703,1.72-5.406,3.195-8.355,4.177c-0.737,0.246-1.474,0.491-2.212,0.737l-0.491,0.246h-0.246h-0.246l0,0
		c0.246,0,0.246-0.246,0.246-0.491c0-0.246,0-0.491-0.246-0.491c0,0-0.246-0.246-0.246,0h0.246l0.491,0.246l0.983,0.246
		c0.737,0.246,1.474,0.246,2.212,0.491c2.949,0.491,5.652,0.246,8.601-0.246c2.703-0.737,5.16-2.212,7.126-4.177
		c0.491-0.491,1.229-0.491,1.72,0c0.491,0.491,0.491,0.983,0,1.474c-1.966,2.703-4.423,5.16-6.881,7.372
		c-2.457,2.457-5.406,4.177-8.355,5.652l-0.491,0.246c-0.246,0-0.491,0.246-0.246,0c0.246-0.246,0.246-0.246,0.246-0.491
		c0-0.246-0.246-0.491-0.491-0.491l0,0h2.212c1.474,0,3.195-0.246,4.669-0.491c3.195-0.491,6.143-1.72,9.092-2.949
		c0.491-0.246,0.983,0,1.474,0.246c0.246,0.491,0.246,0.983,0,1.474c-1.229,1.474-2.212,2.949-3.44,4.423
		c-1.229,1.474-2.703,2.703-3.932,3.932c-0.246,0-0.491,0.491-0.246,0.246c0.246-0.246,0.246-0.491,0-0.737l-0.246-0.246h-0.246
		h0.737c0.983,0,1.72-0.246,2.457-0.491c1.72-0.246,3.195-0.737,4.669-1.474c0.246-0.246,0.491-0.246,0.983-0.246
		c0.246,0,0.491,0.246,0.737,0.491c0,0.246,0.246,0.491,0.246,0.491v2.949c0.246,0.737,0.491,1.72,0.737,2.457
		c0.983,1.72,2.212,2.949,3.44,4.423c2.949,2.703,6.143,4.915,9.584,6.881l0.246,0.246v0.246
		C430.075,128.208,429.829,128.454,429.584,128.208z"/>
	<path id="Shape_4_" fill="#FFFFFF" d="M469.392,61.123c0,17.939-6.143,21.87-16.218,20.15c-4.915-0.983-10.075-0.983-14.99-0.246
		c-10.567,1.72-17.693-2.703-17.693-18.922c0-13.27,10.567-24.328,23.836-24.573c6.389-0.246,12.778,2.212,17.447,6.635
		C466.689,48.59,469.392,54.734,469.392,61.123z"/>
	<path id="Shape_5_" fill="none" stroke="#31323D" stroke-width="1.474" stroke-linecap="round" d="M469.392,61.123
		c0,17.939-6.143,21.87-16.218,20.15c-4.915-0.983-10.075-0.983-14.99-0.246c-10.567,1.72-17.693-2.703-17.693-18.922
		c0-13.27,10.567-24.328,23.836-24.573c6.389-0.246,12.778,2.212,17.447,6.635C466.689,48.59,469.392,54.734,469.392,61.123z"/>
	<path id="Shape_6_" fill="#FFFFFF" d="M521.242,57.928c0,17.939,6.143,21.87,16.218,20.15c4.915-0.983,10.075-0.983,14.99-0.246
		c10.567,1.72,17.693-2.703,17.693-18.922c0-13.27-10.567-24.328-23.836-24.573c-6.389-0.246-12.778,2.212-17.447,6.635
		C523.945,45.15,521.242,51.293,521.242,57.928z"/>
	<path id="Shape_7_" fill="none" stroke="#31323D" stroke-width="1.474" stroke-linecap="round" d="M521.242,57.928
		c0,17.939,6.143,21.87,16.218,20.15c4.915-0.983,10.075-0.983,14.99-0.246c10.567,1.72,17.693-2.703,17.693-18.922
		c0-13.27-10.567-24.328-23.836-24.573c-6.389-0.246-12.778,2.212-17.447,6.635C523.945,45.15,521.242,51.293,521.242,57.928z"/>
	<path id="Shape_8_" fill="#FFFFFF" d="M506.744,93.805c0,0,0.737,14.253-7.618,15.235C486.102,110.269,488.314,97,488.314,97
		s3.44,6.389,7.618,5.16C502.812,100.44,506.744,93.805,506.744,93.805z"/>
	<path id="Shape_9_" fill="#FFFFFF" d="M487.823,97.983c0,0-0.246,7.618,9.338,7.618s9.829-13.27,9.829-13.27l-11.549-6.389
		L487.823,97.983z"/>
	<path id="Shape_10_" fill="none" stroke="#2C2F31" stroke-width="3.685" stroke-linecap="round" d="M495.932,86.679l1.474,11.549"
		/>
	<path id="Shape_11_" fill="#31323D" d="M497.406,83.976c5.406,6.143,12.778,10.075,20.887,11.058c0.983,0.246,1.966,0,3.195,0.246
		h1.474l1.474-0.246c0.983-0.246,1.966-0.246,3.195-0.246l2.949-0.737c0.491-0.246,0.983-0.246,1.474-0.246l1.474-0.491l2.949-0.983
		c1.966-0.737,3.686-1.72,5.652-2.703h0.246c0,0,0.246,0,0.246,0.246c0,0.246,0,0.246-0.246,0.491
		c-1.966,0.983-3.686,1.966-5.652,2.949l-2.949,1.229l-1.474,0.491c-0.491,0.246-0.983,0.246-1.474,0.491l-3.195,0.737
		c-0.983,0.246-2.212,0.246-3.195,0.491L522.717,97h-1.229c-0.983,0-2.212,0-3.195,0c-8.846-0.491-16.956-4.423-23.099-11.058
		c-0.491-0.491-0.491-1.474,0-1.966C495.932,83.239,496.669,83.239,497.406,83.976L497.406,83.976z"/>
	<path id="Shape_12_" fill="#31323D" d="M446.785,99.457c4.669,2.457,9.338,4.177,14.498,4.915
		c4.915,0.983,10.075,0.983,14.99-0.491c2.457-0.737,4.669-1.72,6.635-3.195c1.966-1.474,3.932-3.195,5.406-5.16l1.229-1.474
		c0.246-0.491,0.737-0.983,0.983-1.474c0.737-0.983,1.229-2.212,1.72-3.195c0.491-1.229,0.983-2.212,1.474-3.44
		s0.491-2.457,1.72-3.44c0.491-0.491,1.229-0.246,1.474,0c0.246,0.246,0.246,0.246,0.246,0.491c0.246,1.474-0.491,2.703-0.983,3.932
		c-0.491,1.229-0.983,2.457-1.72,3.686c-0.491,1.229-1.229,2.457-1.966,3.44c-0.491,0.491-0.737,1.229-1.229,1.72l-1.229,1.474
		c-1.72,1.966-3.686,3.932-5.898,5.406c-2.212,1.474-4.669,2.703-7.372,3.195c-5.16,1.229-10.567,1.229-15.727,0
		s-10.075-3.195-14.498-5.898c0,0,0,0,0-0.246c0-0.246,0,0,0-0.246C446.294,99.457,446.539,99.457,446.785,99.457L446.785,99.457z"
		/>
	<path id="Shape_13_" fill="#31323D" d="M483.399,80.536c-0.491-0.983-0.246-2.212,0.491-2.949c1.474-1.72,4.915-4.423,11.795-5.16
		c6.635-0.491,10.075,1.474,11.795,2.949c0.737,0.737,0.983,1.966,0.737,2.949c-0.491,1.474-1.72,2.457-3.195,2.457
		c-2.457,0.246-4.669,1.474-5.898,3.44c0,0.246-0.246,0.246-0.246,0.491c-0.737,0.737-1.474,0.983-2.457,0.983
		s-1.72-0.246-2.457-0.983c0,0-1.474-2.212-6.635-2.212C485.365,82.747,484.137,81.764,483.399,80.536L483.399,80.536z
		 M515.099,83.976c10.321-2.212,20.887-3.195,31.208-2.949c5.16,0.246,10.567,0.491,15.727,1.474
		c2.457,0.491,5.16,0.737,7.618,1.474c1.229,0.246,2.457,0.491,3.932,0.983l3.932,0.983c10.075,2.949,19.659,7.126,28.751,12.532
		s17.201,11.795,24.573,19.167c-7.372-7.372-15.727-13.761-24.819-18.921c-9.092-5.16-18.676-9.338-28.751-11.795l-3.686-0.983
		c-1.229-0.246-2.457-0.491-3.932-0.737c-2.457-0.491-5.16-0.983-7.618-1.229c-5.16-0.737-10.321-0.983-15.481-1.229
		c-10.321,0-20.642,0.983-30.962,3.44c-0.246,0-0.737,0-0.983-0.246c-0.246-0.246-0.246-0.491-0.246-0.983
		C514.607,84.222,514.853,83.976,515.099,83.976L515.099,83.976z M479.468,91.102c-3.195-0.491-6.635-0.737-9.829-0.737
		c-3.195,0-6.635,0.246-9.829,0.737c-6.635,0.983-13.024,2.949-18.676,6.143c-5.898,3.195-11.058,7.372-15.481,12.287
		c-4.423,5.16-7.863,10.812-10.321,17.201c2.212-6.389,5.652-12.287,9.829-17.447c4.177-5.16,9.584-9.584,15.481-12.778
		c5.898-3.195,12.287-5.652,18.922-6.635c3.44-0.491,6.635-0.983,10.075-0.983c3.44,0,6.881,0,10.075,0.491
		c0.246,0,0.491,0.246,0.737,0.246c0.246,0.246,0.246,0.491,0.246,0.737c0,0.246-0.246,0.491-0.246,0.737
		C479.959,91.102,479.713,91.348,479.468,91.102L479.468,91.102z"/>
	<path id="Shape_14_" fill="#31323D" d="M359.795,120.344c7.372-6.881,15.481-12.778,24.082-17.939
		c4.423-2.457,8.846-4.915,13.515-6.881c23.099-10.321,48.901-14.007,73.966-10.321c0.246,0,0.737,0.246,0.737,0.491
		c0.246,0.246,0,0.737-0.246,0.983c-0.246,0.246-0.491,0.491-0.983,0.246c-19.904-3.195-40.055-1.72-59.468,3.932
		c-4.669,1.474-9.584,3.195-14.007,5.16c-4.669,1.966-9.092,4.177-13.515,6.635C375.522,107.812,367.167,113.71,359.795,120.344z
		 M519.768,78.57l28.259-3.44c4.669-0.491,9.338-1.229,14.253-1.474c14.253-0.491,28.505,2.457,41.529,8.846
		c8.355,4.423,16.956,8.846,25.311,13.024c-8.601-4.177-16.956-8.601-25.556-12.778c-8.601-3.932-17.693-6.389-27.276-7.618
		c-4.669-0.491-9.338-0.737-14.007-0.491c-4.669,0.246-9.338,0.983-14.007,1.72l-28.259,3.932c-0.246,0-0.491,0-0.737-0.246
		s-0.246-0.491-0.246-0.737C518.785,79.061,519.276,78.57,519.768,78.57L519.768,78.57z M476.764,95.28
		c-3.44-0.737-6.881-0.737-10.321,0c-3.44,0.983-6.389,2.949-8.846,5.652c-2.212,2.703-3.686,6.143-4.423,9.584
		c-0.491,3.686-0.246,7.372,0.737,10.812c-1.229-3.686-1.474-7.372-1.229-10.812c0.491-3.686,1.72-7.126,4.177-10.075
		c2.212-2.949,5.406-5.16,9.092-6.389c3.686-0.983,7.372-1.229,11.058-0.491c0.491,0,0.737,0.491,0.737,1.229
		c0,0.246-0.246,0.491-0.491,0.491C477.256,95.28,477.01,95.28,476.764,95.28L476.764,95.28z M519.768,87.416
		c3.932-0.737,7.863-0.491,11.549,0.737c3.686,1.229,7.126,3.44,9.584,6.389s4.177,6.635,4.423,10.567
		c0.246,3.686-0.246,7.618-1.72,11.058c1.229-3.44,1.72-7.372,1.229-11.058c-0.491-3.686-2.212-7.126-4.669-9.829
		c-2.457-2.703-5.652-4.669-9.338-5.652c-3.44-0.983-7.372-0.983-10.812-0.246c-0.246,0-0.491,0-0.737,0
		c-0.246-0.246-0.246-0.246-0.491-0.491C519.031,88.153,519.276,87.662,519.768,87.416L519.768,87.416z"/>
	<path id="Shape_15_" fill="#FFFFFF" d="M486.102,122.31c0,0,1.474,13.515,13.024,12.532c11.058-0.983,11.549-14.007,11.549-14.007
		c-2.457,3.686-6.389,5.898-10.812,6.389C492.737,127.717,486.102,122.31,486.102,122.31z"/>
	<path id="Shape_16_" fill="#31323D" d="M511.167,120.099c-0.246,1.229-0.737,2.703-1.474,3.686
		c-0.737,1.229-1.72,2.212-2.949,2.949c-1.229,0.737-2.457,1.474-3.686,1.966c-1.229,0.491-2.703,0.737-4.177,0.737
		c-2.703,0-5.406-0.491-7.863-1.966c-2.457-1.229-4.423-3.195-5.652-5.652v-0.246c0,0,0-0.246,0.246-0.246c0.246,0,0.491,0,0.491,0
		c1.72,1.72,3.686,2.949,5.898,3.932c2.212,0.737,4.423,1.229,6.881,1.229c2.212,0,4.423-0.737,6.389-1.966
		c0.983-0.491,1.966-1.229,2.703-2.212c0.737-0.983,1.474-1.72,2.212-2.949l0.246-0.246h0.246
		C510.921,119.853,511.167,120.099,511.167,120.099z"/>
	<circle id="Oval_2_" fill="#9B9B9B" cx="447.031" cy="55.962" r="15.235"/>
	<circle id="Oval_3_" fill="#31323D" cx="446.539" cy="56.208" r="11.058"/>
	<circle id="Oval_4_" fill="#FFFFFF" cx="452.683" cy="47.607" r="5.898"/>
	<circle id="Oval_5_" fill="#9B9B9B" cx="543.604" cy="52.522" r="15.235"/>
	<circle id="Oval_6_" fill="#31323D" cx="543.85" cy="52.768" r="11.058"/>
	<circle id="Oval_7_" fill="#FFFFFF" cx="552.696" cy="44.167" r="5.898"/>
</g>
<g id="BTC" transform="translate(1.000000, 0.000000)">
	<path id="Fill-504" fill="#E3E3E3" d="M319.437,80.307c0,87.727-71.263,158.99-158.99,158.99S1.703,168.034,1.703,80.307
		s71.263-158.99,158.99-158.99S319.437-7.42,319.437,80.307"/>
	<path id="Fill-505" fill="#2C2F31" d="M199.273,126.751c-1.229,4.423-4.423,8.109-8.355,10.321
		c-4.177,2.212-8.846,2.703-13.27,1.474l-44.724-13.27l9.829-33.42l44.724,13.27l0,0
		C196.57,107.829,201.976,117.658,199.273,126.751 M214.263,58.191c2.212,4.177,2.703,8.846,1.474,13.27
		c-2.703,9.338-12.532,14.498-21.625,11.795l0,0l-44.724-13.27l10.075-33.42l44.724,13.27
		C208.365,51.065,212.051,54.013,214.263,58.191 M234.413,47.379c-5.16-9.584-13.761-16.464-24.082-19.413l-5.898-1.72l8.355-28.014
		L191.41-8.157L183.3,19.856l-18.184-5.406l8.355-27.768l-5.16-1.474l-20.642-6.389L139.56,5.85l-25.065-7.372l-7.126,23.836
		l25.065,7.372l-25.802,86.744l-25.065-7.372l-7.126,23.836l25.065,7.372l-6.635,22.607l5.16,1.474l20.642,6.143l7.126-23.59
		l18.184,5.406l-7.126,23.59l21.133,6.389l7.126-23.59l5.898,1.72c3.686,1.229,7.618,1.72,11.549,1.72
		c6.635,0,13.024-1.72,19.167-4.915c9.338-5.16,16.464-13.515,19.413-23.836c3.195-10.812,1.72-21.87-3.44-31.208
		c9.338-4.915,16.71-13.27,19.904-24.082C240.556,67.775,239.573,56.717,234.413,47.379"/>
</g>
<circle id="Oval-2-Copy" fill="#E3E3E3" cx="1274.13" cy="83.256" r="160.956"/>
<path id="Fill-10" fill="#2C2F31" d="M1341.952-8.894l-87.973,87.973c-1.474,1.474-1.474,3.932,0,5.652l9.092,9.092
	c1.474,1.474,1.474,3.932,0,5.652l-16.956,16.956c-1.474,1.474-3.932,1.474-5.652,0l-31.945-31.945
	c-1.474-1.474-1.474-4.177,0-5.652l89.201-87.727h-46.689l10.812,10.812c1.474,1.474,1.474,4.177,0,5.652l-17.201,16.71
	c-1.474,1.474-3.932,1.474-5.652,0l-32.683-33.174h-17.693c-3.686,0-6.635,2.949-6.635,6.635v171.276
	c0,3.686,2.949,6.635,6.635,6.635h16.71l89.201-89.201c1.474-1.474,1.474-3.932,0-5.652l-9.092-9.092
	c-1.474-1.474-1.474-3.932,0-5.652l16.956-16.956c1.474-1.474,3.932-1.474,5.652,0l31.945,31.945c1.474,1.474,1.474,4.177,0,5.652
	l-90.676,88.71h48.655l-11.795-11.795c-1.474-1.474-1.474-4.177,0-5.652l17.201-16.71c1.474-1.474,3.932-1.474,5.652,0
	l33.911,33.911l16.71,0.246c3.686,0,6.635-2.949,6.635-6.635V-2.26c0-3.686-2.949-6.635-6.635-6.635H1341.952z"/>
<path id="Fungible-tokens" fill="#2C2F31" d="M45.952,335.133V300.73h23.099v5.652H51.604v8.355h12.532v5.652H51.604v14.99h-5.652
	V335.133z M86.007,335.624c-2.703,0-4.915-0.737-6.881-2.457c-1.966-1.72-2.703-4.177-2.703-7.863v-15.235h5.652v14.007
	c0,4.177,1.72,6.143,5.16,6.143c3.686,0,5.652-1.966,5.652-6.143v-14.253h5.652v25.311h-5.652v-2.457
	C91.413,334.641,89.201,335.624,86.007,335.624z M119.672,309.331c2.703,0,4.915,0.737,6.635,2.457
	c1.72,1.72,2.457,4.177,2.457,7.863v15.236h-5.652v-14.253c0-2.212-0.491-3.686-1.474-4.669c-0.983-0.983-2.212-1.474-3.686-1.474
	c-3.686,0-5.652,1.966-5.652,6.143v14.253h-5.652v-25.065h5.16v3.195c0.491-0.983,1.474-1.72,2.949-2.457
	C116.478,309.822,117.952,309.331,119.672,309.331z M146.703,345.208l-2.949-4.669c3.44-0.246,5.898-0.737,7.372-1.72
	c1.229-0.737,1.966-2.212,1.966-3.932v-1.474c-1.229,1.474-3.195,2.212-5.898,2.212c-3.195,0-5.652-1.229-7.618-3.44
	c-1.966-2.212-2.949-5.406-2.949-9.829c0-3.932,0.983-7.126,2.949-9.584c1.966-2.457,4.423-3.44,7.618-3.44
	c2.457,0,4.423,0.737,5.652,2.212v-1.474h5.652v22.362c0,4.177-0.983,7.372-2.703,9.338
	C154.075,343.734,151.126,344.716,146.703,345.208z M148.177,330.218c2.212,0,3.686-0.737,4.915-2.457v-10.567
	c-1.229-1.72-2.703-2.457-4.915-2.457c-1.966,0-3.195,0.737-4.177,1.966s-1.474,3.195-1.474,5.898c0,2.457,0.491,4.177,1.474,5.652
	C144.983,329.727,146.212,330.218,148.177,330.218z M178.648,306.628c-0.983,0-1.72-0.246-2.457-0.983
	c-0.737-0.737-0.983-1.474-0.983-2.457c0-0.983,0.246-1.72,0.983-2.457s1.474-0.983,2.457-0.983s1.72,0.246,2.457,0.983
	c0.737,0.737,0.983,1.474,0.983,2.457c0,0.983-0.246,1.72-0.983,2.457C180.614,306.136,179.631,306.628,178.648,306.628z
	 M181.597,330.218h6.881v4.915h-19.413v-4.915h6.881v-15.235h-6.881v-4.915h12.532V330.218z M210.102,335.624
	c-2.703,0-4.915-0.737-6.389-2.457v1.966h-5.652v-32.928l5.652-2.703v12.287c0.737-0.737,1.72-1.474,2.949-1.966
	s2.457-0.737,3.686-0.737c3.195,0,5.652,1.229,7.618,3.44c1.966,2.212,2.949,5.652,2.949,9.584c0,4.177-0.983,7.372-2.949,9.829
	C216,334.396,213.297,335.624,210.102,335.624z M209.119,330.218c1.966,0,3.44-0.737,4.423-1.966
	c0.983-1.474,1.474-3.195,1.474-5.652c0-2.457-0.491-4.423-1.474-5.898c-0.983-1.229-2.457-1.966-4.423-1.966
	c-1.229,0-2.457,0.246-3.44,0.737s-1.72,0.983-2.212,1.72v10.567C204.942,329.481,206.662,330.218,209.119,330.218z
	 M241.802,330.218h7.372v4.915h-20.396v-4.915h7.372v-25.556h-5.898l-2.703-4.915h14.007v30.471H241.802z M280.874,321.372
	c0,1.474,0,2.703-0.246,3.44h-17.201c0.246,1.72,0.983,3.195,2.212,4.423c0.983,0.983,2.457,1.474,4.177,1.474
	c2.212,0,3.932-0.737,5.652-2.457l3.44,3.686c-2.457,2.703-5.406,3.932-9.092,3.932s-6.635-1.229-8.846-3.686
	s-3.195-5.652-3.195-9.584c0-4.177,0.983-7.372,3.195-9.584c2.212-2.212,5.16-3.44,8.846-3.44c3.195,0,5.898,0.983,7.863,2.949
	C279.891,314.491,280.874,317.44,280.874,321.372z M263.427,319.897h11.795c-0.246-1.72-0.737-3.195-1.72-4.177
	c-0.983-0.983-2.212-1.474-3.686-1.474c-1.72,0-3.195,0.491-4.423,1.474C264.41,316.949,263.672,318.177,263.427,319.897z
	 M89.939,399.515c-4.915,0-7.372-2.212-7.372-6.881v-14.007h-5.16v-4.915h5.16v-7.618l5.652-2.703v10.321h8.601v4.915h-8.601v12.778
	c0,1.966,1.229,2.949,3.44,2.949c1.474,0,2.703-0.491,4.423-1.229l-0.737,5.16C94.116,399.269,92.15,399.515,89.939,399.515z
	 M117.952,399.515c-3.686,0-6.635-1.229-8.846-3.44c-2.212-2.212-3.195-5.652-3.195-9.584c0-3.932,0.983-7.126,3.195-9.584
	c2.212-2.457,5.16-3.686,8.846-3.686s6.635,1.229,8.846,3.686c2.212,2.457,3.195,5.652,3.195,9.584c0,3.932-0.983,7.126-3.195,9.584
	C124.587,398.532,121.638,399.515,117.952,399.515z M117.952,394.109c1.966,0,3.686-0.737,4.669-1.966
	c0.983-1.474,1.72-3.195,1.72-5.652s-0.491-4.177-1.72-5.652c-0.983-1.474-2.703-2.212-4.669-2.212c-1.966,0-3.44,0.737-4.669,2.212
	c-1.229,1.474-1.72,3.195-1.72,5.652s0.491,4.177,1.72,5.652C114.512,393.618,115.986,394.109,117.952,394.109z M154.075,399.024
	l-7.126-13.761l-3.686,3.686v10.321h-5.652v-32.928l5.652-2.703v18.922l8.846-8.601h6.635l-7.618,7.372l9.092,17.939h-6.143V399.024
	z M189.952,385.263c0,1.474,0,2.703-0.246,3.44h-17.201c0.246,1.72,0.983,3.195,2.212,4.423s2.457,1.474,4.177,1.474
	c2.212,0,3.932-0.737,5.652-2.457l3.44,3.686c-2.457,2.703-5.406,3.932-9.092,3.932s-6.635-1.229-8.846-3.686
	s-3.195-5.652-3.195-9.584c0-4.177,0.983-7.372,3.195-9.584c2.212-2.212,5.16-3.44,8.846-3.44c3.195,0,5.898,0.983,7.863,2.949
	C188.969,378.382,189.952,381.331,189.952,385.263z M172.751,383.788h11.795c-0.246-1.72-0.737-3.195-1.72-4.177
	c-0.983-0.983-2.212-1.474-3.686-1.474c-1.72,0-3.195,0.491-4.423,1.474C173.734,380.839,172.997,382.068,172.751,383.788z
	 M210.594,373.222c2.703,0,4.915,0.737,6.635,2.457s2.703,4.177,2.703,7.863v15.236h-5.652v-14.253c0-2.212-0.491-3.686-1.474-4.669
	c-0.983-0.983-2.212-1.474-3.686-1.474c-3.686,0-5.652,1.966-5.652,6.143v14.253h-5.652v-25.065h5.16v3.195
	c0.491-0.983,1.474-1.72,2.949-2.457S208.874,373.222,210.594,373.222z M239.345,399.515c-2.212,0-4.177-0.491-5.898-1.229
	s-3.195-1.966-4.423-3.195l3.686-3.44c1.966,1.966,4.423,2.949,6.881,2.949c1.229,0,2.212-0.246,2.949-0.737
	s1.229-0.983,1.229-1.966c0-0.491-0.246-0.983-0.737-1.474c-0.491-0.491-0.983-0.737-1.72-0.983
	c-0.737-0.246-1.474-0.737-2.703-1.229c-0.246,0-0.246,0-0.246-0.246h-0.246c-0.246,0-0.246,0-0.246-0.246
	c-1.229-0.491-2.212-0.983-2.703-1.229c-0.491-0.246-1.229-0.737-2.212-1.229c-0.737-0.491-1.474-0.983-1.72-1.474
	c-0.491-0.491-0.737-0.983-0.983-1.72c-0.246-0.737-0.491-1.474-0.491-2.457c0-2.212,0.983-3.686,2.703-5.16
	c1.72-1.229,4.177-1.966,6.881-1.966c3.932,0,7.126,1.229,9.338,3.932l-3.686,3.195c-1.72-1.474-3.686-2.212-5.898-2.212
	c-1.229,0-2.212,0.246-2.949,0.491c-0.737,0.491-1.229,0.983-1.229,1.72c0,0.246,0.246,0.737,0.491,0.983s0.737,0.737,1.474,0.983
	c0.737,0.246,1.229,0.491,1.72,0.737c0.491,0.246,1.229,0.491,2.212,0.737c2.949,1.229,4.915,2.212,5.898,2.949
	c1.72,1.474,2.703,3.195,2.703,5.406c0,2.212-0.983,4.177-2.703,5.406C244.505,399.024,242.294,399.515,239.345,399.515z"/>
<path id="Non-fungible-tokens" fill="#2C2F31" d="M540.86,335.133V300.73h5.652l10.812,21.133c0.491,0.983,0.983,1.72,1.229,2.457
	c0-1.229,0-1.966,0-2.457V300.73h5.406v34.403h-5.406l-10.812-21.379c-0.491-0.983-0.983-1.72-1.229-2.457
	c0,0.491,0.246,1.229,0.246,2.457v21.379H540.86z M582.635,335.624c-3.686,0-6.635-1.229-8.846-3.44
	c-2.212-2.212-3.195-5.652-3.195-9.584c0-3.932,0.983-7.126,3.195-9.584s5.16-3.686,8.846-3.686c3.686,0,6.635,1.229,8.846,3.686
	s3.195,5.652,3.195,9.584s-0.983,7.126-3.195,9.584S586.321,335.624,582.635,335.624z M582.635,330.218
	c1.966,0,3.686-0.737,4.669-1.966c0.983-1.474,1.72-3.195,1.72-5.652c0-2.457-0.491-4.177-1.72-5.652
	c-1.229-1.474-2.703-2.212-4.669-2.212c-1.966,0-3.44,0.737-4.669,2.212c-1.229,1.474-1.72,3.195-1.72,5.652
	c0,2.457,0.491,4.177,1.72,5.652C579.195,329.727,580.423,330.218,582.635,330.218z M614.58,309.331
	c2.703,0,4.915,0.737,6.635,2.457c1.72,1.72,2.703,4.177,2.703,7.863v15.236h-5.652v-14.253c0-2.212-0.491-3.686-1.474-4.669
	c-0.983-0.983-2.212-1.474-3.686-1.474c-3.686,0-5.652,1.966-5.652,6.143v14.253h-5.652v-25.065h5.16v3.195
	c0.491-0.983,1.474-1.72,2.949-2.457S612.86,309.331,614.58,309.331z M631.536,323.338v-5.406h23.099v5.406H631.536z
	 M679.208,305.153c-1.229,0-2.212,0.246-2.949,0.737c-0.737,0.491-1.229,0.983-1.229,1.966v2.457h8.355v4.915h-8.355v15.235h6.635
	v4.915h-17.693v-4.915h5.406v-15.235h-5.406v-4.915h5.406v-3.44c0-2.457,0.737-3.932,2.457-4.915
	c1.72-0.983,3.686-1.474,6.143-1.474s4.423,0.491,5.898,1.229v4.669C682.648,305.399,681.174,305.153,679.208,305.153z
	 M702.061,335.624c-2.703,0-4.915-0.737-6.88-2.457c-1.966-1.72-2.703-4.177-2.703-7.863v-15.235h5.652v14.007
	c0,4.177,1.72,6.143,5.16,6.143c3.686,0,5.652-1.966,5.652-6.143v-14.253h5.652v25.311h-5.652v-2.457
	C707.468,334.641,705.01,335.624,702.061,335.624z M735.727,309.331c2.703,0,4.915,0.737,6.635,2.457
	c1.72,1.72,2.703,4.177,2.703,7.863v15.236h-5.652v-14.253c0-2.212-0.492-3.686-1.474-4.669c-0.983-0.983-2.212-1.474-3.686-1.474
	c-3.686,0-5.652,1.966-5.652,6.143v14.253h-5.652v-25.065h5.16v3.195c0.492-0.983,1.474-1.72,2.949-2.457
	C732.287,309.822,734.007,309.331,735.727,309.331z M762.758,345.208l-2.949-4.669c3.44-0.246,5.898-0.737,7.126-1.72
	c1.229-0.737,1.966-2.212,1.966-3.932v-1.474c-1.229,1.474-3.195,2.212-5.898,2.212c-3.195,0-5.652-1.229-7.618-3.44
	c-1.966-2.212-2.949-5.406-2.949-9.829c0-3.932,0.983-7.126,2.949-9.584c1.966-2.457,4.423-3.44,7.618-3.44
	c2.457,0,4.423,0.737,5.652,2.212v-1.474h5.652v22.362c0,4.177-0.983,7.372-2.703,9.338
	C770.13,343.734,766.935,344.716,762.758,345.208z M763.986,330.218c2.212,0,3.686-0.737,4.915-2.457v-10.567
	c-1.229-1.72-2.703-2.457-4.915-2.457c-1.966,0-3.195,0.737-4.177,1.966c-0.983,1.229-1.474,3.195-1.474,5.898
	c0,2.457,0.492,4.177,1.474,5.652C760.792,329.727,762.266,330.218,763.986,330.218z M794.703,306.628
	c-0.983,0-1.72-0.246-2.457-0.983c-0.737-0.737-0.983-1.474-0.983-2.457c0-0.983,0.246-1.72,0.983-2.457s1.474-0.983,2.457-0.983
	s1.72,0.246,2.457,0.983c0.737,0.737,0.983,1.474,0.983,2.457c0,0.983-0.246,1.72-0.983,2.457
	C796.423,306.136,795.686,306.628,794.703,306.628z M797.406,330.218h6.88v4.915h-19.413v-4.915h6.88v-15.235h-6.88v-4.915h12.532
	V330.218z M825.911,335.624c-2.703,0-4.915-0.737-6.389-2.457v1.966h-5.652v-32.928l5.652-2.703v12.287
	c0.737-0.737,1.72-1.474,2.949-1.966c1.229-0.491,2.457-0.737,3.686-0.737c3.194,0,5.652,1.229,7.618,3.44
	c1.966,2.457,2.949,5.652,2.949,9.584c0,4.177-0.983,7.372-2.949,9.829C831.809,334.641,829.352,335.624,825.911,335.624z
	 M825.174,330.218c1.966,0,3.44-0.737,4.423-1.966c0.983-1.474,1.474-3.195,1.474-5.652c0-2.457-0.491-4.423-1.474-5.898
	c-0.983-1.229-2.457-1.966-4.423-1.966c-1.229,0-2.457,0.246-3.44,0.737s-1.72,0.983-2.212,1.72v10.567
	C820.751,329.481,822.717,330.218,825.174,330.218z M857.857,330.218h7.372v4.915h-20.396v-4.915h7.372v-25.556h-5.898l-2.703-4.915
	h14.007v30.471H857.857z M896.683,321.372c0,1.474,0,2.703-0.246,3.44h-17.201c0.246,1.72,0.983,3.195,2.212,4.423
	c0.983,0.983,2.457,1.474,4.178,1.474c2.212,0,3.932-0.737,5.652-2.457l3.44,3.686c-2.457,2.703-5.406,3.932-9.092,3.932
	c-3.686,0-6.635-1.229-8.846-3.686c-2.212-2.457-3.194-5.652-3.194-9.584c0-4.177,0.983-7.372,3.194-9.584
	c2.212-2.212,5.16-3.44,8.846-3.44c3.195,0,5.898,0.983,7.864,2.949C895.7,314.491,896.683,317.44,896.683,321.372z
	 M879.481,319.897h11.795c-0.246-1.72-0.737-3.195-1.72-4.177c-0.983-0.983-2.212-1.474-3.686-1.474
	c-1.72,0-3.195,0.491-4.423,1.474C880.464,316.949,879.727,318.177,879.481,319.897z M645.297,399.515
	c-4.915,0-7.372-2.212-7.372-6.881v-14.007h-5.16v-4.915h5.16v-7.618l5.652-2.703v10.321h8.601v4.915h-8.601v12.778
	c0,1.966,1.229,2.949,3.44,2.949c1.474,0,2.703-0.491,4.423-1.229l-0.737,5.16C649.474,399.269,647.509,399.515,645.297,399.515z
	 M673.311,399.515c-3.686,0-6.635-1.229-8.846-3.44c-2.212-2.212-3.194-5.652-3.194-9.584c0-3.932,0.983-7.126,3.194-9.584
	c2.212-2.457,5.16-3.686,8.846-3.686c3.686,0,6.635,1.229,8.846,3.686c2.212,2.457,3.195,5.652,3.195,9.584
	c0,3.932-0.983,7.126-3.195,9.584C679.945,398.532,676.997,399.515,673.311,399.515z M673.311,394.109
	c1.966,0,3.686-0.737,4.669-1.966c0.983-1.474,1.72-3.195,1.72-5.652s-0.491-4.177-1.72-5.652c-0.983-1.474-2.703-2.212-4.669-2.212
	c-1.966,0-3.44,0.737-4.669,2.212c-1.229,1.474-1.72,3.195-1.72,5.652s0.491,4.177,1.72,5.652
	C669.87,393.618,671.345,394.109,673.311,394.109z M709.433,399.024l-7.126-13.761l-3.686,3.686v10.321h-5.652v-32.928l5.652-2.703
	v18.922l8.846-8.601h6.635l-7.618,7.372l9.092,17.939h-6.143V399.024z M745.311,385.263c0,1.474,0,2.703-0.246,3.44h-17.201
	c0.246,1.72,0.983,3.195,2.212,4.423c0.983,0.983,2.457,1.474,4.177,1.474c2.212,0,3.932-0.737,5.652-2.457l3.44,3.686
	c-2.457,2.703-5.406,3.932-9.092,3.932c-3.686,0-6.635-1.229-8.846-3.686s-3.195-5.652-3.195-9.584c0-4.177,0.983-7.372,3.195-9.584
	c2.212-2.212,5.16-3.44,8.846-3.44c3.195,0,5.898,0.983,7.864,2.949C744.328,378.382,745.311,381.331,745.311,385.263z
	 M728.109,383.788h11.795c-0.246-1.72-0.737-3.195-1.72-4.177c-0.983-0.983-2.212-1.474-3.686-1.474
	c-1.72,0-3.194,0.491-4.423,1.474C729.092,380.839,728.355,382.068,728.109,383.788z M765.952,373.222
	c2.703,0,4.915,0.737,6.635,2.457s2.703,4.177,2.703,7.863v15.236h-5.652v-14.253c0-2.212-0.491-3.686-1.474-4.669
	c-0.983-0.983-2.212-1.474-3.686-1.474c-3.686,0-5.652,1.966-5.652,6.143v14.253h-5.652v-25.065h5.16v3.195
	c0.491-0.983,1.474-1.72,2.949-2.457C762.758,373.713,764.232,373.222,765.952,373.222z M794.703,399.515
	c-2.212,0-4.177-0.491-5.898-1.229s-3.195-1.966-4.423-3.195l3.686-3.44c1.966,1.966,4.423,2.949,6.88,2.949
	c1.229,0,2.212-0.246,2.949-0.737c0.737-0.491,1.229-0.983,1.229-1.966c0-0.491-0.246-0.983-0.737-1.474
	c-0.491-0.491-0.983-0.737-1.72-0.983c-0.737-0.246-1.474-0.737-2.703-1.229c-0.246,0-0.246,0-0.246-0.246h-0.246
	c-0.246,0-0.246,0-0.246-0.246c-1.229-0.491-2.212-0.983-2.703-1.229c-0.492-0.246-1.229-0.737-2.212-1.229
	c-0.737-0.491-1.474-0.983-1.72-1.474c-0.492-0.491-0.737-0.983-0.983-1.72c-0.246-0.737-0.491-1.474-0.491-2.457
	c0-2.212,0.983-3.686,2.703-5.16c1.72-1.229,4.177-1.966,6.881-1.966c3.932,0,7.126,1.229,9.338,3.932l-3.686,3.195
	c-1.72-1.474-3.686-2.212-5.898-2.212c-1.229,0-2.212,0.246-2.949,0.491c-0.737,0.491-1.229,0.983-1.229,1.72
	c0,0.246,0.246,0.737,0.492,0.983c0.246,0.246,0.737,0.737,1.474,0.983c0.737,0.246,1.229,0.491,1.72,0.737
	c0.491,0.246,1.229,0.491,2.212,0.737c2.949,1.229,4.915,2.212,5.898,2.949c1.72,1.474,2.703,3.195,2.703,5.406
	c0,2.212-0.983,4.177-2.703,5.406C800.355,398.041,797.652,399.515,794.703,399.515z"/>
<g>
	<path fill="#2C2F31" d="M1228.332,325.447h-6.576l-6.527-12l-6.433,12h-6.576l9.984-17.376l-9.312-16.224h6.575l5.809,10.752
		l5.76-10.752h6.576l-9.312,16.128L1228.332,325.447z"/>
	<path fill="#2C2F31" d="M1245.324,326.023c-3.456,0-6.191-1.136-8.208-3.408c-2.016-2.271-3.023-5.407-3.023-9.408
		c0-3.967,1.032-7.104,3.096-9.408c2.064-2.304,4.808-3.455,8.232-3.455c5.215,0,8.575,2.224,10.08,6.672l-5.232,1.775
		c-0.832-2.144-2.433-3.216-4.8-3.216c-1.824,0-3.24,0.688-4.248,2.064s-1.512,3.232-1.512,5.567c0,2.337,0.504,4.176,1.512,5.521
		c1.008,1.344,2.392,2.016,4.151,2.016c2.561,0,4.24-1.2,5.04-3.6l5.232,1.632C1254.172,323.607,1250.732,326.023,1245.324,326.023z
		"/>
	<path fill="#2C2F31" d="M1285.596,311.959c0,1.409-0.064,2.528-0.191,3.36H1268.7c0.352,1.792,1.063,3.208,2.136,4.248
		c1.071,1.04,2.455,1.56,4.152,1.56c2.144,0,3.951-0.799,5.424-2.399l3.312,3.504c-2.304,2.528-5.231,3.792-8.784,3.792
		c-3.616,0-6.472-1.168-8.567-3.504c-2.097-2.336-3.145-5.456-3.145-9.36c0-3.968,1.057-7.096,3.168-9.384
		c2.112-2.288,4.96-3.432,8.544-3.432c3.136,0,5.696,0.983,7.681,2.951C1284.604,305.264,1285.596,308.151,1285.596,311.959z
		 M1268.652,310.615h11.52c-0.16-1.792-0.729-3.144-1.704-4.056c-0.977-0.912-2.152-1.368-3.528-1.368
		c-1.76,0-3.176,0.479-4.247,1.439C1269.619,307.591,1268.939,308.92,1268.652,310.615z"/>
	<path fill="#2C2F31" d="M1310.363,300.344c2.208,0,4.128,0.432,5.76,1.296v9.071h-5.376v-5.231h-0.479
		c-2.528,0-4.48,0.592-5.856,1.775c-1.376,1.185-2.063,2.961-2.063,5.328v8.017h6.863v4.848h-17.567V320.6h5.184v-14.832h-5.184
		v-4.849h10.319v3.937c0.673-1.408,1.776-2.512,3.312-3.312C1306.812,300.744,1308.507,300.344,1310.363,300.344z"/>
	<path fill="#2C2F31" d="M1335.804,326.023c-4.8,0-7.2-2.224-7.2-6.672v-13.584h-5.136v-4.849h5.136v-7.487l5.521-2.641v10.128
		h8.352v4.849h-8.352v12.527c0,1.889,1.151,2.832,3.456,2.832c1.344,0,2.751-0.384,4.224-1.151l-0.672,4.943
		C1339.724,325.655,1337.947,326.023,1335.804,326.023z"/>
</g>
</svg>
