<?xml version="1.0" encoding="UTF-8"?>
<svg width="728px" height="526px" viewBox="0 0 728 526" version="1.1" xmlns="http://www.w3.org/2000/svg" xmlns:xlink="http://www.w3.org/1999/xlink" style="background: #FFFFFF;">
    <!-- Generator: Sketch 49.1 (51147) - http://www.bohemiancoding.com/sketch -->
    <title>02</title>
    <desc>Created with Sketch.</desc>
    <defs></defs>
    <g id="02" stroke="none" stroke-width="1" fill="none" fill-rule="evenodd">
        <path d="M268,202 L268,233" id="Line-5" stroke="#AAB1B5" stroke-linecap="round" stroke-linejoin="round"></path>
        <path d="M76,193 L76,233" id="Line-5" stroke="#AAB1B5" stroke-linecap="round" stroke-linejoin="round"></path>
        <path d="M171,283 L171,324" id="Line-5" stroke="#AAB1B5" stroke-linecap="round" stroke-linejoin="round"></path>
        <path d="M365,190 L365,234" id="Line-5" stroke="#AAB1B5" stroke-linecap="round" stroke-linejoin="round"></path>
        <path d="M557,283 L557,315" id="Line-5" stroke="#AAB1B5" stroke-linecap="round" stroke-linejoin="round"></path>
        <path d="M460,283 L460,342" id="Line-5" stroke="#AAB1B5" stroke-linecap="round" stroke-linejoin="round"></path>
        <path d="M557,113 L557,233" id="Line-5" stroke="#AAB1B5" stroke-linecap="round" stroke-linejoin="round"></path>
        <path d="M653,182 L653,232" id="Line-5" stroke="#AAB1B5" stroke-linecap="round" stroke-linejoin="round"></path>
        <path d="M461,145 C461,145.665459 461,174.665459 461,232" id="Line-5" stroke="#AAB1B5" stroke-linecap="round" stroke-linejoin="round"></path>
        <path d="M653,283 L653,395" id="Line-5" stroke="#AAB1B5" stroke-linecap="round" stroke-linejoin="round"></path>
        <path d="M364,283 L364,348" id="Line-5" stroke="#AAB1B5" stroke-linecap="round" stroke-linejoin="round"></path>
        <path d="M75,283 L75,390" id="Line-5" stroke="#AAB1B5" stroke-linecap="round" stroke-linejoin="round"></path>
        <path d="M172,124 L172,233" id="Line-5" stroke="#AAB1B5" stroke-linecap="round" stroke-linejoin="round"></path>
        <path d="M268,283 L268,371" id="Line-5" stroke="#AAB1B5" stroke-linecap="round" stroke-linejoin="round"></path>
        <g id="Blockchain" transform="translate(15.000000, 233.000000)">
            <polygon stroke="#2C2F31" fill="#F7F7F7" stroke-linecap="round" stroke-linejoin="round" points="0 0 696.482447 0 696.482447 50 0 49.8651167"></polygon>
            <text font-family="OverpassMono-Bold, Overpass Mono" font-size="16" font-weight="bold" fill="#2C2F31">
                <tspan x="298.22" y="31">Blockchain</tspan>
            </text>
        </g>
        <g id="Coin" transform="translate(328.000000, 116.000000)">
            <circle id="Oval" stroke="#2C2F31" fill="#000000" cx="36.5" cy="36.5" r="36.5"></circle>
            <path d="M31.28,42 L29.088,42 L26.912,38 L24.768,42 L22.576,42 L25.904,36.208 L22.8,30.8 L24.992,30.8 L26.928,34.384 L28.848,30.8 L31.04,30.8 L27.936,36.176 L31.28,42 Z M36.976,42.176 C36.3466635,42.176 35.7786692,42.0640011 35.272,41.84 C34.7653308,41.6159989 34.3440017,41.3200018 34.008,40.952 C33.6719983,40.5839982 33.3920011,40.1466692 33.168,39.64 C32.9439989,39.1333308 32.7840005,38.6106694 32.688,38.072 C32.5919995,37.5333306 32.544,36.9760029 32.544,36.4 C32.544,35.6959965 32.6266658,35.0160033 32.792,34.36 C32.9573342,33.7039967 33.210665,33.0906695 33.552,32.52 C33.893335,31.9493305 34.3573304,31.4906684 34.944,31.144 C35.5306696,30.7973316 36.2079962,30.624 36.976,30.624 C37.850671,30.624 38.5813304,30.8479978 39.168,31.296 C39.7546696,31.7440022 40.181332,32.2986634 40.448,32.96 L38.752,33.776 C38.5173322,33.3279978 38.2640014,32.9920011 37.992,32.768 C37.7199986,32.5439989 37.3813354,32.432 36.976,32.432 C36.3999971,32.432 35.9200019,32.6453312 35.536,33.072 C35.1519981,33.4986688 34.8853341,33.9973305 34.736,34.568 C34.5866659,35.1386695 34.512,35.7493301 34.512,36.4 C34.512,37.4560053 34.7253312,38.3813294 35.152,39.176 C35.5786688,39.9706706 36.1866627,40.368 36.976,40.368 C37.7226704,40.368 38.3199978,39.8880048 38.768,38.928 L40.496,39.584 C39.7919965,41.3120086 38.6186749,42.176 36.976,42.176 Z M45.68,42 L45.68,32.624 L42.432,32.624 L42.432,30.8 L50.848,30.8 L50.848,32.624 L47.584,32.624 L47.584,42 L45.68,42 Z" id="XCT" fill="#FFFFFF"></path>
        </g>
        <g id="Coin" transform="translate(520.000000, 314.000000)">
            <circle id="Oval" stroke="#2C2F31" fill="#000000" cx="36.5" cy="36.5" r="36.5"></circle>
            <path d="M31.28,42 L29.088,42 L26.912,38 L24.768,42 L22.576,42 L25.904,36.208 L22.8,30.8 L24.992,30.8 L26.928,34.384 L28.848,30.8 L31.04,30.8 L27.936,36.176 L31.28,42 Z M36.976,42.176 C36.3466635,42.176 35.7786692,42.0640011 35.272,41.84 C34.7653308,41.6159989 34.3440017,41.3200018 34.008,40.952 C33.6719983,40.5839982 33.3920011,40.1466692 33.168,39.64 C32.9439989,39.1333308 32.7840005,38.6106694 32.688,38.072 C32.5919995,37.5333306 32.544,36.9760029 32.544,36.4 C32.544,35.6959965 32.6266658,35.0160033 32.792,34.36 C32.9573342,33.7039967 33.210665,33.0906695 33.552,32.52 C33.893335,31.9493305 34.3573304,31.4906684 34.944,31.144 C35.5306696,30.7973316 36.2079962,30.624 36.976,30.624 C37.850671,30.624 38.5813304,30.8479978 39.168,31.296 C39.7546696,31.7440022 40.181332,32.2986634 40.448,32.96 L38.752,33.776 C38.5173322,33.3279978 38.2640014,32.9920011 37.992,32.768 C37.7199986,32.5439989 37.3813354,32.432 36.976,32.432 C36.3999971,32.432 35.9200019,32.6453312 35.536,33.072 C35.1519981,33.4986688 34.8853341,33.9973305 34.736,34.568 C34.5866659,35.1386695 34.512,35.7493301 34.512,36.4 C34.512,37.4560053 34.7253312,38.3813294 35.152,39.176 C35.5786688,39.9706706 36.1866627,40.368 36.976,40.368 C37.7226704,40.368 38.3199978,39.8880048 38.768,38.928 L40.496,39.584 C39.7919965,41.3120086 38.6186749,42.176 36.976,42.176 Z M45.68,42 L45.68,32.624 L42.432,32.624 L42.432,30.8 L50.848,30.8 L50.848,32.624 L47.584,32.624 L47.584,42 L45.68,42 Z" id="XCT" fill="#FFFFFF"></path>
        </g>
        <g id="Coin" transform="translate(135.000000, 322.000000)">
            <circle id="Oval" stroke="#2C2F31" fill="#000000" cx="36.5" cy="36.5" r="36.5"></circle>
            <path d="M31.28,42 L29.088,42 L26.912,38 L24.768,42 L22.576,42 L25.904,36.208 L22.8,30.8 L24.992,30.8 L26.928,34.384 L28.848,30.8 L31.04,30.8 L27.936,36.176 L31.28,42 Z M36.976,42.176 C36.3466635,42.176 35.7786692,42.0640011 35.272,41.84 C34.7653308,41.6159989 34.3440017,41.3200018 34.008,40.952 C33.6719983,40.5839982 33.3920011,40.1466692 33.168,39.64 C32.9439989,39.1333308 32.7840005,38.6106694 32.688,38.072 C32.5919995,37.5333306 32.544,36.9760029 32.544,36.4 C32.544,35.6959965 32.6266658,35.0160033 32.792,34.36 C32.9573342,33.7039967 33.210665,33.0906695 33.552,32.52 C33.893335,31.9493305 34.3573304,31.4906684 34.944,31.144 C35.5306696,30.7973316 36.2079962,30.624 36.976,30.624 C37.850671,30.624 38.5813304,30.8479978 39.168,31.296 C39.7546696,31.7440022 40.181332,32.2986634 40.448,32.96 L38.752,33.776 C38.5173322,33.3279978 38.2640014,32.9920011 37.992,32.768 C37.7199986,32.5439989 37.3813354,32.432 36.976,32.432 C36.3999971,32.432 35.9200019,32.6453312 35.536,33.072 C35.1519981,33.4986688 34.8853341,33.9973305 34.736,34.568 C34.5866659,35.1386695 34.512,35.7493301 34.512,36.4 C34.512,37.4560053 34.7253312,38.3813294 35.152,39.176 C35.5786688,39.9706706 36.1866627,40.368 36.976,40.368 C37.7226704,40.368 38.3199978,39.8880048 38.768,38.928 L40.496,39.584 C39.7919965,41.3120086 38.6186749,42.176 36.976,42.176 Z M45.68,42 L45.68,32.624 L42.432,32.624 L42.432,30.8 L50.848,30.8 L50.848,32.624 L47.584,32.624 L47.584,42 L45.68,42 Z" id="XCT" fill="#FFFFFF"></path>
        </g>
        <g id="Coin" transform="translate(136.000000, 53.000000)">
            <circle id="Oval" stroke="#2C2F31" fill="#F7F7F7" stroke-linecap="round" stroke-linejoin="round" cx="36.5" cy="36.5" r="36.5"></circle>
            <path d="M23.216,42 L23.216,30.8 L30.4,30.8 L30.4,32.608 L25.12,32.608 L25.12,35.312 L28.56,35.312 L28.56,37.12 L25.12,37.12 L25.12,40.192 L30.736,40.192 L30.736,42 L23.216,42 Z M35.824,42 L35.824,32.624 L32.576,32.624 L32.576,30.8 L40.992,30.8 L40.992,32.624 L37.728,32.624 L37.728,42 L35.824,42 Z M42.928,42 L42.928,30.8 L44.832,30.8 L44.832,35.328 L48.448,35.328 L48.448,30.8 L50.352,30.8 L50.352,42 L48.448,42 L48.448,37.12 L44.832,37.12 L44.832,42 L42.928,42 Z" id="ETH" fill="#2C2F31"></path>
        </g>
        <g id="Coin" transform="translate(520.000000, 40.000000)">
            <circle id="Oval" stroke="#2C2F31" fill="#F7F7F7" stroke-linecap="round" stroke-linejoin="round" cx="36.5" cy="36.5" r="36.5"></circle>
            <path d="M25.224,32.48 L22.872,32.48 L22.872,40.32 L25.224,40.32 L25.224,42 L18.632,42 L18.632,40.32 L20.968,40.32 L20.968,32.48 L18.632,32.48 L18.632,30.8 L25.224,30.8 L25.224,32.48 Z M31.784,42.192 C30.8239952,42.192 30.0160033,41.9120028 29.36,41.352 C28.7039967,40.7919972 28.2373347,40.0906709 27.96,39.248 C27.6826653,38.4053291 27.544,37.4560053 27.544,36.4 C27.544,35.3439947 27.6826653,34.3946709 27.96,33.552 C28.2373347,32.7093291 28.7039967,32.0080028 29.36,31.448 C30.0160033,30.8879972 30.8239952,30.608 31.784,30.608 C32.3706696,30.608 32.9039976,30.711999 33.384,30.92 C33.8640024,31.128001 34.266665,31.4133315 34.592,31.776 C34.917335,32.1386685 35.1893322,32.5679975 35.408,33.064 C35.6266678,33.5600025 35.7866662,34.0853306 35.888,34.64 C35.9893338,35.1946694 36.04,35.7813302 36.04,36.4 C36.04,37.0186698 35.9893338,37.6053306 35.888,38.16 C35.7866662,38.7146694 35.6266678,39.2399975 35.408,39.736 C35.1893322,40.2320025 34.917335,40.6613315 34.592,41.024 C34.266665,41.3866685 33.8640024,41.671999 33.384,41.88 C32.9039976,42.088001 32.3706696,42.192 31.784,42.192 Z M31.784,40.384 C32.2853358,40.384 32.7119982,40.1866686 33.064,39.792 C33.4160018,39.3973314 33.6693326,38.9093362 33.824,38.328 C33.9786674,37.7466638 34.056,37.1040035 34.056,36.4 C34.056,35.2479942 33.8666686,34.2960038 33.488,33.544 C33.1093314,32.7919962 32.5413371,32.416 31.784,32.416 C31.0373296,32.416 30.4720019,32.8026628 30.088,33.576 C29.7039981,34.3493372 29.512,35.2906611 29.512,36.4 C29.512,37.541339 29.7013314,38.4906629 30.08,39.248 C30.4586686,40.0053371 31.0266629,40.384 31.784,40.384 Z M40.68,42 L40.68,32.624 L37.432,32.624 L37.432,30.8 L45.848,30.8 L45.848,32.624 L42.584,32.624 L42.584,42 L40.68,42 Z M54.008,42 L53.272,39.536 L49.72,39.536 L48.984,42 L46.936,42 L50.6,30.8 L52.392,30.8 L56.056,42 L54.008,42 Z M50.232,37.808 L52.76,37.808 L51.768,34.48 C51.6613328,34.138665 51.570667,33.7226691 51.496,33.232 C51.3679994,33.8826699 51.2773336,34.2986658 51.224,34.48 L50.232,37.808 Z" id="IOTA" fill="#2C2F31"></path>
        </g>
        <g id="Coin" transform="translate(617.000000, 109.000000)">
            <circle id="Oval" stroke="#2C2F31" fill="#F7F7F7" stroke-linecap="round" stroke-linejoin="round" cx="36.5" cy="36.5" r="36.5"></circle>
            <path d="M26.928,42.192 C25.9679952,42.192 25.1600033,41.9120028 24.504,41.352 C23.8479967,40.7919972 23.3813347,40.0906709 23.104,39.248 C22.8266653,38.4053291 22.688,37.4560053 22.688,36.4 C22.688,35.3439947 22.8266653,34.3946709 23.104,33.552 C23.3813347,32.7093291 23.8479967,32.0080028 24.504,31.448 C25.1600033,30.8879972 25.9679952,30.608 26.928,30.608 C27.5146696,30.608 28.0479976,30.711999 28.528,30.92 C29.0080024,31.128001 29.410665,31.4133315 29.736,31.776 C30.061335,32.1386685 30.3333322,32.5679975 30.552,33.064 C30.7706678,33.5600025 30.9306662,34.0853306 31.032,34.64 C31.1333338,35.1946694 31.184,35.7813302 31.184,36.4 C31.184,37.0186698 31.1333338,37.6053306 31.032,38.16 C30.9306662,38.7146694 30.7706678,39.2399975 30.552,39.736 C30.3333322,40.2320025 30.061335,40.6613315 29.736,41.024 C29.410665,41.3866685 29.0080024,41.671999 28.528,41.88 C28.0479976,42.088001 27.5146696,42.192 26.928,42.192 Z M26.928,40.384 C27.4293358,40.384 27.8559982,40.1866686 28.208,39.792 C28.5600018,39.3973314 28.8133326,38.9093362 28.968,38.328 C29.1226674,37.7466638 29.2,37.1040035 29.2,36.4 C29.2,35.2479942 29.0106686,34.2960038 28.632,33.544 C28.2533314,32.7919962 27.6853371,32.416 26.928,32.416 C26.1813296,32.416 25.6160019,32.8026628 25.232,33.576 C24.8479981,34.3493372 24.656,35.2906611 24.656,36.4 C24.656,37.541339 24.8453314,38.4906629 25.224,39.248 C25.6026686,40.0053371 26.1706629,40.384 26.928,40.384 Z M33.072,42 L33.072,30.8 L34.928,30.8 L36.544,36.944 C36.6933341,37.4986694 36.7839998,37.8666658 36.816,38.048 C36.8586669,37.706665 36.9493326,37.3386686 37.088,36.944 L38.752,30.8 L40.496,30.8 L40.496,42 L38.848,42 L38.848,35.92 C38.848,35.4506643 38.8586666,35.1413341 38.88,34.992 L38.576,35.92 L36.864,42 L36.704,42 L34.992,35.92 L34.688,34.992 C34.7093334,35.2906682 34.72,35.5999984 34.72,35.92 L34.72,42 L33.072,42 Z M46.816,42.192 C45.8453285,42.192 45.0186701,41.9066695 44.336,41.336 C43.6533299,40.7653305 43.1600015,40.0560042 42.856,39.208 C42.5519985,38.3599958 42.4,37.4240051 42.4,36.4 C42.4,35.4293285 42.5573318,34.514671 42.872,33.656 C43.1866682,32.797329 43.6879966,32.0746696 44.376,31.488 C45.0640034,30.9013304 45.8773286,30.608 46.816,30.608 C47.6800043,30.608 48.3759974,30.8106646 48.904,31.216 C49.4320026,31.6213354 49.8879981,32.1706632 50.272,32.864 L48.592,33.824 C48.0906642,32.8853286 47.4986701,32.416 46.816,32.416 C46.2506638,32.416 45.7786686,32.6319978 45.4,33.064 C45.0213314,33.4960022 44.7573341,33.9973305 44.608,34.568 C44.4586659,35.1386695 44.384,35.7493301 44.384,36.4 C44.384,37.4986722 44.5919979,38.4373294 45.008,39.216 C45.4240021,39.9946706 46.0266627,40.384 46.816,40.384 C47.3920029,40.384 47.8319985,40.1920019 48.136,39.808 C48.4400015,39.4239981 48.592,38.9226698 48.592,38.304 L48.592,38.064 L46.64,38.064 L46.64,36.272 L50.544,36.272 L50.544,37.824 C50.544,39.2000069 50.1973368,40.2719962 49.504,41.04 C48.8106632,41.8080038 47.9146722,42.192 46.816,42.192 Z" id="OMG" fill="#2C2F31"></path>
        </g>
        <g id="Coin" transform="translate(328.000000, 347.000000)">
            <circle id="Oval" stroke="#2C2F31" fill="#F7F7F7" stroke-linecap="round" stroke-linejoin="round" cx="36.5" cy="36.5" r="36.5"></circle>
            <path d="M23.216,42 L23.216,30.8 L30.4,30.8 L30.4,32.608 L25.12,32.608 L25.12,35.312 L28.56,35.312 L28.56,37.12 L25.12,37.12 L25.12,40.192 L30.736,40.192 L30.736,42 L23.216,42 Z M35.824,42 L35.824,32.624 L32.576,32.624 L32.576,30.8 L40.992,30.8 L40.992,32.624 L37.728,32.624 L37.728,42 L35.824,42 Z M42.928,42 L42.928,30.8 L44.832,30.8 L44.832,35.328 L48.448,35.328 L48.448,30.8 L50.352,30.8 L50.352,42 L48.448,42 L48.448,37.12 L44.832,37.12 L44.832,42 L42.928,42 Z" id="ETH" fill="#2C2F31"></path>
        </g>
        <g id="Coin" transform="translate(39.000000, 390.000000)">
            <circle id="Oval" stroke="#2C2F31" fill="#F7F7F7" stroke-linecap="round" stroke-linejoin="round" cx="36.5" cy="36.5" r="36.5"></circle>
            <path d="M26.9116243,34.3393509 C26.9007761,34.4352775 26.8769015,34.5754925 26.84,34.76 C26.8026665,34.9466676 26.7786667,35.0719997 26.768,35.136 L25.36,42 L23.856,42 L22.208,30.8 L23.92,30.8 L24.8,37.472 C24.8106667,37.5146669 24.8239999,37.5893328 24.84,37.696 C24.8560001,37.8026672 24.8693333,37.9013329 24.88,37.992 C24.8906667,38.0826671 24.9013333,38.1706662 24.912,38.256 C24.9333334,38.1173326 24.9866662,37.8506686 25.072,37.456 L26.416,30.8 L27.44,30.8 L28.8,37.424 C28.8960005,37.8933357 28.9493333,38.1546664 28.96,38.208 C28.9706667,38.1013328 28.9919998,37.952001 29.024,37.76 C29.0560002,37.567999 29.072,37.4613334 29.072,37.44 L29.84,30.8 L31.648,30.8 L29.984,42 L28.48,42 L27.056,35.152 C26.9920005,34.821336 26.9440014,34.5493415 26.9120013,34.3360084 L26.9116243,34.3393509 Z M35.824,42 L35.824,32.624 L32.576,32.624 L32.576,30.8 L40.992,30.8 L40.992,32.624 L37.728,32.624 L37.728,42 L35.824,42 Z M46.832,42.176 C46.2026635,42.176 45.6346692,42.0640011 45.128,41.84 C44.6213308,41.6159989 44.2000017,41.3200018 43.864,40.952 C43.5279983,40.5839982 43.2480011,40.1466692 43.024,39.64 C42.7999989,39.1333308 42.6400005,38.6106694 42.544,38.072 C42.4479995,37.5333306 42.4,36.9760029 42.4,36.4 C42.4,35.6959965 42.4826658,35.0160033 42.648,34.36 C42.8133342,33.7039967 43.066665,33.0906695 43.408,32.52 C43.749335,31.9493305 44.2133304,31.4906684 44.8,31.144 C45.3866696,30.7973316 46.0639962,30.624 46.832,30.624 C47.706671,30.624 48.4373304,30.8479978 49.024,31.296 C49.6106696,31.7440022 50.037332,32.2986634 50.304,32.96 L48.608,33.776 C48.3733322,33.3279978 48.1200014,32.9920011 47.848,32.768 C47.5759986,32.5439989 47.2373354,32.432 46.832,32.432 C46.2559971,32.432 45.7760019,32.6453312 45.392,33.072 C45.0079981,33.4986688 44.7413341,33.9973305 44.592,34.568 C44.4426659,35.1386695 44.368,35.7493301 44.368,36.4 C44.368,37.4560053 44.5813312,38.3813294 45.008,39.176 C45.4346688,39.9706706 46.0426627,40.368 46.832,40.368 C47.5786704,40.368 48.1759978,39.8880048 48.624,38.928 L50.352,39.584 C49.6479965,41.3120086 48.4746749,42.176 46.832,42.176 Z" id="WTC" fill="#2C2F31"></path>
        </g>
        <g id="Coin" transform="translate(616.000000, 395.000000)">
            <circle id="Oval" stroke="#2C2F31" fill="#F7F7F7" stroke-linecap="round" stroke-linejoin="round" cx="36.5" cy="36.5" r="36.5"></circle>
            <path d="M23.216,42 L23.216,30.8 L25.12,30.8 L25.12,40.176 L30.288,40.176 L30.288,42 L23.216,42 Z M35.824,42 L35.824,32.624 L32.576,32.624 L32.576,30.8 L40.992,30.8 L40.992,32.624 L37.728,32.624 L37.728,42 L35.824,42 Z M46.832,42.176 C46.2026635,42.176 45.6346692,42.0640011 45.128,41.84 C44.6213308,41.6159989 44.2000017,41.3200018 43.864,40.952 C43.5279983,40.5839982 43.2480011,40.1466692 43.024,39.64 C42.7999989,39.1333308 42.6400005,38.6106694 42.544,38.072 C42.4479995,37.5333306 42.4,36.9760029 42.4,36.4 C42.4,35.6959965 42.4826658,35.0160033 42.648,34.36 C42.8133342,33.7039967 43.066665,33.0906695 43.408,32.52 C43.749335,31.9493305 44.2133304,31.4906684 44.8,31.144 C45.3866696,30.7973316 46.0639962,30.624 46.832,30.624 C47.706671,30.624 48.4373304,30.8479978 49.024,31.296 C49.6106696,31.7440022 50.037332,32.2986634 50.304,32.96 L48.608,33.776 C48.3733322,33.3279978 48.1200014,32.9920011 47.848,32.768 C47.5759986,32.5439989 47.2373354,32.432 46.832,32.432 C46.2559971,32.432 45.7760019,32.6453312 45.392,33.072 C45.0079981,33.4986688 44.7413341,33.9973305 44.592,34.568 C44.4426659,35.1386695 44.368,35.7493301 44.368,36.4 C44.368,37.4560053 44.5813312,38.3813294 45.008,39.176 C45.4346688,39.9706706 46.0426627,40.368 46.832,40.368 C47.5786704,40.368 48.1759978,39.8880048 48.624,38.928 L50.352,39.584 C49.6479965,41.3120086 48.4746749,42.176 46.832,42.176 Z" id="LTC" fill="#2C2F31"></path>
        </g>
        <g id="Platform" transform="translate(240.000000, 68.000000)">
            <polygon id="Xcert-image" stroke="#2C2F31" stroke-linecap="round" stroke-linejoin="round" transform="translate(28.500000, 66.744762) scale(-1, -1) translate(-28.500000, -66.744762) " points="0 0 57 0 57 109.560952 32.5514335 133.489524 0 133.489524"></polygon>
            <path d="M39.0785222,91 L25.2723774,104.716757 C25.0306037,104.956965 25.0306037,105.34597 25.2723774,105.586179 L26.7168855,107.021334 C26.9586592,107.261543 26.9586592,107.650548 26.7168855,107.890756 L24.0681094,110.522383 C23.8268469,110.762591 23.4353065,110.762591 23.1935328,110.522383 L18.1699567,105.531332 C17.9271607,105.290108 17.9286942,104.897548 18.1740459,104.658355 L32.1677825,91 L24.8588575,91 L26.5374721,92.6682542 C26.7818015,92.9104938 26.7787346,93.3045776 26.5313383,93.5432624 L23.8360476,96.1439107 C23.5937628,96.3780249 23.2068227,96.3749779 22.9676048,96.1378166 L17.7968176,91 L15.0222988,91 C14.4595233,91 14,91.4570559 14,92.0156799 L14,118.698606 C14,119.257738 14.4595233,119.714286 15.0222988,119.714286 L17.657785,119.714286 L31.6290311,105.834005 C31.8702936,105.593796 31.8702936,105.204791 31.6290311,104.96509 L30.1840118,103.529427 C29.9422381,103.289219 29.9422381,102.900213 30.1840118,102.660005 L32.8327879,100.028378 C33.0745615,99.7886779 33.466102,99.7886779 33.7078756,100.028378 L38.7309406,105.019429 C38.9742477,105.261161 38.9722031,105.653214 38.7273626,105.892406 L24.5654578,119.714286 L32.207141,119.714286 L30.3634252,117.883015 C30.119607,117.640267 30.1226739,117.246184 30.3700702,117.007499 L33.0648497,114.406851 C33.3071345,114.172736 33.6940746,114.175783 33.9332925,114.413452 L39.2497573,119.694988 L41.8791097,119.714286 C42.441374,119.714286 42.9014085,119.257738 42.9014085,118.698606 L42.9014085,92.0156799 C42.9014085,91.4570559 42.441374,91 41.8791097,91 L39.0785222,91 Z" id="Fill-10" fill="#000000"></path>
        </g>
        <g id="Platform" transform="translate(432.000000, 12.000000)">
            <polygon id="Xcert-image" stroke="#2C2F31" stroke-linecap="round" stroke-linejoin="round" transform="translate(28.500000, 66.744762) scale(-1, -1) translate(-28.500000, -66.744762) " points="0 0 57 0 57 109.560952 32.5514335 133.489524 0 133.489524"></polygon>
            <path d="M39.0785222,91 L25.2723774,104.716757 C25.0306037,104.956965 25.0306037,105.34597 25.2723774,105.586179 L26.7168855,107.021334 C26.9586592,107.261543 26.9586592,107.650548 26.7168855,107.890756 L24.0681094,110.522383 C23.8268469,110.762591 23.4353065,110.762591 23.1935328,110.522383 L18.1699567,105.531332 C17.9271607,105.290108 17.9286942,104.897548 18.1740459,104.658355 L32.1677825,91 L24.8588575,91 L26.5374721,92.6682542 C26.7818015,92.9104938 26.7787346,93.3045776 26.5313383,93.5432624 L23.8360476,96.1439107 C23.5937628,96.3780249 23.2068227,96.3749779 22.9676048,96.1378166 L17.7968176,91 L15.0222988,91 C14.4595233,91 14,91.4570559 14,92.0156799 L14,118.698606 C14,119.257738 14.4595233,119.714286 15.0222988,119.714286 L17.657785,119.714286 L31.6290311,105.834005 C31.8702936,105.593796 31.8702936,105.204791 31.6290311,104.96509 L30.1840118,103.529427 C29.9422381,103.289219 29.9422381,102.900213 30.1840118,102.660005 L32.8327879,100.028378 C33.0745615,99.7886779 33.466102,99.7886779 33.7078756,100.028378 L38.7309406,105.019429 C38.9742477,105.261161 38.9722031,105.653214 38.7273626,105.892406 L24.5654578,119.714286 L32.207141,119.714286 L30.3634252,117.883015 C30.119607,117.640267 30.1226739,117.246184 30.3700702,117.007499 L33.0648497,114.406851 C33.3071345,114.172736 33.6940746,114.175783 33.9332925,114.413452 L39.2497573,119.694988 L41.8791097,119.714286 C42.441374,119.714286 42.9014085,119.257738 42.9014085,118.698606 L42.9014085,92.0156799 C42.9014085,91.4570559 42.441374,91 41.8791097,91 L39.0785222,91 Z" id="Fill-10" fill="#000000"></path>
        </g>
        <g id="Platform" transform="translate(460.500000, 409.000000) scale(-1, -1) translate(-460.500000, -409.000000) translate(432.000000, 342.000000)">
            <polygon id="Xcert-image" stroke="#2C2F31" stroke-linecap="round" stroke-linejoin="round" transform="translate(28.500000, 66.744762) scale(-1, -1) translate(-28.500000, -66.744762) " points="0 0 57 0 57 109.560952 32.5514335 133.489524 0 133.489524"></polygon>
            <path d="M39.0785222,91 L25.2723774,104.716757 C25.0306037,104.956965 25.0306037,105.34597 25.2723774,105.586179 L26.7168855,107.021334 C26.9586592,107.261543 26.9586592,107.650548 26.7168855,107.890756 L24.0681094,110.522383 C23.8268469,110.762591 23.4353065,110.762591 23.1935328,110.522383 L18.1699567,105.531332 C17.9271607,105.290108 17.9286942,104.897548 18.1740459,104.658355 L32.1677825,91 L24.8588575,91 L26.5374721,92.6682542 C26.7818015,92.9104938 26.7787346,93.3045776 26.5313383,93.5432624 L23.8360476,96.1439107 C23.5937628,96.3780249 23.2068227,96.3749779 22.9676048,96.1378166 L17.7968176,91 L15.0222988,91 C14.4595233,91 14,91.4570559 14,92.0156799 L14,118.698606 C14,119.257738 14.4595233,119.714286 15.0222988,119.714286 L17.657785,119.714286 L31.6290311,105.834005 C31.8702936,105.593796 31.8702936,105.204791 31.6290311,104.96509 L30.1840118,103.529427 C29.9422381,103.289219 29.9422381,102.900213 30.1840118,102.660005 L32.8327879,100.028378 C33.0745615,99.7886779 33.466102,99.7886779 33.7078756,100.028378 L38.7309406,105.019429 C38.9742477,105.261161 38.9722031,105.653214 38.7273626,105.892406 L24.5654578,119.714286 L32.207141,119.714286 L30.3634252,117.883015 C30.119607,117.640267 30.1226739,117.246184 30.3700702,117.007499 L33.0648497,114.406851 C33.3071345,114.172736 33.6940746,114.175783 33.9332925,114.413452 L39.2497573,119.694988 L41.8791097,119.714286 C42.441374,119.714286 42.9014085,119.257738 42.9014085,118.698606 L42.9014085,92.0156799 C42.9014085,91.4570559 42.441374,91 41.8791097,91 L39.0785222,91 Z" id="Fill-10" fill="#000000"></path>
        </g>
        <g id="Platform" transform="translate(48.000000, 59.000000)">
            <polygon id="Xcert-image" stroke="#2C2F31" stroke-linecap="round" stroke-linejoin="round" transform="translate(28.500000, 66.744762) scale(-1, -1) translate(-28.500000, -66.744762) " points="0 0 57 0 57 109.560952 32.5514335 133.489524 0 133.489524"></polygon>
            <path d="M39.0785222,91 L25.2723774,104.716757 C25.0306037,104.956965 25.0306037,105.34597 25.2723774,105.586179 L26.7168855,107.021334 C26.9586592,107.261543 26.9586592,107.650548 26.7168855,107.890756 L24.0681094,110.522383 C23.8268469,110.762591 23.4353065,110.762591 23.1935328,110.522383 L18.1699567,105.531332 C17.9271607,105.290108 17.9286942,104.897548 18.1740459,104.658355 L32.1677825,91 L24.8588575,91 L26.5374721,92.6682542 C26.7818015,92.9104938 26.7787346,93.3045776 26.5313383,93.5432624 L23.8360476,96.1439107 C23.5937628,96.3780249 23.2068227,96.3749779 22.9676048,96.1378166 L17.7968176,91 L15.0222988,91 C14.4595233,91 14,91.4570559 14,92.0156799 L14,118.698606 C14,119.257738 14.4595233,119.714286 15.0222988,119.714286 L17.657785,119.714286 L31.6290311,105.834005 C31.8702936,105.593796 31.8702936,105.204791 31.6290311,104.96509 L30.1840118,103.529427 C29.9422381,103.289219 29.9422381,102.900213 30.1840118,102.660005 L32.8327879,100.028378 C33.0745615,99.7886779 33.466102,99.7886779 33.7078756,100.028378 L38.7309406,105.019429 C38.9742477,105.261161 38.9722031,105.653214 38.7273626,105.892406 L24.5654578,119.714286 L32.207141,119.714286 L30.3634252,117.883015 C30.119607,117.640267 30.1226739,117.246184 30.3700702,117.007499 L33.0648497,114.406851 C33.3071345,114.172736 33.6940746,114.175783 33.9332925,114.413452 L39.2497573,119.694988 L41.8791097,119.714286 C42.441374,119.714286 42.9014085,119.257738 42.9014085,118.698606 L42.9014085,92.0156799 C42.9014085,91.4570559 42.441374,91 41.8791097,91 L39.0785222,91 Z" id="Fill-10" fill="#000000"></path>
        </g>
        <g id="Platform" transform="translate(267.500000, 438.000000) scale(-1, -1) translate(-267.500000, -438.000000) translate(239.000000, 371.000000)">
            <polygon id="Xcert-image" stroke="#2C2F31" stroke-linecap="round" stroke-linejoin="round" transform="translate(28.500000, 66.744762) scale(-1, -1) translate(-28.500000, -66.744762) " points="0 0 57 0 57 109.560952 32.5514335 133.489524 0 133.489524"></polygon>
            <path d="M39.0785222,91 L25.2723774,104.716757 C25.0306037,104.956965 25.0306037,105.34597 25.2723774,105.586179 L26.7168855,107.021334 C26.9586592,107.261543 26.9586592,107.650548 26.7168855,107.890756 L24.0681094,110.522383 C23.8268469,110.762591 23.4353065,110.762591 23.1935328,110.522383 L18.1699567,105.531332 C17.9271607,105.290108 17.9286942,104.897548 18.1740459,104.658355 L32.1677825,91 L24.8588575,91 L26.5374721,92.6682542 C26.7818015,92.9104938 26.7787346,93.3045776 26.5313383,93.5432624 L23.8360476,96.1439107 C23.5937628,96.3780249 23.2068227,96.3749779 22.9676048,96.1378166 L17.7968176,91 L15.0222988,91 C14.4595233,91 14,91.4570559 14,92.0156799 L14,118.698606 C14,119.257738 14.4595233,119.714286 15.0222988,119.714286 L17.657785,119.714286 L31.6290311,105.834005 C31.8702936,105.593796 31.8702936,105.204791 31.6290311,104.96509 L30.1840118,103.529427 C29.9422381,103.289219 29.9422381,102.900213 30.1840118,102.660005 L32.8327879,100.028378 C33.0745615,99.7886779 33.466102,99.7886779 33.7078756,100.028378 L38.7309406,105.019429 C38.9742477,105.261161 38.9722031,105.653214 38.7273626,105.892406 L24.5654578,119.714286 L32.207141,119.714286 L30.3634252,117.883015 C30.119607,117.640267 30.1226739,117.246184 30.3700702,117.007499 L33.0648497,114.406851 C33.3071345,114.172736 33.6940746,114.175783 33.9332925,114.413452 L39.2497573,119.694988 L41.8791097,119.714286 C42.441374,119.714286 42.9014085,119.257738 42.9014085,118.698606 L42.9014085,92.0156799 C42.9014085,91.4570559 42.441374,91 41.8791097,91 L39.0785222,91 Z" id="Fill-10" fill="#000000"></path>
        </g>
    </g>
</svg>