<?xml version="1.0" encoding="utf-8"?>
<!-- Generator: Adobe Illustrator 17.0.0, SVG Export Plug-In . SVG Version: 6.00 Build 0)  -->
<!DOCTYPE svg PUBLIC "-//W3C//DTD SVG 1.1//EN" "http://www.w3.org/Graphics/SVG/1.1/DTD/svg11.dtd">
<svg version="1.1" id="Layer_1" xmlns="http://www.w3.org/2000/svg" xmlns:xlink="http://www.w3.org/1999/xlink" x="0px" y="0px"
	 width="728px" height="526px" viewBox="0 0 728 526" enable-background="new 0 0 728 526" xml:space="preserve">
<title>02</title>
<desc>Created with Sketch.</desc>
<path id="Line-5" fill="none" stroke="#AAB1B5" stroke-linecap="round" stroke-linejoin="round" d="M268,202v31"/>
<path id="Line-5_1_" fill="none" stroke="#AAB1B5" stroke-linecap="round" stroke-linejoin="round" d="M76,193v40"/>
<path id="Line-5_2_" fill="none" stroke="#AAB1B5" stroke-linecap="round" stroke-linejoin="round" d="M171,283v41"/>
<path id="Line-5_3_" fill="none" stroke="#AAB1B5" stroke-linecap="round" stroke-linejoin="round" d="M365,190v44"/>
<path id="Line-5_4_" fill="none" stroke="#AAB1B5" stroke-linecap="round" stroke-linejoin="round" d="M557,283v32"/>
<path id="Line-5_5_" fill="none" stroke="#AAB1B5" stroke-linecap="round" stroke-linejoin="round" d="M460,283v59"/>
<path id="Line-5_6_" fill="none" stroke="#AAB1B5" stroke-linecap="round" stroke-linejoin="round" d="M557,113v120"/>
<path id="Line-5_7_" fill="none" stroke="#AAB1B5" stroke-linecap="round" stroke-linejoin="round" d="M653,182v50"/>
<path id="Line-5_8_" fill="none" stroke="#AAB1B5" stroke-linecap="round" stroke-linejoin="round" d="M461,145
	c0,0.665,0,29.665,0,87"/>
<path id="Line-5_9_" fill="none" stroke="#AAB1B5" stroke-linecap="round" stroke-linejoin="round" d="M653,283v112"/>
<path id="Line-5_10_" fill="none" stroke="#AAB1B5" stroke-linecap="round" stroke-linejoin="round" d="M364,283v65"/>
<path id="Line-5_11_" fill="none" stroke="#AAB1B5" stroke-linecap="round" stroke-linejoin="round" d="M75,283v107"/>
<path id="Line-5_12_" fill="none" stroke="#AAB1B5" stroke-linecap="round" stroke-linejoin="round" d="M172,124v109"/>
<path id="Line-5_13_" fill="none" stroke="#AAB1B5" stroke-linecap="round" stroke-linejoin="round" d="M268,283v88"/>
<g id="Blockchain" transform="translate(15.000000, 233.000000)">
	<polygon fill="#F7F7F7" stroke="#2C2F31" stroke-linecap="round" stroke-linejoin="round" points="0,0 696.482,0 696.482,50 
		0,49.865 	"/>
	<text transform="matrix(1 0 0 1 298.22 31)" fill="#2C2F31" font-family="'OverpassMono-Bold'" font-size="16">Blockchain</text>
</g>
<g id="Coin" transform="translate(328.000000, 116.000000)">
	<circle id="Oval" stroke="#2C2F31" cx="36.5" cy="36.5" r="36.5"/>
	<text transform="matrix(1 0 0 1 22.5 41.5)" fill="#FFFFFF" font-family="'MyriadPro-Bold'" font-size="16">ZXC</text>
</g>
<g id="Coin_3_" transform="translate(136.000000, 53.000000)">
	
		<circle id="Oval_3_" fill="#F7F7F7" stroke="#2C2F31" stroke-linecap="round" stroke-linejoin="round" cx="36.5" cy="36.5" r="36.5"/>
	<path id="ETH" fill="#2C2F31" d="M23.216,42V30.8H30.4v1.808h-5.28v2.704h3.44v1.808h-3.44v3.072h5.616V42H23.216z M35.824,42
		v-9.376h-3.248V30.8h8.416v1.824h-3.264V42H35.824z M42.928,42V30.8h1.904v4.528h3.616V30.8h1.904V42h-1.904v-4.88h-3.616V42
		H42.928z"/>
</g>
<g id="Coin_4_" transform="translate(520.000000, 40.000000)">
	
		<circle id="Oval_4_" fill="#F7F7F7" stroke="#2C2F31" stroke-linecap="round" stroke-linejoin="round" cx="36.5" cy="36.5" r="36.5"/>
	<path id="IOTA" fill="#2C2F31" d="M25.224,32.48h-2.352v7.84h2.352V42h-6.592v-1.68h2.336v-7.84h-2.336V30.8h6.592V32.48z
		 M31.784,42.192c-0.96,0-1.768-0.28-2.424-0.84c-0.656-0.56-1.123-1.261-1.4-2.104c-0.277-0.843-0.416-1.792-0.416-2.848
		c0-1.056,0.139-2.005,0.416-2.848c0.277-0.843,0.744-1.544,1.4-2.104c0.656-0.56,1.464-0.84,2.424-0.84
		c0.587,0,1.12,0.104,1.6,0.312c0.48,0.208,0.883,0.493,1.208,0.856c0.325,0.363,0.597,0.792,0.816,1.288
		c0.219,0.496,0.379,1.021,0.48,1.576s0.152,1.141,0.152,1.76c0,0.619-0.051,1.205-0.152,1.76s-0.261,1.08-0.48,1.576
		c-0.219,0.496-0.491,0.925-0.816,1.288c-0.325,0.363-0.728,0.648-1.208,0.856C32.904,42.088,32.371,42.192,31.784,42.192z
		 M31.784,40.384c0.501,0,0.928-0.197,1.28-0.592s0.605-0.883,0.76-1.464s0.232-1.224,0.232-1.928c0-1.152-0.189-2.104-0.568-2.856
		c-0.379-0.752-0.947-1.128-1.704-1.128c-0.747,0-1.312,0.387-1.696,1.16c-0.384,0.773-0.576,1.715-0.576,2.824
		c0,1.141,0.189,2.091,0.568,2.848C30.459,40.005,31.027,40.384,31.784,40.384z M40.68,42v-9.376h-3.248V30.8h8.416v1.824h-3.264V42
		H40.68z M54.008,42l-0.736-2.464H49.72L48.984,42h-2.048L50.6,30.8h1.792L56.056,42H54.008z M50.232,37.808h2.528l-0.992-3.328
		c-0.107-0.341-0.197-0.757-0.272-1.248c-0.128,0.651-0.219,1.067-0.272,1.248L50.232,37.808z"/>
</g>
<g id="Coin_5_" transform="translate(617.000000, 109.000000)">
	
		<circle id="Oval_5_" fill="#F7F7F7" stroke="#2C2F31" stroke-linecap="round" stroke-linejoin="round" cx="36.5" cy="36.5" r="36.5"/>
	<path id="OMG" fill="#2C2F31" d="M26.928,42.192c-0.96,0-1.768-0.28-2.424-0.84c-0.656-0.56-1.123-1.261-1.4-2.104
		s-0.416-1.792-0.416-2.848c0-1.056,0.139-2.005,0.416-2.848c0.277-0.843,0.744-1.544,1.4-2.104s1.464-0.84,2.424-0.84
		c0.587,0,1.12,0.104,1.6,0.312c0.48,0.208,0.883,0.493,1.208,0.856c0.325,0.363,0.597,0.792,0.816,1.288s0.379,1.021,0.48,1.576
		s0.152,1.141,0.152,1.76c0,0.619-0.051,1.205-0.152,1.76s-0.261,1.08-0.48,1.576s-0.491,0.925-0.816,1.288
		c-0.325,0.363-0.728,0.648-1.208,0.856C28.048,42.088,27.515,42.192,26.928,42.192z M26.928,40.384c0.501,0,0.928-0.197,1.28-0.592
		s0.605-0.883,0.76-1.464S29.2,37.104,29.2,36.4c0-1.152-0.189-2.104-0.568-2.856c-0.379-0.752-0.947-1.128-1.704-1.128
		c-0.747,0-1.312,0.387-1.696,1.16c-0.384,0.773-0.576,1.715-0.576,2.824c0,1.141,0.189,2.091,0.568,2.848
		C25.603,40.005,26.171,40.384,26.928,40.384z M33.072,42V30.8h1.856l1.616,6.144c0.149,0.555,0.24,0.923,0.272,1.104
		c0.043-0.341,0.133-0.709,0.272-1.104l1.664-6.144h1.744V42h-1.648v-6.08c0-0.469,0.011-0.779,0.032-0.928l-0.304,0.928L36.864,42
		h-0.16l-1.712-6.08l-0.304-0.928c0.021,0.299,0.032,0.608,0.032,0.928V42H33.072z M46.816,42.192c-0.971,0-1.797-0.285-2.48-0.856
		c-0.683-0.571-1.176-1.28-1.48-2.128S42.4,37.424,42.4,36.4c0-0.971,0.157-1.885,0.472-2.744c0.315-0.859,0.816-1.581,1.504-2.168
		c0.688-0.587,1.501-0.88,2.44-0.88c0.864,0,1.56,0.203,2.088,0.608c0.528,0.405,0.984,0.955,1.368,1.648l-1.68,0.96
		c-0.501-0.939-1.093-1.408-1.776-1.408c-0.565,0-1.037,0.216-1.416,0.648c-0.379,0.432-0.643,0.933-0.792,1.504
		c-0.149,0.571-0.224,1.181-0.224,1.832c0,1.099,0.208,2.037,0.624,2.816c0.416,0.779,1.019,1.168,1.808,1.168
		c0.576,0,1.016-0.192,1.32-0.576c0.304-0.384,0.456-0.885,0.456-1.504v-0.24H46.64v-1.792h3.904v1.552
		c0,1.376-0.347,2.448-1.04,3.216C48.811,41.808,47.915,42.192,46.816,42.192z"/>
</g>
<g id="Coin_6_" transform="translate(328.000000, 347.000000)">
	
		<circle id="Oval_6_" fill="#F7F7F7" stroke="#2C2F31" stroke-linecap="round" stroke-linejoin="round" cx="36.5" cy="36.5" r="36.5"/>
	<path id="ETH_1_" fill="#2C2F31" d="M23.216,42V30.8H30.4v1.808h-5.28v2.704h3.44v1.808h-3.44v3.072h5.616V42H23.216z M35.824,42
		v-9.376h-3.248V30.8h8.416v1.824h-3.264V42H35.824z M42.928,42V30.8h1.904v4.528h3.616V30.8h1.904V42h-1.904v-4.88h-3.616V42
		H42.928z"/>
</g>
<g id="Coin_7_" transform="translate(39.000000, 390.000000)">
	
		<circle id="Oval_7_" fill="#F7F7F7" stroke="#2C2F31" stroke-linecap="round" stroke-linejoin="round" cx="36.5" cy="36.5" r="36.5"/>
	<path id="WTC" fill="#2C2F31" d="M26.912,34.339c-0.011,0.096-0.035,0.236-0.072,0.421c-0.037,0.187-0.061,0.312-0.072,0.376
		L25.36,42h-1.504l-1.648-11.2h1.712l0.88,6.672c0.011,0.043,0.024,0.117,0.04,0.224s0.029,0.205,0.04,0.296
		c0.011,0.091,0.021,0.179,0.032,0.264c0.021-0.139,0.075-0.405,0.16-0.8l1.344-6.656h1.024l1.36,6.624
		c0.096,0.469,0.149,0.731,0.16,0.784c0.011-0.107,0.032-0.256,0.064-0.448c0.032-0.192,0.048-0.299,0.048-0.32l0.768-6.64h1.808
		L29.984,42H28.48l-1.424-6.848c-0.064-0.331-0.112-0.603-0.144-0.816L26.912,34.339z M35.824,42v-9.376h-3.248V30.8h8.416v1.824
		h-3.264V42H35.824z M46.832,42.176c-0.629,0-1.197-0.112-1.704-0.336c-0.507-0.224-0.928-0.52-1.264-0.888
		c-0.336-0.368-0.616-0.805-0.84-1.312c-0.224-0.507-0.384-1.029-0.48-1.568S42.4,36.976,42.4,36.4c0-0.704,0.083-1.384,0.248-2.04
		c0.165-0.656,0.419-1.269,0.76-1.84c0.341-0.571,0.805-1.029,1.392-1.376c0.587-0.347,1.264-0.52,2.032-0.52
		c0.875,0,1.605,0.224,2.192,0.672c0.587,0.448,1.013,1.003,1.28,1.664l-1.696,0.816c-0.235-0.448-0.488-0.784-0.76-1.008
		c-0.272-0.224-0.611-0.336-1.016-0.336c-0.576,0-1.056,0.213-1.44,0.64c-0.384,0.427-0.651,0.925-0.8,1.496
		c-0.149,0.571-0.224,1.181-0.224,1.832c0,1.056,0.213,1.981,0.64,2.776s1.035,1.192,1.824,1.192c0.747,0,1.344-0.48,1.792-1.44
		l1.728,0.656C49.648,41.312,48.475,42.176,46.832,42.176z"/>
</g>
<g id="Coin_8_" transform="translate(616.000000, 395.000000)">
	
		<circle id="Oval_8_" fill="#F7F7F7" stroke="#2C2F31" stroke-linecap="round" stroke-linejoin="round" cx="36.5" cy="36.5" r="36.5"/>
	<path id="LTC" fill="#2C2F31" d="M23.216,42V30.8h1.904v9.376h5.168V42H23.216z M35.824,42v-9.376h-3.248V30.8h8.416v1.824h-3.264
		V42H35.824z M46.832,42.176c-0.629,0-1.197-0.112-1.704-0.336c-0.507-0.224-0.928-0.52-1.264-0.888
		c-0.336-0.368-0.616-0.805-0.84-1.312c-0.224-0.507-0.384-1.029-0.48-1.568S42.4,36.976,42.4,36.4c0-0.704,0.083-1.384,0.248-2.04
		c0.165-0.656,0.419-1.269,0.76-1.84c0.341-0.571,0.805-1.029,1.392-1.376c0.587-0.347,1.264-0.52,2.032-0.52
		c0.875,0,1.605,0.224,2.192,0.672c0.587,0.448,1.013,1.003,1.28,1.664l-1.696,0.816c-0.235-0.448-0.488-0.784-0.76-1.008
		c-0.272-0.224-0.611-0.336-1.016-0.336c-0.576,0-1.056,0.213-1.44,0.64c-0.384,0.427-0.651,0.925-0.8,1.496
		c-0.149,0.571-0.224,1.181-0.224,1.832c0,1.056,0.213,1.981,0.64,2.776s1.035,1.192,1.824,1.192c0.747,0,1.344-0.48,1.792-1.44
		l1.728,0.656C49.648,41.312,48.475,42.176,46.832,42.176z"/>
</g>
<g id="Platform" transform="translate(240.000000, 68.000000)">
	<polygon id="Xcert-image" fill="none" stroke="#2C2F31" stroke-linecap="round" stroke-linejoin="round" points="57,133.49 
		0,133.49 0,23.929 24.449,0 57,0 	"/>
	<path id="Fill-10" d="M39.079,91l-13.806,13.717c-0.242,0.24-0.242,0.629,0,0.869l1.445,1.435c0.242,0.24,0.242,0.629,0,0.869
		l-2.649,2.632c-0.241,0.24-0.633,0.24-0.875,0l-5.024-4.991c-0.243-0.241-0.241-0.634,0.004-0.873L32.168,91h-7.309l1.679,1.668
		c0.244,0.242,0.241,0.636-0.006,0.875l-2.695,2.601c-0.242,0.234-0.629,0.231-0.868-0.006L17.797,91h-2.775
		C14.46,91,14,91.457,14,92.016v26.683c0,0.559,0.46,1.016,1.022,1.016h2.635l13.971-13.88c0.241-0.24,0.241-0.629,0-0.869
		l-1.445-1.436c-0.242-0.24-0.242-0.629,0-0.869l2.649-2.632c0.242-0.24,0.633-0.24,0.875,0l5.023,4.991
		c0.243,0.242,0.241,0.634-0.004,0.873l-14.162,13.822h7.642l-1.844-1.831c-0.244-0.243-0.241-0.637,0.007-0.876l2.695-2.601
		c0.242-0.234,0.629-0.231,0.868,0.007l5.316,5.282l2.629,0.019c0.562,0,1.022-0.457,1.022-1.016V92.016
		c0-0.559-0.46-1.016-1.022-1.016H39.079z"/>
</g>
<g id="Platform_1_" transform="translate(432.000000, 12.000000)">
	<polygon id="Xcert-image_1_" fill="none" stroke="#2C2F31" stroke-linecap="round" stroke-linejoin="round" points="57,133.49 
		0,133.49 0,23.929 24.449,0 57,0 	"/>
	<path id="Fill-10_1_" d="M39.079,91l-13.806,13.717c-0.242,0.24-0.242,0.629,0,0.869l1.445,1.435c0.242,0.24,0.242,0.629,0,0.869
		l-2.649,2.632c-0.241,0.24-0.633,0.24-0.875,0l-5.024-4.991c-0.243-0.241-0.241-0.634,0.004-0.873L32.168,91h-7.309l1.679,1.668
		c0.244,0.242,0.241,0.636-0.006,0.875l-2.695,2.601c-0.242,0.234-0.629,0.231-0.868-0.006L17.797,91h-2.775
		C14.46,91,14,91.457,14,92.016v26.683c0,0.559,0.46,1.016,1.022,1.016h2.635l13.971-13.88c0.241-0.24,0.241-0.629,0-0.869
		l-1.445-1.436c-0.242-0.24-0.242-0.629,0-0.869l2.649-2.632c0.242-0.24,0.633-0.24,0.875,0l5.023,4.991
		c0.243,0.242,0.241,0.634-0.004,0.873l-14.162,13.822h7.642l-1.844-1.831c-0.244-0.243-0.241-0.637,0.007-0.876l2.695-2.601
		c0.242-0.234,0.629-0.231,0.868,0.007l5.316,5.282l2.629,0.019c0.562,0,1.022-0.457,1.022-1.016V92.016
		c0-0.559-0.46-1.016-1.022-1.016H39.079z"/>
</g>
<g id="Platform_2_" transform="translate(460.500000, 409.000000) scale(-1, -1) translate(-460.500000, -409.000000) translate(432.000000, 342.000000)">
	<polygon id="Xcert-image_2_" fill="none" stroke="#2C2F31" stroke-linecap="round" stroke-linejoin="round" points="57,133.49 
		0,133.49 0,23.929 24.449,0 57,0 	"/>
	<path id="Fill-10_2_" d="M39.079,91l-13.806,13.717c-0.242,0.24-0.242,0.629,0,0.869l1.445,1.435c0.242,0.24,0.242,0.629,0,0.869
		l-2.649,2.632c-0.241,0.24-0.633,0.24-0.875,0l-5.024-4.991c-0.243-0.241-0.241-0.634,0.004-0.873L32.168,91h-7.309l1.679,1.668
		c0.244,0.242,0.241,0.636-0.006,0.875l-2.695,2.601c-0.242,0.234-0.629,0.231-0.868-0.006L17.797,91h-2.775
		C14.46,91,14,91.457,14,92.016v26.683c0,0.559,0.46,1.016,1.022,1.016h2.635l13.971-13.88c0.241-0.24,0.241-0.629,0-0.869
		l-1.445-1.436c-0.242-0.24-0.242-0.629,0-0.869l2.649-2.632c0.242-0.24,0.633-0.24,0.875,0l5.023,4.991
		c0.243,0.242,0.241,0.634-0.004,0.873l-14.162,13.822h7.642l-1.844-1.831c-0.244-0.243-0.241-0.637,0.007-0.876l2.695-2.601
		c0.242-0.234,0.629-0.231,0.868,0.007l5.316,5.282l2.629,0.019c0.562,0,1.022-0.457,1.022-1.016V92.016
		c0-0.559-0.46-1.016-1.022-1.016H39.079z"/>
</g>
<g id="Platform_3_" transform="translate(48.000000, 59.000000)">
	<polygon id="Xcert-image_3_" fill="none" stroke="#2C2F31" stroke-linecap="round" stroke-linejoin="round" points="57,133.49 
		0,133.49 0,23.929 24.449,0 57,0 	"/>
	<path id="Fill-10_3_" d="M39.079,91l-13.806,13.717c-0.242,0.24-0.242,0.629,0,0.869l1.445,1.435c0.242,0.24,0.242,0.629,0,0.869
		l-2.649,2.632c-0.241,0.24-0.633,0.24-0.875,0l-5.024-4.991c-0.243-0.241-0.241-0.634,0.004-0.873L32.168,91h-7.309l1.679,1.668
		c0.244,0.242,0.241,0.636-0.006,0.875l-2.695,2.601c-0.242,0.234-0.629,0.231-0.868-0.006L17.797,91h-2.775
		C14.46,91,14,91.457,14,92.016v26.683c0,0.559,0.46,1.016,1.022,1.016h2.635l13.971-13.88c0.241-0.24,0.241-0.629,0-0.869
		l-1.445-1.436c-0.242-0.24-0.242-0.629,0-0.869l2.649-2.632c0.242-0.24,0.633-0.24,0.875,0l5.023,4.991
		c0.243,0.242,0.241,0.634-0.004,0.873l-14.162,13.822h7.642l-1.844-1.831c-0.244-0.243-0.241-0.637,0.007-0.876l2.695-2.601
		c0.242-0.234,0.629-0.231,0.868,0.007l5.316,5.282l2.629,0.019c0.562,0,1.022-0.457,1.022-1.016V92.016
		c0-0.559-0.46-1.016-1.022-1.016H39.079z"/>
</g>
<g id="Platform_4_" transform="translate(267.500000, 438.000000) scale(-1, -1) translate(-267.500000, -438.000000) translate(239.000000, 371.000000)">
	<polygon id="Xcert-image_4_" fill="none" stroke="#2C2F31" stroke-linecap="round" stroke-linejoin="round" points="57,133.49 
		0,133.49 0,23.929 24.449,0 57,0 	"/>
	<path id="Fill-10_4_" d="M39.079,91l-13.806,13.717c-0.242,0.24-0.242,0.629,0,0.869l1.445,1.435c0.242,0.24,0.242,0.629,0,0.869
		l-2.649,2.632c-0.241,0.24-0.633,0.24-0.875,0l-5.024-4.991c-0.243-0.241-0.241-0.634,0.004-0.873L32.168,91h-7.309l1.679,1.668
		c0.244,0.242,0.241,0.636-0.006,0.875l-2.695,2.601c-0.242,0.234-0.629,0.231-0.868-0.006L17.797,91h-2.775
		C14.46,91,14,91.457,14,92.016v26.683c0,0.559,0.46,1.016,1.022,1.016h2.635l13.971-13.88c0.241-0.24,0.241-0.629,0-0.869
		l-1.445-1.436c-0.242-0.24-0.242-0.629,0-0.869l2.649-2.632c0.242-0.24,0.633-0.24,0.875,0l5.023,4.991
		c0.243,0.242,0.241,0.634-0.004,0.873l-14.162,13.822h7.642l-1.844-1.831c-0.244-0.243-0.241-0.637,0.007-0.876l2.695-2.601
		c0.242-0.234,0.629-0.231,0.868,0.007l5.316,5.282l2.629,0.019c0.562,0,1.022-0.457,1.022-1.016V92.016
		c0-0.559-0.46-1.016-1.022-1.016H39.079z"/>
</g>
<g id="Coin_1_" transform="translate(328.000000, 116.000000)">
	<circle id="Oval_1_" stroke="#2C2F31" cx="229.344" cy="221" r="36.5"/>
	<text transform="matrix(1 0 0 1 215.344 226)" fill="#FFFFFF" font-family="'MyriadPro-Bold'" font-size="16">ZXC</text>
</g>
<g id="Coin_2_" transform="translate(328.000000, 116.000000)">
	<circle id="Oval_2_" stroke="#2C2F31" cx="-157" cy="241.5" r="36.5"/>
	<text transform="matrix(1 0 0 1 -171 246.5)" fill="#FFFFFF" font-family="'MyriadPro-Bold'" font-size="16">ZXC</text>
</g>
</svg>
