<?xml version="1.0" encoding="utf-8"?>
<!-- Generator: Adobe Illustrator 17.0.0, SVG Export Plug-In . SVG Version: 6.00 Build 0)  -->
<!DOCTYPE svg PUBLIC "-//W3C//DTD SVG 1.1//EN" "http://www.w3.org/Graphics/SVG/1.1/DTD/svg11.dtd">
<svg version="1.1" id="Layer_1" xmlns="http://www.w3.org/2000/svg" xmlns:xlink="http://www.w3.org/1999/xlink" x="0px" y="0px"
	 width="728.5px" height="526px" viewBox="0 0 728.5 526" enable-background="new 0 0 728.5 526" xml:space="preserve">
<title>004</title>
<desc>Created with Sketch.</desc>
<g id="Page-1">
	<g id="_x30_04">
		<path id="Line-5" fill="none" stroke="#AAB1B5" stroke-linecap="round" stroke-linejoin="round" d="M270,206v31"/>
		<path id="Line-5_1_" fill="none" stroke="#AAB1B5" stroke-linecap="round" stroke-linejoin="round" d="M78,197v40"/>
		<path id="Line-5_2_" fill="none" stroke="#AAB1B5" stroke-linecap="round" stroke-linejoin="round" d="M173,287v41"/>
		<path id="Line-5_3_" fill="none" stroke="#AAB1B5" stroke-linecap="round" stroke-linejoin="round" d="M367,194v44"/>
		<path id="Line-5_4_" fill="none" stroke="#AAB1B5" stroke-linecap="round" stroke-linejoin="round" d="M559,287v32"/>
		<path id="Line-5_5_" fill="none" stroke="#AAB1B5" stroke-linecap="round" stroke-linejoin="round" d="M462,287v59"/>
		<path id="Line-5_6_" fill="none" stroke="#AAB1B5" stroke-linecap="round" stroke-linejoin="round" d="M559,117v120"/>
		<path id="Line-5_7_" fill="none" stroke="#AAB1B5" stroke-linecap="round" stroke-linejoin="round" d="M655,186v50"/>
		<path id="Line-5_8_" fill="none" stroke="#AAB1B5" stroke-linecap="round" stroke-linejoin="round" d="M463,149
			c0,0.665,0,29.665,0,87"/>
		<path id="Line-5_9_" fill="none" stroke="#AAB1B5" stroke-linecap="round" stroke-linejoin="round" d="M655,287v112"/>
		<path id="Line-5_10_" fill="none" stroke="#AAB1B5" stroke-linecap="round" stroke-linejoin="round" d="M366,287v65"/>
		<path id="Line-5_11_" fill="none" stroke="#AAB1B5" stroke-linecap="round" stroke-linejoin="round" d="M77,287v107"/>
		<path id="Line-5_12_" fill="none" stroke="#AAB1B5" stroke-linecap="round" stroke-linejoin="round" d="M174,128v109"/>
		<path id="Line-5_13_" fill="none" stroke="#AAB1B5" stroke-linecap="round" stroke-linejoin="round" d="M270,287v88"/>
		<g id="Blockchain" transform="translate(137.000000, 251.000000)">
			<polygon fill="#F7F7F7" stroke="#2C2F31" stroke-linecap="round" stroke-linejoin="round" points="-120,-14 576.482,-14 
				576.482,36 -120,35.865 			"/>
			<text transform="matrix(1 0 0 1 178.22 17)" fill="#2C2F31" font-family="'Arial-BoldMT'" font-size="16">Blockchain</text>
		</g>
		<g id="Coin" transform="translate(450.000000, 134.000000)">
			<circle id="Oval" fill="#0971FF" stroke="#2C2F31" cx="-83.5" cy="22.5" r="36.5"/>
			<text transform="matrix(1 0 0 1 -98 28)" fill="#FFFFFF" font-family="'Arial-BoldMT'" font-size="16">XCT</text>
		</g>
		<g id="Coin_1_" transform="translate(642.000000, 332.000000)">
			<circle id="Oval_1_" fill="#0971FF" stroke="#2C2F31" cx="-83.5" cy="22.5" r="36.5"/>
			<text transform="matrix(1 0 0 1 -98 28)" fill="#FFFFFF" font-family="'Arial-BoldMT'" font-size="16">XCT</text>
		</g>
		<g id="Coin_2_" transform="translate(257.000000, 340.000000)">
			<circle id="Oval_2_" fill="#0971FF" stroke="#2C2F31" cx="-83.5" cy="22.5" r="36.5"/>
			<text transform="matrix(1 0 0 1 -98 28)" fill="#FFFFFF" font-family="'Arial-BoldMT'" font-size="16">XCT</text>
		</g>
		<g id="Coin_3_" transform="translate(258.000000, 71.000000)">
			
				<circle id="Oval_3_" fill="#E8F7FC" stroke="#2C2F31" stroke-linecap="round" stroke-linejoin="round" cx="-83.5" cy="22.5" r="36.5"/>
			<text transform="matrix(1 0 0 1 -98 28)" fill="#2C2F31" font-family="'Arial-BoldMT'" font-size="16">ETH</text>
		</g>
		<g id="Coin_4_" transform="translate(642.000000, 58.000000)">
			
				<circle id="Oval_4_" fill="#E8F7FC" stroke="#2C2F31" stroke-linecap="round" stroke-linejoin="round" cx="-83.5" cy="22.5" r="36.5"/>
			<text transform="matrix(1 0 0 1 -103 28)" fill="#2C2F31" font-family="'Arial-BoldMT'" font-size="16">IOTA</text>
		</g>
		<g id="Coin_5_" transform="translate(739.000000, 127.000000)">
			
				<circle id="Oval_5_" fill="#E8F7FC" stroke="#2C2F31" stroke-linecap="round" stroke-linejoin="round" cx="-83.5" cy="22.5" r="36.5"/>
			<text transform="matrix(1 0 0 1 -98 28)" fill="#2C2F31" font-family="'Arial-BoldMT'" font-size="16">OMG</text>
		</g>
		<g id="Coin_6_" transform="translate(450.000000, 365.000000)">
			
				<circle id="Oval_6_" fill="#E8F7FC" stroke="#2C2F31" stroke-linecap="round" stroke-linejoin="round" cx="-83.5" cy="22.5" r="36.5"/>
			<text transform="matrix(1 0 0 1 -98 28)" fill="#2C2F31" font-family="'Arial-BoldMT'" font-size="16">ETH</text>
		</g>
		<g id="Coin_7_" transform="translate(161.000000, 408.000000)">
			
				<circle id="Oval_7_" fill="#E8F7FC" stroke="#2C2F31" stroke-linecap="round" stroke-linejoin="round" cx="-83.5" cy="22.5" r="36.5"/>
			<text transform="matrix(1 0 0 1 -98 28)" fill="#2C2F31" font-family="'Arial-BoldMT'" font-size="16">WTC</text>
		</g>
		<g id="Coin_8_" transform="translate(738.000000, 413.000000)">
			
				<circle id="Oval_8_" fill="#E8F7FC" stroke="#2C2F31" stroke-linecap="round" stroke-linejoin="round" cx="-83.5" cy="22.5" r="36.5"/>
			<text transform="matrix(1 0 0 1 -98 28)" fill="#2C2F31" font-family="'Arial-BoldMT'" font-size="16">LTC</text>
		</g>
		<g id="Platform" transform="translate(362.000000, 86.000000)">
			<polygon id="Xcert-image" fill="none" stroke="#2C2F31" stroke-linecap="round" stroke-linejoin="round" points="-63,119.49 
				-120,119.49 -120,9.929 -95.551,-14 -63,-14 			"/>
			<path id="Fill-10" fill="#3D8CFF" d="M-80.921,77l-13.806,13.717c-0.242,0.24-0.242,0.629,0,0.869l1.445,1.435
				c0.242,0.24,0.242,0.629,0,0.869l-2.649,2.632c-0.241,0.24-0.633,0.24-0.875,0l-5.024-4.991
				c-0.243-0.241-0.241-0.634,0.004-0.873L-87.832,77h-7.309l1.679,1.668c0.244,0.242,0.241,0.636-0.006,0.875l-2.695,2.601
				c-0.242,0.234-0.629,0.231-0.868-0.006L-102.203,77h-2.775c-0.563,0-1.022,0.457-1.022,1.016v26.683
				c0,0.559,0.46,1.016,1.022,1.016h2.635l13.971-13.88c0.241-0.24,0.241-0.629,0-0.869l-1.445-1.436
				c-0.242-0.24-0.242-0.629,0-0.869l2.649-2.632c0.242-0.24,0.633-0.24,0.875,0l5.023,4.991c0.243,0.242,0.241,0.634-0.004,0.873
				l-14.162,13.822h7.642l-1.844-1.831c-0.244-0.243-0.241-0.637,0.007-0.876l2.695-2.601c0.242-0.234,0.629-0.231,0.868,0.007
				l5.316,5.282l2.629,0.019c0.562,0,1.022-0.457,1.022-1.016V78.016c0-0.559-0.46-1.016-1.022-1.016H-80.921z"/>
		</g>
		<g id="Platform_1_" transform="translate(554.000000, 30.000000)">
			<polygon id="Xcert-image_1_" fill="none" stroke="#2C2F31" stroke-linecap="round" stroke-linejoin="round" points="-63,119.49 
				-120,119.49 -120,9.929 -95.551,-14 -63,-14 			"/>
			<path id="Fill-10_1_" fill="#3D8CFF" d="M-80.921,77l-13.806,13.717c-0.242,0.24-0.242,0.629,0,0.869l1.445,1.435
				c0.242,0.24,0.242,0.629,0,0.869l-2.649,2.632c-0.241,0.24-0.633,0.24-0.875,0l-5.024-4.991
				c-0.243-0.241-0.241-0.634,0.004-0.873L-87.832,77h-7.309l1.679,1.668c0.244,0.242,0.241,0.636-0.006,0.875l-2.695,2.601
				c-0.242,0.234-0.629,0.231-0.868-0.006L-102.203,77h-2.775c-0.563,0-1.022,0.457-1.022,1.016v26.683
				c0,0.559,0.46,1.016,1.022,1.016h2.635l13.971-13.88c0.241-0.24,0.241-0.629,0-0.869l-1.445-1.436
				c-0.242-0.24-0.242-0.629,0-0.869l2.649-2.632c0.242-0.24,0.633-0.24,0.875,0l5.023,4.991c0.243,0.242,0.241,0.634-0.004,0.873
				l-14.162,13.822h7.642l-1.844-1.831c-0.244-0.243-0.241-0.637,0.007-0.876l2.695-2.601c0.242-0.234,0.629-0.231,0.868,0.007
				l5.316,5.282l2.629,0.019c0.562,0,1.022-0.457,1.022-1.016V78.016c0-0.559-0.46-1.016-1.022-1.016H-80.921z"/>
		</g>
		
			<g id="Platform_2_" transform="translate(582.500000, 427.000000) scale(-1, -1) translate(-582.500000, -427.000000) translate(554.000000, 360.000000)">
			<polygon id="Xcert-image_2_" fill="none" stroke="#2C2F31" stroke-linecap="round" stroke-linejoin="round" points="177,147.49 
				120,147.49 120,37.929 144.449,14 177,14 			"/>
			<path id="Fill-10_2_" fill="#3D8CFF" d="M159.079,105l-13.806,13.717c-0.242,0.24-0.242,0.629,0,0.869l1.445,1.435
				c0.242,0.24,0.242,0.629,0,0.869l-2.649,2.632c-0.241,0.24-0.633,0.24-0.875,0l-5.024-4.991
				c-0.243-0.241-0.241-0.634,0.004-0.873L152.168,105h-7.309l1.679,1.668c0.244,0.242,0.241,0.636-0.006,0.875l-2.695,2.601
				c-0.242,0.234-0.629,0.231-0.868-0.006L137.797,105h-2.775c-0.563,0-1.022,0.457-1.022,1.016v26.683
				c0,0.559,0.46,1.016,1.022,1.016h2.635l13.971-13.88c0.241-0.24,0.241-0.629,0-0.869l-1.445-1.436
				c-0.242-0.24-0.242-0.629,0-0.869l2.649-2.632c0.242-0.24,0.633-0.24,0.875,0l5.023,4.991c0.243,0.242,0.241,0.634-0.004,0.873
				l-14.162,13.822h7.642l-1.844-1.831c-0.244-0.243-0.241-0.637,0.007-0.876l2.695-2.601c0.242-0.234,0.629-0.231,0.868,0.007
				l5.316,5.282l2.629,0.019c0.562,0,1.022-0.457,1.022-1.016v-26.683c0-0.559-0.46-1.016-1.022-1.016H159.079z"/>
		</g>
		<g id="Platform_3_" transform="translate(170.000000, 77.000000)">
			<polygon id="Xcert-image_3_" fill="none" stroke="#2C2F31" stroke-linecap="round" stroke-linejoin="round" points="-63,119.49 
				-120,119.49 -120,9.929 -95.551,-14 -63,-14 			"/>
			<path id="Fill-10_3_" fill="#3D8CFF" d="M-80.921,77l-13.806,13.717c-0.242,0.24-0.242,0.629,0,0.869l1.445,1.435
				c0.242,0.24,0.242,0.629,0,0.869l-2.649,2.632c-0.241,0.24-0.633,0.24-0.875,0l-5.024-4.991
				c-0.243-0.241-0.241-0.634,0.004-0.873L-87.832,77h-7.309l1.679,1.668c0.244,0.242,0.241,0.636-0.006,0.875l-2.695,2.601
				c-0.242,0.234-0.629,0.231-0.868-0.006L-102.203,77h-2.775c-0.563,0-1.022,0.457-1.022,1.016v26.683
				c0,0.559,0.46,1.016,1.022,1.016h2.635l13.971-13.88c0.241-0.24,0.241-0.629,0-0.869l-1.445-1.436
				c-0.242-0.24-0.242-0.629,0-0.869l2.649-2.632c0.242-0.24,0.633-0.24,0.875,0l5.023,4.991c0.243,0.242,0.241,0.634-0.004,0.873
				l-14.162,13.822h7.642l-1.844-1.831c-0.244-0.243-0.241-0.637,0.007-0.876l2.695-2.601c0.242-0.234,0.629-0.231,0.868,0.007
				l5.316,5.282l2.629,0.019c0.562,0,1.022-0.457,1.022-1.016V78.016c0-0.559-0.46-1.016-1.022-1.016H-80.921z"/>
		</g>
		
			<g id="Platform_4_" transform="translate(389.500000, 456.000000) scale(-1, -1) translate(-389.500000, -456.000000) translate(361.000000, 389.000000)">
			<polygon id="Xcert-image_4_" fill="none" stroke="#2C2F31" stroke-linecap="round" stroke-linejoin="round" points="177,147.49 
				120,147.49 120,37.929 144.449,14 177,14 			"/>
			<path id="Fill-10_4_" fill="#3D8CFF" d="M159.079,105l-13.806,13.717c-0.242,0.24-0.242,0.629,0,0.869l1.445,1.435
				c0.242,0.24,0.242,0.629,0,0.869l-2.649,2.632c-0.241,0.24-0.633,0.24-0.875,0l-5.024-4.991
				c-0.243-0.241-0.241-0.634,0.004-0.873L152.168,105h-7.309l1.679,1.668c0.244,0.242,0.241,0.636-0.006,0.875l-2.695,2.601
				c-0.242,0.234-0.629,0.231-0.868-0.006L137.797,105h-2.775c-0.563,0-1.022,0.457-1.022,1.016v26.683
				c0,0.559,0.46,1.016,1.022,1.016h2.635l13.971-13.88c0.241-0.24,0.241-0.629,0-0.869l-1.445-1.436
				c-0.242-0.24-0.242-0.629,0-0.869l2.649-2.632c0.242-0.24,0.633-0.24,0.875,0l5.023,4.991c0.243,0.242,0.241,0.634-0.004,0.873
				l-14.162,13.822h7.642l-1.844-1.831c-0.244-0.243-0.241-0.637,0.007-0.876l2.695-2.601c0.242-0.234,0.629-0.231,0.868,0.007
				l5.316,5.282l2.629,0.019c0.562,0,1.022-0.457,1.022-1.016v-26.683c0-0.559-0.46-1.016-1.022-1.016H159.079z"/>
		</g>
	</g>
</g>
</svg>
