<?xml version="1.0" encoding="utf-8"?>
<!-- Generator: Adobe Illustrator 17.0.0, SVG Export Plug-In . SVG Version: 6.00 Build 0)  -->
<!DOCTYPE svg PUBLIC "-//W3C//DTD SVG 1.1//EN" "http://www.w3.org/Graphics/SVG/1.1/DTD/svg11.dtd">
<svg version="1.1" id="Layer_1" xmlns="http://www.w3.org/2000/svg" xmlns:xlink="http://www.w3.org/1999/xlink" x="0px" y="0px"
	 width="878px" height="742px" viewBox="0 0 878 742" enable-background="new 0 0 878 742" xml:space="preserve">
<title>03</title>
<desc>Created with Sketch.</desc>
<path id="Line" fill="none" stroke="#AAB1B5" stroke-linecap="round" stroke-linejoin="round" d="M257,520v-50"/>
<path id="Line_1_" fill="none" stroke="#AAB1B5" stroke-linecap="round" stroke-linejoin="round" d="M514.96,519.47v-48.75"/>
<path id="Line_2_" fill="none" stroke="#AAB1B5" stroke-linecap="round" stroke-linejoin="round" d="M772.5,519v-48"/>
<path id="Line_3_" fill="none" stroke="#AAB1B5" stroke-linecap="round" stroke-linejoin="round" d="M642.5,519V223"/>
<path id="Line_4_" fill="none" stroke="#AAB1B5" stroke-linecap="round" stroke-linejoin="round" d="M383.458,520l0.084-297"/>
<g id="Group-2-Copy" transform="translate(441.000000, 272.000000)">
	<g id="Group">
		<path id="Sceptic-image" fill="none" stroke="#2C2F31" stroke-linecap="round" stroke-linejoin="round" d="M6,0h104.232
			L147.2,37.261V192.4c0,3.314-2.686,6-6,6H6c-3.314,0-6-2.686-6-6V6C0,2.686,2.686,0,6,0z"/>
		<polygon id="Sceptic-image_1_" fill="none" stroke="#2C2F31" stroke-linecap="round" stroke-linejoin="round" points="
			147.75,37.248 110.502,37.248 110.502,0 		"/>
	</g>
	<path id="Badge" fill="#2C2F31" d="M51.076,168v-11.2h3.776c1.259,0,2.171,0.285,2.736,0.856c0.565,0.571,0.848,1.283,0.848,2.136
		c0,1.099-0.485,1.867-1.456,2.304c0.597,0.203,1.053,0.544,1.368,1.024c0.315,0.48,0.472,1.013,0.472,1.6
		c0,0.896-0.301,1.667-0.904,2.312S56.372,168,55.092,168H51.076z M52.98,161.328h1.616c0.64,0,1.123-0.125,1.448-0.376
		c0.325-0.251,0.488-0.595,0.488-1.032c0-0.907-0.544-1.36-1.632-1.36h-1.92V161.328z M52.98,166.24h2.24
		c0.608,0,1.043-0.147,1.304-0.44c0.261-0.293,0.392-0.648,0.392-1.064c0-1.109-0.72-1.664-2.16-1.664H52.98V166.24z M64.02,168.192
		c-0.896,0-1.624-0.235-2.184-0.704c-0.56-0.469-0.84-1.141-0.84-2.016c0-0.885,0.32-1.557,0.96-2.016
		c0.64-0.459,1.408-0.688,2.304-0.688c0.779,0,1.456,0.144,2.032,0.432v-0.48c0-0.981-0.539-1.472-1.616-1.472
		c-0.896,0-1.76,0.277-2.592,0.832l-0.56-1.504c0.992-0.629,2.096-0.944,3.312-0.944c2.165,0,3.248,1.024,3.248,3.072V168h-1.792
		v-0.64C65.716,167.915,64.959,168.192,64.02,168.192z M64.356,166.576c0.768,0,1.413-0.272,1.936-0.816v-1.056
		c-0.491-0.245-1.072-0.368-1.744-0.368c-0.512,0-0.936,0.096-1.272,0.288s-0.504,0.475-0.504,0.848c0,0.331,0.139,0.597,0.416,0.8
		S63.855,166.576,64.356,166.576z M74.212,168.192c-1.12,0-2-0.376-2.64-1.128c-0.64-0.752-0.96-1.805-0.96-3.16
		c0-1.312,0.328-2.352,0.984-3.12s1.512-1.152,2.568-1.152c0.875,0,1.552,0.261,2.032,0.784v-3.12l1.84-0.848V168h-1.84v-0.624
		c-0.171,0.224-0.435,0.416-0.792,0.576S74.649,168.192,74.212,168.192z M74.468,166.432c0.8,0,1.376-0.267,1.728-0.8v-3.456
		c-0.384-0.533-0.971-0.8-1.76-0.8c-0.629,0-1.115,0.219-1.456,0.656c-0.341,0.437-0.512,1.061-0.512,1.872
		c0,0.768,0.173,1.381,0.52,1.84C73.335,166.203,73.828,166.432,74.468,166.432z M83.876,171.248l-0.992-1.504
		c1.141-0.085,1.928-0.261,2.36-0.528c0.432-0.267,0.648-0.699,0.648-1.296v-0.48c-0.437,0.501-1.072,0.752-1.904,0.752
		c-1.003,0-1.819-0.371-2.448-1.112c-0.629-0.741-0.944-1.8-0.944-3.176c0-1.312,0.315-2.352,0.944-3.12
		c0.629-0.768,1.456-1.152,2.48-1.152c0.779,0,1.403,0.235,1.872,0.704v-0.512h1.84v7.312c0,1.397-0.291,2.408-0.872,3.032
		S85.284,171.152,83.876,171.248z M84.308,166.432c0.693,0,1.221-0.277,1.584-0.832v-3.408c-0.384-0.544-0.912-0.816-1.584-0.816
		c-0.608,0-1.072,0.216-1.392,0.648s-0.48,1.059-0.48,1.88c0,0.779,0.163,1.395,0.488,1.848
		C83.249,166.205,83.711,166.432,84.308,166.432z M97.94,163.504c0,0.469-0.021,0.843-0.064,1.12h-5.568
		c0.117,0.597,0.355,1.069,0.712,1.416c0.357,0.347,0.819,0.52,1.384,0.52c0.715,0,1.317-0.267,1.808-0.8l1.104,1.168
		c-0.768,0.843-1.744,1.264-2.928,1.264c-1.205,0-2.157-0.389-2.856-1.168s-1.048-1.819-1.048-3.12c0-1.323,0.352-2.365,1.056-3.128
		s1.653-1.144,2.848-1.144c1.045,0,1.899,0.328,2.56,0.984C97.609,161.272,97.94,162.235,97.94,163.504z M92.292,163.056h3.84
		c-0.053-0.597-0.243-1.048-0.568-1.352c-0.325-0.304-0.717-0.456-1.176-0.456c-0.587,0-1.059,0.16-1.416,0.48
		C92.615,162.048,92.388,162.491,92.292,163.056z"/>
</g>
<path id="Page-1" fill="none" stroke="#2C2F31" stroke-width="2" stroke-linecap="round" stroke-linejoin="round" d="
	M515.998,331.553l8.841,17.917l19.771,2.871c2.287,0.335,3.199,3.142,1.547,4.753l-14.309,13.946l3.379,19.695
	c0.39,2.275-1.998,4.012-4.043,2.938l-17.682-9.298l-17.685,9.298c-2.045,1.073-4.434-0.663-4.04-2.938l3.376-19.695l-14.306-13.946
	c-1.655-1.612-0.743-4.419,1.544-4.753l19.771-2.871l8.841-17.917C512.024,329.482,514.975,329.482,515.998,331.553z"/>
<g id="Group_1_" transform="translate(569.000000, 24.000000)">
	<path id="Sceptic-image_2_" fill="none" stroke="#2C2F31" stroke-linecap="round" stroke-linejoin="round" d="M6,0h104.232
		L147.2,37.261V192.4c0,3.314-2.686,6-6,6H6c-3.314,0-6-2.686-6-6V6C0,2.686,2.686,0,6,0z"/>
	<polygon id="Sceptic-image_3_" fill="#FFFFFF" stroke="#2C2F31" stroke-linecap="round" stroke-linejoin="round" points="
		147.75,37.248 110.502,37.248 110.502,0 	"/>
</g>
<g id="Group_2_" transform="translate(619.000000, 78.000000)">
	<path id="Layer-1" fill="none" stroke="#2C2F31" stroke-width="2" stroke-linecap="round" stroke-linejoin="round" d="M48.3,22.75
		c0,2.377-3.817,4.123-4.513,6.269c-0.721,2.224,1.315,5.874-0.032,7.725c-0.666,0.915-1.99,1.187-3.388,1.386
		c-1.458,0.206-2.997,0.333-3.951,1.028c-1.811,1.319-2.315,5.345-4.423,6.186c-0.044,0.019-0.09,0.037-0.136,0.051
		c-2.146,0.698-4.98-2.366-7.357-2.366s-5.211,3.065-7.357,2.368c-0.046-0.014-0.092-0.032-0.136-0.051
		c-2.109-0.843-2.613-4.869-4.423-6.188c-0.954-0.695-2.493-0.822-3.951-1.028c-1.398-0.199-2.722-0.471-3.388-1.386
		c-1.347-1.851,0.689-5.502-0.032-7.725C4.517,26.873,0.7,25.127,0.7,22.75s3.817-4.123,4.513-6.269
		c0.721-2.224-1.315-5.874,0.032-7.725c1.359-1.869,5.47-1.053,7.339-2.414c1.849-1.347,2.336-5.516,4.559-6.239
		c2.146-0.697,4.98,2.368,7.357,2.368s5.211-3.065,7.357-2.368c2.223,0.723,2.71,4.892,4.559,6.239
		c1.869,1.361,5.98,0.545,7.339,2.414c1.347,1.851-0.689,5.502,0.032,7.725C44.483,18.627,48.3,20.373,48.3,22.75L48.3,22.75z"/>
	<path id="Layer-2" fill="#F7F7F7" stroke="#2C2F31" stroke-width="2" stroke-linecap="round" stroke-linejoin="round" d="
		M24.85,37.1c7.925,0,14.35-6.425,14.35-14.35S32.775,8.4,24.85,8.4S10.5,14.825,10.5,22.75S16.925,37.1,24.85,37.1L24.85,37.1z"/>
	<polygon id="Layer-3" fill="#FFFFFF" stroke="#2C2F31" stroke-width="2" stroke-linecap="round" stroke-linejoin="round" points="
		25.2,14 27.861,19.604 33.982,20.417 29.505,24.693 30.628,30.8 25.2,27.839 19.772,30.8 20.895,24.693 16.418,20.417 
		22.539,19.604 	"/>
	<path id="Layer-4" fill="none" stroke="#2C2F31" stroke-width="2" stroke-linecap="round" stroke-linejoin="round" d="
		M9.635,38.267L0,64.04l9.201-4.206L13.997,70l10.162-26.951c-2.303,0.263-4.972,3.012-7.015,2.348
		c-0.046-0.014-0.092-0.032-0.136-0.051c-2.109-0.843-2.613-4.869-4.423-6.188C11.848,38.622,10.763,38.424,9.635,38.267
		L9.635,38.267L9.635,38.267z M39.365,38.267L49,64.04l-9.201-4.206L35.003,70L24.932,43.06c2.282,0.322,4.908,2.991,6.925,2.335
		c0.046-0.014,0.092-0.032,0.136-0.051c2.109-0.841,2.613-4.867,4.423-6.186C37.152,38.622,38.237,38.424,39.365,38.267
		L39.365,38.267L39.365,38.267z"/>
</g>
<g id="Group-4" transform="translate(700.000000, 272.000000)">
	<g id="Group-2-Copy-2">
		<g id="Group_3_">
			<path id="Sceptic-image_4_" fill="none" stroke="#2C2F31" stroke-linecap="round" stroke-linejoin="round" d="M6,0h104.232
				L147.2,37.261V192.4c0,3.314-2.686,6-6,6H6c-3.314,0-6-2.686-6-6V6C0,2.686,2.686,0,6,0z"/>
			<polygon id="Sceptic-image_5_" fill="none" stroke="#2C2F31" stroke-linecap="round" stroke-linejoin="round" points="
				147.75,37.248 110.502,37.248 110.502,0 			"/>
		</g>
		<path id="Diploma" fill="#2C2F31" d="M41.22,168v-11.2h2.816c0.725,0,1.381,0.107,1.968,0.32c0.587,0.213,1.075,0.496,1.464,0.848
			s0.715,0.771,0.976,1.256s0.451,0.992,0.568,1.52c0.117,0.528,0.176,1.08,0.176,1.656c0,0.533-0.053,1.056-0.16,1.568
			c-0.107,0.512-0.288,1.016-0.544,1.512c-0.256,0.496-0.579,0.928-0.968,1.296s-0.888,0.664-1.496,0.888S44.729,168,43.972,168
			H41.22z M43.124,166.208h1.04c0.544,0,1.021-0.112,1.432-0.336c0.411-0.224,0.728-0.525,0.952-0.904
			c0.224-0.379,0.389-0.784,0.496-1.216c0.107-0.432,0.16-0.883,0.16-1.352c0-1.045-0.24-1.941-0.72-2.688
			c-0.48-0.747-1.195-1.12-2.144-1.12h-1.216V166.208z M54.852,158.688c-0.299,0-0.555-0.107-0.768-0.32s-0.32-0.475-0.32-0.784
			s0.107-0.568,0.32-0.776c0.213-0.208,0.469-0.312,0.768-0.312c0.309,0,0.571,0.104,0.784,0.312c0.213,0.208,0.32,0.467,0.32,0.776
			s-0.107,0.571-0.32,0.784C55.423,158.581,55.161,158.688,54.852,158.688z M55.78,166.384h2.256V168h-6.352v-1.616h2.256v-4.944
			h-2.256v-1.616h4.096V166.384z M61.124,171.216v-11.392h1.84v0.624c0.501-0.544,1.168-0.816,2-0.816
			c1.099,0,1.971,0.379,2.616,1.136c0.645,0.757,0.968,1.808,0.968,3.152c0,1.312-0.333,2.352-1,3.12
			c-0.667,0.768-1.523,1.152-2.568,1.152c-0.853,0-1.525-0.283-2.016-0.848v3.024L61.124,171.216z M64.708,166.432
			c0.629,0,1.117-0.216,1.464-0.648c0.347-0.432,0.52-1.053,0.52-1.864c0-0.779-0.173-1.397-0.52-1.856
			c-0.347-0.459-0.84-0.688-1.48-0.688c-0.768,0-1.344,0.272-1.728,0.816v3.424C63.348,166.16,63.929,166.432,64.708,166.432z
			 M75.412,166.384h2.384V168h-6.608v-1.616h2.384v-8.32h-1.904l-0.848-1.616h4.592V166.384z M84.356,168.192
			c-1.205,0-2.16-0.381-2.864-1.144c-0.704-0.763-1.056-1.805-1.056-3.128c0-1.312,0.352-2.355,1.056-3.128
			c0.704-0.773,1.659-1.16,2.864-1.16c1.216,0,2.173,0.387,2.872,1.16c0.699,0.773,1.048,1.816,1.048,3.128s-0.349,2.352-1.048,3.12
			C86.529,167.808,85.572,168.192,84.356,168.192z M84.356,166.432c0.661,0,1.171-0.224,1.528-0.672
			c0.357-0.448,0.536-1.061,0.536-1.84s-0.179-1.397-0.536-1.856c-0.357-0.459-0.867-0.688-1.528-0.688
			c-0.651,0-1.157,0.229-1.52,0.688c-0.363,0.459-0.544,1.077-0.544,1.856c0,0.768,0.181,1.379,0.544,1.832
			C83.199,166.205,83.705,166.432,84.356,166.432z M96.436,159.632c0.683,0,1.187,0.237,1.512,0.712
			c0.325,0.475,0.488,1.272,0.488,2.392V168h-1.68v-4.992c0-0.576-0.053-0.989-0.16-1.24c-0.107-0.251-0.304-0.376-0.592-0.376
			c-0.277,0-0.499,0.144-0.664,0.432c-0.165,0.288-0.248,0.688-0.248,1.2V168h-1.68v-5.04c0-1.045-0.256-1.568-0.768-1.568
			c-0.299,0-0.536,0.144-0.712,0.432c-0.176,0.288-0.264,0.688-0.264,1.2V168h-1.68v-8.176h1.568v1.088
			c0.299-0.853,0.837-1.28,1.616-1.28c0.341,0,0.643,0.117,0.904,0.352c0.261,0.235,0.445,0.512,0.552,0.832
			C95.119,160.027,95.721,159.632,96.436,159.632z M103.444,168.192c-0.896,0-1.624-0.235-2.184-0.704
			c-0.56-0.469-0.84-1.141-0.84-2.016c0-0.885,0.32-1.557,0.96-2.016c0.64-0.459,1.408-0.688,2.304-0.688
			c0.779,0,1.456,0.144,2.032,0.432v-0.48c0-0.981-0.539-1.472-1.616-1.472c-0.896,0-1.76,0.277-2.592,0.832l-0.56-1.504
			c0.992-0.629,2.096-0.944,3.312-0.944c2.165,0,3.248,1.024,3.248,3.072V168h-1.792v-0.64
			C105.14,167.915,104.383,168.192,103.444,168.192z M103.78,166.576c0.768,0,1.413-0.272,1.936-0.816v-1.056
			c-0.491-0.245-1.072-0.368-1.744-0.368c-0.512,0-0.936,0.096-1.272,0.288c-0.336,0.192-0.504,0.475-0.504,0.848
			c0,0.331,0.139,0.597,0.416,0.8S103.279,166.576,103.78,166.576z"/>
	</g>
	<g id="Group-2" transform="translate(39.000000, 65.000000)">
		<path id="Layer-1_1_" fill="none" stroke="#2C2F31" stroke-width="2" stroke-linecap="round" stroke-linejoin="round" d="
			M66.029,56c5.409,0,2.667-3.373,2.667-3.373l-2.667-3.373l-2.667,3.373C63.362,52.627,60.619,56,66.029,56z"/>
		<path id="Layer-2_1_" fill="none" stroke="#2C2F31" stroke-width="2" stroke-linecap="round" stroke-linejoin="round" d="
			M66.763,20.241c0,0-13.095,7.895-18.999,11.482c-5.198,3.159-14.306,8.759-14.306,8.759L0.096,20.241L33.459,0L66.763,20.241z"/>
		<path id="Layer-3_1_" fill="none" stroke="#2C2F31" stroke-width="2" stroke-linecap="round" stroke-linejoin="round" d="
			M66,20.241v29.221"/>
		<path id="Layer-4_1_" fill="none" stroke="#2C2F31" stroke-width="2" stroke-linecap="round" stroke-linejoin="round" d="
			M56,26.737v14.374c0,0-4.658,11.984-22.667,11.984S10.667,41.111,10.667,41.111V26.654l22.792,13.828
			c0,0,9.108-5.599,14.306-8.759C49.892,30.43,52.954,28.578,56,26.737L56,26.737z"/>
	</g>
</g>
<g id="Group-5" transform="translate(182.000000, 272.000000)">
	<g id="Group-2_1_">
		<g id="Group_4_">
			<path id="Sceptic-image_6_" fill="none" stroke="#2C2F31" stroke-linecap="round" stroke-linejoin="round" d="M6,0h104.232
				L147.2,37.261V192.4c0,3.314-2.686,6-6,6H6c-3.314,0-6-2.686-6-6V6C0,2.686,2.686,0,6,0z"/>
			<polygon id="Sceptic-image_7_" fill="#FFFFFF" stroke="#2C2F31" stroke-linecap="round" stroke-linejoin="round" points="
				147.75,37.248 110.502,37.248 110.502,0 			"/>
		</g>
		<path id="Diploma_1_" fill="#2C2F31" d="M41.22,168v-11.2h2.816c0.725,0,1.381,0.107,1.968,0.32
			c0.587,0.213,1.075,0.496,1.464,0.848s0.715,0.771,0.976,1.256s0.451,0.992,0.568,1.52c0.117,0.528,0.176,1.08,0.176,1.656
			c0,0.533-0.053,1.056-0.16,1.568c-0.107,0.512-0.288,1.016-0.544,1.512c-0.256,0.496-0.579,0.928-0.968,1.296
			s-0.888,0.664-1.496,0.888S44.729,168,43.972,168H41.22z M43.124,166.208h1.04c0.544,0,1.021-0.112,1.432-0.336
			c0.411-0.224,0.728-0.525,0.952-0.904c0.224-0.379,0.389-0.784,0.496-1.216c0.107-0.432,0.16-0.883,0.16-1.352
			c0-1.045-0.24-1.941-0.72-2.688c-0.48-0.747-1.195-1.12-2.144-1.12h-1.216V166.208z M54.852,158.688
			c-0.299,0-0.555-0.107-0.768-0.32s-0.32-0.475-0.32-0.784s0.107-0.568,0.32-0.776c0.213-0.208,0.469-0.312,0.768-0.312
			c0.309,0,0.571,0.104,0.784,0.312c0.213,0.208,0.32,0.467,0.32,0.776s-0.107,0.571-0.32,0.784
			C55.423,158.581,55.161,158.688,54.852,158.688z M55.78,166.384h2.256V168h-6.352v-1.616h2.256v-4.944h-2.256v-1.616h4.096
			V166.384z M61.124,171.216v-11.392h1.84v0.624c0.501-0.544,1.168-0.816,2-0.816c1.099,0,1.971,0.379,2.616,1.136
			c0.645,0.757,0.968,1.808,0.968,3.152c0,1.312-0.333,2.352-1,3.12c-0.667,0.768-1.523,1.152-2.568,1.152
			c-0.853,0-1.525-0.283-2.016-0.848v3.024L61.124,171.216z M64.708,166.432c0.629,0,1.117-0.216,1.464-0.648
			c0.347-0.432,0.52-1.053,0.52-1.864c0-0.779-0.173-1.397-0.52-1.856c-0.347-0.459-0.84-0.688-1.48-0.688
			c-0.768,0-1.344,0.272-1.728,0.816v3.424C63.348,166.16,63.929,166.432,64.708,166.432z M75.412,166.384h2.384V168h-6.608v-1.616
			h2.384v-8.32h-1.904l-0.848-1.616h4.592V166.384z M84.356,168.192c-1.205,0-2.16-0.381-2.864-1.144
			c-0.704-0.763-1.056-1.805-1.056-3.128c0-1.312,0.352-2.355,1.056-3.128c0.704-0.773,1.659-1.16,2.864-1.16
			c1.216,0,2.173,0.387,2.872,1.16c0.699,0.773,1.048,1.816,1.048,3.128s-0.349,2.352-1.048,3.12
			C86.529,167.808,85.572,168.192,84.356,168.192z M84.356,166.432c0.661,0,1.171-0.224,1.528-0.672
			c0.357-0.448,0.536-1.061,0.536-1.84s-0.179-1.397-0.536-1.856c-0.357-0.459-0.867-0.688-1.528-0.688
			c-0.651,0-1.157,0.229-1.52,0.688c-0.363,0.459-0.544,1.077-0.544,1.856c0,0.768,0.181,1.379,0.544,1.832
			C83.199,166.205,83.705,166.432,84.356,166.432z M96.436,159.632c0.683,0,1.187,0.237,1.512,0.712
			c0.325,0.475,0.488,1.272,0.488,2.392V168h-1.68v-4.992c0-0.576-0.053-0.989-0.16-1.24c-0.107-0.251-0.304-0.376-0.592-0.376
			c-0.277,0-0.499,0.144-0.664,0.432c-0.165,0.288-0.248,0.688-0.248,1.2V168h-1.68v-5.04c0-1.045-0.256-1.568-0.768-1.568
			c-0.299,0-0.536,0.144-0.712,0.432c-0.176,0.288-0.264,0.688-0.264,1.2V168h-1.68v-8.176h1.568v1.088
			c0.299-0.853,0.837-1.28,1.616-1.28c0.341,0,0.643,0.117,0.904,0.352c0.261,0.235,0.445,0.512,0.552,0.832
			C95.119,160.027,95.721,159.632,96.436,159.632z M103.444,168.192c-0.896,0-1.624-0.235-2.184-0.704
			c-0.56-0.469-0.84-1.141-0.84-2.016c0-0.885,0.32-1.557,0.96-2.016c0.64-0.459,1.408-0.688,2.304-0.688
			c0.779,0,1.456,0.144,2.032,0.432v-0.48c0-0.981-0.539-1.472-1.616-1.472c-0.896,0-1.76,0.277-2.592,0.832l-0.56-1.504
			c0.992-0.629,2.096-0.944,3.312-0.944c2.165,0,3.248,1.024,3.248,3.072V168h-1.792v-0.64
			C105.14,167.915,104.383,168.192,103.444,168.192z M103.78,166.576c0.768,0,1.413-0.272,1.936-0.816v-1.056
			c-0.491-0.245-1.072-0.368-1.744-0.368c-0.512,0-0.936,0.096-1.272,0.288c-0.336,0.192-0.504,0.475-0.504,0.848
			c0,0.331,0.139,0.597,0.416,0.8S103.279,166.576,103.78,166.576z"/>
	</g>
	<g id="Group-2-Copy-3" transform="translate(39.000000, 65.000000)">
		<path id="Layer-1_2_" fill="none" stroke="#2C2F31" stroke-width="2" stroke-linecap="round" stroke-linejoin="round" d="
			M66.029,56c5.409,0,2.667-3.373,2.667-3.373l-2.667-3.373l-2.667,3.373C63.362,52.627,60.619,56,66.029,56z"/>
		<path id="Layer-2_2_" fill="#FFFFFF" stroke="#2C2F31" stroke-width="2" stroke-linecap="round" stroke-linejoin="round" d="
			M66.763,20.241c0,0-13.095,7.895-18.999,11.482c-5.198,3.159-14.306,8.759-14.306,8.759L0.096,20.241L33.459,0L66.763,20.241z"/>
		<path id="Layer-3_2_" fill="none" stroke="#2C2F31" stroke-width="2" stroke-linecap="round" stroke-linejoin="round" d="
			M66,20.241v29.221"/>
		<path id="Layer-4_2_" fill="#FFFFFF" stroke="#2C2F31" stroke-width="2" stroke-linecap="round" stroke-linejoin="round" d="
			M56,26.737v14.374c0,0-4.658,11.984-22.667,11.984S10.667,41.111,10.667,41.111V26.654l22.792,13.828
			c0,0,9.108-5.599,14.306-8.759C49.892,30.43,52.954,28.578,56,26.737L56,26.737z"/>
	</g>
</g>
<g id="Group_5_" transform="translate(310.000000, 24.000000)">
	<path id="Sceptic-image_8_" fill="none" stroke="#2C2F31" stroke-linecap="round" stroke-linejoin="round" d="M6,0h104.232
		L147.2,37.261V192.4c0,3.314-2.686,6-6,6H6c-3.314,0-6-2.686-6-6V6C0,2.686,2.686,0,6,0z"/>
	<polygon id="Sceptic-image_9_" fill="none" stroke="#2C2F31" stroke-linecap="round" stroke-linejoin="round" points="
		147.75,37.248 110.502,37.248 110.502,0 	"/>
</g>
<g id="Blockchain" transform="translate(182.000000, 520.000000)">
	<polygon fill="#F7F7F7" stroke="#2C2F31" stroke-linecap="round" stroke-linejoin="round" points="0,0 666,0 666,50 0,49.865 	"/>
	<text transform="matrix(1 0 0 1 284.22 31)" fill="#2C2F31" font-family="'OverpassMono-Bold'" font-size="16">Blockchain</text>
</g>
<path id="Line_5_" fill="none" stroke="#AAB1B5" stroke-linecap="round" stroke-linejoin="round" d="M440,619v-50"/>
<path id="Line_6_" fill="none" stroke="#AAB1B5" stroke-linecap="round" stroke-linejoin="round" d="M619,619v-50"/>
<g id="Page-1-Copy" transform="translate(419.000000, 633.000000)">
	<polyline id="Stroke-1" fill="none" stroke="#2C2F31" stroke-width="2" stroke-linecap="round" stroke-linejoin="round" points="
		12.188,11.371 12.188,15.659 12.188,20 12.188,20.868 12.188,39.965 20,39.965 27.812,39.965 27.812,20.868 27.812,20 
		27.812,15.659 27.812,11.232 	"/>
	<polyline id="Stroke-3" fill="none" stroke="#2C2F31" stroke-width="2" stroke-linecap="round" stroke-linejoin="round" points="
		10.451,12.188 20,6.979 29.549,12.188 	"/>
	<polyline id="Stroke-4" fill="none" stroke="#2C2F31" stroke-width="2" stroke-linecap="round" stroke-linejoin="round" points="
		12.188,20.868 0.035,20.868 3.507,15.66 12.188,15.66 	"/>
	<polyline id="Stroke-6" fill="none" stroke="#2C2F31" stroke-width="2" stroke-linecap="round" stroke-linejoin="round" points="
		27.812,15.66 36.493,15.66 39.965,20.868 27.812,20.868 	"/>
	<polyline id="Stroke-8" fill="none" stroke="#2C2F31" stroke-width="2" stroke-linecap="round" stroke-linejoin="round" points="
		38.229,20.868 38.229,39.965 1.771,39.965 1.771,20.868 	"/>
	<polyline id="Stroke-10" fill="none" stroke="#2C2F31" stroke-width="2" stroke-linecap="round" stroke-linejoin="round" points="
		20,3.507 24.34,3.507 24.34,0.035 20,0.035 20,6.979 	"/>
	<path id="Stroke-12" fill="none" stroke="#2C2F31" stroke-width="2" stroke-linecap="round" stroke-linejoin="round" d="
		M24.34,18.264c0,2.398-1.943,4.34-4.34,4.34s-4.34-1.943-4.34-4.34s1.943-4.34,4.34-4.34S24.34,15.866,24.34,18.264z"/>
	<polyline id="Stroke-14" fill="none" stroke="#2C2F31" stroke-width="2" stroke-linecap="round" stroke-linejoin="round" points="
		21.519,19.602 20,18.264 20,16.257 	"/>
	<path id="Stroke-16" fill="none" stroke="#2C2F31" stroke-width="2" stroke-linecap="round" stroke-linejoin="round" d="
		M15.66,39.965v-6.076c0-2.398,1.943-4.34,4.34-4.34s4.34,1.943,4.34,4.34v6.076"/>
	<polygon id="Stroke-18" fill="none" stroke="#2C2F31" stroke-width="2" stroke-linecap="round" stroke-linejoin="round" points="
		5.243,34.757 8.715,34.757 8.715,31.285 5.243,31.285 	"/>
	<polygon id="Stroke-20" fill="none" stroke="#2C2F31" stroke-width="2" stroke-linecap="round" stroke-linejoin="round" points="
		5.243,27.812 8.715,27.812 8.715,24.34 5.243,24.34 	"/>
	<polygon id="Stroke-21" fill="none" stroke="#2C2F31" stroke-width="2" stroke-linecap="round" stroke-linejoin="round" points="
		31.285,34.757 34.757,34.757 34.757,31.285 31.285,31.285 	"/>
	<polygon id="Stroke-22" fill="none" stroke="#2C2F31" stroke-width="2" stroke-linecap="round" stroke-linejoin="round" points="
		31.285,27.812 34.757,27.812 34.757,24.34 31.285,24.34 	"/>
</g>
<path id="Institution" fill="#2C2F31" d="M392.516,698.48h-2.352v7.84h2.352V708h-6.592v-1.68h2.336v-7.84h-2.336v-1.68h6.592
	V698.48z M399.652,699.632c0.896,0,1.624,0.269,2.184,0.808s0.84,1.395,0.84,2.568V708h-1.84v-4.608
	c0-0.704-0.155-1.216-0.464-1.536c-0.309-0.32-0.72-0.48-1.232-0.48c-1.205,0-1.808,0.661-1.808,1.984V708h-1.84v-8.176h1.696v1.008
	c0.16-0.32,0.472-0.6,0.936-0.84C398.588,699.752,399.097,699.632,399.652,699.632z M408.98,708.192
	c-0.693,0-1.333-0.131-1.92-0.392s-1.056-0.616-1.408-1.064l1.2-1.088c0.672,0.651,1.413,0.976,2.224,0.976
	c0.395,0,0.72-0.069,0.976-0.208s0.384-0.347,0.384-0.624c0-0.16-0.077-0.312-0.232-0.456s-0.333-0.264-0.536-0.36
	s-0.501-0.224-0.896-0.384c-0.043-0.021-0.077-0.037-0.104-0.048s-0.061-0.024-0.104-0.04c-0.043-0.016-0.08-0.029-0.112-0.04
	c-0.395-0.171-0.688-0.301-0.88-0.392c-0.192-0.091-0.424-0.219-0.696-0.384s-0.469-0.323-0.592-0.472
	c-0.123-0.149-0.232-0.339-0.328-0.568c-0.096-0.229-0.144-0.488-0.144-0.776c0-0.693,0.299-1.24,0.896-1.64
	c0.597-0.4,1.349-0.6,2.256-0.6c1.269,0,2.288,0.432,3.056,1.296l-1.232,1.008c-0.587-0.491-1.216-0.736-1.888-0.736
	c-0.416,0-0.749,0.061-1,0.184c-0.251,0.123-0.376,0.296-0.376,0.52c0,0.107,0.043,0.211,0.128,0.312s0.235,0.208,0.448,0.32
	c0.213,0.112,0.389,0.197,0.528,0.256s0.373,0.152,0.704,0.28c0.981,0.395,1.632,0.715,1.952,0.96
	c0.565,0.448,0.853,1.029,0.864,1.744c0,0.757-0.285,1.349-0.856,1.776C410.721,707.979,409.951,708.192,408.98,708.192z
	 M419.54,708.192c-1.6,0-2.4-0.741-2.4-2.224v-4.528h-1.712v-1.616h1.712v-2.496l1.84-0.88v3.376h2.784v1.616h-2.784v4.176
	c0,0.629,0.384,0.944,1.152,0.944c0.448,0,0.917-0.128,1.408-0.384l-0.224,1.648C420.847,708.069,420.255,708.192,419.54,708.192z
	 M428.708,698.688c-0.299,0-0.555-0.107-0.768-0.32c-0.213-0.213-0.32-0.475-0.32-0.784s0.107-0.568,0.32-0.776
	c0.213-0.208,0.469-0.312,0.768-0.312c0.309,0,0.571,0.104,0.784,0.312c0.213,0.208,0.32,0.467,0.32,0.776s-0.107,0.571-0.32,0.784
	C429.279,698.581,429.017,698.688,428.708,698.688z M429.636,706.384h2.256V708h-6.352v-1.616h2.256v-4.944h-2.256v-1.616h4.096
	V706.384z M439.252,708.192c-1.6,0-2.4-0.741-2.4-2.224v-4.528h-1.712v-1.616h1.712v-2.496l1.84-0.88v3.376h2.784v1.616h-2.784
	v4.176c0,0.629,0.384,0.944,1.152,0.944c0.448,0,0.917-0.128,1.408-0.384l-0.224,1.648
	C440.559,708.069,439.967,708.192,439.252,708.192z M447.812,708.192c-0.907,0-1.64-0.269-2.2-0.808
	c-0.56-0.539-0.84-1.4-0.84-2.584v-4.976h1.84v4.576c0,1.355,0.56,2.032,1.68,2.032c1.205,0,1.808-0.667,1.808-2v-4.608h1.84V708
	h-1.84v-0.784C449.577,707.867,448.815,708.192,447.812,708.192z M458.964,708.192c-1.6,0-2.4-0.741-2.4-2.224v-4.528h-1.712v-1.616
	h1.712v-2.496l1.84-0.88v3.376h2.784v1.616h-2.784v4.176c0,0.629,0.384,0.944,1.152,0.944c0.448,0,0.917-0.128,1.408-0.384
	l-0.224,1.648C460.271,708.069,459.679,708.192,458.964,708.192z M468.132,698.688c-0.299,0-0.555-0.107-0.768-0.32
	c-0.213-0.213-0.32-0.475-0.32-0.784s0.107-0.568,0.32-0.776c0.213-0.208,0.469-0.312,0.768-0.312c0.309,0,0.571,0.104,0.784,0.312
	c0.213,0.208,0.32,0.467,0.32,0.776s-0.107,0.571-0.32,0.784C468.703,698.581,468.441,698.688,468.132,698.688z M469.06,706.384
	h2.256V708h-6.352v-1.616h2.256v-4.944h-2.256v-1.616h4.096V706.384z M477.924,708.192c-1.205,0-2.16-0.381-2.864-1.144
	c-0.704-0.763-1.056-1.805-1.056-3.128c0-1.312,0.352-2.355,1.056-3.128s1.659-1.16,2.864-1.16c1.216,0,2.173,0.387,2.872,1.16
	s1.048,1.816,1.048,3.128s-0.349,2.352-1.048,3.12S479.14,708.192,477.924,708.192z M477.924,706.432
	c0.661,0,1.171-0.224,1.528-0.672s0.536-1.061,0.536-1.84c0-0.779-0.179-1.397-0.536-1.856c-0.357-0.459-0.867-0.688-1.528-0.688
	c-0.651,0-1.157,0.229-1.52,0.688c-0.363,0.459-0.544,1.077-0.544,1.856c0,0.768,0.181,1.379,0.544,1.832
	C476.767,706.205,477.273,706.432,477.924,706.432z M488.356,699.632c0.896,0,1.624,0.269,2.184,0.808s0.84,1.395,0.84,2.568V708
	h-1.84v-4.608c0-0.704-0.155-1.216-0.464-1.536c-0.309-0.32-0.72-0.48-1.232-0.48c-1.205,0-1.808,0.661-1.808,1.984V708h-1.84
	v-8.176h1.696v1.008c0.16-0.32,0.472-0.6,0.936-0.84C487.292,699.752,487.801,699.632,488.356,699.632z"/>
<path id="Person" fill="#2C2F31" d="M587.148,708v-11.2h3.952c1.291,0,2.237,0.336,2.84,1.008s0.904,1.493,0.904,2.464
	c0,0.917-0.315,1.725-0.944,2.424s-1.563,1.048-2.8,1.048h-2.048V708H587.148z M589.052,701.952h2.144
	c0.576,0,1.005-0.165,1.288-0.496s0.424-0.725,0.424-1.184c0-0.437-0.136-0.827-0.408-1.168s-0.707-0.512-1.304-0.512h-2.144
	V701.952z M604.444,703.504c0,0.469-0.021,0.843-0.064,1.12h-5.568c0.117,0.597,0.355,1.069,0.712,1.416
	c0.357,0.347,0.819,0.52,1.384,0.52c0.715,0,1.317-0.267,1.808-0.8l1.104,1.168c-0.768,0.843-1.744,1.264-2.928,1.264
	c-1.205,0-2.157-0.389-2.856-1.168s-1.048-1.819-1.048-3.12c0-1.323,0.352-2.365,1.056-3.128c0.704-0.763,1.653-1.144,2.848-1.144
	c1.045,0,1.899,0.328,2.56,0.984C604.113,701.272,604.444,702.235,604.444,703.504z M598.796,703.056h3.84
	c-0.053-0.597-0.243-1.048-0.568-1.352c-0.325-0.304-0.717-0.456-1.176-0.456c-0.587,0-1.059,0.16-1.416,0.48
	C599.119,702.048,598.892,702.491,598.796,703.056z M612.7,699.632c0.736,0,1.376,0.144,1.92,0.432v3.024h-1.792v-1.744h-0.16
	c-0.843,0-1.493,0.197-1.952,0.592c-0.459,0.395-0.688,0.987-0.688,1.776v2.672h2.288V708h-5.856v-1.616h1.728v-4.944h-1.728v-1.616
	h3.44v1.312c0.224-0.469,0.592-0.837,1.104-1.104C611.516,699.765,612.081,699.632,612.7,699.632z M620.476,708.192
	c-0.693,0-1.333-0.131-1.92-0.392s-1.056-0.616-1.408-1.064l1.2-1.088c0.672,0.651,1.413,0.976,2.224,0.976
	c0.395,0,0.72-0.069,0.976-0.208c0.256-0.139,0.384-0.347,0.384-0.624c0-0.16-0.077-0.312-0.232-0.456s-0.333-0.264-0.536-0.36
	c-0.203-0.096-0.501-0.224-0.896-0.384c-0.043-0.021-0.077-0.037-0.104-0.048s-0.061-0.024-0.104-0.04
	c-0.043-0.016-0.08-0.029-0.112-0.04c-0.395-0.171-0.688-0.301-0.88-0.392c-0.192-0.091-0.424-0.219-0.696-0.384
	c-0.272-0.165-0.469-0.323-0.592-0.472c-0.123-0.149-0.232-0.339-0.328-0.568c-0.096-0.229-0.144-0.488-0.144-0.776
	c0-0.693,0.299-1.24,0.896-1.64c0.597-0.4,1.349-0.6,2.256-0.6c1.269,0,2.288,0.432,3.056,1.296l-1.232,1.008
	c-0.587-0.491-1.216-0.736-1.888-0.736c-0.416,0-0.749,0.061-1,0.184c-0.251,0.123-0.376,0.296-0.376,0.52
	c0,0.107,0.043,0.211,0.128,0.312s0.235,0.208,0.448,0.32s0.389,0.197,0.528,0.256s0.373,0.152,0.704,0.28
	c0.981,0.395,1.632,0.715,1.952,0.96c0.565,0.448,0.853,1.029,0.864,1.744c0,0.757-0.285,1.349-0.856,1.776
	C622.217,707.979,621.447,708.192,620.476,708.192z M630.284,708.192c-1.205,0-2.16-0.381-2.864-1.144
	c-0.704-0.763-1.056-1.805-1.056-3.128c0-1.312,0.352-2.355,1.056-3.128c0.704-0.773,1.659-1.16,2.864-1.16
	c1.216,0,2.173,0.387,2.872,1.16s1.048,1.816,1.048,3.128s-0.349,2.352-1.048,3.12S631.5,708.192,630.284,708.192z M630.284,706.432
	c0.661,0,1.171-0.224,1.528-0.672c0.357-0.448,0.536-1.061,0.536-1.84c0-0.779-0.179-1.397-0.536-1.856
	c-0.357-0.459-0.867-0.688-1.528-0.688c-0.651,0-1.157,0.229-1.52,0.688c-0.363,0.459-0.544,1.077-0.544,1.856
	c0,0.768,0.181,1.379,0.544,1.832C629.127,706.205,629.633,706.432,630.284,706.432z M640.716,699.632
	c0.896,0,1.624,0.269,2.184,0.808s0.84,1.395,0.84,2.568V708h-1.84v-4.608c0-0.704-0.155-1.216-0.464-1.536
	c-0.309-0.32-0.72-0.48-1.232-0.48c-1.205,0-1.808,0.661-1.808,1.984V708h-1.84v-8.176h1.696v1.008c0.16-0.32,0.472-0.6,0.936-0.84
	S640.161,699.632,640.716,699.632z"/>
<g id="Page-1-Copy-7" transform="translate(601.000000, 633.000000)">
	<path id="Stroke-1_1_" fill="none" stroke="#2C2F31" stroke-width="2" stroke-linecap="round" stroke-linejoin="round" d="
		M12.064,24.408c-0.502,1.404-0.995,1.481-1.476,1.634C4.65,27.936,0.357,32.688,0.357,39.706h29.616
		c0-7.018-4.292-11.768-10.229-13.663c-0.481-0.154-0.975-0.232-1.477-1.635"/>
	<path id="Stroke-3_1_" fill="none" stroke="#2C2F31" stroke-width="2" stroke-linecap="round" stroke-linejoin="round" d="
		M6.599,13.542c-0.674,0.214-0.751,1.82-0.17,3.587c0.564,1.716,1.537,2.942,2.211,2.816c1.537,2.984,4.436,5.601,6.525,5.601
		c2.089,0,4.989-2.618,6.525-5.601c0.674,0.126,1.648-1.1,2.211-2.816c0.581-1.767,0.504-3.373-0.17-3.587"/>
	<path id="Stroke-5" fill="none" stroke="#2C2F31" stroke-width="2" stroke-linecap="round" stroke-linejoin="round" d="
		M21.593,26.934c0,1.55-2.878,2.807-6.429,2.807s-6.429-1.257-6.429-2.807"/>
	<path id="Stroke-7" fill="none" stroke="#2C2F31" stroke-width="2" stroke-linecap="round" stroke-linejoin="round" d="
		M6.599,13.542c0,0,2.38-0.363,2.737-3.801c1.357-0.842,9.071,2.246,10,3.368c0,0-1-3.228-1-3.509s3.286,1.544,4.071,4.912
		c0,0,2.429-1.544,2.857-5.544c0.429-4-4.071-13.544-15.929-5.474C8.05,3.636,2.599,2.174,6.599,13.542z"/>
</g>
<path id="_x32_0_x25_-Discount" fill="#2C2F31" d="M370.884,171c0-0.768,0.096-1.469,0.288-2.104
	c0.192-0.635,0.472-1.184,0.84-1.648c0.368-0.464,0.752-0.859,1.152-1.184s0.872-0.648,1.416-0.968
	c0.576-0.352,1.019-0.688,1.328-1.008c0.309-0.32,0.464-0.709,0.464-1.168s-0.144-0.827-0.432-1.104
	c-0.288-0.277-0.677-0.416-1.168-0.416c-1.003,0-1.685,0.464-2.048,1.392l-1.696-0.768c0.288-0.725,0.765-1.309,1.432-1.752
	c0.667-0.443,1.427-0.664,2.28-0.664c1.099,0,1.965,0.307,2.6,0.92s0.952,1.395,0.952,2.344c0,0.491-0.067,0.928-0.2,1.312
	s-0.352,0.731-0.656,1.04c-0.304,0.309-0.597,0.563-0.88,0.76c-0.283,0.197-0.669,0.44-1.16,0.728
	c-1.323,0.8-2.085,1.621-2.288,2.464h5.28V171H370.884z M384.5,171.192c-0.747,0-1.395-0.168-1.944-0.504s-0.971-0.792-1.264-1.368
	c-0.293-0.576-0.507-1.187-0.64-1.832c-0.133-0.645-0.2-1.341-0.2-2.088c0-0.725,0.064-1.405,0.192-2.04
	c0.128-0.635,0.336-1.245,0.624-1.832s0.709-1.053,1.264-1.4c0.555-0.347,1.211-0.52,1.968-0.52s1.411,0.168,1.96,0.504
	c0.549,0.336,0.971,0.792,1.264,1.368s0.507,1.187,0.64,1.832c0.133,0.645,0.2,1.341,0.2,2.088c0,0.725-0.067,1.405-0.2,2.04
	c-0.133,0.635-0.344,1.245-0.632,1.832s-0.709,1.053-1.264,1.4C385.913,171.019,385.257,171.192,384.5,171.192z M383.204,168.792
	c0.331,0.405,0.763,0.608,1.296,0.608s0.968-0.208,1.304-0.624c0.336-0.416,0.56-0.904,0.672-1.464
	c0.112-0.56,0.168-1.197,0.168-1.912c0-0.725-0.059-1.371-0.176-1.936c-0.117-0.565-0.344-1.051-0.68-1.456
	s-0.765-0.608-1.288-0.608c-0.533,0-0.968,0.208-1.304,0.624c-0.336,0.416-0.56,0.904-0.672,1.464
	c-0.112,0.56-0.168,1.197-0.168,1.912c0,0.725,0.059,1.371,0.176,1.936C382.649,167.901,382.873,168.387,383.204,168.792z
	 M385.3,166.216c-0.213,0.213-0.48,0.32-0.8,0.32s-0.587-0.109-0.8-0.328c-0.213-0.219-0.32-0.488-0.32-0.808
	c0-0.309,0.107-0.573,0.32-0.792c0.213-0.219,0.48-0.328,0.8-0.328s0.589,0.109,0.808,0.328c0.219,0.219,0.328,0.483,0.328,0.792
	C385.636,165.72,385.524,165.992,385.3,166.216z M391.284,171.192h-1.536l7.632-11.584h1.536L391.284,171.192z M393.588,164.248
	c-0.373,0.501-0.944,0.752-1.712,0.752s-1.339-0.248-1.712-0.744s-0.56-1.075-0.56-1.736c0-0.64,0.189-1.216,0.568-1.728
	c0.379-0.512,0.947-0.768,1.704-0.768c0.768,0,1.341,0.248,1.72,0.744s0.568,1.08,0.568,1.752
	C394.164,163.16,393.972,163.736,393.588,164.248z M391.076,163.528c0.181,0.245,0.448,0.368,0.8,0.368
	c0.352,0,0.619-0.131,0.8-0.392s0.272-0.589,0.272-0.984c0-0.427-0.091-0.765-0.272-1.016s-0.448-0.376-0.8-0.376
	c-0.352,0-0.616,0.131-0.792,0.392c-0.176,0.261-0.264,0.595-0.264,1C390.82,162.936,390.905,163.272,391.076,163.528z
	 M398.548,170.024c-0.363,0.501-0.933,0.752-1.712,0.752c-0.779,0-1.355-0.248-1.728-0.744s-0.56-1.08-0.56-1.752
	c0-0.629,0.189-1.203,0.568-1.72s0.952-0.776,1.72-0.776s1.339,0.248,1.712,0.744c0.373,0.496,0.56,1.08,0.56,1.752
	C399.108,168.931,398.921,169.512,398.548,170.024z M396.836,169.656c0.341,0,0.603-0.131,0.784-0.392
	c0.181-0.261,0.272-0.589,0.272-0.984c0-0.416-0.091-0.749-0.272-1s-0.443-0.376-0.784-0.376c-0.352,0-0.619,0.131-0.8,0.392
	s-0.272,0.589-0.272,0.984c0,0.416,0.091,0.749,0.272,1S396.484,169.656,396.836,169.656z M346.292,192v-11.2h2.816
	c0.725,0,1.381,0.107,1.968,0.32s1.075,0.496,1.464,0.848c0.389,0.352,0.715,0.771,0.976,1.256c0.261,0.485,0.451,0.992,0.568,1.52
	c0.117,0.528,0.176,1.08,0.176,1.656c0,0.533-0.053,1.056-0.16,1.568c-0.107,0.512-0.288,1.016-0.544,1.512
	s-0.579,0.928-0.968,1.296c-0.389,0.368-0.888,0.664-1.496,0.888S349.801,192,349.044,192H346.292z M348.196,190.208h1.04
	c0.544,0,1.021-0.112,1.432-0.336c0.411-0.224,0.728-0.525,0.952-0.904c0.224-0.379,0.389-0.784,0.496-1.216s0.16-0.883,0.16-1.352
	c0-1.045-0.24-1.941-0.72-2.688c-0.48-0.747-1.195-1.12-2.144-1.12h-1.216V190.208z M359.924,182.688
	c-0.299,0-0.555-0.107-0.768-0.32c-0.213-0.213-0.32-0.475-0.32-0.784s0.107-0.568,0.32-0.776c0.213-0.208,0.469-0.312,0.768-0.312
	c0.309,0,0.571,0.104,0.784,0.312c0.213,0.208,0.32,0.467,0.32,0.776s-0.107,0.571-0.32,0.784
	C360.495,182.581,360.233,182.688,359.924,182.688z M360.852,190.384h2.256V192h-6.352v-1.616h2.256v-4.944h-2.256v-1.616h4.096
	V190.384z M369.764,192.192c-0.693,0-1.333-0.131-1.92-0.392s-1.056-0.616-1.408-1.064l1.2-1.088
	c0.672,0.651,1.413,0.976,2.224,0.976c0.395,0,0.72-0.069,0.976-0.208s0.384-0.347,0.384-0.624c0-0.16-0.077-0.312-0.232-0.456
	s-0.333-0.264-0.536-0.36c-0.203-0.096-0.501-0.224-0.896-0.384c-0.043-0.021-0.077-0.037-0.104-0.048s-0.061-0.024-0.104-0.04
	c-0.043-0.016-0.08-0.029-0.112-0.04c-0.395-0.171-0.688-0.301-0.88-0.392c-0.192-0.091-0.424-0.219-0.696-0.384
	c-0.272-0.165-0.469-0.323-0.592-0.472c-0.123-0.149-0.232-0.339-0.328-0.568c-0.096-0.229-0.144-0.488-0.144-0.776
	c0-0.693,0.299-1.24,0.896-1.64c0.597-0.4,1.349-0.6,2.256-0.6c1.269,0,2.288,0.432,3.056,1.296l-1.232,1.008
	c-0.587-0.491-1.216-0.736-1.888-0.736c-0.416,0-0.749,0.061-1,0.184s-0.376,0.296-0.376,0.52c0,0.107,0.043,0.211,0.128,0.312
	s0.235,0.208,0.448,0.32c0.213,0.112,0.389,0.197,0.528,0.256c0.139,0.059,0.373,0.152,0.704,0.28
	c0.981,0.395,1.632,0.715,1.952,0.96c0.565,0.448,0.853,1.029,0.864,1.744c0,0.757-0.285,1.349-0.856,1.776
	C371.505,191.979,370.735,192.192,369.764,192.192z M379.732,192.192c-1.152,0-2.064-0.379-2.736-1.136s-1.008-1.803-1.008-3.136
	c0-1.323,0.344-2.368,1.032-3.136c0.688-0.768,1.603-1.152,2.744-1.152c1.739,0,2.859,0.741,3.36,2.224l-1.744,0.592
	c-0.277-0.715-0.811-1.072-1.6-1.072c-0.608,0-1.08,0.229-1.416,0.688c-0.336,0.459-0.504,1.077-0.504,1.856s0.168,1.392,0.504,1.84
	c0.336,0.448,0.797,0.672,1.384,0.672c0.853,0,1.413-0.4,1.68-1.2l1.744,0.544C382.681,191.387,381.535,192.192,379.732,192.192z
	 M389.428,192.192c-1.205,0-2.16-0.381-2.864-1.144c-0.704-0.763-1.056-1.805-1.056-3.128c0-1.312,0.352-2.355,1.056-3.128
	c0.704-0.773,1.659-1.16,2.864-1.16c1.216,0,2.173,0.387,2.872,1.16c0.699,0.773,1.048,1.816,1.048,3.128s-0.349,2.352-1.048,3.12
	C391.601,191.808,390.644,192.192,389.428,192.192z M389.428,190.432c0.661,0,1.171-0.224,1.528-0.672
	c0.357-0.448,0.536-1.061,0.536-1.84s-0.179-1.397-0.536-1.856c-0.357-0.459-0.867-0.688-1.528-0.688
	c-0.651,0-1.157,0.229-1.52,0.688c-0.363,0.459-0.544,1.077-0.544,1.856c0,0.768,0.181,1.379,0.544,1.832
	S388.777,190.432,389.428,190.432z M398.74,192.192c-0.907,0-1.64-0.269-2.2-0.808s-0.84-1.4-0.84-2.584v-4.976h1.84v4.576
	c0,1.355,0.56,2.032,1.68,2.032c1.205,0,1.808-0.667,1.808-2v-4.608h1.84V192h-1.84v-0.784
	C400.505,191.867,399.743,192.192,398.74,192.192z M409.716,183.632c0.896,0,1.624,0.269,2.184,0.808s0.84,1.395,0.84,2.568V192
	h-1.84v-4.608c0-0.704-0.155-1.216-0.464-1.536c-0.309-0.32-0.72-0.48-1.232-0.48c-1.205,0-1.808,0.661-1.808,1.984V192h-1.84
	v-8.176h1.696v1.008c0.16-0.32,0.472-0.6,0.936-0.84C408.652,183.752,409.161,183.632,409.716,183.632z M419.748,192.192
	c-1.6,0-2.4-0.741-2.4-2.224v-4.528h-1.712v-1.616h1.712v-2.496l1.84-0.88v3.376h2.784v1.616h-2.784v4.176
	c0,0.629,0.384,0.944,1.152,0.944c0.448,0,0.917-0.128,1.408-0.384l-0.224,1.648C421.055,192.069,420.463,192.192,419.748,192.192z"
	/>
<g id="Page-1_1_" transform="translate(350.000000, 74.000000)">
	
		<polygon id="Stroke-1_2_" fill="#F7F7F7" stroke="#2C2F31" stroke-width="2" stroke-linecap="round" stroke-linejoin="round" points="
		34,0.458 41.782,4.953 50.771,4.953 55.265,12.735 63.047,17.229 63.047,26.218 67.542,34 63.047,41.782 63.047,50.771 
		55.265,55.265 50.771,63.047 41.782,63.047 34,67.542 26.218,63.047 17.229,63.047 12.735,55.265 4.953,50.771 4.953,41.782 
		0.458,34 4.953,26.218 4.953,17.229 12.735,12.735 17.229,4.953 26.218,4.953 	"/>
	<path id="Stroke-3_2_" fill="#F7F7F7" stroke="#2C2F31" stroke-width="2" stroke-linecap="round" stroke-linejoin="round" d="
		M17.958,50.042l32.083-32.083"/>
	<path id="Stroke-4_1_" fill="#F7F7F7" stroke="#2C2F31" stroke-width="2" stroke-linecap="round" stroke-linejoin="round" d="
		M29.625,23.792c0,3.22-2.613,5.833-5.833,5.833s-5.833-2.613-5.833-5.833s2.613-5.833,5.833-5.833S29.625,20.572,29.625,23.792z"/>
	<path id="Stroke-6_1_" fill="#F7F7F7" stroke="#2C2F31" stroke-width="2" stroke-linecap="round" stroke-linejoin="round" d="
		M50.042,44.208c0,3.22-2.613,5.833-5.833,5.833c-3.22,0-5.833-2.613-5.833-5.833c0-3.22,2.613-5.833,5.833-5.833
		C47.428,38.375,50.042,40.988,50.042,44.208z"/>
</g>
<path id="Achievement" fill="#2C2F31" d="M596.732,192l-0.736-2.464h-3.552L591.708,192h-2.048l3.664-11.2h1.792l3.664,11.2H596.732
	z M592.956,187.808h2.528l-0.992-3.328c-0.107-0.341-0.197-0.757-0.272-1.248c-0.128,0.651-0.219,1.067-0.272,1.248L592.956,187.808
	z M604.236,192.192c-1.152,0-2.064-0.379-2.736-1.136s-1.008-1.803-1.008-3.136c0-1.323,0.344-2.368,1.032-3.136
	s1.603-1.152,2.744-1.152c1.739,0,2.859,0.741,3.36,2.224l-1.744,0.592c-0.277-0.715-0.811-1.072-1.6-1.072
	c-0.608,0-1.08,0.229-1.416,0.688c-0.336,0.459-0.504,1.077-0.504,1.856s0.168,1.392,0.504,1.84
	c0.336,0.448,0.797,0.672,1.384,0.672c0.853,0,1.413-0.4,1.68-1.2l1.744,0.544C607.185,191.387,606.039,192.192,604.236,192.192z
	 M610.348,192v-10.704l1.84-0.848v4.176c0.533-0.661,1.307-0.992,2.32-0.992c0.896,0,1.624,0.269,2.184,0.808s0.84,1.395,0.84,2.568
	V192h-1.84v-4.608c0-0.704-0.157-1.216-0.472-1.536c-0.315-0.32-0.723-0.48-1.224-0.48c-0.533,0-0.968,0.155-1.304,0.464
	c-0.336,0.309-0.504,0.816-0.504,1.52V192H610.348z M623.852,182.688c-0.299,0-0.555-0.107-0.768-0.32
	c-0.213-0.213-0.32-0.475-0.32-0.784s0.107-0.568,0.32-0.776c0.213-0.208,0.469-0.312,0.768-0.312c0.309,0,0.571,0.104,0.784,0.312
	c0.213,0.208,0.32,0.467,0.32,0.776s-0.107,0.571-0.32,0.784S624.161,182.688,623.852,182.688z M624.78,190.384h2.256V192h-6.352
	v-1.616h2.256v-4.944h-2.256v-1.616h4.096V190.384z M637.372,187.504c0,0.469-0.021,0.843-0.064,1.12h-5.568
	c0.117,0.597,0.355,1.069,0.712,1.416c0.357,0.347,0.819,0.52,1.384,0.52c0.715,0,1.317-0.267,1.808-0.8l1.104,1.168
	c-0.768,0.843-1.744,1.264-2.928,1.264c-1.205,0-2.157-0.389-2.856-1.168s-1.048-1.819-1.048-3.12c0-1.323,0.352-2.365,1.056-3.128
	c0.704-0.763,1.653-1.144,2.848-1.144c1.045,0,1.899,0.328,2.56,0.984S637.372,186.235,637.372,187.504z M631.724,187.056h3.84
	c-0.053-0.597-0.243-1.048-0.568-1.352c-0.325-0.304-0.717-0.456-1.176-0.456c-0.587,0-1.059,0.16-1.416,0.48
	C632.047,186.048,631.82,186.491,631.724,187.056z M642.604,192l-3.184-8.176h1.968l1.888,5.184c0.117,0.363,0.197,0.656,0.24,0.88
	c0.053-0.288,0.133-0.581,0.24-0.88l1.872-5.184h1.952L644.396,192H642.604z M657.084,187.504c0,0.469-0.021,0.843-0.064,1.12
	h-5.568c0.117,0.597,0.355,1.069,0.712,1.416c0.357,0.347,0.819,0.52,1.384,0.52c0.715,0,1.317-0.267,1.808-0.8l1.104,1.168
	c-0.768,0.843-1.744,1.264-2.928,1.264c-1.205,0-2.157-0.389-2.856-1.168s-1.048-1.819-1.048-3.12c0-1.323,0.352-2.365,1.056-3.128
	c0.704-0.763,1.653-1.144,2.848-1.144c1.045,0,1.899,0.328,2.56,0.984C656.753,185.272,657.084,186.235,657.084,187.504z
	 M651.436,187.056h3.84c-0.053-0.597-0.243-1.048-0.568-1.352s-0.717-0.456-1.176-0.456c-0.587,0-1.059,0.16-1.416,0.48
	C651.759,186.048,651.532,186.491,651.436,187.056z M665.436,183.632c0.683,0,1.187,0.237,1.512,0.712s0.488,1.272,0.488,2.392V192
	h-1.68v-4.992c0-0.576-0.053-0.989-0.16-1.24c-0.107-0.251-0.304-0.376-0.592-0.376c-0.277,0-0.499,0.144-0.664,0.432
	c-0.165,0.288-0.248,0.688-0.248,1.2V192h-1.68v-5.04c0-1.045-0.256-1.568-0.768-1.568c-0.299,0-0.536,0.144-0.712,0.432
	c-0.176,0.288-0.264,0.688-0.264,1.2V192h-1.68v-8.176h1.568v1.088c0.299-0.853,0.837-1.28,1.616-1.28
	c0.341,0,0.643,0.117,0.904,0.352c0.261,0.235,0.445,0.512,0.552,0.832C664.119,184.027,664.721,183.632,665.436,183.632z
	 M676.796,187.504c0,0.469-0.021,0.843-0.064,1.12h-5.568c0.117,0.597,0.355,1.069,0.712,1.416c0.357,0.347,0.819,0.52,1.384,0.52
	c0.715,0,1.317-0.267,1.808-0.8l1.104,1.168c-0.768,0.843-1.744,1.264-2.928,1.264c-1.205,0-2.157-0.389-2.856-1.168
	s-1.048-1.819-1.048-3.12c0-1.323,0.352-2.365,1.056-3.128s1.653-1.144,2.848-1.144c1.045,0,1.899,0.328,2.56,0.984
	C676.465,185.272,676.796,186.235,676.796,187.504z M671.148,187.056h3.84c-0.053-0.597-0.243-1.048-0.568-1.352
	c-0.325-0.304-0.717-0.456-1.176-0.456c-0.587,0-1.059,0.16-1.416,0.48C671.471,186.048,671.244,186.491,671.148,187.056z
	 M683.5,183.632c0.896,0,1.624,0.269,2.184,0.808s0.84,1.395,0.84,2.568V192h-1.84v-4.608c0-0.704-0.155-1.216-0.464-1.536
	c-0.309-0.32-0.72-0.48-1.232-0.48c-1.205,0-1.808,0.661-1.808,1.984V192h-1.84v-8.176h1.696v1.008c0.16-0.32,0.472-0.6,0.936-0.84
	C682.436,183.752,682.945,183.632,683.5,183.632z M693.532,192.192c-1.6,0-2.4-0.741-2.4-2.224v-4.528h-1.712v-1.616h1.712v-2.496
	l1.84-0.88v3.376h2.784v1.616h-2.784v4.176c0,0.629,0.384,0.944,1.152,0.944c0.448,0,0.917-0.128,1.408-0.384l-0.224,1.648
	C694.839,192.069,694.247,192.192,693.532,192.192z"/>
<path id="Holders" fill="#2C2F31" d="M42.9,713v-14h2.38v5.66h4.52V699h2.38v14H49.8v-6.1h-4.52v6.1H42.9z M59.86,713.24
	c-1.507,0-2.7-0.477-3.58-1.43c-0.88-0.953-1.32-2.257-1.32-3.91c0-1.64,0.44-2.943,1.32-3.91s2.073-1.45,3.58-1.45
	c1.52,0,2.717,0.483,3.59,1.45c0.873,0.967,1.31,2.27,1.31,3.91c0,1.64-0.437,2.94-1.31,3.9
	C62.577,712.76,61.38,713.24,59.86,713.24z M59.86,711.04c0.827,0,1.463-0.28,1.91-0.84c0.447-0.56,0.67-1.327,0.67-2.3
	c0-0.973-0.223-1.747-0.67-2.32c-0.447-0.573-1.083-0.86-1.91-0.86c-0.813,0-1.447,0.287-1.9,0.86
	c-0.453,0.573-0.68,1.347-0.68,2.32c0,0.96,0.227,1.723,0.68,2.29S59.047,711.04,59.86,711.04z M73.32,710.98h2.98V713h-8.26v-2.02
	h2.98v-10.4h-2.38l-1.06-2.02h5.74V710.98z M84.14,713.24c-1.4,0-2.5-0.47-3.3-1.41c-0.8-0.94-1.2-2.257-1.2-3.95
	c0-1.64,0.41-2.94,1.23-3.9c0.82-0.96,1.89-1.44,3.21-1.44c1.093,0,1.94,0.327,2.54,0.98v-3.9l2.3-1.06V713h-2.3v-0.78
	c-0.213,0.28-0.543,0.52-0.99,0.72C85.183,713.14,84.687,713.24,84.14,713.24z M84.46,711.04c1,0,1.72-0.333,2.16-1v-4.32
	c-0.48-0.667-1.213-1-2.2-1c-0.787,0-1.393,0.273-1.82,0.82c-0.427,0.547-0.64,1.327-0.64,2.34c0,0.96,0.217,1.727,0.65,2.3
	C83.043,710.753,83.66,711.04,84.46,711.04z M101.48,707.38c0,0.587-0.027,1.053-0.08,1.4h-6.96c0.147,0.747,0.443,1.337,0.89,1.77
	s1.023,0.65,1.73,0.65c0.893,0,1.647-0.333,2.26-1l1.38,1.46c-0.96,1.053-2.18,1.58-3.66,1.58c-1.507,0-2.697-0.487-3.57-1.46
	c-0.873-0.973-1.31-2.273-1.31-3.9c0-1.653,0.44-2.957,1.32-3.91c0.88-0.953,2.067-1.43,3.56-1.43c1.307,0,2.373,0.41,3.2,1.23
	C101.067,704.59,101.48,705.793,101.48,707.38z M94.42,706.82h4.8c-0.067-0.747-0.303-1.31-0.71-1.69s-0.897-0.57-1.47-0.57
	c-0.733,0-1.323,0.2-1.77,0.6C94.823,705.56,94.54,706.113,94.42,706.82z M111.8,702.54c0.92,0,1.72,0.18,2.4,0.54v3.78h-2.24v-2.18
	h-0.2c-1.053,0-1.867,0.247-2.44,0.74s-0.86,1.233-0.86,2.22v3.34h2.86V713H104v-2.02h2.16v-6.18H104v-2.02h4.3v1.64
	c0.28-0.587,0.74-1.047,1.38-1.38C110.32,702.707,111.027,702.54,111.8,702.54z M121.52,713.24c-0.867,0-1.667-0.163-2.4-0.49
	s-1.32-0.77-1.76-1.33l1.5-1.36c0.84,0.813,1.767,1.22,2.78,1.22c0.493,0,0.9-0.087,1.22-0.26s0.48-0.433,0.48-0.78
	c0-0.2-0.097-0.39-0.29-0.57c-0.193-0.18-0.417-0.33-0.67-0.45c-0.253-0.12-0.627-0.28-1.12-0.48
	c-0.053-0.027-0.097-0.047-0.13-0.06c-0.033-0.013-0.077-0.03-0.13-0.05s-0.1-0.037-0.14-0.05c-0.493-0.213-0.86-0.377-1.1-0.49
	c-0.24-0.113-0.53-0.273-0.87-0.48s-0.587-0.403-0.74-0.59c-0.153-0.187-0.29-0.423-0.41-0.71c-0.12-0.287-0.18-0.61-0.18-0.97
	c0-0.867,0.373-1.55,1.12-2.05c0.747-0.5,1.687-0.75,2.82-0.75c1.587,0,2.86,0.54,3.82,1.62l-1.54,1.26
	c-0.733-0.613-1.52-0.92-2.36-0.92c-0.52,0-0.937,0.077-1.25,0.23c-0.313,0.153-0.47,0.37-0.47,0.65c0,0.133,0.053,0.263,0.16,0.39
	c0.107,0.127,0.293,0.26,0.56,0.4c0.267,0.14,0.487,0.247,0.66,0.32c0.173,0.073,0.467,0.19,0.88,0.35
	c1.227,0.493,2.04,0.893,2.44,1.2c0.707,0.56,1.067,1.287,1.08,2.18c0,0.947-0.357,1.687-1.07,2.22
	C123.697,712.973,122.733,713.24,121.52,713.24z"/>
<path id="Line_7_" fill="#FFFFFF" stroke="#AAB1B5" stroke-linecap="round" stroke-linejoin="round" stroke-dasharray="6,12" d="
	M101,681V127V681z"/>
<path id="Line-Copy" fill="#FFFFFF" stroke="#AAB1B5" stroke-linecap="round" stroke-linejoin="round" stroke-dasharray="6,12" d="
	M73,678V127V678z"/>
<g id="Arrow-head" transform="translate(97.500000, 127.000000) scale(1, -1) translate(-97.500000, -127.000000) translate(85.000000, 117.000000)">
	<path id="Line-4" fill="none" stroke="#AAB1B5" stroke-width="1.6" stroke-linecap="round" stroke-linejoin="round" d="
		M14.4,17.038L24.889,4.8"/>
	<path id="Line-4_1_" fill="none" stroke="#AAB1B5" stroke-width="1.6" stroke-linecap="round" stroke-linejoin="round" d="
		M14.4,16.8L3.911,4.562"/>
</g>
<g id="Arrow-head_1_" transform="translate(58.000000, 665.000000)">
	<path id="Line-4_2_" fill="none" stroke="#AAB1B5" stroke-width="1.6" stroke-linecap="round" stroke-linejoin="round" d="
		M14.4,17.038L24.889,4.8"/>
	<path id="Line-4_3_" fill="none" stroke="#AAB1B5" stroke-width="1.6" stroke-linecap="round" stroke-linejoin="round" d="
		M14.4,16.8L3.911,4.562"/>
</g>
<g>
	<path d="M42.916,45.875v-14.7h3.696c0.952,0,1.813,0.14,2.583,0.42c0.77,0.28,1.41,0.651,1.921,1.113s0.938,1.012,1.281,1.648
		c0.343,0.637,0.591,1.302,0.746,1.995c0.154,0.693,0.231,1.417,0.231,2.173c0,0.7-0.07,1.386-0.21,2.058
		c-0.14,0.672-0.378,1.333-0.714,1.984s-0.759,1.218-1.271,1.701s-1.166,0.872-1.963,1.166s-1.694,0.441-2.688,0.441H42.916z
		 M45.415,43.523h1.365c0.714,0,1.34-0.147,1.879-0.441s0.956-0.689,1.25-1.187c0.294-0.497,0.511-1.029,0.651-1.596
		c0.14-0.567,0.21-1.158,0.21-1.774c0-1.372-0.315-2.548-0.945-3.528s-1.568-1.47-2.814-1.47h-1.596V43.523z"/>
	<path d="M62.026,43.754h2.961v2.121H56.65v-2.121h2.961v-6.489H56.65v-2.121h5.376V43.754z M60.808,33.653
		c-0.392,0-0.728-0.14-1.008-0.42c-0.28-0.28-0.42-0.623-0.42-1.029c0-0.406,0.14-0.746,0.42-1.019
		c0.28-0.273,0.616-0.41,1.008-0.41c0.406,0,0.749,0.137,1.029,0.41c0.28,0.273,0.42,0.613,0.42,1.019
		c0,0.406-0.14,0.749-0.42,1.029C61.557,33.513,61.214,33.653,60.808,33.653z"/>
	<path d="M73.03,50.138l-1.302-1.974c1.498-0.112,2.53-0.343,3.097-0.693c0.567-0.35,0.851-0.917,0.851-1.701v-0.63
		c-0.574,0.658-1.407,0.987-2.499,0.987c-1.316,0-2.387-0.486-3.213-1.459c-0.826-0.973-1.239-2.362-1.239-4.168
		c0-1.722,0.413-3.087,1.239-4.095c0.826-1.008,1.911-1.512,3.255-1.512c1.022,0,1.841,0.308,2.457,0.924v-0.672h2.415v9.597
		c0,1.833-0.381,3.16-1.145,3.979C76.183,49.54,74.878,50.012,73.03,50.138z M73.597,43.817c0.91,0,1.603-0.364,2.079-1.092v-4.473
		c-0.504-0.714-1.197-1.071-2.079-1.071c-0.798,0-1.407,0.283-1.827,0.851c-0.42,0.567-0.63,1.389-0.63,2.467
		c0,1.022,0.213,1.831,0.64,2.425C72.208,43.52,72.812,43.817,73.597,43.817z"/>
	<path d="M87.897,43.754h2.961v2.121h-8.337v-2.121h2.961v-6.489h-2.961v-2.121h5.376V43.754z M86.679,33.653
		c-0.392,0-0.728-0.14-1.008-0.42c-0.28-0.28-0.42-0.623-0.42-1.029c0-0.406,0.14-0.746,0.42-1.019
		c0.28-0.273,0.616-0.41,1.008-0.41c0.406,0,0.749,0.137,1.029,0.41c0.28,0.273,0.42,0.613,0.42,1.019
		c0,0.406-0.14,0.749-0.42,1.029C87.428,33.513,87.085,33.653,86.679,33.653z"/>
	<path d="M100.519,46.127c-2.1,0-3.15-0.973-3.15-2.919v-5.943h-2.247v-2.121h2.247v-3.276l2.415-1.155v4.431h3.654v2.121h-3.654
		v5.481c0,0.826,0.504,1.239,1.512,1.239c0.588,0,1.204-0.168,1.848-0.504l-0.294,2.163
		C102.233,45.966,101.456,46.127,100.519,46.127z"/>
	<path d="M111.648,46.127c-1.176,0-2.131-0.308-2.866-0.924c-0.735-0.616-1.103-1.498-1.103-2.646c0-1.162,0.42-2.044,1.26-2.646
		s1.848-0.903,3.024-0.903c1.022,0,1.911,0.189,2.667,0.567v-0.63c0-1.288-0.707-1.932-2.121-1.932c-1.176,0-2.31,0.364-3.402,1.092
		l-0.735-1.974c1.302-0.826,2.751-1.239,4.347-1.239c2.842,0,4.263,1.344,4.263,4.032v6.951h-2.352v-0.84
		C113.875,45.763,112.88,46.127,111.648,46.127z M112.089,44.006c1.008,0,1.855-0.357,2.541-1.071v-1.386
		c-0.644-0.322-1.407-0.483-2.289-0.483c-0.672,0-1.229,0.126-1.669,0.378s-0.661,0.623-0.661,1.113c0,0.434,0.182,0.784,0.546,1.05
		C110.92,43.873,111.431,44.006,112.089,44.006z"/>
	<path d="M126.601,43.754h3.129v2.121h-8.673v-2.121h3.129v-10.92h-2.499l-1.113-2.121h6.027V43.754z"/>
	<path d="M46.969,71.327c-1.176,0-2.131-0.308-2.866-0.924C43.367,69.787,43,68.905,43,67.757c0-1.162,0.42-2.044,1.26-2.646
		s1.848-0.903,3.024-0.903c1.022,0,1.911,0.189,2.667,0.567v-0.63c0-1.288-0.707-1.932-2.121-1.932c-1.176,0-2.31,0.364-3.402,1.092
		l-0.735-1.974c1.302-0.826,2.751-1.239,4.347-1.239c2.842,0,4.263,1.344,4.263,4.032v6.951h-2.352v-0.84
		C49.195,70.963,48.201,71.327,46.969,71.327z M47.41,69.206c1.008,0,1.855-0.357,2.541-1.071v-1.386
		c-0.644-0.322-1.407-0.483-2.289-0.483c-0.672,0-1.229,0.126-1.669,0.378s-0.661,0.623-0.661,1.113c0,0.434,0.182,0.784,0.546,1.05
		C46.241,69.073,46.751,69.206,47.41,69.206z"/>
	<path d="M60.787,71.327c-0.91,0-1.75-0.171-2.52-0.515c-0.771-0.343-1.386-0.808-1.848-1.396l1.575-1.428
		c0.882,0.854,1.855,1.281,2.919,1.281c0.518,0,0.945-0.091,1.281-0.273c0.336-0.182,0.504-0.455,0.504-0.819
		c0-0.21-0.102-0.41-0.304-0.599c-0.203-0.189-0.438-0.346-0.704-0.473c-0.266-0.126-0.658-0.294-1.176-0.504
		c-0.056-0.028-0.102-0.049-0.136-0.063c-0.035-0.014-0.081-0.031-0.137-0.052s-0.105-0.039-0.147-0.053
		c-0.518-0.224-0.903-0.396-1.155-0.514c-0.252-0.119-0.557-0.287-0.914-0.504c-0.357-0.217-0.616-0.423-0.777-0.619
		c-0.161-0.196-0.305-0.444-0.431-0.746c-0.126-0.301-0.189-0.641-0.189-1.019c0-0.91,0.392-1.627,1.176-2.152
		c0.784-0.525,1.771-0.788,2.961-0.788c1.666,0,3.003,0.567,4.011,1.701l-1.617,1.323c-0.77-0.644-1.596-0.966-2.478-0.966
		c-0.546,0-0.983,0.081-1.312,0.241c-0.329,0.161-0.493,0.389-0.493,0.683c0,0.14,0.056,0.276,0.168,0.41
		c0.112,0.133,0.308,0.273,0.588,0.42c0.28,0.147,0.511,0.259,0.693,0.336c0.182,0.077,0.49,0.199,0.924,0.368
		c1.288,0.518,2.142,0.938,2.562,1.26c0.742,0.588,1.12,1.351,1.134,2.289c0,0.994-0.375,1.771-1.124,2.331
		S62.061,71.327,60.787,71.327z"/>
	<path d="M73.723,71.327c-0.91,0-1.75-0.171-2.52-0.515c-0.771-0.343-1.386-0.808-1.848-1.396l1.575-1.428
		c0.882,0.854,1.855,1.281,2.919,1.281c0.518,0,0.945-0.091,1.281-0.273c0.336-0.182,0.504-0.455,0.504-0.819
		c0-0.21-0.102-0.41-0.304-0.599c-0.203-0.189-0.438-0.346-0.704-0.473c-0.266-0.126-0.658-0.294-1.176-0.504
		c-0.056-0.028-0.102-0.049-0.136-0.063c-0.035-0.014-0.081-0.031-0.137-0.052s-0.105-0.039-0.147-0.053
		c-0.518-0.224-0.903-0.396-1.155-0.514c-0.252-0.119-0.557-0.287-0.914-0.504c-0.357-0.217-0.616-0.423-0.777-0.619
		c-0.161-0.196-0.305-0.444-0.431-0.746c-0.126-0.301-0.189-0.641-0.189-1.019c0-0.91,0.392-1.627,1.176-2.152
		c0.784-0.525,1.771-0.788,2.961-0.788c1.666,0,3.003,0.567,4.011,1.701l-1.617,1.323c-0.77-0.644-1.596-0.966-2.478-0.966
		c-0.546,0-0.983,0.081-1.312,0.241c-0.329,0.161-0.493,0.389-0.493,0.683c0,0.14,0.056,0.276,0.168,0.41
		c0.112,0.133,0.308,0.273,0.588,0.42c0.28,0.147,0.511,0.259,0.693,0.336c0.182,0.077,0.49,0.199,0.924,0.368
		c1.288,0.518,2.142,0.938,2.562,1.26c0.742,0.588,1.12,1.351,1.134,2.289c0,0.994-0.375,1.771-1.124,2.331
		S74.997,71.327,73.723,71.327z"/>
	<path d="M91.488,65.174c0,0.616-0.028,1.106-0.084,1.47h-7.308c0.154,0.784,0.465,1.404,0.934,1.859s1.074,0.682,1.817,0.682
		c0.938,0,1.729-0.35,2.373-1.05l1.449,1.533c-1.008,1.106-2.289,1.659-3.843,1.659c-1.583,0-2.832-0.511-3.749-1.533
		c-0.917-1.022-1.375-2.387-1.375-4.095c0-1.736,0.462-3.104,1.386-4.105s2.17-1.501,3.738-1.501c1.372,0,2.492,0.43,3.36,1.292
		C91.054,62.245,91.488,63.508,91.488,65.174z M84.076,64.586h5.04c-0.07-0.784-0.318-1.375-0.745-1.775
		c-0.427-0.399-0.942-0.598-1.543-0.598c-0.771,0-1.39,0.21-1.859,0.63S84.202,63.844,84.076,64.586z"/>
	<path d="M100.519,71.327c-2.1,0-3.15-0.973-3.15-2.919v-5.943h-2.247v-2.121h2.247v-3.276l2.415-1.155v4.431h3.654v2.121h-3.654
		v5.481c0,0.826,0.504,1.239,1.512,1.239c0.588,0,1.204-0.168,1.848-0.504l-0.294,2.163
		C102.233,71.166,101.456,71.327,100.519,71.327z"/>
	<path d="M112.53,71.327c-0.91,0-1.75-0.171-2.52-0.515c-0.771-0.343-1.386-0.808-1.848-1.396l1.575-1.428
		c0.882,0.854,1.855,1.281,2.919,1.281c0.518,0,0.945-0.091,1.281-0.273c0.336-0.182,0.504-0.455,0.504-0.819
		c0-0.21-0.102-0.41-0.304-0.599c-0.203-0.189-0.438-0.346-0.704-0.473c-0.266-0.126-0.658-0.294-1.176-0.504
		c-0.056-0.028-0.102-0.049-0.136-0.063c-0.035-0.014-0.081-0.031-0.137-0.052s-0.105-0.039-0.147-0.053
		c-0.518-0.224-0.903-0.396-1.155-0.514c-0.252-0.119-0.557-0.287-0.914-0.504c-0.357-0.217-0.616-0.423-0.777-0.619
		c-0.161-0.196-0.305-0.444-0.431-0.746c-0.126-0.301-0.189-0.641-0.189-1.019c0-0.91,0.392-1.627,1.176-2.152
		c0.784-0.525,1.771-0.788,2.961-0.788c1.666,0,3.003,0.567,4.011,1.701l-1.617,1.323c-0.77-0.644-1.596-0.966-2.478-0.966
		c-0.546,0-0.983,0.081-1.312,0.241c-0.329,0.161-0.493,0.389-0.493,0.683c0,0.14,0.056,0.276,0.168,0.41
		c0.112,0.133,0.308,0.273,0.588,0.42c0.28,0.147,0.511,0.259,0.693,0.336c0.182,0.077,0.49,0.199,0.924,0.368
		c1.288,0.518,2.142,0.938,2.562,1.26c0.742,0.588,1.12,1.351,1.134,2.289c0,0.994-0.375,1.771-1.124,2.331
		S113.804,71.327,112.53,71.327z"/>
	<path d="M137.521,71.327c-1.176,0-2.131-0.308-2.866-0.924c-0.735-0.616-1.103-1.498-1.103-2.646c0-1.162,0.42-2.044,1.26-2.646
		s1.848-0.903,3.024-0.903c1.022,0,1.911,0.189,2.667,0.567v-0.63c0-1.288-0.707-1.932-2.121-1.932c-1.176,0-2.31,0.364-3.402,1.092
		l-0.735-1.974c1.302-0.826,2.751-1.239,4.347-1.239c2.842,0,4.263,1.344,4.263,4.032v6.951h-2.352v-0.84
		C139.747,70.963,138.752,71.327,137.521,71.327z M137.961,69.206c1.008,0,1.855-0.357,2.541-1.071v-1.386
		c-0.644-0.322-1.407-0.483-2.289-0.483c-0.672,0-1.229,0.126-1.669,0.378s-0.661,0.623-0.661,1.113c0,0.434,0.182,0.784,0.546,1.05
		C136.792,69.073,137.303,69.206,137.961,69.206z"/>
	<path d="M151.338,71.327c-0.91,0-1.75-0.171-2.52-0.515c-0.771-0.343-1.386-0.808-1.848-1.396l1.575-1.428
		c0.882,0.854,1.855,1.281,2.919,1.281c0.518,0,0.945-0.091,1.281-0.273c0.336-0.182,0.504-0.455,0.504-0.819
		c0-0.21-0.102-0.41-0.304-0.599c-0.203-0.189-0.438-0.346-0.704-0.473c-0.266-0.126-0.658-0.294-1.176-0.504
		c-0.056-0.028-0.102-0.049-0.136-0.063c-0.035-0.014-0.081-0.031-0.137-0.052s-0.105-0.039-0.147-0.053
		c-0.518-0.224-0.903-0.396-1.155-0.514c-0.252-0.119-0.557-0.287-0.914-0.504c-0.357-0.217-0.616-0.423-0.777-0.619
		c-0.161-0.196-0.305-0.444-0.431-0.746c-0.126-0.301-0.189-0.641-0.189-1.019c0-0.91,0.392-1.627,1.176-2.152
		c0.784-0.525,1.771-0.788,2.961-0.788c1.666,0,3.003,0.567,4.011,1.701l-1.617,1.323c-0.77-0.644-1.596-0.966-2.478-0.966
		c-0.546,0-0.983,0.081-1.312,0.241c-0.329,0.161-0.493,0.389-0.493,0.683c0,0.14,0.056,0.276,0.168,0.41
		c0.112,0.133,0.308,0.273,0.588,0.42c0.28,0.147,0.511,0.259,0.693,0.336c0.182,0.077,0.49,0.199,0.924,0.368
		c1.288,0.518,2.142,0.938,2.562,1.26c0.742,0.588,1.12,1.351,1.134,2.289c0,0.994-0.375,1.771-1.124,2.331
		S152.612,71.327,151.338,71.327z"/>
	<path d="M42.475,96.275l3.927-5.565l-3.654-5.166h2.772l1.68,2.373c0.336,0.504,0.525,0.812,0.567,0.924
		c0.294-0.49,0.49-0.798,0.588-0.924l1.68-2.373h2.772l-3.633,5.166l3.906,5.565h-2.772l-1.953-2.751
		c-0.098-0.126-0.294-0.434-0.588-0.924c-0.042,0.112-0.231,0.42-0.567,0.924l-1.932,2.751H42.475z"/>
	<path d="M60.934,96.527c-1.512,0-2.709-0.497-3.591-1.491c-0.882-0.994-1.323-2.366-1.323-4.116c0-1.736,0.451-3.108,1.354-4.116
		c0.903-1.008,2.103-1.512,3.602-1.512c2.282,0,3.751,0.973,4.41,2.919l-2.289,0.777c-0.364-0.938-1.064-1.407-2.1-1.407
		c-0.798,0-1.417,0.301-1.859,0.903c-0.441,0.602-0.661,1.414-0.661,2.436s0.22,1.827,0.661,2.415
		c0.441,0.588,1.046,0.882,1.817,0.882c1.12,0,1.854-0.525,2.205-1.575l2.289,0.714C64.805,95.47,63.3,96.527,60.934,96.527z"/>
	<path d="M78.553,90.374c0,0.616-0.028,1.106-0.084,1.47h-7.308c0.154,0.784,0.465,1.404,0.934,1.859s1.074,0.682,1.817,0.682
		c0.938,0,1.729-0.35,2.373-1.05l1.449,1.533c-1.008,1.106-2.289,1.659-3.843,1.659c-1.583,0-2.832-0.511-3.749-1.533
		c-0.917-1.022-1.375-2.387-1.375-4.095c0-1.736,0.462-3.104,1.386-4.105s2.17-1.501,3.738-1.501c1.372,0,2.492,0.43,3.36,1.292
		C78.119,87.444,78.553,88.708,78.553,90.374z M71.14,89.786h5.04c-0.07-0.784-0.318-1.375-0.745-1.775
		c-0.427-0.399-0.942-0.598-1.543-0.598c-0.771,0-1.39,0.21-1.859,0.63S71.266,89.044,71.14,89.786z"/>
	<path d="M89.389,85.292c0.966,0,1.806,0.189,2.52,0.567v3.969h-2.352v-2.289h-0.21c-1.106,0-1.96,0.259-2.562,0.777
		c-0.603,0.518-0.903,1.295-0.903,2.331v3.507h3.003v2.121h-7.686v-2.121h2.268v-6.489h-2.268v-2.121h4.515v1.722
		c0.294-0.616,0.777-1.099,1.449-1.449C87.834,85.467,88.576,85.292,89.389,85.292z"/>
	<path d="M100.519,96.527c-2.1,0-3.15-0.973-3.15-2.919v-5.943h-2.247v-2.121h2.247v-3.276l2.415-1.155v4.431h3.654v2.121h-3.654
		v5.481c0,0.826,0.504,1.239,1.512,1.239c0.588,0,1.204-0.168,1.848-0.504l-0.294,2.163
		C102.233,96.366,101.456,96.527,100.519,96.527z"/>
	<path d="M112.53,96.527c-0.91,0-1.75-0.171-2.52-0.515c-0.771-0.343-1.386-0.808-1.848-1.396l1.575-1.428
		c0.882,0.854,1.855,1.281,2.919,1.281c0.518,0,0.945-0.091,1.281-0.273c0.336-0.182,0.504-0.455,0.504-0.819
		c0-0.21-0.102-0.41-0.304-0.599c-0.203-0.189-0.438-0.346-0.704-0.473c-0.266-0.126-0.658-0.294-1.176-0.504
		c-0.056-0.028-0.102-0.049-0.136-0.063c-0.035-0.014-0.081-0.031-0.137-0.052s-0.105-0.039-0.147-0.053
		c-0.518-0.224-0.903-0.396-1.155-0.514c-0.252-0.119-0.557-0.287-0.914-0.504c-0.357-0.217-0.616-0.423-0.777-0.619
		c-0.161-0.196-0.305-0.444-0.431-0.746c-0.126-0.301-0.189-0.641-0.189-1.019c0-0.91,0.392-1.627,1.176-2.152
		c0.784-0.525,1.771-0.788,2.961-0.788c1.666,0,3.003,0.567,4.011,1.701l-1.617,1.323c-0.77-0.644-1.596-0.966-2.478-0.966
		c-0.546,0-0.983,0.081-1.312,0.241c-0.329,0.161-0.493,0.389-0.493,0.683c0,0.14,0.056,0.276,0.168,0.41
		c0.112,0.133,0.308,0.273,0.588,0.42c0.28,0.147,0.511,0.259,0.693,0.336c0.182,0.077,0.49,0.199,0.924,0.368
		c1.288,0.518,2.142,0.938,2.562,1.26c0.742,0.588,1.12,1.351,1.134,2.289c0,0.994-0.375,1.771-1.124,2.331
		S113.804,96.527,112.53,96.527z"/>
</g>
</svg>
