<?xml version="1.0" encoding="utf-8"?>
<!-- Generator: Adobe Illustrator 17.0.0, SVG Export Plug-In . SVG Version: 6.00 Build 0)  -->
<!DOCTYPE svg PUBLIC "-//W3C//DTD SVG 1.1//EN" "http://www.w3.org/Graphics/SVG/1.1/DTD/svg11.dtd">
<svg version="1.1" id="Layer_1" xmlns="http://www.w3.org/2000/svg" xmlns:xlink="http://www.w3.org/1999/xlink" x="0px" y="0px"
	 width="878px" height="742.5px" viewBox="59.5 0 878 742.5" enable-background="new 59.5 0 878 742.5" xml:space="preserve">
<title>002</title>
<desc>Created with Sketch.</desc>
<g id="Page-1_2_">
	<g id="_x30_02">
		<path id="Line" fill="none" stroke="#AAB1B5" stroke-linecap="round" stroke-linejoin="round" d="M320,520v-50"/>
		<path id="Line_1_" fill="none" stroke="#AAB1B5" stroke-linecap="round" stroke-linejoin="round" d="M577.96,519.47v-48.75"/>
		<path id="Line_2_" fill="none" stroke="#AAB1B5" stroke-linecap="round" stroke-linejoin="round" d="M835.5,519v-48"/>
		<path id="Line_3_" fill="none" stroke="#AAB1B5" stroke-linecap="round" stroke-linejoin="round" d="M705.5,519V223"/>
		<path id="Line_4_" fill="none" stroke="#AAB1B5" stroke-linecap="round" stroke-linejoin="round" d="M446.458,520l0.084-297"/>
		<g id="Group-2-Copy" transform="translate(504.000000, 272.000000)">
			<g id="Group">
				<path id="Sceptic-image" fill="none" stroke="#2C2F31" stroke-linecap="round" stroke-linejoin="round" d="M6,0h104.232
					L147.2,37.261V192.4c0,3.314-2.686,6-6,6H6c-3.314,0-6-2.686-6-6V6C0,2.686,2.686,0,6,0z"/>
				<polygon id="Sceptic-image_1_" fill="none" stroke="#2C2F31" stroke-linecap="round" stroke-linejoin="round" points="
					147.75,37.248 110.502,37.248 110.502,0 				"/>
			</g>
			<text transform="matrix(1 0 0 1 49.86 168)" fill="#2C2F31" font-family="'Arial-BoldMT'" font-size="16">Badge</text>
		</g>
		<path id="Page-1" fill="none" stroke="#2C2F31" stroke-width="2" stroke-linecap="round" stroke-linejoin="round" d="
			M578.998,331.553l8.841,17.917l19.771,2.871c2.287,0.335,3.199,3.142,1.547,4.753l-14.309,13.946l3.379,19.695
			c0.39,2.275-1.998,4.012-4.043,2.938l-17.682-9.298l-17.685,9.298c-2.045,1.073-4.434-0.663-4.04-2.938l3.376-19.695
			l-14.306-13.946c-1.655-1.612-0.743-4.419,1.544-4.753l19.771-2.871l8.841-17.917
			C575.024,329.482,577.975,329.482,578.998,331.553z"/>
		<g id="Group_1_" transform="translate(632.000000, 24.000000)">
			<path id="Sceptic-image_2_" fill="#D6F9DC" stroke="#2C2F31" stroke-linecap="round" stroke-linejoin="round" d="M6,0h104.232
				L147.2,37.261V192.4c0,3.314-2.686,6-6,6H6c-3.314,0-6-2.686-6-6V6C0,2.686,2.686,0,6,0z"/>
			<polygon id="Sceptic-image_3_" fill="#FFFFFF" stroke="#2C2F31" stroke-linecap="round" stroke-linejoin="round" points="
				147.75,37.248 110.502,37.248 110.502,0 			"/>
		</g>
		<g id="Group_2_" transform="translate(682.000000, 78.000000)">
			<path id="Layer-1" fill="none" stroke="#2C2F31" stroke-width="2" stroke-linecap="round" stroke-linejoin="round" d="
				M48.3,22.75c0,2.377-3.817,4.123-4.513,6.269c-0.721,2.224,1.315,5.874-0.032,7.725c-0.666,0.915-1.99,1.187-3.388,1.386
				c-1.458,0.206-2.997,0.333-3.951,1.028c-1.811,1.319-2.315,5.345-4.423,6.186c-0.044,0.019-0.09,0.037-0.136,0.051
				c-2.146,0.698-4.98-2.366-7.357-2.366s-5.211,3.065-7.357,2.368c-0.046-0.014-0.092-0.032-0.136-0.051
				c-2.109-0.843-2.613-4.869-4.423-6.188c-0.954-0.695-2.493-0.822-3.951-1.028c-1.398-0.199-2.722-0.471-3.388-1.386
				c-1.347-1.851,0.689-5.502-0.032-7.725C4.517,26.873,0.7,25.127,0.7,22.75s3.817-4.123,4.513-6.269
				c0.721-2.224-1.315-5.874,0.032-7.725c1.359-1.869,5.47-1.053,7.339-2.414c1.849-1.347,2.336-5.516,4.559-6.239
				c2.146-0.697,4.98,2.368,7.357,2.368s5.211-3.065,7.357-2.368c2.223,0.723,2.71,4.892,4.559,6.239
				c1.869,1.361,5.98,0.545,7.339,2.414c1.347,1.851-0.689,5.502,0.032,7.725C44.483,18.627,48.3,20.373,48.3,22.75L48.3,22.75z"/>
			<path id="Layer-2" fill="#F7F7F7" stroke="#2C2F31" stroke-width="2" stroke-linecap="round" stroke-linejoin="round" d="
				M24.85,37.1c7.925,0,14.35-6.425,14.35-14.35S32.775,8.4,24.85,8.4S10.5,14.825,10.5,22.75S16.925,37.1,24.85,37.1L24.85,37.1z"
				/>
			
				<polygon id="Layer-3" fill="#FFFFFF" stroke="#2C2F31" stroke-width="2" stroke-linecap="round" stroke-linejoin="round" points="
				25.2,14 27.861,19.604 33.982,20.417 29.505,24.693 30.628,30.8 25.2,27.839 19.772,30.8 20.895,24.693 16.418,20.417 
				22.539,19.604 			"/>
			<path id="Layer-4" fill="none" stroke="#2C2F31" stroke-width="2" stroke-linecap="round" stroke-linejoin="round" d="
				M9.635,38.267L0,64.04l9.201-4.206L13.997,70l10.162-26.951c-2.303,0.263-4.972,3.012-7.015,2.348
				c-0.046-0.014-0.092-0.032-0.136-0.051c-2.109-0.843-2.613-4.869-4.423-6.188C11.848,38.622,10.763,38.424,9.635,38.267
				L9.635,38.267L9.635,38.267z M39.365,38.267L49,64.04l-9.201-4.206L35.003,70L24.932,43.06c2.282,0.322,4.908,2.991,6.925,2.335
				c0.046-0.014,0.092-0.032,0.136-0.051c2.109-0.841,2.613-4.867,4.423-6.186C37.152,38.622,38.237,38.424,39.365,38.267
				L39.365,38.267L39.365,38.267z"/>
		</g>
		<g id="Group-4" transform="translate(763.000000, 272.000000)">
			<g id="Group-2-Copy-2">
				<g id="Group_3_">
					<path id="Sceptic-image_4_" fill="none" stroke="#2C2F31" stroke-linecap="round" stroke-linejoin="round" d="M6,0h104.232
						L147.2,37.261V192.4c0,3.314-2.686,6-6,6H6c-3.314,0-6-2.686-6-6V6C0,2.686,2.686,0,6,0z"/>
					<polygon id="Sceptic-image_5_" fill="none" stroke="#2C2F31" stroke-linecap="round" stroke-linejoin="round" points="
						147.75,37.248 110.502,37.248 110.502,0 					"/>
				</g>
				<text transform="matrix(1 0 0 1 40.004 168)" fill="#2C2F31" font-family="'Arial-BoldMT'" font-size="16">Diploma</text>
			</g>
			<g id="Group-2" transform="translate(39.000000, 65.000000)">
				<path id="Layer-1_1_" fill="none" stroke="#2C2F31" stroke-width="2" stroke-linecap="round" stroke-linejoin="round" d="
					M66.029,56c5.409,0,2.667-3.373,2.667-3.373l-2.667-3.373l-2.667,3.373C63.362,52.627,60.619,56,66.029,56z"/>
				<path id="Layer-2_1_" fill="#E8F7FC" stroke="#2C2F31" stroke-width="2" stroke-linecap="round" stroke-linejoin="round" d="
					M66.763,20.241c0,0-13.095,7.895-18.999,11.482c-5.198,3.159-14.306,8.759-14.306,8.759L0.096,20.241L33.459,0L66.763,20.241z"
					/>
				<path id="Layer-3_1_" fill="none" stroke="#2C2F31" stroke-width="2" stroke-linecap="round" stroke-linejoin="round" d="
					M66,20.241v29.221"/>
				<path id="Layer-4_1_" fill="none" stroke="#2C2F31" stroke-width="2" stroke-linecap="round" stroke-linejoin="round" d="
					M56,26.737v14.374c0,0-4.658,11.984-22.667,11.984S10.667,41.111,10.667,41.111V26.654l22.792,13.828
					c0,0,9.108-5.599,14.306-8.759C49.892,30.43,52.954,28.578,56,26.737L56,26.737z"/>
			</g>
		</g>
		<g id="Group-5" transform="translate(245.000000, 272.000000)">
			<g id="Group-2_1_">
				<g id="Group_4_">
					<path id="Sceptic-image_6_" fill="#FEE4E2" stroke="#2C2F31" stroke-linecap="round" stroke-linejoin="round" d="M6,0h104.232
						L147.2,37.261V192.4c0,3.314-2.686,6-6,6H6c-3.314,0-6-2.686-6-6V6C0,2.686,2.686,0,6,0z"/>
					<polygon id="Sceptic-image_7_" fill="#FFFFFF" stroke="#2C2F31" stroke-linecap="round" stroke-linejoin="round" points="
						147.75,37.248 110.502,37.248 110.502,0 					"/>
				</g>
				<text transform="matrix(1 0 0 1 40.004 168)" fill="#2C2F31" font-family="'Arial-BoldMT'" font-size="16">Diploma</text>
			</g>
			<g id="Group-2-Copy-3" transform="translate(39.000000, 65.000000)">
				<path id="Layer-1_2_" fill="none" stroke="#2C2F31" stroke-width="2" stroke-linecap="round" stroke-linejoin="round" d="
					M66.029,56c5.409,0,2.667-3.373,2.667-3.373l-2.667-3.373l-2.667,3.373C63.362,52.627,60.619,56,66.029,56z"/>
				<path id="Layer-2_2_" fill="#FFFFFF" stroke="#2C2F31" stroke-width="2" stroke-linecap="round" stroke-linejoin="round" d="
					M66.763,20.241c0,0-13.095,7.895-18.999,11.482c-5.198,3.159-14.306,8.759-14.306,8.759L0.096,20.241L33.459,0L66.763,20.241z"
					/>
				<path id="Layer-3_2_" fill="none" stroke="#2C2F31" stroke-width="2" stroke-linecap="round" stroke-linejoin="round" d="
					M66,20.241v29.221"/>
				<path id="Layer-4_2_" fill="#FFFFFF" stroke="#2C2F31" stroke-width="2" stroke-linecap="round" stroke-linejoin="round" d="
					M56,26.737v14.374c0,0-4.658,11.984-22.667,11.984S10.667,41.111,10.667,41.111V26.654l22.792,13.828
					c0,0,9.108-5.599,14.306-8.759C49.892,30.43,52.954,28.578,56,26.737L56,26.737z"/>
			</g>
		</g>
		<g id="Group_5_" transform="translate(373.000000, 24.000000)">
			<path id="Sceptic-image_8_" fill="none" stroke="#2C2F31" stroke-linecap="round" stroke-linejoin="round" d="M6,0h104.232
				L147.2,37.261V192.4c0,3.314-2.686,6-6,6H6c-3.314,0-6-2.686-6-6V6C0,2.686,2.686,0,6,0z"/>
			<polygon id="Sceptic-image_9_" fill="none" stroke="#2C2F31" stroke-linecap="round" stroke-linejoin="round" points="
				147.75,37.248 110.502,37.248 110.502,0 			"/>
		</g>
		<g id="Blockchain" transform="translate(245.000000, 520.000000)">
			<polygon fill="#F7F7F7" stroke="#2C2F31" stroke-linecap="round" stroke-linejoin="round" points="0,0 666,0 666,50 0,49.865 			
				"/>
			<text transform="matrix(1 0 0 1 284.22 31)" fill="#2C2F31" font-family="'Arial-BoldMT'" font-size="16">Blockchain</text>
		</g>
		<g id="Group-3" transform="translate(447.000000, 569.000000)">
			<path id="Line_5_" fill="none" stroke="#AAB1B5" stroke-linecap="round" stroke-linejoin="round" d="M56,50V0"/>
			<path id="Line_6_" fill="none" stroke="#AAB1B5" stroke-linecap="round" stroke-linejoin="round" d="M235,50V0"/>
			<g id="Page-1-Copy" transform="translate(35.000000, 64.000000)">
				
					<polyline id="Stroke-1" fill="none" stroke="#2C2F31" stroke-width="2" stroke-linecap="round" stroke-linejoin="round" points="
					12.188,11.371 12.188,15.659 12.188,20 12.188,20.868 12.188,39.965 20,39.965 27.812,39.965 27.812,20.868 27.812,20 
					27.812,15.659 27.812,11.232 				"/>
				
					<polyline id="Stroke-3" fill="none" stroke="#2C2F31" stroke-width="2" stroke-linecap="round" stroke-linejoin="round" points="
					10.451,12.188 20,6.979 29.549,12.188 				"/>
				
					<polyline id="Stroke-4" fill="none" stroke="#2C2F31" stroke-width="2" stroke-linecap="round" stroke-linejoin="round" points="
					12.188,20.868 0.035,20.868 3.507,15.66 12.188,15.66 				"/>
				
					<polyline id="Stroke-6" fill="none" stroke="#2C2F31" stroke-width="2" stroke-linecap="round" stroke-linejoin="round" points="
					27.812,15.66 36.493,15.66 39.965,20.868 27.812,20.868 				"/>
				
					<polyline id="Stroke-8" fill="none" stroke="#2C2F31" stroke-width="2" stroke-linecap="round" stroke-linejoin="round" points="
					38.229,20.868 38.229,39.965 1.771,39.965 1.771,20.868 				"/>
				
					<polyline id="Stroke-10" fill="none" stroke="#2C2F31" stroke-width="2" stroke-linecap="round" stroke-linejoin="round" points="
					20,3.507 24.34,3.507 24.34,0.035 20,0.035 20,6.979 				"/>
				<path id="Stroke-12" fill="none" stroke="#2C2F31" stroke-width="2" stroke-linecap="round" stroke-linejoin="round" d="
					M24.34,18.264c0,2.398-1.943,4.34-4.34,4.34s-4.34-1.943-4.34-4.34s1.943-4.34,4.34-4.34S24.34,15.866,24.34,18.264z"/>
				
					<polyline id="Stroke-14" fill="none" stroke="#2C2F31" stroke-width="2" stroke-linecap="round" stroke-linejoin="round" points="
					21.519,19.602 20,18.264 20,16.257 				"/>
				<path id="Stroke-16" fill="none" stroke="#2C2F31" stroke-width="2" stroke-linecap="round" stroke-linejoin="round" d="
					M15.66,39.965v-6.076c0-2.398,1.943-4.34,4.34-4.34s4.34,1.943,4.34,4.34v6.076"/>
				
					<polygon id="Stroke-18" fill="none" stroke="#2C2F31" stroke-width="2" stroke-linecap="round" stroke-linejoin="round" points="
					5.243,34.757 8.715,34.757 8.715,31.285 5.243,31.285 				"/>
				
					<polygon id="Stroke-20" fill="none" stroke="#2C2F31" stroke-width="2" stroke-linecap="round" stroke-linejoin="round" points="
					5.243,27.812 8.715,27.812 8.715,24.34 5.243,24.34 				"/>
				
					<polygon id="Stroke-21" fill="none" stroke="#2C2F31" stroke-width="2" stroke-linecap="round" stroke-linejoin="round" points="
					31.285,34.757 34.757,34.757 34.757,31.285 31.285,31.285 				"/>
				
					<polygon id="Stroke-22" fill="none" stroke="#2C2F31" stroke-width="2" stroke-linecap="round" stroke-linejoin="round" points="
					31.285,27.812 34.757,27.812 34.757,24.34 31.285,24.34 				"/>
			</g>
			<text transform="matrix(1 0 0 1 0.292 139)" fill="#2C2F31" font-family="'Arial-BoldMT'" font-size="16">Institution</text>
			<text transform="matrix(1 0 0 1 201.932 139)" fill="#2C2F31" font-family="'Arial-BoldMT'" font-size="16">Person</text>
			<g id="Page-1-Copy-7" transform="translate(217.000000, 64.000000)">
				<path id="Stroke-1_1_" fill="none" stroke="#2C2F31" stroke-width="2" stroke-linecap="round" stroke-linejoin="round" d="
					M12.064,24.408c-0.502,1.404-0.995,1.481-1.476,1.634C4.65,27.936,0.357,32.688,0.357,39.706h29.616
					c0-7.018-4.292-11.768-10.229-13.663c-0.481-0.154-0.975-0.232-1.477-1.635"/>
				<path id="Stroke-3_1_" fill="none" stroke="#2C2F31" stroke-width="2" stroke-linecap="round" stroke-linejoin="round" d="
					M6.599,13.542c-0.674,0.214-0.751,1.82-0.17,3.587c0.564,1.716,1.537,2.942,2.211,2.816c1.537,2.984,4.436,5.601,6.525,5.601
					c2.089,0,4.989-2.618,6.525-5.601c0.674,0.126,1.648-1.1,2.211-2.816c0.581-1.767,0.504-3.373-0.17-3.587"/>
				<path id="Stroke-5" fill="none" stroke="#2C2F31" stroke-width="2" stroke-linecap="round" stroke-linejoin="round" d="
					M21.593,26.934c0,1.55-2.878,2.807-6.429,2.807s-6.429-1.257-6.429-2.807"/>
				<path id="Stroke-7" fill="none" stroke="#2C2F31" stroke-width="2" stroke-linecap="round" stroke-linejoin="round" d="
					M6.599,13.542c0,0,2.38-0.363,2.737-3.801c1.357-0.842,9.071,2.246,10,3.368c0,0-1-3.228-1-3.509s3.286,1.544,4.071,4.912
					c0,0,2.429-1.544,2.857-5.544c0.429-4-4.071-13.544-15.929-5.474C8.05,3.636,2.599,2.174,6.599,13.542z"/>
			</g>
		</g>
		<text transform="matrix(1 0 0 1 432.716 171)" fill="#2C2F31" font-family="'Arial-BoldMT'" font-size="16">20%</text>
		<text transform="matrix(1 0 0 1 464.7394 171)" fill="#2C2F31" font-family="'Arial-BoldMT'" font-size="16"> </text>
		<text transform="matrix(1 0 0 1 408.076 192)" fill="#2C2F31" font-family="'Arial-BoldMT'" font-size="16">Discount</text>
		<g id="Page-1_1_" transform="translate(413.000000, 74.000000)">
			
				<polygon id="Stroke-1_2_" fill="#F7F7F7" stroke="#2C2F31" stroke-width="2" stroke-linecap="round" stroke-linejoin="round" points="
				34,0.458 41.782,4.953 50.771,4.953 55.265,12.735 63.047,17.229 63.047,26.218 67.542,34 63.047,41.782 63.047,50.771 
				55.265,55.265 50.771,63.047 41.782,63.047 34,67.542 26.218,63.047 17.229,63.047 12.735,55.265 4.953,50.771 4.953,41.782 
				0.458,34 4.953,26.218 4.953,17.229 12.735,12.735 17.229,4.953 26.218,4.953 			"/>
			<path id="Stroke-3_2_" fill="#F7F7F7" stroke="#2C2F31" stroke-width="2" stroke-linecap="round" stroke-linejoin="round" d="
				M17.958,50.042l32.083-32.083"/>
			<path id="Stroke-4_1_" fill="#F7F7F7" stroke="#2C2F31" stroke-width="2" stroke-linecap="round" stroke-linejoin="round" d="
				M29.625,23.792c0,3.22-2.613,5.833-5.833,5.833s-5.833-2.613-5.833-5.833s2.613-5.833,5.833-5.833S29.625,20.572,29.625,23.792z"
				/>
			<path id="Stroke-6_1_" fill="#F7F7F7" stroke="#2C2F31" stroke-width="2" stroke-linecap="round" stroke-linejoin="round" d="
				M50.042,44.208c0,3.22-2.613,5.833-5.833,5.833c-3.22,0-5.833-2.613-5.833-5.833c0-3.22,2.613-5.833,5.833-5.833
				C47.428,38.375,50.042,40.988,50.042,44.208z"/>
		</g>
		<text transform="matrix(1 0 0 1 652.292 192)" fill="#2C2F31" font-family="'Arial-BoldMT'" font-size="16">Achievement</text>
		<text transform="matrix(1 0 0 1 92.68 44)" fill="#2C2F31" font-family="'Arial-BoldMT'" font-size="20">Digital</text>
		<text transform="matrix(1 0 0 1 153.7933 44)" fill="#2C2F31" font-family="'Arial-BoldMT'" font-size="20"> </text>
		<text transform="matrix(1 0 0 1 80.36 67)" fill="#2C2F31" font-family="'Arial-BoldMT'" font-size="20">Assets as</text>
		<text transform="matrix(1 0 0 1 173.7585 67)" fill="#2C2F31" font-family="'Arial-BoldMT'" font-size="20"> </text>
		<text transform="matrix(1 0 0 1 98.84 90)" fill="#2C2F31" font-family="'Arial-BoldMT'" font-size="20">Xcerts</text>
		<text transform="matrix(1 0 0 1 104 710)" fill="#2C2F31" font-family="'Arial-BoldMT'" font-size="20">Holders</text>
		<path id="Line_7_" fill="#FFFFFF" stroke="#AAB1B5" stroke-linecap="round" stroke-linejoin="round" stroke-dasharray="6,12" d="
			M164,681V127V681z"/>
		
			<path id="Line-Copy" fill="#FFFFFF" stroke="#AAB1B5" stroke-linecap="round" stroke-linejoin="round" stroke-dasharray="6,12" d="
			M136,678V127V678z"/>
		
			<g id="Arrow-head" transform="translate(160.500000, 127.000000) scale(1, -1) translate(-160.500000, -127.000000) translate(148.000000, 117.000000)">
			<path id="Line-4" fill="none" stroke="#AAB1B5" stroke-width="1.6" stroke-linecap="round" stroke-linejoin="round" d="
				M14.4,17.038L24.889,4.8"/>
			<path id="Line-4_1_" fill="none" stroke="#AAB1B5" stroke-width="1.6" stroke-linecap="round" stroke-linejoin="round" d="
				M14.4,16.8L3.911,4.562"/>
		</g>
		<g id="Arrow-head_1_" transform="translate(121.000000, 665.000000)">
			<path id="Line-4_2_" fill="none" stroke="#AAB1B5" stroke-width="1.6" stroke-linecap="round" stroke-linejoin="round" d="
				M14.4,17.038L24.889,4.8"/>
			<path id="Line-4_3_" fill="none" stroke="#AAB1B5" stroke-width="1.6" stroke-linecap="round" stroke-linejoin="round" d="
				M14.4,16.8L3.911,4.562"/>
		</g>
	</g>
</g>
</svg>
