<?xml version="1.0" encoding="utf-8"?>
<!-- Generator: Adobe Illustrator 17.0.0, SVG Export Plug-In . SVG Version: 6.00 Build 0)  -->
<!DOCTYPE svg PUBLIC "-//W3C//DTD SVG 1.1//EN" "http://www.w3.org/Graphics/SVG/1.1/DTD/svg11.dtd">
<svg version="1.1" id="Layer_1" xmlns="http://www.w3.org/2000/svg" xmlns:xlink="http://www.w3.org/1999/xlink" x="0px" y="0px"
	 width="1000px" height="469px" viewBox="0 0 1000 469" enable-background="new 0 0 1000 469" xml:space="preserve">
<title>04</title>
<desc>Created with Sketch.</desc>
<path id="Line-2" fill="none" stroke="#AAB1B5" stroke-linecap="round" stroke-linejoin="round" d="M242,345h32"/>
<path id="Line-2_1_" fill="none" stroke="#AAB1B5" stroke-linecap="round" stroke-linejoin="round" d="M136,208v32"/>
<path id="Line-2_2_" fill="none" stroke="#AAB1B5" stroke-linecap="round" stroke-linejoin="round" d="M865,208v32"/>
<path id="Line-2_3_" fill="none" stroke="#AAB1B5" stroke-linecap="round" stroke-linejoin="round" d="M485,345h32"/>
<path id="Line-2_4_" fill="none" stroke="#AAB1B5" stroke-linecap="round" stroke-linejoin="round" d="M728,345h32"/>
<rect id="Sceptic-image" x="31" y="240" fill="#FFFFFF" stroke="#2C2F31" stroke-linecap="round" stroke-linejoin="round" width="210" height="210"/>
<rect id="Sceptic-image_1_" x="760" y="240" fill="#F7F7F7" stroke="#2C2F31" stroke-linecap="round" stroke-linejoin="round" width="210" height="210"/>
<rect id="Sceptic-image_2_" x="274" y="240" fill="#F7F7F7" stroke="#2C2F31" stroke-linecap="round" stroke-linejoin="round" width="210" height="210"/>
<rect id="Sceptic-image_3_" x="517" y="240" fill="#F7F7F7" stroke="#2C2F31" stroke-linecap="round" stroke-linejoin="round" width="210" height="210"/>
<path id="Issuer" fill="#2C2F31" d="M114.656,166.48h-2.352v7.84h2.352V176h-6.592v-1.68h2.336v-7.84h-2.336v-1.68h6.592V166.48z
	 M121.264,176.192c-0.693,0-1.333-0.131-1.92-0.392s-1.056-0.616-1.408-1.064l1.2-1.088c0.672,0.651,1.413,0.976,2.224,0.976
	c0.395,0,0.72-0.069,0.976-0.208c0.256-0.139,0.384-0.347,0.384-0.624c0-0.16-0.077-0.312-0.232-0.456s-0.333-0.264-0.536-0.36
	s-0.501-0.224-0.896-0.384c-0.043-0.021-0.077-0.037-0.104-0.048c-0.027-0.011-0.061-0.024-0.104-0.04
	c-0.043-0.016-0.08-0.029-0.112-0.04c-0.395-0.171-0.688-0.301-0.88-0.392s-0.424-0.219-0.696-0.384
	c-0.272-0.165-0.469-0.323-0.592-0.472s-0.232-0.339-0.328-0.568c-0.096-0.229-0.144-0.488-0.144-0.776
	c0-0.693,0.299-1.24,0.896-1.64s1.349-0.6,2.256-0.6c1.269,0,2.288,0.432,3.056,1.296l-1.232,1.008
	c-0.587-0.491-1.216-0.736-1.888-0.736c-0.416,0-0.749,0.061-1,0.184s-0.376,0.296-0.376,0.52c0,0.107,0.043,0.211,0.128,0.312
	s0.235,0.208,0.448,0.32s0.389,0.197,0.528,0.256c0.139,0.059,0.373,0.152,0.704,0.28c0.981,0.395,1.632,0.715,1.952,0.96
	c0.565,0.448,0.853,1.029,0.864,1.744c0,0.757-0.285,1.349-0.856,1.776C123.005,175.979,122.235,176.192,121.264,176.192z
	 M131.12,176.192c-0.693,0-1.333-0.131-1.92-0.392s-1.056-0.616-1.408-1.064l1.2-1.088c0.672,0.651,1.413,0.976,2.224,0.976
	c0.395,0,0.72-0.069,0.976-0.208s0.384-0.347,0.384-0.624c0-0.16-0.077-0.312-0.232-0.456s-0.333-0.264-0.536-0.36
	s-0.501-0.224-0.896-0.384c-0.043-0.021-0.077-0.037-0.104-0.048s-0.061-0.024-0.104-0.04c-0.043-0.016-0.08-0.029-0.112-0.04
	c-0.395-0.171-0.688-0.301-0.88-0.392s-0.424-0.219-0.696-0.384c-0.272-0.165-0.469-0.323-0.592-0.472s-0.232-0.339-0.328-0.568
	c-0.096-0.229-0.144-0.488-0.144-0.776c0-0.693,0.299-1.24,0.896-1.64s1.349-0.6,2.256-0.6c1.269,0,2.288,0.432,3.056,1.296
	l-1.232,1.008c-0.587-0.491-1.216-0.736-1.888-0.736c-0.416,0-0.749,0.061-1,0.184s-0.376,0.296-0.376,0.52
	c0,0.107,0.043,0.211,0.128,0.312s0.235,0.208,0.448,0.32s0.389,0.197,0.528,0.256c0.139,0.059,0.373,0.152,0.704,0.28
	c0.981,0.395,1.632,0.715,1.952,0.96c0.565,0.448,0.853,1.029,0.864,1.744c0,0.757-0.285,1.349-0.856,1.776
	C132.861,175.979,132.091,176.192,131.12,176.192z M140.384,176.192c-0.907,0-1.64-0.269-2.2-0.808s-0.84-1.4-0.84-2.584v-4.976
	h1.84v4.576c0,1.355,0.56,2.032,1.68,2.032c1.205,0,1.808-0.667,1.808-2v-4.608h1.84V176h-1.84v-0.784
	C142.149,175.867,141.387,176.192,140.384,176.192z M154.512,171.504c0,0.469-0.021,0.843-0.064,1.12h-5.568
	c0.117,0.597,0.355,1.069,0.712,1.416c0.357,0.347,0.819,0.52,1.384,0.52c0.715,0,1.317-0.267,1.808-0.8l1.104,1.168
	c-0.768,0.843-1.744,1.264-2.928,1.264c-1.205,0-2.157-0.389-2.856-1.168s-1.048-1.819-1.048-3.12c0-1.323,0.352-2.365,1.056-3.128
	s1.653-1.144,2.848-1.144c1.045,0,1.899,0.328,2.56,0.984C154.181,169.272,154.512,170.235,154.512,171.504z M148.864,171.056h3.84
	c-0.053-0.597-0.243-1.048-0.568-1.352s-0.717-0.456-1.176-0.456c-0.587,0-1.059,0.16-1.416,0.48
	C149.187,170.048,148.96,170.491,148.864,171.056z M162.768,167.632c0.736,0,1.376,0.144,1.92,0.432v3.024h-1.792v-1.744h-0.16
	c-0.843,0-1.493,0.197-1.952,0.592c-0.459,0.395-0.688,0.987-0.688,1.776v2.672h2.288V176h-5.856v-1.616h1.728v-4.944h-1.728v-1.616
	h3.44v1.312c0.224-0.469,0.592-0.837,1.104-1.104S162.149,167.632,162.768,167.632z"/>
<path id="Holder" fill="#2C2F31" d="M838.648,176v-11.2h1.904v4.528h3.616V164.8h1.904V176h-1.904v-4.88h-3.616V176H838.648z
	 M852.216,176.192c-1.205,0-2.16-0.381-2.864-1.144c-0.704-0.763-1.056-1.805-1.056-3.128c0-1.312,0.352-2.355,1.056-3.128
	c0.704-0.773,1.659-1.16,2.864-1.16c1.216,0,2.173,0.387,2.872,1.16c0.699,0.773,1.048,1.816,1.048,3.128s-0.349,2.352-1.048,3.12
	C854.389,175.808,853.432,176.192,852.216,176.192z M852.216,174.432c0.661,0,1.171-0.224,1.528-0.672s0.536-1.061,0.536-1.84
	s-0.179-1.397-0.536-1.856s-0.867-0.688-1.528-0.688c-0.651,0-1.157,0.229-1.52,0.688c-0.363,0.459-0.544,1.077-0.544,1.856
	c0,0.768,0.181,1.379,0.544,1.832S851.565,174.432,852.216,174.432z M862.984,174.384h2.384V176h-6.608v-1.616h2.384v-8.32h-1.904
	l-0.848-1.616h4.592L862.984,174.384L862.984,174.384z M871.64,176.192c-1.12,0-2-0.376-2.64-1.128s-0.96-1.805-0.96-3.16
	c0-1.312,0.328-2.352,0.984-3.12s1.512-1.152,2.568-1.152c0.875,0,1.552,0.261,2.032,0.784v-3.12l1.84-0.848V176h-1.84v-0.624
	c-0.171,0.224-0.435,0.416-0.792,0.576C872.475,176.112,872.077,176.192,871.64,176.192z M871.896,174.432
	c0.8,0,1.376-0.267,1.728-0.8v-3.456c-0.384-0.533-0.971-0.8-1.76-0.8c-0.629,0-1.115,0.219-1.456,0.656
	c-0.341,0.437-0.512,1.061-0.512,1.872c0,0.768,0.173,1.381,0.52,1.84C870.763,174.203,871.256,174.432,871.896,174.432z
	 M885.512,171.504c0,0.469-0.021,0.843-0.064,1.12h-5.568c0.117,0.597,0.355,1.069,0.712,1.416s0.819,0.52,1.384,0.52
	c0.715,0,1.317-0.267,1.808-0.8l1.104,1.168c-0.768,0.843-1.744,1.264-2.928,1.264c-1.205,0-2.157-0.389-2.856-1.168
	s-1.048-1.819-1.048-3.12c0-1.323,0.352-2.365,1.056-3.128s1.653-1.144,2.848-1.144c1.045,0,1.899,0.328,2.56,0.984
	C885.181,169.272,885.512,170.235,885.512,171.504z M879.864,171.056h3.84c-0.053-0.597-0.243-1.048-0.568-1.352
	s-0.717-0.456-1.176-0.456c-0.587,0-1.059,0.16-1.416,0.48C880.187,170.048,879.96,170.491,879.864,171.056z M893.768,167.632
	c0.736,0,1.376,0.144,1.92,0.432v3.024h-1.792v-1.744h-0.16c-0.843,0-1.493,0.197-1.952,0.592s-0.688,0.987-0.688,1.776v2.672h2.288
	V176h-5.856v-1.616h1.728v-4.944h-1.728v-1.616h3.44v1.312c0.224-0.469,0.592-0.837,1.104-1.104
	C892.584,167.765,893.149,167.632,893.768,167.632z"/>
<g id="Group" transform="translate(802.000000, 16.000000)">
	<g id="Mask">
		<circle id="path-1_1_" fill="#F7F7F7" cx="65" cy="65" r="65"/>
	</g>
	<defs>
		<filter id="Adobe_OpacityMaskFilter" filterUnits="userSpaceOnUse" x="20.055" y="8.443" width="90.214" height="133.12">
			<feColorMatrix  type="matrix" values="1 0 0 0 0  0 1 0 0 0  0 0 1 0 0  0 0 0 1 0"/>
		</filter>
	</defs>
	<mask maskUnits="userSpaceOnUse" x="20.055" y="8.443" width="90.214" height="133.12" id="mask-2">
		<g filter="url(#Adobe_OpacityMaskFilter)">
			<circle id="path-1" fill="#FFFFFF" cx="65" cy="65" r="65"/>
		</g>
	</mask>
	<g mask="url(#mask-2)">
		<g transform="translate(20.892857, 9.285714)">
			<path id="Shape" fill="none" stroke="#2C2F31" stroke-width="2" stroke-linecap="round" stroke-linejoin="round" d="
				M59.603,71.964c-1.718,3.865,0.824,6.964,3.146,8.531c-2.438,5.212-10.354,9.669-18.479,9.669s-16.796-4.492-18.479-9.669
				c2.321-1.346,4.898-4.643,3.111-8.531H59.603z"/>
			<path id="Shape_1_" fill="#FFFFFF" stroke="#2C2F31" stroke-width="2" stroke-linecap="round" stroke-linejoin="round" d="
				M46.8,79.033h-5.014c-4.354-0.005-8.529-1.737-11.607-4.817l-3.83-3.749c-5.62-5.622-8.777-13.246-8.775-21.195V29.54
				c0-26.476,53.393-26.476,53.393,0v19.732c0.002,7.949-3.155,15.573-8.775,21.195l-3.761,3.761
				C55.345,77.309,51.161,79.038,46.8,79.033z"/>
			<path id="Shape_2_" fill="none" stroke="#2C2F31" stroke-width="2" stroke-linecap="round" stroke-linejoin="round" d="
				M17.573,52.012V41.565c0-3.482-2.588-4.643-4.179-3.482c-2.542,1.776,0.696,9.286,0.696,9.286
				C12.211,48.576,14.335,52.859,17.573,52.012z"/>
			<path id="Shape_3_" fill="none" stroke="#2C2F31" stroke-width="2" stroke-linecap="round" stroke-linejoin="round" d="
				M70.966,51.594V41.147c0-3.482,2.577-4.643,4.179-3.482c2.542,1.776-0.696,9.286-0.696,9.286
				C76.34,48.158,74.204,52.453,70.966,51.594z"/>
			<path id="Shape_4_" fill="#FFFFFF" stroke="#2C2F31" stroke-width="2" stroke-linecap="round" stroke-linejoin="round" d="
				M57.896,2.24c8.949,3.796,20.893,14.393,15.995,30.028c-0.72,2.321-1.764,1.509-2.925,1.3c0,0-0.186-9.123-4.643-8.183
				c-10.609,2.229-15.832-6.303-28.716,3.053c-1.788-2.937-0.557-9.611,3.981-13.116c-10.621,0-24.015,6.512-24.015,14.335
				c0,0-3.552-2.623-3.842-5.212C12.396,12.768,18.39,6.824,28.861,2.368C37.388-1.26,53.126,0.221,57.896,2.24z"/>
			
				<circle id="Oval" fill="none" stroke="#2C2F31" stroke-width="2" stroke-linecap="round" stroke-linejoin="round" cx="57.618" cy="44.792" r="1.741"/>
			
				<circle id="Oval_1_" fill="none" stroke="#2C2F31" stroke-width="2" stroke-linecap="round" stroke-linejoin="round" cx="30.945" cy="44.792" r="1.741"/>
			<path id="Shape_5_" fill="#FFFFFF" stroke="#2C2F31" stroke-width="2" stroke-linecap="round" stroke-linejoin="round" d="
				M70.513,83.571c0,0-7.835-3.111-7.533-2.937c-2.46,5.259-10.748,9.786-18.71,9.786s-16.9-4.527-18.734-9.727l-7.208,2.995
				C7.374,88.152,0.2,98.788,0.162,110.616v20.661h88.214v-20.893C88.346,98.67,81.311,88.111,70.513,83.571z"/>
			<path id="Line" fill="none" stroke="#2C2F31" stroke-width="2" stroke-linecap="round" stroke-linejoin="round" d="
				M20.312,130.58v-20.925"/>
			<path id="Line_1_" fill="none" stroke="#2C2F31" stroke-width="2" stroke-linecap="round" stroke-linejoin="round" d="
				M67.902,130.58v-20.925"/>
			<path id="Stroke-9" fill="none" stroke="#2C2F31" stroke-width="2" stroke-linecap="round" stroke-linejoin="round" d="
				M51.514,61.518c0,0-3.219,3.593-7.185,3.593s-7.185-3.593-7.185-3.593"/>
		</g>
	</g>
</g>
<g id="Group_1_" transform="translate(71.000000, 16.000000)">
	<path id="Stroke-5" fill="none" stroke="#2C2F31" stroke-width="2" stroke-linecap="round" stroke-linejoin="round" d="
		M17.286,12.286c0,2.212-1.788,4-4,4s-4-1.788-4-4c0-2.208,1.788-4,4-4S17.286,10.078,17.286,12.286L17.286,12.286z"/>
	<path id="Stroke-7" fill="none" stroke="#2C2F31" stroke-width="2" stroke-linecap="round" stroke-linejoin="round" d="
		M29.214,12.286c0,2.212-1.788,4-4,4s-4-1.788-4-4c0-2.208,1.788-4,4-4S29.214,10.078,29.214,12.286L29.214,12.286z"/>
	<path id="Stroke-9_1_" fill="none" stroke="#2C2F31" stroke-width="2" stroke-linecap="round" stroke-linejoin="round" d="
		M41.143,12.286c0,2.212-1.788,4-4,4s-4-1.788-4-4c0-2.208,1.788-4,4-4C39.355,8.286,41.143,10.078,41.143,12.286L41.143,12.286z"/>
	<path id="Stroke-11" fill="none" stroke="#2C2F31" stroke-width="2" stroke-linecap="round" stroke-linejoin="round" d="
		M125.357,63.839V4.643c0-2.563-2.078-4.643-4.643-4.643H4.643C2.078,0,0,2.08,0,4.643v114.911c0,2.565,2.078,4.643,4.643,4.643H65"
		/>
	<path id="Stroke-13" fill="none" stroke="#2C2F31" stroke-width="2" stroke-linecap="round" stroke-linejoin="round" d="M0,23.214
		h125.357"/>
	<path id="Fill-15" fill="#F7F7F7" stroke="#2C2F31" stroke-width="2" stroke-linecap="round" stroke-linejoin="round" d="
		M102.143,107.946c-3.844,0-6.964-3.118-6.964-6.964c0-3.844,3.12-6.964,6.964-6.964c3.844,0,6.964,3.12,6.964,6.964
		C109.107,104.829,105.987,107.946,102.143,107.946L102.143,107.946z M130,104.826v-7.684l-6.607-2.205
		c-0.471-1.653-1.128-3.231-1.95-4.706l3.115-6.228l-5.437-5.434l-6.228,3.113c-1.472-0.822-3.05-1.479-4.706-1.948l-2.203-6.609
		H98.3l-2.203,6.609c-1.655,0.469-3.234,1.126-4.706,1.948l-6.228-3.113l-5.437,5.434l3.115,6.228
		c-0.822,1.474-1.479,3.053-1.95,4.706l-6.607,2.205v7.684l6.607,2.201c0.471,1.658,1.128,3.236,1.95,4.708l-3.115,6.228
		l5.437,5.434l6.228-3.115c1.472,0.822,3.05,1.479,4.706,1.95l2.203,6.607h7.684l2.203-6.607c1.655-0.471,3.234-1.128,4.706-1.95
		l6.228,3.115l5.437-5.434l-3.115-6.228c0.822-1.472,1.479-3.05,1.95-4.708L130,104.826z"/>
</g>
<g>
	<path d="M307.672,337.542c-0.708,0-1.347-0.126-1.917-0.378s-1.044-0.585-1.422-0.999s-0.693-0.906-0.945-1.477
		c-0.252-0.569-0.432-1.157-0.54-1.764c-0.108-0.605-0.162-1.233-0.162-1.881c0-0.792,0.093-1.558,0.279-2.295
		c0.186-0.738,0.471-1.428,0.855-2.07s0.906-1.158,1.566-1.548s1.422-0.585,2.286-0.585c0.984,0,1.806,0.252,2.466,0.756
		s1.14,1.128,1.44,1.872l-1.908,0.918c-0.264-0.504-0.549-0.882-0.855-1.134s-0.687-0.378-1.143-0.378
		c-0.648,0-1.188,0.24-1.62,0.72s-0.732,1.041-0.9,1.683c-0.168,0.643-0.252,1.329-0.252,2.062c0,1.188,0.24,2.229,0.72,3.123
		c0.48,0.894,1.164,1.341,2.052,1.341c0.84,0,1.512-0.54,2.016-1.62l1.944,0.738C310.84,336.569,309.52,337.542,307.672,337.542z"/>
	<path d="M320.938,327.93c0.828,0,1.548,0.162,2.16,0.486v3.401h-2.016v-1.962h-0.18c-0.948,0-1.68,0.223-2.196,0.666
		c-0.516,0.444-0.774,1.11-0.774,1.998v3.006h2.574v1.818h-6.588v-1.818h1.944v-5.562h-1.944v-1.818h3.87v1.477
		c0.252-0.528,0.666-0.942,1.242-1.242C319.606,328.08,320.242,327.93,320.938,327.93z"/>
	<path d="M333.826,332.286c0,0.527-0.024,0.947-0.072,1.26h-6.264c0.132,0.672,0.399,1.203,0.801,1.593
		c0.402,0.391,0.921,0.585,1.557,0.585c0.804,0,1.482-0.3,2.034-0.899l1.242,1.313c-0.864,0.948-1.962,1.422-3.294,1.422
		c-1.356,0-2.427-0.438-3.213-1.313s-1.179-2.046-1.179-3.511c0-1.487,0.396-2.66,1.188-3.519c0.792-0.857,1.86-1.287,3.204-1.287
		c1.176,0,2.136,0.369,2.88,1.107C333.454,329.774,333.826,330.857,333.826,332.286z M327.472,331.782h4.32
		c-0.06-0.673-0.273-1.18-0.639-1.521c-0.366-0.342-0.807-0.513-1.323-0.513c-0.66,0-1.191,0.18-1.593,0.54
		C327.834,330.647,327.58,331.146,327.472,331.782z"/>
	<path d="M340.018,337.56c-1.008,0-1.827-0.264-2.457-0.792c-0.63-0.527-0.945-1.284-0.945-2.268c0-0.996,0.36-1.752,1.08-2.269
		c0.72-0.516,1.584-0.773,2.592-0.773c0.876,0,1.638,0.162,2.286,0.485v-0.54c0-1.104-0.606-1.655-1.818-1.655
		c-1.008,0-1.98,0.312-2.916,0.936l-0.63-1.691c1.116-0.708,2.358-1.062,3.726-1.062c2.436,0,3.654,1.152,3.654,3.456v5.958h-2.016
		v-0.72C341.926,337.248,341.074,337.56,340.018,337.56z M340.396,335.742c0.864,0,1.59-0.307,2.178-0.918v-1.188
		c-0.552-0.276-1.206-0.414-1.962-0.414c-0.576,0-1.053,0.108-1.431,0.324s-0.567,0.534-0.567,0.954
		c0,0.372,0.156,0.672,0.468,0.899C339.394,335.628,339.832,335.742,340.396,335.742z"/>
	<path d="M352.654,337.56c-1.8,0-2.7-0.834-2.7-2.502v-5.094h-1.926v-1.818h1.926v-2.808l2.07-0.99v3.798h3.132v1.818h-3.132v4.698
		c0,0.708,0.432,1.062,1.296,1.062c0.504,0,1.032-0.144,1.584-0.432l-0.252,1.854C354.124,337.422,353.458,337.56,352.654,337.56z"
		/>
	<path d="M367.09,332.286c0,0.527-0.024,0.947-0.072,1.26h-6.264c0.132,0.672,0.399,1.203,0.801,1.593
		c0.402,0.391,0.921,0.585,1.557,0.585c0.804,0,1.482-0.3,2.034-0.899l1.242,1.313c-0.864,0.948-1.962,1.422-3.294,1.422
		c-1.356,0-2.427-0.438-3.213-1.313s-1.179-2.046-1.179-3.511c0-1.487,0.396-2.66,1.188-3.519c0.792-0.857,1.86-1.287,3.204-1.287
		c1.176,0,2.136,0.369,2.88,1.107C366.718,329.774,367.09,330.857,367.09,332.286z M360.736,331.782h4.32
		c-0.06-0.673-0.273-1.18-0.639-1.521c-0.366-0.342-0.807-0.513-1.323-0.513c-0.66,0-1.191,0.18-1.593,0.54
		C361.099,330.647,360.844,331.146,360.736,331.782z"/>
	<path d="M384.748,337.56c-1.26,0-2.25-0.423-2.97-1.269c-0.72-0.847-1.08-2.031-1.08-3.556c0-1.476,0.369-2.646,1.107-3.51
		s1.701-1.296,2.889-1.296c0.984,0,1.746,0.294,2.286,0.882v-3.51l2.07-0.954v12.996h-2.07v-0.702
		c-0.192,0.252-0.489,0.468-0.891,0.648C385.687,337.47,385.24,337.56,384.748,337.56z M385.036,335.58c0.9,0,1.548-0.3,1.944-0.9
		v-3.888c-0.432-0.601-1.092-0.9-1.98-0.9c-0.708,0-1.254,0.246-1.638,0.738s-0.576,1.194-0.576,2.105
		c0,0.864,0.195,1.555,0.585,2.07C383.761,335.322,384.316,335.58,385.036,335.58z"/>
	<path d="M397.276,335.525h2.538v1.818h-7.146v-1.818h2.538v-5.562h-2.538v-1.818h4.608V335.525z M396.232,326.868
		c-0.336,0-0.625-0.12-0.864-0.36c-0.24-0.24-0.36-0.534-0.36-0.882s0.12-0.64,0.36-0.873c0.24-0.234,0.528-0.352,0.864-0.352
		c0.348,0,0.642,0.117,0.882,0.352c0.24,0.233,0.36,0.525,0.36,0.873s-0.12,0.642-0.36,0.882
		C396.874,326.748,396.58,326.868,396.232,326.868z"/>
	<path d="M406.708,340.998l-1.116-1.692c1.284-0.096,2.169-0.294,2.655-0.594s0.729-0.786,0.729-1.458v-0.54
		c-0.492,0.564-1.206,0.846-2.142,0.846c-1.128,0-2.046-0.417-2.754-1.251s-1.062-2.024-1.062-3.573c0-1.476,0.354-2.646,1.062-3.51
		s1.638-1.296,2.79-1.296c0.876,0,1.578,0.264,2.106,0.792v-0.576h2.07v8.227c0,1.571-0.327,2.709-0.981,3.411
		C409.411,340.484,408.292,340.89,406.708,340.998z M407.194,335.58c0.78,0,1.374-0.312,1.782-0.937v-3.834
		c-0.432-0.612-1.026-0.918-1.782-0.918c-0.684,0-1.206,0.243-1.566,0.729c-0.36,0.485-0.54,1.19-0.54,2.114
		c0,0.877,0.183,1.569,0.549,2.079C406.002,335.325,406.521,335.58,407.194,335.58z"/>
	<path d="M419.452,335.525h2.538v1.818h-7.146v-1.818h2.538v-5.562h-2.538v-1.818h4.608V335.525z M418.408,326.868
		c-0.336,0-0.625-0.12-0.864-0.36c-0.24-0.24-0.36-0.534-0.36-0.882s0.12-0.64,0.36-0.873c0.24-0.234,0.528-0.352,0.864-0.352
		c0.348,0,0.642,0.117,0.882,0.352c0.24,0.233,0.36,0.525,0.36,0.873s-0.12,0.642-0.36,0.882
		C419.049,326.748,418.755,326.868,418.408,326.868z"/>
	<path d="M430.27,337.56c-1.8,0-2.7-0.834-2.7-2.502v-5.094h-1.926v-1.818h1.926v-2.808l2.07-0.99v3.798h3.132v1.818h-3.132v4.698
		c0,0.708,0.432,1.062,1.296,1.062c0.504,0,1.032-0.144,1.584-0.432l-0.252,1.854C431.739,337.422,431.073,337.56,430.27,337.56z"/>
	<path d="M439.809,337.56c-1.008,0-1.827-0.264-2.457-0.792c-0.63-0.527-0.945-1.284-0.945-2.268c0-0.996,0.36-1.752,1.08-2.269
		c0.72-0.516,1.584-0.773,2.592-0.773c0.876,0,1.638,0.162,2.286,0.485v-0.54c0-1.104-0.606-1.655-1.818-1.655
		c-1.008,0-1.98,0.312-2.916,0.936l-0.63-1.691c1.116-0.708,2.358-1.062,3.726-1.062c2.436,0,3.654,1.152,3.654,3.456v5.958h-2.016
		v-0.72C441.717,337.248,440.865,337.56,439.809,337.56z M440.188,335.742c0.864,0,1.59-0.307,2.178-0.918v-1.188
		c-0.552-0.276-1.206-0.414-1.962-0.414c-0.576,0-1.053,0.108-1.431,0.324s-0.567,0.534-0.567,0.954
		c0,0.372,0.156,0.672,0.468,0.899C439.185,335.628,439.623,335.742,440.188,335.742z"/>
	<path d="M452.625,335.525h2.682v1.818h-7.434v-1.818h2.682v-9.359h-2.142l-0.954-1.818h5.166V335.525z"/>
	<path d="M317.842,359.159c-1.008,0-1.827-0.264-2.457-0.792c-0.63-0.527-0.945-1.284-0.945-2.268c0-0.996,0.36-1.752,1.08-2.269
		c0.72-0.516,1.584-0.773,2.592-0.773c0.876,0,1.638,0.162,2.286,0.485v-0.54c0-1.104-0.606-1.655-1.818-1.655
		c-1.008,0-1.98,0.312-2.916,0.936l-0.63-1.691c1.116-0.708,2.358-1.062,3.726-1.062c2.436,0,3.654,1.152,3.654,3.456v5.958h-2.016
		v-0.72C319.75,358.848,318.898,359.159,317.842,359.159z M318.22,357.342c0.864,0,1.59-0.307,2.178-0.918v-1.188
		c-0.552-0.276-1.206-0.414-1.962-0.414c-0.576,0-1.053,0.108-1.431,0.324s-0.567,0.534-0.567,0.954
		c0,0.372,0.156,0.672,0.468,0.899C317.218,357.228,317.656,357.342,318.22,357.342z"/>
	<path d="M329.686,359.159c-0.78,0-1.5-0.146-2.16-0.44s-1.188-0.693-1.584-1.197l1.35-1.225c0.756,0.732,1.59,1.099,2.502,1.099
		c0.444,0,0.81-0.078,1.098-0.234c0.288-0.155,0.432-0.39,0.432-0.702c0-0.18-0.087-0.351-0.261-0.513
		c-0.174-0.162-0.375-0.297-0.603-0.405c-0.228-0.107-0.564-0.252-1.008-0.432c-0.048-0.023-0.087-0.042-0.117-0.054
		s-0.069-0.027-0.117-0.045c-0.048-0.019-0.09-0.033-0.126-0.045c-0.444-0.192-0.774-0.34-0.99-0.441
		c-0.216-0.102-0.477-0.246-0.783-0.432c-0.306-0.187-0.528-0.363-0.666-0.531c-0.138-0.168-0.261-0.381-0.369-0.64
		c-0.108-0.258-0.162-0.549-0.162-0.872c0-0.78,0.335-1.396,1.008-1.846c0.672-0.45,1.518-0.675,2.538-0.675
		c1.428,0,2.574,0.486,3.438,1.458l-1.386,1.134c-0.66-0.552-1.368-0.828-2.124-0.828c-0.468,0-0.843,0.069-1.125,0.207
		c-0.282,0.139-0.423,0.333-0.423,0.585c0,0.12,0.048,0.237,0.144,0.352c0.096,0.114,0.264,0.233,0.504,0.359
		s0.438,0.223,0.594,0.288c0.156,0.066,0.42,0.171,0.792,0.315c1.104,0.444,1.836,0.804,2.196,1.08
		c0.636,0.504,0.96,1.158,0.972,1.962c0,0.853-0.321,1.519-0.963,1.998C331.645,358.92,330.778,359.159,329.686,359.159z"/>
	<path d="M340.774,359.159c-0.78,0-1.5-0.146-2.16-0.44s-1.188-0.693-1.584-1.197l1.35-1.225c0.756,0.732,1.59,1.099,2.502,1.099
		c0.444,0,0.81-0.078,1.098-0.234c0.288-0.155,0.432-0.39,0.432-0.702c0-0.18-0.087-0.351-0.261-0.513
		c-0.174-0.162-0.375-0.297-0.603-0.405c-0.228-0.107-0.564-0.252-1.008-0.432c-0.048-0.023-0.087-0.042-0.117-0.054
		s-0.069-0.027-0.117-0.045c-0.048-0.019-0.09-0.033-0.126-0.045c-0.444-0.192-0.774-0.34-0.99-0.441
		c-0.216-0.102-0.477-0.246-0.783-0.432c-0.306-0.187-0.528-0.363-0.666-0.531c-0.138-0.168-0.261-0.381-0.369-0.64
		c-0.108-0.258-0.162-0.549-0.162-0.872c0-0.78,0.335-1.396,1.008-1.846c0.672-0.45,1.518-0.675,2.538-0.675
		c1.428,0,2.574,0.486,3.438,1.458l-1.386,1.134c-0.66-0.552-1.368-0.828-2.124-0.828c-0.468,0-0.843,0.069-1.125,0.207
		c-0.282,0.139-0.423,0.333-0.423,0.585c0,0.12,0.048,0.237,0.144,0.352c0.096,0.114,0.264,0.233,0.504,0.359
		s0.438,0.223,0.594,0.288c0.156,0.066,0.42,0.171,0.792,0.315c1.104,0.444,1.836,0.804,2.196,1.08
		c0.636,0.504,0.96,1.158,0.972,1.962c0,0.853-0.321,1.519-0.963,1.998C342.733,358.92,341.866,359.159,340.774,359.159z"/>
	<path d="M356.001,353.886c0,0.527-0.024,0.947-0.072,1.26h-6.264c0.132,0.672,0.399,1.203,0.801,1.593
		c0.402,0.391,0.921,0.585,1.557,0.585c0.804,0,1.482-0.3,2.034-0.899l1.242,1.313c-0.864,0.948-1.962,1.422-3.294,1.422
		c-1.356,0-2.427-0.438-3.213-1.313s-1.179-2.046-1.179-3.511c0-1.487,0.396-2.66,1.188-3.519c0.792-0.857,1.86-1.287,3.204-1.287
		c1.176,0,2.136,0.369,2.88,1.107C355.629,351.374,356.001,352.457,356.001,353.886z M349.647,353.382h4.32
		c-0.06-0.673-0.273-1.18-0.639-1.521c-0.366-0.342-0.807-0.513-1.323-0.513c-0.66,0-1.191,0.18-1.593,0.54
		C350.01,352.247,349.756,352.745,349.647,353.382z"/>
	<path d="M363.742,359.159c-1.8,0-2.7-0.834-2.7-2.502v-5.094h-1.926v-1.818h1.926v-2.808l2.07-0.99v3.798h3.132v1.818h-3.132v4.698
		c0,0.708,0.432,1.062,1.296,1.062c0.504,0,1.032-0.144,1.584-0.432l-0.252,1.854C365.212,359.021,364.546,359.159,363.742,359.159z
		"/>
	<path d="M387.466,349.529c0.828,0,1.548,0.162,2.16,0.486v3.401h-2.016v-1.962h-0.18c-0.948,0-1.68,0.223-2.196,0.666
		c-0.516,0.444-0.774,1.11-0.774,1.998v3.006h2.574v1.818h-6.588v-1.818h1.944v-5.562h-1.944v-1.818h3.87v1.477
		c0.252-0.528,0.666-0.942,1.242-1.242C386.134,349.68,386.77,349.529,387.466,349.529z"/>
	<path d="M400.354,353.886c0,0.527-0.024,0.947-0.072,1.26h-6.264c0.132,0.672,0.399,1.203,0.801,1.593
		c0.402,0.391,0.921,0.585,1.557,0.585c0.804,0,1.482-0.3,2.034-0.899l1.242,1.313c-0.864,0.948-1.962,1.422-3.294,1.422
		c-1.356,0-2.427-0.438-3.213-1.313s-1.179-2.046-1.179-3.511c0-1.487,0.396-2.66,1.188-3.519c0.792-0.857,1.86-1.287,3.204-1.287
		c1.176,0,2.136,0.369,2.88,1.107C399.981,351.374,400.354,352.457,400.354,353.886z M394,353.382h4.32
		c-0.06-0.673-0.273-1.18-0.639-1.521c-0.366-0.342-0.807-0.513-1.323-0.513c-0.66,0-1.191,0.18-1.593,0.54
		C394.362,352.247,394.108,352.745,394,353.382z"/>
	<path d="M407.428,359.159c-1.296,0-2.322-0.426-3.078-1.277c-0.756-0.853-1.134-2.028-1.134-3.528c0-1.488,0.387-2.664,1.161-3.528
		s1.803-1.296,3.087-1.296c1.956,0,3.216,0.834,3.78,2.502l-1.962,0.666c-0.312-0.804-0.912-1.206-1.8-1.206
		c-0.684,0-1.215,0.259-1.593,0.774s-0.567,1.212-0.567,2.088s0.189,1.565,0.567,2.07c0.378,0.504,0.897,0.756,1.557,0.756
		c0.96,0,1.59-0.45,1.89-1.351l1.962,0.612C410.746,358.254,409.456,359.159,407.428,359.159z"/>
	<path d="M419.452,357.125h2.538v1.818h-7.146v-1.818h2.538v-5.562h-2.538v-1.818h4.608V357.125z M418.408,348.468
		c-0.336,0-0.625-0.12-0.864-0.36c-0.24-0.24-0.36-0.534-0.36-0.882s0.12-0.64,0.36-0.873c0.24-0.234,0.528-0.352,0.864-0.352
		c0.348,0,0.642,0.117,0.882,0.352c0.24,0.233,0.36,0.525,0.36,0.873s-0.12,0.642-0.36,0.882
		C419.049,348.348,418.755,348.468,418.408,348.468z"/>
	<path d="M425.463,362.562v-12.816h2.07v0.702c0.564-0.612,1.314-0.918,2.25-0.918c1.236,0,2.217,0.426,2.943,1.278
		c0.726,0.852,1.089,2.034,1.089,3.546c0,1.476-0.375,2.646-1.125,3.51s-1.713,1.296-2.889,1.296c-0.96,0-1.716-0.317-2.268-0.954
		v3.402L425.463,362.562z M429.496,357.18c0.708,0,1.257-0.243,1.647-0.729c0.39-0.485,0.585-1.185,0.585-2.097
		c0-0.876-0.195-1.572-0.585-2.088c-0.39-0.516-0.945-0.774-1.665-0.774c-0.864,0-1.512,0.306-1.944,0.918v3.853
		C427.965,356.873,428.619,357.18,429.496,357.18z"/>
	<path d="M444.705,353.886c0,0.527-0.024,0.947-0.072,1.26h-6.264c0.132,0.672,0.399,1.203,0.801,1.593
		c0.402,0.391,0.921,0.585,1.557,0.585c0.804,0,1.482-0.3,2.034-0.899l1.242,1.313c-0.864,0.948-1.962,1.422-3.294,1.422
		c-1.356,0-2.427-0.438-3.213-1.313s-1.179-2.046-1.179-3.511c0-1.487,0.396-2.66,1.188-3.519c0.792-0.857,1.86-1.287,3.204-1.287
		c1.176,0,2.136,0.369,2.88,1.107C444.333,351.374,444.705,352.457,444.705,353.886z M438.351,353.382h4.32
		c-0.06-0.673-0.273-1.18-0.639-1.521c-0.366-0.342-0.807-0.513-1.323-0.513c-0.66,0-1.191,0.18-1.593,0.54
		C438.714,352.247,438.459,352.745,438.351,353.382z"/>
</g>
<g>
	<path d="M569.304,348.542c-0.708,0-1.347-0.126-1.917-0.378c-0.569-0.252-1.044-0.585-1.422-0.999s-0.692-0.906-0.944-1.477
		c-0.252-0.569-0.433-1.157-0.54-1.764c-0.108-0.605-0.162-1.233-0.162-1.881c0-0.792,0.093-1.558,0.279-2.295
		c0.186-0.738,0.471-1.428,0.854-2.07c0.384-0.642,0.906-1.158,1.566-1.548c0.659-0.39,1.422-0.585,2.285-0.585
		c0.984,0,1.807,0.252,2.467,0.756c0.659,0.504,1.14,1.128,1.439,1.872l-1.908,0.918c-0.264-0.504-0.549-0.882-0.854-1.134
		s-0.688-0.378-1.144-0.378c-0.647,0-1.188,0.24-1.619,0.72c-0.433,0.48-0.732,1.041-0.9,1.683
		c-0.168,0.643-0.252,1.329-0.252,2.062c0,1.188,0.24,2.229,0.72,3.123c0.48,0.894,1.164,1.341,2.052,1.341
		c0.84,0,1.513-0.54,2.017-1.62l1.944,0.738C572.473,347.569,571.152,348.542,569.304,348.542z"/>
	<path d="M582.57,338.93c0.828,0,1.548,0.162,2.16,0.486v3.401h-2.017v-1.962h-0.18c-0.948,0-1.681,0.223-2.196,0.666
		c-0.516,0.444-0.773,1.11-0.773,1.998v3.006h2.573v1.818h-6.588v-1.818h1.944v-5.562h-1.944v-1.818h3.87v1.477
		c0.252-0.528,0.666-0.942,1.242-1.242S581.874,338.93,582.57,338.93z"/>
	<path d="M595.458,343.286c0,0.527-0.024,0.947-0.072,1.26h-6.264c0.132,0.672,0.398,1.203,0.801,1.593
		c0.402,0.391,0.921,0.585,1.557,0.585c0.805,0,1.482-0.3,2.034-0.899l1.242,1.313c-0.864,0.948-1.962,1.422-3.294,1.422
		c-1.356,0-2.427-0.438-3.213-1.313s-1.179-2.046-1.179-3.511c0-1.487,0.396-2.66,1.188-3.519c0.792-0.857,1.86-1.287,3.204-1.287
		c1.176,0,2.136,0.369,2.88,1.107C595.086,340.774,595.458,341.857,595.458,343.286z M589.104,342.782h4.32
		c-0.06-0.673-0.273-1.18-0.639-1.521c-0.366-0.342-0.808-0.513-1.323-0.513c-0.66,0-1.191,0.18-1.593,0.54
		C589.467,341.647,589.212,342.146,589.104,342.782z"/>
	<path d="M601.649,348.56c-1.008,0-1.826-0.264-2.457-0.792c-0.63-0.527-0.944-1.284-0.944-2.268c0-0.996,0.359-1.752,1.08-2.269
		c0.72-0.516,1.584-0.773,2.592-0.773c0.876,0,1.638,0.162,2.286,0.485v-0.54c0-1.104-0.606-1.655-1.818-1.655
		c-1.008,0-1.979,0.312-2.916,0.936l-0.63-1.691c1.116-0.708,2.358-1.062,3.726-1.062c2.437,0,3.654,1.152,3.654,3.456v5.958h-2.016
		v-0.72C603.558,348.248,602.706,348.56,601.649,348.56z M602.028,346.742c0.863,0,1.59-0.307,2.178-0.918v-1.188
		c-0.553-0.276-1.206-0.414-1.962-0.414c-0.576,0-1.054,0.108-1.432,0.324s-0.566,0.534-0.566,0.954
		c0,0.372,0.155,0.672,0.468,0.899C601.025,346.628,601.464,346.742,602.028,346.742z"/>
	<path d="M614.286,348.56c-1.8,0-2.7-0.834-2.7-2.502v-5.094h-1.926v-1.818h1.926v-2.808l2.07-0.99v3.798h3.132v1.818h-3.132v4.698
		c0,0.708,0.432,1.062,1.296,1.062c0.504,0,1.032-0.144,1.584-0.432l-0.252,1.854C615.756,348.422,615.09,348.56,614.286,348.56z"/>
	<path d="M628.722,343.286c0,0.527-0.023,0.947-0.071,1.26h-6.265c0.132,0.672,0.399,1.203,0.802,1.593
		c0.401,0.391,0.921,0.585,1.557,0.585c0.804,0,1.481-0.3,2.034-0.899l1.242,1.313c-0.864,0.948-1.962,1.422-3.294,1.422
		c-1.356,0-2.428-0.438-3.214-1.313s-1.179-2.046-1.179-3.511c0-1.487,0.396-2.66,1.188-3.519c0.792-0.857,1.859-1.287,3.204-1.287
		c1.176,0,2.136,0.369,2.88,1.107C628.35,340.774,628.722,341.857,628.722,343.286z M622.368,342.782h4.32
		c-0.061-0.673-0.273-1.18-0.64-1.521s-0.807-0.513-1.322-0.513c-0.66,0-1.191,0.18-1.594,0.54
		C622.73,341.647,622.477,342.146,622.368,342.782z"/>
	<path d="M642.672,348.344v-12.042l2.07-0.954v4.698c0.6-0.744,1.47-1.116,2.609-1.116c1.009,0,1.827,0.304,2.457,0.909
		c0.63,0.606,0.945,1.569,0.945,2.889v5.616h-2.07v-5.184c0-0.792-0.177-1.368-0.53-1.729c-0.354-0.36-0.813-0.54-1.377-0.54
		c-0.601,0-1.09,0.174-1.468,0.522s-0.566,0.918-0.566,1.71v5.22h-2.07V348.344z"/>
	<path d="M657.09,348.56c-1.008,0-1.827-0.264-2.457-0.792c-0.63-0.527-0.945-1.284-0.945-2.268c0-0.996,0.36-1.752,1.08-2.269
		c0.721-0.516,1.584-0.773,2.592-0.773c0.876,0,1.639,0.162,2.286,0.485v-0.54c0-1.104-0.605-1.655-1.817-1.655
		c-1.009,0-1.98,0.312-2.916,0.936l-0.63-1.691c1.115-0.708,2.357-1.062,3.726-1.062c2.436,0,3.654,1.152,3.654,3.456v5.958h-2.017
		v-0.72C658.998,348.248,658.146,348.56,657.09,348.56z M657.468,346.742c0.864,0,1.59-0.307,2.178-0.918v-1.188
		c-0.552-0.276-1.206-0.414-1.962-0.414c-0.576,0-1.053,0.108-1.431,0.324s-0.567,0.534-0.567,0.954
		c0,0.372,0.156,0.672,0.468,0.899C656.466,346.628,656.903,346.742,657.468,346.742z"/>
	<path d="M668.934,348.56c-0.78,0-1.5-0.146-2.16-0.44s-1.188-0.693-1.584-1.197l1.351-1.225c0.756,0.732,1.59,1.099,2.502,1.099
		c0.443,0,0.81-0.078,1.098-0.234c0.288-0.155,0.432-0.39,0.432-0.702c0-0.18-0.087-0.351-0.261-0.513s-0.375-0.297-0.603-0.405
		c-0.229-0.107-0.564-0.252-1.009-0.432c-0.048-0.023-0.087-0.042-0.116-0.054c-0.03-0.012-0.069-0.027-0.117-0.045
		c-0.048-0.019-0.09-0.033-0.126-0.045c-0.444-0.192-0.774-0.34-0.99-0.441s-0.477-0.246-0.783-0.432
		c-0.306-0.187-0.528-0.363-0.666-0.531s-0.261-0.381-0.369-0.64c-0.107-0.258-0.161-0.549-0.161-0.872
		c0-0.78,0.335-1.396,1.008-1.846c0.672-0.45,1.518-0.675,2.538-0.675c1.428,0,2.573,0.486,3.438,1.458l-1.386,1.134
		c-0.66-0.552-1.368-0.828-2.124-0.828c-0.468,0-0.843,0.069-1.125,0.207c-0.282,0.139-0.423,0.333-0.423,0.585
		c0,0.12,0.048,0.237,0.144,0.352s0.264,0.233,0.504,0.359s0.438,0.223,0.595,0.288c0.155,0.066,0.42,0.171,0.792,0.315
		c1.104,0.444,1.836,0.804,2.195,1.08c0.636,0.504,0.96,1.158,0.973,1.962c0,0.853-0.321,1.519-0.963,1.998
		C670.893,348.32,670.025,348.56,668.934,348.56z"/>
	<path d="M675.936,348.344v-12.042l2.07-0.954v4.698c0.6-0.744,1.47-1.116,2.609-1.116c1.009,0,1.827,0.304,2.457,0.909
		c0.63,0.606,0.945,1.569,0.945,2.889v5.616h-2.07v-5.184c0-0.792-0.177-1.368-0.53-1.729c-0.354-0.36-0.813-0.54-1.377-0.54
		c-0.601,0-1.09,0.174-1.468,0.522s-0.566,0.918-0.566,1.71v5.22h-2.07V348.344z"/>
</g>
<g>
	<path d="M72.549,338.18v-12.6h3.168c0.816,0,1.554,0.12,2.214,0.359c0.66,0.24,1.209,0.559,1.647,0.954
		c0.438,0.396,0.804,0.867,1.098,1.413c0.294,0.547,0.507,1.116,0.639,1.71c0.132,0.595,0.198,1.215,0.198,1.863
		c0,0.601-0.06,1.188-0.18,1.764c-0.12,0.576-0.324,1.144-0.612,1.701c-0.288,0.559-0.651,1.044-1.089,1.458
		c-0.438,0.414-0.999,0.747-1.683,0.999s-1.452,0.378-2.304,0.378H72.549z M74.691,336.164h1.17c0.612,0,1.149-0.126,1.611-0.378
		s0.819-0.591,1.071-1.018c0.252-0.426,0.438-0.882,0.558-1.367c0.12-0.486,0.18-0.993,0.18-1.521c0-1.176-0.27-2.184-0.81-3.024
		c-0.54-0.839-1.344-1.26-2.412-1.26h-1.368V336.164z"/>
	<path d="M92.007,333.122c0,0.528-0.024,0.948-0.072,1.26h-6.264c0.132,0.672,0.399,1.203,0.801,1.593
		c0.402,0.391,0.921,0.585,1.557,0.585c0.804,0,1.482-0.3,2.034-0.899l1.242,1.313c-0.864,0.948-1.962,1.422-3.294,1.422
		c-1.356,0-2.427-0.438-3.213-1.313s-1.179-2.046-1.179-3.51c0-1.488,0.396-2.661,1.188-3.52c0.792-0.857,1.86-1.287,3.204-1.287
		c1.176,0,2.136,0.369,2.88,1.107C91.635,330.611,92.007,331.694,92.007,333.122z M85.653,332.618h4.32
		c-0.06-0.672-0.273-1.18-0.639-1.521c-0.366-0.342-0.807-0.513-1.323-0.513c-0.66,0-1.191,0.18-1.593,0.54
		C86.016,331.484,85.761,331.982,85.653,332.618z"/>
	<path d="M94.941,341.798v-12.816h2.07v0.702c0.564-0.611,1.314-0.918,2.25-0.918c1.236,0,2.217,0.427,2.943,1.278
		c0.726,0.853,1.089,2.034,1.089,3.546c0,1.477-0.375,2.646-1.125,3.51c-0.75,0.864-1.713,1.296-2.889,1.296
		c-0.96,0-1.716-0.317-2.268-0.953v3.401L94.941,341.798z M98.973,336.416c0.708,0,1.257-0.243,1.647-0.729
		c0.39-0.485,0.585-1.185,0.585-2.097c0-0.876-0.195-1.572-0.585-2.088c-0.39-0.516-0.945-0.774-1.665-0.774
		c-0.864,0-1.512,0.307-1.944,0.918v3.853C97.443,336.11,98.097,336.416,98.973,336.416z"/>
	<path d="M111.015,336.362h2.682v1.817h-7.434v-1.817h2.682v-9.36h-2.142l-0.954-1.818h5.166V336.362z"/>
	<path d="M121.077,338.396c-1.356,0-2.43-0.429-3.222-1.286c-0.792-0.858-1.188-2.031-1.188-3.52c0-1.476,0.396-2.648,1.188-3.519
		s1.866-1.306,3.222-1.306c1.368,0,2.445,0.436,3.231,1.306s1.179,2.043,1.179,3.519c0,1.477-0.393,2.646-1.179,3.51
		C123.522,337.964,122.445,338.396,121.077,338.396z M121.077,336.416c0.744,0,1.317-0.252,1.719-0.756
		c0.402-0.504,0.603-1.194,0.603-2.07s-0.201-1.572-0.603-2.088c-0.402-0.516-0.975-0.774-1.719-0.774
		c-0.732,0-1.302,0.259-1.71,0.774c-0.408,0.516-0.612,1.212-0.612,2.088c0,0.864,0.204,1.551,0.612,2.062
		C119.775,336.161,120.345,336.416,121.077,336.416z"/>
	<path d="M129.699,341.672l1.404-3.654l-3.438-9.036h2.106l2.106,5.616c0.096,0.24,0.186,0.528,0.27,0.864
		c0.024-0.084,0.054-0.177,0.09-0.279c0.036-0.102,0.072-0.21,0.108-0.323c0.036-0.114,0.066-0.201,0.09-0.262l2.106-5.616h2.124
		l-4.824,12.69H129.699z"/>
	<path d="M159.237,338.18h-2.466l-2.448-4.5l-2.412,4.5h-2.466l3.744-6.516l-3.492-6.084h2.466l2.178,4.032l2.16-4.032h2.466
		l-3.492,6.048L159.237,338.18z"/>
	<path d="M165.609,338.396c-1.296,0-2.322-0.426-3.078-1.277c-0.756-0.853-1.134-2.028-1.134-3.528c0-1.487,0.387-2.664,1.161-3.528
		c0.774-0.863,1.803-1.296,3.087-1.296c1.956,0,3.216,0.835,3.78,2.502l-1.962,0.666c-0.312-0.804-0.912-1.206-1.8-1.206
		c-0.684,0-1.215,0.259-1.593,0.774s-0.567,1.212-0.567,2.088s0.189,1.566,0.567,2.07s0.897,0.756,1.557,0.756
		c0.96,0,1.59-0.45,1.89-1.35l1.962,0.611C168.927,337.49,167.637,338.396,165.609,338.396z"/>
	<path d="M180.71,333.122c0,0.528-0.024,0.948-0.072,1.26h-6.264c0.132,0.672,0.399,1.203,0.801,1.593
		c0.402,0.391,0.921,0.585,1.557,0.585c0.804,0,1.482-0.3,2.034-0.899l1.242,1.313c-0.864,0.948-1.962,1.422-3.294,1.422
		c-1.356,0-2.427-0.438-3.213-1.313s-1.179-2.046-1.179-3.51c0-1.488,0.396-2.661,1.188-3.52c0.792-0.857,1.86-1.287,3.204-1.287
		c1.176,0,2.136,0.369,2.88,1.107C180.338,330.611,180.71,331.694,180.71,333.122z M174.356,332.618h4.32
		c-0.06-0.672-0.273-1.18-0.639-1.521c-0.366-0.342-0.807-0.513-1.323-0.513c-0.66,0-1.191,0.18-1.593,0.54
		C174.719,331.484,174.465,331.982,174.356,332.618z"/>
	<path d="M189.999,328.766c0.828,0,1.548,0.162,2.16,0.486v3.402h-2.016v-1.962h-0.18c-0.948,0-1.68,0.222-2.196,0.666
		c-0.516,0.443-0.774,1.109-0.774,1.997v3.007h2.574v1.817h-6.588v-1.817h1.944V330.8h-1.944v-1.818h3.87v1.477
		c0.252-0.528,0.666-0.942,1.242-1.242C188.667,328.916,189.302,328.766,189.999,328.766z"/>
	<path d="M199.539,338.396c-1.8,0-2.7-0.833-2.7-2.502V330.8h-1.926v-1.818h1.926v-2.808l2.07-0.99v3.798h3.132v1.818h-3.132v4.698
		c0,0.708,0.432,1.062,1.296,1.062c0.504,0,1.032-0.144,1.584-0.432l-0.252,1.854C201.008,338.258,200.342,338.396,199.539,338.396z
		"/>
	<path d="M65.691,359.996c-0.78,0-1.5-0.147-2.16-0.441c-0.66-0.294-1.188-0.692-1.584-1.196l1.35-1.225
		c0.756,0.732,1.59,1.099,2.502,1.099c0.444,0,0.81-0.078,1.098-0.234c0.288-0.156,0.432-0.39,0.432-0.702
		c0-0.18-0.087-0.351-0.261-0.513c-0.174-0.162-0.375-0.297-0.603-0.405c-0.228-0.107-0.564-0.252-1.008-0.432
		c-0.048-0.024-0.087-0.042-0.117-0.055c-0.03-0.012-0.069-0.026-0.117-0.045c-0.048-0.018-0.09-0.032-0.126-0.045
		c-0.444-0.191-0.774-0.339-0.99-0.44c-0.216-0.103-0.477-0.246-0.783-0.433c-0.306-0.186-0.528-0.362-0.666-0.53
		c-0.138-0.168-0.261-0.381-0.369-0.64c-0.108-0.258-0.162-0.549-0.162-0.873c0-0.779,0.335-1.395,1.008-1.845
		c0.672-0.45,1.518-0.675,2.538-0.675c1.428,0,2.574,0.485,3.438,1.458l-1.386,1.134c-0.66-0.552-1.368-0.828-2.124-0.828
		c-0.468,0-0.843,0.069-1.125,0.207c-0.282,0.139-0.423,0.333-0.423,0.585c0,0.12,0.048,0.237,0.144,0.352
		c0.096,0.114,0.264,0.233,0.504,0.359s0.438,0.223,0.594,0.288c0.156,0.066,0.42,0.171,0.792,0.315
		c1.104,0.443,1.836,0.804,2.196,1.08c0.636,0.504,0.96,1.158,0.972,1.962c0,0.852-0.321,1.518-0.963,1.998
		C67.65,359.756,66.783,359.996,65.691,359.996z"/>
	<path d="M79.227,350.366c0.768,0,1.335,0.267,1.701,0.801c0.366,0.534,0.549,1.431,0.549,2.691v5.922h-1.89v-5.616
		c0-0.648-0.06-1.113-0.18-1.396c-0.12-0.281-0.342-0.423-0.666-0.423c-0.312,0-0.561,0.162-0.747,0.486s-0.279,0.774-0.279,1.35
		v5.599h-1.89v-5.67c0-1.176-0.288-1.765-0.864-1.765c-0.336,0-0.603,0.162-0.801,0.486c-0.198,0.324-0.297,0.774-0.297,1.35v5.599
		h-1.89v-9.198h1.764v1.224c0.335-0.96,0.942-1.439,1.818-1.439c0.384,0,0.723,0.132,1.017,0.396
		c0.294,0.265,0.501,0.576,0.621,0.937C77.745,350.811,78.423,350.366,79.227,350.366z"/>
	<path d="M87.111,359.996c-1.008,0-1.827-0.264-2.457-0.792c-0.63-0.528-0.945-1.284-0.945-2.269c0-0.995,0.36-1.751,1.08-2.268
		c0.72-0.516,1.584-0.774,2.592-0.774c0.876,0,1.638,0.162,2.286,0.486v-0.54c0-1.104-0.606-1.656-1.818-1.656
		c-1.008,0-1.98,0.312-2.916,0.937l-0.63-1.692c1.116-0.708,2.358-1.062,3.726-1.062c2.436,0,3.654,1.151,3.654,3.456v5.958h-2.016
		v-0.721C89.019,359.685,88.167,359.996,87.111,359.996z M87.489,358.178c0.864,0,1.59-0.306,2.178-0.918v-1.188
		c-0.552-0.276-1.206-0.414-1.962-0.414c-0.576,0-1.053,0.107-1.431,0.324c-0.378,0.216-0.567,0.534-0.567,0.953
		c0,0.373,0.156,0.673,0.468,0.9C86.487,358.064,86.925,358.178,87.489,358.178z"/>
	<path d="M101.295,350.366c0.828,0,1.548,0.162,2.16,0.485v3.402h-2.016v-1.962h-0.18c-0.948,0-1.68,0.223-2.196,0.666
		c-0.516,0.444-0.774,1.11-0.774,1.998v3.006h2.574v1.818h-6.588v-1.818h1.944V352.4h-1.944v-1.818h3.87v1.476
		c0.252-0.527,0.666-0.941,1.242-1.241C99.963,350.517,100.599,350.366,101.295,350.366z"/>
	<path d="M110.835,359.996c-1.8,0-2.7-0.834-2.7-2.502V352.4h-1.926v-1.818h1.926v-2.808l2.07-0.99v3.798h3.132v1.818h-3.132v4.697
		c0,0.709,0.432,1.062,1.296,1.062c0.504,0,1.032-0.145,1.584-0.432l-0.252,1.854C112.305,359.858,111.639,359.996,110.835,359.996z
		"/>
	<path d="M132.345,359.996c-1.296,0-2.322-0.426-3.078-1.278c-0.756-0.852-1.134-2.027-1.134-3.527c0-1.488,0.387-2.664,1.161-3.528
		s1.803-1.296,3.087-1.296c1.956,0,3.216,0.834,3.78,2.502l-1.962,0.666c-0.312-0.804-0.912-1.206-1.8-1.206
		c-0.684,0-1.215,0.258-1.593,0.773c-0.378,0.517-0.567,1.213-0.567,2.089s0.189,1.565,0.567,2.069s0.897,0.756,1.557,0.756
		c0.96,0,1.59-0.449,1.89-1.35l1.962,0.612C135.663,359.09,134.373,359.996,132.345,359.996z"/>
	<path d="M143.253,359.996c-1.356,0-2.43-0.429-3.222-1.287c-0.792-0.857-1.188-2.031-1.188-3.519c0-1.477,0.396-2.649,1.188-3.52
		s1.866-1.305,3.222-1.305c1.368,0,2.445,0.435,3.231,1.305s1.179,2.043,1.179,3.52c0,1.476-0.393,2.646-1.179,3.51
		S144.621,359.996,143.253,359.996z M143.253,358.016c0.744,0,1.317-0.252,1.719-0.756c0.402-0.504,0.603-1.193,0.603-2.069
		s-0.201-1.572-0.603-2.089c-0.402-0.516-0.975-0.773-1.719-0.773c-0.732,0-1.302,0.258-1.71,0.773
		c-0.408,0.517-0.612,1.213-0.612,2.089c0,0.863,0.204,1.551,0.612,2.061C141.951,357.761,142.521,358.016,143.253,358.016z"/>
	<path d="M154.989,350.366c1.008,0,1.827,0.303,2.457,0.909c0.63,0.605,0.945,1.568,0.945,2.889v5.616h-2.07v-5.185
		c0-0.792-0.174-1.367-0.522-1.728s-0.81-0.54-1.386-0.54c-1.356,0-2.034,0.744-2.034,2.231v5.221h-2.07v-9.198h1.908v1.134
		c0.18-0.359,0.531-0.675,1.053-0.944C153.792,350.501,154.365,350.366,154.989,350.366z"/>
	<path d="M166.275,359.996c-1.8,0-2.7-0.834-2.7-2.502V352.4h-1.926v-1.818h1.926v-2.808l2.07-0.99v3.798h3.132v1.818h-3.132v4.697
		c0,0.709,0.432,1.062,1.296,1.062c0.504,0,1.032-0.145,1.584-0.432l-0.252,1.854C167.745,359.858,167.079,359.996,166.275,359.996z
		"/>
	<path d="M178.911,350.366c0.828,0,1.548,0.162,2.16,0.485v3.402h-2.016v-1.962h-0.18c-0.948,0-1.68,0.223-2.196,0.666
		c-0.516,0.444-0.774,1.11-0.774,1.998v3.006h2.574v1.818h-6.588v-1.818h1.944V352.4h-1.944v-1.818h3.87v1.476
		c0.252-0.527,0.666-0.941,1.242-1.241C177.579,350.517,178.214,350.366,178.911,350.366z"/>
	<path d="M186.902,359.996c-1.008,0-1.827-0.264-2.457-0.792c-0.63-0.528-0.945-1.284-0.945-2.269c0-0.995,0.36-1.751,1.08-2.268
		c0.72-0.516,1.584-0.774,2.592-0.774c0.876,0,1.638,0.162,2.286,0.486v-0.54c0-1.104-0.606-1.656-1.818-1.656
		c-1.008,0-1.98,0.312-2.916,0.937l-0.63-1.692c1.116-0.708,2.358-1.062,3.726-1.062c2.436,0,3.654,1.151,3.654,3.456v5.958h-2.016
		v-0.721C188.811,359.685,187.958,359.996,186.902,359.996z M187.281,358.178c0.864,0,1.59-0.306,2.178-0.918v-1.188
		c-0.552-0.276-1.206-0.414-1.962-0.414c-0.576,0-1.053,0.107-1.431,0.324c-0.378,0.216-0.567,0.534-0.567,0.953
		c0,0.373,0.156,0.673,0.468,0.9C186.278,358.064,186.716,358.178,187.281,358.178z"/>
	<path d="M198.873,359.996c-1.296,0-2.322-0.426-3.078-1.278c-0.756-0.852-1.134-2.027-1.134-3.527c0-1.488,0.387-2.664,1.161-3.528
		s1.803-1.296,3.087-1.296c1.956,0,3.216,0.834,3.78,2.502l-1.962,0.666c-0.312-0.804-0.912-1.206-1.8-1.206
		c-0.684,0-1.215,0.258-1.593,0.773c-0.378,0.517-0.567,1.213-0.567,2.089s0.189,1.565,0.567,2.069s0.897,0.756,1.557,0.756
		c0.96,0,1.59-0.449,1.89-1.35l1.962,0.612C202.19,359.09,200.9,359.996,198.873,359.996z"/>
	<path d="M210.627,359.996c-1.8,0-2.7-0.834-2.7-2.502V352.4h-1.926v-1.818h1.926v-2.808l2.07-0.99v3.798h3.132v1.818h-3.132v4.697
		c0,0.709,0.432,1.062,1.296,1.062c0.504,0,1.032-0.145,1.584-0.432l-0.252,1.854C212.097,359.858,211.431,359.996,210.627,359.996z
		"/>
</g>
<g>
	<path d="M814.671,326.02v-12.6h2.088l1.818,6.912c0.168,0.624,0.27,1.038,0.306,1.242c0.048-0.384,0.149-0.798,0.306-1.242
		l1.872-6.912h1.962v12.6h-1.854v-6.84c0-0.528,0.012-0.876,0.036-1.044l-0.343,1.044l-1.926,6.84h-0.18l-1.926-6.84l-0.343-1.044
		c0.024,0.336,0.036,0.684,0.036,1.044v6.84H814.671z"/>
	<path d="M831.051,324.202h2.538v1.818h-7.146v-1.818h2.538v-5.562h-2.538v-1.818h4.608V324.202z M830.007,315.544
		c-0.336,0-0.624-0.12-0.864-0.36c-0.24-0.24-0.36-0.534-0.36-0.882s0.12-0.639,0.36-0.873c0.24-0.234,0.528-0.351,0.864-0.351
		c0.348,0,0.642,0.117,0.882,0.351c0.24,0.234,0.36,0.525,0.36,0.873s-0.12,0.642-0.36,0.882
		C830.649,315.424,830.355,315.544,830.007,315.544z"/>
	<path d="M841.671,316.606c1.008,0,1.826,0.303,2.457,0.909c0.63,0.606,0.944,1.569,0.944,2.889v5.616h-2.069v-5.184
		c0-0.792-0.175-1.368-0.522-1.728c-0.348-0.36-0.81-0.54-1.386-0.54c-1.356,0-2.034,0.744-2.034,2.232v5.22h-2.07v-9.198h1.908
		v1.134c0.18-0.36,0.531-0.675,1.053-0.945C840.474,316.741,841.047,316.606,841.671,316.606z"/>
	<path d="M852.956,326.236c-1.8,0-2.699-0.833-2.699-2.502v-5.094h-1.927v-1.818h1.927v-2.808l2.069-0.99v3.798h3.132v1.818h-3.132
		v4.698c0,0.708,0.433,1.062,1.296,1.062c0.504,0,1.032-0.144,1.584-0.432l-0.252,1.854
		C854.426,326.098,853.76,326.236,852.956,326.236z"/>
	<path d="M879.183,326.02h-2.467l-2.447-4.5l-2.412,4.5h-2.466l3.743-6.516l-3.491-6.084h2.466l2.178,4.032l2.16-4.032h2.466
		l-3.492,6.048L879.183,326.02z"/>
	<path d="M885.554,326.236c-1.296,0-2.321-0.426-3.077-1.278c-0.757-0.852-1.135-2.028-1.135-3.528c0-1.488,0.388-2.664,1.161-3.528
		c0.774-0.864,1.803-1.296,3.087-1.296c1.956,0,3.216,0.834,3.78,2.502l-1.962,0.666c-0.312-0.804-0.912-1.206-1.8-1.206
		c-0.685,0-1.215,0.258-1.594,0.774c-0.378,0.516-0.566,1.212-0.566,2.088s0.188,1.566,0.566,2.07
		c0.379,0.504,0.897,0.756,1.558,0.756c0.96,0,1.59-0.45,1.89-1.35l1.962,0.612C888.872,325.33,887.582,326.236,885.554,326.236z"/>
	<path d="M900.656,320.962c0,0.528-0.024,0.948-0.072,1.26h-6.264c0.132,0.672,0.398,1.203,0.801,1.593
		c0.401,0.39,0.921,0.585,1.557,0.585c0.804,0,1.482-0.3,2.034-0.9l1.242,1.314c-0.864,0.948-1.962,1.422-3.294,1.422
		c-1.356,0-2.428-0.438-3.213-1.314c-0.786-0.875-1.18-2.046-1.18-3.51c0-1.488,0.396-2.661,1.188-3.519s1.859-1.287,3.204-1.287
		c1.176,0,2.136,0.369,2.88,1.107C900.284,318.451,900.656,319.534,900.656,320.962z M894.302,320.458h4.32
		c-0.061-0.672-0.273-1.179-0.639-1.521c-0.366-0.342-0.808-0.513-1.323-0.513c-0.66,0-1.191,0.18-1.593,0.54
		C894.665,319.324,894.41,319.822,894.302,320.458z"/>
	<path d="M909.945,316.606c0.827,0,1.548,0.162,2.159,0.486v3.402h-2.016v-1.962h-0.18c-0.948,0-1.681,0.222-2.196,0.666
		c-0.517,0.444-0.774,1.11-0.774,1.998v3.006h2.574v1.818h-6.588v-1.818h1.944v-5.562h-1.944v-1.818h3.87v1.476
		c0.252-0.528,0.666-0.942,1.242-1.242S909.248,316.606,909.945,316.606z"/>
	<path d="M919.485,326.236c-1.8,0-2.699-0.833-2.699-2.502v-5.094h-1.927v-1.818h1.927v-2.808l2.069-0.99v3.798h3.132v1.818h-3.132
		v4.698c0,0.708,0.433,1.062,1.296,1.062c0.504,0,1.032-0.144,1.584-0.432l-0.252,1.854
		C920.954,326.098,920.288,326.236,919.485,326.236z"/>
	<path d="M807.057,347.836c-1.008,0-1.827-0.264-2.457-0.792c-0.63-0.528-0.944-1.284-0.944-2.268c0-0.996,0.359-1.751,1.079-2.268
		c0.721-0.516,1.584-0.774,2.593-0.774c0.876,0,1.638,0.162,2.286,0.486v-0.54c0-1.104-0.606-1.656-1.818-1.656
		c-1.008,0-1.98,0.312-2.916,0.936l-0.63-1.692c1.116-0.708,2.357-1.062,3.726-1.062c2.437,0,3.654,1.152,3.654,3.456v5.958h-2.016
		v-0.72C808.965,347.524,808.113,347.836,807.057,347.836z M807.435,346.018c0.864,0,1.59-0.306,2.179-0.918v-1.188
		c-0.553-0.276-1.206-0.414-1.963-0.414c-0.575,0-1.053,0.108-1.431,0.324c-0.378,0.216-0.566,0.534-0.566,0.954
		c0,0.373,0.155,0.672,0.468,0.9C806.433,345.904,806.871,346.018,807.435,346.018z"/>
	<path d="M819.495,338.206c1.008,0,1.826,0.303,2.457,0.909c0.63,0.606,0.944,1.569,0.944,2.889v5.616h-2.069v-5.184
		c0-0.792-0.175-1.368-0.522-1.728c-0.348-0.36-0.81-0.54-1.386-0.54c-1.356,0-2.034,0.744-2.034,2.232v5.22h-2.07v-9.198h1.908
		v1.134c0.18-0.36,0.531-0.675,1.053-0.945C818.298,338.341,818.871,338.206,819.495,338.206z"/>
	<path d="M829.611,347.836c-1.26,0-2.25-0.423-2.97-1.269c-0.72-0.846-1.08-2.031-1.08-3.555c0-1.476,0.369-2.646,1.107-3.51
		c0.737-0.864,1.7-1.296,2.889-1.296c0.983,0,1.746,0.294,2.286,0.882v-3.51l2.07-0.954v12.996h-2.07v-0.702
		c-0.192,0.252-0.489,0.468-0.892,0.648C830.55,347.746,830.103,347.836,829.611,347.836z M829.899,345.856
		c0.9,0,1.548-0.3,1.944-0.9v-3.888c-0.433-0.6-1.092-0.9-1.98-0.9c-0.708,0-1.254,0.246-1.638,0.738s-0.576,1.194-0.576,2.106
		c0,0.864,0.195,1.554,0.585,2.07C828.623,345.598,829.179,345.856,829.899,345.856z"/>
	<path d="M852.956,347.836c-1.8,0-2.699-0.833-2.699-2.502v-5.094h-1.927v-1.818h1.927v-2.808l2.069-0.99v3.798h3.132v1.818h-3.132
		v4.698c0,0.708,0.433,1.062,1.296,1.062c0.504,0,1.032-0.144,1.584-0.432l-0.252,1.854
		C854.426,347.698,853.76,347.836,852.956,347.836z"/>
	<path d="M865.593,338.206c0.827,0,1.548,0.162,2.159,0.486v3.402h-2.016v-1.962h-0.18c-0.948,0-1.681,0.222-2.196,0.666
		c-0.517,0.444-0.774,1.11-0.774,1.998v3.006h2.574v1.818h-6.588v-1.818h1.944v-5.562h-1.944v-1.818h3.87v1.476
		c0.252-0.528,0.666-0.942,1.242-1.242S864.897,338.206,865.593,338.206z"/>
	<path d="M873.584,347.836c-1.008,0-1.827-0.264-2.457-0.792c-0.63-0.528-0.944-1.284-0.944-2.268c0-0.996,0.359-1.751,1.079-2.268
		c0.721-0.516,1.584-0.774,2.593-0.774c0.876,0,1.638,0.162,2.286,0.486v-0.54c0-1.104-0.606-1.656-1.818-1.656
		c-1.008,0-1.98,0.312-2.916,0.936l-0.63-1.692c1.116-0.708,2.357-1.062,3.726-1.062c2.437,0,3.654,1.152,3.654,3.456v5.958h-2.016
		v-0.72C875.492,347.524,874.64,347.836,873.584,347.836z M873.962,346.018c0.864,0,1.59-0.306,2.179-0.918v-1.188
		c-0.553-0.276-1.206-0.414-1.963-0.414c-0.575,0-1.053,0.108-1.431,0.324c-0.378,0.216-0.566,0.534-0.566,0.954
		c0,0.373,0.155,0.672,0.468,0.9C872.96,345.904,873.399,346.018,873.962,346.018z"/>
	<path d="M886.023,338.206c1.008,0,1.826,0.303,2.457,0.909c0.63,0.606,0.944,1.569,0.944,2.889v5.616h-2.069v-5.184
		c0-0.792-0.175-1.368-0.522-1.728c-0.348-0.36-0.81-0.54-1.386-0.54c-1.356,0-2.034,0.744-2.034,2.232v5.22h-2.07v-9.198h1.908
		v1.134c0.18-0.36,0.531-0.675,1.053-0.945C884.825,338.341,885.399,338.206,886.023,338.206z"/>
	<path d="M896.516,347.836c-0.78,0-1.5-0.147-2.159-0.441c-0.66-0.294-1.188-0.693-1.585-1.197l1.351-1.224
		c0.756,0.732,1.59,1.098,2.502,1.098c0.443,0,0.81-0.078,1.098-0.234c0.288-0.156,0.433-0.39,0.433-0.702
		c0-0.18-0.088-0.351-0.262-0.513s-0.375-0.297-0.603-0.405c-0.229-0.108-0.564-0.252-1.008-0.432
		c-0.049-0.024-0.088-0.042-0.117-0.054c-0.03-0.012-0.069-0.027-0.117-0.045s-0.09-0.033-0.126-0.045
		c-0.444-0.192-0.773-0.339-0.99-0.441c-0.216-0.102-0.477-0.246-0.782-0.432c-0.307-0.186-0.528-0.363-0.666-0.531
		c-0.139-0.168-0.262-0.381-0.369-0.639c-0.108-0.258-0.162-0.549-0.162-0.873c0-0.78,0.336-1.395,1.008-1.845
		c0.672-0.45,1.518-0.675,2.538-0.675c1.428,0,2.574,0.486,3.438,1.458l-1.386,1.134c-0.66-0.552-1.368-0.828-2.124-0.828
		c-0.468,0-0.843,0.069-1.125,0.207s-0.423,0.333-0.423,0.585c0,0.12,0.048,0.237,0.144,0.351c0.097,0.114,0.265,0.234,0.505,0.36
		c0.239,0.126,0.438,0.222,0.594,0.288c0.155,0.066,0.42,0.171,0.792,0.315c1.104,0.444,1.836,0.804,2.196,1.08
		c0.636,0.504,0.96,1.158,0.972,1.962c0,0.852-0.321,1.518-0.963,1.998C898.475,347.596,897.608,347.836,896.516,347.836z"/>
	<path d="M909.729,336.64c-0.443,0-0.81,0.078-1.098,0.234c-0.288,0.156-0.432,0.384-0.432,0.684v0.864h3.096v1.818h-3.096v5.562
		h2.447v1.818h-6.498v-1.818h1.98v-5.562h-1.98v-1.818h1.98v-1.26c0-0.864,0.309-1.473,0.927-1.827
		c0.618-0.354,1.359-0.531,2.224-0.531c0.875,0,1.607,0.15,2.195,0.45v1.71C910.959,336.748,910.377,336.64,909.729,336.64z"/>
	<path d="M922.833,342.562c0,0.528-0.024,0.948-0.072,1.26h-6.264c0.132,0.672,0.398,1.203,0.801,1.593
		c0.401,0.39,0.921,0.585,1.557,0.585c0.804,0,1.482-0.3,2.034-0.9l1.242,1.314c-0.864,0.948-1.962,1.422-3.294,1.422
		c-1.356,0-2.428-0.438-3.213-1.314c-0.786-0.875-1.18-2.046-1.18-3.51c0-1.488,0.396-2.661,1.188-3.519s1.859-1.287,3.204-1.287
		c1.176,0,2.136,0.369,2.88,1.107C922.461,340.051,922.833,341.134,922.833,342.562z M916.479,342.058h4.32
		c-0.061-0.672-0.273-1.179-0.639-1.521c-0.366-0.342-0.808-0.513-1.323-0.513c-0.66,0-1.191,0.18-1.593,0.54
		C916.842,340.924,916.587,341.422,916.479,342.058z"/>
	<path d="M932.121,338.206c0.827,0,1.548,0.162,2.159,0.486v3.402h-2.016v-1.962h-0.18c-0.948,0-1.681,0.222-2.196,0.666
		c-0.517,0.444-0.774,1.11-0.774,1.998v3.006h2.574v1.818h-6.588v-1.818h1.944v-5.562h-1.944v-1.818h3.87v1.476
		c0.252-0.528,0.666-0.942,1.242-1.242S931.425,338.206,932.121,338.206z"/>
	<path d="M824.391,369.436c-1.356,0-2.43-0.429-3.222-1.287s-1.188-2.031-1.188-3.519c0-1.476,0.396-2.649,1.188-3.519
		s1.865-1.305,3.222-1.305c1.368,0,2.445,0.435,3.231,1.305c0.785,0.87,1.179,2.043,1.179,3.519s-0.394,2.646-1.179,3.51
		C826.836,369.004,825.759,369.436,824.391,369.436z M824.391,367.456c0.744,0,1.316-0.252,1.719-0.756s0.604-1.194,0.604-2.07
		s-0.201-1.572-0.604-2.088c-0.402-0.516-0.975-0.774-1.719-0.774c-0.732,0-1.302,0.258-1.71,0.774
		c-0.408,0.516-0.612,1.212-0.612,2.088c0,0.864,0.204,1.551,0.612,2.061C823.089,367.201,823.658,367.456,824.391,367.456z"/>
	<path d="M832.563,369.22l-2.358-9.198h1.872l1.17,4.734c0.084,0.36,0.145,0.66,0.181,0.9c0.072-0.432,0.126-0.738,0.162-0.918
		l1.098-4.716h1.584l1.098,4.734c0.061,0.192,0.12,0.498,0.181,0.918c0.036-0.252,0.096-0.558,0.18-0.918l1.134-4.734h1.891
		l-2.376,9.198h-1.584l-1.062-4.608c-0.072-0.288-0.156-0.708-0.252-1.26c-0.024,0.156-0.075,0.399-0.153,0.729
		c-0.078,0.331-0.123,0.507-0.135,0.531l-1.008,4.608H832.563z"/>
	<path d="M847.215,359.806c1.008,0,1.826,0.303,2.457,0.909c0.63,0.606,0.944,1.569,0.944,2.889v5.616h-2.069v-5.184
		c0-0.792-0.175-1.368-0.522-1.728c-0.348-0.36-0.81-0.54-1.386-0.54c-1.356,0-2.034,0.744-2.034,2.232v5.22h-2.07v-9.198h1.908
		v1.134c0.18-0.36,0.531-0.675,1.053-0.945C846.018,359.941,846.591,359.806,847.215,359.806z"/>
	<path d="M861.849,364.162c0,0.528-0.024,0.948-0.072,1.26h-6.264c0.132,0.672,0.398,1.203,0.801,1.593
		c0.401,0.39,0.921,0.585,1.557,0.585c0.804,0,1.482-0.3,2.034-0.9l1.242,1.314c-0.864,0.948-1.962,1.422-3.294,1.422
		c-1.356,0-2.428-0.438-3.213-1.314c-0.786-0.875-1.18-2.046-1.18-3.51c0-1.488,0.396-2.661,1.188-3.519s1.859-1.287,3.204-1.287
		c1.176,0,2.136,0.369,2.88,1.107C861.477,361.651,861.849,362.734,861.849,364.162z M855.494,363.658h4.32
		c-0.061-0.672-0.273-1.179-0.639-1.521c-0.366-0.342-0.808-0.513-1.323-0.513c-0.66,0-1.191,0.18-1.593,0.54
		C855.858,362.524,855.603,363.022,855.494,363.658z"/>
	<path d="M871.137,359.806c0.827,0,1.548,0.162,2.159,0.486v3.402h-2.016v-1.962h-0.18c-0.948,0-1.681,0.222-2.196,0.666
		c-0.517,0.444-0.774,1.11-0.774,1.998v3.006h2.574v1.818h-6.588v-1.818h1.944v-5.562h-1.944v-1.818h3.87v1.476
		c0.252-0.528,0.666-0.942,1.242-1.242S870.441,359.806,871.137,359.806z"/>
	<path d="M879.884,369.436c-0.78,0-1.5-0.147-2.159-0.441c-0.66-0.294-1.188-0.693-1.585-1.197l1.351-1.224
		c0.756,0.732,1.59,1.098,2.502,1.098c0.443,0,0.81-0.078,1.098-0.234c0.288-0.156,0.433-0.39,0.433-0.702
		c0-0.18-0.088-0.351-0.262-0.513s-0.375-0.297-0.603-0.405c-0.229-0.108-0.564-0.252-1.008-0.432
		c-0.049-0.024-0.088-0.042-0.117-0.054c-0.03-0.012-0.069-0.027-0.117-0.045s-0.09-0.033-0.126-0.045
		c-0.444-0.192-0.773-0.339-0.99-0.441c-0.216-0.102-0.477-0.246-0.782-0.432c-0.307-0.186-0.528-0.363-0.666-0.531
		c-0.139-0.168-0.262-0.381-0.369-0.639c-0.108-0.258-0.162-0.549-0.162-0.873c0-0.78,0.336-1.395,1.008-1.845
		c0.672-0.45,1.518-0.675,2.538-0.675c1.428,0,2.574,0.486,3.438,1.458l-1.386,1.134c-0.66-0.552-1.368-0.828-2.124-0.828
		c-0.468,0-0.843,0.069-1.125,0.207s-0.423,0.333-0.423,0.585c0,0.12,0.048,0.237,0.144,0.351c0.097,0.114,0.265,0.234,0.505,0.36
		c0.239,0.126,0.438,0.222,0.594,0.288c0.155,0.066,0.42,0.171,0.792,0.315c1.104,0.444,1.836,0.804,2.196,1.08
		c0.636,0.504,0.96,1.158,0.972,1.962c0,0.852-0.321,1.518-0.963,1.998C881.843,369.196,880.976,369.436,879.884,369.436z"/>
	<path d="M886.886,369.22v-12.042l2.07-0.954v4.698c0.6-0.744,1.47-1.116,2.61-1.116c1.008,0,1.826,0.303,2.457,0.909
		c0.63,0.606,0.944,1.569,0.944,2.889v5.616h-2.069v-5.184c0-0.792-0.178-1.368-0.531-1.728c-0.354-0.36-0.813-0.54-1.377-0.54
		c-0.601,0-1.089,0.174-1.467,0.522c-0.378,0.348-0.567,0.918-0.567,1.71v5.22H886.886z"/>
	<path d="M903.122,367.402h2.538v1.818h-7.146v-1.818h2.538v-5.562h-2.538v-1.818h4.608V367.402z M902.078,358.744
		c-0.336,0-0.624-0.12-0.864-0.36c-0.24-0.24-0.36-0.534-0.36-0.882s0.12-0.639,0.36-0.873c0.24-0.234,0.528-0.351,0.864-0.351
		c0.348,0,0.642,0.117,0.882,0.351c0.24,0.234,0.36,0.525,0.36,0.873s-0.12,0.642-0.36,0.882
		C902.72,358.624,902.426,358.744,902.078,358.744z"/>
	<path d="M909.135,372.838v-12.816h2.07v0.702c0.563-0.612,1.313-0.918,2.25-0.918c1.235,0,2.217,0.426,2.942,1.278
		c0.727,0.853,1.089,2.034,1.089,3.546c0,1.476-0.375,2.646-1.125,3.51c-0.75,0.864-1.713,1.296-2.889,1.296
		c-0.96,0-1.716-0.318-2.268-0.954v3.402L909.135,372.838z M913.167,367.456c0.708,0,1.257-0.243,1.646-0.729
		c0.39-0.486,0.585-1.185,0.585-2.097c0-0.876-0.195-1.572-0.585-2.088c-0.39-0.516-0.944-0.774-1.665-0.774
		c-0.863,0-1.512,0.306-1.943,0.918v3.852C911.637,367.15,912.291,367.456,913.167,367.456z"/>
</g>
</svg>
