<?xml version="1.0" encoding="utf-8"?>
<!-- Generator: Adobe Illustrator 17.0.0, SVG Export Plug-In . SVG Version: 6.00 Build 0)  -->
<!DOCTYPE svg PUBLIC "-//W3C//DTD SVG 1.1//EN" "http://www.w3.org/Graphics/SVG/1.1/DTD/svg11.dtd">
<svg version="1.1" id="Layer_1" xmlns="http://www.w3.org/2000/svg" xmlns:xlink="http://www.w3.org/1999/xlink" x="0px" y="0px"
	 width="875px" height="555px" viewBox="-18 21.5 875 555" enable-background="new -18 21.5 875 555" xml:space="preserve">
<title>001</title>
<desc>Created with Sketch.</desc>
<g id="Page-1">
	<g id="_x30_01" transform="translate(0.000000, -5.000000)">
		
			<polyline id="Line" fill="#FFFFFF" stroke="#AAB1B5" stroke-linecap="round" stroke-linejoin="round" stroke-dasharray="6,12" points="
			777.924,159.128 777.924,61.51 62.245,61.575 62.224,154.256 		"/>
		<path id="Line-5" fill="none" stroke="#AAB1B5" stroke-linecap="round" stroke-linejoin="round" d="M251.352,495.632h65.532"/>
		<path id="Line-5_1_" fill="none" stroke="#AAB1B5" stroke-linecap="round" stroke-linejoin="round" d="M63,338.022v190.798"/>
		<path id="Line-5_2_" fill="none" stroke="#AAB1B5" stroke-linecap="round" stroke-linejoin="round" d="M251,464v64.471"/>
		<path id="Line-5_3_" fill="none" stroke="#AAB1B5" stroke-linecap="round" stroke-linejoin="round" d="M250.973,528.938H63.224"/>
		<path id="Line-5_4_" fill="none" stroke="#AAB1B5" stroke-linecap="round" stroke-linejoin="round" d="M251.073,464H63"/>
		<path id="Line-5_5_" fill="none" stroke="#AAB1B5" stroke-linecap="round" stroke-linejoin="round" d="M312.513,399H63"/>
		<path id="Line-3" fill="none" stroke="#AAB1B5" stroke-linecap="round" stroke-linejoin="round" d="M419.728,348.875V277"/>
		<g id="Arrow-head" transform="translate(50.672000, 140.976000)">
			<path id="Line-4" fill="none" stroke="#AAB1B5" stroke-linecap="round" stroke-linejoin="round" d="M11.552,14.401L22.881,1.184"
				/>
			<path id="Line-4_1_" fill="none" stroke="#AAB1B5" stroke-linecap="round" stroke-linejoin="round" d="M11.552,14.144
				L0.223,0.927"/>
		</g>
		
			<g id="Arrow-head_1_" transform="translate(307.500000, 399.500000) rotate(-90.000000) translate(-307.500000, -399.500000) translate(296.000000, 392.000000)">
			<path id="Line-4_2_" fill="none" stroke="#AAB1B5" stroke-linecap="round" stroke-linejoin="round" d="M11.552,14.401
				L22.881,1.184"/>
			<path id="Line-4_3_" fill="none" stroke="#AAB1B5" stroke-linecap="round" stroke-linejoin="round" d="M11.552,14.144
				L0.223,0.927"/>
		</g>
		<g id="Blockchain_1_" transform="translate(206.000000, 227.000000)">
			<polygon id="Shape" fill="#F7F7F7" stroke="#2C2F31" stroke-linecap="round" stroke-linejoin="round" points="0,0 428,0 428,50 
				0,49.865 			"/>
			<g id="Group" transform="translate(165.000000, 16.000000)">
				<text transform="matrix(1 0 0 1 0.22 15)" fill="#2C2F31" font-family="'Helvetica'" font-size="16">Blockchain</text>
			</g>
		</g>
		
			<rect id="_x32_" x="316" y="349" fill="none" stroke="#2C2F31" stroke-linecap="round" stroke-linejoin="round" width="207.36" height="207.36"/>
		<g id="Payload-_x2B_-Xcert-Addr" transform="translate(272.000000, 0.000000)">
			<text transform="matrix(1 0 0 1 35 112.3188)" fill="#2C2F31" font-family="'Helvetica'" font-size="20.74">Recipe + Xcert Address</text>
		</g>
		<g id="Sceptic" transform="translate(28.000000, 298.000000)">
			<text transform="matrix(1 0 0 1 0.004 15)" fill="#2C2F31" font-family="'Helvetica'" font-size="16">Sceptic</text>
		</g>
		<g id="Group_2_" transform="translate(715.000000, 171.000000)">
			<g id="Mask">
				<circle id="path-1" fill="#F7F7F7" cx="60" cy="60" r="60"/>
			</g>
			<g id="Clipped">
				<g id="path-1_2_">
				</g>
				<defs>
					<filter id="Adobe_OpacityMaskFilter" filterUnits="userSpaceOnUse" x="18.436" y="7.716" width="83.429" height="123.034">
						<feColorMatrix  type="matrix" values="1 0 0 0 0  0 1 0 0 0  0 0 1 0 0  0 0 0 1 0"/>
					</filter>
				</defs>
				<mask maskUnits="userSpaceOnUse" x="18.436" y="7.716" width="83.429" height="123.034" id="mask-2">
					<g filter="url(#Adobe_OpacityMaskFilter)">
						<circle id="path-1_1_" fill="#FFFFFF" cx="60" cy="60" r="60"/>
					</g>
				</mask>
				<g id="Group_1_" mask="url(#mask-2)">
					<g transform="translate(19.000000, 8.000000)">
						<g transform="translate(0.285714, 0.571429)">
							<path id="Shape_1_" fill="none" stroke="#2C2F31" stroke-width="2" stroke-linecap="round" stroke-linejoin="round" d="
								M55.018,66.429c-1.586,3.568,0.761,6.429,2.904,7.875c-2.25,4.811-9.557,8.925-17.057,8.925s-15.504-4.146-17.057-8.925
								c2.143-1.243,4.521-4.286,2.871-7.875H55.018z"/>
							<path id="Shape_2_" fill="#FFFFFF" stroke="#2C2F31" stroke-width="2" stroke-linecap="round" stroke-linejoin="round" d="
								M43.2,72.954h-4.629c-4.019-0.004-7.873-1.604-10.714-4.446l-3.536-3.461c-5.188-5.189-8.101-12.227-8.1-19.564V27.268
								c0-24.439,49.286-24.439,49.286,0v18.214c0.001,7.338-2.912,14.375-8.1,19.564l-3.471,3.471
								C51.087,71.362,47.225,72.958,43.2,72.954z"/>
							<path id="Shape_3_" fill="none" stroke="#2C2F31" stroke-width="2" stroke-linecap="round" stroke-linejoin="round" d="
								M16.221,48.011v-9.643c0-3.214-2.389-4.286-3.857-3.214c-2.346,1.639,0.643,8.571,0.643,8.571
								C11.271,44.839,13.232,48.793,16.221,48.011z"/>
							<path id="Shape_4_" fill="none" stroke="#2C2F31" stroke-width="2" stroke-linecap="round" stroke-linejoin="round" d="
								M65.507,47.625v-9.643c0-3.214,2.379-4.286,3.857-3.214c2.346,1.639-0.643,8.571-0.643,8.571
								C70.468,44.454,68.496,48.418,65.507,47.625z"/>
							<path id="Shape_5_" fill="#FFFFFF" stroke="#2C2F31" stroke-width="2" stroke-linecap="round" stroke-linejoin="round" d="
								M53.443,2.068c8.261,3.504,19.286,13.286,14.764,27.718c-0.664,2.143-1.629,1.393-2.7,1.2c0,0-0.171-8.421-4.286-7.554
								c-9.793,2.057-14.614-5.818-26.507,2.818c-1.65-2.711-0.514-8.871,3.675-12.107c-9.804,0-22.168,6.011-22.168,13.232
								c0,0-3.279-2.421-3.546-4.811C11.443,11.786,16.976,6.299,26.641,2.186C34.512-1.164,49.039,0.204,53.443,2.068z"/>
							
								<circle id="Oval" fill="none" stroke="#2C2F31" stroke-width="2" stroke-linecap="round" stroke-linejoin="round" cx="53.186" cy="41.346" r="1.607"/>
							
								<circle id="Oval_1_" fill="none" stroke="#2C2F31" stroke-width="2" stroke-linecap="round" stroke-linejoin="round" cx="28.564" cy="41.346" r="1.607"/>
							<path id="Shape_6_" fill="#E8F7FC" stroke="#2C2F31" stroke-width="2" stroke-linecap="round" stroke-linejoin="round" d="
								M65.089,77.143c0,0-7.232-2.871-6.954-2.711c-2.271,4.854-9.921,9.032-17.271,9.032s-15.6-4.179-17.293-8.979l-6.654,2.764
								C6.807,81.371,0.185,91.189,0.15,102.107v19.071h81.429v-19.286C81.55,91.08,75.057,81.334,65.089,77.143z"/>
							<path id="Line_1_" fill="none" stroke="#2C2F31" stroke-width="2" stroke-linecap="round" stroke-linejoin="round" d="
								M18.75,120.536V101.22"/>
							<path id="Line_2_" fill="none" stroke="#2C2F31" stroke-width="2" stroke-linecap="round" stroke-linejoin="round" d="
								M62.679,120.536V101.22"/>
							<path id="Stroke-9" fill="none" stroke="#2C2F31" stroke-width="2" stroke-linecap="round" stroke-linejoin="round" d="
								M47.551,56.786c0,0-2.971,3.316-6.633,3.316c-3.661,0-6.633-3.316-6.633-3.316"/>
						</g>
					</g>
				</g>
			</g>
		</g>
		<g id="Group_5_" transform="translate(0.000000, 171.000000)">
			<g id="Mask_1_">
				<circle id="path-3" fill="#F7F7F7" cx="60" cy="60" r="60"/>
			</g>
			<g id="Clipped_1_">
				<g id="path-3_2_">
				</g>
				<defs>
					<filter id="Adobe_OpacityMaskFilter_1_" filterUnits="userSpaceOnUse" x="18.436" y="7.716" width="83.429" height="123.034">
						<feColorMatrix  type="matrix" values="1 0 0 0 0  0 1 0 0 0  0 0 1 0 0  0 0 0 1 0"/>
					</filter>
				</defs>
				<mask maskUnits="userSpaceOnUse" x="18.436" y="7.716" width="83.429" height="123.034" id="mask-4">
					<g filter="url(#Adobe_OpacityMaskFilter_1_)">
						<circle id="path-3_1_" fill="#FFFFFF" cx="60" cy="60" r="60"/>
					</g>
				</mask>
				<g id="Group_4_" mask="url(#mask-4)">
					<g transform="translate(19.285714, 8.571429)">
						<path id="Shape_7_" fill="none" stroke="#2C2F31" stroke-width="2" d="M55.018,66.429c-1.586,3.568,0.761,6.429,2.904,7.875
							c-2.25,4.811-9.557,8.925-17.057,8.925s-15.504-4.146-17.057-8.925c2.143-1.243,4.521-4.286,2.871-7.875H55.018z"/>
						<path id="Shape_8_" fill="#FFFFFF" stroke="#2C2F31" stroke-width="2" d="M43.2,72.954h-4.629
							c-4.019-0.004-7.873-1.604-10.714-4.446l-3.536-3.461c-5.188-5.189-8.101-12.227-8.1-19.564V27.268
							c0-24.439,49.286-24.439,49.286,0v18.214c0.001,7.338-2.912,14.375-8.1,19.564l-3.471,3.471
							C51.087,71.362,47.225,72.958,43.2,72.954z"/>
						<path id="Shape_9_" fill="none" stroke="#2C2F31" stroke-width="2" d="M16.221,48.011v-9.643c0-3.214-2.389-4.286-3.857-3.214
							c-2.346,1.639,0.643,8.571,0.643,8.571C11.271,44.839,13.232,48.793,16.221,48.011z"/>
						<path id="Shape_10_" fill="none" stroke="#2C2F31" stroke-width="2" d="M65.507,47.625v-9.643
							c0-3.214,2.379-4.286,3.857-3.214c2.346,1.639-0.643,8.571-0.643,8.571C70.468,44.454,68.496,48.418,65.507,47.625z"/>
						<path id="Shape_11_" fill="#FFFFFF" stroke="#2C2F31" stroke-width="2" d="M53.443,2.068
							c8.261,3.504,19.286,13.286,14.764,27.718c-0.664,2.143-1.629,1.393-2.7,1.2c0,0-0.171-8.421-4.286-7.554
							c-9.793,2.057-14.614-5.818-26.507,2.818c-1.65-2.711-0.514-8.871,3.675-12.107c-9.804,0-22.168,6.011-22.168,13.232
							c0,0-3.279-2.421-3.546-4.811C11.443,11.786,16.976,6.299,26.641,2.186C34.512-1.164,49.039,0.204,53.443,2.068z"/>
						<path id="Shape_12_" fill="#FEE4E2" stroke="#2C2F31" stroke-width="2" d="M65.089,77.143c0,0-7.232-2.871-6.954-2.711
							c-2.271,4.854-9.921,9.032-17.271,9.032s-15.6-4.179-17.293-8.979l-6.654,2.764C6.807,81.371,0.185,91.189,0.15,102.107
							v19.071h81.429v-19.286C81.55,91.08,75.057,81.334,65.089,77.143z"/>
						<path id="Line_3_" fill="none" stroke="#2C2F31" stroke-width="2" d="M18.75,120.536V101.22"/>
						<path id="Line_4_" fill="none" stroke="#2C2F31" stroke-width="2" d="M62.679,120.536V101.22"/>
						<g id="Group_3_" transform="translate(30.560440, 38.505495)">
							<path id="Line_5_" fill="none" stroke="#2C2F31" stroke-width="2" d="M0.923,0.198v5.203"/>
							<path id="Line-Copy" fill="none" stroke="#2C2F31" stroke-width="2" d="M20.308,0.198v5.203"/>
							<path id="Line-2" fill="none" stroke="#2C2F31" stroke-width="2" d="M4.154,18.923l13.385-3.231"/>
						</g>
					</g>
				</g>
			</g>
		</g>
		<g id="Holder" transform="translate(748.000000, 301.000000)">
			<text transform="matrix(1 0 0 1 0.432 15)" fill="#2C2F31" font-family="'Helvetica'" font-size="16">Holder</text>
		</g>
		<g id="check" transform="translate(138.000000, 448.000000)">
			<circle id="Oval_2_" fill="#FFFFFF" stroke="#AAB1B5" stroke-linejoin="round" cx="15.72" cy="15.664" r="15.552"/>
			<polyline id="Line-6" fill="none" stroke="#0971FF" stroke-width="1.728" points="10.536,16.841 14.405,20.572 20.904,12.208 			
				"/>
		</g>
		<g id="x" transform="translate(138.000000, 512.000000)">
			<circle id="Oval_3_" fill="#FFFFFF" stroke="#AAB1B5" stroke-linejoin="round" cx="15.72" cy="15.6" r="15.552"/>
			<g id="Line-6_1_" transform="translate(10.536000, 10.416000)">
				<path id="Shape_13_" fill="none" stroke="#F67069" stroke-width="1.728" d="M0,10.368L10.368,0"/>
				<path id="Shape_14_" fill="none" stroke="#F67069" stroke-width="1.728" stroke-linejoin="round" d="M10.368,10.368L0,0
					L10.368,10.368z"/>
			</g>
		</g>
		<g id="Step1" transform="translate(400.000000, 42.000000)">
			<circle id="Oval_4_" fill="#FFF9B4" cx="18.749" cy="18.749" r="18.749"/>
			<g id="_x31_" transform="translate(14.000000, 9.000000)">
				<text transform="matrix(1 0 0 1 0.2781 14.6768)" fill="#7D8285" font-family="'Helvetica'" font-size="14.5152">1</text>
			</g>
		</g>
		<g id="Step2" transform="translate(44.000000, 347.000000)">
			<circle id="Oval_5_" fill="#FFF9B4" cx="18.749" cy="18.749" r="18.749"/>
			<g id="_x32__1_" transform="translate(14.000000, 10.000000)">
				<text transform="matrix(1 0 0 1 0.0293 14)" fill="#7D8285" font-family="'Helvetica'" font-size="14.5152">2</text>
			</g>
		</g>
		<g id="or_1_" transform="translate(240.000000, 481.000000)">
			
				<circle id="Oval_6_" fill="#F7F7F7" stroke="#AAB1B5" stroke-linecap="round" stroke-linejoin="round" cx="11.352" cy="14.632" r="11.232"/>
			<g id="Group_6_" transform="translate(5.000000, 0.000000)">
				<text transform="matrix(1 0 0 1 0.304 10.944)" fill="#2C2F31" font-family="'Helvetica'" font-size="10.368">or</text>
			</g>
		</g>
		<g id="Graphic" transform="translate(361.000000, 400.000000)">
			<path id="Path-6-Copy-2" fill="none" stroke="#2C2F31" stroke-linecap="round" stroke-linejoin="round" d="M1.173,53.884
				l50.471,29.328c5.337,3.101,11.924,3.12,17.279,0.049l51.055-29.28c0.828-0.475,1.114-1.531,0.639-2.359
				c-0.153-0.267-0.376-0.489-0.643-0.642L68.564,21.685c-5.348-3.048-11.914-3.02-17.236,0.072L1.173,50.896
				c-0.825,0.479-1.105,1.537-0.626,2.362C0.698,53.517,0.913,53.733,1.173,53.884z"/>
			<path id="Shape_15_" fill="#EBF5F7" d="M83.545,34.502c0.337,0.168,1.01,0.168,1.346,0s0.337-0.505,0-0.841
				c-0.337-0.168-1.01-0.168-1.346,0S83.208,34.166,83.545,34.502z M86.573,36.017c0.337,0.168,1.01,0.168,1.346,0
				c0.337-0.168,0.337-0.505,0-0.841c-0.337-0.168-1.01-0.168-1.346,0C86.069,35.512,86.069,35.848,86.573,36.017z M80.684,32.82
				c0.337,0.168,1.01,0.168,1.346,0s0.337-0.505,0-0.841c-0.337-0.168-1.01-0.168-1.346,0C80.348,32.147,80.348,32.483,80.684,32.82
				z M92.295,39.382c0.337,0.168,1.01,0.168,1.346,0c0.337-0.168,0.337-0.505,0-0.841c-0.337-0.168-1.01-0.168-1.346,0
				C91.958,38.877,91.958,39.214,92.295,39.382z M95.155,41.065c0.337,0.168,1.01,0.168,1.346,0s0.337-0.505,0-0.841
				c-0.337-0.168-1.01-0.168-1.346,0C94.819,40.56,94.819,40.897,95.155,41.065z M89.434,37.699c0.337,0.168,1.01,0.168,1.346,0
				c0.337-0.168,0.337-0.505,0-0.841c-0.337-0.168-1.01-0.168-1.346,0C89.097,37.195,89.097,37.531,89.434,37.699z M77.824,31.137
				c0.337,0.168,1.01,0.168,1.346,0c0.337-0.168,0.337-0.505,0-0.841c-0.337-0.168-1.01-0.168-1.346,0
				C77.487,30.464,77.487,30.8,77.824,31.137z M63.353,22.724c0.337,0.168,1.01,0.168,1.346,0c0.337-0.168,0.337-0.505,0-0.841
				c-0.337-0.168-1.01-0.168-1.346,0C62.848,22.051,62.848,22.387,63.353,22.724z M74.963,29.454c0.337,0.168,1.01,0.168,1.346,0
				c0.337-0.168,0.337-0.505,0-0.841c-0.337-0.168-1.01-0.168-1.346,0C74.458,28.781,74.458,29.118,74.963,29.454z M60.492,21.041
				c0.337,0.168,1.01,0.168,1.346,0c0.337-0.168,0.337-0.505,0-0.841c-0.337-0.168-1.01-0.168-1.346,0
				C59.987,20.368,59.987,20.873,60.492,21.041z M66.213,24.406c0.337,0.168,1.01,0.168,1.346,0c0.337-0.168,0.337-0.505,0-0.841
				c-0.337-0.168-1.01-0.168-1.346,0C65.877,23.733,65.877,24.07,66.213,24.406z M71.934,27.772c0.337,0.168,1.01,0.168,1.346,0
				s0.337-0.505,0-0.841c-0.337-0.168-1.01-0.168-1.346,0C71.598,27.099,71.598,27.435,71.934,27.772z M69.074,26.089
				c0.337,0.168,1.01,0.168,1.346,0c0.337-0.168,0.337-0.505,0-0.841c-0.337-0.168-1.01-0.168-1.346,0
				C68.737,25.416,68.737,25.752,69.074,26.089z M101.044,44.43c0.337,0.168,1.01,0.168,1.346,0s0.337-0.505,0-0.841
				c-0.337-0.168-1.01-0.168-1.346,0C100.708,43.925,100.708,44.262,101.044,44.43z M112.655,51.161c0.337,0.168,1.01,0.168,1.346,0
				c0.337-0.168,0.337-0.505,0-0.841c-0.337-0.168-1.01-0.168-1.346,0C112.318,50.656,112.318,50.993,112.655,51.161z
				 M106.765,47.795c0.337,0.168,1.01,0.168,1.346,0c0.337-0.168,0.337-0.505,0-0.841c-0.337-0.168-1.01-0.168-1.346,0
				C106.429,47.291,106.429,47.627,106.765,47.795z M109.794,49.478c0.337,0.168,1.01,0.168,1.346,0
				c0.337-0.168,0.337-0.505,0-0.841c-0.337-0.168-1.01-0.168-1.346,0C109.289,48.973,109.289,49.31,109.794,49.478z
				 M103.905,46.113c0.337,0.168,1.01,0.168,1.346,0c0.337-0.168,0.337-0.505,0-0.841c-0.337-0.168-1.01-0.168-1.346,0
				C103.568,45.608,103.568,45.945,103.905,46.113z M98.184,42.747c0.337,0.168,1.01,0.168,1.346,0s0.337-0.505,0-0.841
				c-0.337-0.168-1.01-0.168-1.346,0C97.679,42.243,97.679,42.579,98.184,42.747z M69.074,29.454c0.337,0.168,1.01,0.168,1.346,0
				c0.337-0.168,0.337-0.505,0-0.841c-0.337-0.168-1.01-0.168-1.346,0S68.737,29.118,69.074,29.454z M109.794,52.843
				c0.337,0.168,1.01,0.168,1.346,0c0.337-0.168,0.337-0.505,0-0.841c-0.337-0.168-1.01-0.168-1.346,0
				C109.289,52.339,109.289,52.675,109.794,52.843z M66.213,27.772c0.337,0.168,1.01,0.168,1.346,0c0.337-0.168,0.337-0.505,0-0.841
				c-0.337-0.168-1.01-0.168-1.346,0C65.877,27.099,65.877,27.435,66.213,27.772z M95.155,44.43c0.337,0.168,1.01,0.168,1.346,0
				s0.337-0.505,0-0.841c-0.337-0.168-1.01-0.168-1.346,0C94.819,43.925,94.819,44.262,95.155,44.43z M112.655,54.526
				c0.337,0.168,1.01,0.168,1.346,0c0.337-0.168,0.337-0.505,0-0.841c-0.337-0.168-1.01-0.168-1.346,0
				C112.318,54.021,112.318,54.358,112.655,54.526z M72.102,31.137c0.337,0.168,1.01,0.168,1.346,0c0.337-0.168,0.337-0.505,0-0.841
				c-0.337-0.168-1.01-0.168-1.346,0C71.598,30.464,71.598,30.8,72.102,31.137z M60.492,24.406c0.337,0.168,1.01,0.168,1.346,0
				c0.337-0.168,0.337-0.505,0-0.841c-0.337-0.168-1.01-0.168-1.346,0C59.987,23.733,59.987,24.07,60.492,24.406z M63.353,26.089
				c0.337,0.168,1.01,0.168,1.346,0c0.337-0.168,0.337-0.505,0-0.841c-0.337-0.168-1.01-0.168-1.346,0
				C63.016,25.416,63.016,25.752,63.353,26.089z M57.463,22.724c0.337,0.168,1.01,0.168,1.346,0c0.337-0.168,0.337-0.505,0-0.841
				c-0.337-0.168-1.01-0.168-1.346,0C57.127,22.051,57.127,22.387,57.463,22.724z M83.713,37.699c0.337,0.168,1.01,0.168,1.346,0
				s0.337-0.505,0-0.841c-0.337-0.168-1.01-0.168-1.346,0C83.208,37.195,83.208,37.531,83.713,37.699z M89.434,41.065
				c0.337,0.168,1.01,0.168,1.346,0c0.337-0.168,0.337-0.505,0-0.841c-0.337-0.168-1.01-0.168-1.346,0
				C89.097,40.56,89.097,40.897,89.434,41.065z M86.573,39.382c0.337,0.168,1.01,0.168,1.346,0s0.337-0.505,0-0.841
				c-0.337-0.168-1.01-0.168-1.346,0C86.237,38.877,86.237,39.214,86.573,39.382z M98.184,46.113c0.337,0.168,1.01,0.168,1.346,0
				s0.337-0.505,0-0.841c-0.337-0.168-1.01-0.168-1.346,0C97.679,45.608,97.679,45.945,98.184,46.113z M106.765,51.161
				c0.337,0.168,1.01,0.168,1.346,0c0.337-0.168,0.337-0.505,0-0.841c-0.337-0.168-1.01-0.168-1.346,0
				C106.429,50.656,106.429,50.993,106.765,51.161z M92.295,42.747c0.337,0.168,1.01,0.168,1.346,0c0.337-0.168,0.337-0.505,0-0.841
				c-0.337-0.168-1.01-0.168-1.346,0C91.958,42.243,91.958,42.579,92.295,42.747z M101.044,47.795c0.337,0.168,1.01,0.168,1.346,0
				s0.337-0.505,0-0.841c-0.337-0.168-1.01-0.168-1.346,0C100.708,47.291,100.708,47.627,101.044,47.795z M77.824,34.334
				c0.337,0.168,1.01,0.168,1.346,0c0.337-0.168,0.337-0.505,0-0.841c-0.337-0.168-1.01-0.168-1.346,0
				C77.487,33.829,77.487,34.166,77.824,34.334z M103.905,49.478c0.337,0.168,1.01,0.168,1.346,0c0.337-0.168,0.337-0.505,0-0.841
				c-0.337-0.168-1.01-0.168-1.346,0C103.568,48.973,103.568,49.31,103.905,49.478z M74.963,32.651c0.337,0.168,1.01,0.168,1.346,0
				c0.337-0.168,0.337-0.505,0-0.841c-0.337-0.168-1.01-0.168-1.346,0C74.626,32.147,74.626,32.483,74.963,32.651z M80.684,36.017
				c0.337,0.168,1.01,0.168,1.346,0c0.337-0.168,0.337-0.505,0-0.841c-0.337-0.168-1.01-0.168-1.346,0
				C80.348,35.512,80.348,35.848,80.684,36.017z M96.669,46.954c-0.337-0.168-1.01-0.168-1.346,0c-0.337,0.168-0.337,0.505,0,0.841
				c0.337,0.168,1.01,0.168,1.346,0C97.006,47.627,97.006,47.291,96.669,46.954z M79.17,37.026c-0.337-0.168-1.01-0.168-1.346,0
				c-0.337,0.168-0.337,0.505,0,0.841c0.337,0.168,1.01,0.168,1.346,0C79.674,37.531,79.674,37.195,79.17,37.026z M85.059,40.392
				c-0.337-0.168-1.01-0.168-1.346,0c-0.337,0.168-0.337,0.505,0,0.841c0.337,0.168,1.01,0.168,1.346,0
				C85.396,40.897,85.396,40.56,85.059,40.392z M73.449,33.661c-0.337-0.168-1.01-0.168-1.346,0s-0.337,0.505,0,0.841
				c0.337,0.168,1.01,0.168,1.346,0C73.785,34.166,73.785,33.829,73.449,33.661z M93.641,45.271c-0.337-0.168-1.01-0.168-1.346,0
				c-0.337,0.168-0.337,0.505,0,0.841c0.337,0.168,1.01,0.168,1.346,0C94.145,45.945,94.145,45.608,93.641,45.271z M87.92,42.074
				c-0.337-0.168-1.01-0.168-1.346,0s-0.337,0.505,0,0.841c0.337,0.168,1.01,0.168,1.346,0
				C88.256,42.579,88.256,42.243,87.92,42.074z M90.78,43.757c-0.337-0.168-1.01-0.168-1.346,0s-0.337,0.505,0,0.841
				c0.337,0.168,1.01,0.168,1.346,0C91.117,44.262,91.117,43.925,90.78,43.757z M76.309,35.344c-0.337-0.168-1.01-0.168-1.346,0
				s-0.337,0.505,0,0.841c0.337,0.168,1.01,0.168,1.346,0C76.646,35.848,76.646,35.512,76.309,35.344z M58.978,25.248
				c-0.337-0.168-1.01-0.168-1.346,0c-0.337,0.168-0.337,0.505,0,0.841c0.337,0.168,1.01,0.168,1.346,0
				C59.314,25.752,59.314,25.416,58.978,25.248z M55.949,23.565c-0.337-0.168-1.01-0.168-1.346,0c-0.337,0.168-0.337,0.505,0,0.841
				c0.337,0.168,1.01,0.168,1.346,0C56.454,24.07,56.454,23.733,55.949,23.565z M70.588,31.978c-0.337-0.168-1.01-0.168-1.346,0
				c-0.337,0.168-0.337,0.505,0,0.841c0.337,0.168,1.01,0.168,1.346,0C70.925,32.483,70.925,32.147,70.588,31.978z M111.14,55.367
				c-0.337-0.168-1.01-0.168-1.346,0c-0.337,0.168-0.337,0.505,0,0.841c0.337,0.168,1.01,0.168,1.346,0
				C111.477,56.041,111.477,55.704,111.14,55.367z M67.559,30.296c-0.337-0.168-1.01-0.168-1.346,0
				c-0.337,0.168-0.337,0.505,0,0.841c0.337,0.168,1.01,0.168,1.346,0C68.064,30.8,68.064,30.464,67.559,30.296z M61.838,26.93
				c-0.337-0.168-1.01-0.168-1.346,0c-0.337,0.168-0.337,0.505,0,0.841c0.337,0.168,1.01,0.168,1.346,0
				C62.175,27.435,62.175,27.099,61.838,26.93z M64.699,28.613c-0.337-0.168-1.01-0.168-1.346,0c-0.337,0.168-0.337,0.505,0,0.841
				c0.337,0.168,1.01,0.168,1.346,0C65.035,29.118,65.035,28.781,64.699,28.613z M82.198,38.709c-0.337-0.168-1.01-0.168-1.346,0
				c-0.337,0.168-0.337,0.505,0,0.841c0.337,0.168,1.01,0.168,1.346,0C82.535,39.214,82.535,38.877,82.198,38.709z M108.28,53.685
				c-0.337-0.168-1.01-0.168-1.346,0c-0.337,0.168-0.337,0.505,0,0.841c0.337,0.168,1.01,0.168,1.346,0
				C108.616,54.358,108.616,54.021,108.28,53.685z M99.53,48.637c-0.337-0.168-1.01-0.168-1.346,0s-0.337,0.505,0,0.841
				c0.337,0.168,1.01,0.168,1.346,0C99.867,49.31,99.867,48.973,99.53,48.637z M105.251,52.002c-0.337-0.168-1.01-0.168-1.346,0
				c-0.337,0.168-0.337,0.505,0,0.841c0.337,0.168,1.01,0.168,1.346,0C105.756,52.675,105.756,52.339,105.251,52.002z
				 M102.391,50.319c-0.337-0.168-1.01-0.168-1.346,0c-0.337,0.168-0.337,0.505,0,0.841c0.337,0.168,1.01,0.168,1.346,0
				C102.727,50.993,102.727,50.656,102.391,50.319z M79.17,40.392c-0.337-0.168-1.01-0.168-1.346,0
				c-0.337,0.168-0.337,0.505,0,0.841c0.337,0.168,1.01,0.168,1.346,0C79.674,40.897,79.674,40.56,79.17,40.392z M82.198,42.074
				c-0.337-0.168-1.01-0.168-1.346,0c-0.337,0.168-0.337,0.505,0,0.841c0.337,0.168,1.01,0.168,1.346,0
				C82.535,42.579,82.535,42.243,82.198,42.074z M99.53,52.002c-0.337-0.168-1.01-0.168-1.346,0c-0.337,0.168-0.337,0.505,0,0.841
				c0.337,0.168,1.01,0.168,1.346,0C99.867,52.675,99.867,52.339,99.53,52.002z M96.669,50.319c-0.337-0.168-1.01-0.168-1.346,0
				c-0.337,0.168-0.337,0.505,0,0.841c0.337,0.168,1.01,0.168,1.346,0C97.006,50.993,97.006,50.656,96.669,50.319z M53.088,25.248
				c-0.337-0.168-1.01-0.168-1.346,0c-0.337,0.168-0.337,0.505,0,0.841c0.337,0.168,1.01,0.168,1.346,0
				C53.425,25.752,53.425,25.416,53.088,25.248z M73.449,37.026c-0.337-0.168-1.01-0.168-1.346,0s-0.337,0.505,0,0.841
				c0.337,0.168,1.01,0.168,1.346,0C73.785,37.531,73.785,37.195,73.449,37.026z M85.059,43.757c-0.337-0.168-1.01-0.168-1.346,0
				c-0.337,0.168-0.337,0.505,0,0.841c0.337,0.168,1.01,0.168,1.346,0C85.396,44.262,85.396,43.925,85.059,43.757z M55.949,26.93
				c-0.337-0.168-1.01-0.168-1.346,0c-0.337,0.168-0.337,0.505,0,0.841c0.337,0.168,1.01,0.168,1.346,0
				C56.454,27.435,56.454,27.099,55.949,26.93z M64.699,31.978c-0.337-0.168-1.01-0.168-1.346,0c-0.337,0.168-0.337,0.505,0,0.841
				c0.337,0.168,1.01,0.168,1.346,0C65.035,32.483,65.035,32.147,64.699,31.978z M67.559,33.661c-0.337-0.168-1.01-0.168-1.346,0
				c-0.337,0.168-0.337,0.505,0,0.841c0.337,0.168,1.01,0.168,1.346,0C68.064,34.166,68.064,33.829,67.559,33.661z M76.309,38.709
				c-0.337-0.168-1.01-0.168-1.346,0s-0.337,0.505,0,0.841c0.337,0.168,1.01,0.168,1.346,0
				C76.646,39.214,76.646,38.877,76.309,38.709z M58.978,28.613c-0.337-0.168-1.01-0.168-1.346,0c-0.337,0.168-0.337,0.505,0,0.841
				c0.337,0.168,1.01,0.168,1.346,0C59.314,29.118,59.314,28.781,58.978,28.613z M61.838,30.296c-0.337-0.168-1.01-0.168-1.346,0
				c-0.337,0.168-0.337,0.505,0,0.841c0.337,0.168,1.01,0.168,1.346,0C62.175,30.8,62.175,30.464,61.838,30.296z M90.78,46.954
				c-0.337-0.168-1.01-0.168-1.346,0s-0.337,0.505,0,0.841c0.337,0.168,1.01,0.168,1.346,0
				C91.117,47.627,91.117,47.291,90.78,46.954z M105.251,55.367c-0.337-0.168-1.01-0.168-1.346,0c-0.337,0.168-0.337,0.505,0,0.841
				c0.337,0.168,1.01,0.168,1.346,0C105.756,56.041,105.756,55.704,105.251,55.367z M70.588,35.344c-0.337-0.168-1.01-0.168-1.346,0
				c-0.337,0.168-0.337,0.505,0,0.841c0.337,0.168,1.01,0.168,1.346,0C70.925,35.848,70.925,35.512,70.588,35.344z M102.391,53.685
				c-0.337-0.168-1.01-0.168-1.346,0c-0.337,0.168-0.337,0.505,0,0.841c0.337,0.168,1.01,0.168,1.346,0
				C102.727,54.358,102.727,54.021,102.391,53.685z M87.92,45.271c-0.337-0.168-1.01-0.168-1.346,0s-0.337,0.505,0,0.841
				c0.337,0.168,1.01,0.168,1.346,0S88.256,45.608,87.92,45.271z M93.641,48.637c-0.337-0.168-1.01-0.168-1.346,0
				c-0.337,0.168-0.337,0.505,0,0.841c0.337,0.168,1.01,0.168,1.346,0C94.145,49.31,94.145,48.973,93.641,48.637z M108.28,57.05
				c-0.337-0.168-1.01-0.168-1.346,0c-0.337,0.168-0.337,0.505,0,0.841c0.337,0.168,1.01,0.168,1.346,0
				C108.616,57.723,108.616,57.218,108.28,57.05z M50.228,26.93c-0.337-0.168-1.01-0.168-1.346,0c-0.337,0.168-0.337,0.505,0,0.841
				c0.337,0.168,1.01,0.168,1.346,0C50.564,27.435,50.564,27.099,50.228,26.93z M105.251,58.733c-0.337-0.168-1.01-0.168-1.346,0
				s-0.337,0.505,0,0.841c0.337,0.168,1.01,0.168,1.346,0C105.756,59.406,105.756,58.901,105.251,58.733z M96.669,53.685
				c-0.337-0.168-1.01-0.168-1.346,0c-0.337,0.168-0.337,0.505,0,0.841c0.337,0.168,1.01,0.168,1.346,0
				C97.006,54.358,97.006,54.021,96.669,53.685z M53.088,28.613c-0.337-0.168-1.01-0.168-1.346,0s-0.337,0.505,0,0.841
				c0.337,0.168,1.01,0.168,1.346,0C53.425,29.118,53.425,28.781,53.088,28.613z M102.391,57.05c-0.337-0.168-1.01-0.168-1.346,0
				s-0.337,0.505,0,0.841c0.337,0.168,1.01,0.168,1.346,0S102.727,57.218,102.391,57.05z M99.53,55.367
				c-0.337-0.168-1.01-0.168-1.346,0c-0.337,0.168-0.337,0.505,0,0.841c0.337,0.168,1.01,0.168,1.346,0
				C99.867,56.041,99.867,55.704,99.53,55.367z M58.978,31.978c-0.337-0.168-1.01-0.168-1.346,0c-0.337,0.168-0.337,0.505,0,0.841
				c0.337,0.168,1.01,0.168,1.346,0C59.314,32.483,59.314,32.147,58.978,31.978z M55.949,30.296c-0.337-0.168-1.01-0.168-1.346,0
				c-0.337,0.168-0.337,0.505,0,0.841c0.337,0.168,1.01,0.168,1.346,0C56.454,30.8,56.454,30.464,55.949,30.296z M93.641,55.367
				c-0.337-0.168-1.01-0.168-1.346,0c-0.337,0.168-0.337,0.505,0,0.841c0.337,0.168,1.01,0.168,1.346,0
				C94.145,56.041,94.145,55.704,93.641,55.367z M102.391,60.415c-0.337-0.168-1.01-0.168-1.346,0s-0.337,0.505,0,0.841
				c0.337,0.168,1.01,0.168,1.346,0C102.727,60.92,102.727,60.584,102.391,60.415z M99.53,58.733c-0.337-0.168-1.01-0.168-1.346,0
				s-0.337,0.505,0,0.841c0.337,0.168,1.01,0.168,1.346,0S99.867,58.901,99.53,58.733z M96.669,57.05
				c-0.337-0.168-1.01-0.168-1.346,0c-0.337,0.168-0.337,0.505,0,0.841c0.337,0.168,1.01,0.168,1.346,0
				C97.006,57.723,97.006,57.218,96.669,57.05z M53.088,31.978c-0.337-0.168-1.01-0.168-1.346,0c-0.337,0.168-0.337,0.505,0,0.841
				c0.337,0.168,1.01,0.168,1.346,0C53.425,32.483,53.425,32.147,53.088,31.978z M47.367,28.613c-0.337-0.168-1.01-0.168-1.346,0
				s-0.337,0.505,0,0.841c0.337,0.168,1.01,0.168,1.346,0C47.704,29.118,47.704,28.781,47.367,28.613z M55.949,33.661
				c-0.337-0.168-1.01-0.168-1.346,0c-0.337,0.168-0.337,0.505,0,0.841c0.337,0.168,1.01,0.168,1.346,0
				C56.454,34.166,56.454,33.829,55.949,33.661z M50.228,30.296c-0.337-0.168-1.01-0.168-1.346,0c-0.337,0.168-0.337,0.505,0,0.841
				c0.337,0.168,1.01,0.168,1.346,0C50.564,30.8,50.564,30.464,50.228,30.296z M90.78,57.05c-0.337-0.168-1.01-0.168-1.346,0
				s-0.337,0.505,0,0.841c0.337,0.168,1.01,0.168,1.346,0C91.117,57.723,91.117,57.218,90.78,57.05z M44.338,30.296
				c-0.337-0.168-1.01-0.168-1.346,0c-0.337,0.168-0.337,0.505,0,0.841c0.337,0.168,1.01,0.168,1.346,0
				C44.843,30.8,44.843,30.464,44.338,30.296z M93.641,58.733c-0.337-0.168-1.01-0.168-1.346,0c-0.337,0.168-0.337,0.505,0,0.841
				c0.337,0.168,1.01,0.168,1.346,0C94.145,59.406,94.145,58.901,93.641,58.733z M47.367,31.978c-0.337-0.168-1.01-0.168-1.346,0
				c-0.337,0.168-0.337,0.505,0,0.841c0.337,0.168,1.01,0.168,1.346,0C47.704,32.483,47.704,32.147,47.367,31.978z M96.669,60.415
				c-0.337-0.168-1.01-0.168-1.346,0c-0.337,0.168-0.337,0.505,0,0.841c0.337,0.168,1.01,0.168,1.346,0
				C97.006,60.92,97.006,60.584,96.669,60.415z M50.228,33.661c-0.337-0.168-1.01-0.168-1.346,0c-0.337,0.168-0.337,0.505,0,0.841
				c0.337,0.168,1.01,0.168,1.346,0C50.564,34.166,50.564,33.829,50.228,33.661z M53.088,35.344c-0.337-0.168-1.01-0.168-1.346,0
				s-0.337,0.505,0,0.841c0.337,0.168,1.01,0.168,1.346,0C53.425,35.848,53.425,35.512,53.088,35.344z M99.53,62.098
				c-0.337-0.168-1.01-0.168-1.346,0s-0.337,0.505,0,0.841c0.337,0.168,1.01,0.168,1.346,0
				C99.867,62.603,99.867,62.266,99.53,62.098z M45.853,36.017c0.337,0.168,1.01,0.168,1.346,0c0.337-0.168,0.337-0.505,0-0.841
				c-0.337-0.168-1.01-0.168-1.346,0C45.516,35.512,45.516,35.848,45.853,36.017z M40.132,32.651c0.337,0.168,1.01,0.168,1.346,0
				c0.337-0.168,0.337-0.505,0-0.841c-0.337-0.168-1.01-0.168-1.346,0C39.795,32.147,39.795,32.483,40.132,32.651z M92.295,62.939
				c0.337,0.168,1.01,0.168,1.346,0c0.337-0.168,0.337-0.505,0-0.841c-0.337-0.168-1.01-0.168-1.346,0
				C91.958,62.266,91.958,62.603,92.295,62.939z M48.882,37.699c0.337,0.168,1.01,0.168,1.346,0c0.337-0.168,0.337-0.505,0-0.841
				c-0.337-0.168-1.01-0.168-1.346,0C48.377,37.195,48.377,37.531,48.882,37.699z M42.992,34.334c0.337,0.168,1.01,0.168,1.346,0
				c0.337-0.168,0.337-0.505,0-0.841c-0.337-0.168-1.01-0.168-1.346,0C42.656,33.829,42.656,34.166,42.992,34.334z M95.155,64.622
				c0.337,0.168,1.01,0.168,1.346,0s0.337-0.505,0-0.841c-0.337-0.168-1.01-0.168-1.346,0
				C94.819,63.949,94.819,64.286,95.155,64.622z M89.434,61.257c0.337,0.168,1.01,0.168,1.346,0c0.337-0.168,0.337-0.505,0-0.841
				c-0.337-0.168-1.01-0.168-1.346,0S89.097,60.92,89.434,61.257z M86.573,59.574c0.337,0.168,1.01,0.168,1.346,0
				s0.337-0.505,0-0.841c-0.337-0.168-1.01-0.168-1.346,0C86.069,58.901,86.069,59.406,86.573,59.574z M37.271,34.334
				c0.337,0.168,1.01,0.168,1.346,0c0.337-0.168,0.337-0.505,0-0.841c-0.337-0.168-1.01-0.168-1.346,0
				C36.766,33.829,36.766,34.166,37.271,34.334z M92.295,66.305c0.337,0.168,1.01,0.168,1.346,0c0.337-0.168,0.337-0.505,0-0.841
				c-0.337-0.168-1.01-0.168-1.346,0C91.958,65.632,91.958,65.968,92.295,66.305z M45.853,39.382c0.337,0.168,1.01,0.168,1.346,0
				c0.337-0.168,0.337-0.505,0-0.841c-0.337-0.168-1.01-0.168-1.346,0C45.516,38.877,45.516,39.214,45.853,39.382z M40.132,36.017
				c0.337,0.168,1.01,0.168,1.346,0c0.337-0.168,0.337-0.505,0-0.841c-0.337-0.168-1.01-0.168-1.346,0
				C39.795,35.512,39.795,35.848,40.132,36.017z M86.573,62.939c0.337,0.168,1.01,0.168,1.346,0s0.337-0.505,0-0.841
				c-0.337-0.168-1.01-0.168-1.346,0C86.069,62.266,86.069,62.603,86.573,62.939z M89.434,64.622c0.337,0.168,1.01,0.168,1.346,0
				c0.337-0.168,0.337-0.505,0-0.841c-0.337-0.168-1.01-0.168-1.346,0S89.097,64.286,89.434,64.622z M83.545,61.257
				c0.337,0.168,1.01,0.168,1.346,0s0.337-0.505,0-0.841c-0.337-0.168-1.01-0.168-1.346,0S83.208,60.92,83.545,61.257z
				 M42.992,37.699c0.337,0.168,1.01,0.168,1.346,0c0.337-0.168,0.337-0.505,0-0.841c-0.337-0.168-1.01-0.168-1.346,0
				C42.656,37.195,42.656,37.531,42.992,37.699z M87.92,65.464c-0.337-0.168-1.01-0.168-1.346,0c-0.337,0.168-0.337,0.505,0,0.841
				c0.337,0.168,1.01,0.168,1.346,0C88.256,65.968,88.256,65.632,87.92,65.464z M41.478,38.709c-0.337-0.168-1.01-0.168-1.346,0
				c-0.337,0.168-0.337,0.505,0,0.841c0.337,0.168,1.01,0.168,1.346,0C41.814,39.214,41.814,38.877,41.478,38.709z M44.338,40.392
				c-0.337-0.168-1.01-0.168-1.346,0c-0.337,0.168-0.337,0.505,0,0.841c0.337,0.168,1.01,0.168,1.346,0
				C44.843,40.897,44.843,40.56,44.338,40.392z M82.03,62.098c-0.337-0.168-1.01-0.168-1.346,0c-0.337,0.168-0.337,0.505,0,0.841
				c0.337,0.168,1.01,0.168,1.346,0C82.535,62.603,82.535,62.266,82.03,62.098z M85.059,63.781c-0.337-0.168-1.01-0.168-1.346,0
				c-0.337,0.168-0.337,0.505,0,0.841c0.337,0.168,1.01,0.168,1.346,0C85.396,64.286,85.396,63.949,85.059,63.781z M35.757,35.344
				c-0.337-0.168-1.01-0.168-1.346,0c-0.337,0.168-0.337,0.505,0,0.841c0.337,0.168,1.01,0.168,1.346,0
				C36.093,35.848,36.093,35.512,35.757,35.344z M90.78,67.146c-0.337-0.168-1.01-0.168-1.346,0c-0.337,0.168-0.337,0.505,0,0.841
				c0.337,0.168,1.01,0.168,1.346,0C91.117,67.651,91.117,67.314,90.78,67.146z M38.617,37.026c-0.337-0.168-1.01-0.168-1.346,0
				c-0.337,0.168-0.337,0.505,0,0.841c0.337,0.168,1.01,0.168,1.346,0C38.954,37.531,38.954,37.195,38.617,37.026z M80.684,66.305
				c0.337,0.168,1.01,0.168,1.346,0s0.337-0.505,0-0.841c-0.337-0.168-1.01-0.168-1.346,0
				C80.348,65.632,80.348,65.968,80.684,66.305z M37.271,41.065c0.337,0.168,1.01,0.168,1.346,0c0.337-0.168,0.337-0.505,0-0.841
				c-0.337-0.168-1.01-0.168-1.346,0C36.766,40.56,36.766,40.897,37.271,41.065z M40.132,42.747c0.337,0.168,1.01,0.168,1.346,0
				c0.337-0.168,0.337-0.505,0-0.841c-0.337-0.168-1.01-0.168-1.346,0C39.795,42.243,39.795,42.579,40.132,42.747z M31.382,37.699
				c0.337,0.168,1.01,0.168,1.346,0c0.337-0.168,0.337-0.505,0-0.841c-0.337-0.168-1.01-0.168-1.346,0
				C31.045,37.195,31.045,37.531,31.382,37.699z M77.824,64.622c0.337,0.168,1.01,0.168,1.346,0c0.337-0.168,0.337-0.505,0-0.841
				c-0.337-0.168-1.01-0.168-1.346,0C77.487,63.949,77.487,64.286,77.824,64.622z M86.573,69.67c0.337,0.168,1.01,0.168,1.346,0
				s0.337-0.505,0-0.841c-0.337-0.168-1.01-0.168-1.346,0C86.069,68.997,86.069,69.334,86.573,69.67z M34.242,39.382
				c0.337,0.168,1.01,0.168,1.346,0s0.337-0.505,0-0.841c-0.337-0.168-1.01-0.168-1.346,0
				C33.906,38.877,33.906,39.214,34.242,39.382z M83.545,67.988c0.337,0.168,1.01,0.168,1.346,0s0.337-0.505,0-0.841
				c-0.337-0.168-1.01-0.168-1.346,0C83.208,67.314,83.208,67.651,83.545,67.988z M35.757,42.074c-0.337-0.168-1.01-0.168-1.346,0
				c-0.337,0.168-0.337,0.505,0,0.841c0.337,0.168,1.01,0.168,1.346,0C36.093,42.579,36.093,42.243,35.757,42.074z M32.728,40.392
				c-0.337-0.168-1.01-0.168-1.346,0s-0.337,0.505,0,0.841c0.337,0.168,1.01,0.168,1.346,0
				C33.233,40.897,33.233,40.56,32.728,40.392z M29.867,38.709c-0.337-0.168-1.01-0.168-1.346,0c-0.337,0.168-0.337,0.505,0,0.841
				c0.337,0.168,1.01,0.168,1.346,0C30.204,39.214,30.204,38.877,29.867,38.709z M82.03,68.829c-0.337-0.168-1.01-0.168-1.346,0
				c-0.337,0.168-0.337,0.505,0,0.841c0.337,0.168,1.01,0.168,1.346,0C82.535,69.334,82.535,68.997,82.03,68.829z M38.617,43.589
				c-0.337-0.168-1.01-0.168-1.346,0c-0.337,0.168-0.337,0.505,0,0.841c0.337,0.168,1.01,0.168,1.346,0
				C38.954,44.262,38.954,43.925,38.617,43.589z M76.309,65.464c-0.337-0.168-1.01-0.168-1.346,0c-0.337,0.168-0.337,0.505,0,0.841
				c0.337,0.168,1.01,0.168,1.346,0C76.646,65.968,76.646,65.632,76.309,65.464z M85.059,70.512c-0.337-0.168-1.01-0.168-1.346,0
				c-0.337,0.168-0.337,0.505,0,0.841c0.337,0.168,1.01,0.168,1.346,0C85.396,71.016,85.396,70.68,85.059,70.512z M79.17,67.146
				c-0.337-0.168-1.01-0.168-1.346,0c-0.337,0.168-0.337,0.505,0,0.841c0.337,0.168,1.01,0.168,1.346,0
				C79.506,67.651,79.506,67.314,79.17,67.146z M27.007,40.392c-0.337-0.168-1.01-0.168-1.346,0c-0.337,0.168-0.337,0.505,0,0.841
				c0.337,0.168,1.01,0.168,1.346,0C27.343,40.897,27.343,40.56,27.007,40.392z M73.449,67.146c-0.337-0.168-1.01-0.168-1.346,0
				c-0.337,0.168-0.337,0.505,0,0.841c0.337,0.168,1.01,0.168,1.346,0C73.785,67.651,73.785,67.314,73.449,67.146z M29.867,42.074
				c-0.337-0.168-1.01-0.168-1.346,0c-0.337,0.168-0.337,0.505,0,0.841c0.337,0.168,1.01,0.168,1.346,0
				C30.204,42.579,30.204,42.243,29.867,42.074z M32.728,43.589c-0.337-0.168-1.01-0.168-1.346,0s-0.337,0.505,0,0.841
				c0.337,0.168,1.01,0.168,1.346,0C33.233,44.262,33.233,43.925,32.728,43.589z M35.757,45.271c-0.337-0.168-1.01-0.168-1.346,0
				c-0.337,0.168-0.337,0.505,0,0.841c0.337,0.168,1.01,0.168,1.346,0C36.093,45.945,36.093,45.608,35.757,45.271z M76.309,68.829
				c-0.337-0.168-1.01-0.168-1.346,0s-0.337,0.505,0,0.841c0.337,0.168,1.01,0.168,1.346,0
				C76.646,69.334,76.646,68.997,76.309,68.829z M82.03,72.194c-0.337-0.168-1.01-0.168-1.346,0c-0.337,0.168-0.337,0.505,0,0.841
				c0.337,0.168,1.01,0.168,1.346,0C82.535,72.699,82.535,72.362,82.03,72.194z M79.17,70.512c-0.337-0.168-1.01-0.168-1.346,0
				c-0.337,0.168-0.337,0.505,0,0.841c0.337,0.168,1.01,0.168,1.346,0C79.506,71.016,79.506,70.68,79.17,70.512z M70.42,68.829
				c-0.337-0.168-1.01-0.168-1.346,0s-0.337,0.505,0,0.841c0.337,0.168,1.01,0.168,1.346,0
				C70.925,69.334,70.925,68.997,70.42,68.829z M79.17,73.877c-0.337-0.168-1.01-0.168-1.346,0c-0.337,0.168-0.337,0.505,0,0.841
				c0.337,0.168,1.01,0.168,1.346,0C79.506,74.55,79.506,74.045,79.17,73.877z M73.449,70.512c-0.337-0.168-1.01-0.168-1.346,0
				s-0.337,0.505,0,0.841c0.337,0.168,1.01,0.168,1.346,0C73.785,71.016,73.785,70.68,73.449,70.512z M32.728,46.954
				c-0.337-0.168-1.01-0.168-1.346,0s-0.337,0.505,0,0.841c0.337,0.168,1.01,0.168,1.346,0
				C33.233,47.627,33.233,47.291,32.728,46.954z M24.146,41.906c-0.337-0.168-1.01-0.168-1.346,0c-0.337,0.168-0.337,0.505,0,0.841
				c0.337,0.168,1.01,0.168,1.346,0S24.483,42.243,24.146,41.906z M76.309,72.194c-0.337-0.168-1.01-0.168-1.346,0
				s-0.337,0.505,0,0.841c0.337,0.168,1.01,0.168,1.346,0C76.646,72.699,76.646,72.362,76.309,72.194z M27.007,43.589
				c-0.337-0.168-1.01-0.168-1.346,0c-0.337,0.168-0.337,0.505,0,0.841c0.337,0.168,1.01,0.168,1.346,0S27.343,43.925,27.007,43.589
				z M29.867,45.271c-0.337-0.168-1.01-0.168-1.346,0c-0.337,0.168-0.337,0.505,0,0.841c0.337,0.168,1.01,0.168,1.346,0
				S30.204,45.608,29.867,45.271z M67.559,70.512c-0.337-0.168-1.01-0.168-1.346,0c-0.337,0.168-0.337,0.505,0,0.841
				c0.337,0.168,1.01,0.168,1.346,0C67.896,71.016,67.896,70.68,67.559,70.512z M73.449,73.877c-0.337-0.168-1.01-0.168-1.346,0
				s-0.337,0.505,0,0.841c0.337,0.168,1.01,0.168,1.346,0C73.785,74.382,73.785,74.045,73.449,73.877z M27.007,46.954
				c-0.337-0.168-1.01-0.168-1.346,0c-0.337,0.168-0.337,0.505,0,0.841c0.337,0.168,1.01,0.168,1.346,0S27.343,47.291,27.007,46.954
				z M21.118,43.589c-0.337-0.168-1.01-0.168-1.346,0s-0.337,0.505,0,0.841c0.337,0.168,1.01,0.168,1.346,0
				C21.622,44.262,21.622,43.925,21.118,43.589z M70.42,72.194c-0.337-0.168-1.01-0.168-1.346,0s-0.337,0.505,0,0.841
				c0.337,0.168,1.01,0.168,1.346,0C70.925,72.699,70.925,72.362,70.42,72.194z M24.146,45.271c-0.337-0.168-1.01-0.168-1.346,0
				c-0.337,0.168-0.337,0.505,0,0.841c0.337,0.168,1.01,0.168,1.346,0S24.483,45.608,24.146,45.271z M76.309,75.56
				c-0.337-0.168-1.01-0.168-1.346,0s-0.337,0.505,0,0.841c0.337,0.168,1.01,0.168,1.346,0
				C76.646,76.064,76.646,75.728,76.309,75.56z M29.867,48.637c-0.337-0.168-1.01-0.168-1.346,0c-0.337,0.168-0.337,0.505,0,0.841
				c0.337,0.168,1.01,0.168,1.346,0C30.204,49.31,30.204,48.973,29.867,48.637z M24.146,48.637c-0.337-0.168-1.01-0.168-1.346,0
				c-0.337,0.168-0.337,0.505,0,0.841c0.337,0.168,1.01,0.168,1.346,0C24.483,49.31,24.483,48.973,24.146,48.637z M64.699,72.194
				c-0.337-0.168-1.01-0.168-1.346,0c-0.337,0.168-0.337,0.505,0,0.841c0.337,0.168,1.01,0.168,1.346,0
				C65.035,72.699,65.035,72.362,64.699,72.194z M70.42,75.56c-0.337-0.168-1.01-0.168-1.346,0s-0.337,0.505,0,0.841
				c0.337,0.168,1.01,0.168,1.346,0C70.925,76.064,70.925,75.728,70.42,75.56z M73.449,77.242c-0.337-0.168-1.01-0.168-1.346,0
				s-0.337,0.505,0,0.841c0.337,0.168,1.01,0.168,1.346,0C73.785,77.747,73.785,77.41,73.449,77.242z M67.559,73.877
				c-0.337-0.168-1.01-0.168-1.346,0c-0.337,0.168-0.337,0.505,0,0.841c0.337,0.168,1.01,0.168,1.346,0
				C67.896,74.382,67.896,74.045,67.559,73.877z M21.118,46.954c-0.337-0.168-1.01-0.168-1.346,0s-0.337,0.505,0,0.841
				c0.337,0.168,1.01,0.168,1.346,0C21.622,47.627,21.622,47.291,21.118,46.954z M18.257,45.271c-0.337-0.168-1.01-0.168-1.346,0
				s-0.337,0.505,0,0.841c0.337,0.168,1.01,0.168,1.346,0S18.594,45.608,18.257,45.271z M27.007,50.319
				c-0.337-0.168-1.01-0.168-1.346,0c-0.337,0.168-0.337,0.505,0,0.841c0.337,0.168,1.01,0.168,1.346,0
				C27.343,50.993,27.343,50.656,27.007,50.319z M67.559,77.242c-0.337-0.168-1.01-0.168-1.346,0c-0.337,0.168-0.337,0.505,0,0.841
				c0.337,0.168,1.01,0.168,1.346,0C67.896,77.747,67.896,77.41,67.559,77.242z M47.199,65.464c-0.337-0.168-1.01-0.168-1.346,0
				c-0.337,0.168-0.337,0.505,0,0.841c0.337,0.168,1.01,0.168,1.346,0C47.704,65.968,47.704,65.632,47.199,65.464z M53.088,68.829
				c-0.337-0.168-1.01-0.168-1.346,0s-0.337,0.505,0,0.841c0.337,0.168,1.01,0.168,1.346,0
				C53.425,69.334,53.425,68.997,53.088,68.829z M44.338,63.781c-0.337-0.168-1.01-0.168-1.346,0c-0.337,0.168-0.337,0.505,0,0.841
				c0.337,0.168,1.01,0.168,1.346,0C44.675,64.286,44.675,63.949,44.338,63.781z M64.699,75.56c-0.337-0.168-1.01-0.168-1.346,0
				c-0.337,0.168-0.337,0.505,0,0.841c0.337,0.168,1.01,0.168,1.346,0C65.035,76.064,65.035,75.728,64.699,75.56z M58.809,72.194
				c-0.337-0.168-1.01-0.168-1.346,0c-0.337,0.168-0.337,0.505,0,0.841c0.337,0.168,1.01,0.168,1.346,0
				C59.314,72.699,59.314,72.362,58.809,72.194z M50.228,67.146c-0.337-0.168-1.01-0.168-1.346,0c-0.337,0.168-0.337,0.505,0,0.841
				c0.337,0.168,1.01,0.168,1.346,0C50.564,67.651,50.564,67.314,50.228,67.146z M55.949,70.512c-0.337-0.168-1.01-0.168-1.346,0
				c-0.337,0.168-0.337,0.505,0,0.841c0.337,0.168,1.01,0.168,1.346,0C56.285,71.016,56.285,70.68,55.949,70.512z M15.396,46.954
				c-0.337-0.168-1.01-0.168-1.346,0c-0.337,0.168-0.337,0.505,0,0.841c0.337,0.168,1.01,0.168,1.346,0
				C15.733,47.627,15.733,47.291,15.396,46.954z M27.007,53.685c-0.337-0.168-1.01-0.168-1.346,0c-0.337,0.168-0.337,0.505,0,0.841
				c0.337,0.168,1.01,0.168,1.346,0C27.343,54.358,27.343,53.853,27.007,53.685z M29.867,55.367c-0.337-0.168-1.01-0.168-1.346,0
				c-0.337,0.168-0.337,0.505,0,0.841c0.337,0.168,1.01,0.168,1.346,0C30.204,56.041,30.204,55.536,29.867,55.367z M35.757,58.733
				c-0.337-0.168-1.01-0.168-1.346,0c-0.337,0.168-0.337,0.505,0,0.841c0.337,0.168,1.01,0.168,1.346,0
				C36.093,59.238,36.093,58.901,35.757,58.733z M24.146,52.002c-0.337-0.168-1.01-0.168-1.346,0c-0.337,0.168-0.337,0.505,0,0.841
				c0.337,0.168,1.01,0.168,1.346,0C24.483,52.675,24.483,52.339,24.146,52.002z M38.617,60.415c-0.337-0.168-1.01-0.168-1.346,0
				c-0.337,0.168-0.337,0.505,0,0.841c0.337,0.168,1.01,0.168,1.346,0C38.954,60.92,38.954,60.584,38.617,60.415z M21.118,50.319
				c-0.337-0.168-1.01-0.168-1.346,0c-0.337,0.168-0.337,0.505,0,0.841c0.337,0.168,1.01,0.168,1.346,0
				C21.622,50.993,21.622,50.656,21.118,50.319z M18.257,48.637c-0.337-0.168-1.01-0.168-1.346,0s-0.337,0.505,0,0.841
				c0.337,0.168,1.01,0.168,1.346,0C18.594,49.31,18.594,48.973,18.257,48.637z M61.838,73.877c-0.337-0.168-1.01-0.168-1.346,0
				c-0.337,0.168-0.337,0.505,0,0.841c0.337,0.168,1.01,0.168,1.346,0C62.175,74.382,62.175,74.045,61.838,73.877z M32.728,57.05
				c-0.337-0.168-1.01-0.168-1.346,0s-0.337,0.505,0,0.841c0.337,0.168,1.01,0.168,1.346,0
				C33.233,57.723,33.233,57.218,32.728,57.05z M41.478,62.098c-0.337-0.168-1.01-0.168-1.346,0c-0.337,0.168-0.337,0.505,0,0.841
				c0.337,0.168,1.01,0.168,1.346,0C41.814,62.603,41.814,62.266,41.478,62.098z M24.146,55.367c-0.337-0.168-1.01-0.168-1.346,0
				c-0.337,0.168-0.337,0.505,0,0.841c0.337,0.168,1.01,0.168,1.346,0C24.483,56.041,24.483,55.536,24.146,55.367z M55.949,73.877
				c-0.337-0.168-1.01-0.168-1.346,0c-0.337,0.168-0.337,0.505,0,0.841c0.337,0.168,1.01,0.168,1.346,0
				C56.285,74.382,56.285,74.045,55.949,73.877z M64.699,78.925c-0.337-0.168-1.01-0.168-1.346,0c-0.337,0.168-0.337,0.505,0,0.841
				c0.337,0.168,1.01,0.168,1.346,0C65.035,79.43,65.035,79.093,64.699,78.925z M58.809,75.56c-0.337-0.168-1.01-0.168-1.346,0
				c-0.337,0.168-0.337,0.505,0,0.841c0.337,0.168,1.01,0.168,1.346,0C59.314,76.064,59.314,75.728,58.809,75.56z M67.559,80.608
				c-0.337-0.168-1.01-0.168-1.346,0c-0.337,0.168-0.337,0.505,0,0.841c0.337,0.168,1.01,0.168,1.346,0
				C67.896,81.112,67.896,80.776,67.559,80.608z M50.228,70.512c-0.337-0.168-1.01-0.168-1.346,0c-0.337,0.168-0.337,0.505,0,0.841
				c0.337,0.168,1.01,0.168,1.346,0C50.564,71.016,50.564,70.68,50.228,70.512z M53.088,72.194c-0.337-0.168-1.01-0.168-1.346,0
				s-0.337,0.505,0,0.841c0.337,0.168,1.01,0.168,1.346,0C53.425,72.699,53.425,72.362,53.088,72.194z M32.728,60.415
				c-0.337-0.168-1.01-0.168-1.346,0s-0.337,0.505,0,0.841c0.337,0.168,1.01,0.168,1.346,0
				C33.233,60.92,33.233,60.584,32.728,60.415z M21.118,53.685c-0.337-0.168-1.01-0.168-1.346,0c-0.337,0.168-0.337,0.505,0,0.841
				c0.337,0.168,1.01,0.168,1.346,0C21.622,54.358,21.622,53.853,21.118,53.685z M27.007,57.05c-0.337-0.168-1.01-0.168-1.346,0
				c-0.337,0.168-0.337,0.505,0,0.841c0.337,0.168,1.01,0.168,1.346,0S27.343,57.218,27.007,57.05z M29.867,58.733
				c-0.337-0.168-1.01-0.168-1.346,0c-0.337,0.168-0.337,0.505,0,0.841c0.337,0.168,1.01,0.168,1.346,0
				C30.204,59.238,30.204,58.901,29.867,58.733z M12.536,48.637c-0.337-0.168-1.01-0.168-1.346,0c-0.337,0.168-0.337,0.505,0,0.841
				c0.337,0.168,1.01,0.168,1.346,0C12.872,49.31,12.872,48.973,12.536,48.637z M47.199,68.829c-0.337-0.168-1.01-0.168-1.346,0
				c-0.337,0.168-0.337,0.505,0,0.841c0.337,0.168,1.01,0.168,1.346,0C47.704,69.334,47.704,68.997,47.199,68.829z M61.838,77.242
				c-0.337-0.168-1.01-0.168-1.346,0c-0.337,0.168-0.337,0.505,0,0.841c0.337,0.168,1.01,0.168,1.346,0
				C62.175,77.747,62.175,77.41,61.838,77.242z M15.396,50.319c-0.337-0.168-1.01-0.168-1.346,0c-0.337,0.168-0.337,0.505,0,0.841
				c0.337,0.168,1.01,0.168,1.346,0C15.733,50.993,15.733,50.656,15.396,50.319z M44.338,67.146c-0.337-0.168-1.01-0.168-1.346,0
				c-0.337,0.168-0.337,0.505,0,0.841c0.337,0.168,1.01,0.168,1.346,0C44.675,67.651,44.675,67.314,44.338,67.146z M41.478,65.464
				c-0.337-0.168-1.01-0.168-1.346,0c-0.337,0.168-0.337,0.505,0,0.841c0.337,0.168,1.01,0.168,1.346,0
				C41.814,65.968,41.814,65.632,41.478,65.464z M38.617,63.781c-0.337-0.168-1.01-0.168-1.346,0c-0.337,0.168-0.337,0.505,0,0.841
				c0.337,0.168,1.01,0.168,1.346,0C38.954,64.286,38.954,63.949,38.617,63.781z M18.257,52.002c-0.337-0.168-1.01-0.168-1.346,0
				c-0.337,0.168-0.337,0.505,0,0.841c0.337,0.168,1.01,0.168,1.346,0C18.594,52.675,18.594,52.339,18.257,52.002z M35.588,62.098
				c-0.337-0.168-1.01-0.168-1.346,0c-0.337,0.168-0.337,0.505,0,0.841c0.337,0.168,1.01,0.168,1.346,0
				C36.093,62.603,36.093,62.266,35.588,62.098z M53.088,75.56c-0.337-0.168-1.01-0.168-1.346,0s-0.337,0.505,0,0.841
				c0.337,0.168,1.01,0.168,1.346,0C53.425,76.064,53.425,75.728,53.088,75.56z M41.478,68.829c-0.337-0.168-1.01-0.168-1.346,0
				c-0.337,0.168-0.337,0.505,0,0.841c0.337,0.168,1.01,0.168,1.346,0C41.814,69.334,41.814,68.997,41.478,68.829z M29.867,62.098
				c-0.337-0.168-1.01-0.168-1.346,0c-0.337,0.168-0.337,0.505,0,0.841c0.337,0.168,1.01,0.168,1.346,0
				C30.204,62.603,30.204,62.266,29.867,62.098z M27.007,60.415c-0.337-0.168-1.01-0.168-1.346,0c-0.337,0.168-0.337,0.505,0,0.841
				c0.337,0.168,1.01,0.168,1.346,0C27.343,60.92,27.343,60.584,27.007,60.415z M64.699,82.122c-0.337-0.168-1.01-0.168-1.346,0
				c-0.337,0.168-0.337,0.505,0,0.841c0.337,0.168,1.01,0.168,1.346,0C65.035,82.795,65.035,82.458,64.699,82.122z M50.228,73.877
				c-0.337-0.168-1.01-0.168-1.346,0c-0.337,0.168-0.337,0.505,0,0.841c0.337,0.168,1.01,0.168,1.346,0
				C50.564,74.382,50.564,74.045,50.228,73.877z M38.617,67.146c-0.337-0.168-1.01-0.168-1.346,0c-0.337,0.168-0.337,0.505,0,0.841
				c0.337,0.168,1.01,0.168,1.346,0C38.954,67.651,38.954,67.314,38.617,67.146z M9.507,50.319c-0.337-0.168-1.01-0.168-1.346,0
				c-0.337,0.168-0.337,0.505,0,0.841c0.337,0.168,1.01,0.168,1.346,0C10.012,50.993,10.012,50.656,9.507,50.319z M21.118,57.05
				c-0.337-0.168-1.01-0.168-1.346,0s-0.337,0.505,0,0.841c0.337,0.168,1.01,0.168,1.346,0
				C21.622,57.555,21.622,57.218,21.118,57.05z M15.396,53.685c-0.337-0.168-1.01-0.168-1.346,0c-0.337,0.168-0.337,0.505,0,0.841
				c0.337,0.168,1.01,0.168,1.346,0C15.733,54.358,15.733,53.853,15.396,53.685z M61.838,80.608c-0.337-0.168-1.01-0.168-1.346,0
				c-0.337,0.168-0.337,0.505,0,0.841c0.337,0.168,1.01,0.168,1.346,0C62.175,81.112,62.175,80.776,61.838,80.608z M35.588,65.464
				c-0.337-0.168-1.01-0.168-1.346,0c-0.337,0.168-0.337,0.505,0,0.841c0.337,0.168,1.01,0.168,1.346,0
				C36.093,65.968,36.093,65.632,35.588,65.464z M47.199,72.194c-0.337-0.168-1.01-0.168-1.346,0c-0.337,0.168-0.337,0.505,0,0.841
				c0.337,0.168,1.01,0.168,1.346,0C47.704,72.699,47.704,72.362,47.199,72.194z M32.728,63.781c-0.337-0.168-1.01-0.168-1.346,0
				s-0.337,0.505,0,0.841c0.337,0.168,1.01,0.168,1.346,0C33.233,64.286,33.064,63.949,32.728,63.781z M18.257,55.367
				c-0.337-0.168-1.01-0.168-1.346,0c-0.337,0.168-0.337,0.505,0,0.841c0.337,0.168,1.01,0.168,1.346,0
				C18.594,56.041,18.594,55.536,18.257,55.367z M12.536,52.002c-0.337-0.168-1.01-0.168-1.346,0c-0.337,0.168-0.337,0.505,0,0.841
				c0.337,0.168,1.01,0.168,1.346,0C12.872,52.675,12.872,52.339,12.536,52.002z M58.809,78.925c-0.337-0.168-1.01-0.168-1.346,0
				c-0.337,0.168-0.337,0.505,0,0.841c0.337,0.168,1.01,0.168,1.346,0C59.314,79.43,59.314,79.093,58.809,78.925z M24.146,58.733
				c-0.337-0.168-1.01-0.168-1.346,0c-0.337,0.168-0.337,0.505,0,0.841c0.337,0.168,1.01,0.168,1.346,0
				C24.483,59.238,24.483,58.901,24.146,58.733z M55.949,77.242c-0.337-0.168-1.01-0.168-1.346,0c-0.337,0.168-0.337,0.505,0,0.841
				c0.337,0.168,1.01,0.168,1.346,0C56.285,77.747,56.285,77.41,55.949,77.242z M44.338,70.512c-0.337-0.168-1.01-0.168-1.346,0
				c-0.337,0.168-0.337,0.505,0,0.841c0.337,0.168,1.01,0.168,1.346,0C44.675,71.016,44.675,70.68,44.338,70.512z M35.588,68.829
				c-0.337-0.168-1.01-0.168-1.346,0c-0.337,0.168-0.337,0.505,0,0.841c0.337,0.168,1.01,0.168,1.346,0
				C36.093,69.334,36.093,68.997,35.588,68.829z M50.228,77.242c-0.337-0.168-1.01-0.168-1.346,0c-0.337,0.168-0.337,0.505,0,0.841
				c0.337,0.168,1.01,0.168,1.346,0C50.564,77.747,50.564,77.41,50.228,77.242z M32.728,67.146c-0.337-0.168-1.01-0.168-1.346,0
				c-0.337,0.168-0.337,0.505,0,0.841c0.337,0.168,1.01,0.168,1.346,0C33.064,67.651,33.064,67.314,32.728,67.146z M53.088,78.925
				c-0.337-0.168-1.01-0.168-1.346,0s-0.337,0.505,0,0.841c0.337,0.168,1.01,0.168,1.346,0
				C53.425,79.43,53.425,79.093,53.088,78.925z M29.867,65.464c-0.337-0.168-1.01-0.168-1.346,0c-0.337,0.168-0.337,0.505,0,0.841
				c0.337,0.168,1.01,0.168,1.346,0C30.204,65.968,30.204,65.632,29.867,65.464z M61.838,83.805c-0.337-0.168-1.01-0.168-1.346,0
				c-0.337,0.168-0.337,0.505,0,0.841c0.337,0.168,1.01,0.168,1.346,0C62.175,84.478,62.175,84.141,61.838,83.805z M27.007,63.781
				c-0.337-0.168-1.01-0.168-1.346,0c-0.337,0.168-0.337,0.505,0,0.841c0.337,0.168,1.01,0.168,1.346,0
				C27.343,64.286,27.343,63.949,27.007,63.781z M38.617,70.512c-0.337-0.168-1.01-0.168-1.346,0c-0.337,0.168-0.337,0.505,0,0.841
				c0.337,0.168,1.01,0.168,1.346,0C38.954,71.016,38.954,70.68,38.617,70.512z M44.338,73.877c-0.337-0.168-1.01-0.168-1.346,0
				c-0.337,0.168-0.337,0.505,0,0.841c0.337,0.168,1.01,0.168,1.346,0C44.675,74.382,44.675,74.045,44.338,73.877z M41.478,72.194
				c-0.337-0.168-1.01-0.168-1.346,0c-0.337,0.168-0.337,0.505,0,0.841c0.337,0.168,1.01,0.168,1.346,0
				C41.814,72.699,41.814,72.362,41.478,72.194z M47.199,75.56c-0.337-0.168-1.01-0.168-1.346,0c-0.337,0.168-0.337,0.505,0,0.841
				c0.337,0.168,1.01,0.168,1.346,0C47.704,76.064,47.704,75.728,47.199,75.56z M9.507,53.685c-0.337-0.168-1.01-0.168-1.346,0
				c-0.337,0.168-0.337,0.505,0,0.841c0.337,0.168,1.01,0.168,1.346,0C10.012,54.358,10.012,53.853,9.507,53.685z M55.949,80.608
				c-0.337-0.168-1.01-0.168-1.346,0c-0.337,0.168-0.337,0.505,0,0.841c0.337,0.168,1.01,0.168,1.346,0
				C56.285,81.112,56.285,80.776,55.949,80.608z M24.146,62.098c-0.337-0.168-1.01-0.168-1.346,0c-0.337,0.168-0.337,0.505,0,0.841
				c0.337,0.168,1.01,0.168,1.346,0C24.483,62.603,24.483,62.266,24.146,62.098z M58.809,82.122c-0.337-0.168-1.01-0.168-1.346,0
				c-0.337,0.168-0.337,0.505,0,0.841c0.337,0.168,1.01,0.168,1.346,0C59.314,82.795,59.314,82.458,58.809,82.122z M6.647,52.002
				c-0.337-0.168-1.01-0.168-1.346,0c-0.337,0.168-0.337,0.505,0,0.841c0.337,0.168,1.01,0.168,1.346,0
				C6.983,52.675,6.983,52.17,6.647,52.002z M21.118,60.415c-0.337-0.168-1.01-0.168-1.346,0s-0.337,0.505,0,0.841
				c0.337,0.168,1.01,0.168,1.346,0C21.622,60.92,21.622,60.584,21.118,60.415z M18.257,58.733c-0.337-0.168-1.01-0.168-1.346,0
				s-0.337,0.505,0,0.841c0.337,0.168,1.01,0.168,1.346,0C18.594,59.238,18.594,58.901,18.257,58.733z M12.536,55.367
				c-0.337-0.168-1.01-0.168-1.346,0c-0.337,0.168-0.337,0.505,0,0.841c0.337,0.168,1.01,0.168,1.346,0
				C12.872,56.041,12.872,55.536,12.536,55.367z M15.396,57.05c-0.337-0.168-1.01-0.168-1.346,0c-0.337,0.168-0.337,0.505,0,0.841
				c0.337,0.168,1.01,0.168,1.346,0C15.733,57.555,15.733,57.218,15.396,57.05z"/>
			<path id="Shape_16_" fill="#F7F7F7" stroke="#2C2F31" stroke-width="0.864" stroke-linecap="round" stroke-linejoin="round" d="
				M60.632,35.824c0.505-0.337,0.505-0.841,0-1.01c-0.505-0.337-1.346-0.337-1.851,0c-0.505,0.337-0.505,0.673,0,1.01
				C59.286,35.993,60.127,35.993,60.632,35.824z"/>
			<path id="Shape_17_" fill="none" stroke="#2C2F31" stroke-linecap="round" stroke-linejoin="round" d="M5.253,51.61
				c-0.505,0.337-0.505,0.673,0,1.01c0.505,0.337,1.346,0.337,1.851,0c0.505-0.337,0.505-0.841,0-1.01
				C6.599,51.273,5.758,51.273,5.253,51.61z"/>
			<path id="Shape_18_" fill="none" stroke="#2C2F31" stroke-linecap="round" stroke-linejoin="round" d="M57.099,6.153L1.57,38.292
				c-1.514,0.841-1.514,2.187,0,3.197l55.528,32.139c1.514,0.841,3.87,0.841,5.385,0l7.067-4.038c-1.178-0.673-1.178-1.851,0-2.524
				c1.178-0.673,3.029-0.673,4.207,0l44.254-25.577c1.514-0.841,1.514-2.187,0-3.197L62.483,6.153
				C60.969,5.312,58.445,5.312,57.099,6.153z"/>
			<path id="Shape_19_" fill="none" stroke="#2C2F31" stroke-linecap="round" stroke-linejoin="round" d="M59.791,69.02
				c-0.841,0-1.851-1.168-2.524-1.505L1.739,35.376c-0.505-0.337-0.841-0.673-0.841-1.178c0-0.337,0.337-0.841,0.841-1.178
				L57.267,0.881c0.673-0.337,1.514-0.505,2.524-0.505c0.841,0,1.851,0.168,2.524,0.505l55.528,32.139
				c0.505,0.337,0.841,0.673,0.841,1.178c0,0.337-0.337,0.841-0.841,1.178L73.925,60.784c-0.673-0.337-1.346-0.505-2.187-0.505
				c-0.841,0-1.683,0.168-2.356,0.505c-0.673,0.505-1.178,1.01-1.178,1.683c0,0.505,0.168,0.841,0.505,1.178l-6.394,3.702
				C61.474,67.851,60.632,69.02,59.791,69.02z"/>
			<path id="Shape_20_" fill="none" stroke="#2C2F31" stroke-linecap="round" stroke-linejoin="round" d="M6.253,33.693
				c-0.505,0.337-0.505,0.673,0,1.01s1.346,0.337,1.851,0c0.505-0.337,0.505-0.841,0-1.01C7.599,33.357,6.758,33.357,6.253,33.693z"
				/>
			<path id="Shape_21_" fill="none" stroke="#2C2F31" stroke-linecap="round" stroke-linejoin="round" d="M6.253,39.863
				c-0.505,0.337-0.505,0.673,0,1.01c0.505,0.337,1.346,0.337,1.851,0c0.505-0.337,0.505-0.841,0-1.01
				C7.599,39.526,6.758,39.526,6.253,39.863z"/>
			<path id="Shape_22_" fill="none" stroke="#2C2F31" stroke-linecap="round" stroke-linejoin="round" d="M114.361,39.428
				c-0.505,0.337-0.505,0.673,0,1.01c0.505,0.337,1.346,0.337,1.851,0c0.505-0.337,0.505-0.841,0-1.01
				C115.707,39.092,114.866,39.092,114.361,39.428z"/>
			<path id="Shape-Copy-2" fill="none" stroke="#2C2F31" stroke-linecap="round" stroke-linejoin="round" d="M70.49,68.034
				c-0.505,0.337-0.505,0.673,0,1.01c0.505,0.337,1.346,0.337,1.851,0c0.505-0.337,0.505-0.841,0-1.01
				C71.836,67.697,70.995,67.697,70.49,68.034z"/>
			<path id="Shape-Copy-2_1_" fill="none" stroke="#2C2F31" stroke-linecap="round" stroke-linejoin="round" d="M70.49,62.425
				c-0.505,0.337-0.505,0.673,0,1.01c0.505,0.337,1.346,0.337,1.851,0s0.505-0.841,0-1.01C71.836,62.088,70.995,62.088,70.49,62.425
				z"/>
			<path id="Shape_23_" fill="none" stroke="#2C2F31" stroke-linecap="round" stroke-linejoin="round" d="M115.431,51.61
				c-0.505,0.337-0.505,0.673,0,1.01c0.505,0.337,1.346,0.337,1.851,0c0.505-0.337,0.505-0.841,0-1.01
				C116.777,51.273,115.936,51.273,115.431,51.61z"/>
			<path id="Shape_24_" fill="#FFFFFF" stroke="#2C2F31" stroke-linecap="round" stroke-linejoin="round" d="M118.572,32.683
				l-6.394-3.702v10.433l6.394-3.702C120.087,34.871,120.087,33.525,118.572,32.683z"/>
			<g id="Group-10" transform="translate(26.044515, 12.230588)">
				<path id="Path-6-Copy" fill="#0971FF" stroke="#2C2F31" stroke-width="0.864" d="M1.239,22.301l31.479,18.292
					c1.067,0.62,2.385,0.624,3.456,0.01l31.807-18.242c0.828-0.475,1.114-1.531,0.639-2.359c-0.153-0.267-0.376-0.489-0.643-0.642
					L35.971,1.122c-1.07-0.61-2.383-0.604-3.447,0.014L1.239,19.313c-0.825,0.479-1.105,1.537-0.626,2.362
					C0.763,21.934,0.979,22.15,1.239,22.301z"/>
			</g>
			<path id="logo" fill="#FFFFFF" d="M69.171,31.527l-9.072-0.049c-0.159-0.001-0.291,0.066-0.295,0.15l-0.023,0.499
				c-0.004,0.084-0.136,0.151-0.295,0.15l-1.741-0.009c-0.159-0.001-0.284-0.069-0.28-0.153l0.081-1.736
				c0.004-0.084,0.137-0.151,0.297-0.15l9.113,0.092l-2.342-1.276l-0.027,0.58c-0.004,0.084-0.138,0.152-0.298,0.15l-1.745-0.023
				c-0.157-0.002-0.28-0.07-0.276-0.153l0.084-1.787l-0.889-0.484c-0.18-0.098-0.483-0.1-0.672-0.004l-9.041,4.593
				c-0.189,0.096-0.197,0.255-0.016,0.353l0.845,0.46l9.181,0.05c0.159,0.001,0.291-0.066,0.294-0.15l0.023-0.499
				c0.004-0.084,0.136-0.151,0.295-0.15l1.741,0.009c0.159,0.001,0.284,0.069,0.28,0.153L64.31,33.88
				c-0.004,0.084-0.137,0.151-0.297,0.15l-9.222-0.093l2.449,1.334l0.03-0.637c0.004-0.084,0.139-0.152,0.299-0.15l1.745,0.023
				c0.157,0.002,0.28,0.07,0.276,0.153l-0.086,1.837l0.836,0.462c0.18,0.098,0.482,0.1,0.672,0.004l9.041-4.592
				c0.189-0.096,0.197-0.255,0.016-0.353"/>
		</g>
		<g id="xCert" transform="translate(395.000000, 517.000000)">
			<text transform="matrix(1 0 0 1 0.36 15)" fill="#2C2F31" font-family="'Helvetica'" font-size="16">xCert</text>
		</g>
	</g>
</g>
</svg>
