<?xml version="1.0" encoding="utf-8"?>
<!-- Generator: Adobe Illustrator 17.0.0, SVG Export Plug-In . SVG Version: 6.00 Build 0)  -->
<!DOCTYPE svg PUBLIC "-//W3C//DTD SVG 1.1//EN" "http://www.w3.org/Graphics/SVG/1.1/DTD/svg11.dtd">
<svg version="1.1" id="Layer_1" xmlns="http://www.w3.org/2000/svg" xmlns:xlink="http://www.w3.org/1999/xlink" x="0px" y="0px"
	 width="875px" height="530px" viewBox="0 -4 875 530" enable-background="new 0 -4 875 530" xml:space="preserve">
<title>05</title>
<desc>Created with Sketch.</desc>
<path id="Line" fill="none" stroke="#AAB1B5" stroke-linecap="round" stroke-linejoin="round" stroke-dasharray="6,12" d="
	M801.924,122.128V24.51L86.245,24.575l-0.021,92.681"/>
<path id="Line-5" fill="none" stroke="#AAB1B5" stroke-linecap="round" stroke-linejoin="round" d="M275.352,450.632h65.532"/>
<path id="Line-5_1_" fill="none" stroke="#AAB1B5" stroke-linecap="round" stroke-linejoin="round" d="M87,293.022V483.82"/>
<path id="Line-5_2_" fill="none" stroke="#AAB1B5" stroke-linecap="round" stroke-linejoin="round" d="M275,419v64.471"/>
<path id="Line-5_3_" fill="none" stroke="#AAB1B5" stroke-linecap="round" stroke-linejoin="round" d="M274.973,483.938H87.224"/>
<path id="Line-5_4_" fill="none" stroke="#AAB1B5" stroke-linecap="round" stroke-linejoin="round" d="M275.073,419H87"/>
<path id="Line-5_5_" fill="none" stroke="#AAB1B5" stroke-linecap="round" stroke-linejoin="round" d="M336.513,354H87"/>
<path id="Line-3" fill="none" stroke="#AAB1B5" stroke-linecap="round" stroke-linejoin="round" d="M443.728,303.875V232"/>
<g id="Arrow-head" transform="translate(46.672000, 121.976000)">
	<path id="Line-4" fill="none" stroke="#AAB1B5" stroke-linecap="round" stroke-linejoin="round" d="M39.552-3.599l11.329-13.217"/>
	<path id="Line-4_1_" fill="none" stroke="#AAB1B5" stroke-linecap="round" stroke-linejoin="round" d="M39.552-3.856L28.223-17.073
		"/>
</g>
<g id="Arrow-head_1_" transform="translate(306.500000, 378.500000) rotate(-90.000000) translate(-306.500000, -378.500000) translate(293.000000, 368.000000)">
	<path id="Line-4_2_" fill="none" stroke="#AAB1B5" stroke-linecap="round" stroke-linejoin="round" d="M37.552,42.401
		l11.329-13.217"/>
	<path id="Line-4_3_" fill="none" stroke="#AAB1B5" stroke-linecap="round" stroke-linejoin="round" d="M37.552,42.144
		L26.223,28.927"/>
</g>
<g id="Blockchain" transform="translate(206.000000, 204.000000)">
	<polygon fill="#F7F7F7" stroke="#2C2F31" stroke-linecap="round" stroke-linejoin="round" points="24,-22 452,-22 452,28 
		24,27.865 	"/>
	<path fill="#2C2F31" d="M190.436,9V-2.2h3.776c1.259,0,2.171,0.285,2.736,0.856c0.565,0.571,0.848,1.283,0.848,2.136
		c0,1.099-0.485,1.867-1.456,2.304c0.597,0.203,1.053,0.544,1.368,1.024s0.472,1.013,0.472,1.6c0,0.896-0.301,1.667-0.904,2.312
		C196.673,8.677,195.732,9,194.452,9C194.452,9,190.436,9,190.436,9z M192.34,2.328h1.616c0.64,0,1.123-0.125,1.448-0.376
		s0.488-0.595,0.488-1.032c0-0.907-0.544-1.36-1.632-1.36h-1.92V2.328z M192.34,7.24h2.24c0.608,0,1.043-0.147,1.304-0.44
		s0.392-0.648,0.392-1.064c0-1.109-0.72-1.664-2.16-1.664h-1.776V7.24z M204.916,7.384h2.384V9h-6.608V7.384h2.384v-8.32h-1.904
		l-0.848-1.616h4.592L204.916,7.384L204.916,7.384z M213.86,9.192c-1.205,0-2.16-0.381-2.864-1.144s-1.056-1.805-1.056-3.128
		c0-1.312,0.352-2.355,1.056-3.128s1.659-1.16,2.864-1.16c1.216,0,2.173,0.387,2.872,1.16s1.048,1.816,1.048,3.128
		s-0.349,2.352-1.048,3.12S215.076,9.192,213.86,9.192z M213.86,7.432c0.661,0,1.171-0.224,1.528-0.672s0.536-1.061,0.536-1.84
		s-0.179-1.397-0.536-1.856s-0.867-0.688-1.528-0.688c-0.651,0-1.157,0.229-1.52,0.688s-0.544,1.077-0.544,1.856
		c0,0.768,0.181,1.379,0.544,1.832C212.703,7.205,213.209,7.432,213.86,7.432z M223.876,9.192c-1.152,0-2.064-0.379-2.736-1.136
		s-1.008-1.803-1.008-3.136c0-1.323,0.344-2.368,1.032-3.136s1.603-1.152,2.744-1.152c1.739,0,2.859,0.741,3.36,2.224l-1.744,0.592
		c-0.277-0.715-0.811-1.072-1.6-1.072c-0.608,0-1.08,0.229-1.416,0.688s-0.504,1.077-0.504,1.856s0.168,1.392,0.504,1.84
		s0.797,0.672,1.384,0.672c0.853,0,1.413-0.4,1.68-1.2l1.744,0.544C226.825,8.387,225.679,9.192,223.876,9.192z M235.444,9
		l-2.336-4.512l-1.216,1.168V9h-1.84V-1.688l1.84-0.864v6.176l2.848-2.8h2.192l-2.464,2.368L237.46,9H235.444z M243.588,9.192
		c-1.152,0-2.064-0.379-2.736-1.136c-0.672-0.757-1.008-1.803-1.008-3.136c0-1.323,0.344-2.368,1.032-3.136s1.603-1.152,2.744-1.152
		c1.739,0,2.859,0.741,3.36,2.224l-1.744,0.592c-0.277-0.715-0.811-1.072-1.6-1.072c-0.608,0-1.08,0.229-1.416,0.688
		s-0.504,1.077-0.504,1.856s0.168,1.392,0.504,1.84s0.797,0.672,1.384,0.672c0.853,0,1.413-0.4,1.68-1.2l1.744,0.544
		C246.537,8.387,245.391,9.192,243.588,9.192z M249.7,9V-1.704l1.84-0.848v4.176c0.533-0.661,1.307-0.992,2.32-0.992
		c0.896,0,1.624,0.269,2.184,0.808c0.56,0.539,0.84,1.395,0.84,2.568V9h-1.84V4.392c0-0.704-0.157-1.216-0.472-1.536
		s-0.723-0.48-1.224-0.48c-0.533,0-0.968,0.155-1.304,0.464c-0.336,0.309-0.504,0.816-0.504,1.52V9H249.7z M262.516,9.192
		c-0.896,0-1.624-0.235-2.184-0.704s-0.84-1.141-0.84-2.016c0-0.885,0.32-1.557,0.96-2.016c0.64-0.459,1.408-0.688,2.304-0.688
		c0.779,0,1.456,0.144,2.032,0.432V3.72c0-0.981-0.539-1.472-1.616-1.472c-0.896,0-1.76,0.277-2.592,0.832l-0.56-1.504
		c0.992-0.629,2.096-0.944,3.312-0.944c2.165,0,3.248,1.024,3.248,3.072V9h-1.792V8.36C264.212,8.915,263.455,9.192,262.516,9.192z
		 M262.852,7.576c0.768,0,1.413-0.272,1.936-0.816V5.704c-0.491-0.245-1.072-0.368-1.744-0.368c-0.512,0-0.936,0.096-1.272,0.288
		s-0.504,0.475-0.504,0.848c0,0.331,0.139,0.597,0.416,0.8C261.961,7.475,262.351,7.576,262.852,7.576z M273.06-0.312
		c-0.299,0-0.555-0.107-0.768-0.32s-0.32-0.475-0.32-0.784s0.107-0.568,0.32-0.776s0.469-0.312,0.768-0.312
		c0.309,0,0.571,0.104,0.784,0.312s0.32,0.467,0.32,0.776s-0.107,0.571-0.32,0.784S273.369-0.312,273.06-0.312z M273.988,7.384
		h2.256V9h-6.352V7.384h2.256V2.44h-2.256V0.824h4.096L273.988,7.384L273.988,7.384z M283.428,0.632
		c0.896,0,1.624,0.269,2.184,0.808c0.56,0.539,0.84,1.395,0.84,2.568V9h-1.84V4.392c0-0.704-0.155-1.216-0.464-1.536
		s-0.72-0.48-1.232-0.48c-1.205,0-1.808,0.661-1.808,1.984V9h-1.84V0.824h1.696v1.008c0.16-0.32,0.472-0.6,0.936-0.84
		C282.364,0.752,282.873,0.632,283.428,0.632z"/>
</g>
<rect id="_x32_" x="340" y="304" fill="none" stroke="#2C2F31" stroke-linecap="round" stroke-linejoin="round" width="207.36" height="207.36"/>
<g id="Group" transform="translate(715.000000, 148.000000)">
	<g id="Mask">
		<circle id="path-1_1_" fill="#F7F7F7" cx="84" cy="38" r="60"/>
	</g>
	<defs>
		<filter id="Adobe_OpacityMaskFilter" filterUnits="userSpaceOnUse" x="42.435" y="-14.284" width="83.429" height="123.033">
			<feColorMatrix  type="matrix" values="1 0 0 0 0  0 1 0 0 0  0 0 1 0 0  0 0 0 1 0"/>
		</filter>
	</defs>
	<mask maskUnits="userSpaceOnUse" x="42.435" y="-14.284" width="83.429" height="123.033" id="mask-2">
		<g filter="url(#Adobe_OpacityMaskFilter)">
			<circle id="path-1" fill="#FFFFFF" cx="84" cy="38" r="60"/>
		</g>
	</mask>
	<g mask="url(#mask-2)">
		<g transform="translate(19.285714, 8.571429)">
			<path id="Shape" fill="none" stroke="#2C2F31" stroke-width="2" stroke-linecap="round" stroke-linejoin="round" d="
				M79.018,44.429c-1.586,3.568,0.761,6.429,2.904,7.875c-2.25,4.811-9.557,8.925-17.057,8.925s-15.504-4.146-17.057-8.925
				c2.143-1.243,4.521-4.286,2.871-7.875H79.018z"/>
			<path id="Shape_1_" fill="#FFFFFF" stroke="#2C2F31" stroke-width="2" stroke-linecap="round" stroke-linejoin="round" d="
				M67.2,50.954h-4.629c-4.019-0.004-7.873-1.604-10.714-4.446l-3.536-3.461c-5.188-5.189-8.101-12.227-8.1-19.564V5.268
				c0-24.439,49.286-24.439,49.286,0v18.214c0.001,7.338-2.912,14.375-8.1,19.564l-3.471,3.471
				C75.087,49.362,71.225,50.958,67.2,50.954z"/>
			<path id="Shape_2_" fill="none" stroke="#2C2F31" stroke-width="2" stroke-linecap="round" stroke-linejoin="round" d="
				M40.221,26.011v-9.643c0-3.214-2.389-4.286-3.857-3.214c-2.346,1.639,0.643,8.571,0.643,8.571
				C35.271,22.839,37.232,26.793,40.221,26.011z"/>
			<path id="Shape_3_" fill="none" stroke="#2C2F31" stroke-width="2" stroke-linecap="round" stroke-linejoin="round" d="
				M89.507,25.625v-9.643c0-3.214,2.379-4.286,3.857-3.214c2.346,1.639-0.643,8.571-0.643,8.571
				C94.468,22.454,92.496,26.418,89.507,25.625z"/>
			<path id="Shape_4_" fill="#FFFFFF" stroke="#2C2F31" stroke-width="2" stroke-linecap="round" stroke-linejoin="round" d="
				M77.443-19.932c8.261,3.504,19.286,13.286,14.764,27.718c-0.664,2.143-1.629,1.393-2.7,1.2c0,0-0.171-8.421-4.286-7.554
				C75.428,3.489,70.607-4.386,58.714,4.25c-1.65-2.711-0.514-8.871,3.675-12.107c-9.804,0-22.168,6.011-22.168,13.232
				c0,0-3.279-2.421-3.546-4.811c-1.232-10.779,4.301-16.265,13.966-20.379C58.512-23.164,73.039-21.796,77.443-19.932z"/>
			
				<circle id="Oval" fill="none" stroke="#2C2F31" stroke-width="2" stroke-linecap="round" stroke-linejoin="round" cx="77.186" cy="19.346" r="1.607"/>
			
				<circle id="Oval_1_" fill="none" stroke="#2C2F31" stroke-width="2" stroke-linecap="round" stroke-linejoin="round" cx="52.564" cy="19.346" r="1.607"/>
			<path id="Shape_5_" fill="#FFFFFF" stroke="#2C2F31" stroke-width="2" stroke-linecap="round" stroke-linejoin="round" d="
				M89.089,55.143c0,0-7.232-2.871-6.954-2.711c-2.271,4.854-9.921,9.032-17.271,9.032s-15.6-4.179-17.293-8.979l-6.654,2.764
				C30.806,59.37,24.184,69.188,24.149,80.106v19.071h81.429V79.891C105.55,69.08,99.057,59.334,89.089,55.143z"/>
			<path id="Line_1_" fill="none" stroke="#2C2F31" stroke-width="2" stroke-linecap="round" stroke-linejoin="round" d="
				M42.75,98.536V79.22"/>
			<path id="Line_2_" fill="none" stroke="#2C2F31" stroke-width="2" stroke-linecap="round" stroke-linejoin="round" d="
				M86.679,98.536V79.22"/>
			<path id="Stroke-9" fill="none" stroke="#2C2F31" stroke-width="2" stroke-linecap="round" stroke-linejoin="round" d="
				M71.551,34.786c0,0-2.971,3.316-6.633,3.316c-3.661,0-6.633-3.316-6.633-3.316"/>
		</g>
	</g>
</g>
<g id="Group_2_" transform="translate(0.000000, 148.000000)">
	<g id="Mask_1_">
		<circle id="path-3_1_" fill="#F7F7F7" cx="84" cy="38" r="60"/>
	</g>
	<defs>
		<filter id="Adobe_OpacityMaskFilter_1_" filterUnits="userSpaceOnUse" x="42.435" y="-14.284" width="83.429" height="123.033">
			<feColorMatrix  type="matrix" values="1 0 0 0 0  0 1 0 0 0  0 0 1 0 0  0 0 0 1 0"/>
		</filter>
	</defs>
	<mask maskUnits="userSpaceOnUse" x="42.435" y="-14.284" width="83.429" height="123.033" id="mask-4">
		<g filter="url(#Adobe_OpacityMaskFilter_1_)">
			<circle id="path-3" fill="#FFFFFF" cx="84" cy="38" r="60"/>
		</g>
	</mask>
	<g mask="url(#mask-4)">
		<g transform="translate(19.285714, 8.571429)">
			<path id="Shape_6_" fill="none" stroke="#2C2F31" stroke-width="2" stroke-linecap="round" stroke-linejoin="round" d="
				M79.018,44.429c-1.586,3.568,0.761,6.429,2.904,7.875c-2.25,4.811-9.557,8.925-17.057,8.925s-15.504-4.146-17.057-8.925
				c2.143-1.243,4.521-4.286,2.871-7.875H79.018z"/>
			<path id="Shape_7_" fill="#FFFFFF" stroke="#2C2F31" stroke-width="2" stroke-linecap="round" stroke-linejoin="round" d="
				M67.2,50.954h-4.629c-4.019-0.004-7.873-1.604-10.714-4.446l-3.536-3.461c-5.188-5.189-8.101-12.227-8.1-19.564V5.268
				c0-24.439,49.286-24.439,49.286,0v18.214c0.001,7.338-2.912,14.375-8.1,19.564l-3.471,3.471
				C75.087,49.362,71.225,50.958,67.2,50.954z"/>
			<path id="Shape_8_" fill="none" stroke="#2C2F31" stroke-width="2" stroke-linecap="round" stroke-linejoin="round" d="
				M40.221,26.011v-9.643c0-3.214-2.389-4.286-3.857-3.214c-2.346,1.639,0.643,8.571,0.643,8.571
				C35.271,22.839,37.232,26.793,40.221,26.011z"/>
			<path id="Shape_9_" fill="none" stroke="#2C2F31" stroke-width="2" stroke-linecap="round" stroke-linejoin="round" d="
				M89.507,25.625v-9.643c0-3.214,2.379-4.286,3.857-3.214c2.346,1.639-0.643,8.571-0.643,8.571
				C94.468,22.454,92.496,26.418,89.507,25.625z"/>
			<path id="Shape_10_" fill="#FFFFFF" stroke="#2C2F31" stroke-width="2" stroke-linecap="round" stroke-linejoin="round" d="
				M77.443-19.932c8.261,3.504,19.286,13.286,14.764,27.718c-0.664,2.143-1.629,1.393-2.7,1.2c0,0-0.171-8.421-4.286-7.554
				C75.428,3.489,70.607-4.386,58.714,4.25c-1.65-2.711-0.514-8.871,3.675-12.107c-9.804,0-22.168,6.011-22.168,13.232
				c0,0-3.279-2.421-3.546-4.811c-1.232-10.779,4.301-16.265,13.966-20.379C58.512-23.164,73.039-21.796,77.443-19.932z"/>
			<path id="Shape_11_" fill="#FFFFFF" stroke="#2C2F31" stroke-width="2" stroke-linecap="round" stroke-linejoin="round" d="
				M89.089,55.143c0,0-7.232-2.871-6.954-2.711c-2.271,4.854-9.921,9.032-17.271,9.032s-15.6-4.179-17.293-8.979l-6.654,2.764
				C30.806,59.37,24.184,69.188,24.149,80.106v19.071h81.429V79.891C105.55,69.08,99.057,59.334,89.089,55.143z"/>
			<path id="Line_3_" fill="none" stroke="#2C2F31" stroke-width="2" stroke-linecap="round" stroke-linejoin="round" d="
				M42.75,98.536V79.22"/>
			<path id="Line_4_" fill="none" stroke="#2C2F31" stroke-width="2" stroke-linecap="round" stroke-linejoin="round" d="
				M86.679,98.536V79.22"/>
			<g id="Group_1_" transform="translate(30.560440, 38.505495)">
				<path id="Line_5_" fill="none" stroke="#2C2F31" stroke-width="2" stroke-linecap="round" stroke-linejoin="round" d="
					M24.923-21.802v5.203"/>
				<path id="Line-Copy" fill="none" stroke="#2C2F31" stroke-width="2" stroke-linecap="round" stroke-linejoin="round" d="
					M44.308-21.802v5.203"/>
				<path id="Line-2" fill="none" stroke="#2C2F31" stroke-width="2" stroke-linecap="round" stroke-linejoin="round" d="
					M28.154-3.077l13.385-3.231"/>
			</g>
		</g>
	</g>
</g>
<path id="Holder" fill="#2C2F31" d="M773.648,271v-11.2h1.904v4.528h3.616V259.8h1.904V271h-1.904v-4.88h-3.616V271H773.648z
	 M787.216,271.192c-1.205,0-2.16-0.381-2.864-1.144c-0.704-0.763-1.056-1.805-1.056-3.128c0-1.312,0.352-2.355,1.056-3.128
	c0.704-0.773,1.659-1.16,2.864-1.16c1.216,0,2.173,0.387,2.872,1.16c0.699,0.773,1.048,1.816,1.048,3.128
	c0,1.312-0.349,2.352-1.048,3.12S788.432,271.192,787.216,271.192z M787.216,269.432c0.661,0,1.171-0.224,1.528-0.672
	s0.536-1.061,0.536-1.84s-0.179-1.397-0.536-1.856c-0.357-0.459-0.867-0.688-1.528-0.688c-0.651,0-1.157,0.229-1.52,0.688
	s-0.544,1.077-0.544,1.856c0,0.768,0.181,1.379,0.544,1.832C786.059,269.205,786.565,269.432,787.216,269.432z M797.984,269.384
	h2.384V271h-6.608v-1.616h2.384v-8.32h-1.904l-0.848-1.616h4.592L797.984,269.384L797.984,269.384z M806.64,271.192
	c-1.12,0-2-0.376-2.64-1.128s-0.96-1.805-0.96-3.16c0-1.312,0.328-2.352,0.984-3.12s1.512-1.152,2.568-1.152
	c0.875,0,1.552,0.261,2.032,0.784v-3.12l1.84-0.848V271h-1.84v-0.624c-0.171,0.224-0.435,0.416-0.792,0.576
	S807.077,271.192,806.64,271.192z M806.896,269.432c0.8,0,1.376-0.267,1.728-0.8v-3.456c-0.384-0.533-0.971-0.8-1.76-0.8
	c-0.629,0-1.115,0.219-1.456,0.656s-0.512,1.061-0.512,1.872c0,0.768,0.173,1.381,0.52,1.84
	C805.763,269.203,806.256,269.432,806.896,269.432z M820.512,266.504c0,0.469-0.021,0.843-0.064,1.12h-5.568
	c0.117,0.597,0.355,1.069,0.712,1.416s0.819,0.52,1.384,0.52c0.715,0,1.317-0.267,1.808-0.8l1.104,1.168
	c-0.768,0.843-1.744,1.264-2.928,1.264c-1.205,0-2.157-0.389-2.856-1.168c-0.699-0.779-1.048-1.819-1.048-3.12
	c0-1.323,0.352-2.365,1.056-3.128s1.653-1.144,2.848-1.144c1.045,0,1.899,0.328,2.56,0.984S820.512,265.235,820.512,266.504z
	 M814.864,266.056h3.84c-0.053-0.597-0.243-1.048-0.568-1.352s-0.717-0.456-1.176-0.456c-0.587,0-1.059,0.16-1.416,0.48
	C815.187,265.048,814.96,265.491,814.864,266.056z M828.768,262.632c0.736,0,1.376,0.144,1.92,0.432v3.024h-1.792v-1.744h-0.16
	c-0.843,0-1.493,0.197-1.952,0.592c-0.459,0.395-0.688,0.987-0.688,1.776v2.672h2.288V271h-5.856v-1.616h1.728v-4.944h-1.728v-1.616
	h3.44v1.312c0.224-0.469,0.592-0.837,1.104-1.104C827.584,262.765,828.149,262.632,828.768,262.632z"/>
<g id="check" transform="translate(138.000000, 425.000000)">
	
		<circle id="Oval_2_" fill="#FFFFFF" stroke="#AAB1B5" stroke-linecap="round" stroke-linejoin="round" cx="39.72" cy="-6.336" r="15.552"/>
	<polyline id="Line-6" fill="none" stroke="#000000" stroke-width="1.728" stroke-linecap="round" points="34.536,-5.159 
		38.405,-1.428 44.904,-9.792 	"/>
</g>
<g id="x" transform="translate(138.000000, 489.000000)">
	
		<circle id="Oval_3_" fill="#FFFFFF" stroke="#AAB1B5" stroke-linecap="round" stroke-linejoin="round" cx="39.72" cy="-6.4" r="15.552"/>
	<g id="Line-6_1_" transform="translate(10.536000, 10.416000)">
		<path fill="none" stroke="#000000" stroke-width="1.728" stroke-linecap="round" d="M24-11.632L34.368-22"/>
		<path fill="none" stroke="#000000" stroke-width="1.728" stroke-linecap="round" stroke-linejoin="round" d="M34.368-11.632L24-22
			L34.368-11.632z"/>
	</g>
</g>
<g id="Step1" transform="translate(400.000000, 27.000000)">
	<circle id="Oval_4_" fill="#E5E5E5" cx="42.749" cy="-3.251" r="18.749"/>
	<polygon id="_x31_" fill="#7D8285" points="43.634,0.022 46.116,0.022 46.116,1.677 39.381,1.677 39.381,0.022 41.907,0.022 
		41.907,-6.292 39.701,-5.697 39.701,-7.323 43.634,-8.498 	"/>
</g>
<g id="Step2" transform="translate(44.000000, 324.000000)">
	<circle id="Oval_5_" fill="#E5E5E5" cx="42.749" cy="-3.251" r="18.749"/>
	<path id="_x32__1_" fill="#7D8285" d="M39.089,2c0-0.697,0.087-1.333,0.261-1.909s0.428-1.074,0.762-1.495
		c0.334-0.421,0.682-0.779,1.045-1.074c0.363-0.295,0.791-0.588,1.285-0.878c0.523-0.319,0.924-0.624,1.205-0.914
		c0.281-0.29,0.421-0.644,0.421-1.06s-0.131-0.75-0.392-1.002c-0.261-0.252-0.614-0.377-1.06-0.377c-0.91,0-1.529,0.421-1.858,1.263
		l-1.539-0.697c0.261-0.658,0.694-1.188,1.299-1.589c0.605-0.402,1.294-0.602,2.068-0.602c0.997,0,1.783,0.278,2.359,0.835
		c0.576,0.556,0.864,1.265,0.864,2.126c0,0.445-0.06,0.842-0.181,1.19S45.309-3.52,45.033-3.24s-0.542,0.51-0.798,0.689
		s-0.607,0.399-1.052,0.66c-1.2,0.726-1.892,1.471-2.076,2.235h4.79V2H39.089z"/>
</g>
<g id="or" transform="translate(240.000000, 458.000000)">
	
		<circle id="Oval_6_" fill="#F7F7F7" stroke="#AAB1B5" stroke-linecap="round" stroke-linejoin="round" cx="35.352" cy="-7.368" r="11.232"/>
	<path fill="#2C2F31" d="M34.301-4.942c-0.449,0.498-1.051,0.746-1.804,0.746c-0.753,0-1.355-0.245-1.804-0.736
		c-0.449-0.491-0.674-1.168-0.674-2.032c0-0.857,0.225-1.534,0.674-2.032s1.051-0.746,1.804-0.746c0.76,0,1.363,0.245,1.809,0.736
		c0.446,0.491,0.669,1.168,0.669,2.032C34.975-6.117,34.751-5.44,34.301-4.942z M32.497-5.015c0.498,0,0.885-0.175,1.161-0.524
		s0.415-0.828,0.415-1.436c0-0.615-0.135-1.096-0.404-1.441c-0.27-0.346-0.66-0.518-1.172-0.518c-0.511,0-0.902,0.171-1.172,0.513
		c-0.27,0.342-0.404,0.828-0.404,1.457c0,0.608,0.137,1.085,0.41,1.431C31.604-5.187,31.993-5.015,32.497-5.015z M40.19-9.742
		c0.491,0,0.878,0.083,1.161,0.249v1.835H40.47v-1.203c-0.069-0.007-0.176-0.01-0.321-0.01c-0.539,0-0.994,0.131-1.363,0.394
		c-0.37,0.263-0.555,0.632-0.555,1.109v2.26h1.545v0.788H36.22v-0.788h1.109V-8.83H36.22v-0.788h1.949v0.923
		c0.18-0.318,0.461-0.572,0.845-0.762C39.397-9.647,39.79-9.742,40.19-9.742z"/>
</g>
<g id="Graphic" transform="translate(361.000000, 377.000000)">
	<path id="Path-6-Copy-2" fill="none" stroke="#2C2F31" stroke-linecap="round" stroke-linejoin="round" d="M25.173,31.884
		l50.471,29.328c5.337,3.101,11.924,3.12,17.279,0.049l51.055-29.28c0.828-0.475,1.114-1.531,0.639-2.359
		c-0.153-0.267-0.376-0.489-0.643-0.642L92.564-0.315c-5.348-3.048-11.914-3.02-17.236,0.072L25.173,28.896
		c-0.825,0.479-1.105,1.537-0.626,2.362C24.698,31.517,24.913,31.733,25.173,31.884z"/>
	<path id="Shape_12_" fill="#F7F7F7" stroke="#2C2F31" stroke-width="0.864" stroke-linecap="round" stroke-linejoin="round" d="
		M84.632,13.824c0.505-0.337,0.505-0.841,0-1.01c-0.505-0.337-1.346-0.337-1.851,0s-0.505,0.673,0,1.01
		C83.286,13.993,84.127,13.993,84.632,13.824z"/>
	<path id="Shape_13_" fill="none" stroke="#2C2F31" stroke-linecap="round" stroke-linejoin="round" d="M29.253,29.61
		c-0.505,0.337-0.505,0.673,0,1.01s1.346,0.337,1.851,0s0.505-0.841,0-1.01C30.599,29.273,29.758,29.273,29.253,29.61z"/>
	<path id="Shape_14_" fill="none" stroke="#2C2F31" stroke-linecap="round" stroke-linejoin="round" d="M81.099-15.847L25.57,16.292
		c-1.514,0.841-1.514,2.187,0,3.197l55.528,32.139c1.514,0.841,3.87,0.841,5.385,0l7.067-4.038c-1.178-0.673-1.178-1.851,0-2.524
		c1.178-0.673,3.029-0.673,4.207,0l44.254-25.577c1.514-0.841,1.514-2.187,0-3.197L86.483-15.847
		C84.969-16.688,82.445-16.688,81.099-15.847z"/>
	<path id="Shape_15_" fill="#FFFFFF" stroke="#2C2F31" stroke-linecap="round" stroke-linejoin="round" d="M83.791,47.02
		c-0.841,0-1.851-1.168-2.524-1.505L25.739,13.376c-0.505-0.337-0.841-0.673-0.841-1.178c0-0.337,0.337-0.841,0.841-1.178
		l55.528-32.139c0.673-0.337,1.514-0.505,2.524-0.505c0.841,0,1.851,0.168,2.524,0.505l55.528,32.139
		c0.505,0.337,0.841,0.673,0.841,1.178c0,0.337-0.337,0.841-0.841,1.178L97.925,38.784c-0.673-0.337-1.346-0.505-2.187-0.505
		c-0.841,0-1.683,0.168-2.356,0.505c-0.673,0.505-1.178,1.01-1.178,1.683c0,0.505,0.168,0.841,0.505,1.178l-6.394,3.702
		C85.474,45.851,84.632,47.02,83.791,47.02z"/>
	<path id="Shape_16_" fill="none" stroke="#2C2F31" stroke-linecap="round" stroke-linejoin="round" d="M30.253,11.693
		c-0.505,0.337-0.505,0.673,0,1.01s1.346,0.337,1.851,0c0.505-0.337,0.505-0.841,0-1.01C31.599,11.357,30.758,11.357,30.253,11.693z
		"/>
	<path id="Shape_17_" fill="none" stroke="#2C2F31" stroke-linecap="round" stroke-linejoin="round" d="M30.253,17.863
		c-0.505,0.337-0.505,0.673,0,1.01c0.505,0.337,1.346,0.337,1.851,0c0.505-0.337,0.505-0.841,0-1.01
		C31.599,17.526,30.758,17.526,30.253,17.863z"/>
	<path id="Shape_18_" fill="none" stroke="#2C2F31" stroke-linecap="round" stroke-linejoin="round" d="M138.361,17.428
		c-0.505,0.337-0.505,0.673,0,1.01c0.505,0.337,1.346,0.337,1.851,0s0.505-0.841,0-1.01
		C139.707,17.092,138.866,17.092,138.361,17.428z"/>
	<path id="Shape-Copy-2" fill="none" stroke="#2C2F31" stroke-linecap="round" stroke-linejoin="round" d="M94.49,46.034
		c-0.505,0.337-0.505,0.673,0,1.01c0.505,0.337,1.346,0.337,1.851,0s0.505-0.841,0-1.01C95.836,45.697,94.995,45.697,94.49,46.034z"
		/>
	<path id="Shape-Copy-2_1_" fill="none" stroke="#2C2F31" stroke-linecap="round" stroke-linejoin="round" d="M94.49,40.425
		c-0.505,0.337-0.505,0.673,0,1.01c0.505,0.337,1.346,0.337,1.851,0s0.505-0.841,0-1.01C95.836,40.088,94.995,40.088,94.49,40.425z"
		/>
	<path id="Shape_19_" fill="none" stroke="#2C2F31" stroke-linecap="round" stroke-linejoin="round" d="M139.431,29.61
		c-0.505,0.337-0.505,0.673,0,1.01c0.505,0.337,1.346,0.337,1.851,0s0.505-0.841,0-1.01
		C140.777,29.273,139.936,29.273,139.431,29.61z"/>
	<path id="Shape_20_" fill="#FFFFFF" stroke="#2C2F31" stroke-linecap="round" stroke-linejoin="round" d="M142.572,10.683
		l-6.394-3.702v10.433l6.394-3.702C144.087,12.871,144.087,11.525,142.572,10.683z"/>
	<g id="Group-10" transform="translate(26.044515, 12.230588)">
		<path id="Path-6-Copy" stroke="#2C2F31" stroke-width="0.864" d="M25.239,0.301l31.479,18.292c1.067,0.62,2.385,0.624,3.456,0.01
			L91.981,0.361c0.828-0.475,1.114-1.531,0.639-2.359c-0.153-0.267-0.376-0.489-0.643-0.642L59.971-20.878
			c-1.07-0.61-2.383-0.604-3.447,0.014L25.239-2.687c-0.825,0.479-1.105,1.537-0.626,2.362C24.763-0.066,24.979,0.15,25.239,0.301z"
			/>
	</g>
	<path id="logo" fill="#FFFFFF" d="M93.171,9.527l-9.072-0.049c-0.159-0.001-0.291,0.066-0.295,0.15l-0.023,0.499
		c-0.004,0.084-0.136,0.151-0.295,0.15l-1.741-0.009c-0.159-0.001-0.284-0.069-0.28-0.153l0.081-1.736
		c0.004-0.084,0.137-0.151,0.297-0.15l9.113,0.092l-2.342-1.276l-0.027,0.58c-0.004,0.084-0.138,0.152-0.298,0.15l-1.745-0.023
		c-0.157-0.002-0.28-0.07-0.276-0.153l0.084-1.787l-0.889-0.484c-0.18-0.098-0.483-0.1-0.672-0.004L75.75,9.916
		c-0.189,0.096-0.197,0.255-0.016,0.353l0.845,0.46l9.181,0.05c0.159,0.001,0.291-0.066,0.294-0.15l0.023-0.499
		c0.004-0.084,0.136-0.151,0.295-0.15l1.741,0.009c0.159,0.001,0.284,0.069,0.28,0.153L88.31,11.88
		c-0.004,0.084-0.137,0.151-0.297,0.15l-9.222-0.093l2.449,1.334l0.03-0.637c0.004-0.084,0.139-0.152,0.299-0.15l1.745,0.023
		c0.157,0.002,0.28,0.07,0.276,0.153l-0.086,1.837l0.836,0.462c0.18,0.098,0.482,0.1,0.672,0.004l9.041-4.592
		c0.189-0.096,0.197-0.255,0.016-0.353"/>
</g>
<g>
	<path d="M430.681,478.048h-2.467l-2.447-4.5l-2.412,4.5h-2.466l3.743-6.516l-3.491-6.084h2.466l2.178,4.031l2.16-4.031h2.466
		l-3.492,6.048L430.681,478.048z"/>
	<path d="M437.052,478.264c-1.296,0-2.321-0.426-3.077-1.277c-0.757-0.853-1.135-2.028-1.135-3.528c0-1.488,0.388-2.664,1.161-3.528
		c0.774-0.864,1.803-1.296,3.087-1.296c1.956,0,3.216,0.834,3.78,2.502l-1.962,0.666c-0.312-0.804-0.912-1.206-1.8-1.206
		c-0.685,0-1.215,0.259-1.594,0.774c-0.378,0.516-0.566,1.212-0.566,2.088c0,0.876,0.188,1.565,0.566,2.07
		c0.379,0.504,0.897,0.756,1.558,0.756c0.96,0,1.59-0.45,1.89-1.351l1.962,0.612C440.37,477.358,439.08,478.264,437.052,478.264z"/>
	<path d="M452.154,472.99c0,0.527-0.024,0.947-0.072,1.26h-6.264c0.132,0.672,0.398,1.203,0.801,1.593
		c0.401,0.391,0.921,0.585,1.557,0.585c0.804,0,1.482-0.3,2.034-0.899l1.242,1.313c-0.864,0.948-1.962,1.422-3.294,1.422
		c-1.356,0-2.428-0.438-3.213-1.313c-0.786-0.876-1.18-2.046-1.18-3.511c0-1.487,0.396-2.66,1.188-3.519
		c0.792-0.857,1.859-1.287,3.204-1.287c1.176,0,2.136,0.369,2.88,1.107C451.782,470.479,452.154,471.562,452.154,472.99z
		 M445.8,472.486h4.32c-0.061-0.673-0.273-1.18-0.639-1.521c-0.366-0.342-0.808-0.513-1.323-0.513c-0.66,0-1.191,0.18-1.593,0.54
		C446.163,471.352,445.908,471.85,445.8,472.486z"/>
	<path d="M461.442,468.634c0.827,0,1.548,0.162,2.159,0.486v3.401h-2.016v-1.962h-0.18c-0.948,0-1.681,0.223-2.196,0.666
		c-0.517,0.444-0.774,1.11-0.774,1.998v3.006h2.574v1.818h-6.588v-1.818h1.944v-5.562h-1.944v-1.818h3.87v1.477
		c0.252-0.528,0.666-0.942,1.242-1.242S460.746,468.634,461.442,468.634z"/>
	<path d="M470.981,478.264c-1.8,0-2.699-0.834-2.699-2.502v-5.094h-1.927v-1.818h1.927v-2.808l2.069-0.99v3.798h3.132v1.818h-3.132
		v4.698c0,0.708,0.433,1.062,1.296,1.062c0.504,0,1.032-0.144,1.584-0.432l-0.252,1.854
		C472.451,478.126,471.785,478.264,470.981,478.264z"/>
</g>
<g>
	<path d="M35.076,268.824v-9.376h-3.248v-1.824h8.416v1.824H36.98v9.376H35.076z"/>
	<path d="M42.308,268.824V258.12l1.84-0.848v4.176c0.533-0.661,1.307-0.992,2.32-0.992c0.896,0,1.624,0.27,2.184,0.809
		c0.56,0.538,0.84,1.395,0.84,2.567v4.992h-1.84v-4.608c0-0.703-0.158-1.216-0.472-1.535c-0.314-0.32-0.723-0.48-1.224-0.48
		c-0.534,0-0.968,0.154-1.304,0.464s-0.504,0.816-0.504,1.521v4.64H42.308z"/>
	<path d="M56.74,267.208h2.256v1.616h-6.352v-1.616H54.9v-4.943h-2.256v-1.616h4.096V267.208z M55.812,259.513
		c-0.299,0-0.555-0.107-0.768-0.32c-0.213-0.214-0.32-0.475-0.32-0.784s0.107-0.568,0.32-0.776c0.213-0.208,0.469-0.312,0.768-0.312
		c0.309,0,0.57,0.104,0.784,0.312s0.32,0.467,0.32,0.776s-0.107,0.57-0.32,0.784C56.382,259.405,56.121,259.513,55.812,259.513z"/>
	<path d="M67.732,260.456c0.736,0,1.376,0.145,1.92,0.433v3.023H67.86v-1.744H67.7c-0.843,0-1.494,0.197-1.952,0.592
		c-0.458,0.396-0.688,0.987-0.688,1.776v2.672h2.288v1.616h-5.856v-1.616h1.728v-4.943h-1.728v-1.616h3.44v1.312
		c0.224-0.469,0.592-0.837,1.104-1.104C66.548,260.59,67.113,260.456,67.732,260.456z"/>
	<path d="M75.172,269.017c-1.12,0-2-0.376-2.64-1.128c-0.64-0.753-0.96-1.806-0.96-3.16c0-1.312,0.328-2.353,0.984-3.12
		c0.656-0.769,1.512-1.152,2.568-1.152c0.875,0,1.552,0.262,2.032,0.784v-3.12l1.84-0.848v11.552h-1.84V268.2
		c-0.171,0.224-0.435,0.416-0.792,0.576S75.609,269.017,75.172,269.017z M75.428,267.256c0.8,0,1.376-0.267,1.728-0.8V263
		c-0.384-0.533-0.971-0.8-1.76-0.8c-0.629,0-1.115,0.219-1.456,0.656c-0.342,0.438-0.512,1.062-0.512,1.872
		c0,0.768,0.173,1.381,0.52,1.84S74.788,267.256,75.428,267.256z"/>
	<path d="M81.556,264.968v-1.775h7.52v1.775H81.556z"/>
	<path d="M91.652,272.04v-11.392h1.84v0.624c0.501-0.544,1.168-0.816,2-0.816c1.099,0,1.97,0.379,2.616,1.136
		c0.646,0.758,0.968,1.809,0.968,3.152c0,1.312-0.333,2.353-1,3.12c-0.667,0.768-1.523,1.152-2.568,1.152
		c-0.854,0-1.526-0.283-2.016-0.849v3.024L91.652,272.04z M95.236,267.256c0.629,0,1.117-0.216,1.464-0.647
		c0.347-0.433,0.52-1.054,0.52-1.864c0-0.778-0.173-1.397-0.52-1.855c-0.347-0.459-0.84-0.688-1.48-0.688
		c-0.768,0-1.344,0.272-1.728,0.816v3.424C93.875,266.984,94.457,267.256,95.236,267.256z"/>
	<path d="M104.404,269.017c-0.896,0-1.624-0.235-2.184-0.704c-0.56-0.47-0.84-1.142-0.84-2.017c0-0.885,0.32-1.557,0.96-2.016
		c0.64-0.459,1.408-0.688,2.304-0.688c0.778,0,1.456,0.145,2.032,0.433v-0.48c0-0.981-0.539-1.472-1.616-1.472
		c-0.896,0-1.76,0.277-2.592,0.832l-0.56-1.504c0.992-0.63,2.096-0.944,3.312-0.944c2.165,0,3.248,1.024,3.248,3.072v5.296h-1.792
		v-0.64C106.1,268.739,105.342,269.017,104.404,269.017z M104.74,267.4c0.768,0,1.413-0.272,1.936-0.816v-1.056
		c-0.491-0.245-1.072-0.368-1.744-0.368c-0.512,0-0.936,0.096-1.272,0.288s-0.504,0.475-0.504,0.848
		c0,0.331,0.138,0.598,0.416,0.801C103.849,267.299,104.238,267.4,104.74,267.4z"/>
	<path d="M117.012,260.456c0.736,0,1.376,0.145,1.92,0.433v3.023h-1.792v-1.744h-0.16c-0.843,0-1.494,0.197-1.952,0.592
		c-0.458,0.396-0.688,0.987-0.688,1.776v2.672h2.288v1.616h-5.856v-1.616h1.728v-4.943h-1.728v-1.616h3.44v1.312
		c0.224-0.469,0.592-0.837,1.104-1.104C115.828,260.59,116.393,260.456,117.012,260.456z"/>
	<path d="M125.492,269.017c-1.6,0-2.4-0.741-2.4-2.225v-4.527h-1.712v-1.616h1.712v-2.496l1.84-0.88v3.376h2.784v1.616h-2.784v4.176
		c0,0.629,0.384,0.943,1.152,0.943c0.448,0,0.917-0.128,1.408-0.384l-0.224,1.648C126.798,268.894,126.206,269.017,125.492,269.017z
		"/>
	<path d="M132.403,271.928l1.248-3.247l-3.056-8.032h1.872l1.872,4.992c0.085,0.213,0.166,0.469,0.24,0.768
		c0.021-0.074,0.048-0.157,0.08-0.248c0.032-0.091,0.064-0.187,0.096-0.288c0.032-0.102,0.059-0.179,0.08-0.231l1.872-4.992h1.888
		l-4.288,11.279H132.403z"/>
</g>
<g>
	<path d="M395.216,63V51.8h2.816c0.725,0,1.381,0.107,1.968,0.32c0.586,0.213,1.075,0.496,1.464,0.848
		c0.389,0.352,0.715,0.771,0.976,1.256s0.451,0.992,0.568,1.52c0.118,0.528,0.176,1.08,0.176,1.656c0,0.534-0.054,1.056-0.16,1.568
		c-0.106,0.512-0.288,1.016-0.544,1.512s-0.579,0.928-0.968,1.296c-0.39,0.368-0.888,0.664-1.496,0.888S398.725,63,397.968,63
		H395.216z M397.12,61.208h1.04c0.544,0,1.021-0.112,1.432-0.336s0.728-0.525,0.952-0.904c0.224-0.378,0.389-0.784,0.496-1.216
		c0.106-0.432,0.16-0.882,0.16-1.352c0-1.045-0.24-1.941-0.72-2.688c-0.48-0.747-1.195-1.12-2.144-1.12h-1.216V61.208z"/>
	<path d="M408.16,63.192c-0.896,0-1.624-0.234-2.184-0.704c-0.56-0.469-0.84-1.141-0.84-2.016c0-0.885,0.32-1.558,0.96-2.016
		c0.64-0.458,1.408-0.688,2.304-0.688c0.778,0,1.456,0.144,2.032,0.432v-0.48c0-0.981-0.539-1.472-1.616-1.472
		c-0.896,0-1.76,0.277-2.592,0.832l-0.56-1.504c0.992-0.629,2.096-0.944,3.312-0.944c2.165,0,3.248,1.024,3.248,3.072V63h-1.792
		v-0.64C409.856,62.915,409.099,63.192,408.16,63.192z M408.496,61.576c0.768,0,1.413-0.272,1.936-0.816v-1.056
		c-0.491-0.245-1.072-0.368-1.744-0.368c-0.512,0-0.936,0.096-1.272,0.288s-0.504,0.475-0.504,0.848c0,0.331,0.138,0.597,0.416,0.8
		C407.605,61.475,407.995,61.576,408.496,61.576z"/>
	<path d="M419.392,63.192c-1.6,0-2.4-0.741-2.4-2.224V56.44h-1.712v-1.616h1.712v-2.496l1.84-0.88v3.376h2.784v1.616h-2.784v4.176
		c0,0.629,0.384,0.944,1.152,0.944c0.448,0,0.917-0.128,1.408-0.384l-0.224,1.648C420.698,63.069,420.106,63.192,419.392,63.192z"/>
	<path d="M427.872,63.192c-0.896,0-1.624-0.234-2.184-0.704c-0.56-0.469-0.84-1.141-0.84-2.016c0-0.885,0.32-1.558,0.96-2.016
		c0.64-0.458,1.408-0.688,2.304-0.688c0.778,0,1.456,0.144,2.032,0.432v-0.48c0-0.981-0.539-1.472-1.616-1.472
		c-0.896,0-1.76,0.277-2.592,0.832l-0.56-1.504c0.992-0.629,2.096-0.944,3.312-0.944c2.165,0,3.248,1.024,3.248,3.072V63h-1.792
		v-0.64C429.568,62.915,428.811,63.192,427.872,63.192z M428.208,61.576c0.768,0,1.413-0.272,1.936-0.816v-1.056
		c-0.491-0.245-1.072-0.368-1.744-0.368c-0.512,0-0.936,0.096-1.272,0.288s-0.504,0.475-0.504,0.848c0,0.331,0.138,0.597,0.416,0.8
		C427.317,61.475,427.707,61.576,428.208,61.576z"/>
	<path d="M449.136,58.408v2.864h-1.856v-2.864h-2.832v-1.792h2.832v-2.864h1.856v2.864h2.832v1.792H449.136z"/>
	<path d="M464.207,63V51.8h2.816c0.726,0,1.381,0.107,1.969,0.32c0.586,0.213,1.074,0.496,1.463,0.848
		c0.39,0.352,0.715,0.771,0.977,1.256s0.451,0.992,0.568,1.52c0.117,0.528,0.176,1.08,0.176,1.656c0,0.534-0.054,1.056-0.16,1.568
		c-0.106,0.512-0.288,1.016-0.544,1.512s-0.579,0.928-0.968,1.296c-0.39,0.368-0.889,0.664-1.496,0.888S467.717,63,466.959,63
		H464.207z M466.111,61.208h1.041c0.543,0,1.021-0.112,1.432-0.336c0.41-0.224,0.728-0.525,0.951-0.904
		c0.225-0.378,0.39-0.784,0.496-1.216c0.107-0.432,0.16-0.882,0.16-1.352c0-1.045-0.24-1.941-0.72-2.688
		c-0.479-0.747-1.194-1.12-2.144-1.12h-1.217V61.208z"/>
	<path d="M481.071,53.48h-2.352v7.84h2.352V63h-6.592v-1.68h2.336v-7.84h-2.336V51.8h6.592V53.48z"/>
	<path d="M483.919,63V51.8h2.816c0.725,0,1.381,0.107,1.968,0.32s1.074,0.496,1.464,0.848c0.39,0.352,0.715,0.771,0.977,1.256
		c0.261,0.485,0.45,0.992,0.567,1.52c0.117,0.528,0.176,1.08,0.176,1.656c0,0.534-0.053,1.056-0.159,1.568
		c-0.107,0.512-0.288,1.016-0.544,1.512c-0.257,0.496-0.579,0.928-0.969,1.296c-0.39,0.368-0.888,0.664-1.496,0.888
		c-0.607,0.224-1.29,0.336-2.048,0.336H483.919z M485.823,61.208h1.04c0.544,0,1.021-0.112,1.432-0.336
		c0.411-0.224,0.729-0.525,0.952-0.904c0.224-0.378,0.39-0.784,0.496-1.216s0.16-0.882,0.16-1.352c0-1.045-0.24-1.941-0.72-2.688
		c-0.48-0.747-1.195-1.12-2.145-1.12h-1.216V61.208z"/>
</g>
</svg>
