<?xml version="1.0" encoding="utf-8"?>
<!-- Generator: Adobe Illustrator 17.0.0, SVG Export Plug-In . SVG Version: 6.00 Build 0)  -->
<!DOCTYPE svg PUBLIC "-//W3C//DTD SVG 1.1//EN" "http://www.w3.org/Graphics/SVG/1.1/DTD/svg11.dtd">
<svg version="1.1" id="Layer_1" xmlns="http://www.w3.org/2000/svg" xmlns:xlink="http://www.w3.org/1999/xlink" x="0px" y="0px"
	 width="875px" height="555px" viewBox="0 0 875 555" enable-background="new 0 0 875 555" xml:space="preserve">
<title>05</title>
<desc>Created with Sketch.</desc>
<path id="Line" fill="none" stroke="#AAB1B5" stroke-linecap="round" stroke-linejoin="round" stroke-dasharray="6,12" d="
	M801.924,161.128V63.51L86.245,63.575l-0.021,92.681"/>
<path id="Line-5" fill="none" stroke="#AAB1B5" stroke-linecap="round" stroke-linejoin="round" d="M275.352,489.632h65.532"/>
<path id="Line-5_1_" fill="none" stroke="#AAB1B5" stroke-linecap="round" stroke-linejoin="round" d="M87,332.022V522.82"/>
<path id="Line-5_2_" fill="none" stroke="#AAB1B5" stroke-linecap="round" stroke-linejoin="round" d="M275,458v64.471"/>
<path id="Line-5_3_" fill="none" stroke="#AAB1B5" stroke-linecap="round" stroke-linejoin="round" d="M274.973,522.938H87.224"/>
<path id="Line-5_4_" fill="none" stroke="#AAB1B5" stroke-linecap="round" stroke-linejoin="round" d="M275.073,458H87"/>
<path id="Line-5_5_" fill="none" stroke="#AAB1B5" stroke-linecap="round" stroke-linejoin="round" d="M336.513,393H87"/>
<path id="Line-3" fill="none" stroke="#AAB1B5" stroke-linecap="round" stroke-linejoin="round" d="M443.728,342.875V271"/>
<g id="Arrow-head" transform="translate(46.672000, 121.976000)">
	<path id="Line-4" fill="none" stroke="#AAB1B5" stroke-linecap="round" stroke-linejoin="round" d="M39.552,35.401l11.329-13.217"
		/>
	<path id="Line-4_1_" fill="none" stroke="#AAB1B5" stroke-linecap="round" stroke-linejoin="round" d="M39.552,35.144
		L28.223,21.927"/>
</g>
<g id="Arrow-head_1_" transform="translate(306.500000, 378.500000) rotate(-90.000000) translate(-306.500000, -378.500000) translate(293.000000, 368.000000)">
	<path id="Line-4_2_" fill="none" stroke="#AAB1B5" stroke-linecap="round" stroke-linejoin="round" d="M-1.448,42.401L9.881,29.184
		"/>
	<path id="Line-4_3_" fill="none" stroke="#AAB1B5" stroke-linecap="round" stroke-linejoin="round" d="M-1.448,42.144
		l-11.329-13.217"/>
</g>
<g id="Blockchain" transform="translate(206.000000, 204.000000)">
	<polygon fill="#F7F7F7" stroke="#2C2F31" stroke-linecap="round" stroke-linejoin="round" points="24,17 452,17 452,67 24,66.865 	
		"/>
	<path fill="#2C2F31" d="M190.436,48V36.8h3.776c1.259,0,2.171,0.285,2.736,0.856c0.565,0.571,0.848,1.283,0.848,2.136
		c0,1.099-0.485,1.867-1.456,2.304c0.597,0.203,1.053,0.544,1.368,1.024s0.472,1.013,0.472,1.6c0,0.896-0.301,1.667-0.904,2.312
		c-0.603,0.645-1.544,0.968-2.824,0.968C194.452,48,190.436,48,190.436,48z M192.34,41.328h1.616c0.64,0,1.123-0.125,1.448-0.376
		s0.488-0.595,0.488-1.032c0-0.907-0.544-1.36-1.632-1.36h-1.92V41.328z M192.34,46.24h2.24c0.608,0,1.043-0.147,1.304-0.44
		s0.392-0.648,0.392-1.064c0-1.109-0.72-1.664-2.16-1.664h-1.776V46.24z M204.916,46.384h2.384V48h-6.608v-1.616h2.384v-8.32h-1.904
		l-0.848-1.616h4.592L204.916,46.384L204.916,46.384z M213.86,48.192c-1.205,0-2.16-0.381-2.864-1.144s-1.056-1.805-1.056-3.128
		c0-1.312,0.352-2.355,1.056-3.128s1.659-1.16,2.864-1.16c1.216,0,2.173,0.387,2.872,1.16s1.048,1.816,1.048,3.128
		s-0.349,2.352-1.048,3.12S215.076,48.192,213.86,48.192z M213.86,46.432c0.661,0,1.171-0.224,1.528-0.672s0.536-1.061,0.536-1.84
		s-0.179-1.397-0.536-1.856s-0.867-0.688-1.528-0.688c-0.651,0-1.157,0.229-1.52,0.688s-0.544,1.077-0.544,1.856
		c0,0.768,0.181,1.379,0.544,1.832C212.703,46.205,213.209,46.432,213.86,46.432z M223.876,48.192c-1.152,0-2.064-0.379-2.736-1.136
		s-1.008-1.803-1.008-3.136c0-1.323,0.344-2.368,1.032-3.136s1.603-1.152,2.744-1.152c1.739,0,2.859,0.741,3.36,2.224l-1.744,0.592
		c-0.277-0.715-0.811-1.072-1.6-1.072c-0.608,0-1.08,0.229-1.416,0.688s-0.504,1.077-0.504,1.856s0.168,1.392,0.504,1.84
		s0.797,0.672,1.384,0.672c0.853,0,1.413-0.4,1.68-1.2l1.744,0.544C226.825,47.387,225.679,48.192,223.876,48.192z M235.444,48
		l-2.336-4.512l-1.216,1.168V48h-1.84V37.312l1.84-0.864v6.176l2.848-2.8h2.192l-2.464,2.368L237.46,48H235.444z M243.588,48.192
		c-1.152,0-2.064-0.379-2.736-1.136c-0.672-0.757-1.008-1.803-1.008-3.136c0-1.323,0.344-2.368,1.032-3.136s1.603-1.152,2.744-1.152
		c1.739,0,2.859,0.741,3.36,2.224l-1.744,0.592c-0.277-0.715-0.811-1.072-1.6-1.072c-0.608,0-1.08,0.229-1.416,0.688
		s-0.504,1.077-0.504,1.856s0.168,1.392,0.504,1.84s0.797,0.672,1.384,0.672c0.853,0,1.413-0.4,1.68-1.2l1.744,0.544
		C246.537,47.387,245.391,48.192,243.588,48.192z M249.7,48V37.296l1.84-0.848v4.176c0.533-0.661,1.307-0.992,2.32-0.992
		c0.896,0,1.624,0.269,2.184,0.808c0.56,0.539,0.84,1.395,0.84,2.568V48h-1.84v-4.608c0-0.704-0.157-1.216-0.472-1.536
		s-0.723-0.48-1.224-0.48c-0.533,0-0.968,0.155-1.304,0.464c-0.336,0.309-0.504,0.816-0.504,1.52V48H249.7z M262.516,48.192
		c-0.896,0-1.624-0.235-2.184-0.704s-0.84-1.141-0.84-2.016c0-0.885,0.32-1.557,0.96-2.016c0.64-0.459,1.408-0.688,2.304-0.688
		c0.779,0,1.456,0.144,2.032,0.432v-0.48c0-0.981-0.539-1.472-1.616-1.472c-0.896,0-1.76,0.277-2.592,0.832l-0.56-1.504
		c0.992-0.629,2.096-0.944,3.312-0.944c2.165,0,3.248,1.024,3.248,3.072V48h-1.792v-0.64
		C264.212,47.915,263.455,48.192,262.516,48.192z M262.852,46.576c0.768,0,1.413-0.272,1.936-0.816v-1.056
		c-0.491-0.245-1.072-0.368-1.744-0.368c-0.512,0-0.936,0.096-1.272,0.288s-0.504,0.475-0.504,0.848c0,0.331,0.139,0.597,0.416,0.8
		C261.961,46.475,262.351,46.576,262.852,46.576z M273.06,38.688c-0.299,0-0.555-0.107-0.768-0.32s-0.32-0.475-0.32-0.784
		s0.107-0.568,0.32-0.776s0.469-0.312,0.768-0.312c0.309,0,0.571,0.104,0.784,0.312s0.32,0.467,0.32,0.776s-0.107,0.571-0.32,0.784
		S273.369,38.688,273.06,38.688z M273.988,46.384h2.256V48h-6.352v-1.616h2.256V41.44h-2.256v-1.616h4.096L273.988,46.384
		L273.988,46.384z M283.428,39.632c0.896,0,1.624,0.269,2.184,0.808c0.56,0.539,0.84,1.395,0.84,2.568V48h-1.84v-4.608
		c0-0.704-0.155-1.216-0.464-1.536s-0.72-0.48-1.232-0.48c-1.205,0-1.808,0.661-1.808,1.984V48h-1.84v-8.176h1.696v1.008
		c0.16-0.32,0.472-0.6,0.936-0.84C282.364,39.752,282.873,39.632,283.428,39.632z"/>
</g>
<rect id="_x32_" x="340" y="343" fill="none" stroke="#2C2F31" stroke-linecap="round" stroke-linejoin="round" width="207.36" height="207.36"/>
<path id="Sceptic" fill="#2C2F31" d="M57.06,307.192c-0.907,0-1.723-0.261-2.448-0.784c-0.725-0.523-1.237-1.221-1.536-2.096
	l1.728-0.64c0.245,0.523,0.584,0.941,1.016,1.256s0.899,0.472,1.4,0.472c0.491,0,0.885-0.128,1.184-0.384s0.448-0.624,0.448-1.104
	c0-0.405-0.203-0.765-0.608-1.08s-0.971-0.632-1.696-0.952c-0.459-0.203-0.827-0.379-1.104-0.528
	c-0.277-0.149-0.589-0.357-0.936-0.624s-0.605-0.581-0.776-0.944s-0.256-0.768-0.256-1.216c0-0.832,0.317-1.533,0.952-2.104
	s1.469-0.856,2.504-0.856c0.821,0,1.539,0.224,2.152,0.672s1.021,1.019,1.224,1.712l-1.712,0.576
	c-0.384-0.779-0.976-1.168-1.776-1.168c-0.416,0-0.757,0.107-1.024,0.32s-0.4,0.507-0.4,0.88c0,0.085,0.011,0.168,0.032,0.248
	s0.059,0.155,0.112,0.224s0.104,0.133,0.152,0.192s0.123,0.123,0.224,0.192s0.187,0.125,0.256,0.168s0.173,0.099,0.312,0.168
	s0.245,0.12,0.32,0.152s0.197,0.088,0.368,0.168s0.293,0.136,0.368,0.168c0.448,0.203,0.821,0.392,1.12,0.568
	s0.629,0.408,0.992,0.696s0.64,0.629,0.832,1.024s0.288,0.827,0.288,1.296c0,1.024-0.36,1.835-1.08,2.432
	C58.972,306.893,58.095,307.192,57.06,307.192z M66.948,307.192c-1.152,0-2.064-0.379-2.736-1.136
	c-0.672-0.757-1.008-1.803-1.008-3.136c0-1.323,0.344-2.368,1.032-3.136c0.688-0.768,1.603-1.152,2.744-1.152
	c1.739,0,2.859,0.741,3.36,2.224l-1.744,0.592c-0.277-0.715-0.811-1.072-1.6-1.072c-0.608,0-1.08,0.229-1.416,0.688
	s-0.504,1.077-0.504,1.856s0.168,1.392,0.504,1.84s0.797,0.672,1.384,0.672c0.853,0,1.413-0.4,1.68-1.2l1.744,0.544
	C69.897,306.387,68.751,307.192,66.948,307.192z M80.372,302.504c0,0.469-0.021,0.843-0.064,1.12H74.74
	c0.117,0.597,0.355,1.069,0.712,1.416c0.357,0.347,0.819,0.52,1.384,0.52c0.715,0,1.317-0.267,1.808-0.8l1.104,1.168
	c-0.768,0.843-1.744,1.264-2.928,1.264c-1.205,0-2.157-0.389-2.856-1.168c-0.699-0.779-1.048-1.819-1.048-3.12
	c0-1.323,0.352-2.365,1.056-3.128s1.653-1.144,2.848-1.144c1.045,0,1.899,0.328,2.56,0.984
	C80.041,300.272,80.372,301.235,80.372,302.504z M74.724,302.056h3.84c-0.053-0.597-0.243-1.048-0.568-1.352
	c-0.325-0.304-0.717-0.456-1.176-0.456c-0.587,0-1.059,0.16-1.416,0.48S74.82,301.491,74.724,302.056z M82.98,310.216v-11.392h1.84
	v0.624c0.501-0.544,1.168-0.816,2-0.816c1.099,0,1.971,0.379,2.616,1.136s0.968,1.808,0.968,3.152c0,1.312-0.333,2.352-1,3.12
	s-1.523,1.152-2.568,1.152c-0.853,0-1.525-0.283-2.016-0.848v3.024L82.98,310.216z M86.564,305.432c0.629,0,1.117-0.216,1.464-0.648
	s0.52-1.053,0.52-1.864c0-0.779-0.173-1.397-0.52-1.856c-0.347-0.459-0.84-0.688-1.48-0.688c-0.768,0-1.344,0.272-1.728,0.816v3.424
	C85.204,305.16,85.785,305.432,86.564,305.432z M97.108,307.192c-1.6,0-2.4-0.741-2.4-2.224v-4.528h-1.712v-1.616h1.712v-2.496
	l1.84-0.88v3.376h2.784v1.616h-2.784v4.176c0,0.629,0.384,0.944,1.152,0.944c0.448,0,0.917-0.128,1.408-0.384l-0.224,1.648
	C98.415,307.069,97.823,307.192,97.108,307.192z M106.276,297.688c-0.299,0-0.555-0.107-0.768-0.32s-0.32-0.475-0.32-0.784
	s0.107-0.568,0.32-0.776s0.469-0.312,0.768-0.312c0.309,0,0.571,0.104,0.784,0.312s0.32,0.467,0.32,0.776s-0.107,0.571-0.32,0.784
	C106.847,297.581,106.585,297.688,106.276,297.688z M107.204,305.384h2.256V307h-6.352v-1.616h2.256v-4.944h-2.256v-1.616h4.096
	V305.384z M116.228,307.192c-1.152,0-2.064-0.379-2.736-1.136s-1.008-1.803-1.008-3.136c0-1.323,0.344-2.368,1.032-3.136
	s1.603-1.152,2.744-1.152c1.739,0,2.859,0.741,3.36,2.224l-1.744,0.592c-0.277-0.715-0.811-1.072-1.6-1.072
	c-0.608,0-1.08,0.229-1.416,0.688s-0.504,1.077-0.504,1.856s0.168,1.392,0.504,1.84s0.797,0.672,1.384,0.672
	c0.853,0,1.413-0.4,1.68-1.2l1.744,0.544C119.177,306.387,118.031,307.192,116.228,307.192z"/>
<g id="Group" transform="translate(715.000000, 148.000000)">
	<g id="Mask">
		<circle id="path-1_1_" fill="#F7F7F7" cx="84" cy="77" r="60"/>
	</g>
	<defs>
		<filter id="Adobe_OpacityMaskFilter" filterUnits="userSpaceOnUse" x="42.435" y="24.716" width="83.429" height="123.033">
			<feColorMatrix  type="matrix" values="1 0 0 0 0  0 1 0 0 0  0 0 1 0 0  0 0 0 1 0"/>
		</filter>
	</defs>
	<mask maskUnits="userSpaceOnUse" x="42.435" y="24.716" width="83.429" height="123.033" id="mask-2">
		<g filter="url(#Adobe_OpacityMaskFilter)">
			<circle id="path-1" fill="#FFFFFF" cx="84" cy="77" r="60"/>
		</g>
	</mask>
	<g mask="url(#mask-2)">
		<g transform="translate(19.285714, 8.571429)">
			<path id="Shape" fill="none" stroke="#2C2F31" stroke-width="2" stroke-linecap="round" stroke-linejoin="round" d="
				M79.018,83.429c-1.586,3.568,0.761,6.429,2.904,7.875c-2.25,4.811-9.557,8.925-17.057,8.925s-15.504-4.146-17.057-8.925
				c2.143-1.243,4.521-4.286,2.871-7.875H79.018z"/>
			<path id="Shape_1_" fill="#FFFFFF" stroke="#2C2F31" stroke-width="2" stroke-linecap="round" stroke-linejoin="round" d="
				M67.2,89.954h-4.629c-4.019-0.004-7.873-1.604-10.714-4.446l-3.536-3.461c-5.188-5.189-8.101-12.227-8.1-19.564V44.268
				c0-24.439,49.286-24.439,49.286,0v18.214c0.001,7.338-2.912,14.375-8.1,19.564l-3.471,3.471
				C75.087,88.362,71.225,89.958,67.2,89.954z"/>
			<path id="Shape_2_" fill="none" stroke="#2C2F31" stroke-width="2" stroke-linecap="round" stroke-linejoin="round" d="
				M40.221,65.011v-9.643c0-3.214-2.389-4.286-3.857-3.214c-2.346,1.639,0.643,8.571,0.643,8.571
				C35.271,61.839,37.232,65.793,40.221,65.011z"/>
			<path id="Shape_3_" fill="none" stroke="#2C2F31" stroke-width="2" stroke-linecap="round" stroke-linejoin="round" d="
				M89.507,64.625v-9.643c0-3.214,2.379-4.286,3.857-3.214c2.346,1.639-0.643,8.571-0.643,8.571
				C94.468,61.454,92.496,65.418,89.507,64.625z"/>
			<path id="Shape_4_" fill="#FFFFFF" stroke="#2C2F31" stroke-width="2" stroke-linecap="round" stroke-linejoin="round" d="
				M77.443,19.068c8.261,3.504,19.286,13.286,14.764,27.718c-0.664,2.143-1.629,1.393-2.7,1.2c0,0-0.171-8.421-4.286-7.554
				c-9.793,2.057-14.614-5.818-26.507,2.818c-1.65-2.711-0.514-8.871,3.675-12.107c-9.804,0-22.168,6.011-22.168,13.232
				c0,0-3.279-2.421-3.546-4.811c-1.232-10.779,4.301-16.265,13.966-20.379C58.512,15.836,73.039,17.204,77.443,19.068z"/>
			
				<circle id="Oval" fill="none" stroke="#2C2F31" stroke-width="2" stroke-linecap="round" stroke-linejoin="round" cx="77.186" cy="58.346" r="1.607"/>
			
				<circle id="Oval_1_" fill="none" stroke="#2C2F31" stroke-width="2" stroke-linecap="round" stroke-linejoin="round" cx="52.564" cy="58.346" r="1.607"/>
			<path id="Shape_5_" fill="#FFFFFF" stroke="#2C2F31" stroke-width="2" stroke-linecap="round" stroke-linejoin="round" d="
				M89.089,94.143c0,0-7.232-2.871-6.954-2.711c-2.271,4.854-9.921,9.032-17.271,9.032s-15.6-4.179-17.293-8.979l-6.654,2.764
				c-10.111,4.121-16.733,13.939-16.768,24.857v19.071h81.429v-19.286C105.55,108.08,99.057,98.334,89.089,94.143z"/>
			<path id="Line_1_" fill="none" stroke="#2C2F31" stroke-width="2" stroke-linecap="round" stroke-linejoin="round" d="
				M42.75,137.536V118.22"/>
			<path id="Line_2_" fill="none" stroke="#2C2F31" stroke-width="2" stroke-linecap="round" stroke-linejoin="round" d="
				M86.679,137.536V118.22"/>
			<path id="Stroke-9" fill="none" stroke="#2C2F31" stroke-width="2" stroke-linecap="round" stroke-linejoin="round" d="
				M71.551,73.786c0,0-2.971,3.316-6.633,3.316c-3.661,0-6.633-3.316-6.633-3.316"/>
		</g>
	</g>
</g>
<g id="Group_2_" transform="translate(0.000000, 148.000000)">
	<g id="Mask_1_">
		<circle id="path-3_1_" fill="#F7F7F7" cx="84" cy="77" r="60"/>
	</g>
	<defs>
		<filter id="Adobe_OpacityMaskFilter_1_" filterUnits="userSpaceOnUse" x="42.435" y="24.716" width="83.429" height="123.033">
			<feColorMatrix  type="matrix" values="1 0 0 0 0  0 1 0 0 0  0 0 1 0 0  0 0 0 1 0"/>
		</filter>
	</defs>
	<mask maskUnits="userSpaceOnUse" x="42.435" y="24.716" width="83.429" height="123.033" id="mask-4">
		<g filter="url(#Adobe_OpacityMaskFilter_1_)">
			<circle id="path-3" fill="#FFFFFF" cx="84" cy="77" r="60"/>
		</g>
	</mask>
	<g mask="url(#mask-4)">
		<g transform="translate(19.285714, 8.571429)">
			<path id="Shape_6_" fill="none" stroke="#2C2F31" stroke-width="2" stroke-linecap="round" stroke-linejoin="round" d="
				M79.018,83.429c-1.586,3.568,0.761,6.429,2.904,7.875c-2.25,4.811-9.557,8.925-17.057,8.925s-15.504-4.146-17.057-8.925
				c2.143-1.243,4.521-4.286,2.871-7.875H79.018z"/>
			<path id="Shape_7_" fill="#FFFFFF" stroke="#2C2F31" stroke-width="2" stroke-linecap="round" stroke-linejoin="round" d="
				M67.2,89.954h-4.629c-4.019-0.004-7.873-1.604-10.714-4.446l-3.536-3.461c-5.188-5.189-8.101-12.227-8.1-19.564V44.268
				c0-24.439,49.286-24.439,49.286,0v18.214c0.001,7.338-2.912,14.375-8.1,19.564l-3.471,3.471
				C75.087,88.362,71.225,89.958,67.2,89.954z"/>
			<path id="Shape_8_" fill="none" stroke="#2C2F31" stroke-width="2" stroke-linecap="round" stroke-linejoin="round" d="
				M40.221,65.011v-9.643c0-3.214-2.389-4.286-3.857-3.214c-2.346,1.639,0.643,8.571,0.643,8.571
				C35.271,61.839,37.232,65.793,40.221,65.011z"/>
			<path id="Shape_9_" fill="none" stroke="#2C2F31" stroke-width="2" stroke-linecap="round" stroke-linejoin="round" d="
				M89.507,64.625v-9.643c0-3.214,2.379-4.286,3.857-3.214c2.346,1.639-0.643,8.571-0.643,8.571
				C94.468,61.454,92.496,65.418,89.507,64.625z"/>
			<path id="Shape_10_" fill="#FFFFFF" stroke="#2C2F31" stroke-width="2" stroke-linecap="round" stroke-linejoin="round" d="
				M77.443,19.068c8.261,3.504,19.286,13.286,14.764,27.718c-0.664,2.143-1.629,1.393-2.7,1.2c0,0-0.171-8.421-4.286-7.554
				c-9.793,2.057-14.614-5.818-26.507,2.818c-1.65-2.711-0.514-8.871,3.675-12.107c-9.804,0-22.168,6.011-22.168,13.232
				c0,0-3.279-2.421-3.546-4.811c-1.232-10.779,4.301-16.265,13.966-20.379C58.512,15.836,73.039,17.204,77.443,19.068z"/>
			<path id="Shape_11_" fill="#FFFFFF" stroke="#2C2F31" stroke-width="2" stroke-linecap="round" stroke-linejoin="round" d="
				M89.089,94.143c0,0-7.232-2.871-6.954-2.711c-2.271,4.854-9.921,9.032-17.271,9.032s-15.6-4.179-17.293-8.979l-6.654,2.764
				c-10.111,4.121-16.733,13.939-16.768,24.857v19.071h81.429v-19.286C105.55,108.08,99.057,98.334,89.089,94.143z"/>
			<path id="Line_3_" fill="none" stroke="#2C2F31" stroke-width="2" stroke-linecap="round" stroke-linejoin="round" d="
				M42.75,137.536V118.22"/>
			<path id="Line_4_" fill="none" stroke="#2C2F31" stroke-width="2" stroke-linecap="round" stroke-linejoin="round" d="
				M86.679,137.536V118.22"/>
			<g id="Group_1_" transform="translate(30.560440, 38.505495)">
				<path id="Line_5_" fill="none" stroke="#2C2F31" stroke-width="2" stroke-linecap="round" stroke-linejoin="round" d="
					M24.923,17.198v5.203"/>
				<path id="Line-Copy" fill="none" stroke="#2C2F31" stroke-width="2" stroke-linecap="round" stroke-linejoin="round" d="
					M44.308,17.198v5.203"/>
				<path id="Line-2" fill="none" stroke="#2C2F31" stroke-width="2" stroke-linecap="round" stroke-linejoin="round" d="
					M28.154,35.923l13.385-3.231"/>
			</g>
		</g>
	</g>
</g>
<path id="Holder" fill="#2C2F31" d="M773.648,310v-11.2h1.904v4.528h3.616V298.8h1.904V310h-1.904v-4.88h-3.616V310H773.648z
	 M787.216,310.192c-1.205,0-2.16-0.381-2.864-1.144c-0.704-0.763-1.056-1.805-1.056-3.128c0-1.312,0.352-2.355,1.056-3.128
	c0.704-0.773,1.659-1.16,2.864-1.16c1.216,0,2.173,0.387,2.872,1.16c0.699,0.773,1.048,1.816,1.048,3.128
	c0,1.312-0.349,2.352-1.048,3.12S788.432,310.192,787.216,310.192z M787.216,308.432c0.661,0,1.171-0.224,1.528-0.672
	s0.536-1.061,0.536-1.84s-0.179-1.397-0.536-1.856c-0.357-0.459-0.867-0.688-1.528-0.688c-0.651,0-1.157,0.229-1.52,0.688
	s-0.544,1.077-0.544,1.856c0,0.768,0.181,1.379,0.544,1.832C786.059,308.205,786.565,308.432,787.216,308.432z M797.984,308.384
	h2.384V310h-6.608v-1.616h2.384v-8.32h-1.904l-0.848-1.616h4.592L797.984,308.384L797.984,308.384z M806.64,310.192
	c-1.12,0-2-0.376-2.64-1.128s-0.96-1.805-0.96-3.16c0-1.312,0.328-2.352,0.984-3.12s1.512-1.152,2.568-1.152
	c0.875,0,1.552,0.261,2.032,0.784v-3.12l1.84-0.848V310h-1.84v-0.624c-0.171,0.224-0.435,0.416-0.792,0.576
	S807.077,310.192,806.64,310.192z M806.896,308.432c0.8,0,1.376-0.267,1.728-0.8v-3.456c-0.384-0.533-0.971-0.8-1.76-0.8
	c-0.629,0-1.115,0.219-1.456,0.656s-0.512,1.061-0.512,1.872c0,0.768,0.173,1.381,0.52,1.84
	C805.763,308.203,806.256,308.432,806.896,308.432z M820.512,305.504c0,0.469-0.021,0.843-0.064,1.12h-5.568
	c0.117,0.597,0.355,1.069,0.712,1.416s0.819,0.52,1.384,0.52c0.715,0,1.317-0.267,1.808-0.8l1.104,1.168
	c-0.768,0.843-1.744,1.264-2.928,1.264c-1.205,0-2.157-0.389-2.856-1.168c-0.699-0.779-1.048-1.819-1.048-3.12
	c0-1.323,0.352-2.365,1.056-3.128s1.653-1.144,2.848-1.144c1.045,0,1.899,0.328,2.56,0.984S820.512,304.235,820.512,305.504z
	 M814.864,305.056h3.84c-0.053-0.597-0.243-1.048-0.568-1.352s-0.717-0.456-1.176-0.456c-0.587,0-1.059,0.16-1.416,0.48
	C815.187,304.048,814.96,304.491,814.864,305.056z M828.768,301.632c0.736,0,1.376,0.144,1.92,0.432v3.024h-1.792v-1.744h-0.16
	c-0.843,0-1.493,0.197-1.952,0.592c-0.459,0.395-0.688,0.987-0.688,1.776v2.672h2.288V310h-5.856v-1.616h1.728v-4.944h-1.728v-1.616
	h3.44v1.312c0.224-0.469,0.592-0.837,1.104-1.104C827.584,301.765,828.149,301.632,828.768,301.632z"/>
<g id="check" transform="translate(138.000000, 425.000000)">
	
		<circle id="Oval_2_" fill="#FFFFFF" stroke="#AAB1B5" stroke-linecap="round" stroke-linejoin="round" cx="39.72" cy="32.664" r="15.552"/>
	<polyline id="Line-6" fill="none" stroke="#000000" stroke-width="1.728" stroke-linecap="round" points="34.536,33.841 
		38.405,37.572 44.904,29.208 	"/>
</g>
<g id="x" transform="translate(138.000000, 489.000000)">
	
		<circle id="Oval_3_" fill="#FFFFFF" stroke="#AAB1B5" stroke-linecap="round" stroke-linejoin="round" cx="39.72" cy="32.6" r="15.552"/>
	<g id="Line-6_1_" transform="translate(10.536000, 10.416000)">
		<path fill="none" stroke="#000000" stroke-width="1.728" stroke-linecap="round" d="M24,27.368L34.368,17"/>
		<path fill="none" stroke="#000000" stroke-width="1.728" stroke-linecap="round" stroke-linejoin="round" d="M34.368,27.368L24,17
			L34.368,27.368z"/>
	</g>
</g>
<g id="Step1" transform="translate(400.000000, 27.000000)">
	<circle id="Oval_4_" fill="#E5E5E5" cx="42.749" cy="35.749" r="18.749"/>
	<polygon id="_x31_" fill="#7D8285" points="43.634,39.022 46.116,39.022 46.116,40.677 39.381,40.677 39.381,39.022 41.907,39.022 
		41.907,32.708 39.701,33.303 39.701,31.677 43.634,30.502 	"/>
</g>
<g id="Step2" transform="translate(44.000000, 324.000000)">
	<circle id="Oval_5_" fill="#E5E5E5" cx="42.749" cy="35.749" r="18.749"/>
	<path id="_x32__1_" fill="#7D8285" d="M39.089,41c0-0.697,0.087-1.333,0.261-1.909s0.428-1.074,0.762-1.495
		c0.334-0.421,0.682-0.779,1.045-1.074c0.363-0.295,0.791-0.588,1.285-0.878c0.523-0.319,0.924-0.624,1.205-0.914
		c0.281-0.29,0.421-0.644,0.421-1.06s-0.131-0.75-0.392-1.002c-0.261-0.252-0.614-0.377-1.06-0.377c-0.91,0-1.529,0.421-1.858,1.263
		l-1.539-0.697c0.261-0.658,0.694-1.188,1.299-1.589c0.605-0.402,1.294-0.602,2.068-0.602c0.997,0,1.783,0.278,2.359,0.835
		c0.576,0.556,0.864,1.265,0.864,2.126c0,0.445-0.06,0.842-0.181,1.19s-0.319,0.663-0.595,0.943s-0.542,0.51-0.798,0.689
		s-0.607,0.399-1.052,0.66c-1.2,0.726-1.892,1.471-2.076,2.235h4.79V41H39.089z"/>
</g>
<g id="or" transform="translate(240.000000, 458.000000)">
	
		<circle id="Oval_6_" fill="#F7F7F7" stroke="#AAB1B5" stroke-linecap="round" stroke-linejoin="round" cx="35.352" cy="31.632" r="11.232"/>
	<path fill="#2C2F31" d="M34.301,34.058c-0.449,0.498-1.051,0.746-1.804,0.746c-0.753,0-1.355-0.245-1.804-0.736
		c-0.449-0.491-0.674-1.168-0.674-2.032c0-0.857,0.225-1.534,0.674-2.032s1.051-0.746,1.804-0.746c0.76,0,1.363,0.245,1.809,0.736
		c0.446,0.491,0.669,1.168,0.669,2.032C34.975,32.883,34.751,33.56,34.301,34.058z M32.497,33.985c0.498,0,0.885-0.175,1.161-0.524
		s0.415-0.828,0.415-1.436c0-0.615-0.135-1.096-0.404-1.441c-0.27-0.346-0.66-0.518-1.172-0.518c-0.511,0-0.902,0.171-1.172,0.513
		c-0.27,0.342-0.404,0.828-0.404,1.457c0,0.608,0.137,1.085,0.41,1.431C31.604,33.813,31.993,33.985,32.497,33.985z M40.19,29.258
		c0.491,0,0.878,0.083,1.161,0.249v1.835H40.47v-1.203c-0.069-0.007-0.176-0.01-0.321-0.01c-0.539,0-0.994,0.131-1.363,0.394
		c-0.37,0.263-0.555,0.632-0.555,1.109v2.26h1.545v0.788H36.22v-0.788h1.109V30.17H36.22v-0.788h1.949v0.923
		c0.18-0.318,0.461-0.572,0.845-0.762C39.397,29.353,39.79,29.258,40.19,29.258z"/>
</g>
<g id="Graphic" transform="translate(361.000000, 377.000000)">
	<path id="Path-6-Copy-2" fill="none" stroke="#2C2F31" stroke-linecap="round" stroke-linejoin="round" d="M25.173,70.884
		l50.471,29.328c5.337,3.101,11.924,3.12,17.279,0.049l51.055-29.28c0.828-0.475,1.114-1.531,0.639-2.359
		c-0.153-0.267-0.376-0.489-0.643-0.642l-51.41-29.295c-5.348-3.048-11.914-3.02-17.236,0.072L25.173,67.896
		c-0.825,0.479-1.105,1.537-0.626,2.362C24.698,70.517,24.913,70.733,25.173,70.884z"/>
	<path id="Shape_12_" fill="#F7F7F7" stroke="#2C2F31" stroke-width="0.864" stroke-linecap="round" stroke-linejoin="round" d="
		M84.632,52.824c0.505-0.337,0.505-0.841,0-1.01c-0.505-0.337-1.346-0.337-1.851,0s-0.505,0.673,0,1.01
		C83.286,52.993,84.127,52.993,84.632,52.824z"/>
	<path id="Shape_13_" fill="none" stroke="#2C2F31" stroke-linecap="round" stroke-linejoin="round" d="M29.253,68.61
		c-0.505,0.337-0.505,0.673,0,1.01s1.346,0.337,1.851,0s0.505-0.841,0-1.01C30.599,68.273,29.758,68.273,29.253,68.61z"/>
	<path id="Shape_14_" fill="none" stroke="#2C2F31" stroke-linecap="round" stroke-linejoin="round" d="M81.099,23.153L25.57,55.292
		c-1.514,0.841-1.514,2.187,0,3.197l55.528,32.139c1.514,0.841,3.87,0.841,5.385,0l7.067-4.038c-1.178-0.673-1.178-1.851,0-2.524
		c1.178-0.673,3.029-0.673,4.207,0l44.254-25.577c1.514-0.841,1.514-2.187,0-3.197L86.483,23.153
		C84.969,22.312,82.445,22.312,81.099,23.153z"/>
	<path id="Shape_15_" fill="#FFFFFF" stroke="#2C2F31" stroke-linecap="round" stroke-linejoin="round" d="M83.791,86.02
		c-0.841,0-1.851-1.168-2.524-1.505L25.739,52.376c-0.505-0.337-0.841-0.673-0.841-1.178c0-0.337,0.337-0.841,0.841-1.178
		l55.528-32.139c0.673-0.337,1.514-0.505,2.524-0.505c0.841,0,1.851,0.168,2.524,0.505l55.528,32.139
		c0.505,0.337,0.841,0.673,0.841,1.178c0,0.337-0.337,0.841-0.841,1.178L97.925,77.784c-0.673-0.337-1.346-0.505-2.187-0.505
		c-0.841,0-1.683,0.168-2.356,0.505c-0.673,0.505-1.178,1.01-1.178,1.683c0,0.505,0.168,0.841,0.505,1.178l-6.394,3.702
		C85.474,84.851,84.632,86.02,83.791,86.02z"/>
	<path id="Shape_16_" fill="none" stroke="#2C2F31" stroke-linecap="round" stroke-linejoin="round" d="M30.253,50.693
		c-0.505,0.337-0.505,0.673,0,1.01s1.346,0.337,1.851,0c0.505-0.337,0.505-0.841,0-1.01C31.599,50.357,30.758,50.357,30.253,50.693z
		"/>
	<path id="Shape_17_" fill="none" stroke="#2C2F31" stroke-linecap="round" stroke-linejoin="round" d="M30.253,56.863
		c-0.505,0.337-0.505,0.673,0,1.01c0.505,0.337,1.346,0.337,1.851,0c0.505-0.337,0.505-0.841,0-1.01
		C31.599,56.526,30.758,56.526,30.253,56.863z"/>
	<path id="Shape_18_" fill="none" stroke="#2C2F31" stroke-linecap="round" stroke-linejoin="round" d="M138.361,56.428
		c-0.505,0.337-0.505,0.673,0,1.01c0.505,0.337,1.346,0.337,1.851,0s0.505-0.841,0-1.01
		C139.707,56.092,138.866,56.092,138.361,56.428z"/>
	<path id="Shape-Copy-2" fill="none" stroke="#2C2F31" stroke-linecap="round" stroke-linejoin="round" d="M94.49,85.034
		c-0.505,0.337-0.505,0.673,0,1.01c0.505,0.337,1.346,0.337,1.851,0s0.505-0.841,0-1.01C95.836,84.697,94.995,84.697,94.49,85.034z"
		/>
	<path id="Shape-Copy-2_1_" fill="none" stroke="#2C2F31" stroke-linecap="round" stroke-linejoin="round" d="M94.49,79.425
		c-0.505,0.337-0.505,0.673,0,1.01c0.505,0.337,1.346,0.337,1.851,0s0.505-0.841,0-1.01C95.836,79.088,94.995,79.088,94.49,79.425z"
		/>
	<path id="Shape_19_" fill="none" stroke="#2C2F31" stroke-linecap="round" stroke-linejoin="round" d="M139.431,68.61
		c-0.505,0.337-0.505,0.673,0,1.01c0.505,0.337,1.346,0.337,1.851,0s0.505-0.841,0-1.01
		C140.777,68.273,139.936,68.273,139.431,68.61z"/>
	<path id="Shape_20_" fill="#FFFFFF" stroke="#2C2F31" stroke-linecap="round" stroke-linejoin="round" d="M142.572,49.683
		l-6.394-3.702v10.433l6.394-3.702C144.087,51.871,144.087,50.525,142.572,49.683z"/>
	<g id="Group-10" transform="translate(26.044515, 12.230588)">
		<path id="Path-6-Copy" stroke="#2C2F31" stroke-width="0.864" d="M25.239,39.301l31.479,18.292c1.067,0.62,2.385,0.624,3.456,0.01
			l31.807-18.242c0.828-0.475,1.114-1.531,0.639-2.359c-0.153-0.267-0.376-0.489-0.643-0.642L59.971,18.122
			c-1.07-0.61-2.383-0.604-3.447,0.014L25.239,36.313c-0.825,0.479-1.105,1.537-0.626,2.362
			C24.763,38.934,24.979,39.15,25.239,39.301z"/>
	</g>
	<path id="logo" fill="#FFFFFF" d="M93.171,48.527l-9.072-0.049c-0.159-0.001-0.291,0.066-0.295,0.15l-0.023,0.499
		c-0.004,0.084-0.136,0.151-0.295,0.15l-1.741-0.009c-0.159-0.001-0.284-0.069-0.28-0.153l0.081-1.736
		c0.004-0.084,0.137-0.151,0.297-0.15l9.113,0.092l-2.342-1.276l-0.027,0.58c-0.004,0.084-0.138,0.152-0.298,0.15l-1.745-0.023
		c-0.157-0.002-0.28-0.07-0.276-0.153l0.084-1.787l-0.889-0.484c-0.18-0.098-0.483-0.1-0.672-0.004l-9.041,4.592
		c-0.189,0.096-0.197,0.255-0.016,0.353l0.845,0.46l9.181,0.05c0.159,0.001,0.291-0.066,0.294-0.15l0.023-0.499
		c0.004-0.084,0.136-0.151,0.295-0.15l1.741,0.009c0.159,0.001,0.284,0.069,0.28,0.153L88.31,50.88
		c-0.004,0.084-0.137,0.151-0.297,0.15l-9.222-0.093l2.449,1.334l0.03-0.637c0.004-0.084,0.139-0.152,0.299-0.15l1.745,0.023
		c0.157,0.002,0.28,0.07,0.276,0.153l-0.086,1.837l0.836,0.462c0.18,0.098,0.482,0.1,0.672,0.004l9.041-4.592
		c0.189-0.096,0.197-0.255,0.016-0.353"/>
</g>
<g>
	<path d="M430.681,517.048h-2.467l-2.447-4.5l-2.412,4.5h-2.466l3.743-6.516l-3.491-6.084h2.466l2.178,4.031l2.16-4.031h2.466
		l-3.492,6.048L430.681,517.048z"/>
	<path d="M437.052,517.264c-1.296,0-2.321-0.426-3.077-1.277c-0.757-0.853-1.135-2.028-1.135-3.528c0-1.488,0.388-2.664,1.161-3.528
		c0.774-0.864,1.803-1.296,3.087-1.296c1.956,0,3.216,0.834,3.78,2.502l-1.962,0.666c-0.312-0.804-0.912-1.206-1.8-1.206
		c-0.685,0-1.215,0.259-1.594,0.774c-0.378,0.516-0.566,1.212-0.566,2.088c0,0.876,0.188,1.565,0.566,2.07
		c0.379,0.504,0.897,0.756,1.558,0.756c0.96,0,1.59-0.45,1.89-1.351l1.962,0.612C440.37,516.358,439.08,517.264,437.052,517.264z"/>
	<path d="M452.154,511.99c0,0.527-0.024,0.947-0.072,1.26h-6.264c0.132,0.672,0.398,1.203,0.801,1.593
		c0.401,0.391,0.921,0.585,1.557,0.585c0.804,0,1.482-0.3,2.034-0.899l1.242,1.313c-0.864,0.948-1.962,1.422-3.294,1.422
		c-1.356,0-2.428-0.438-3.213-1.313c-0.786-0.876-1.18-2.046-1.18-3.511c0-1.487,0.396-2.66,1.188-3.519
		c0.792-0.857,1.859-1.287,3.204-1.287c1.176,0,2.136,0.369,2.88,1.107C451.782,509.479,452.154,510.562,452.154,511.99z
		 M445.8,511.486h4.32c-0.061-0.673-0.273-1.18-0.639-1.521c-0.366-0.342-0.808-0.513-1.323-0.513c-0.66,0-1.191,0.18-1.593,0.54
		C446.163,510.352,445.908,510.85,445.8,511.486z"/>
	<path d="M461.442,507.634c0.827,0,1.548,0.162,2.159,0.486v3.401h-2.016v-1.962h-0.18c-0.948,0-1.681,0.223-2.196,0.666
		c-0.517,0.444-0.774,1.11-0.774,1.998v3.006h2.574v1.818h-6.588v-1.818h1.944v-5.562h-1.944v-1.818h3.87v1.477
		c0.252-0.528,0.666-0.942,1.242-1.242S460.746,507.634,461.442,507.634z"/>
	<path d="M470.981,517.264c-1.8,0-2.699-0.834-2.699-2.502v-5.094h-1.927v-1.818h1.927v-2.808l2.069-0.99v3.798h3.132v1.818h-3.132
		v4.698c0,0.708,0.433,1.062,1.296,1.062c0.504,0,1.032-0.144,1.584-0.432l-0.252,1.854
		C472.451,517.126,471.785,517.264,470.981,517.264z"/>
</g>
<g>
	<path d="M329.026,21.756c0,0.816-0.219,1.554-0.657,2.214s-1.071,1.128-1.899,1.404l2.538,5.166h-2.376l-2.448-4.932h-1.494v4.932
		h-2.142v-12.6h4.356c0.744,0,1.392,0.105,1.944,0.315c0.552,0.21,0.981,0.498,1.287,0.864s0.531,0.768,0.675,1.206
		S329.026,21.24,329.026,21.756z M322.69,19.956v3.636h2.25c0.672,0,1.155-0.171,1.449-0.513c0.294-0.342,0.441-0.777,0.441-1.305
		c0-0.504-0.144-0.933-0.432-1.287c-0.288-0.354-0.774-0.531-1.458-0.531H322.69z"/>
	<path d="M340.006,25.482c0,0.528-0.024,0.948-0.072,1.26h-6.264c0.132,0.672,0.398,1.203,0.801,1.593
		c0.401,0.39,0.921,0.585,1.557,0.585c0.804,0,1.482-0.3,2.034-0.9l1.242,1.314c-0.864,0.948-1.962,1.422-3.294,1.422
		c-1.356,0-2.428-0.438-3.213-1.314c-0.786-0.875-1.179-2.046-1.179-3.51c0-1.488,0.396-2.661,1.188-3.519s1.859-1.287,3.204-1.287
		c1.176,0,2.136,0.369,2.88,1.107C339.634,22.971,340.006,24.054,340.006,25.482z M333.652,24.978h4.32
		c-0.061-0.672-0.273-1.179-0.639-1.521c-0.366-0.342-0.808-0.513-1.323-0.513c-0.66,0-1.191,0.18-1.593,0.54
		C334.015,23.844,333.76,24.342,333.652,24.978z"/>
	<path d="M347.08,30.756c-1.296,0-2.321-0.426-3.077-1.278c-0.757-0.852-1.135-2.028-1.135-3.528c0-1.488,0.388-2.664,1.161-3.528
		c0.774-0.864,1.803-1.296,3.087-1.296c1.956,0,3.216,0.834,3.78,2.502l-1.962,0.666c-0.312-0.804-0.912-1.206-1.8-1.206
		c-0.685,0-1.215,0.258-1.594,0.774c-0.378,0.516-0.566,1.212-0.566,2.088s0.188,1.566,0.566,2.07
		c0.379,0.504,0.897,0.756,1.558,0.756c0.96,0,1.59-0.45,1.89-1.35l1.962,0.612C350.398,29.85,349.108,30.756,347.08,30.756z"/>
	<path d="M359.104,28.722h2.538v1.818h-7.146v-1.818h2.538V23.16h-2.538v-1.818h4.608V28.722z M358.06,20.064
		c-0.336,0-0.624-0.12-0.864-0.36c-0.24-0.24-0.36-0.534-0.36-0.882s0.12-0.639,0.36-0.873c0.24-0.234,0.528-0.351,0.864-0.351
		c0.348,0,0.642,0.117,0.882,0.351c0.24,0.234,0.36,0.525,0.36,0.873s-0.12,0.642-0.36,0.882
		C358.702,19.944,358.408,20.064,358.06,20.064z"/>
	<path d="M365.116,34.158V21.342h2.07v0.702c0.563-0.612,1.313-0.918,2.25-0.918c1.235,0,2.217,0.426,2.942,1.278
		c0.727,0.853,1.089,2.034,1.089,3.546c0,1.476-0.375,2.646-1.125,3.51c-0.75,0.864-1.713,1.296-2.889,1.296
		c-0.96,0-1.716-0.318-2.268-0.954v3.402L365.116,34.158z M369.148,28.776c0.708,0,1.257-0.243,1.646-0.729
		c0.39-0.486,0.585-1.185,0.585-2.097c0-0.876-0.195-1.572-0.585-2.088c-0.39-0.516-0.944-0.774-1.665-0.774
		c-0.863,0-1.512,0.306-1.943,0.918v3.852C367.618,28.47,368.272,28.776,369.148,28.776z"/>
	<path d="M384.358,25.482c0,0.528-0.024,0.948-0.072,1.26h-6.264c0.132,0.672,0.398,1.203,0.801,1.593
		c0.401,0.39,0.921,0.585,1.557,0.585c0.804,0,1.482-0.3,2.034-0.9l1.242,1.314c-0.864,0.948-1.962,1.422-3.294,1.422
		c-1.356,0-2.428-0.438-3.213-1.314c-0.786-0.875-1.18-2.046-1.18-3.51c0-1.488,0.396-2.661,1.188-3.519s1.859-1.287,3.204-1.287
		c1.176,0,2.136,0.369,2.88,1.107C383.986,22.971,384.358,24.054,384.358,25.482z M378.003,24.978h4.32
		c-0.061-0.672-0.273-1.179-0.639-1.521c-0.366-0.342-0.808-0.513-1.323-0.513c-0.66,0-1.191,0.18-1.593,0.54
		C378.367,23.844,378.112,24.342,378.003,24.978z"/>
	<path d="M403.383,25.374v3.222h-2.088v-3.222h-3.186v-2.016h3.186v-3.222h2.088v3.222h3.187v2.016H403.383z"/>
	<path d="M429.413,30.54h-2.467l-2.447-4.5l-2.412,4.5h-2.466l3.743-6.516l-3.491-6.084h2.466l2.178,4.032l2.16-4.032h2.466
		l-3.492,6.048L429.413,30.54z"/>
	<path d="M435.784,30.756c-1.296,0-2.321-0.426-3.077-1.278c-0.757-0.852-1.135-2.028-1.135-3.528c0-1.488,0.388-2.664,1.161-3.528
		c0.774-0.864,1.803-1.296,3.087-1.296c1.956,0,3.215,0.834,3.78,2.502l-1.961,0.666c-0.312-0.804-0.912-1.206-1.8-1.206
		c-0.685,0-1.215,0.258-1.594,0.774c-0.378,0.516-0.566,1.212-0.566,2.088s0.188,1.566,0.566,2.07
		c0.379,0.504,0.897,0.756,1.558,0.756c0.96,0,1.59-0.45,1.89-1.35l1.961,0.612C439.102,29.85,437.812,30.756,435.784,30.756z"/>
	<path d="M450.886,25.482c0,0.528-0.024,0.948-0.072,1.26h-6.264c0.132,0.672,0.398,1.203,0.801,1.593
		c0.401,0.39,0.921,0.585,1.557,0.585c0.804,0,1.482-0.3,2.034-0.9l1.242,1.314c-0.864,0.948-1.962,1.422-3.294,1.422
		c-1.356,0-2.428-0.438-3.213-1.314c-0.786-0.875-1.18-2.046-1.18-3.51c0-1.488,0.396-2.661,1.188-3.519s1.859-1.287,3.204-1.287
		c1.176,0,2.136,0.369,2.88,1.107C450.514,22.971,450.886,24.054,450.886,25.482z M444.531,24.978h4.32
		c-0.061-0.672-0.273-1.179-0.639-1.521c-0.366-0.342-0.808-0.513-1.323-0.513c-0.66,0-1.191,0.18-1.593,0.54
		C444.895,23.844,444.64,24.342,444.531,24.978z"/>
	<path d="M460.174,21.126c0.827,0,1.548,0.162,2.159,0.486v3.402h-2.016v-1.962h-0.18c-0.948,0-1.681,0.222-2.196,0.666
		c-0.517,0.444-0.774,1.11-0.774,1.998v3.006h2.574v1.818h-6.588v-1.818h1.944V23.16h-1.944v-1.818h3.87v1.476
		c0.252-0.528,0.666-0.942,1.242-1.242S459.478,21.126,460.174,21.126z"/>
	<path d="M469.713,30.756c-1.8,0-2.699-0.833-2.699-2.502V23.16h-1.927v-1.818h1.927v-2.808l2.069-0.99v3.798h3.132v1.818h-3.132
		v4.698c0,0.708,0.433,1.062,1.296,1.062c0.504,0,1.032-0.144,1.584-0.432l-0.252,1.854
		C471.183,30.618,470.517,30.756,469.713,30.756z"/>
	<path d="M490.341,30.756c-1.008,0-1.827-0.264-2.457-0.792c-0.63-0.528-0.944-1.284-0.944-2.268c0-0.996,0.359-1.751,1.079-2.268
		c0.721-0.516,1.584-0.774,2.593-0.774c0.876,0,1.638,0.162,2.286,0.486V24.6c0-1.104-0.606-1.656-1.818-1.656
		c-1.008,0-1.98,0.312-2.916,0.936l-0.63-1.692c1.116-0.708,2.357-1.062,3.726-1.062c2.437,0,3.654,1.152,3.654,3.456v5.958h-2.016
		v-0.72C492.249,30.444,491.396,30.756,490.341,30.756z M490.719,28.938c0.864,0,1.59-0.306,2.179-0.918v-1.188
		c-0.553-0.276-1.206-0.414-1.963-0.414c-0.575,0-1.053,0.108-1.431,0.324c-0.378,0.216-0.566,0.534-0.566,0.954
		c0,0.373,0.155,0.672,0.468,0.9C489.717,28.824,490.155,28.938,490.719,28.938z"/>
	<path d="M501.807,30.756c-1.26,0-2.25-0.423-2.97-1.269c-0.72-0.846-1.08-2.031-1.08-3.555c0-1.476,0.369-2.646,1.107-3.51
		c0.737-0.864,1.7-1.296,2.889-1.296c0.983,0,1.746,0.294,2.286,0.882v-3.51l2.07-0.954V30.54h-2.07v-0.702
		c-0.192,0.252-0.489,0.468-0.892,0.648C502.746,30.666,502.299,30.756,501.807,30.756z M502.095,28.776c0.9,0,1.548-0.3,1.944-0.9
		v-3.888c-0.433-0.6-1.092-0.9-1.98-0.9c-0.708,0-1.254,0.246-1.638,0.738s-0.576,1.194-0.576,2.106c0,0.864,0.195,1.554,0.585,2.07
		C500.819,28.518,501.375,28.776,502.095,28.776z"/>
	<path d="M512.895,30.756c-1.26,0-2.25-0.423-2.97-1.269c-0.72-0.846-1.08-2.031-1.08-3.555c0-1.476,0.369-2.646,1.107-3.51
		c0.737-0.864,1.7-1.296,2.889-1.296c0.983,0,1.746,0.294,2.286,0.882v-3.51l2.07-0.954V30.54h-2.07v-0.702
		c-0.192,0.252-0.489,0.468-0.892,0.648C513.834,30.666,513.387,30.756,512.895,30.756z M513.183,28.776c0.9,0,1.548-0.3,1.944-0.9
		v-3.888c-0.433-0.6-1.092-0.9-1.98-0.9c-0.708,0-1.254,0.246-1.638,0.738s-0.576,1.194-0.576,2.106c0,0.864,0.195,1.554,0.585,2.07
		C511.907,28.518,512.463,28.776,513.183,28.776z"/>
	<path d="M526.701,21.126c0.827,0,1.548,0.162,2.159,0.486v3.402h-2.016v-1.962h-0.18c-0.948,0-1.681,0.222-2.196,0.666
		c-0.517,0.444-0.774,1.11-0.774,1.998v3.006h2.574v1.818h-6.588v-1.818h1.944V23.16h-1.944v-1.818h3.87v1.476
		c0.252-0.528,0.666-0.942,1.242-1.242S526.005,21.126,526.701,21.126z"/>
	<path d="M539.589,25.482c0,0.528-0.024,0.948-0.072,1.26h-6.264c0.132,0.672,0.398,1.203,0.801,1.593
		c0.401,0.39,0.921,0.585,1.557,0.585c0.804,0,1.482-0.3,2.034-0.9l1.242,1.314c-0.864,0.948-1.962,1.422-3.294,1.422
		c-1.356,0-2.428-0.438-3.213-1.314c-0.786-0.875-1.18-2.046-1.18-3.51c0-1.488,0.396-2.661,1.188-3.519s1.859-1.287,3.204-1.287
		c1.176,0,2.136,0.369,2.88,1.107C539.217,22.971,539.589,24.054,539.589,25.482z M533.234,24.978h4.32
		c-0.061-0.672-0.273-1.179-0.639-1.521c-0.366-0.342-0.808-0.513-1.323-0.513c-0.66,0-1.191,0.18-1.593,0.54
		C533.598,23.844,533.343,24.342,533.234,24.978z"/>
	<path d="M546.536,30.756c-0.78,0-1.5-0.147-2.159-0.441c-0.66-0.294-1.188-0.693-1.585-1.197l1.351-1.224
		c0.756,0.732,1.59,1.098,2.502,1.098c0.443,0,0.81-0.078,1.098-0.234c0.288-0.156,0.433-0.39,0.433-0.702
		c0-0.18-0.088-0.351-0.262-0.513s-0.375-0.297-0.603-0.405c-0.229-0.108-0.564-0.252-1.008-0.432
		c-0.049-0.024-0.088-0.042-0.117-0.054c-0.03-0.012-0.069-0.027-0.117-0.045s-0.09-0.033-0.126-0.045
		c-0.444-0.192-0.773-0.339-0.99-0.441c-0.216-0.102-0.477-0.246-0.782-0.432c-0.307-0.186-0.528-0.363-0.666-0.531
		c-0.139-0.168-0.262-0.381-0.369-0.639c-0.108-0.258-0.162-0.549-0.162-0.873c0-0.78,0.336-1.395,1.008-1.845
		c0.672-0.45,1.518-0.675,2.538-0.675c1.428,0,2.574,0.486,3.438,1.458l-1.386,1.134c-0.66-0.552-1.368-0.828-2.124-0.828
		c-0.468,0-0.843,0.069-1.125,0.207s-0.423,0.333-0.423,0.585c0,0.12,0.048,0.237,0.144,0.351c0.097,0.114,0.265,0.234,0.505,0.36
		c0.239,0.126,0.438,0.222,0.594,0.288c0.155,0.066,0.42,0.171,0.792,0.315c1.104,0.444,1.836,0.804,2.196,1.08
		c0.636,0.504,0.96,1.158,0.972,1.962c0,0.852-0.321,1.518-0.963,1.998C548.495,30.516,547.628,30.756,546.536,30.756z"/>
	<path d="M557.624,30.756c-0.78,0-1.5-0.147-2.159-0.441c-0.66-0.294-1.188-0.693-1.585-1.197l1.351-1.224
		c0.756,0.732,1.59,1.098,2.502,1.098c0.443,0,0.81-0.078,1.098-0.234c0.288-0.156,0.433-0.39,0.433-0.702
		c0-0.18-0.088-0.351-0.262-0.513s-0.375-0.297-0.603-0.405c-0.229-0.108-0.564-0.252-1.008-0.432
		c-0.049-0.024-0.088-0.042-0.117-0.054c-0.03-0.012-0.069-0.027-0.117-0.045s-0.09-0.033-0.126-0.045
		c-0.444-0.192-0.773-0.339-0.99-0.441c-0.216-0.102-0.477-0.246-0.782-0.432c-0.307-0.186-0.528-0.363-0.666-0.531
		c-0.139-0.168-0.262-0.381-0.369-0.639c-0.108-0.258-0.162-0.549-0.162-0.873c0-0.78,0.336-1.395,1.008-1.845
		c0.672-0.45,1.518-0.675,2.538-0.675c1.428,0,2.574,0.486,3.438,1.458l-1.386,1.134c-0.66-0.552-1.368-0.828-2.124-0.828
		c-0.468,0-0.843,0.069-1.125,0.207s-0.423,0.333-0.423,0.585c0,0.12,0.048,0.237,0.144,0.351c0.097,0.114,0.265,0.234,0.505,0.36
		c0.239,0.126,0.438,0.222,0.594,0.288c0.155,0.066,0.42,0.171,0.792,0.315c1.104,0.444,1.836,0.804,2.196,1.08
		c0.636,0.504,0.96,1.158,0.972,1.962c0,0.852-0.321,1.518-0.963,1.998C559.583,30.516,558.716,30.756,557.624,30.756z"/>
</g>
</svg>
