<?xml version="1.0" encoding="utf-8"?>
<!-- Generator: Adobe Illustrator 17.0.0, SVG Export Plug-In . SVG Version: 6.00 Build 0)  -->
<!DOCTYPE svg PUBLIC "-//W3C//DTD SVG 1.1//EN" "http://www.w3.org/Graphics/SVG/1.1/DTD/svg11.dtd">
<svg version="1.1" id="Layer_1" xmlns="http://www.w3.org/2000/svg" xmlns:xlink="http://www.w3.org/1999/xlink" x="0px" y="0px"
	 width="875px" height="555px" viewBox="0 0 875 555" enable-background="new 0 0 875 555" xml:space="preserve">
<title>05</title>
<desc>Created with Sketch.</desc>
<path id="Line" fill="none" stroke="#AAB1B5" stroke-linecap="round" stroke-linejoin="round" stroke-dasharray="6,12" d="
	M801.924,161.128V63.51L86.245,63.575l-0.021,92.681"/>
<path id="Line-5" fill="none" stroke="#AAB1B5" stroke-linecap="round" stroke-linejoin="round" d="M275.352,489.632h65.532"/>
<path id="Line-5_1_" fill="none" stroke="#AAB1B5" stroke-linecap="round" stroke-linejoin="round" d="M87,332.022v190.798"/>
<path id="Line-5_2_" fill="none" stroke="#AAB1B5" stroke-linecap="round" stroke-linejoin="round" d="M275,458v64.471"/>
<path id="Line-5_3_" fill="none" stroke="#AAB1B5" stroke-linecap="round" stroke-linejoin="round" d="M274.973,522.938H87.224"/>
<path id="Line-5_4_" fill="none" stroke="#AAB1B5" stroke-linecap="round" stroke-linejoin="round" d="M275.073,458H87"/>
<path id="Line-5_5_" fill="none" stroke="#AAB1B5" stroke-linecap="round" stroke-linejoin="round" d="M336.513,393H87"/>
<path id="Line-3" fill="none" stroke="#AAB1B5" stroke-linecap="round" stroke-linejoin="round" d="M443.728,342.875V271"/>
<g id="Arrow-head" transform="translate(46.672000, 121.976000)">
	<path id="Line-4" fill="none" stroke="#AAB1B5" stroke-linecap="round" stroke-linejoin="round" d="M39.552,35.401l11.329-13.217"
		/>
	<path id="Line-4_1_" fill="none" stroke="#AAB1B5" stroke-linecap="round" stroke-linejoin="round" d="M39.552,35.144
		L28.223,21.927"/>
</g>
<g id="Arrow-head_1_" transform="translate(306.500000, 378.500000) rotate(-90.000000) translate(-306.500000, -378.500000) translate(293.000000, 368.000000)">
	<path id="Line-4_2_" fill="none" stroke="#AAB1B5" stroke-linecap="round" stroke-linejoin="round" d="M-1.448,42.401L9.881,29.184
		"/>
	<path id="Line-4_3_" fill="none" stroke="#AAB1B5" stroke-linecap="round" stroke-linejoin="round" d="M-1.448,42.144
		l-11.329-13.217"/>
</g>
<g id="Blockchain" transform="translate(206.000000, 204.000000)">
	<polygon fill="#F7F7F7" stroke="#2C2F31" stroke-linecap="round" stroke-linejoin="round" points="24,17 452,17 452,67 24,66.865 	
		"/>
	<path fill="#2C2F31" d="M190.436,48V36.8h3.776c1.259,0,2.171,0.285,2.736,0.856c0.565,0.571,0.848,1.283,0.848,2.136
		c0,1.099-0.485,1.867-1.456,2.304c0.597,0.203,1.053,0.544,1.368,1.024c0.315,0.48,0.472,1.013,0.472,1.6
		c0,0.896-0.301,1.667-0.904,2.312c-0.603,0.645-1.544,0.968-2.824,0.968H190.436z M192.34,41.328h1.616
		c0.64,0,1.123-0.125,1.448-0.376c0.325-0.251,0.488-0.595,0.488-1.032c0-0.907-0.544-1.36-1.632-1.36h-1.92V41.328z M192.34,46.24
		h2.24c0.608,0,1.043-0.147,1.304-0.44s0.392-0.648,0.392-1.064c0-1.109-0.72-1.664-2.16-1.664h-1.776V46.24z M204.916,46.384h2.384
		V48h-6.608v-1.616h2.384v-8.32h-1.904l-0.848-1.616h4.592V46.384z M213.86,48.192c-1.205,0-2.16-0.381-2.864-1.144
		c-0.704-0.763-1.056-1.805-1.056-3.128c0-1.312,0.352-2.355,1.056-3.128c0.704-0.773,1.659-1.16,2.864-1.16
		c1.216,0,2.173,0.387,2.872,1.16s1.048,1.816,1.048,3.128c0,1.312-0.349,2.352-1.048,3.12S215.076,48.192,213.86,48.192z
		 M213.86,46.432c0.661,0,1.171-0.224,1.528-0.672c0.357-0.448,0.536-1.061,0.536-1.84s-0.179-1.397-0.536-1.856
		s-0.867-0.688-1.528-0.688c-0.651,0-1.157,0.229-1.52,0.688s-0.544,1.077-0.544,1.856c0,0.768,0.181,1.379,0.544,1.832
		C212.703,46.205,213.209,46.432,213.86,46.432z M223.876,48.192c-1.152,0-2.064-0.379-2.736-1.136s-1.008-1.803-1.008-3.136
		c0-1.323,0.344-2.368,1.032-3.136s1.603-1.152,2.744-1.152c1.739,0,2.859,0.741,3.36,2.224l-1.744,0.592
		c-0.277-0.715-0.811-1.072-1.6-1.072c-0.608,0-1.08,0.229-1.416,0.688c-0.336,0.459-0.504,1.077-0.504,1.856
		s0.168,1.392,0.504,1.84c0.336,0.448,0.797,0.672,1.384,0.672c0.853,0,1.413-0.4,1.68-1.2l1.744,0.544
		C226.825,47.387,225.679,48.192,223.876,48.192z M235.444,48l-2.336-4.512l-1.216,1.168V48h-1.84V37.312l1.84-0.864v6.176
		l2.848-2.8h2.192l-2.464,2.368L237.46,48H235.444z M243.588,48.192c-1.152,0-2.064-0.379-2.736-1.136
		c-0.672-0.757-1.008-1.803-1.008-3.136c0-1.323,0.344-2.368,1.032-3.136s1.603-1.152,2.744-1.152c1.739,0,2.859,0.741,3.36,2.224
		l-1.744,0.592c-0.277-0.715-0.811-1.072-1.6-1.072c-0.608,0-1.08,0.229-1.416,0.688s-0.504,1.077-0.504,1.856
		s0.168,1.392,0.504,1.84c0.336,0.448,0.797,0.672,1.384,0.672c0.853,0,1.413-0.4,1.68-1.2l1.744,0.544
		C246.537,47.387,245.391,48.192,243.588,48.192z M249.7,48V37.296l1.84-0.848v4.176c0.533-0.661,1.307-0.992,2.32-0.992
		c0.896,0,1.624,0.269,2.184,0.808c0.56,0.539,0.84,1.395,0.84,2.568V48h-1.84v-4.608c0-0.704-0.157-1.216-0.472-1.536
		c-0.315-0.32-0.723-0.48-1.224-0.48c-0.533,0-0.968,0.155-1.304,0.464c-0.336,0.309-0.504,0.816-0.504,1.52V48H249.7z
		 M262.516,48.192c-0.896,0-1.624-0.235-2.184-0.704s-0.84-1.141-0.84-2.016c0-0.885,0.32-1.557,0.96-2.016
		c0.64-0.459,1.408-0.688,2.304-0.688c0.779,0,1.456,0.144,2.032,0.432v-0.48c0-0.981-0.539-1.472-1.616-1.472
		c-0.896,0-1.76,0.277-2.592,0.832l-0.56-1.504c0.992-0.629,2.096-0.944,3.312-0.944c2.165,0,3.248,1.024,3.248,3.072V48h-1.792
		v-0.64C264.212,47.915,263.455,48.192,262.516,48.192z M262.852,46.576c0.768,0,1.413-0.272,1.936-0.816v-1.056
		c-0.491-0.245-1.072-0.368-1.744-0.368c-0.512,0-0.936,0.096-1.272,0.288s-0.504,0.475-0.504,0.848c0,0.331,0.139,0.597,0.416,0.8
		C261.961,46.475,262.351,46.576,262.852,46.576z M273.06,38.688c-0.299,0-0.555-0.107-0.768-0.32
		c-0.213-0.213-0.32-0.475-0.32-0.784s0.107-0.568,0.32-0.776c0.213-0.208,0.469-0.312,0.768-0.312c0.309,0,0.571,0.104,0.784,0.312
		s0.32,0.467,0.32,0.776s-0.107,0.571-0.32,0.784S273.369,38.688,273.06,38.688z M273.988,46.384h2.256V48h-6.352v-1.616h2.256
		V41.44h-2.256v-1.616h4.096V46.384z M283.428,39.632c0.896,0,1.624,0.269,2.184,0.808c0.56,0.539,0.84,1.395,0.84,2.568V48h-1.84
		v-4.608c0-0.704-0.155-1.216-0.464-1.536c-0.309-0.32-0.72-0.48-1.232-0.48c-1.205,0-1.808,0.661-1.808,1.984V48h-1.84v-8.176
		h1.696v1.008c0.16-0.32,0.472-0.6,0.936-0.84C282.364,39.752,282.873,39.632,283.428,39.632z"/>
</g>
<rect id="_x32_" x="340" y="343" fill="none" stroke="#2C2F31" stroke-linecap="round" stroke-linejoin="round" width="207.36" height="207.36"/>
<path id="Sceptic" fill="#2C2F31" d="M57.06,307.192c-0.907,0-1.723-0.261-2.448-0.784c-0.725-0.523-1.237-1.221-1.536-2.096
	l1.728-0.64c0.245,0.523,0.584,0.941,1.016,1.256c0.432,0.315,0.899,0.472,1.4,0.472c0.491,0,0.885-0.128,1.184-0.384
	c0.299-0.256,0.448-0.624,0.448-1.104c0-0.405-0.203-0.765-0.608-1.08s-0.971-0.632-1.696-0.952
	c-0.459-0.203-0.827-0.379-1.104-0.528c-0.277-0.149-0.589-0.357-0.936-0.624s-0.605-0.581-0.776-0.944
	c-0.171-0.363-0.256-0.768-0.256-1.216c0-0.832,0.317-1.533,0.952-2.104c0.635-0.571,1.469-0.856,2.504-0.856
	c0.821,0,1.539,0.224,2.152,0.672c0.613,0.448,1.021,1.019,1.224,1.712l-1.712,0.576c-0.384-0.779-0.976-1.168-1.776-1.168
	c-0.416,0-0.757,0.107-1.024,0.32c-0.267,0.213-0.4,0.507-0.4,0.88c0,0.085,0.011,0.168,0.032,0.248
	c0.021,0.08,0.059,0.155,0.112,0.224c0.053,0.069,0.104,0.133,0.152,0.192c0.048,0.059,0.123,0.123,0.224,0.192
	s0.187,0.125,0.256,0.168c0.069,0.043,0.173,0.099,0.312,0.168s0.245,0.12,0.32,0.152c0.075,0.032,0.197,0.088,0.368,0.168
	c0.171,0.08,0.293,0.136,0.368,0.168c0.448,0.203,0.821,0.392,1.12,0.568s0.629,0.408,0.992,0.696s0.64,0.629,0.832,1.024
	c0.192,0.395,0.288,0.827,0.288,1.296c0,1.024-0.36,1.835-1.08,2.432C58.972,306.893,58.095,307.192,57.06,307.192z M66.948,307.192
	c-1.152,0-2.064-0.379-2.736-1.136c-0.672-0.757-1.008-1.803-1.008-3.136c0-1.323,0.344-2.368,1.032-3.136s1.603-1.152,2.744-1.152
	c1.739,0,2.859,0.741,3.36,2.224l-1.744,0.592c-0.277-0.715-0.811-1.072-1.6-1.072c-0.608,0-1.08,0.229-1.416,0.688
	s-0.504,1.077-0.504,1.856c0,0.779,0.168,1.392,0.504,1.84s0.797,0.672,1.384,0.672c0.853,0,1.413-0.4,1.68-1.2l1.744,0.544
	C69.897,306.387,68.751,307.192,66.948,307.192z M80.372,302.504c0,0.469-0.021,0.843-0.064,1.12H74.74
	c0.117,0.597,0.355,1.069,0.712,1.416c0.357,0.347,0.819,0.52,1.384,0.52c0.715,0,1.317-0.267,1.808-0.8l1.104,1.168
	c-0.768,0.843-1.744,1.264-2.928,1.264c-1.205,0-2.157-0.389-2.856-1.168c-0.699-0.779-1.048-1.819-1.048-3.12
	c0-1.323,0.352-2.365,1.056-3.128s1.653-1.144,2.848-1.144c1.045,0,1.899,0.328,2.56,0.984
	C80.041,300.272,80.372,301.235,80.372,302.504z M74.724,302.056h3.84c-0.053-0.597-0.243-1.048-0.568-1.352
	c-0.325-0.304-0.717-0.456-1.176-0.456c-0.587,0-1.059,0.16-1.416,0.48S74.82,301.491,74.724,302.056z M82.98,310.216v-11.392h1.84
	v0.624c0.501-0.544,1.168-0.816,2-0.816c1.099,0,1.971,0.379,2.616,1.136c0.645,0.757,0.968,1.808,0.968,3.152
	c0,1.312-0.333,2.352-1,3.12s-1.523,1.152-2.568,1.152c-0.853,0-1.525-0.283-2.016-0.848v3.024L82.98,310.216z M86.564,305.432
	c0.629,0,1.117-0.216,1.464-0.648c0.347-0.432,0.52-1.053,0.52-1.864c0-0.779-0.173-1.397-0.52-1.856
	c-0.347-0.459-0.84-0.688-1.48-0.688c-0.768,0-1.344,0.272-1.728,0.816v3.424C85.204,305.16,85.785,305.432,86.564,305.432z
	 M97.108,307.192c-1.6,0-2.4-0.741-2.4-2.224v-4.528h-1.712v-1.616h1.712v-2.496l1.84-0.88v3.376h2.784v1.616h-2.784v4.176
	c0,0.629,0.384,0.944,1.152,0.944c0.448,0,0.917-0.128,1.408-0.384l-0.224,1.648C98.415,307.069,97.823,307.192,97.108,307.192z
	 M106.276,297.688c-0.299,0-0.555-0.107-0.768-0.32c-0.213-0.213-0.32-0.475-0.32-0.784c0-0.309,0.107-0.568,0.32-0.776
	c0.213-0.208,0.469-0.312,0.768-0.312c0.309,0,0.571,0.104,0.784,0.312c0.213,0.208,0.32,0.467,0.32,0.776
	c0,0.309-0.107,0.571-0.32,0.784C106.847,297.581,106.585,297.688,106.276,297.688z M107.204,305.384h2.256V307h-6.352v-1.616h2.256
	v-4.944h-2.256v-1.616h4.096V305.384z M116.228,307.192c-1.152,0-2.064-0.379-2.736-1.136c-0.672-0.757-1.008-1.803-1.008-3.136
	c0-1.323,0.344-2.368,1.032-3.136s1.603-1.152,2.744-1.152c1.739,0,2.859,0.741,3.36,2.224l-1.744,0.592
	c-0.277-0.715-0.811-1.072-1.6-1.072c-0.608,0-1.08,0.229-1.416,0.688s-0.504,1.077-0.504,1.856c0,0.779,0.168,1.392,0.504,1.84
	s0.797,0.672,1.384,0.672c0.853,0,1.413-0.4,1.68-1.2l1.744,0.544C119.177,306.387,118.031,307.192,116.228,307.192z"/>
<g id="Group" transform="translate(715.000000, 148.000000)">
	<g id="Mask">
		<circle id="path-1_1_" fill="#F7F7F7" cx="84" cy="77" r="60"/>
	</g>
	<defs>
		<filter id="Adobe_OpacityMaskFilter" filterUnits="userSpaceOnUse" x="42.436" y="24.716" width="83.429" height="123.034">
			<feColorMatrix  type="matrix" values="1 0 0 0 0  0 1 0 0 0  0 0 1 0 0  0 0 0 1 0"/>
		</filter>
	</defs>
	<mask maskUnits="userSpaceOnUse" x="42.436" y="24.716" width="83.429" height="123.034" id="mask-2">
		<g filter="url(#Adobe_OpacityMaskFilter)">
			<circle id="path-1" fill="#FFFFFF" cx="84" cy="77" r="60"/>
		</g>
	</mask>
	<g mask="url(#mask-2)">
		<g transform="translate(19.285714, 8.571429)">
			<path id="Shape" fill="none" stroke="#2C2F31" stroke-width="2" stroke-linecap="round" stroke-linejoin="round" d="
				M79.018,83.429c-1.586,3.568,0.761,6.429,2.904,7.875c-2.25,4.811-9.557,8.925-17.057,8.925s-15.504-4.146-17.057-8.925
				c2.143-1.243,4.521-4.286,2.871-7.875H79.018z"/>
			<path id="Shape_1_" fill="#FFFFFF" stroke="#2C2F31" stroke-width="2" stroke-linecap="round" stroke-linejoin="round" d="
				M67.2,89.954h-4.629c-4.019-0.004-7.873-1.604-10.714-4.446l-3.536-3.461c-5.188-5.189-8.101-12.227-8.1-19.564V44.268
				c0-24.439,49.286-24.439,49.286,0v18.214c0.001,7.338-2.912,14.375-8.1,19.564l-3.471,3.471
				C75.087,88.362,71.225,89.958,67.2,89.954z"/>
			<path id="Shape_2_" fill="none" stroke="#2C2F31" stroke-width="2" stroke-linecap="round" stroke-linejoin="round" d="
				M40.221,65.011v-9.643c0-3.214-2.389-4.286-3.857-3.214c-2.346,1.639,0.643,8.571,0.643,8.571
				C35.271,61.839,37.232,65.793,40.221,65.011z"/>
			<path id="Shape_3_" fill="none" stroke="#2C2F31" stroke-width="2" stroke-linecap="round" stroke-linejoin="round" d="
				M89.507,64.625v-9.643c0-3.214,2.379-4.286,3.857-3.214c2.346,1.639-0.643,8.571-0.643,8.571
				C94.468,61.454,92.496,65.418,89.507,64.625z"/>
			<path id="Shape_4_" fill="#FFFFFF" stroke="#2C2F31" stroke-width="2" stroke-linecap="round" stroke-linejoin="round" d="
				M77.443,19.068c8.261,3.504,19.286,13.286,14.764,27.718c-0.664,2.143-1.629,1.393-2.7,1.2c0,0-0.171-8.421-4.286-7.554
				c-9.793,2.057-14.614-5.818-26.507,2.818c-1.65-2.711-0.514-8.871,3.675-12.107c-9.804,0-22.168,6.011-22.168,13.232
				c0,0-3.279-2.421-3.546-4.811c-1.232-10.779,4.301-16.265,13.966-20.379C58.512,15.836,73.039,17.204,77.443,19.068z"/>
			
				<circle id="Oval" fill="none" stroke="#2C2F31" stroke-width="2" stroke-linecap="round" stroke-linejoin="round" cx="77.186" cy="58.346" r="1.607"/>
			
				<circle id="Oval_1_" fill="none" stroke="#2C2F31" stroke-width="2" stroke-linecap="round" stroke-linejoin="round" cx="52.564" cy="58.346" r="1.607"/>
			<path id="Shape_5_" fill="#FFFFFF" stroke="#2C2F31" stroke-width="2" stroke-linecap="round" stroke-linejoin="round" d="
				M89.089,94.143c0,0-7.232-2.871-6.954-2.711c-2.271,4.854-9.921,9.032-17.271,9.032s-15.6-4.179-17.293-8.979l-6.654,2.764
				c-10.111,4.121-16.733,13.939-16.768,24.857v19.071h81.429v-19.286C105.55,108.08,99.057,98.334,89.089,94.143z"/>
			<path id="Line_1_" fill="none" stroke="#2C2F31" stroke-width="2" stroke-linecap="round" stroke-linejoin="round" d="
				M42.75,137.536V118.22"/>
			<path id="Line_2_" fill="none" stroke="#2C2F31" stroke-width="2" stroke-linecap="round" stroke-linejoin="round" d="
				M86.679,137.536V118.22"/>
			<path id="Stroke-9" fill="none" stroke="#2C2F31" stroke-width="2" stroke-linecap="round" stroke-linejoin="round" d="
				M71.551,73.786c0,0-2.971,3.316-6.633,3.316c-3.661,0-6.633-3.316-6.633-3.316"/>
		</g>
	</g>
</g>
<g id="Group_2_" transform="translate(0.000000, 148.000000)">
	<g id="Mask_1_">
		<circle id="path-3_1_" fill="#F7F7F7" cx="84" cy="77" r="60"/>
	</g>
	<defs>
		<filter id="Adobe_OpacityMaskFilter_1_" filterUnits="userSpaceOnUse" x="42.436" y="24.716" width="83.429" height="123.034">
			<feColorMatrix  type="matrix" values="1 0 0 0 0  0 1 0 0 0  0 0 1 0 0  0 0 0 1 0"/>
		</filter>
	</defs>
	<mask maskUnits="userSpaceOnUse" x="42.436" y="24.716" width="83.429" height="123.034" id="mask-4">
		<g filter="url(#Adobe_OpacityMaskFilter_1_)">
			<circle id="path-3" fill="#FFFFFF" cx="84" cy="77" r="60"/>
		</g>
	</mask>
	<g mask="url(#mask-4)">
		<g transform="translate(19.285714, 8.571429)">
			<path id="Shape_6_" fill="none" stroke="#2C2F31" stroke-width="2" stroke-linecap="round" stroke-linejoin="round" d="
				M79.018,83.429c-1.586,3.568,0.761,6.429,2.904,7.875c-2.25,4.811-9.557,8.925-17.057,8.925s-15.504-4.146-17.057-8.925
				c2.143-1.243,4.521-4.286,2.871-7.875H79.018z"/>
			<path id="Shape_7_" fill="#FFFFFF" stroke="#2C2F31" stroke-width="2" stroke-linecap="round" stroke-linejoin="round" d="
				M67.2,89.954h-4.629c-4.019-0.004-7.873-1.604-10.714-4.446l-3.536-3.461c-5.188-5.189-8.101-12.227-8.1-19.564V44.268
				c0-24.439,49.286-24.439,49.286,0v18.214c0.001,7.338-2.912,14.375-8.1,19.564l-3.471,3.471
				C75.087,88.362,71.225,89.958,67.2,89.954z"/>
			<path id="Shape_8_" fill="none" stroke="#2C2F31" stroke-width="2" stroke-linecap="round" stroke-linejoin="round" d="
				M40.221,65.011v-9.643c0-3.214-2.389-4.286-3.857-3.214c-2.346,1.639,0.643,8.571,0.643,8.571
				C35.271,61.839,37.232,65.793,40.221,65.011z"/>
			<path id="Shape_9_" fill="none" stroke="#2C2F31" stroke-width="2" stroke-linecap="round" stroke-linejoin="round" d="
				M89.507,64.625v-9.643c0-3.214,2.379-4.286,3.857-3.214c2.346,1.639-0.643,8.571-0.643,8.571
				C94.468,61.454,92.496,65.418,89.507,64.625z"/>
			<path id="Shape_10_" fill="#FFFFFF" stroke="#2C2F31" stroke-width="2" stroke-linecap="round" stroke-linejoin="round" d="
				M77.443,19.068c8.261,3.504,19.286,13.286,14.764,27.718c-0.664,2.143-1.629,1.393-2.7,1.2c0,0-0.171-8.421-4.286-7.554
				c-9.793,2.057-14.614-5.818-26.507,2.818c-1.65-2.711-0.514-8.871,3.675-12.107c-9.804,0-22.168,6.011-22.168,13.232
				c0,0-3.279-2.421-3.546-4.811c-1.232-10.779,4.301-16.265,13.966-20.379C58.512,15.836,73.039,17.204,77.443,19.068z"/>
			<path id="Shape_11_" fill="#FFFFFF" stroke="#2C2F31" stroke-width="2" stroke-linecap="round" stroke-linejoin="round" d="
				M89.089,94.143c0,0-7.232-2.871-6.954-2.711c-2.271,4.854-9.921,9.032-17.271,9.032s-15.6-4.179-17.293-8.979l-6.654,2.764
				c-10.111,4.121-16.733,13.939-16.768,24.857v19.071h81.429v-19.286C105.55,108.08,99.057,98.334,89.089,94.143z"/>
			<path id="Line_3_" fill="none" stroke="#2C2F31" stroke-width="2" stroke-linecap="round" stroke-linejoin="round" d="
				M42.75,137.536V118.22"/>
			<path id="Line_4_" fill="none" stroke="#2C2F31" stroke-width="2" stroke-linecap="round" stroke-linejoin="round" d="
				M86.679,137.536V118.22"/>
			<g id="Group_1_" transform="translate(30.560440, 38.505495)">
				<path id="Line_5_" fill="none" stroke="#2C2F31" stroke-width="2" stroke-linecap="round" stroke-linejoin="round" d="
					M24.923,17.198v5.203"/>
				<path id="Line-Copy" fill="none" stroke="#2C2F31" stroke-width="2" stroke-linecap="round" stroke-linejoin="round" d="
					M44.308,17.198v5.203"/>
				<path id="Line-2" fill="none" stroke="#2C2F31" stroke-width="2" stroke-linecap="round" stroke-linejoin="round" d="
					M28.154,35.923l13.385-3.231"/>
			</g>
		</g>
	</g>
</g>
<path id="Holder" fill="#2C2F31" d="M773.648,310v-11.2h1.904v4.528h3.616V298.8h1.904V310h-1.904v-4.88h-3.616V310H773.648z
	 M787.216,310.192c-1.205,0-2.16-0.381-2.864-1.144c-0.704-0.763-1.056-1.805-1.056-3.128c0-1.312,0.352-2.355,1.056-3.128
	c0.704-0.773,1.659-1.16,2.864-1.16c1.216,0,2.173,0.387,2.872,1.16c0.699,0.773,1.048,1.816,1.048,3.128
	c0,1.312-0.349,2.352-1.048,3.12S788.432,310.192,787.216,310.192z M787.216,308.432c0.661,0,1.171-0.224,1.528-0.672
	c0.357-0.448,0.536-1.061,0.536-1.84c0-0.779-0.179-1.397-0.536-1.856c-0.357-0.459-0.867-0.688-1.528-0.688
	c-0.651,0-1.157,0.229-1.52,0.688s-0.544,1.077-0.544,1.856c0,0.768,0.181,1.379,0.544,1.832
	C786.059,308.205,786.565,308.432,787.216,308.432z M797.984,308.384h2.384V310h-6.608v-1.616h2.384v-8.32h-1.904l-0.848-1.616
	h4.592V308.384z M806.64,310.192c-1.12,0-2-0.376-2.64-1.128s-0.96-1.805-0.96-3.16c0-1.312,0.328-2.352,0.984-3.12
	s1.512-1.152,2.568-1.152c0.875,0,1.552,0.261,2.032,0.784v-3.12l1.84-0.848V310h-1.84v-0.624c-0.171,0.224-0.435,0.416-0.792,0.576
	C807.475,310.112,807.077,310.192,806.64,310.192z M806.896,308.432c0.8,0,1.376-0.267,1.728-0.8v-3.456
	c-0.384-0.533-0.971-0.8-1.76-0.8c-0.629,0-1.115,0.219-1.456,0.656c-0.341,0.437-0.512,1.061-0.512,1.872
	c0,0.768,0.173,1.381,0.52,1.84C805.763,308.203,806.256,308.432,806.896,308.432z M820.512,305.504c0,0.469-0.021,0.843-0.064,1.12
	h-5.568c0.117,0.597,0.355,1.069,0.712,1.416c0.357,0.347,0.819,0.52,1.384,0.52c0.715,0,1.317-0.267,1.808-0.8l1.104,1.168
	c-0.768,0.843-1.744,1.264-2.928,1.264c-1.205,0-2.157-0.389-2.856-1.168c-0.699-0.779-1.048-1.819-1.048-3.12
	c0-1.323,0.352-2.365,1.056-3.128s1.653-1.144,2.848-1.144c1.045,0,1.899,0.328,2.56,0.984
	C820.181,303.272,820.512,304.235,820.512,305.504z M814.864,305.056h3.84c-0.053-0.597-0.243-1.048-0.568-1.352
	c-0.325-0.304-0.717-0.456-1.176-0.456c-0.587,0-1.059,0.16-1.416,0.48C815.187,304.048,814.96,304.491,814.864,305.056z
	 M828.768,301.632c0.736,0,1.376,0.144,1.92,0.432v3.024h-1.792v-1.744h-0.16c-0.843,0-1.493,0.197-1.952,0.592
	c-0.459,0.395-0.688,0.987-0.688,1.776v2.672h2.288V310h-5.856v-1.616h1.728v-4.944h-1.728v-1.616h3.44v1.312
	c0.224-0.469,0.592-0.837,1.104-1.104C827.584,301.765,828.149,301.632,828.768,301.632z"/>
<g id="check" transform="translate(138.000000, 425.000000)">
	
		<circle id="Oval_2_" fill="#FFFFFF" stroke="#AAB1B5" stroke-linecap="round" stroke-linejoin="round" cx="39.72" cy="32.664" r="15.552"/>
	<polyline id="Line-6" fill="none" stroke="#000000" stroke-width="1.728" stroke-linecap="round" points="34.536,33.841 
		38.405,37.572 44.904,29.208 	"/>
</g>
<g id="x" transform="translate(138.000000, 489.000000)">
	
		<circle id="Oval_3_" fill="#FFFFFF" stroke="#AAB1B5" stroke-linecap="round" stroke-linejoin="round" cx="39.72" cy="32.6" r="15.552"/>
	<g id="Line-6_1_" transform="translate(10.536000, 10.416000)">
		<path fill="none" stroke="#000000" stroke-width="1.728" stroke-linecap="round" d="M24,27.368L34.368,17"/>
		<path fill="none" stroke="#000000" stroke-width="1.728" stroke-linecap="round" stroke-linejoin="round" d="M34.368,27.368L24,17
			L34.368,27.368z"/>
	</g>
</g>
<g id="Step1" transform="translate(400.000000, 27.000000)">
	<circle id="Oval_4_" fill="#E5E5E5" cx="42.749" cy="35.749" r="18.749"/>
	<polygon id="_x31_" fill="#7D8285" points="43.634,39.022 46.116,39.022 46.116,40.677 39.381,40.677 39.381,39.022 41.907,39.022 
		41.907,32.708 39.701,33.303 39.701,31.677 43.634,30.502 	"/>
</g>
<path id="Recipe-_x2B_-xcert-addre" fill="#2C2F31" d="M318.92,22.24c0,0.907-0.243,1.727-0.73,2.46s-1.19,1.253-2.11,1.56L318.9,32
	h-2.64l-2.72-5.48h-1.66V32h-2.38V18h4.84c0.827,0,1.547,0.117,2.16,0.35c0.613,0.233,1.09,0.553,1.43,0.96
	c0.34,0.407,0.59,0.853,0.75,1.34S318.92,21.667,318.92,22.24z M311.88,20.24v4.04h2.5c0.747,0,1.283-0.19,1.61-0.57
	c0.327-0.38,0.49-0.863,0.49-1.45c0-0.56-0.16-1.037-0.48-1.43s-0.86-0.59-1.62-0.59H311.88z M331.12,26.38
	c0,0.587-0.027,1.053-0.08,1.4h-6.96c0.147,0.747,0.443,1.337,0.89,1.77c0.447,0.433,1.023,0.65,1.73,0.65
	c0.893,0,1.647-0.333,2.26-1l1.38,1.46c-0.96,1.053-2.18,1.58-3.66,1.58c-1.507,0-2.697-0.487-3.57-1.46
	c-0.873-0.973-1.31-2.273-1.31-3.9c0-1.653,0.44-2.957,1.32-3.91c0.88-0.953,2.067-1.43,3.56-1.43c1.307,0,2.373,0.41,3.2,1.23
	C330.707,23.59,331.12,24.793,331.12,26.38z M324.06,25.82h4.8c-0.067-0.747-0.303-1.31-0.71-1.69c-0.407-0.38-0.897-0.57-1.47-0.57
	c-0.733,0-1.323,0.2-1.77,0.6C324.463,24.56,324.18,25.113,324.06,25.82z M338.98,32.24c-1.44,0-2.58-0.473-3.42-1.42
	s-1.26-2.253-1.26-3.92c0-1.653,0.43-2.96,1.29-3.92c0.86-0.96,2.003-1.44,3.43-1.44c2.173,0,3.573,0.927,4.2,2.78l-2.18,0.74
	c-0.347-0.893-1.013-1.34-2-1.34c-0.76,0-1.35,0.287-1.77,0.86c-0.42,0.573-0.63,1.347-0.63,2.32s0.21,1.74,0.63,2.3
	c0.42,0.56,0.997,0.84,1.73,0.84c1.067,0,1.767-0.5,2.1-1.5l2.18,0.68C342.667,31.233,341.233,32.24,338.98,32.24z M351.18,20.36
	c-0.373,0-0.693-0.133-0.96-0.4c-0.267-0.267-0.4-0.593-0.4-0.98c0-0.387,0.133-0.71,0.4-0.97c0.267-0.26,0.587-0.39,0.96-0.39
	c0.387,0,0.713,0.13,0.98,0.39c0.267,0.26,0.4,0.583,0.4,0.97c0,0.387-0.133,0.713-0.4,0.98
	C351.893,20.227,351.567,20.36,351.18,20.36z M352.34,29.98h2.82V32h-7.94v-2.02h2.82V23.8h-2.82v-2.02h5.12V29.98z M359.02,36.02
	V21.78h2.3v0.78c0.627-0.68,1.46-1.02,2.5-1.02c1.373,0,2.463,0.473,3.27,1.42c0.807,0.947,1.21,2.26,1.21,3.94
	c0,1.64-0.417,2.94-1.25,3.9c-0.833,0.96-1.903,1.44-3.21,1.44c-1.067,0-1.907-0.353-2.52-1.06v3.78L359.02,36.02z M363.5,30.04
	c0.787,0,1.397-0.27,1.83-0.81c0.433-0.54,0.65-1.317,0.65-2.33c0-0.973-0.217-1.747-0.65-2.32c-0.433-0.573-1.05-0.86-1.85-0.86
	c-0.96,0-1.68,0.34-2.16,1.02v4.28C361.8,29.7,362.527,30.04,363.5,30.04z M380.4,26.38c0,0.587-0.027,1.053-0.08,1.4h-6.96
	c0.147,0.747,0.443,1.337,0.89,1.77c0.447,0.433,1.023,0.65,1.73,0.65c0.893,0,1.647-0.333,2.26-1l1.38,1.46
	c-0.96,1.053-2.18,1.58-3.66,1.58c-1.507,0-2.697-0.487-3.57-1.46c-0.873-0.973-1.31-2.273-1.31-3.9c0-1.653,0.44-2.957,1.32-3.91
	c0.88-0.953,2.067-1.43,3.56-1.43c1.307,0,2.373,0.41,3.2,1.23S380.4,24.793,380.4,26.38z M373.34,25.82h4.8
	c-0.067-0.747-0.303-1.31-0.71-1.69c-0.407-0.38-0.897-0.57-1.47-0.57c-0.733,0-1.323,0.2-1.77,0.6
	C373.743,24.56,373.46,25.113,373.34,25.82z M401.54,26.26v3.58h-2.32v-3.58h-3.54v-2.24h3.54v-3.58h2.32v3.58h3.54v2.24H401.54z
	 M419.96,32l3.74-5.3l-3.48-4.92h2.64l1.6,2.26c0.32,0.48,0.5,0.773,0.54,0.88c0.28-0.467,0.467-0.76,0.56-0.88l1.6-2.26h2.64
	l-3.46,4.92l3.72,5.3h-2.64l-1.86-2.62c-0.093-0.12-0.28-0.413-0.56-0.88c-0.04,0.107-0.22,0.4-0.54,0.88L422.62,32H419.96z
	 M437.54,32.24c-1.44,0-2.58-0.473-3.42-1.42s-1.26-2.253-1.26-3.92c0-1.653,0.43-2.96,1.29-3.92c0.86-0.96,2.003-1.44,3.43-1.44
	c2.173,0,3.573,0.927,4.2,2.78l-2.18,0.74c-0.347-0.893-1.013-1.34-2-1.34c-0.76,0-1.35,0.287-1.77,0.86
	c-0.42,0.573-0.63,1.347-0.63,2.32s0.21,1.74,0.63,2.3c0.42,0.56,0.997,0.84,1.73,0.84c1.067,0,1.767-0.5,2.1-1.5l2.18,0.68
	C441.227,31.233,439.793,32.24,437.54,32.24z M454.32,26.38c0,0.587-0.027,1.053-0.08,1.4h-6.96c0.147,0.747,0.443,1.337,0.89,1.77
	c0.447,0.433,1.023,0.65,1.73,0.65c0.893,0,1.647-0.333,2.26-1l1.38,1.46c-0.96,1.053-2.18,1.58-3.66,1.58
	c-1.507,0-2.697-0.487-3.57-1.46c-0.873-0.973-1.31-2.273-1.31-3.9c0-1.653,0.44-2.957,1.32-3.91c0.88-0.953,2.067-1.43,3.56-1.43
	c1.307,0,2.373,0.41,3.2,1.23C453.907,23.59,454.32,24.793,454.32,26.38z M447.26,25.82h4.8c-0.067-0.747-0.303-1.31-0.71-1.69
	c-0.407-0.38-0.897-0.57-1.47-0.57c-0.733,0-1.323,0.2-1.77,0.6C447.663,24.56,447.38,25.113,447.26,25.82z M464.64,21.54
	c0.92,0,1.72,0.18,2.4,0.54v3.78h-2.24v-2.18h-0.2c-1.053,0-1.867,0.247-2.44,0.74s-0.86,1.233-0.86,2.22v3.34h2.86V32h-7.32v-2.02
	H459V23.8h-2.16v-2.02h4.3v1.64c0.28-0.587,0.74-1.047,1.38-1.38C463.16,21.707,463.867,21.54,464.64,21.54z M475.24,32.24
	c-2,0-3-0.927-3-2.78V23.8h-2.14v-2.02h2.14v-3.12l2.3-1.1v4.22h3.48v2.02h-3.48v5.22c0,0.787,0.48,1.18,1.44,1.18
	c0.56,0,1.147-0.16,1.76-0.48l-0.28,2.06C476.873,32.087,476.133,32.24,475.24,32.24z M498.16,32.24c-1.12,0-2.03-0.293-2.73-0.88
	c-0.7-0.587-1.05-1.427-1.05-2.52c0-1.107,0.4-1.947,1.2-2.52c0.8-0.573,1.76-0.86,2.88-0.86c0.973,0,1.82,0.18,2.54,0.54v-0.6
	c0-1.227-0.673-1.84-2.02-1.84c-1.12,0-2.2,0.347-3.24,1.04l-0.7-1.88c1.24-0.787,2.62-1.18,4.14-1.18c2.707,0,4.06,1.28,4.06,3.84
	V32H501v-0.8C500.28,31.893,499.333,32.24,498.16,32.24z M498.58,30.22c0.96,0,1.767-0.34,2.42-1.02v-1.32
	c-0.613-0.307-1.34-0.46-2.18-0.46c-0.64,0-1.17,0.12-1.59,0.36c-0.42,0.24-0.63,0.593-0.63,1.06c0,0.413,0.173,0.747,0.52,1
	C497.467,30.093,497.953,30.22,498.58,30.22z M510.9,32.24c-1.4,0-2.5-0.47-3.3-1.41c-0.8-0.94-1.2-2.257-1.2-3.95
	c0-1.64,0.41-2.94,1.23-3.9s1.89-1.44,3.21-1.44c1.093,0,1.94,0.327,2.54,0.98v-3.9l2.3-1.06V32h-2.3v-0.78
	c-0.213,0.28-0.543,0.52-0.99,0.72C511.943,32.14,511.447,32.24,510.9,32.24z M511.22,30.04c1,0,1.72-0.333,2.16-1v-4.32
	c-0.48-0.667-1.213-1-2.2-1c-0.787,0-1.393,0.273-1.82,0.82c-0.427,0.547-0.64,1.327-0.64,2.34c0,0.96,0.217,1.727,0.65,2.3
	C509.803,29.753,510.42,30.04,511.22,30.04z M523.22,32.24c-1.4,0-2.5-0.47-3.3-1.41c-0.8-0.94-1.2-2.257-1.2-3.95
	c0-1.64,0.41-2.94,1.23-3.9s1.89-1.44,3.21-1.44c1.093,0,1.94,0.327,2.54,0.98v-3.9l2.3-1.06V32h-2.3v-0.78
	c-0.213,0.28-0.543,0.52-0.99,0.72C524.263,32.14,523.767,32.24,523.22,32.24z M523.54,30.04c1,0,1.72-0.333,2.16-1v-4.32
	c-0.48-0.667-1.213-1-2.2-1c-0.787,0-1.393,0.273-1.82,0.82c-0.427,0.547-0.64,1.327-0.64,2.34c0,0.96,0.217,1.727,0.65,2.3
	C522.123,29.753,522.74,30.04,523.54,30.04z M538.56,21.54c0.92,0,1.72,0.18,2.4,0.54v3.78h-2.24v-2.18h-0.2
	c-1.053,0-1.867,0.247-2.44,0.74c-0.573,0.493-0.86,1.233-0.86,2.22v3.34h2.86V32h-7.32v-2.02h2.16V23.8h-2.16v-2.02h4.3v1.64
	c0.28-0.587,0.74-1.047,1.38-1.38C537.08,21.707,537.787,21.54,538.56,21.54z M552.88,26.38c0,0.587-0.027,1.053-0.08,1.4h-6.96
	c0.147,0.747,0.443,1.337,0.89,1.77c0.447,0.433,1.023,0.65,1.73,0.65c0.893,0,1.647-0.333,2.26-1l1.38,1.46
	c-0.96,1.053-2.18,1.58-3.66,1.58c-1.507,0-2.697-0.487-3.57-1.46c-0.873-0.973-1.31-2.273-1.31-3.9c0-1.653,0.44-2.957,1.32-3.91
	c0.88-0.953,2.067-1.43,3.56-1.43c1.307,0,2.373,0.41,3.2,1.23S552.88,24.793,552.88,26.38z M545.82,25.82h4.8
	c-0.067-0.747-0.303-1.31-0.71-1.69c-0.407-0.38-0.897-0.57-1.47-0.57c-0.733,0-1.323,0.2-1.77,0.6
	C546.223,24.56,545.94,25.113,545.82,25.82z M560.6,32.24c-0.867,0-1.667-0.163-2.4-0.49s-1.32-0.77-1.76-1.33l1.5-1.36
	c0.84,0.813,1.767,1.22,2.78,1.22c0.493,0,0.9-0.087,1.22-0.26c0.32-0.173,0.48-0.433,0.48-0.78c0-0.2-0.097-0.39-0.29-0.57
	s-0.417-0.33-0.67-0.45c-0.253-0.12-0.627-0.28-1.12-0.48c-0.053-0.027-0.097-0.047-0.13-0.06c-0.033-0.013-0.077-0.03-0.13-0.05
	s-0.1-0.037-0.14-0.05c-0.493-0.213-0.86-0.377-1.1-0.49c-0.24-0.113-0.53-0.273-0.87-0.48c-0.34-0.207-0.587-0.403-0.74-0.59
	c-0.153-0.187-0.29-0.423-0.41-0.71c-0.12-0.287-0.18-0.61-0.18-0.97c0-0.867,0.373-1.55,1.12-2.05c0.747-0.5,1.687-0.75,2.82-0.75
	c1.587,0,2.86,0.54,3.82,1.62l-1.54,1.26c-0.733-0.613-1.52-0.92-2.36-0.92c-0.52,0-0.937,0.077-1.25,0.23
	c-0.313,0.153-0.47,0.37-0.47,0.65c0,0.133,0.053,0.263,0.16,0.39s0.293,0.26,0.56,0.4s0.487,0.247,0.66,0.32
	c0.173,0.073,0.467,0.19,0.88,0.35c1.227,0.493,2.04,0.893,2.44,1.2c0.707,0.56,1.067,1.287,1.08,2.18
	c0,0.947-0.357,1.687-1.07,2.22C562.777,31.973,561.813,32.24,560.6,32.24z M572.92,32.24c-0.867,0-1.667-0.163-2.4-0.49
	s-1.32-0.77-1.76-1.33l1.5-1.36c0.84,0.813,1.767,1.22,2.78,1.22c0.493,0,0.9-0.087,1.22-0.26c0.32-0.173,0.48-0.433,0.48-0.78
	c0-0.2-0.097-0.39-0.29-0.57c-0.193-0.18-0.417-0.33-0.67-0.45c-0.253-0.12-0.627-0.28-1.12-0.48
	c-0.053-0.027-0.097-0.047-0.13-0.06c-0.033-0.013-0.077-0.03-0.13-0.05c-0.053-0.02-0.1-0.037-0.14-0.05
	c-0.493-0.213-0.86-0.377-1.1-0.49c-0.24-0.113-0.53-0.273-0.87-0.48c-0.34-0.207-0.587-0.403-0.74-0.59s-0.29-0.423-0.41-0.71
	c-0.12-0.287-0.18-0.61-0.18-0.97c0-0.867,0.373-1.55,1.12-2.05c0.747-0.5,1.687-0.75,2.82-0.75c1.587,0,2.86,0.54,3.82,1.62
	l-1.54,1.26c-0.733-0.613-1.52-0.92-2.36-0.92c-0.52,0-0.937,0.077-1.25,0.23c-0.313,0.153-0.47,0.37-0.47,0.65
	c0,0.133,0.053,0.263,0.16,0.39c0.107,0.127,0.293,0.26,0.56,0.4s0.487,0.247,0.66,0.32s0.467,0.19,0.88,0.35
	c1.227,0.493,2.04,0.893,2.44,1.2c0.707,0.56,1.067,1.287,1.08,2.18c0,0.947-0.357,1.687-1.07,2.22
	C575.097,31.973,574.133,32.24,572.92,32.24z"/>
<g id="Step2" transform="translate(44.000000, 324.000000)">
	<circle id="Oval_5_" fill="#E5E5E5" cx="42.749" cy="35.749" r="18.749"/>
	<path id="_x32__1_" fill="#7D8285" d="M39.089,41c0-0.697,0.087-1.333,0.261-1.909s0.428-1.074,0.762-1.495
		c0.334-0.421,0.682-0.779,1.045-1.074c0.363-0.295,0.791-0.588,1.285-0.878c0.523-0.319,0.924-0.624,1.205-0.914
		c0.281-0.29,0.421-0.644,0.421-1.06c0-0.416-0.131-0.75-0.392-1.002c-0.261-0.252-0.614-0.377-1.06-0.377
		c-0.91,0-1.529,0.421-1.858,1.263l-1.539-0.697c0.261-0.658,0.694-1.188,1.299-1.589c0.605-0.402,1.294-0.602,2.068-0.602
		c0.997,0,1.783,0.278,2.359,0.835c0.576,0.556,0.864,1.265,0.864,2.126c0,0.445-0.06,0.842-0.181,1.19
		c-0.121,0.348-0.319,0.663-0.595,0.943s-0.542,0.51-0.798,0.689c-0.256,0.179-0.607,0.399-1.052,0.66
		c-1.2,0.726-1.892,1.471-2.076,2.235h4.79V41H39.089z"/>
</g>
<g id="or" transform="translate(240.000000, 458.000000)">
	
		<circle id="Oval_6_" fill="#F7F7F7" stroke="#AAB1B5" stroke-linecap="round" stroke-linejoin="round" cx="35.352" cy="31.632" r="11.232"/>
	<path fill="#2C2F31" d="M34.301,34.058c-0.449,0.498-1.051,0.746-1.804,0.746c-0.753,0-1.355-0.245-1.804-0.736
		c-0.449-0.491-0.674-1.168-0.674-2.032c0-0.857,0.225-1.534,0.674-2.032s1.051-0.746,1.804-0.746c0.76,0,1.363,0.245,1.809,0.736
		c0.446,0.491,0.669,1.168,0.669,2.032C34.975,32.883,34.751,33.56,34.301,34.058z M32.497,33.985c0.498,0,0.885-0.175,1.161-0.524
		c0.276-0.349,0.415-0.828,0.415-1.436c0-0.615-0.135-1.096-0.404-1.441c-0.27-0.346-0.66-0.518-1.172-0.518
		c-0.511,0-0.902,0.171-1.172,0.513c-0.27,0.342-0.404,0.828-0.404,1.457c0,0.608,0.137,1.085,0.41,1.431
		C31.604,33.813,31.993,33.985,32.497,33.985z M40.19,29.258c0.491,0,0.878,0.083,1.161,0.249v1.835H40.47v-1.203
		c-0.069-0.007-0.176-0.01-0.321-0.01c-0.539,0-0.994,0.131-1.363,0.394c-0.37,0.263-0.555,0.632-0.555,1.109v2.26h1.545v0.788
		h-3.556v-0.788h1.109V30.17h-1.109v-0.788h1.949v0.923c0.18-0.318,0.461-0.572,0.845-0.762
		C39.397,29.353,39.79,29.258,40.19,29.258z"/>
</g>
<g id="Graphic" transform="translate(361.000000, 377.000000)">
	<path id="Path-6-Copy-2" fill="none" stroke="#2C2F31" stroke-linecap="round" stroke-linejoin="round" d="M25.173,70.884
		l50.471,29.328c5.337,3.101,11.924,3.12,17.279,0.049l51.055-29.28c0.828-0.475,1.114-1.531,0.639-2.359
		c-0.153-0.267-0.376-0.489-0.643-0.642L92.564,38.685c-5.348-3.048-11.914-3.02-17.236,0.072L25.173,67.896
		c-0.825,0.479-1.105,1.537-0.626,2.362C24.698,70.517,24.913,70.733,25.173,70.884z"/>
	<path id="Shape_12_" fill="#F7F7F7" stroke="#2C2F31" stroke-width="0.864" stroke-linecap="round" stroke-linejoin="round" d="
		M84.632,52.824c0.505-0.337,0.505-0.841,0-1.01c-0.505-0.337-1.346-0.337-1.851,0c-0.505,0.337-0.505,0.673,0,1.01
		C83.286,52.993,84.127,52.993,84.632,52.824z"/>
	<path id="Shape_13_" fill="none" stroke="#2C2F31" stroke-linecap="round" stroke-linejoin="round" d="M29.253,68.61
		c-0.505,0.337-0.505,0.673,0,1.01s1.346,0.337,1.851,0s0.505-0.841,0-1.01C30.599,68.273,29.758,68.273,29.253,68.61z"/>
	<path id="Shape_14_" fill="none" stroke="#2C2F31" stroke-linecap="round" stroke-linejoin="round" d="M81.099,23.153L25.57,55.292
		c-1.514,0.841-1.514,2.187,0,3.197l55.528,32.139c1.514,0.841,3.87,0.841,5.385,0l7.067-4.038c-1.178-0.673-1.178-1.851,0-2.524
		c1.178-0.673,3.029-0.673,4.207,0l44.254-25.577c1.514-0.841,1.514-2.187,0-3.197L86.483,23.153
		C84.969,22.312,82.445,22.312,81.099,23.153z"/>
	<path id="Shape_15_" fill="#FFFFFF" stroke="#2C2F31" stroke-linecap="round" stroke-linejoin="round" d="M83.791,86.02
		c-0.841,0-1.851-1.168-2.524-1.505L25.739,52.376c-0.505-0.337-0.841-0.673-0.841-1.178c0-0.337,0.337-0.841,0.841-1.178
		l55.528-32.139c0.673-0.337,1.514-0.505,2.524-0.505c0.841,0,1.851,0.168,2.524,0.505l55.528,32.139
		c0.505,0.337,0.841,0.673,0.841,1.178c0,0.337-0.337,0.841-0.841,1.178L97.925,77.784c-0.673-0.337-1.346-0.505-2.187-0.505
		c-0.841,0-1.683,0.168-2.356,0.505c-0.673,0.505-1.178,1.01-1.178,1.683c0,0.505,0.168,0.841,0.505,1.178l-6.394,3.702
		C85.474,84.851,84.632,86.02,83.791,86.02z"/>
	<path id="Shape_16_" fill="none" stroke="#2C2F31" stroke-linecap="round" stroke-linejoin="round" d="M30.253,50.693
		c-0.505,0.337-0.505,0.673,0,1.01s1.346,0.337,1.851,0c0.505-0.337,0.505-0.841,0-1.01C31.599,50.357,30.758,50.357,30.253,50.693z
		"/>
	<path id="Shape_17_" fill="none" stroke="#2C2F31" stroke-linecap="round" stroke-linejoin="round" d="M30.253,56.863
		c-0.505,0.337-0.505,0.673,0,1.01c0.505,0.337,1.346,0.337,1.851,0c0.505-0.337,0.505-0.841,0-1.01
		C31.599,56.526,30.758,56.526,30.253,56.863z"/>
	<path id="Shape_18_" fill="none" stroke="#2C2F31" stroke-linecap="round" stroke-linejoin="round" d="M138.361,56.428
		c-0.505,0.337-0.505,0.673,0,1.01c0.505,0.337,1.346,0.337,1.851,0c0.505-0.337,0.505-0.841,0-1.01
		C139.707,56.092,138.866,56.092,138.361,56.428z"/>
	<path id="Shape-Copy-2" fill="none" stroke="#2C2F31" stroke-linecap="round" stroke-linejoin="round" d="M94.49,85.034
		c-0.505,0.337-0.505,0.673,0,1.01c0.505,0.337,1.346,0.337,1.851,0c0.505-0.337,0.505-0.841,0-1.01
		C95.836,84.697,94.995,84.697,94.49,85.034z"/>
	<path id="Shape-Copy-2_1_" fill="none" stroke="#2C2F31" stroke-linecap="round" stroke-linejoin="round" d="M94.49,79.425
		c-0.505,0.337-0.505,0.673,0,1.01c0.505,0.337,1.346,0.337,1.851,0s0.505-0.841,0-1.01C95.836,79.088,94.995,79.088,94.49,79.425z"
		/>
	<path id="Shape_19_" fill="none" stroke="#2C2F31" stroke-linecap="round" stroke-linejoin="round" d="M139.431,68.61
		c-0.505,0.337-0.505,0.673,0,1.01c0.505,0.337,1.346,0.337,1.851,0c0.505-0.337,0.505-0.841,0-1.01
		C140.777,68.273,139.936,68.273,139.431,68.61z"/>
	<path id="Shape_20_" fill="#FFFFFF" stroke="#2C2F31" stroke-linecap="round" stroke-linejoin="round" d="M142.572,49.683
		l-6.394-3.702v10.433l6.394-3.702C144.087,51.871,144.087,50.525,142.572,49.683z"/>
	<g id="Group-10" transform="translate(26.044515, 12.230588)">
		<path id="Path-6-Copy" stroke="#2C2F31" stroke-width="0.864" d="M25.239,39.301l31.479,18.292c1.067,0.62,2.385,0.624,3.456,0.01
			l31.807-18.242c0.828-0.475,1.114-1.531,0.639-2.359c-0.153-0.267-0.376-0.489-0.643-0.642L59.971,18.122
			c-1.07-0.61-2.383-0.604-3.447,0.014L25.239,36.313c-0.825,0.479-1.105,1.537-0.626,2.362
			C24.763,38.934,24.979,39.15,25.239,39.301z"/>
	</g>
	<path id="logo" fill="#FFFFFF" d="M93.171,48.527l-9.072-0.049c-0.159-0.001-0.291,0.066-0.295,0.15l-0.023,0.499
		c-0.004,0.084-0.136,0.151-0.295,0.15l-1.741-0.009c-0.159-0.001-0.284-0.069-0.28-0.153l0.081-1.736
		c0.004-0.084,0.137-0.151,0.297-0.15l9.113,0.092l-2.342-1.276l-0.027,0.58c-0.004,0.084-0.138,0.152-0.298,0.15l-1.745-0.023
		c-0.157-0.002-0.28-0.07-0.276-0.153l0.084-1.787l-0.889-0.484c-0.18-0.098-0.483-0.1-0.672-0.004l-9.041,4.592
		c-0.189,0.096-0.197,0.255-0.016,0.353l0.845,0.46l9.181,0.05c0.159,0.001,0.291-0.066,0.294-0.15l0.023-0.499
		c0.004-0.084,0.136-0.151,0.295-0.15l1.741,0.009c0.159,0.001,0.284,0.069,0.28,0.153L88.31,50.88
		c-0.004,0.084-0.137,0.151-0.297,0.15l-9.222-0.093l2.449,1.334l0.03-0.637c0.004-0.084,0.139-0.152,0.299-0.15l1.745,0.023
		c0.157,0.002,0.28,0.07,0.276,0.153l-0.086,1.837l0.836,0.462c0.18,0.098,0.482,0.1,0.672,0.004l9.041-4.592
		c0.189-0.096,0.197-0.255,0.016-0.353"/>
</g>
<g>
	<path d="M430.681,517.048h-2.467l-2.447-4.5l-2.412,4.5h-2.466l3.743-6.516l-3.491-6.084h2.466l2.178,4.031l2.16-4.031h2.466
		l-3.492,6.048L430.681,517.048z"/>
	<path d="M437.052,517.264c-1.296,0-2.321-0.426-3.077-1.277c-0.757-0.853-1.135-2.028-1.135-3.528c0-1.488,0.388-2.664,1.161-3.528
		c0.774-0.864,1.803-1.296,3.087-1.296c1.956,0,3.216,0.834,3.78,2.502l-1.962,0.666c-0.312-0.804-0.912-1.206-1.8-1.206
		c-0.685,0-1.215,0.259-1.594,0.774c-0.378,0.516-0.566,1.212-0.566,2.088s0.188,1.565,0.566,2.07
		c0.379,0.504,0.897,0.756,1.558,0.756c0.96,0,1.59-0.45,1.89-1.351l1.962,0.612C440.37,516.358,439.08,517.264,437.052,517.264z"/>
	<path d="M452.154,511.99c0,0.527-0.024,0.947-0.072,1.26h-6.264c0.132,0.672,0.398,1.203,0.801,1.593
		c0.401,0.391,0.921,0.585,1.557,0.585c0.804,0,1.482-0.3,2.034-0.899l1.242,1.313c-0.864,0.948-1.962,1.422-3.294,1.422
		c-1.356,0-2.428-0.438-3.213-1.313c-0.786-0.876-1.18-2.046-1.18-3.511c0-1.487,0.396-2.66,1.188-3.519
		c0.792-0.857,1.859-1.287,3.204-1.287c1.176,0,2.136,0.369,2.88,1.107C451.782,509.479,452.154,510.562,452.154,511.99z
		 M445.8,511.486h4.32c-0.061-0.673-0.273-1.18-0.639-1.521c-0.366-0.342-0.808-0.513-1.323-0.513c-0.66,0-1.191,0.18-1.593,0.54
		C446.163,510.352,445.908,510.85,445.8,511.486z"/>
	<path d="M461.442,507.634c0.827,0,1.548,0.162,2.159,0.486v3.401h-2.016v-1.962h-0.18c-0.948,0-1.681,0.223-2.196,0.666
		c-0.517,0.444-0.774,1.11-0.774,1.998v3.006h2.574v1.818h-6.588v-1.818h1.944v-5.562h-1.944v-1.818h3.87v1.477
		c0.252-0.528,0.666-0.942,1.242-1.242S460.746,507.634,461.442,507.634z"/>
	<path d="M470.981,517.264c-1.8,0-2.699-0.834-2.699-2.502v-5.094h-1.927v-1.818h1.927v-2.808l2.069-0.99v3.798h3.132v1.818h-3.132
		v4.698c0,0.708,0.433,1.062,1.296,1.062c0.504,0,1.032-0.144,1.584-0.432l-0.252,1.854
		C472.451,517.126,471.785,517.264,470.981,517.264z"/>
</g>
</svg>
