<?xml version="1.0" encoding="utf-8"?>
<!-- Generator: Adobe Illustrator 17.0.0, SVG Export Plug-In . SVG Version: 6.00 Build 0)  -->
<!DOCTYPE svg PUBLIC "-//W3C//DTD SVG 1.1//EN" "http://www.w3.org/Graphics/SVG/1.1/DTD/svg11.dtd">
<svg version="1.1" id="Layer_1" xmlns="http://www.w3.org/2000/svg" xmlns:xlink="http://www.w3.org/1999/xlink" x="0px" y="0px"
	 width="1000px" height="422px" viewBox="0 0 1000 422" enable-background="new 0 0 1000 422" xml:space="preserve">
<title>06</title>
<desc>Created with Sketch.</desc>
<text transform="matrix(1 0 0 1 80 375)" fill="#2C2F31" font-family="'OverpassMono-Bold'" font-size="20">Users</text>
<polygon id="Blockchain" fill="#FFFFFF" stroke="#2C2F31" stroke-linecap="round" stroke-linejoin="round" points="196,165 862,165 
	862,215 196,214.865 "/>
<g id="Page-1" transform="translate(388.000000, 33.000000)">
	<polyline id="Stroke-1" fill="none" stroke="#2C2F31" stroke-width="2" stroke-linecap="round" stroke-linejoin="round" points="
		29.25,27.291 29.25,37.583 29.25,47.999 29.25,50.083 29.25,95.916 48,95.916 66.75,95.916 66.75,50.083 66.75,47.999 
		66.75,37.583 66.75,26.958 	"/>
	<polyline id="Stroke-3" fill="none" stroke="#2C2F31" stroke-width="2" stroke-linecap="round" stroke-linejoin="round" points="
		25.083,29.25 48,16.75 70.917,29.25 	"/>
	<polyline id="Stroke-4" fill="none" stroke="#2C2F31" stroke-width="2" stroke-linecap="round" stroke-linejoin="round" points="
		29.25,50.083 0.083,50.083 8.417,37.583 29.25,37.583 	"/>
	<polyline id="Stroke-6" fill="none" stroke="#2C2F31" stroke-width="2" stroke-linecap="round" stroke-linejoin="round" points="
		66.75,37.583 87.583,37.583 95.917,50.083 66.75,50.083 	"/>
	<polyline id="Stroke-8" fill="none" stroke="#2C2F31" stroke-width="2" stroke-linecap="round" stroke-linejoin="round" points="
		91.75,50.083 91.75,95.917 4.25,95.917 4.25,50.083 	"/>
	<polyline id="Stroke-10" fill="none" stroke="#2C2F31" stroke-width="2" stroke-linecap="round" stroke-linejoin="round" points="
		48,8.417 58.417,8.417 58.417,0.083 48,0.083 48,16.75 	"/>
	<path id="Stroke-12" fill="none" stroke="#2C2F31" stroke-width="2" stroke-linecap="round" stroke-linejoin="round" d="
		M58.417,43.833c0,5.754-4.663,10.417-10.417,10.417s-10.417-4.662-10.417-10.417S42.246,33.417,48,33.417
		S58.417,38.079,58.417,43.833z"/>
	<polyline id="Stroke-14" fill="none" stroke="#2C2F31" stroke-width="2" stroke-linecap="round" stroke-linejoin="round" points="
		51.646,47.046 48,43.833 48,39.017 	"/>
	<path id="Stroke-16" fill="none" stroke="#2C2F31" stroke-width="2" stroke-linecap="round" stroke-linejoin="round" d="
		M37.583,95.917V81.333c0-5.754,4.663-10.417,10.417-10.417s10.417,4.663,10.417,10.417v14.583"/>
	<polygon id="Stroke-18" fill="none" stroke="#2C2F31" stroke-width="2" stroke-linecap="round" stroke-linejoin="round" points="
		12.583,83.417 20.917,83.417 20.917,75.083 12.583,75.083 	"/>
	<polygon id="Stroke-20" fill="none" stroke="#2C2F31" stroke-width="2" stroke-linecap="round" stroke-linejoin="round" points="
		12.583,66.75 20.917,66.75 20.917,58.417 12.583,58.417 	"/>
	<polygon id="Stroke-21" fill="none" stroke="#2C2F31" stroke-width="2" stroke-linecap="round" stroke-linejoin="round" points="
		75.083,83.417 83.417,83.417 83.417,75.083 75.083,75.083 	"/>
	<polygon id="Stroke-22" fill="none" stroke="#2C2F31" stroke-width="2" stroke-linecap="round" stroke-linejoin="round" points="
		75.083,66.75 83.417,66.75 83.417,58.417 75.083,58.417 	"/>
</g>
<g id="Page-1_1_" transform="translate(577.000000, 35.000000)">
	<path id="Stroke-1_1_" fill="none" stroke="#2C2F31" stroke-width="2" stroke-linecap="round" stroke-linejoin="round" d="
		M92.827,92H0.999"/>
	
		<polyline id="Stroke-4_1_" fill="none" stroke="#2C2F31" stroke-width="2" stroke-linecap="round" stroke-linejoin="round" points="
		20.913,80 20.913,0 72.913,8 72.913,80 	"/>
	<path id="Stroke-6_1_" fill="none" stroke="#2C2F31" stroke-width="2" stroke-linecap="round" stroke-linejoin="round" d="
		M36.913,2.461v77.54"/>
	<path id="Stroke-8_1_" fill="none" stroke="#2C2F31" stroke-width="2" stroke-linecap="round" stroke-linejoin="round" d="
		M56.913,5.684V80"/>
	<path id="Stroke-11" fill="none" stroke="#2C2F31" stroke-width="2" stroke-linecap="round" stroke-linejoin="round" d="M20.913,64
		h52"/>
	<path id="Stroke-12_1_" fill="none" stroke="#2C2F31" stroke-width="2" stroke-linecap="round" stroke-linejoin="round" d="
		M20.913,48h52"/>
	<path id="Stroke-13" fill="none" stroke="#2C2F31" stroke-width="2" stroke-linecap="round" stroke-linejoin="round" d="M20.913,32
		h52"/>
	<path id="Stroke-14_1_" fill="none" stroke="#2C2F31" stroke-width="2" stroke-linecap="round" stroke-linejoin="round" d="
		M20.913,16h52"/>
	<polyline id="Stroke-15" fill="none" stroke="#2C2F31" stroke-width="2" stroke-linecap="round" stroke-linejoin="round" points="
		84.913,92 84.913,80 8.913,80 8.913,92 	"/>
</g>
<path id="Line" fill="none" stroke="#AAB1B5" stroke-linecap="round" stroke-linejoin="round" d="M225,306v-50"/>
<path id="Line_1_" fill="none" stroke="#AAB1B5" stroke-linecap="round" stroke-linejoin="round" d="M348,284v-50"/>
<path id="Line_2_" fill="none" stroke="#AAB1B5" stroke-linecap="round" stroke-linejoin="round" d="M467,306v-50"/>
<g id="Page-1_2_" transform="translate(206.000000, 332.000000)">
	<path id="Stroke-1_2_" fill="none" stroke="#2C2F31" stroke-width="2" stroke-linecap="round" stroke-linejoin="round" d="
		M14.879,30.509c-0.619,1.754-1.227,1.851-1.821,2.043C5.735,34.92,0.44,40.86,0.44,49.632h36.526
		c0-8.772-5.294-14.711-12.615-17.079c-0.594-0.193-1.202-0.289-1.822-2.044"/>
	<path id="Stroke-3_1_" fill="none" stroke="#2C2F31" stroke-width="2" stroke-linecap="round" stroke-linejoin="round" d="
		M8.139,16.928c-0.832,0.268-0.926,2.275-0.21,4.484c0.695,2.146,1.896,3.677,2.727,3.52c1.896,3.73,5.472,7.002,8.048,7.002
		c2.577,0,6.153-3.272,8.048-7.002c0.832,0.157,2.032-1.375,2.727-3.52c0.716-2.209,0.622-4.217-0.21-4.484"/>
	<path id="Stroke-5" fill="none" stroke="#2C2F31" stroke-width="2" stroke-linecap="round" stroke-linejoin="round" d="
		M26.632,33.667c0,1.938-3.549,3.509-7.929,3.509s-7.929-1.571-7.929-3.509"/>
	<path id="Stroke-7" fill="none" stroke="#2C2F31" stroke-width="2" stroke-linecap="round" stroke-linejoin="round" d="
		M8.139,16.928c0,0,2.935-0.454,3.376-4.752c1.674-1.053,11.188,2.807,12.333,4.211c0,0-1.233-4.035-1.233-4.386
		c0-0.351,4.052,1.93,5.021,6.14c0,0,2.995-1.93,3.524-6.93c0.529-5-5.021-16.93-19.645-6.842C9.929,4.545,3.205,2.717,8.139,16.928
		z"/>
</g>
<g id="Page-1-Copy" transform="translate(327.000000, 332.000000)">
	<path id="Stroke-1_3_" fill="none" stroke="#2C2F31" stroke-width="2" stroke-linecap="round" stroke-linejoin="round" d="
		M14.879,30.509c-0.619,1.754-1.227,1.851-1.821,2.043C5.735,34.92,0.44,40.86,0.44,49.632h36.526
		c0-8.772-5.294-14.711-12.615-17.079c-0.594-0.193-1.202-0.289-1.822-2.044"/>
	<path id="Stroke-3_2_" fill="none" stroke="#2C2F31" stroke-width="2" stroke-linecap="round" stroke-linejoin="round" d="
		M8.139,16.928c-0.832,0.268-0.926,2.275-0.21,4.484c0.695,2.146,1.896,3.677,2.727,3.52c1.896,3.73,5.472,7.002,8.048,7.002
		c2.577,0,6.153-3.272,8.048-7.002c0.832,0.157,2.032-1.375,2.727-3.52c0.716-2.209,0.622-4.217-0.21-4.484"/>
	<path id="Stroke-5_1_" fill="none" stroke="#2C2F31" stroke-width="2" stroke-linecap="round" stroke-linejoin="round" d="
		M26.632,33.667c0,1.938-3.549,3.509-7.929,3.509s-7.929-1.571-7.929-3.509"/>
	<path id="Stroke-7_1_" fill="none" stroke="#2C2F31" stroke-width="2" stroke-linecap="round" stroke-linejoin="round" d="
		M8.139,16.928c0,0,2.935-0.454,3.376-4.752c1.674-1.053,11.188,2.807,12.333,4.211c0,0-1.233-4.035-1.233-4.386
		c0-0.351,4.052,1.93,5.021,6.14c0,0,2.995-1.93,3.524-6.93c0.529-5-5.021-16.93-19.645-6.842C9.929,4.545,3.205,2.717,8.139,16.928
		z"/>
</g>
<g id="Page-1-Copy-3" transform="translate(448.000000, 332.000000)">
	<path id="Stroke-1_4_" fill="none" stroke="#2C2F31" stroke-width="2" stroke-linecap="round" stroke-linejoin="round" d="
		M14.879,30.509c-0.619,1.754-1.227,1.851-1.821,2.043C5.735,34.92,0.44,40.86,0.44,49.632h36.526
		c0-8.772-5.294-14.711-12.615-17.079c-0.594-0.193-1.202-0.289-1.822-2.044"/>
	<path id="Stroke-3_3_" fill="none" stroke="#2C2F31" stroke-width="2" stroke-linecap="round" stroke-linejoin="round" d="
		M8.139,16.928c-0.832,0.268-0.926,2.275-0.21,4.484c0.695,2.146,1.896,3.677,2.727,3.52c1.896,3.73,5.472,7.002,8.048,7.002
		c2.577,0,6.153-3.272,8.048-7.002c0.832,0.157,2.032-1.375,2.727-3.52c0.716-2.209,0.622-4.217-0.21-4.484"/>
	<path id="Stroke-5_2_" fill="none" stroke="#2C2F31" stroke-width="2" stroke-linecap="round" stroke-linejoin="round" d="
		M26.632,33.667c0,1.938-3.549,3.509-7.929,3.509s-7.929-1.571-7.929-3.509"/>
	<path id="Stroke-7_2_" fill="none" stroke="#2C2F31" stroke-width="2" stroke-linecap="round" stroke-linejoin="round" d="
		M8.139,16.928c0,0,2.935-0.454,3.376-4.752c1.674-1.053,11.188,2.807,12.333,4.211c0,0-1.233-4.035-1.233-4.386
		c0-0.351,4.052,1.93,5.021,6.14c0,0,2.995-1.93,3.524-6.93c0.529-5-5.021-16.93-19.645-6.842C9.929,4.545,3.205,2.717,8.139,16.928
		z"/>
</g>
<g id="Page-1-Copy-4" transform="translate(570.000000, 332.000000)">
	<path id="Stroke-1_5_" fill="none" stroke="#2C2F31" stroke-width="2" stroke-linecap="round" stroke-linejoin="round" d="
		M14.879,30.509c-0.619,1.754-1.227,1.851-1.821,2.043C5.735,34.92,0.44,40.86,0.44,49.632h36.526
		c0-8.772-5.294-14.711-12.615-17.079c-0.594-0.193-1.202-0.289-1.822-2.044"/>
	<path id="Stroke-3_4_" fill="none" stroke="#2C2F31" stroke-width="2" stroke-linecap="round" stroke-linejoin="round" d="
		M8.139,16.928c-0.832,0.268-0.926,2.275-0.21,4.484c0.695,2.146,1.896,3.677,2.727,3.52c1.896,3.73,5.472,7.002,8.048,7.002
		c2.577,0,6.153-3.272,8.048-7.002c0.832,0.157,2.032-1.375,2.727-3.52c0.716-2.209,0.622-4.217-0.21-4.484"/>
	<path id="Stroke-5_3_" fill="none" stroke="#2C2F31" stroke-width="2" stroke-linecap="round" stroke-linejoin="round" d="
		M26.632,33.667c0,1.938-3.549,3.509-7.929,3.509s-7.929-1.571-7.929-3.509"/>
	<path id="Stroke-7_3_" fill="none" stroke="#2C2F31" stroke-width="2" stroke-linecap="round" stroke-linejoin="round" d="
		M8.139,16.928c0,0,2.935-0.454,3.376-4.752c1.674-1.053,11.188,2.807,12.333,4.211c0,0-1.233-4.035-1.233-4.386
		c0-0.351,4.052,1.93,5.021,6.14c0,0,2.995-1.93,3.524-6.93c0.529-5-5.021-16.93-19.645-6.842C9.929,4.545,3.205,2.717,8.139,16.928
		z"/>
</g>
<g id="Page-1-Copy-5" transform="translate(691.000000, 332.000000)">
	<path id="Stroke-1_6_" fill="none" stroke="#2C2F31" stroke-width="2" stroke-linecap="round" stroke-linejoin="round" d="
		M14.879,30.509c-0.619,1.754-1.227,1.851-1.821,2.043C5.735,34.92,0.44,40.86,0.44,49.632h36.526
		c0-8.772-5.294-14.711-12.615-17.079c-0.594-0.193-1.202-0.289-1.822-2.044"/>
	<path id="Stroke-3_5_" fill="none" stroke="#2C2F31" stroke-width="2" stroke-linecap="round" stroke-linejoin="round" d="
		M8.139,16.928c-0.832,0.268-0.926,2.275-0.21,4.484c0.695,2.146,1.896,3.677,2.727,3.52c1.896,3.73,5.472,7.002,8.048,7.002
		c2.577,0,6.153-3.272,8.048-7.002c0.832,0.157,2.032-1.375,2.727-3.52c0.716-2.209,0.622-4.217-0.21-4.484"/>
	<path id="Stroke-5_4_" fill="none" stroke="#2C2F31" stroke-width="2" stroke-linecap="round" stroke-linejoin="round" d="
		M26.632,33.667c0,1.938-3.549,3.509-7.929,3.509s-7.929-1.571-7.929-3.509"/>
	<path id="Stroke-7_4_" fill="none" stroke="#2C2F31" stroke-width="2" stroke-linecap="round" stroke-linejoin="round" d="
		M8.139,16.928c0,0,2.935-0.454,3.376-4.752c1.674-1.053,11.188,2.807,12.333,4.211c0,0-1.233-4.035-1.233-4.386
		c0-0.351,4.052,1.93,5.021,6.14c0,0,2.995-1.93,3.524-6.93c0.529-5-5.021-16.93-19.645-6.842C9.929,4.545,3.205,2.717,8.139,16.928
		z"/>
</g>
<g id="Page-1-Copy-2" transform="translate(812.000000, 332.000000)">
	<path id="Stroke-1_7_" fill="none" stroke="#2C2F31" stroke-width="2" stroke-linecap="round" stroke-linejoin="round" d="
		M14.879,30.509c-0.619,1.754-1.227,1.851-1.821,2.043C5.735,34.92,0.44,40.86,0.44,49.632h36.526
		c0-8.772-5.294-14.711-12.615-17.079c-0.594-0.193-1.202-0.289-1.822-2.044"/>
	<path id="Stroke-3_6_" fill="none" stroke="#2C2F31" stroke-width="2" stroke-linecap="round" stroke-linejoin="round" d="
		M8.139,16.928c-0.832,0.268-0.926,2.275-0.21,4.484c0.695,2.146,1.896,3.677,2.727,3.52c1.896,3.73,5.472,7.002,8.048,7.002
		c2.577,0,6.153-3.272,8.048-7.002c0.832,0.157,2.032-1.375,2.727-3.52c0.716-2.209,0.622-4.217-0.21-4.484"/>
	<path id="Stroke-5_5_" fill="none" stroke="#2C2F31" stroke-width="2" stroke-linecap="round" stroke-linejoin="round" d="
		M26.632,33.667c0,1.938-3.549,3.509-7.929,3.509s-7.929-1.571-7.929-3.509"/>
	<path id="Stroke-7_5_" fill="none" stroke="#2C2F31" stroke-width="2" stroke-linecap="round" stroke-linejoin="round" d="
		M8.139,16.928c0,0,2.935-0.454,3.376-4.752c1.674-1.053,11.188,2.807,12.333,4.211c0,0-1.233-4.035-1.233-4.386
		c0-0.351,4.052,1.93,5.021,6.14c0,0,2.995-1.93,3.524-6.93c0.529-5-5.021-16.93-19.645-6.842C9.929,4.545,3.205,2.717,8.139,16.928
		z"/>
</g>
<path id="Line_3_" fill="none" stroke="#AAB1B5" stroke-linecap="round" stroke-linejoin="round" d="M588,306v-50"/>
<path id="Line_4_" fill="none" stroke="#AAB1B5" stroke-linecap="round" stroke-linejoin="round" d="M711,284v-50"/>
<path id="Line_5_" fill="none" stroke="#AAB1B5" stroke-linecap="round" stroke-linejoin="round" d="M832,284v-50"/>
<text transform="matrix(1 0 0 1 80 92)" fill="#2C2F31" font-family="'OverpassMono-Bold'" font-size="20">Dapps</text>
<g id="Arrow-head" transform="translate(225.000000, 301.000000) scale(1, -1) rotate(-180.000000) translate(-225.000000, -301.000000) translate(215.000000, 295.000000)">
	<path id="Line-4" fill="none" stroke="#AAB1B5" stroke-linecap="round" stroke-linejoin="round" d="M10,11.25L19.857,0"/>
	<path id="Line-4_1_" fill="none" stroke="#AAB1B5" stroke-linecap="round" stroke-linejoin="round" d="M9.857,11.25L0,0"/>
</g>
<g id="Arrow-head_1_" transform="translate(467.000000, 301.000000) scale(1, -1) rotate(-180.000000) translate(-467.000000, -301.000000) translate(457.000000, 295.000000)">
	<path id="Line-4_2_" fill="none" stroke="#AAB1B5" stroke-linecap="round" stroke-linejoin="round" d="M10,11.25L19.857,0"/>
	<path id="Line-4_3_" fill="none" stroke="#AAB1B5" stroke-linecap="round" stroke-linejoin="round" d="M9.857,11.25L0,0"/>
</g>
<g id="Arrow-head_2_" transform="translate(588.000000, 301.000000) scale(1, -1) rotate(-180.000000) translate(-588.000000, -301.000000) translate(578.000000, 295.000000)">
	<path id="Line-4_4_" fill="none" stroke="#AAB1B5" stroke-linecap="round" stroke-linejoin="round" d="M10,11.25L19.857,0"/>
	<path id="Line-4_5_" fill="none" stroke="#AAB1B5" stroke-linecap="round" stroke-linejoin="round" d="M9.857,11.25L0,0"/>
</g>
<g id="Arrow-head_3_" transform="translate(832.000000, 239.000000) scale(1, -1) translate(-832.000000, -239.000000) translate(822.000000, 233.000000)">
	<path id="Line-4_6_" fill="none" stroke="#AAB1B5" stroke-linecap="round" stroke-linejoin="round" d="M10,11.25L19.857,0"/>
	<path id="Line-4_7_" fill="none" stroke="#AAB1B5" stroke-linecap="round" stroke-linejoin="round" d="M9.857,11.25L0,0"/>
</g>
<g id="Arrow-head_4_" transform="translate(711.000000, 239.000000) scale(1, -1) translate(-711.000000, -239.000000) translate(701.000000, 233.000000)">
	<path id="Line-4_8_" fill="none" stroke="#AAB1B5" stroke-linecap="round" stroke-linejoin="round" d="M10,11.25L19.857,0"/>
	<path id="Line-4_9_" fill="none" stroke="#AAB1B5" stroke-linecap="round" stroke-linejoin="round" d="M9.857,11.25L0,0"/>
</g>
<g id="Arrow-head_5_" transform="translate(348.000000, 239.000000) scale(1, -1) translate(-348.000000, -239.000000) translate(338.000000, 233.000000)">
	<path id="Line-4_10_" fill="none" stroke="#AAB1B5" stroke-linecap="round" stroke-linejoin="round" d="M10,11.25L19.857,0"/>
	<path id="Line-4_11_" fill="none" stroke="#AAB1B5" stroke-linecap="round" stroke-linejoin="round" d="M9.857,11.25L0,0"/>
</g>
<g id="Group" transform="translate(196.000000, 29.000000)">
	<g id="Mask">
		<circle id="path-1_1_" fill="#F7F7F7" cx="50" cy="50" r="50"/>
	</g>
	<defs>
		<filter id="Adobe_OpacityMaskFilter" filterUnits="userSpaceOnUse" x="15.196" y="6.263" width="69.857" height="102.862">
			<feColorMatrix  type="matrix" values="1 0 0 0 0  0 1 0 0 0  0 0 1 0 0  0 0 0 1 0"/>
		</filter>
	</defs>
	<mask maskUnits="userSpaceOnUse" x="15.196" y="6.263" width="69.857" height="102.862" id="mask-2">
		<g filter="url(#Adobe_OpacityMaskFilter)">
			<circle id="path-1" fill="#FFFFFF" cx="50" cy="50" r="50"/>
		</g>
	</mask>
	<g mask="url(#mask-2)">
		<g transform="translate(16.071429, 7.142857)">
			<path id="Shape" fill="none" stroke="#2C2F31" stroke-width="2" stroke-linecap="round" stroke-linejoin="round" d="
				M45.848,55.357c-1.321,2.973,0.634,5.357,2.42,6.562c-1.875,4.009-7.964,7.437-14.214,7.437s-12.92-3.455-14.214-7.437
				c1.786-1.036,3.768-3.571,2.393-6.562H45.848z"/>
			<path id="Shape_1_" fill="#FFFFFF" stroke="#2C2F31" stroke-width="2" stroke-linecap="round" stroke-linejoin="round" d="
				M36,60.795h-3.857c-3.35-0.004-6.561-1.336-8.929-3.705l-2.946-2.884c-4.323-4.324-6.751-10.189-6.75-16.304V22.723
				c0-20.366,41.071-20.366,41.071,0v15.179c0.001,6.115-2.427,11.979-6.75,16.304l-2.893,2.893
				C42.573,59.468,39.354,60.798,36,60.795z"/>
			<path id="Shape_2_" fill="none" stroke="#2C2F31" stroke-width="2" stroke-linecap="round" stroke-linejoin="round" d="
				M13.518,40.009v-8.036c0-2.679-1.991-3.571-3.214-2.679c-1.955,1.366,0.536,7.143,0.536,7.143
				C9.393,37.366,11.027,40.661,13.518,40.009z"/>
			<path id="Shape_3_" fill="none" stroke="#2C2F31" stroke-width="2" stroke-linecap="round" stroke-linejoin="round" d="
				M54.589,39.688v-8.036c0-2.679,1.982-3.571,3.214-2.679c1.955,1.366-0.536,7.143-0.536,7.143
				C58.723,37.045,57.08,40.348,54.589,39.688z"/>
			<path id="Shape_4_" fill="#FFFFFF" stroke="#2C2F31" stroke-width="2" stroke-linecap="round" stroke-linejoin="round" d="
				M44.536,1.723c6.884,2.92,16.071,11.071,12.304,23.098c-0.554,1.786-1.357,1.161-2.25,1c0,0-0.143-7.018-3.571-6.295
				c-8.161,1.714-12.179-4.848-22.089,2.348c-1.375-2.259-0.429-7.393,3.062-10.089c-8.17,0-18.473,5.009-18.473,11.027
				c0,0-2.732-2.018-2.955-4.009C9.536,9.821,14.147,5.249,22.201,1.821C28.76-0.97,40.866,0.17,44.536,1.723z"/>
			
				<circle id="Oval" fill="none" stroke="#2C2F31" stroke-width="2" stroke-linecap="round" stroke-linejoin="round" cx="44.321" cy="34.455" r="1.339"/>
			
				<circle id="Oval_1_" fill="none" stroke="#2C2F31" stroke-width="2" stroke-linecap="round" stroke-linejoin="round" cx="23.804" cy="34.455" r="1.339"/>
			<path id="Shape_5_" fill="#FFFFFF" stroke="#2C2F31" stroke-width="2" stroke-linecap="round" stroke-linejoin="round" d="
				M54.241,64.286c0,0-6.027-2.393-5.795-2.259c-1.893,4.045-8.268,7.527-14.393,7.527s-13-3.482-14.411-7.482l-5.545,2.304
				C5.673,67.81,0.154,75.991,0.125,85.089v15.893h67.857V84.911C67.959,75.9,62.547,67.778,54.241,64.286z"/>
			<path id="Line_6_" fill="none" stroke="#2C2F31" stroke-width="2" stroke-linecap="round" stroke-linejoin="round" d="
				M15.625,100.446V84.35"/>
			<path id="Line_7_" fill="none" stroke="#2C2F31" stroke-width="2" stroke-linecap="round" stroke-linejoin="round" d="
				M52.232,100.446V84.35"/>
			<path id="Stroke-9" fill="none" stroke="#2C2F31" stroke-width="2" stroke-linecap="round" stroke-linejoin="round" d="
				M39.626,47.321c0,0-2.476,2.764-5.527,2.764c-3.051,0-5.527-2.764-5.527-2.764"/>
		</g>
	</g>
</g>
<g id="Group_2_" transform="translate(762.000000, 29.000000)">
	<g id="Mask_1_">
		<circle id="path-3_1_" fill="#F7F7F7" cx="50" cy="50" r="50"/>
	</g>
	<defs>
		<filter id="Adobe_OpacityMaskFilter_1_" filterUnits="userSpaceOnUse" x="15.196" y="6.263" width="69.857" height="102.862">
			<feColorMatrix  type="matrix" values="1 0 0 0 0  0 1 0 0 0  0 0 1 0 0  0 0 0 1 0"/>
		</filter>
	</defs>
	<mask maskUnits="userSpaceOnUse" x="15.196" y="6.263" width="69.857" height="102.862" id="mask-4">
		<g filter="url(#Adobe_OpacityMaskFilter_1_)">
			<circle id="path-3" fill="#FFFFFF" cx="50" cy="50" r="50"/>
		</g>
	</mask>
	<g mask="url(#mask-4)">
		<g transform="translate(16.071429, 7.142857)">
			<path id="Shape_6_" fill="none" stroke="#2C2F31" stroke-width="2" stroke-linecap="round" stroke-linejoin="round" d="
				M45.848,55.357c-1.321,2.973,0.634,5.357,2.42,6.562c-1.875,4.009-7.964,7.437-14.214,7.437s-12.92-3.455-14.214-7.437
				c1.786-1.036,3.768-3.571,2.393-6.562H45.848z"/>
			<path id="Shape_7_" fill="#FFFFFF" stroke="#2C2F31" stroke-width="2" stroke-linecap="round" stroke-linejoin="round" d="
				M36,60.795h-3.857c-3.35-0.004-6.561-1.336-8.929-3.705l-2.946-2.884c-4.323-4.324-6.751-10.189-6.75-16.304V22.723
				c0-20.366,41.071-20.366,41.071,0v15.179c0.001,6.115-2.427,11.979-6.75,16.304l-2.893,2.893
				C42.573,59.468,39.354,60.798,36,60.795z"/>
			<path id="Shape_8_" fill="none" stroke="#2C2F31" stroke-width="2" stroke-linecap="round" stroke-linejoin="round" d="
				M13.518,40.009v-8.036c0-2.679-1.991-3.571-3.214-2.679c-1.955,1.366,0.536,7.143,0.536,7.143
				C9.393,37.366,11.027,40.661,13.518,40.009z"/>
			<path id="Shape_9_" fill="none" stroke="#2C2F31" stroke-width="2" stroke-linecap="round" stroke-linejoin="round" d="
				M54.589,39.688v-8.036c0-2.679,1.982-3.571,3.214-2.679c1.955,1.366-0.536,7.143-0.536,7.143
				C58.723,37.045,57.08,40.348,54.589,39.688z"/>
			<path id="Shape_10_" fill="#FFFFFF" stroke="#2C2F31" stroke-width="2" stroke-linecap="round" stroke-linejoin="round" d="
				M44.536,1.723c6.884,2.92,16.071,11.071,12.304,23.098c-0.554,1.786-1.357,1.161-2.25,1c0,0-0.143-7.018-3.571-6.295
				c-8.161,1.714-12.179-4.848-22.089,2.348c-1.375-2.259-0.429-7.393,3.062-10.089c-8.17,0-18.473,5.009-18.473,11.027
				c0,0-2.732-2.018-2.955-4.009C9.536,9.821,14.147,5.249,22.201,1.821C28.76-0.97,40.866,0.17,44.536,1.723z"/>
			<path id="Shape_11_" fill="#FFFFFF" stroke="#2C2F31" stroke-width="2" stroke-linecap="round" stroke-linejoin="round" d="
				M54.241,64.286c0,0-6.027-2.393-5.795-2.259c-1.893,4.045-8.268,7.527-14.393,7.527s-13-3.482-14.411-7.482l-5.545,2.304
				C5.673,67.81,0.154,75.991,0.125,85.089v15.893h67.857V84.911C67.959,75.9,62.547,67.778,54.241,64.286z"/>
			<path id="Line_8_" fill="none" stroke="#2C2F31" stroke-width="2" stroke-linecap="round" stroke-linejoin="round" d="
				M15.625,100.446V84.35"/>
			<path id="Line_9_" fill="none" stroke="#2C2F31" stroke-width="2" stroke-linecap="round" stroke-linejoin="round" d="
				M52.232,100.446V84.35"/>
			<g id="Group_1_" transform="translate(25.467033, 32.087912)">
				<path id="Line_10_" fill="none" stroke="#2C2F31" stroke-width="2" stroke-linecap="round" stroke-linejoin="round" d="
					M0.769,0.165v4.336"/>
				<path id="Line-Copy" fill="none" stroke="#2C2F31" stroke-width="2" stroke-linecap="round" stroke-linejoin="round" d="
					M16.923,0.165v4.336"/>
				<path id="Line-2" fill="none" stroke="#2C2F31" stroke-width="2" stroke-linecap="round" stroke-linejoin="round" d="
					M3.462,15.769l11.154-2.692"/>
			</g>
		</g>
	</g>
</g>
<g id="_x30_xcert-black" transform="translate(435.000000, 174.000000)">
	<path id="Fill-1" d="M97.632,25.904l-5.918-8.784l5.166-8.177c0.048-0.075,0.05-0.17,0.007-0.248
		c-0.043-0.078-0.125-0.126-0.214-0.126h-3.06c-0.084,0-0.162,0.043-0.206,0.114l-3.613,5.724l-3.759-5.728
		c-0.045-0.069-0.122-0.11-0.204-0.11h-3.513c-0.135,0-0.244,0.109-0.244,0.244v2.607c0,0.135,0.109,0.244,0.244,0.244h1.948
		l3.729,5.503l-5.581,8.743c-0.048,0.075-0.051,0.17-0.008,0.248c0.043,0.078,0.125,0.127,0.214,0.127h3.136
		c0.085,0,0.163-0.044,0.207-0.115l3.919-6.328l4.247,6.335c0.045,0.068,0.121,0.108,0.203,0.108h3.098
		c0.09,0,0.173-0.05,0.215-0.129C97.687,26.075,97.682,25.979,97.632,25.904"/>
	<path id="Fill-3" d="M112.864,26.206H99.964V14.154c0-3.658,1.925-5.506,5.737-5.506h6.854v5.121h-2.811v-2.464h-3.928
		c-1.925,0-2.888,1.001-2.888,3.004v9.241h9.935V26.206z"/>
	<path id="Fill-5" d="M119.448,16.233h7.509v-3.658c0-0.847-0.462-1.271-1.348-1.271h-4.698c-0.963,0-1.463,0.462-1.463,1.425
		V16.233z M129.844,18.851h-10.397v3.658c0,0.693,0.347,1.04,1.001,1.04h8.933v2.657h-9.395c-2.31,0-3.465-1.117-3.465-3.388V12.459
		c0-2.541,1.194-3.812,3.62-3.812h5.968c2.464,0,3.697,1.194,3.735,3.62V18.851z"/>
	<polygon id="Fill-7" points="141.543,11.304 136.807,11.304 136.807,26.206 133.803,26.206 133.803,8.647 141.543,8.647 	"/>
	<path id="Fill-9" d="M146.568,11.304h-2.31V8.647h2.31V3.256h2.965v5.391h4.621v2.657h-4.621v11.013
		c0,0.885,0.423,1.309,1.271,1.271h2.464c0.346,0,0.655,0,0.924-0.039v2.657h-3.928c-2.464,0-3.697-1.309-3.697-3.928V11.304z"/>
	<path id="Fill-11" d="M74.283,23.951h-6.045c-1.348,0-2.041-0.693-2.041-2.041v-2.008l10.127-7.399v9.407
		C76.323,23.258,75.63,23.951,74.283,23.951 M68.16,6.546h6.199c1.309,0,1.964,0.578,1.964,1.771v0.259l-10.127,7.399V8.318
		C66.196,7.124,66.851,6.546,68.16,6.546 M74.36,3.774H68.16c-3.465,0-5.198,1.502-5.198,4.544v13.746
		c0,3.119,1.694,4.659,5.083,4.659h6.43c3.389,0,5.083-1.54,5.083-4.659V8.318C79.558,5.275,77.825,3.774,74.36,3.774"/>
	<path id="Fill-13" d="M53.824,0.062h-2.893L36.218,14.776l2.137,2.138c0.143,0.143,0.143,0.374,0,0.517l-3.122,3.122
		c-0.143,0.143-0.375,0.143-0.517,0l-5.382-5.382c-0.251-0.251-0.249-0.659,0.004-0.908L43.793,0.062h-7.859l2.235,2.297
		c0.141,0.145,0.138,0.378-0.009,0.519L34.954,5.96c-0.144,0.138-0.372,0.136-0.513-0.006l-5.972-5.892h-2.387
		c-0.581,0-1.056,0.475-1.056,1.056v27.743c0,0.581,0.475,1.056,1.056,1.056h2.723l14.884-14.884l-2.137-2.137
		c-0.143-0.143-0.143-0.375,0-0.517l3.123-3.122c0.143-0.143,0.375-0.143,0.517,0l5.382,5.382c0.251,0.251,0.249,0.659-0.004,0.908
		L35.94,29.917h7.894l0.425-0.001l-2.295-2.359c-0.141-0.145-0.138-0.378,0.009-0.519l3.206-3.082
		c0.144-0.138,0.372-0.136,0.513,0.006l6.02,5.939l2.113,0.015c0.581,0,1.056-0.475,1.056-1.056V1.118
		C54.88,0.538,54.405,0.062,53.824,0.062"/>
</g>
</svg>
