<?xml version="1.0" encoding="UTF-8"?>
<svg width="1000px" height="422px" viewBox="0 0 1000 422" version="1.1" xmlns="http://www.w3.org/2000/svg" xmlns:xlink="http://www.w3.org/1999/xlink" style="background: #FFFFFF;">
    <!-- Generator: Sketch 49.1 (51147) - http://www.bohemiancoding.com/sketch -->
    <title>06</title>
    <desc>Created with Sketch.</desc>
    <defs>
        <circle id="path-1" cx="50" cy="50" r="50"></circle>
        <circle id="path-3" cx="50" cy="50" r="50"></circle>
    </defs>
    <g id="06" stroke="none" stroke-width="1" fill="none" fill-rule="evenodd">
        <text id="Users" font-family="OverpassMono-Bold, Overpass Mono" font-size="20" font-weight="bold" line-spacing="23" fill="#2C2F31">
            <tspan x="80" y="375">Users</tspan>
        </text>
        <polygon id="Blockchain" stroke="#2C2F31" fill="#FFFFFF" stroke-linecap="round" stroke-linejoin="round" points="196 165 862 165 862 215 196 214.865117"></polygon>
        <g id="Page-1" transform="translate(388.000000, 33.000000)" stroke="#2C2F31" stroke-linecap="round" stroke-linejoin="round" stroke-width="2">
            <polyline id="Stroke-1" points="29.25 27.2908333 29.25 37.5825 29.25 47.9991667 29.25 50.0825 29.25 95.9158333 48 95.9158333 66.75 95.9158333 66.75 50.0825 66.75 47.9991667 66.75 37.5825 66.75 26.9575"></polyline>
            <polyline id="Stroke-3" points="25.0833333 29.25 48 16.75 70.9166667 29.25"></polyline>
            <polyline id="Stroke-4" points="29.25 50.0833333 0.0833333333 50.0833333 8.41666667 37.5833333 29.25 37.5833333"></polyline>
            <polyline id="Stroke-6" points="66.75 37.5833333 87.5833333 37.5833333 95.9166667 50.0833333 66.75 50.0833333"></polyline>
            <polyline id="Stroke-8" points="91.75 50.0833333 91.75 95.9166667 4.25 95.9166667 4.25 50.0833333"></polyline>
            <polyline id="Stroke-10" points="48 8.41666667 58.4166667 8.41666667 58.4166667 0.0833333333 48 0.0833333333 48 16.75"></polyline>
            <path d="M58.4166667,43.8333333 C58.4166667,49.5875 53.7541667,54.25 48,54.25 C42.2458333,54.25 37.5833333,49.5875 37.5833333,43.8333333 C37.5833333,38.0791667 42.2458333,33.4166667 48,33.4166667 C53.7541667,33.4166667 58.4166667,38.0791667 58.4166667,43.8333333 Z" id="Stroke-12"></path>
            <polyline id="Stroke-14" points="51.6458333 47.0458333 48 43.8333333 48 39.0166667"></polyline>
            <path d="M37.5833333,95.9166667 L37.5833333,81.3333333 C37.5833333,75.5791667 42.2458333,70.9166667 48,70.9166667 C53.7541667,70.9166667 58.4166667,75.5791667 58.4166667,81.3333333 L58.4166667,95.9166667" id="Stroke-16"></path>
            <polygon id="Stroke-18" points="12.5833333 83.4166667 20.9166667 83.4166667 20.9166667 75.0833333 12.5833333 75.0833333"></polygon>
            <polygon id="Stroke-20" points="12.5833333 66.75 20.9166667 66.75 20.9166667 58.4166667 12.5833333 58.4166667"></polygon>
            <polygon id="Stroke-21" points="75.0833333 83.4166667 83.4166667 83.4166667 83.4166667 75.0833333 75.0833333 75.0833333"></polygon>
            <polygon id="Stroke-22" points="75.0833333 66.75 83.4166667 66.75 83.4166667 58.4166667 75.0833333 58.4166667"></polygon>
        </g>
        <g id="Page-1" transform="translate(577.000000, 35.000000)" stroke="#2C2F31" stroke-linecap="round" stroke-linejoin="round" stroke-width="2">
            <path d="M92.8272,92 L0.9992,92" id="Stroke-1"></path>
            <polyline id="Stroke-4" points="20.9132 80 20.9132 0 72.9132 8 72.9132 80"></polyline>
            <path d="M36.9132,2.4608 L36.9132,80.0008" id="Stroke-6"></path>
            <path d="M56.9132,5.6836 L56.9132,79.9996" id="Stroke-8"></path>
            <path d="M20.9132,64 L72.9132,64" id="Stroke-11"></path>
            <path d="M20.9132,48 L72.9132,48" id="Stroke-12"></path>
            <path d="M20.9132,32 L72.9132,32" id="Stroke-13"></path>
            <path d="M20.9132,16 L72.9132,16" id="Stroke-14"></path>
            <polyline id="Stroke-15" points="84.9132 92 84.9132 80 8.9132 80 8.9132 92"></polyline>
        </g>
        <path d="M225,306 L225,256" id="Line" stroke="#AAB1B5" stroke-linecap="round" stroke-linejoin="round"></path>
        <path d="M348,284 L348,234" id="Line" stroke="#AAB1B5" stroke-linecap="round" stroke-linejoin="round"></path>
        <path d="M467,306 L467,256" id="Line" stroke="#AAB1B5" stroke-linecap="round" stroke-linejoin="round"></path>
        <g id="Page-1" transform="translate(206.000000, 332.000000)" stroke="#2C2F31" stroke-linecap="round" stroke-linejoin="round" stroke-width="2">
            <path d="M14.8792857,30.509386 C14.2599762,32.2637719 13.652119,32.3602632 13.0583571,32.5523684 C5.735,34.9199123 0.44047619,40.8602632 0.44047619,49.632193 L36.9665238,49.632193 C36.9665238,40.8602632 31.672881,34.9216667 24.3512857,32.5532456 C23.7575238,32.3602632 23.1487857,32.2637719 22.5294762,30.509386" id="Stroke-1"></path>
            <path d="M8.13876667,16.9278947 C7.30714762,17.1954386 7.21288571,19.2033333 7.9291,21.4121053 C8.62417143,23.5577193 9.82490952,25.0892982 10.6556476,24.9322807 C12.5514571,28.6621053 16.1272429,31.9340351 18.7031476,31.9340351 C21.2799333,31.9340351 24.855719,28.6621053 26.7506476,24.9322807 C27.5822667,25.0892982 28.7830048,23.5577193 29.4780762,21.4121053 C30.1942905,19.2033333 30.1000286,17.1954386 29.2684095,16.9278947" id="Stroke-3"></path>
            <path d="M26.6318952,33.6673684 C26.6318952,35.6050877 23.0825381,37.1761404 18.7033238,37.1761404 C14.3241095,37.1761404 10.7747524,35.6050877 10.7747524,33.6673684" id="Stroke-5"></path>
            <path d="M8.13876667,16.9278947 C8.13876667,16.9278947 11.0741,16.474386 11.5145762,12.1761404 C13.1883857,11.1235088 22.7026714,14.9831579 23.8479095,16.3866667 C23.8479095,16.3866667 22.6145762,12.3515789 22.6145762,12.0007018 C22.6145762,11.6498246 26.6669571,13.9305263 27.6360048,18.1410526 C27.6360048,18.1410526 30.6312429,16.2112281 31.1598143,11.2112281 C31.6883857,6.21122807 26.1383857,-5.71859649 11.5145762,4.36912281 C9.9288619,4.5445614 3.20543333,2.71736842 8.13876667,16.9278947 Z" id="Stroke-7"></path>
        </g>
        <g id="Page-1-Copy" transform="translate(327.000000, 332.000000)" stroke="#2C2F31" stroke-linecap="round" stroke-linejoin="round" stroke-width="2">
            <path d="M14.8792857,30.509386 C14.2599762,32.2637719 13.652119,32.3602632 13.0583571,32.5523684 C5.735,34.9199123 0.44047619,40.8602632 0.44047619,49.632193 L36.9665238,49.632193 C36.9665238,40.8602632 31.672881,34.9216667 24.3512857,32.5532456 C23.7575238,32.3602632 23.1487857,32.2637719 22.5294762,30.509386" id="Stroke-1"></path>
            <path d="M8.13876667,16.9278947 C7.30714762,17.1954386 7.21288571,19.2033333 7.9291,21.4121053 C8.62417143,23.5577193 9.82490952,25.0892982 10.6556476,24.9322807 C12.5514571,28.6621053 16.1272429,31.9340351 18.7031476,31.9340351 C21.2799333,31.9340351 24.855719,28.6621053 26.7506476,24.9322807 C27.5822667,25.0892982 28.7830048,23.5577193 29.4780762,21.4121053 C30.1942905,19.2033333 30.1000286,17.1954386 29.2684095,16.9278947" id="Stroke-3"></path>
            <path d="M26.6318952,33.6673684 C26.6318952,35.6050877 23.0825381,37.1761404 18.7033238,37.1761404 C14.3241095,37.1761404 10.7747524,35.6050877 10.7747524,33.6673684" id="Stroke-5"></path>
            <path d="M8.13876667,16.9278947 C8.13876667,16.9278947 11.0741,16.474386 11.5145762,12.1761404 C13.1883857,11.1235088 22.7026714,14.9831579 23.8479095,16.3866667 C23.8479095,16.3866667 22.6145762,12.3515789 22.6145762,12.0007018 C22.6145762,11.6498246 26.6669571,13.9305263 27.6360048,18.1410526 C27.6360048,18.1410526 30.6312429,16.2112281 31.1598143,11.2112281 C31.6883857,6.21122807 26.1383857,-5.71859649 11.5145762,4.36912281 C9.9288619,4.5445614 3.20543333,2.71736842 8.13876667,16.9278947 Z" id="Stroke-7"></path>
        </g>
        <g id="Page-1-Copy-3" transform="translate(448.000000, 332.000000)" stroke="#2C2F31" stroke-linecap="round" stroke-linejoin="round" stroke-width="2">
            <path d="M14.8792857,30.509386 C14.2599762,32.2637719 13.652119,32.3602632 13.0583571,32.5523684 C5.735,34.9199123 0.44047619,40.8602632 0.44047619,49.632193 L36.9665238,49.632193 C36.9665238,40.8602632 31.672881,34.9216667 24.3512857,32.5532456 C23.7575238,32.3602632 23.1487857,32.2637719 22.5294762,30.509386" id="Stroke-1"></path>
            <path d="M8.13876667,16.9278947 C7.30714762,17.1954386 7.21288571,19.2033333 7.9291,21.4121053 C8.62417143,23.5577193 9.82490952,25.0892982 10.6556476,24.9322807 C12.5514571,28.6621053 16.1272429,31.9340351 18.7031476,31.9340351 C21.2799333,31.9340351 24.855719,28.6621053 26.7506476,24.9322807 C27.5822667,25.0892982 28.7830048,23.5577193 29.4780762,21.4121053 C30.1942905,19.2033333 30.1000286,17.1954386 29.2684095,16.9278947" id="Stroke-3"></path>
            <path d="M26.6318952,33.6673684 C26.6318952,35.6050877 23.0825381,37.1761404 18.7033238,37.1761404 C14.3241095,37.1761404 10.7747524,35.6050877 10.7747524,33.6673684" id="Stroke-5"></path>
            <path d="M8.13876667,16.9278947 C8.13876667,16.9278947 11.0741,16.474386 11.5145762,12.1761404 C13.1883857,11.1235088 22.7026714,14.9831579 23.8479095,16.3866667 C23.8479095,16.3866667 22.6145762,12.3515789 22.6145762,12.0007018 C22.6145762,11.6498246 26.6669571,13.9305263 27.6360048,18.1410526 C27.6360048,18.1410526 30.6312429,16.2112281 31.1598143,11.2112281 C31.6883857,6.21122807 26.1383857,-5.71859649 11.5145762,4.36912281 C9.9288619,4.5445614 3.20543333,2.71736842 8.13876667,16.9278947 Z" id="Stroke-7"></path>
        </g>
        <g id="Page-1-Copy-4" transform="translate(570.000000, 332.000000)" stroke="#2C2F31" stroke-linecap="round" stroke-linejoin="round" stroke-width="2">
            <path d="M14.8792857,30.509386 C14.2599762,32.2637719 13.652119,32.3602632 13.0583571,32.5523684 C5.735,34.9199123 0.44047619,40.8602632 0.44047619,49.632193 L36.9665238,49.632193 C36.9665238,40.8602632 31.672881,34.9216667 24.3512857,32.5532456 C23.7575238,32.3602632 23.1487857,32.2637719 22.5294762,30.509386" id="Stroke-1"></path>
            <path d="M8.13876667,16.9278947 C7.30714762,17.1954386 7.21288571,19.2033333 7.9291,21.4121053 C8.62417143,23.5577193 9.82490952,25.0892982 10.6556476,24.9322807 C12.5514571,28.6621053 16.1272429,31.9340351 18.7031476,31.9340351 C21.2799333,31.9340351 24.855719,28.6621053 26.7506476,24.9322807 C27.5822667,25.0892982 28.7830048,23.5577193 29.4780762,21.4121053 C30.1942905,19.2033333 30.1000286,17.1954386 29.2684095,16.9278947" id="Stroke-3"></path>
            <path d="M26.6318952,33.6673684 C26.6318952,35.6050877 23.0825381,37.1761404 18.7033238,37.1761404 C14.3241095,37.1761404 10.7747524,35.6050877 10.7747524,33.6673684" id="Stroke-5"></path>
            <path d="M8.13876667,16.9278947 C8.13876667,16.9278947 11.0741,16.474386 11.5145762,12.1761404 C13.1883857,11.1235088 22.7026714,14.9831579 23.8479095,16.3866667 C23.8479095,16.3866667 22.6145762,12.3515789 22.6145762,12.0007018 C22.6145762,11.6498246 26.6669571,13.9305263 27.6360048,18.1410526 C27.6360048,18.1410526 30.6312429,16.2112281 31.1598143,11.2112281 C31.6883857,6.21122807 26.1383857,-5.71859649 11.5145762,4.36912281 C9.9288619,4.5445614 3.20543333,2.71736842 8.13876667,16.9278947 Z" id="Stroke-7"></path>
        </g>
        <g id="Page-1-Copy-5" transform="translate(691.000000, 332.000000)" stroke="#2C2F31" stroke-linecap="round" stroke-linejoin="round" stroke-width="2">
            <path d="M14.8792857,30.509386 C14.2599762,32.2637719 13.652119,32.3602632 13.0583571,32.5523684 C5.735,34.9199123 0.44047619,40.8602632 0.44047619,49.632193 L36.9665238,49.632193 C36.9665238,40.8602632 31.672881,34.9216667 24.3512857,32.5532456 C23.7575238,32.3602632 23.1487857,32.2637719 22.5294762,30.509386" id="Stroke-1"></path>
            <path d="M8.13876667,16.9278947 C7.30714762,17.1954386 7.21288571,19.2033333 7.9291,21.4121053 C8.62417143,23.5577193 9.82490952,25.0892982 10.6556476,24.9322807 C12.5514571,28.6621053 16.1272429,31.9340351 18.7031476,31.9340351 C21.2799333,31.9340351 24.855719,28.6621053 26.7506476,24.9322807 C27.5822667,25.0892982 28.7830048,23.5577193 29.4780762,21.4121053 C30.1942905,19.2033333 30.1000286,17.1954386 29.2684095,16.9278947" id="Stroke-3"></path>
            <path d="M26.6318952,33.6673684 C26.6318952,35.6050877 23.0825381,37.1761404 18.7033238,37.1761404 C14.3241095,37.1761404 10.7747524,35.6050877 10.7747524,33.6673684" id="Stroke-5"></path>
            <path d="M8.13876667,16.9278947 C8.13876667,16.9278947 11.0741,16.474386 11.5145762,12.1761404 C13.1883857,11.1235088 22.7026714,14.9831579 23.8479095,16.3866667 C23.8479095,16.3866667 22.6145762,12.3515789 22.6145762,12.0007018 C22.6145762,11.6498246 26.6669571,13.9305263 27.6360048,18.1410526 C27.6360048,18.1410526 30.6312429,16.2112281 31.1598143,11.2112281 C31.6883857,6.21122807 26.1383857,-5.71859649 11.5145762,4.36912281 C9.9288619,4.5445614 3.20543333,2.71736842 8.13876667,16.9278947 Z" id="Stroke-7"></path>
        </g>
        <g id="Page-1-Copy-2" transform="translate(812.000000, 332.000000)" stroke="#2C2F31" stroke-linecap="round" stroke-linejoin="round" stroke-width="2">
            <path d="M14.8792857,30.509386 C14.2599762,32.2637719 13.652119,32.3602632 13.0583571,32.5523684 C5.735,34.9199123 0.44047619,40.8602632 0.44047619,49.632193 L36.9665238,49.632193 C36.9665238,40.8602632 31.672881,34.9216667 24.3512857,32.5532456 C23.7575238,32.3602632 23.1487857,32.2637719 22.5294762,30.509386" id="Stroke-1"></path>
            <path d="M8.13876667,16.9278947 C7.30714762,17.1954386 7.21288571,19.2033333 7.9291,21.4121053 C8.62417143,23.5577193 9.82490952,25.0892982 10.6556476,24.9322807 C12.5514571,28.6621053 16.1272429,31.9340351 18.7031476,31.9340351 C21.2799333,31.9340351 24.855719,28.6621053 26.7506476,24.9322807 C27.5822667,25.0892982 28.7830048,23.5577193 29.4780762,21.4121053 C30.1942905,19.2033333 30.1000286,17.1954386 29.2684095,16.9278947" id="Stroke-3"></path>
            <path d="M26.6318952,33.6673684 C26.6318952,35.6050877 23.0825381,37.1761404 18.7033238,37.1761404 C14.3241095,37.1761404 10.7747524,35.6050877 10.7747524,33.6673684" id="Stroke-5"></path>
            <path d="M8.13876667,16.9278947 C8.13876667,16.9278947 11.0741,16.474386 11.5145762,12.1761404 C13.1883857,11.1235088 22.7026714,14.9831579 23.8479095,16.3866667 C23.8479095,16.3866667 22.6145762,12.3515789 22.6145762,12.0007018 C22.6145762,11.6498246 26.6669571,13.9305263 27.6360048,18.1410526 C27.6360048,18.1410526 30.6312429,16.2112281 31.1598143,11.2112281 C31.6883857,6.21122807 26.1383857,-5.71859649 11.5145762,4.36912281 C9.9288619,4.5445614 3.20543333,2.71736842 8.13876667,16.9278947 Z" id="Stroke-7"></path>
        </g>
        <path d="M588,306 L588,256" id="Line" stroke="#AAB1B5" stroke-linecap="round" stroke-linejoin="round"></path>
        <path d="M711,284 L711,234" id="Line" stroke="#AAB1B5" stroke-linecap="round" stroke-linejoin="round"></path>
        <path d="M832,284 L832,234" id="Line" stroke="#AAB1B5" stroke-linecap="round" stroke-linejoin="round"></path>
        <text id="Dapps" font-family="OverpassMono-Bold, Overpass Mono" font-size="20" font-weight="bold" line-spacing="23" fill="#2C2F31">
            <tspan x="80" y="92">Dapps</tspan>
        </text>
        <g id="Arrow-head" transform="translate(225.000000, 301.000000) scale(1, -1) rotate(-180.000000) translate(-225.000000, -301.000000) translate(215.000000, 295.000000)" stroke="#AAB1B5" stroke-linecap="round" stroke-linejoin="round">
            <path d="M10,11.25 L19.8571429,0" id="Line-4"></path>
            <path d="M0,11.25 L9.85714286,0" id="Line-4" transform="translate(4.928571, 5.625000) scale(-1, 1) translate(-4.928571, -5.625000) "></path>
        </g>
        <g id="Arrow-head" transform="translate(467.000000, 301.000000) scale(1, -1) rotate(-180.000000) translate(-467.000000, -301.000000) translate(457.000000, 295.000000)" stroke="#AAB1B5" stroke-linecap="round" stroke-linejoin="round">
            <path d="M10,11.25 L19.8571429,0" id="Line-4"></path>
            <path d="M0,11.25 L9.85714286,0" id="Line-4" transform="translate(4.928571, 5.625000) scale(-1, 1) translate(-4.928571, -5.625000) "></path>
        </g>
        <g id="Arrow-head" transform="translate(588.000000, 301.000000) scale(1, -1) rotate(-180.000000) translate(-588.000000, -301.000000) translate(578.000000, 295.000000)" stroke="#AAB1B5" stroke-linecap="round" stroke-linejoin="round">
            <path d="M10,11.25 L19.8571429,0" id="Line-4"></path>
            <path d="M0,11.25 L9.85714286,0" id="Line-4" transform="translate(4.928571, 5.625000) scale(-1, 1) translate(-4.928571, -5.625000) "></path>
        </g>
        <g id="Arrow-head" transform="translate(832.000000, 239.000000) scale(1, -1) translate(-832.000000, -239.000000) translate(822.000000, 233.000000)" stroke="#AAB1B5" stroke-linecap="round" stroke-linejoin="round">
            <path d="M10,11.25 L19.8571429,0" id="Line-4"></path>
            <path d="M0,11.25 L9.85714286,0" id="Line-4" transform="translate(4.928571, 5.625000) scale(-1, 1) translate(-4.928571, -5.625000) "></path>
        </g>
        <g id="Arrow-head" transform="translate(711.000000, 239.000000) scale(1, -1) translate(-711.000000, -239.000000) translate(701.000000, 233.000000)" stroke="#AAB1B5" stroke-linecap="round" stroke-linejoin="round">
            <path d="M10,11.25 L19.8571429,0" id="Line-4"></path>
            <path d="M0,11.25 L9.85714286,0" id="Line-4" transform="translate(4.928571, 5.625000) scale(-1, 1) translate(-4.928571, -5.625000) "></path>
        </g>
        <g id="Arrow-head" transform="translate(348.000000, 239.000000) scale(1, -1) translate(-348.000000, -239.000000) translate(338.000000, 233.000000)" stroke="#AAB1B5" stroke-linecap="round" stroke-linejoin="round">
            <path d="M10,11.25 L19.8571429,0" id="Line-4"></path>
            <path d="M0,11.25 L9.85714286,0" id="Line-4" transform="translate(4.928571, 5.625000) scale(-1, 1) translate(-4.928571, -5.625000) "></path>
        </g>
        <g id="Group" transform="translate(196.000000, 29.000000)">
            <mask id="mask-2" fill="white">
                <use xlink:href="#path-1"></use>
            </mask>
            <use id="Mask" fill="#F7F7F7" fill-rule="nonzero" xlink:href="#path-1"></use>
            <g mask="url(#mask-2)" stroke="#2C2F31" stroke-linecap="round" stroke-linejoin="round" stroke-width="2">
                <g transform="translate(16.071429, 7.142857)">
                    <path d="M45.8482143,55.3571429 C44.5267857,58.3303571 46.4821429,60.7142857 48.2678571,61.9196429 C46.3928571,65.9285714 40.3035714,69.3571429 34.0535714,69.3571429 C27.8035714,69.3571429 21.1339286,65.9017857 19.8392857,61.9196429 C21.625,60.8839286 23.6071429,58.3482143 22.2321429,55.3571429 L45.8482143,55.3571429 Z" id="Shape" fill="none" fill-rule="nonzero"></path>
                    <path d="M36,60.7946429 L32.1428571,60.7946429 C28.7933346,60.7910304 25.5821326,59.4583816 23.2142857,57.0892857 L20.2678571,54.2053571 C15.9447457,49.8810604 13.5166717,44.0164266 13.5178571,37.9017857 L13.5178571,22.7232143 C13.5178571,2.35714286 54.5892857,2.35714286 54.5892857,22.7232143 L54.5892857,37.9017857 C54.5904711,44.0164266 52.1623971,49.8810604 47.8392857,54.2053571 L44.9464286,57.0982143 C42.572744,59.4684103 39.3544292,60.7981332 36,60.7946429 Z" id="Shape" fill="#FFFFFF" fill-rule="nonzero"></path>
                    <path d="M13.5178571,40.0089286 L13.5178571,31.9732143 C13.5178571,29.2946429 11.5267857,28.4017857 10.3035714,29.2946429 C8.34821429,30.6607143 10.8392857,36.4375 10.8392857,36.4375 C9.39285714,37.3660714 11.0267857,40.6607143 13.5178571,40.0089286 Z" id="Shape" fill="none" fill-rule="nonzero"></path>
                    <path d="M54.5892857,39.6875 L54.5892857,31.6517857 C54.5892857,28.9732143 56.5714286,28.0803571 57.8035714,28.9732143 C59.7589286,30.3392857 57.2678571,36.1160714 57.2678571,36.1160714 C58.7232143,37.0446429 57.0803571,40.3482143 54.5892857,39.6875 Z" id="Shape" fill="none" fill-rule="nonzero"></path>
                    <path d="M44.5357143,1.72321429 C51.4196429,4.64285714 60.6071429,12.7946429 56.8392857,24.8214286 C56.2857143,26.6071429 55.4821429,25.9821429 54.5892857,25.8214286 C54.5892857,25.8214286 54.4464286,18.8035714 51.0178571,19.5267857 C42.8571429,21.2410714 38.8392857,14.6785714 28.9285714,21.875 C27.5535714,19.6160714 28.5,14.4821429 31.9910714,11.7857143 C23.8214286,11.7857143 13.5178571,16.7946429 13.5178571,22.8125 C13.5178571,22.8125 10.7857143,20.7946429 10.5625,18.8035714 C9.53571429,9.82142857 14.1466201,5.24906207 22.2011021,1.82146345 C28.7597656,-0.969587054 40.8660714,0.169642857 44.5357143,1.72321429 Z" id="Shape" fill="#FFFFFF" fill-rule="nonzero"></path>
                    <circle id="Oval" fill="none" fill-rule="nonzero" cx="44.3214286" cy="34.4553571" r="1.33928571"></circle>
                    <circle id="Oval" fill="none" fill-rule="nonzero" cx="23.8035714" cy="34.4553571" r="1.33928571"></circle>
                    <path d="M54.2410714,64.2857143 C54.2410714,64.2857143 48.2142857,61.8928571 48.4464286,62.0267857 C46.5535714,66.0714286 40.1785714,69.5535714 34.0535714,69.5535714 C27.9285714,69.5535714 21.0535714,66.0714286 19.6428571,62.0714286 L14.0982143,64.375 C5.67269039,67.8095742 0.153980962,75.9906642 0.125,85.0892857 L0.125,100.982143 L67.9821429,100.982143 L67.9821429,84.9107143 C67.9585757,75.900292 62.5472278,67.777996 54.2410714,64.2857143 Z" id="Shape" fill="#FFFFFF" fill-rule="nonzero"></path>
                    <path d="M15.625,100.446429 L15.625,84.3502175" id="Line" fill="none"></path>
                    <path d="M52.2321429,100.446429 L52.2321429,84.3502175" id="Line" fill="none"></path>
                    <path d="M39.6258503,47.3214286 C39.6258503,47.3214286 37.1496599,50.085034 34.0986395,50.085034 C31.047619,50.085034 28.5714286,47.3214286 28.5714286,47.3214286" id="Stroke-9" fill="none"></path>
                </g>
            </g>
        </g>
        <g id="Group" transform="translate(762.000000, 29.000000)">
            <mask id="mask-4" fill="white">
                <use xlink:href="#path-3"></use>
            </mask>
            <use id="Mask" fill="#F7F7F7" fill-rule="nonzero" xlink:href="#path-3"></use>
            <g mask="url(#mask-4)" stroke-linecap="round" stroke-linejoin="round">
                <g transform="translate(16.071429, 7.142857)">
                    <path d="M45.8482143,55.3571429 C44.5267857,58.3303571 46.4821429,60.7142857 48.2678571,61.9196429 C46.3928571,65.9285714 40.3035714,69.3571429 34.0535714,69.3571429 C27.8035714,69.3571429 21.1339286,65.9017857 19.8392857,61.9196429 C21.625,60.8839286 23.6071429,58.3482143 22.2321429,55.3571429 L45.8482143,55.3571429 Z" id="Shape" stroke="#2C2F31" stroke-width="2" fill="none" fill-rule="nonzero"></path>
                    <path d="M36,60.7946429 L32.1428571,60.7946429 C28.7933346,60.7910304 25.5821326,59.4583816 23.2142857,57.0892857 L20.2678571,54.2053571 C15.9447457,49.8810604 13.5166717,44.0164266 13.5178571,37.9017857 L13.5178571,22.7232143 C13.5178571,2.35714286 54.5892857,2.35714286 54.5892857,22.7232143 L54.5892857,37.9017857 C54.5904711,44.0164266 52.1623971,49.8810604 47.8392857,54.2053571 L44.9464286,57.0982143 C42.572744,59.4684103 39.3544292,60.7981332 36,60.7946429 Z" id="Shape" stroke="#2C2F31" stroke-width="2" fill="#FFFFFF" fill-rule="nonzero"></path>
                    <path d="M13.5178571,40.0089286 L13.5178571,31.9732143 C13.5178571,29.2946429 11.5267857,28.4017857 10.3035714,29.2946429 C8.34821429,30.6607143 10.8392857,36.4375 10.8392857,36.4375 C9.39285714,37.3660714 11.0267857,40.6607143 13.5178571,40.0089286 Z" id="Shape" stroke="#2C2F31" stroke-width="2" fill="none" fill-rule="nonzero"></path>
                    <path d="M54.5892857,39.6875 L54.5892857,31.6517857 C54.5892857,28.9732143 56.5714286,28.0803571 57.8035714,28.9732143 C59.7589286,30.3392857 57.2678571,36.1160714 57.2678571,36.1160714 C58.7232143,37.0446429 57.0803571,40.3482143 54.5892857,39.6875 Z" id="Shape" stroke="#2C2F31" stroke-width="2" fill="none" fill-rule="nonzero"></path>
                    <path d="M44.5357143,1.72321429 C51.4196429,4.64285714 60.6071429,12.7946429 56.8392857,24.8214286 C56.2857143,26.6071429 55.4821429,25.9821429 54.5892857,25.8214286 C54.5892857,25.8214286 54.4464286,18.8035714 51.0178571,19.5267857 C42.8571429,21.2410714 38.8392857,14.6785714 28.9285714,21.875 C27.5535714,19.6160714 28.5,14.4821429 31.9910714,11.7857143 C23.8214286,11.7857143 13.5178571,16.7946429 13.5178571,22.8125 C13.5178571,22.8125 10.7857143,20.7946429 10.5625,18.8035714 C9.53571429,9.82142857 14.1466201,5.24906207 22.2011021,1.82146345 C28.7597656,-0.969587054 40.8660714,0.169642857 44.5357143,1.72321429 Z" id="Shape" stroke="#2C2F31" stroke-width="2" fill="#FFFFFF" fill-rule="nonzero"></path>
                    <path d="M54.2410714,64.2857143 C54.2410714,64.2857143 48.2142857,61.8928571 48.4464286,62.0267857 C46.5535714,66.0714286 40.1785714,69.5535714 34.0535714,69.5535714 C27.9285714,69.5535714 21.0535714,66.0714286 19.6428571,62.0714286 L14.0982143,64.375 C5.67269039,67.8095742 0.153980962,75.9906642 0.125,85.0892857 L0.125,100.982143 L67.9821429,100.982143 L67.9821429,84.9107143 C67.9585757,75.900292 62.5472278,67.777996 54.2410714,64.2857143 Z" id="Shape" stroke="#2C2F31" stroke-width="2" fill="#FFFFFF" fill-rule="nonzero"></path>
                    <path d="M15.625,100.446429 L15.625,84.3502175" id="Line" stroke="#2C2F31" stroke-width="2" fill="none"></path>
                    <path d="M52.2321429,100.446429 L52.2321429,84.3502175" id="Line" stroke="#2C2F31" stroke-width="2" fill="none"></path>
                    <g id="Group" stroke="none" stroke-width="1" fill="none" fill-rule="evenodd" transform="translate(25.467033, 32.087912)">
                        <path d="M0.769230769,0.164835165 L0.769230769,4.50097135" id="Line" stroke="#2C2F31" stroke-width="2"></path>
                        <path d="M16.9230769,0.164835165 L16.9230769,4.50097135" id="Line-Copy" stroke="#2C2F31" stroke-width="2"></path>
                        <path d="M3.46153846,15.7692308 L14.6153846,13.0769231" id="Line-2" stroke="#2C2F31" stroke-width="2"></path>
                    </g>
                </g>
            </g>
        </g>
        <g id="0xcert-black" transform="translate(435.000000, 174.000000)" fill="#000000">
            <path d="M72.6318537,25.9040976 L66.7139268,17.1200732 L71.8802683,8.943 C71.9278293,8.86787805 71.9306341,8.7727561 71.8877073,8.69507317 C71.8447805,8.61714634 71.7629512,8.56885366 71.6740488,8.56885366 L68.6139268,8.56885366 C68.5301463,8.56885366 68.4523415,8.61165854 68.4075854,8.6825122 L64.7941707,14.4069024 L61.0351463,8.67885366 C60.9901463,8.61007317 60.913439,8.56885366 60.8312439,8.56885366 L57.3178293,8.56885366 C57.1830732,8.56885366 57.0739268,8.678 57.0739268,8.8127561 L57.0739268,11.4195854 C57.0739268,11.5542195 57.1830732,11.6634878 57.3178293,11.6634878 L59.2662439,11.6634878 L62.9951463,17.1661707 L57.4145366,25.9090976 C57.3664878,25.9842195 57.363439,26.0793415 57.406122,26.1575122 C57.4490488,26.2356829 57.531,26.2842195 57.6200244,26.2842195 L60.7557561,26.2842195 C60.8402683,26.2842195 60.9186829,26.240561 60.9630732,26.1687317 L64.8818537,19.8411707 L69.1291707,26.1760488 C69.1744146,26.2437317 69.2503902,26.2842195 69.3317317,26.2842195 L72.4296585,26.2842195 C72.5197805,26.2842195 72.6025854,26.2344634 72.6449024,26.1549512 C72.6873415,26.0753171 72.6823415,25.9788537 72.6318537,25.9040976" id="Fill-1"></path>
            <path d="M87.8638537,26.2057561 L74.9644634,26.2057561 L74.9644634,14.153561 C74.9644634,10.4955122 76.8897073,8.64721951 80.7017805,8.64721951 L87.5558049,8.64721951 L87.5558049,13.768439 L84.7448293,13.768439 L84.7448293,11.3040488 L80.8172683,11.3040488 C78.8920244,11.3040488 77.9293415,12.3052683 77.9293415,14.3075854 L77.9293415,23.5489268 L87.8638537,23.5489268 L87.8638537,26.2057561 Z" id="Fill-3"></path>
            <path d="M94.4479024,16.2327927 L101.956439,16.2327927 L101.956439,12.5747439 C101.956439,11.7276707 101.494366,11.3040122 100.608878,11.3040122 L95.9110732,11.3040122 C94.9483902,11.3040122 94.4479024,11.7660854 94.4479024,12.7287683 L94.4479024,16.2327927 Z M104.844488,18.8512073 L94.4479024,18.8512073 L94.4479024,22.5092561 C94.4479024,23.2023049 94.7944878,23.5488902 95.449,23.5488902 L104.382415,23.5488902 L104.382415,26.2057195 L94.9869268,26.2057195 C92.6766829,26.2057195 91.521439,25.0891341 91.521439,22.8173049 L91.521439,12.4592561 C91.521439,9.91791463 92.7150976,8.64718293 95.1410732,8.64718293 L101.109366,8.64718293 C103.573756,8.64718293 104.805951,9.84084146 104.844488,12.2666951 L104.844488,18.8512073 Z" id="Fill-5"></path>
            <polygon id="Fill-7" points="116.54311 11.3040122 111.80689 11.3040122 111.80689 26.2057195 108.803476 26.2057195 108.803476 8.64718293 116.54311 8.64718293"></polygon>
            <path d="M121.568354,11.3040122 L119.25811,11.3040122 L119.25811,8.64718293 L121.568354,8.64718293 L121.568354,3.25632927 L124.533354,3.25632927 L124.533354,8.64718293 L129.153963,8.64718293 L129.153963,11.3040122 L124.533354,11.3040122 L124.533354,22.3168171 C124.533354,23.2023049 124.956768,23.6259634 125.803963,23.5874268 L128.268354,23.5874268 C128.614817,23.5874268 128.922988,23.5874268 129.1925,23.5488902 L129.1925,26.2057195 L125.264939,26.2057195 C122.800549,26.2057195 121.568354,24.8965732 121.568354,22.2781585 L121.568354,11.3040122 Z" id="Fill-9"></path>
            <path d="M49.2826098,23.9508537 L43.2372439,23.9508537 C41.889439,23.9508537 41.1962683,23.2576829 41.1962683,21.91 L41.1962683,19.9017073 L51.3233415,12.5031707 L51.3233415,21.91 C51.3233415,23.2576829 50.6302927,23.9508537 49.2826098,23.9508537 M43.1601707,6.54621951 L49.359561,6.54621951 C50.6688293,6.54621951 51.3233415,7.12390244 51.3233415,8.31756098 L51.3233415,8.57646341 L41.1962683,15.975 L41.1962683,8.31756098 C41.1962683,7.12390244 41.8510244,6.54621951 43.1601707,6.54621951 M49.359561,3.77390244 L43.1601707,3.77390244 C39.6946829,3.77390244 37.961878,5.2754878 37.961878,8.31756098 L37.961878,22.0640244 C37.961878,25.1830488 39.6561463,26.7231707 43.0446829,26.7231707 L49.4750488,26.7231707 C52.8635854,26.7231707 54.5578537,25.1830488 54.5578537,22.0640244 L54.5578537,8.31756098 C54.5578537,5.2754878 52.8251707,3.77390244 49.359561,3.77390244" id="Fill-11"></path>
            <path d="M28.8243415,0.0624756098 L25.9314146,0.0624756098 L11.218122,14.7757683 L13.355561,16.9133293 C13.4983659,17.0561341 13.4983659,17.2877195 13.355561,17.4306463 L10.233122,20.5530854 C10.0901951,20.6960122 9.8584878,20.6960122 9.71568293,20.5530854 L4.33336585,15.1708902 C4.08226829,14.9197927 4.08409756,14.5119878 4.33739024,14.2632073 L18.793,0.0624756098 L10.9336098,0.0624756098 L13.1683659,2.35991463 C13.3098293,2.50540244 13.3059268,2.73808537 13.1597073,2.87881707 L9.95385366,5.96040244 C9.80982927,6.09881707 9.58153659,6.0962561 9.44080488,5.95442683 L3.46860976,0.0624756098 L1.08165854,0.0624756098 C0.500804878,0.0624756098 0.0256829268,0.537597561 0.0256829268,1.11845122 L0.0256829268,28.8611341 C0.0256829268,29.4419878 0.500804878,29.9172317 1.08165854,29.9172317 L3.80434146,29.9172317 L18.687878,15.0335732 L16.550439,12.8961341 C16.4076341,12.7532073 16.4076341,12.521622 16.550439,12.3786951 L19.673,9.2562561 C19.8158049,9.11345122 20.0475122,9.11345122 20.1903171,9.2562561 L25.5726341,14.6384512 C25.8238537,14.8896707 25.8219024,15.2973537 25.5686098,15.5462561 L10.9395854,29.9172317 L18.8333659,29.9172317 L19.2588537,29.9160122 L16.9640976,27.5568659 C16.8226341,27.4115 16.8265366,27.1786951 16.9727561,27.0380854 L20.1786098,23.956378 C20.3226341,23.8179634 20.5509268,23.8205244 20.6916585,23.9623537 L26.7117805,29.9017439 L28.8243415,29.9172317 C29.4051951,29.9172317 29.8803171,29.4419878 29.8803171,28.8611341 L29.8803171,1.11845122 C29.8803171,0.537597561 29.4051951,0.0624756098 28.8243415,0.0624756098" id="Fill-13"></path>
        </g>
    </g>
</svg>