<?xml version="1.0" encoding="utf-8"?>
<!-- Generator: Adobe Illustrator 17.0.0, SVG Export Plug-In . SVG Version: 6.00 Build 0)  -->
<!DOCTYPE svg PUBLIC "-//W3C//DTD SVG 1.1//EN" "http://www.w3.org/Graphics/SVG/1.1/DTD/svg11.dtd">
<svg version="1.1" id="Layer_1" xmlns="http://www.w3.org/2000/svg" xmlns:xlink="http://www.w3.org/1999/xlink" x="0px" y="0px"
	 width="1000px" height="422px" viewBox="0 0 1000 422" enable-background="new 0 0 1000 422" xml:space="preserve">
<title>006</title>
<desc>Created with Sketch.</desc>
<g id="Page-1_4_">
	<g id="_x30_06">
		<text transform="matrix(1 0 0 1 80 405)" fill="#2C2F31" font-family="'Arial-BoldMT'" font-size="20">Users</text>
		<polygon id="Blockchain" fill="#FFFFFF" stroke="#2C2F31" stroke-linecap="round" stroke-linejoin="round" points="196,195 
			862,195 862,245 196,244.865 		"/>
		<g id="Page-1" transform="translate(388.000000, 63.000000)">
			<polyline id="Stroke-1" fill="none" stroke="#2C2F31" stroke-width="2" stroke-linecap="round" stroke-linejoin="round" points="
				29.25,27.291 29.25,37.583 29.25,47.999 29.25,50.083 29.25,95.916 48,95.916 66.75,95.916 66.75,50.083 66.75,47.999 
				66.75,37.583 66.75,26.958 			"/>
			<polyline id="Stroke-3" fill="none" stroke="#2C2F31" stroke-width="2" stroke-linecap="round" stroke-linejoin="round" points="
				25.083,29.25 48,16.75 70.917,29.25 			"/>
			<polyline id="Stroke-4" fill="none" stroke="#2C2F31" stroke-width="2" stroke-linecap="round" stroke-linejoin="round" points="
				29.25,50.083 0.083,50.083 8.417,37.583 29.25,37.583 			"/>
			<polyline id="Stroke-6" fill="none" stroke="#2C2F31" stroke-width="2" stroke-linecap="round" stroke-linejoin="round" points="
				66.75,37.583 87.583,37.583 95.917,50.083 66.75,50.083 			"/>
			<polyline id="Stroke-8" fill="none" stroke="#2C2F31" stroke-width="2" stroke-linecap="round" stroke-linejoin="round" points="
				91.75,50.083 91.75,95.917 4.25,95.917 4.25,50.083 			"/>
			
				<polyline id="Stroke-10" fill="none" stroke="#2C2F31" stroke-width="2" stroke-linecap="round" stroke-linejoin="round" points="
				48,8.417 58.417,8.417 58.417,0.083 48,0.083 48,16.75 			"/>
			<path id="Stroke-12" fill="none" stroke="#2C2F31" stroke-width="2" stroke-linecap="round" stroke-linejoin="round" d="
				M58.417,43.833c0,5.754-4.663,10.417-10.417,10.417s-10.417-4.662-10.417-10.417S42.246,33.417,48,33.417
				S58.417,38.079,58.417,43.833z"/>
			
				<polyline id="Stroke-14" fill="none" stroke="#2C2F31" stroke-width="2" stroke-linecap="round" stroke-linejoin="round" points="
				51.646,47.046 48,43.833 48,39.017 			"/>
			<path id="Stroke-16" fill="none" stroke="#2C2F31" stroke-width="2" stroke-linecap="round" stroke-linejoin="round" d="
				M37.583,95.917V81.333c0-5.754,4.663-10.417,10.417-10.417s10.417,4.663,10.417,10.417v14.583"/>
			<polygon id="Stroke-18" fill="none" stroke="#2C2F31" stroke-width="2" stroke-linecap="round" stroke-linejoin="round" points="
				12.583,83.417 20.917,83.417 20.917,75.083 12.583,75.083 			"/>
			<polygon id="Stroke-20" fill="none" stroke="#2C2F31" stroke-width="2" stroke-linecap="round" stroke-linejoin="round" points="
				12.583,66.75 20.917,66.75 20.917,58.417 12.583,58.417 			"/>
			<polygon id="Stroke-21" fill="none" stroke="#2C2F31" stroke-width="2" stroke-linecap="round" stroke-linejoin="round" points="
				75.083,83.417 83.417,83.417 83.417,75.083 75.083,75.083 			"/>
			<polygon id="Stroke-22" fill="none" stroke="#2C2F31" stroke-width="2" stroke-linecap="round" stroke-linejoin="round" points="
				75.083,66.75 83.417,66.75 83.417,58.417 75.083,58.417 			"/>
		</g>
		<g id="Page-1_1_" transform="translate(577.000000, 65.000000)">
			<path id="Stroke-1_1_" fill="none" stroke="#2C2F31" stroke-width="2" stroke-linecap="round" stroke-linejoin="round" d="
				M92.827,92H0.999"/>
			
				<polyline id="Stroke-4_1_" fill="none" stroke="#2C2F31" stroke-width="2" stroke-linecap="round" stroke-linejoin="round" points="
				20.913,80 20.913,0 72.913,8 72.913,80 			"/>
			<path id="Stroke-6_1_" fill="none" stroke="#2C2F31" stroke-width="2" stroke-linecap="round" stroke-linejoin="round" d="
				M36.913,2.461v77.54"/>
			<path id="Stroke-8_1_" fill="none" stroke="#2C2F31" stroke-width="2" stroke-linecap="round" stroke-linejoin="round" d="
				M56.913,5.684V80"/>
			<path id="Stroke-11" fill="none" stroke="#2C2F31" stroke-width="2" stroke-linecap="round" stroke-linejoin="round" d="
				M20.913,64h52"/>
			<path id="Stroke-12_1_" fill="none" stroke="#2C2F31" stroke-width="2" stroke-linecap="round" stroke-linejoin="round" d="
				M20.913,48h52"/>
			<path id="Stroke-13" fill="none" stroke="#2C2F31" stroke-width="2" stroke-linecap="round" stroke-linejoin="round" d="
				M20.913,32h52"/>
			<path id="Stroke-14_1_" fill="none" stroke="#2C2F31" stroke-width="2" stroke-linecap="round" stroke-linejoin="round" d="
				M20.913,16h52"/>
			
				<polyline id="Stroke-15" fill="none" stroke="#2C2F31" stroke-width="2" stroke-linecap="round" stroke-linejoin="round" points="
				84.913,92 84.913,80 8.913,80 8.913,92 			"/>
		</g>
		<path id="Line" fill="none" stroke="#AAB1B5" stroke-linecap="round" stroke-linejoin="round" d="M225,336v-50"/>
		<path id="Line_1_" fill="none" stroke="#AAB1B5" stroke-linecap="round" stroke-linejoin="round" d="M348,314v-50"/>
		<path id="Line_2_" fill="none" stroke="#AAB1B5" stroke-linecap="round" stroke-linejoin="round" d="M467,336v-50"/>
		<g id="Page-1_2_" transform="translate(206.000000, 362.000000)">
			<path id="Stroke-1_2_" fill="none" stroke="#2C2F31" stroke-width="2" stroke-linecap="round" stroke-linejoin="round" d="
				M14.879,30.509c-0.619,1.754-1.227,1.851-1.821,2.043C5.735,34.92,0.44,40.86,0.44,49.632h36.526
				c0-8.772-5.294-14.711-12.615-17.079c-0.594-0.193-1.202-0.289-1.822-2.044"/>
			<path id="Stroke-3_1_" fill="none" stroke="#2C2F31" stroke-width="2" stroke-linecap="round" stroke-linejoin="round" d="
				M8.139,16.928c-0.832,0.268-0.926,2.275-0.21,4.484c0.695,2.146,1.896,3.677,2.727,3.52c1.896,3.73,5.472,7.002,8.048,7.002
				c2.577,0,6.153-3.272,8.048-7.002c0.832,0.157,2.032-1.375,2.727-3.52c0.716-2.209,0.622-4.217-0.21-4.484"/>
			<path id="Stroke-5" fill="none" stroke="#2C2F31" stroke-width="2" stroke-linecap="round" stroke-linejoin="round" d="
				M26.632,33.667c0,1.938-3.549,3.509-7.929,3.509s-7.929-1.571-7.929-3.509"/>
			<path id="Stroke-7" fill="none" stroke="#2C2F31" stroke-width="2" stroke-linecap="round" stroke-linejoin="round" d="
				M8.139,16.928c0,0,2.935-0.454,3.376-4.752c1.674-1.053,11.188,2.807,12.333,4.211c0,0-1.233-4.035-1.233-4.386
				s4.052,1.93,5.021,6.14c0,0,2.995-1.93,3.524-6.93s-5.021-16.93-19.645-6.842C9.929,4.545,3.205,2.717,8.139,16.928z"/>
		</g>
		<g id="Page-1-Copy" transform="translate(327.000000, 362.000000)">
			<path id="Stroke-1_3_" fill="none" stroke="#2C2F31" stroke-width="2" stroke-linecap="round" stroke-linejoin="round" d="
				M14.879,30.509c-0.619,1.754-1.227,1.851-1.821,2.043C5.735,34.92,0.44,40.86,0.44,49.632h36.526
				c0-8.772-5.294-14.711-12.615-17.079c-0.594-0.193-1.202-0.289-1.822-2.044"/>
			<path id="Stroke-3_2_" fill="none" stroke="#2C2F31" stroke-width="2" stroke-linecap="round" stroke-linejoin="round" d="
				M8.139,16.928c-0.832,0.268-0.926,2.275-0.21,4.484c0.695,2.146,1.896,3.677,2.727,3.52c1.896,3.73,5.472,7.002,8.048,7.002
				c2.577,0,6.153-3.272,8.048-7.002c0.832,0.157,2.032-1.375,2.727-3.52c0.716-2.209,0.622-4.217-0.21-4.484"/>
			<path id="Stroke-5_1_" fill="none" stroke="#2C2F31" stroke-width="2" stroke-linecap="round" stroke-linejoin="round" d="
				M26.632,33.667c0,1.938-3.549,3.509-7.929,3.509s-7.929-1.571-7.929-3.509"/>
			<path id="Stroke-7_1_" fill="none" stroke="#2C2F31" stroke-width="2" stroke-linecap="round" stroke-linejoin="round" d="
				M8.139,16.928c0,0,2.935-0.454,3.376-4.752c1.674-1.053,11.188,2.807,12.333,4.211c0,0-1.233-4.035-1.233-4.386
				s4.052,1.93,5.021,6.14c0,0,2.995-1.93,3.524-6.93s-5.021-16.93-19.645-6.842C9.929,4.545,3.205,2.717,8.139,16.928z"/>
		</g>
		<g id="Page-1-Copy-3" transform="translate(448.000000, 362.000000)">
			<path id="Stroke-1_4_" fill="none" stroke="#2C2F31" stroke-width="2" stroke-linecap="round" stroke-linejoin="round" d="
				M14.879,30.509c-0.619,1.754-1.227,1.851-1.821,2.043C5.735,34.92,0.44,40.86,0.44,49.632h36.526
				c0-8.772-5.294-14.711-12.615-17.079c-0.594-0.193-1.202-0.289-1.822-2.044"/>
			<path id="Stroke-3_3_" fill="none" stroke="#2C2F31" stroke-width="2" stroke-linecap="round" stroke-linejoin="round" d="
				M8.139,16.928c-0.832,0.268-0.926,2.275-0.21,4.484c0.695,2.146,1.896,3.677,2.727,3.52c1.896,3.73,5.472,7.002,8.048,7.002
				c2.577,0,6.153-3.272,8.048-7.002c0.832,0.157,2.032-1.375,2.727-3.52c0.716-2.209,0.622-4.217-0.21-4.484"/>
			<path id="Stroke-5_2_" fill="none" stroke="#2C2F31" stroke-width="2" stroke-linecap="round" stroke-linejoin="round" d="
				M26.632,33.667c0,1.938-3.549,3.509-7.929,3.509s-7.929-1.571-7.929-3.509"/>
			<path id="Stroke-7_2_" fill="none" stroke="#2C2F31" stroke-width="2" stroke-linecap="round" stroke-linejoin="round" d="
				M8.139,16.928c0,0,2.935-0.454,3.376-4.752c1.674-1.053,11.188,2.807,12.333,4.211c0,0-1.233-4.035-1.233-4.386
				s4.052,1.93,5.021,6.14c0,0,2.995-1.93,3.524-6.93s-5.021-16.93-19.645-6.842C9.929,4.545,3.205,2.717,8.139,16.928z"/>
		</g>
		<g id="Page-1-Copy-4" transform="translate(570.000000, 362.000000)">
			<path id="Stroke-1_5_" fill="none" stroke="#2C2F31" stroke-width="2" stroke-linecap="round" stroke-linejoin="round" d="
				M14.879,30.509c-0.619,1.754-1.227,1.851-1.821,2.043C5.735,34.92,0.44,40.86,0.44,49.632h36.526
				c0-8.772-5.294-14.711-12.615-17.079c-0.594-0.193-1.202-0.289-1.822-2.044"/>
			<path id="Stroke-3_4_" fill="none" stroke="#2C2F31" stroke-width="2" stroke-linecap="round" stroke-linejoin="round" d="
				M8.139,16.928c-0.832,0.268-0.926,2.275-0.21,4.484c0.695,2.146,1.896,3.677,2.727,3.52c1.896,3.73,5.472,7.002,8.048,7.002
				c2.577,0,6.153-3.272,8.048-7.002c0.832,0.157,2.032-1.375,2.727-3.52c0.716-2.209,0.622-4.217-0.21-4.484"/>
			<path id="Stroke-5_3_" fill="none" stroke="#2C2F31" stroke-width="2" stroke-linecap="round" stroke-linejoin="round" d="
				M26.632,33.667c0,1.938-3.549,3.509-7.929,3.509s-7.929-1.571-7.929-3.509"/>
			<path id="Stroke-7_3_" fill="none" stroke="#2C2F31" stroke-width="2" stroke-linecap="round" stroke-linejoin="round" d="
				M8.139,16.928c0,0,2.935-0.454,3.376-4.752c1.674-1.053,11.188,2.807,12.333,4.211c0,0-1.233-4.035-1.233-4.386
				s4.052,1.93,5.021,6.14c0,0,2.995-1.93,3.524-6.93s-5.021-16.93-19.645-6.842C9.929,4.545,3.205,2.717,8.139,16.928z"/>
		</g>
		<g id="Page-1-Copy-5" transform="translate(691.000000, 362.000000)">
			<path id="Stroke-1_6_" fill="none" stroke="#2C2F31" stroke-width="2" stroke-linecap="round" stroke-linejoin="round" d="
				M14.879,30.509c-0.619,1.754-1.227,1.851-1.821,2.043C5.735,34.92,0.44,40.86,0.44,49.632h36.526
				c0-8.772-5.294-14.711-12.615-17.079c-0.594-0.193-1.202-0.289-1.822-2.044"/>
			<path id="Stroke-3_5_" fill="none" stroke="#2C2F31" stroke-width="2" stroke-linecap="round" stroke-linejoin="round" d="
				M8.139,16.928c-0.832,0.268-0.926,2.275-0.21,4.484c0.695,2.146,1.896,3.677,2.727,3.52c1.896,3.73,5.472,7.002,8.048,7.002
				c2.577,0,6.153-3.272,8.048-7.002c0.832,0.157,2.032-1.375,2.727-3.52c0.716-2.209,0.622-4.217-0.21-4.484"/>
			<path id="Stroke-5_4_" fill="none" stroke="#2C2F31" stroke-width="2" stroke-linecap="round" stroke-linejoin="round" d="
				M26.632,33.667c0,1.938-3.549,3.509-7.929,3.509s-7.929-1.571-7.929-3.509"/>
			<path id="Stroke-7_4_" fill="none" stroke="#2C2F31" stroke-width="2" stroke-linecap="round" stroke-linejoin="round" d="
				M8.139,16.928c0,0,2.935-0.454,3.376-4.752c1.674-1.053,11.188,2.807,12.333,4.211c0,0-1.233-4.035-1.233-4.386
				s4.052,1.93,5.021,6.14c0,0,2.995-1.93,3.524-6.93s-5.021-16.93-19.645-6.842C9.929,4.545,3.205,2.717,8.139,16.928z"/>
		</g>
		<g id="Page-1-Copy-2" transform="translate(812.000000, 362.000000)">
			<path id="Stroke-1_7_" fill="none" stroke="#2C2F31" stroke-width="2" stroke-linecap="round" stroke-linejoin="round" d="
				M14.879,30.509c-0.619,1.754-1.227,1.851-1.821,2.043C5.735,34.92,0.44,40.86,0.44,49.632h36.526
				c0-8.772-5.294-14.711-12.615-17.079c-0.594-0.193-1.202-0.289-1.822-2.044"/>
			<path id="Stroke-3_6_" fill="none" stroke="#2C2F31" stroke-width="2" stroke-linecap="round" stroke-linejoin="round" d="
				M8.139,16.928c-0.832,0.268-0.926,2.275-0.21,4.484c0.695,2.146,1.896,3.677,2.727,3.52c1.896,3.73,5.472,7.002,8.048,7.002
				c2.577,0,6.153-3.272,8.048-7.002c0.832,0.157,2.032-1.375,2.727-3.52c0.716-2.209,0.622-4.217-0.21-4.484"/>
			<path id="Stroke-5_5_" fill="none" stroke="#2C2F31" stroke-width="2" stroke-linecap="round" stroke-linejoin="round" d="
				M26.632,33.667c0,1.938-3.549,3.509-7.929,3.509s-7.929-1.571-7.929-3.509"/>
			<path id="Stroke-7_5_" fill="none" stroke="#2C2F31" stroke-width="2" stroke-linecap="round" stroke-linejoin="round" d="
				M8.139,16.928c0,0,2.935-0.454,3.376-4.752c1.674-1.053,11.188,2.807,12.333,4.211c0,0-1.233-4.035-1.233-4.386
				s4.052,1.93,5.021,6.14c0,0,2.995-1.93,3.524-6.93s-5.021-16.93-19.645-6.842C9.929,4.545,3.205,2.717,8.139,16.928z"/>
		</g>
		<path id="Line_3_" fill="none" stroke="#AAB1B5" stroke-linecap="round" stroke-linejoin="round" d="M588,336v-50"/>
		<path id="Line_4_" fill="none" stroke="#AAB1B5" stroke-linecap="round" stroke-linejoin="round" d="M711,314v-50"/>
		<path id="Line_5_" fill="none" stroke="#AAB1B5" stroke-linecap="round" stroke-linejoin="round" d="M832,314v-50"/>
		<text transform="matrix(1 0 0 1 80 122)" fill="#2C2F31" font-family="'Arial-BoldMT'" font-size="20">Dapps</text>
		
			<g id="Arrow-head" transform="translate(225.000000, 331.000000) scale(1, -1) rotate(-180.000000) translate(-225.000000, -331.000000) translate(215.000000, 325.000000)">
			<path id="Line-4" fill="none" stroke="#AAB1B5" stroke-linecap="round" stroke-linejoin="round" d="M10,11.25L19.857,0"/>
			<path id="Line-4_1_" fill="none" stroke="#AAB1B5" stroke-linecap="round" stroke-linejoin="round" d="M9.857,11.25L0,0"/>
		</g>
		
			<g id="Arrow-head_1_" transform="translate(467.000000, 331.000000) scale(1, -1) rotate(-180.000000) translate(-467.000000, -331.000000) translate(457.000000, 325.000000)">
			<path id="Line-4_2_" fill="none" stroke="#AAB1B5" stroke-linecap="round" stroke-linejoin="round" d="M10,11.25L19.857,0"/>
			<path id="Line-4_3_" fill="none" stroke="#AAB1B5" stroke-linecap="round" stroke-linejoin="round" d="M9.857,11.25L0,0"/>
		</g>
		
			<g id="Arrow-head_2_" transform="translate(588.000000, 331.000000) scale(1, -1) rotate(-180.000000) translate(-588.000000, -331.000000) translate(578.000000, 325.000000)">
			<path id="Line-4_4_" fill="none" stroke="#AAB1B5" stroke-linecap="round" stroke-linejoin="round" d="M10,11.25L19.857,0"/>
			<path id="Line-4_5_" fill="none" stroke="#AAB1B5" stroke-linecap="round" stroke-linejoin="round" d="M9.857,11.25L0,0"/>
		</g>
		
			<g id="Arrow-head_3_" transform="translate(832.000000, 269.000000) scale(1, -1) translate(-832.000000, -269.000000) translate(822.000000, 263.000000)">
			<path id="Line-4_6_" fill="none" stroke="#AAB1B5" stroke-linecap="round" stroke-linejoin="round" d="M10,11.25L19.857,0"/>
			<path id="Line-4_7_" fill="none" stroke="#AAB1B5" stroke-linecap="round" stroke-linejoin="round" d="M9.857,11.25L0,0"/>
		</g>
		
			<g id="Arrow-head_4_" transform="translate(711.000000, 269.000000) scale(1, -1) translate(-711.000000, -269.000000) translate(701.000000, 263.000000)">
			<path id="Line-4_8_" fill="none" stroke="#AAB1B5" stroke-linecap="round" stroke-linejoin="round" d="M10,11.25L19.857,0"/>
			<path id="Line-4_9_" fill="none" stroke="#AAB1B5" stroke-linecap="round" stroke-linejoin="round" d="M9.857,11.25L0,0"/>
		</g>
		
			<g id="Arrow-head_5_" transform="translate(348.000000, 269.000000) scale(1, -1) translate(-348.000000, -269.000000) translate(338.000000, 263.000000)">
			<path id="Line-4_10_" fill="none" stroke="#AAB1B5" stroke-linecap="round" stroke-linejoin="round" d="M10,11.25L19.857,0"/>
			<path id="Line-4_11_" fill="none" stroke="#AAB1B5" stroke-linecap="round" stroke-linejoin="round" d="M9.857,11.25L0,0"/>
		</g>
		<g id="Group" transform="translate(196.000000, 59.000000)">
			<g id="Mask">
				<circle id="path-1_1_" fill="#F7F7F7" cx="50" cy="50" r="50"/>
			</g>
			<defs>
				<filter id="Adobe_OpacityMaskFilter" filterUnits="userSpaceOnUse" x="15.196" y="6.263" width="69.857" height="102.862">
					<feColorMatrix  type="matrix" values="1 0 0 0 0  0 1 0 0 0  0 0 1 0 0  0 0 0 1 0"/>
				</filter>
			</defs>
			<mask maskUnits="userSpaceOnUse" x="15.196" y="6.263" width="69.857" height="102.862" id="mask-2">
				<g filter="url(#Adobe_OpacityMaskFilter)">
					<circle id="path-1" fill="#FFFFFF" cx="50" cy="50" r="50"/>
				</g>
			</mask>
			<g mask="url(#mask-2)">
				<g transform="translate(16.071429, 7.142857)">
					<path id="Shape" fill="none" stroke="#2C2F31" stroke-width="2" stroke-linecap="round" stroke-linejoin="round" d="
						M45.848,55.357c-1.321,2.973,0.634,5.357,2.42,6.562c-1.875,4.009-7.964,7.437-14.214,7.437s-12.92-3.455-14.214-7.437
						c1.786-1.036,3.768-3.571,2.393-6.562C22.233,55.357,45.848,55.357,45.848,55.357z"/>
					<path id="Shape_1_" fill="#FFFFFF" stroke="#2C2F31" stroke-width="2" stroke-linecap="round" stroke-linejoin="round" d="
						M36,60.795h-3.857c-3.35-0.004-6.561-1.336-8.929-3.705l-2.946-2.884c-4.323-4.324-6.751-10.189-6.75-16.304V22.723
						c0-20.366,41.071-20.366,41.071,0v15.179c0.001,6.115-2.427,11.979-6.75,16.304l-2.893,2.893
						C42.573,59.468,39.354,60.798,36,60.795z"/>
					<path id="Shape_2_" fill="none" stroke="#2C2F31" stroke-width="2" stroke-linecap="round" stroke-linejoin="round" d="
						M13.518,40.009v-8.036c0-2.679-1.991-3.571-3.214-2.679c-1.955,1.366,0.536,7.143,0.536,7.143
						C9.393,37.366,11.027,40.661,13.518,40.009z"/>
					<path id="Shape_3_" fill="none" stroke="#2C2F31" stroke-width="2" stroke-linecap="round" stroke-linejoin="round" d="
						M54.589,39.688v-8.036c0-2.679,1.982-3.571,3.214-2.679c1.955,1.366-0.536,7.143-0.536,7.143
						C58.723,37.045,57.08,40.348,54.589,39.688z"/>
					<path id="Shape_4_" fill="#FFFFFF" stroke="#2C2F31" stroke-width="2" stroke-linecap="round" stroke-linejoin="round" d="
						M44.536,1.723c6.884,2.92,16.071,11.071,12.304,23.098c-0.554,1.786-1.357,1.161-2.25,1c0,0-0.143-7.018-3.571-6.295
						c-8.161,1.714-12.179-4.848-22.089,2.348c-1.375-2.259-0.429-7.393,3.062-10.089c-8.17,0-18.473,5.009-18.473,11.027
						c0,0-2.732-2.018-2.955-4.009C9.536,9.821,14.147,5.249,22.201,1.821C28.76-0.97,40.866,0.17,44.536,1.723z"/>
					
						<circle id="Oval" fill="none" stroke="#2C2F31" stroke-width="2" stroke-linecap="round" stroke-linejoin="round" cx="44.321" cy="34.455" r="1.339"/>
					
						<circle id="Oval_1_" fill="none" stroke="#2C2F31" stroke-width="2" stroke-linecap="round" stroke-linejoin="round" cx="23.804" cy="34.455" r="1.339"/>
					<path id="Shape_5_" fill="#E8F7FC" stroke="#2C2F31" stroke-width="2" stroke-linecap="round" stroke-linejoin="round" d="
						M54.241,64.286c0,0-6.027-2.393-5.795-2.259c-1.893,4.045-8.268,7.527-14.393,7.527s-13-3.482-14.411-7.482l-5.545,2.304
						C5.673,67.81,0.154,75.991,0.125,85.089v15.893h67.857V84.911C67.959,75.9,62.547,67.778,54.241,64.286z"/>
					<path id="Line_6_" fill="none" stroke="#2C2F31" stroke-width="2" stroke-linecap="round" stroke-linejoin="round" d="
						M15.625,100.446V84.35"/>
					<path id="Line_7_" fill="none" stroke="#2C2F31" stroke-width="2" stroke-linecap="round" stroke-linejoin="round" d="
						M52.232,100.446V84.35"/>
					<path id="Stroke-9" fill="none" stroke="#2C2F31" stroke-width="2" stroke-linecap="round" stroke-linejoin="round" d="
						M39.626,47.321c0,0-2.476,2.764-5.527,2.764s-5.527-2.764-5.527-2.764"/>
				</g>
			</g>
		</g>
		<g id="Group_2_" transform="translate(762.000000, 59.000000)">
			<g id="Mask_1_">
				<circle id="path-3_1_" fill="#F7F7F7" cx="50" cy="50" r="50"/>
			</g>
			<defs>
				<filter id="Adobe_OpacityMaskFilter_1_" filterUnits="userSpaceOnUse" x="15.196" y="6.263" width="69.857" height="102.862">
					<feColorMatrix  type="matrix" values="1 0 0 0 0  0 1 0 0 0  0 0 1 0 0  0 0 0 1 0"/>
				</filter>
			</defs>
			<mask maskUnits="userSpaceOnUse" x="15.196" y="6.263" width="69.857" height="102.862" id="mask-4">
				<g filter="url(#Adobe_OpacityMaskFilter_1_)">
					<circle id="path-3" fill="#FFFFFF" cx="50" cy="50" r="50"/>
				</g>
			</mask>
			<g mask="url(#mask-4)">
				<g transform="translate(16.071429, 7.142857)">
					<path id="Shape_6_" fill="none" stroke="#2C2F31" stroke-width="2" stroke-linecap="round" stroke-linejoin="round" d="
						M45.848,55.357c-1.321,2.973,0.634,5.357,2.42,6.562c-1.875,4.009-7.964,7.437-14.214,7.437s-12.92-3.455-14.214-7.437
						c1.786-1.036,3.768-3.571,2.393-6.562C22.233,55.357,45.848,55.357,45.848,55.357z"/>
					<path id="Shape_7_" fill="#FFFFFF" stroke="#2C2F31" stroke-width="2" stroke-linecap="round" stroke-linejoin="round" d="
						M36,60.795h-3.857c-3.35-0.004-6.561-1.336-8.929-3.705l-2.946-2.884c-4.323-4.324-6.751-10.189-6.75-16.304V22.723
						c0-20.366,41.071-20.366,41.071,0v15.179c0.001,6.115-2.427,11.979-6.75,16.304l-2.893,2.893
						C42.573,59.468,39.354,60.798,36,60.795z"/>
					<path id="Shape_8_" fill="none" stroke="#2C2F31" stroke-width="2" stroke-linecap="round" stroke-linejoin="round" d="
						M13.518,40.009v-8.036c0-2.679-1.991-3.571-3.214-2.679c-1.955,1.366,0.536,7.143,0.536,7.143
						C9.393,37.366,11.027,40.661,13.518,40.009z"/>
					<path id="Shape_9_" fill="none" stroke="#2C2F31" stroke-width="2" stroke-linecap="round" stroke-linejoin="round" d="
						M54.589,39.688v-8.036c0-2.679,1.982-3.571,3.214-2.679c1.955,1.366-0.536,7.143-0.536,7.143
						C58.723,37.045,57.08,40.348,54.589,39.688z"/>
					<path id="Shape_10_" fill="#FFFFFF" stroke="#2C2F31" stroke-width="2" stroke-linecap="round" stroke-linejoin="round" d="
						M44.536,1.723c6.884,2.92,16.071,11.071,12.304,23.098c-0.554,1.786-1.357,1.161-2.25,1c0,0-0.143-7.018-3.571-6.295
						c-8.161,1.714-12.179-4.848-22.089,2.348c-1.375-2.259-0.429-7.393,3.062-10.089c-8.17,0-18.473,5.009-18.473,11.027
						c0,0-2.732-2.018-2.955-4.009C9.536,9.821,14.147,5.249,22.201,1.821C28.76-0.97,40.866,0.17,44.536,1.723z"/>
					<path id="Shape_11_" fill="#FEE4E2" stroke="#2C2F31" stroke-width="2" stroke-linecap="round" stroke-linejoin="round" d="
						M54.241,64.286c0,0-6.027-2.393-5.795-2.259c-1.893,4.045-8.268,7.527-14.393,7.527s-13-3.482-14.411-7.482l-5.545,2.304
						C5.673,67.81,0.154,75.991,0.125,85.089v15.893h67.857V84.911C67.959,75.9,62.547,67.778,54.241,64.286z"/>
					<path id="Line_8_" fill="none" stroke="#2C2F31" stroke-width="2" stroke-linecap="round" stroke-linejoin="round" d="
						M15.625,100.446V84.35"/>
					<path id="Line_9_" fill="none" stroke="#2C2F31" stroke-width="2" stroke-linecap="round" stroke-linejoin="round" d="
						M52.232,100.446V84.35"/>
					<g id="Group_1_" transform="translate(25.467033, 32.087912)">
						<path id="Line_10_" fill="none" stroke="#2C2F31" stroke-width="2" stroke-linecap="round" stroke-linejoin="round" d="
							M0.769,0.165v4.336"/>
						<path id="Line-Copy" fill="none" stroke="#2C2F31" stroke-width="2" stroke-linecap="round" stroke-linejoin="round" d="
							M16.923,0.165v4.336"/>
						<path id="Line-2" fill="none" stroke="#2C2F31" stroke-width="2" stroke-linecap="round" stroke-linejoin="round" d="
							M3.462,15.769l11.154-2.692"/>
					</g>
				</g>
			</g>
		</g>
		<g>
			<path fill="none" d="M465.036,237.75h136.402V201H465.036V237.75z M587.048,213.233h2.276v-5.31h2.92v5.31h4.551v2.617h-4.551
				v10.848c0,0.872,0.417,1.29,1.252,1.252h2.427c0.341,0,0.645,0,0.91-0.038v2.617h-3.869c-2.427,0-3.641-1.29-3.641-3.869v-10.81
				h-2.276V213.233z M576.75,213.233h7.624v2.617h-4.665v14.678h-2.958V213.233z M559.727,216.988c0-2.503,1.176-3.755,3.565-3.755
				h5.879c2.427,0,3.641,1.176,3.679,3.565v6.486h0h-10.241v3.603c0,0.683,0.341,1.024,0.986,1.024h8.799v2.617h-9.254
				c-2.276,0-3.414-1.1-3.414-3.338V216.988z M543.418,218.656c0-3.603,1.896-5.424,5.651-5.424h6.751v5.045h-2.769v-2.427h-3.869
				c-1.896,0-2.845,0.986-2.845,2.958v9.103h9.786v2.617h0h-12.706V218.656z M525.796,213.396c0-0.133,0.107-0.24,0.24-0.24h3.461
				c0.081,0,0.156,0.041,0.201,0.108l3.703,5.642l3.559-5.639c0.044-0.07,0.121-0.112,0.203-0.112h3.014
				c0.088,0,0.168,0.048,0.21,0.124c0.042,0.077,0.039,0.17-0.007,0.244l-5.089,8.054l5.829,8.652
				c0.05,0.074,0.055,0.169,0.013,0.247c-0.042,0.078-0.123,0.127-0.212,0.127h-3.051c-0.08,0-0.155-0.04-0.2-0.107l-4.184-6.24
				l-3.86,6.233c-0.044,0.071-0.121,0.114-0.204,0.114h-3.089c-0.088,0-0.168-0.048-0.211-0.125s-0.039-0.171,0.008-0.245
				l5.497-8.612l-3.673-5.42h-1.919c-0.133,0-0.24-0.108-0.24-0.24V213.396z M506.97,212.908c0-2.996,1.707-4.475,5.12-4.475h6.106
				c3.414,0,5.12,1.479,5.12,4.475v13.54c0,3.072-1.669,4.589-5.007,4.589h-6.334c-3.338,0-5.007-1.517-5.007-4.589V212.908z
				 M469.603,205.817c0-0.572,0.468-1.04,1.04-1.04h2.351l-0.247-0.243l5.921-1.482l1.679,1.726h7.742l-14.239,13.988
				c-0.25,0.245-0.251,0.647-0.004,0.894l5.302,5.302c0.141,0.141,0.369,0.141,0.51,0l3.076-3.076c0.141-0.141,0.141-0.369,0-0.51
				l-2.105-2.106l14.493-14.493h2.85c0.572,0,1.04,0.468,1.04,1.04v27.327c0,0.572-0.468,1.04-1.04,1.04l-2.081-0.015l0.2,0.197
				l-5.921,1.482l-1.62-1.665l-0.419,0.001h-7.775l14.41-14.156c0.249-0.245,0.251-0.647,0.004-0.894l-5.302-5.301
				c-0.141-0.141-0.369-0.141-0.51,0l-3.076,3.076c-0.141,0.141-0.141,0.369,0,0.51l2.105,2.106l-14.66,14.66h-2.682
				c-0.572,0-1.04-0.468-1.04-1.04V205.817z"/>
			<path fill="none" d="M512.166,228.307h5.955c1.328,0,2.01-0.683,2.01-2.01v-9.266l-9.975,7.288v1.978
				C510.156,227.624,510.839,228.307,512.166,228.307z"/>
			<path fill="none" d="M520.131,212.908c0-1.176-0.645-1.745-1.934-1.745h-6.106c-1.289,0-1.934,0.569-1.934,1.745v7.543
				l9.975-7.288V212.908z"/>
			<path fill="none" d="M570.005,217.101c0-0.834-0.455-1.252-1.327-1.252h-4.627c-0.948,0-1.441,0.455-1.441,1.403v3.451h7.396
				V217.101z"/>
			<path fill="#3D8CFF" d="M470.643,234.184h2.682l14.66-14.66l-2.105-2.106c-0.141-0.141-0.141-0.369,0-0.51l3.076-3.076
				c0.141-0.141,0.369-0.141,0.51,0l5.302,5.301c0.247,0.247,0.246,0.649-0.004,0.894l-14.41,14.156h7.775l0.419-0.001l-2.26-2.324
				c-0.139-0.143-0.135-0.373,0.009-0.511l3.158-3.036c0.142-0.136,0.367-0.134,0.505,0.006l5.93,5.85l2.081,0.015
				c0.572,0,1.04-0.468,1.04-1.04v-27.327c0-0.572-0.468-1.04-1.04-1.04h-2.85l-14.493,14.493l2.105,2.106
				c0.141,0.141,0.141,0.369,0,0.51l-3.076,3.076c-0.141,0.141-0.369,0.141-0.51,0l-5.302-5.302
				c-0.247-0.247-0.246-0.649,0.004-0.894l14.239-13.988h-7.742l2.201,2.263c0.139,0.143,0.136,0.373-0.009,0.511l-3.158,3.036
				c-0.142,0.136-0.367,0.134-0.505-0.006l-5.883-5.804h-2.351c-0.572,0-1.04,0.468-1.04,1.04v27.327
				C469.603,233.716,470.071,234.184,470.643,234.184z"/>
			<path fill="#2C2F31" d="M526.036,216.204h1.919l3.673,5.42l-5.497,8.612c-0.047,0.074-0.05,0.168-0.008,0.245
				s0.123,0.125,0.211,0.125h3.089c0.083,0,0.161-0.043,0.204-0.114l3.86-6.233l4.184,6.24c0.045,0.067,0.12,0.107,0.2,0.107h3.051
				c0.089,0,0.17-0.049,0.212-0.127c0.042-0.078,0.037-0.173-0.013-0.247l-5.829-8.652l5.089-8.054
				c0.047-0.074,0.05-0.168,0.007-0.244c-0.042-0.077-0.123-0.124-0.21-0.124h-3.014c-0.083,0-0.159,0.042-0.203,0.112l-3.559,5.639
				l-3.703-5.642c-0.044-0.068-0.12-0.108-0.201-0.108h-3.461c-0.133,0-0.24,0.108-0.24,0.24v2.568
				C525.796,216.096,525.903,216.204,526.036,216.204z"/>
			<path fill="#2C2F31" d="M556.124,230.528v-2.617h-9.786v-9.103c0-1.972,0.948-2.958,2.845-2.958h3.869v2.427h2.769v-5.045h-6.751
				c-3.755,0-5.651,1.821-5.651,5.424v11.872H556.124L556.124,230.528z"/>
			<path fill="#2C2F31" d="M563.14,230.528h9.254v-2.617h-8.799c-0.645,0-0.986-0.341-0.986-1.024v-3.603h10.241h0v-6.486
				c-0.038-2.389-1.252-3.565-3.679-3.565h-5.879c-2.39,0-3.565,1.252-3.565,3.755v10.203
				C559.727,229.428,560.865,230.528,563.14,230.528z M562.609,217.253c0-0.948,0.493-1.403,1.441-1.403h4.627
				c0.872,0,1.327,0.417,1.327,1.252v3.603h-7.396V217.253z"/>
			<polygon fill="#2C2F31" points="579.708,215.85 584.373,215.85 584.373,213.233 576.75,213.233 576.75,230.528 579.708,230.528 
							"/>
			<path fill="#2C2F31" d="M589.323,226.659c0,2.579,1.214,3.869,3.641,3.869h3.869v-2.617c-0.266,0.038-0.569,0.038-0.91,0.038
				h-2.427c-0.834,0.038-1.252-0.379-1.252-1.252V215.85h4.551v-2.617h-4.551v-5.31h-2.92v5.31h-2.276v2.617h2.276V226.659z"/>
			<path fill="#2C2F31" d="M511.977,231.038h6.334c3.338,0,5.007-1.517,5.007-4.589v-13.54c0-2.996-1.707-4.475-5.12-4.475h-6.106
				c-3.413,0-5.12,1.479-5.12,4.475v13.54C506.97,229.521,508.639,231.038,511.977,231.038z M510.156,212.908
				c0-1.176,0.645-1.745,1.934-1.745h6.106c1.29,0,1.934,0.569,1.934,1.745v0.255l-9.975,7.288V212.908z M510.156,224.318
				l9.975-7.288v9.266c0,1.327-0.683,2.01-2.01,2.01h-5.955c-1.327,0-2.01-0.683-2.01-2.01V224.318z"/>
		</g>
	</g>
</g>
</svg>
