<?xml version="1.0" encoding="utf-8"?>
<!-- Generator: Adobe Illustrator 17.0.0, SVG Export Plug-In . SVG Version: 6.00 Build 0)  -->
<!DOCTYPE svg PUBLIC "-//W3C//DTD SVG 1.1//EN" "http://www.w3.org/Graphics/SVG/1.1/DTD/svg11.dtd">
<svg version="1.1" id="Layer_1" xmlns="http://www.w3.org/2000/svg" xmlns:xlink="http://www.w3.org/1999/xlink" x="0px" y="0px"
	 width="1000px" height="422px" viewBox="0 28.5 1000 422" enable-background="new 0 28.5 1000 422" xml:space="preserve">
<title>006</title>
<desc>Created with Sketch.</desc>
<g id="Page-1_4_">
	<g id="_x30_06">
		<text transform="matrix(1 0 0 1 80 405)" fill="#2C2F31" font-family="'Arial-BoldMT'" font-size="20">Users</text>
		<polygon id="Blockchain" fill="#FFFFFF" stroke="#2C2F31" stroke-linecap="round" stroke-linejoin="round" points="196,195 
			862,195 862,245 196,244.865 		"/>
		<g id="Page-1" transform="translate(388.000000, 63.000000)">
			<polyline id="Stroke-1" fill="none" stroke="#2C2F31" stroke-width="2" stroke-linecap="round" stroke-linejoin="round" points="
				29.25,27.291 29.25,37.583 29.25,47.999 29.25,50.083 29.25,95.916 48,95.916 66.75,95.916 66.75,50.083 66.75,47.999 
				66.75,37.583 66.75,26.958 			"/>
			<polyline id="Stroke-3" fill="none" stroke="#2C2F31" stroke-width="2" stroke-linecap="round" stroke-linejoin="round" points="
				25.083,29.25 48,16.75 70.917,29.25 			"/>
			<polyline id="Stroke-4" fill="none" stroke="#2C2F31" stroke-width="2" stroke-linecap="round" stroke-linejoin="round" points="
				29.25,50.083 0.083,50.083 8.417,37.583 29.25,37.583 			"/>
			<polyline id="Stroke-6" fill="none" stroke="#2C2F31" stroke-width="2" stroke-linecap="round" stroke-linejoin="round" points="
				66.75,37.583 87.583,37.583 95.917,50.083 66.75,50.083 			"/>
			<polyline id="Stroke-8" fill="none" stroke="#2C2F31" stroke-width="2" stroke-linecap="round" stroke-linejoin="round" points="
				91.75,50.083 91.75,95.917 4.25,95.917 4.25,50.083 			"/>
			
				<polyline id="Stroke-10" fill="none" stroke="#2C2F31" stroke-width="2" stroke-linecap="round" stroke-linejoin="round" points="
				48,8.417 58.417,8.417 58.417,0.083 48,0.083 48,16.75 			"/>
			<path id="Stroke-12" fill="none" stroke="#2C2F31" stroke-width="2" stroke-linecap="round" stroke-linejoin="round" d="
				M58.417,43.833c0,5.754-4.663,10.417-10.417,10.417s-10.417-4.662-10.417-10.417S42.246,33.417,48,33.417
				S58.417,38.079,58.417,43.833z"/>
			
				<polyline id="Stroke-14" fill="none" stroke="#2C2F31" stroke-width="2" stroke-linecap="round" stroke-linejoin="round" points="
				51.646,47.046 48,43.833 48,39.017 			"/>
			<path id="Stroke-16" fill="none" stroke="#2C2F31" stroke-width="2" stroke-linecap="round" stroke-linejoin="round" d="
				M37.583,95.917V81.333c0-5.754,4.663-10.417,10.417-10.417s10.417,4.663,10.417,10.417v14.583"/>
			<polygon id="Stroke-18" fill="none" stroke="#2C2F31" stroke-width="2" stroke-linecap="round" stroke-linejoin="round" points="
				12.583,83.417 20.917,83.417 20.917,75.083 12.583,75.083 			"/>
			<polygon id="Stroke-20" fill="none" stroke="#2C2F31" stroke-width="2" stroke-linecap="round" stroke-linejoin="round" points="
				12.583,66.75 20.917,66.75 20.917,58.417 12.583,58.417 			"/>
			<polygon id="Stroke-21" fill="none" stroke="#2C2F31" stroke-width="2" stroke-linecap="round" stroke-linejoin="round" points="
				75.083,83.417 83.417,83.417 83.417,75.083 75.083,75.083 			"/>
			<polygon id="Stroke-22" fill="none" stroke="#2C2F31" stroke-width="2" stroke-linecap="round" stroke-linejoin="round" points="
				75.083,66.75 83.417,66.75 83.417,58.417 75.083,58.417 			"/>
		</g>
		<g id="Page-1_1_" transform="translate(577.000000, 65.000000)">
			<path id="Stroke-1_1_" fill="none" stroke="#2C2F31" stroke-width="2" stroke-linecap="round" stroke-linejoin="round" d="
				M92.827,92H0.999"/>
			
				<polyline id="Stroke-4_1_" fill="none" stroke="#2C2F31" stroke-width="2" stroke-linecap="round" stroke-linejoin="round" points="
				20.913,80 20.913,0 72.913,8 72.913,80 			"/>
			<path id="Stroke-6_1_" fill="none" stroke="#2C2F31" stroke-width="2" stroke-linecap="round" stroke-linejoin="round" d="
				M36.913,2.461v77.54"/>
			<path id="Stroke-8_1_" fill="none" stroke="#2C2F31" stroke-width="2" stroke-linecap="round" stroke-linejoin="round" d="
				M56.913,5.684V80"/>
			<path id="Stroke-11" fill="none" stroke="#2C2F31" stroke-width="2" stroke-linecap="round" stroke-linejoin="round" d="
				M20.913,64h52"/>
			<path id="Stroke-12_1_" fill="none" stroke="#2C2F31" stroke-width="2" stroke-linecap="round" stroke-linejoin="round" d="
				M20.913,48h52"/>
			<path id="Stroke-13" fill="none" stroke="#2C2F31" stroke-width="2" stroke-linecap="round" stroke-linejoin="round" d="
				M20.913,32h52"/>
			<path id="Stroke-14_1_" fill="none" stroke="#2C2F31" stroke-width="2" stroke-linecap="round" stroke-linejoin="round" d="
				M20.913,16h52"/>
			
				<polyline id="Stroke-15" fill="none" stroke="#2C2F31" stroke-width="2" stroke-linecap="round" stroke-linejoin="round" points="
				84.913,92 84.913,80 8.913,80 8.913,92 			"/>
		</g>
		<path id="Line" fill="none" stroke="#AAB1B5" stroke-linecap="round" stroke-linejoin="round" d="M225,336v-50"/>
		<path id="Line_1_" fill="none" stroke="#AAB1B5" stroke-linecap="round" stroke-linejoin="round" d="M348,314v-50"/>
		<path id="Line_2_" fill="none" stroke="#AAB1B5" stroke-linecap="round" stroke-linejoin="round" d="M467,336v-50"/>
		<g id="Page-1_2_" transform="translate(206.000000, 362.000000)">
			<path id="Stroke-1_2_" fill="none" stroke="#2C2F31" stroke-width="2" stroke-linecap="round" stroke-linejoin="round" d="
				M14.879,30.509c-0.619,1.754-1.227,1.851-1.821,2.043C5.735,34.92,0.44,40.86,0.44,49.632h36.526
				c0-8.772-5.294-14.711-12.615-17.079c-0.594-0.193-1.202-0.289-1.822-2.044"/>
			<path id="Stroke-3_1_" fill="none" stroke="#2C2F31" stroke-width="2" stroke-linecap="round" stroke-linejoin="round" d="
				M8.139,16.928c-0.832,0.268-0.926,2.275-0.21,4.484c0.695,2.146,1.896,3.677,2.727,3.52c1.896,3.73,5.472,7.002,8.048,7.002
				c2.577,0,6.153-3.272,8.048-7.002c0.832,0.157,2.032-1.375,2.727-3.52c0.716-2.209,0.622-4.217-0.21-4.484"/>
			<path id="Stroke-5" fill="none" stroke="#2C2F31" stroke-width="2" stroke-linecap="round" stroke-linejoin="round" d="
				M26.632,33.667c0,1.938-3.549,3.509-7.929,3.509s-7.929-1.571-7.929-3.509"/>
			<path id="Stroke-7" fill="none" stroke="#2C2F31" stroke-width="2" stroke-linecap="round" stroke-linejoin="round" d="
				M8.139,16.928c0,0,2.935-0.454,3.376-4.752c1.674-1.053,11.188,2.807,12.333,4.211c0,0-1.233-4.035-1.233-4.386
				c0-0.351,4.052,1.93,5.021,6.14c0,0,2.995-1.93,3.524-6.93c0.529-5-5.021-16.93-19.645-6.842
				C9.929,4.545,3.205,2.717,8.139,16.928z"/>
		</g>
		<g id="Page-1-Copy" transform="translate(327.000000, 362.000000)">
			<path id="Stroke-1_3_" fill="none" stroke="#2C2F31" stroke-width="2" stroke-linecap="round" stroke-linejoin="round" d="
				M14.879,30.509c-0.619,1.754-1.227,1.851-1.821,2.043C5.735,34.92,0.44,40.86,0.44,49.632h36.526
				c0-8.772-5.294-14.711-12.615-17.079c-0.594-0.193-1.202-0.289-1.822-2.044"/>
			<path id="Stroke-3_2_" fill="none" stroke="#2C2F31" stroke-width="2" stroke-linecap="round" stroke-linejoin="round" d="
				M8.139,16.928c-0.832,0.268-0.926,2.275-0.21,4.484c0.695,2.146,1.896,3.677,2.727,3.52c1.896,3.73,5.472,7.002,8.048,7.002
				c2.577,0,6.153-3.272,8.048-7.002c0.832,0.157,2.032-1.375,2.727-3.52c0.716-2.209,0.622-4.217-0.21-4.484"/>
			<path id="Stroke-5_1_" fill="none" stroke="#2C2F31" stroke-width="2" stroke-linecap="round" stroke-linejoin="round" d="
				M26.632,33.667c0,1.938-3.549,3.509-7.929,3.509s-7.929-1.571-7.929-3.509"/>
			<path id="Stroke-7_1_" fill="none" stroke="#2C2F31" stroke-width="2" stroke-linecap="round" stroke-linejoin="round" d="
				M8.139,16.928c0,0,2.935-0.454,3.376-4.752c1.674-1.053,11.188,2.807,12.333,4.211c0,0-1.233-4.035-1.233-4.386
				c0-0.351,4.052,1.93,5.021,6.14c0,0,2.995-1.93,3.524-6.93c0.529-5-5.021-16.93-19.645-6.842
				C9.929,4.545,3.205,2.717,8.139,16.928z"/>
		</g>
		<g id="Page-1-Copy-3" transform="translate(448.000000, 362.000000)">
			<path id="Stroke-1_4_" fill="none" stroke="#2C2F31" stroke-width="2" stroke-linecap="round" stroke-linejoin="round" d="
				M14.879,30.509c-0.619,1.754-1.227,1.851-1.821,2.043C5.735,34.92,0.44,40.86,0.44,49.632h36.526
				c0-8.772-5.294-14.711-12.615-17.079c-0.594-0.193-1.202-0.289-1.822-2.044"/>
			<path id="Stroke-3_3_" fill="none" stroke="#2C2F31" stroke-width="2" stroke-linecap="round" stroke-linejoin="round" d="
				M8.139,16.928c-0.832,0.268-0.926,2.275-0.21,4.484c0.695,2.146,1.896,3.677,2.727,3.52c1.896,3.73,5.472,7.002,8.048,7.002
				c2.577,0,6.153-3.272,8.048-7.002c0.832,0.157,2.032-1.375,2.727-3.52c0.716-2.209,0.622-4.217-0.21-4.484"/>
			<path id="Stroke-5_2_" fill="none" stroke="#2C2F31" stroke-width="2" stroke-linecap="round" stroke-linejoin="round" d="
				M26.632,33.667c0,1.938-3.549,3.509-7.929,3.509s-7.929-1.571-7.929-3.509"/>
			<path id="Stroke-7_2_" fill="none" stroke="#2C2F31" stroke-width="2" stroke-linecap="round" stroke-linejoin="round" d="
				M8.139,16.928c0,0,2.935-0.454,3.376-4.752c1.674-1.053,11.188,2.807,12.333,4.211c0,0-1.233-4.035-1.233-4.386
				c0-0.351,4.052,1.93,5.021,6.14c0,0,2.995-1.93,3.524-6.93c0.529-5-5.021-16.93-19.645-6.842
				C9.929,4.545,3.205,2.717,8.139,16.928z"/>
		</g>
		<g id="Page-1-Copy-4" transform="translate(570.000000, 362.000000)">
			<path id="Stroke-1_5_" fill="none" stroke="#2C2F31" stroke-width="2" stroke-linecap="round" stroke-linejoin="round" d="
				M14.879,30.509c-0.619,1.754-1.227,1.851-1.821,2.043C5.735,34.92,0.44,40.86,0.44,49.632h36.526
				c0-8.772-5.294-14.711-12.615-17.079c-0.594-0.193-1.202-0.289-1.822-2.044"/>
			<path id="Stroke-3_4_" fill="none" stroke="#2C2F31" stroke-width="2" stroke-linecap="round" stroke-linejoin="round" d="
				M8.139,16.928c-0.832,0.268-0.926,2.275-0.21,4.484c0.695,2.146,1.896,3.677,2.727,3.52c1.896,3.73,5.472,7.002,8.048,7.002
				c2.577,0,6.153-3.272,8.048-7.002c0.832,0.157,2.032-1.375,2.727-3.52c0.716-2.209,0.622-4.217-0.21-4.484"/>
			<path id="Stroke-5_3_" fill="none" stroke="#2C2F31" stroke-width="2" stroke-linecap="round" stroke-linejoin="round" d="
				M26.632,33.667c0,1.938-3.549,3.509-7.929,3.509s-7.929-1.571-7.929-3.509"/>
			<path id="Stroke-7_3_" fill="none" stroke="#2C2F31" stroke-width="2" stroke-linecap="round" stroke-linejoin="round" d="
				M8.139,16.928c0,0,2.935-0.454,3.376-4.752c1.674-1.053,11.188,2.807,12.333,4.211c0,0-1.233-4.035-1.233-4.386
				c0-0.351,4.052,1.93,5.021,6.14c0,0,2.995-1.93,3.524-6.93c0.529-5-5.021-16.93-19.645-6.842
				C9.929,4.545,3.205,2.717,8.139,16.928z"/>
		</g>
		<g id="Page-1-Copy-5" transform="translate(691.000000, 362.000000)">
			<path id="Stroke-1_6_" fill="none" stroke="#2C2F31" stroke-width="2" stroke-linecap="round" stroke-linejoin="round" d="
				M14.879,30.509c-0.619,1.754-1.227,1.851-1.821,2.043C5.735,34.92,0.44,40.86,0.44,49.632h36.526
				c0-8.772-5.294-14.711-12.615-17.079c-0.594-0.193-1.202-0.289-1.822-2.044"/>
			<path id="Stroke-3_5_" fill="none" stroke="#2C2F31" stroke-width="2" stroke-linecap="round" stroke-linejoin="round" d="
				M8.139,16.928c-0.832,0.268-0.926,2.275-0.21,4.484c0.695,2.146,1.896,3.677,2.727,3.52c1.896,3.73,5.472,7.002,8.048,7.002
				c2.577,0,6.153-3.272,8.048-7.002c0.832,0.157,2.032-1.375,2.727-3.52c0.716-2.209,0.622-4.217-0.21-4.484"/>
			<path id="Stroke-5_4_" fill="none" stroke="#2C2F31" stroke-width="2" stroke-linecap="round" stroke-linejoin="round" d="
				M26.632,33.667c0,1.938-3.549,3.509-7.929,3.509s-7.929-1.571-7.929-3.509"/>
			<path id="Stroke-7_4_" fill="none" stroke="#2C2F31" stroke-width="2" stroke-linecap="round" stroke-linejoin="round" d="
				M8.139,16.928c0,0,2.935-0.454,3.376-4.752c1.674-1.053,11.188,2.807,12.333,4.211c0,0-1.233-4.035-1.233-4.386
				c0-0.351,4.052,1.93,5.021,6.14c0,0,2.995-1.93,3.524-6.93c0.529-5-5.021-16.93-19.645-6.842
				C9.929,4.545,3.205,2.717,8.139,16.928z"/>
		</g>
		<g id="Page-1-Copy-2" transform="translate(812.000000, 362.000000)">
			<path id="Stroke-1_7_" fill="none" stroke="#2C2F31" stroke-width="2" stroke-linecap="round" stroke-linejoin="round" d="
				M14.879,30.509c-0.619,1.754-1.227,1.851-1.821,2.043C5.735,34.92,0.44,40.86,0.44,49.632h36.526
				c0-8.772-5.294-14.711-12.615-17.079c-0.594-0.193-1.202-0.289-1.822-2.044"/>
			<path id="Stroke-3_6_" fill="none" stroke="#2C2F31" stroke-width="2" stroke-linecap="round" stroke-linejoin="round" d="
				M8.139,16.928c-0.832,0.268-0.926,2.275-0.21,4.484c0.695,2.146,1.896,3.677,2.727,3.52c1.896,3.73,5.472,7.002,8.048,7.002
				c2.577,0,6.153-3.272,8.048-7.002c0.832,0.157,2.032-1.375,2.727-3.52c0.716-2.209,0.622-4.217-0.21-4.484"/>
			<path id="Stroke-5_5_" fill="none" stroke="#2C2F31" stroke-width="2" stroke-linecap="round" stroke-linejoin="round" d="
				M26.632,33.667c0,1.938-3.549,3.509-7.929,3.509s-7.929-1.571-7.929-3.509"/>
			<path id="Stroke-7_5_" fill="none" stroke="#2C2F31" stroke-width="2" stroke-linecap="round" stroke-linejoin="round" d="
				M8.139,16.928c0,0,2.935-0.454,3.376-4.752c1.674-1.053,11.188,2.807,12.333,4.211c0,0-1.233-4.035-1.233-4.386
				c0-0.351,4.052,1.93,5.021,6.14c0,0,2.995-1.93,3.524-6.93c0.529-5-5.021-16.93-19.645-6.842
				C9.929,4.545,3.205,2.717,8.139,16.928z"/>
		</g>
		<path id="Line_3_" fill="none" stroke="#AAB1B5" stroke-linecap="round" stroke-linejoin="round" d="M588,336v-50"/>
		<path id="Line_4_" fill="none" stroke="#AAB1B5" stroke-linecap="round" stroke-linejoin="round" d="M711,314v-50"/>
		<path id="Line_5_" fill="none" stroke="#AAB1B5" stroke-linecap="round" stroke-linejoin="round" d="M832,314v-50"/>
		<text transform="matrix(1 0 0 1 80 122)" fill="#2C2F31" font-family="'Arial-BoldMT'" font-size="20">Dapps</text>
		
			<g id="Arrow-head" transform="translate(225.000000, 331.000000) scale(1, -1) rotate(-180.000000) translate(-225.000000, -331.000000) translate(215.000000, 325.000000)">
			<path id="Line-4" fill="none" stroke="#AAB1B5" stroke-linecap="round" stroke-linejoin="round" d="M10,11.25L19.857,0"/>
			<path id="Line-4_1_" fill="none" stroke="#AAB1B5" stroke-linecap="round" stroke-linejoin="round" d="M9.857,11.25L0,0"/>
		</g>
		
			<g id="Arrow-head_1_" transform="translate(467.000000, 331.000000) scale(1, -1) rotate(-180.000000) translate(-467.000000, -331.000000) translate(457.000000, 325.000000)">
			<path id="Line-4_2_" fill="none" stroke="#AAB1B5" stroke-linecap="round" stroke-linejoin="round" d="M10,11.25L19.857,0"/>
			<path id="Line-4_3_" fill="none" stroke="#AAB1B5" stroke-linecap="round" stroke-linejoin="round" d="M9.857,11.25L0,0"/>
		</g>
		
			<g id="Arrow-head_2_" transform="translate(588.000000, 331.000000) scale(1, -1) rotate(-180.000000) translate(-588.000000, -331.000000) translate(578.000000, 325.000000)">
			<path id="Line-4_4_" fill="none" stroke="#AAB1B5" stroke-linecap="round" stroke-linejoin="round" d="M10,11.25L19.857,0"/>
			<path id="Line-4_5_" fill="none" stroke="#AAB1B5" stroke-linecap="round" stroke-linejoin="round" d="M9.857,11.25L0,0"/>
		</g>
		
			<g id="Arrow-head_3_" transform="translate(832.000000, 269.000000) scale(1, -1) translate(-832.000000, -269.000000) translate(822.000000, 263.000000)">
			<path id="Line-4_6_" fill="none" stroke="#AAB1B5" stroke-linecap="round" stroke-linejoin="round" d="M10,11.25L19.857,0"/>
			<path id="Line-4_7_" fill="none" stroke="#AAB1B5" stroke-linecap="round" stroke-linejoin="round" d="M9.857,11.25L0,0"/>
		</g>
		
			<g id="Arrow-head_4_" transform="translate(711.000000, 269.000000) scale(1, -1) translate(-711.000000, -269.000000) translate(701.000000, 263.000000)">
			<path id="Line-4_8_" fill="none" stroke="#AAB1B5" stroke-linecap="round" stroke-linejoin="round" d="M10,11.25L19.857,0"/>
			<path id="Line-4_9_" fill="none" stroke="#AAB1B5" stroke-linecap="round" stroke-linejoin="round" d="M9.857,11.25L0,0"/>
		</g>
		
			<g id="Arrow-head_5_" transform="translate(348.000000, 269.000000) scale(1, -1) translate(-348.000000, -269.000000) translate(338.000000, 263.000000)">
			<path id="Line-4_10_" fill="none" stroke="#AAB1B5" stroke-linecap="round" stroke-linejoin="round" d="M10,11.25L19.857,0"/>
			<path id="Line-4_11_" fill="none" stroke="#AAB1B5" stroke-linecap="round" stroke-linejoin="round" d="M9.857,11.25L0,0"/>
		</g>
		<g id="Group" transform="translate(196.000000, 59.000000)">
			<g id="Mask">
				<circle id="path-1_1_" fill="#F7F7F7" cx="50" cy="50" r="50"/>
			</g>
			<defs>
				<filter id="Adobe_OpacityMaskFilter" filterUnits="userSpaceOnUse" x="15.196" y="6.263" width="69.857" height="102.862">
					<feColorMatrix  type="matrix" values="1 0 0 0 0  0 1 0 0 0  0 0 1 0 0  0 0 0 1 0"/>
				</filter>
			</defs>
			<mask maskUnits="userSpaceOnUse" x="15.196" y="6.263" width="69.857" height="102.862" id="mask-2">
				<g filter="url(#Adobe_OpacityMaskFilter)">
					<circle id="path-1" fill="#FFFFFF" cx="50" cy="50" r="50"/>
				</g>
			</mask>
			<g mask="url(#mask-2)">
				<g transform="translate(16.071429, 7.142857)">
					<path id="Shape" fill="none" stroke="#2C2F31" stroke-width="2" stroke-linecap="round" stroke-linejoin="round" d="
						M45.848,55.357c-1.321,2.973,0.634,5.357,2.42,6.562c-1.875,4.009-7.964,7.437-14.214,7.437s-12.92-3.455-14.214-7.437
						c1.786-1.036,3.768-3.571,2.393-6.562H45.848z"/>
					<path id="Shape_1_" fill="#FFFFFF" stroke="#2C2F31" stroke-width="2" stroke-linecap="round" stroke-linejoin="round" d="
						M36,60.795h-3.857c-3.35-0.004-6.561-1.336-8.929-3.705l-2.946-2.884c-4.323-4.324-6.751-10.189-6.75-16.304V22.723
						c0-20.366,41.071-20.366,41.071,0v15.179c0.001,6.115-2.427,11.979-6.75,16.304l-2.893,2.893
						C42.573,59.468,39.354,60.798,36,60.795z"/>
					<path id="Shape_2_" fill="none" stroke="#2C2F31" stroke-width="2" stroke-linecap="round" stroke-linejoin="round" d="
						M13.518,40.009v-8.036c0-2.679-1.991-3.571-3.214-2.679c-1.955,1.366,0.536,7.143,0.536,7.143
						C9.393,37.366,11.027,40.661,13.518,40.009z"/>
					<path id="Shape_3_" fill="none" stroke="#2C2F31" stroke-width="2" stroke-linecap="round" stroke-linejoin="round" d="
						M54.589,39.688v-8.036c0-2.679,1.982-3.571,3.214-2.679c1.955,1.366-0.536,7.143-0.536,7.143
						C58.723,37.045,57.08,40.348,54.589,39.688z"/>
					<path id="Shape_4_" fill="#FFFFFF" stroke="#2C2F31" stroke-width="2" stroke-linecap="round" stroke-linejoin="round" d="
						M44.536,1.723c6.884,2.92,16.071,11.071,12.304,23.098c-0.554,1.786-1.357,1.161-2.25,1c0,0-0.143-7.018-3.571-6.295
						c-8.161,1.714-12.179-4.848-22.089,2.348c-1.375-2.259-0.429-7.393,3.062-10.089c-8.17,0-18.473,5.009-18.473,11.027
						c0,0-2.732-2.018-2.955-4.009C9.536,9.821,14.147,5.249,22.201,1.821C28.76-0.97,40.866,0.17,44.536,1.723z"/>
					
						<circle id="Oval" fill="none" stroke="#2C2F31" stroke-width="2" stroke-linecap="round" stroke-linejoin="round" cx="44.321" cy="34.455" r="1.339"/>
					
						<circle id="Oval_1_" fill="none" stroke="#2C2F31" stroke-width="2" stroke-linecap="round" stroke-linejoin="round" cx="23.804" cy="34.455" r="1.339"/>
					<path id="Shape_5_" fill="#E8F7FC" stroke="#2C2F31" stroke-width="2" stroke-linecap="round" stroke-linejoin="round" d="
						M54.241,64.286c0,0-6.027-2.393-5.795-2.259c-1.893,4.045-8.268,7.527-14.393,7.527s-13-3.482-14.411-7.482l-5.545,2.304
						C5.673,67.81,0.154,75.991,0.125,85.089v15.893h67.857V84.911C67.959,75.9,62.547,67.778,54.241,64.286z"/>
					<path id="Line_6_" fill="none" stroke="#2C2F31" stroke-width="2" stroke-linecap="round" stroke-linejoin="round" d="
						M15.625,100.446V84.35"/>
					<path id="Line_7_" fill="none" stroke="#2C2F31" stroke-width="2" stroke-linecap="round" stroke-linejoin="round" d="
						M52.232,100.446V84.35"/>
					<path id="Stroke-9" fill="none" stroke="#2C2F31" stroke-width="2" stroke-linecap="round" stroke-linejoin="round" d="
						M39.626,47.321c0,0-2.476,2.764-5.527,2.764c-3.051,0-5.527-2.764-5.527-2.764"/>
				</g>
			</g>
		</g>
		<g id="Group_2_" transform="translate(762.000000, 59.000000)">
			<g id="Mask_1_">
				<circle id="path-3_1_" fill="#F7F7F7" cx="50" cy="50" r="50"/>
			</g>
			<defs>
				<filter id="Adobe_OpacityMaskFilter_1_" filterUnits="userSpaceOnUse" x="15.196" y="6.263" width="69.857" height="102.862">
					<feColorMatrix  type="matrix" values="1 0 0 0 0  0 1 0 0 0  0 0 1 0 0  0 0 0 1 0"/>
				</filter>
			</defs>
			<mask maskUnits="userSpaceOnUse" x="15.196" y="6.263" width="69.857" height="102.862" id="mask-4">
				<g filter="url(#Adobe_OpacityMaskFilter_1_)">
					<circle id="path-3" fill="#FFFFFF" cx="50" cy="50" r="50"/>
				</g>
			</mask>
			<g mask="url(#mask-4)">
				<g transform="translate(16.071429, 7.142857)">
					<path id="Shape_6_" fill="none" stroke="#2C2F31" stroke-width="2" stroke-linecap="round" stroke-linejoin="round" d="
						M45.848,55.357c-1.321,2.973,0.634,5.357,2.42,6.562c-1.875,4.009-7.964,7.437-14.214,7.437s-12.92-3.455-14.214-7.437
						c1.786-1.036,3.768-3.571,2.393-6.562H45.848z"/>
					<path id="Shape_7_" fill="#FFFFFF" stroke="#2C2F31" stroke-width="2" stroke-linecap="round" stroke-linejoin="round" d="
						M36,60.795h-3.857c-3.35-0.004-6.561-1.336-8.929-3.705l-2.946-2.884c-4.323-4.324-6.751-10.189-6.75-16.304V22.723
						c0-20.366,41.071-20.366,41.071,0v15.179c0.001,6.115-2.427,11.979-6.75,16.304l-2.893,2.893
						C42.573,59.468,39.354,60.798,36,60.795z"/>
					<path id="Shape_8_" fill="none" stroke="#2C2F31" stroke-width="2" stroke-linecap="round" stroke-linejoin="round" d="
						M13.518,40.009v-8.036c0-2.679-1.991-3.571-3.214-2.679c-1.955,1.366,0.536,7.143,0.536,7.143
						C9.393,37.366,11.027,40.661,13.518,40.009z"/>
					<path id="Shape_9_" fill="none" stroke="#2C2F31" stroke-width="2" stroke-linecap="round" stroke-linejoin="round" d="
						M54.589,39.688v-8.036c0-2.679,1.982-3.571,3.214-2.679c1.955,1.366-0.536,7.143-0.536,7.143
						C58.723,37.045,57.08,40.348,54.589,39.688z"/>
					<path id="Shape_10_" fill="#FFFFFF" stroke="#2C2F31" stroke-width="2" stroke-linecap="round" stroke-linejoin="round" d="
						M44.536,1.723c6.884,2.92,16.071,11.071,12.304,23.098c-0.554,1.786-1.357,1.161-2.25,1c0,0-0.143-7.018-3.571-6.295
						c-8.161,1.714-12.179-4.848-22.089,2.348c-1.375-2.259-0.429-7.393,3.062-10.089c-8.17,0-18.473,5.009-18.473,11.027
						c0,0-2.732-2.018-2.955-4.009C9.536,9.821,14.147,5.249,22.201,1.821C28.76-0.97,40.866,0.17,44.536,1.723z"/>
					<path id="Shape_11_" fill="#FEE4E2" stroke="#2C2F31" stroke-width="2" stroke-linecap="round" stroke-linejoin="round" d="
						M54.241,64.286c0,0-6.027-2.393-5.795-2.259c-1.893,4.045-8.268,7.527-14.393,7.527s-13-3.482-14.411-7.482l-5.545,2.304
						C5.673,67.81,0.154,75.991,0.125,85.089v15.893h67.857V84.911C67.959,75.9,62.547,67.778,54.241,64.286z"/>
					<path id="Line_8_" fill="none" stroke="#2C2F31" stroke-width="2" stroke-linecap="round" stroke-linejoin="round" d="
						M15.625,100.446V84.35"/>
					<path id="Line_9_" fill="none" stroke="#2C2F31" stroke-width="2" stroke-linecap="round" stroke-linejoin="round" d="
						M52.232,100.446V84.35"/>
					<g id="Group_1_" transform="translate(25.467033, 32.087912)">
						<path id="Line_10_" fill="none" stroke="#2C2F31" stroke-width="2" stroke-linecap="round" stroke-linejoin="round" d="
							M0.769,0.165v4.336"/>
						<path id="Line-Copy" fill="none" stroke="#2C2F31" stroke-width="2" stroke-linecap="round" stroke-linejoin="round" d="
							M16.923,0.165v4.336"/>
						<path id="Line-2" fill="none" stroke="#2C2F31" stroke-width="2" stroke-linecap="round" stroke-linejoin="round" d="
							M3.462,15.769l11.154-2.692"/>
					</g>
				</g>
			</g>
		</g>
		<g id="Page-1_3_" transform="translate(480.000000, 206.000000)">
			<path id="Fill-1" fill="#2C2F31" d="M63.752,13.603h7.882c0-1.303,0.009-2.549-0.003-3.796c-0.01-0.964-0.424-1.412-1.375-1.425
				c-1.655-0.023-3.31-0.023-4.965,0c-0.977,0.014-1.483,0.464-1.526,1.434C63.711,11.059,63.752,12.307,63.752,13.603z
				 M63.757,16.373c0,1.365-0.036,2.586,0.011,3.803c0.038,1.007,0.295,1.232,1.307,1.238c2.696,0.015,5.393,0.006,8.089,0.006
				h0.964v2.838c0,0-0.343,0-0.526,0c-3.146,0.004-6.292,0.022-9.437-0.008c-1.43-0.013-2.68-0.463-3.196-1.982
				c-0.197-0.578-0.28-1.223-0.285-1.838c-0.026-3.558-0.02-7.117-0.004-10.676c0.002-0.537,0.07-1.082,0.178-1.608
				c0.297-1.454,1.413-2.47,2.901-2.501c2.582-0.054,5.167-0.064,7.749-0.001c1.764,0.043,3.05,1.28,3.112,3.061
				c0.089,2.526,0.023,5.058,0.023,7.669H63.757z"/>
			<polygon id="Fill-3" fill="#2C2F31" points="86.8,5.6 86.8,8.33 81.644,8.33 81.644,24.267 78.4,24.267 78.4,5.6 			"/>
			<path id="Fill-5" fill="#2C2F31" d="M57.544,5.648v5.278h-3.016v-2.45c-1.845,0-3.578-0.088-5.297,0.03
				c-1.221,0.084-1.983,1.015-2.012,2.14c-0.093,3.567-0.034,7.138-0.034,10.797h10.682v2.824h-13.99c-0.022-0.21,0-0.427,0-0.644
				c-0.004-4.065-0.013-8.13,0.003-12.195c0.006-1.45,0.256-2.853,1.203-4.031c0.856-1.065,2.051-1.701,3.368-1.749
				C51.458,5.54,54.473,5.648,57.544,5.648"/>
			<path id="Fill-7" fill="#2C2F31" d="M98.916,5.66v2.794h-4.749c-0.016,0.3-0.035,0.491-0.035,0.682
				c-0.002,3.636-0.004,7.272,0.001,10.909c0.002,1.157,0.363,1.529,1.493,1.542c1.086,0.012,2.172,0.002,3.307,0.002v2.618
				c-1.701,0.029-3.459,0.138-5.153-0.04c-1.621-0.17-2.531-1.33-2.651-3.01c-0.093-1.301-0.102-2.609-0.11-3.914
				c-0.016-2.585-0.004-5.17-0.004-7.755V8.492h-2.349V5.711H91V0h3.091v5.66H98.916z"/>
			<path id="Fill-10" fill="#3D8CFF" d="M21.608,3.733h-2.171l-10.7,10.7c-0.187,0.187-0.187,0.491,0,0.678l1.12,1.12
				c0.187,0.187,0.187,0.491,0,0.678l-2.053,2.053c-0.187,0.187-0.49,0.187-0.678,0l-3.894-3.894
				c-0.188-0.188-0.187-0.494,0.003-0.681L14.081,3.733H8.416l1.301,1.301c0.189,0.189,0.187,0.496-0.005,0.683L7.623,7.746
				C7.436,7.929,7.136,7.926,6.95,7.741L2.943,3.733h-2.15C0.356,3.733,0,4.09,0,4.526v20.815c0,0.436,0.356,0.792,0.792,0.792
				h2.043l10.828-10.828c0.187-0.187,0.187-0.491,0-0.678l-1.12-1.12c-0.187-0.187-0.187-0.491,0-0.678l2.053-2.053
				c0.187-0.187,0.491-0.187,0.678,0l3.893,3.894c0.189,0.189,0.187,0.494-0.003,0.681L8.189,26.133h5.923l-1.429-1.429
				c-0.189-0.189-0.187-0.497,0.005-0.683l2.089-2.029c0.188-0.183,0.488-0.18,0.673,0.005l4.121,4.12l2.038,0.015
				c0.436,0,0.792-0.356,0.792-0.792V4.526C22.4,4.09,22.043,3.733,21.608,3.733"/>
			<g id="Group-14" transform="translate(14.000000, 26.133333)">
				<g id="Clip-13">
				</g>
				<defs>
					<filter id="Adobe_OpacityMaskFilter_2_" filterUnits="userSpaceOnUse" x="0.244" y="0.393" width="1.359" height="0.005">
						<feColorMatrix  type="matrix" values="1 0 0 0 0  0 1 0 0 0  0 0 1 0 0  0 0 0 1 0"/>
					</filter>
				</defs>
				<mask maskUnits="userSpaceOnUse" x="0.244" y="0.393" width="1.359" height="0.005" id="mask-6">
					<g filter="url(#Adobe_OpacityMaskFilter_2_)">
						<polygon id="path-5" fill="#FFFFFF" points="0.244,0.393 1.602,0.393 1.602,0.398 0.244,0.398 						"/>
					</g>
				</mask>
				<polygon id="Fill-12" mask="url(#mask-6)" fill="#FEFEFE" points="0.248,0.398 1.602,0.393 0.244,0.393 				"/>
			</g>
			<g id="Group-17" transform="translate(2.800000, 26.133333)">
				<g id="Clip-16">
				</g>
				<defs>
					<filter id="Adobe_OpacityMaskFilter_3_" filterUnits="userSpaceOnUse" x="0.056" y="0.393" width="5.308" height="0.005">
						<feColorMatrix  type="matrix" values="1 0 0 0 0  0 1 0 0 0  0 0 1 0 0  0 0 0 1 0"/>
					</filter>
				</defs>
				<mask maskUnits="userSpaceOnUse" x="0.056" y="0.393" width="5.308" height="0.005" id="mask-8">
					<g filter="url(#Adobe_OpacityMaskFilter_3_)">
						<polygon id="path-7" fill="#FFFFFF" points="0.056,0.393 5.364,0.393 5.364,0.398 0.056,0.398 						"/>
					</g>
				</mask>
				<polygon id="Fill-15" mask="url(#mask-8)" fill="#FEFEFE" points="0.056,0.398 5.359,0.398 5.364,0.393 0.062,0.393 				"/>
			</g>
			<path id="Combined-Shape" fill="#2C2F31" d="M40.309,24.267c-1.691,0-1.956-0.375-3.291-2.412
				c-0.977-1.491-1.954-2.978-2.934-4.464l-0.457,0.747c-0.422,0.687-0.842,1.373-1.26,2.061l-0.466,0.765
				c-0.508,0.832-1.034,1.692-1.523,2.553c-0.235,0.414-0.549,0.789-1.258,0.736c-0.529-0.04-1.054-0.032-1.663-0.023
				c-0.274,0.004-0.56,0.008-0.864,0.008c-0.069,0-0.133-0.039-0.167-0.101c-0.034-0.062-0.031-0.138,0.006-0.198l5.775-9.282
				l-0.832-1.263c-0.916-1.392-1.863-2.83-2.818-4.216c-0.141-0.203-0.507-0.348-0.79-0.395c-0.307-0.052-0.63-0.041-0.973-0.029
				c-0.155,0.006-0.312,0.011-0.471,0.011c-0.105,0-0.19-0.087-0.19-0.194V5.858c0-0.107,0.085-0.194,0.19-0.194
				c0.297,0,0.592-0.002,0.885-0.004c0.847-0.006,1.648-0.012,2.465,0.031c0.3,0.016,0.584,0.359,0.77,0.644
				C31.378,7.77,32.3,9.213,33.251,10.7l0.744,1.164c0.256-0.409,0.513-0.813,0.769-1.212c0.717-1.122,1.395-2.181,1.985-3.311
				c0.683-1.309,1.494-1.811,2.808-1.733c0.05,0.002,0.548,0.002,0.948,0l0.617-0.001c0.068,0,0.13,0.037,0.164,0.096
				c0.034,0.059,0.035,0.133,0.002,0.193c-0.141,0.256-0.285,0.477-0.4,0.654c-0.054,0.083-0.103,0.158-0.146,0.228l-0.853,1.386
				c-1.221,1.984-2.484,4.036-3.745,6.043c-0.203,0.323-0.201,0.489,0.011,0.805c1.411,2.108,2.825,4.263,4.194,6.348l1.161,1.769
				c0.099,0.151,0.194,0.305,0.298,0.475l0.162,0.265c0.032,0.051,0.039,0.115,0.018,0.172c-0.021,0.057-0.066,0.101-0.123,0.118
				l-0.123,0.039c-0.05,0.016-0.079,0.026-0.121,0.028C41.101,24.249,40.672,24.267,40.309,24.267z"/>
		</g>
	</g>
</g>
</svg>
