<?xml version="1.0" encoding="utf-8"?>
<!-- Generator: Adobe Illustrator 17.0.0, SVG Export Plug-In . SVG Version: 6.00 Build 0)  -->
<!DOCTYPE svg PUBLIC "-//W3C//DTD SVG 1.1//EN" "http://www.w3.org/Graphics/SVG/1.1/DTD/svg11.dtd">
<svg version="1.1" id="Layer_1" xmlns="http://www.w3.org/2000/svg" xmlns:xlink="http://www.w3.org/1999/xlink" x="0px" y="0px"
	 width="831px" height="886px" viewBox="0 0 831 886" enable-background="new 0 0 831 886" xml:space="preserve">
<title>1</title>
<desc>Created with Sketch.</desc>
<g id="Page-1_1_">
	<g id="_x31_" transform="translate(1.000000, -4.000000)">
		<path id="Line" fill="none" stroke="#AAB1B5" stroke-linecap="round" stroke-linejoin="round" d="M342,189h54"/>
		<path id="Line_1_" fill="none" stroke="#AAB1B5" stroke-linecap="round" stroke-linejoin="round" d="M349,365h31"/>
		
			<polygon id="Line_2_" fill="#FFFFFF" stroke="#AAB1B5" stroke-linecap="round" stroke-linejoin="round" stroke-dasharray="6,12" points="
			409,129.003 409,589 691,589 691,124 410,124 		"/>
		
			<polygon id="Line-Copy-5" fill="#FFFFFF" stroke="#AAB1B5" stroke-linecap="round" stroke-linejoin="round" stroke-dasharray="6,12" points="
			0,266.508 0,589 410,589 410,263 1.454,263 		"/>
		<path id="Line_3_" fill="none" stroke="#AAB1B5" stroke-linecap="round" stroke-linejoin="round" d="M794,460V226"/>
		<path id="Line_4_" fill="none" stroke="#AAB1B5" stroke-linecap="round" stroke-linejoin="round" d="M702,190h54"/>
		<path id="Line_5_" fill="none" stroke="#AAB1B5" stroke-linecap="round" stroke-linejoin="round" d="M550,294v-60"/>
		<path id="Line_6_" fill="none" stroke="#AAB1B5" stroke-linecap="round" stroke-linejoin="round" d="M140,190h118"/>
		<path id="Line_7_" fill="none" stroke="#AAB1B5" stroke-linecap="round" stroke-linejoin="round" d="M550,144V99.677"/>
		<path id="Line_8_" fill="none" stroke="#AAB1B5" stroke-linecap="round" stroke-linejoin="round" d="M550.5,405v-60"/>
		<path id="Line_9_" fill="none" stroke="#AAB1B5" stroke-linecap="round" stroke-linejoin="round" d="M328,517v-90"/>
		<path id="Line_10_" fill="none" stroke="#AAB1B5" stroke-linecap="round" stroke-linejoin="round" d="M288,487v-60"/>
		<path id="Line_11_" fill="none" stroke="#AAB1B5" stroke-linecap="round" stroke-linejoin="round" d="M138,258.09V200"/>
		<path id="Line_12_" fill="none" stroke="#AAB1B5" stroke-linecap="round" stroke-linejoin="round" d="M247,457v-30"/>
		<path id="Line_13_" fill="none" stroke="#AAB1B5" stroke-linecap="round" stroke-linejoin="round" d="M489,405v-30"/>
		<path id="Line_14_" fill="none" stroke="#AAB1B5" stroke-linecap="round" stroke-linejoin="round" d="M609,405v-30"/>
		<path id="Line_15_" fill="none" stroke="#AAB1B5" stroke-linecap="round" stroke-linejoin="round" d="M489,375h120"/>
		<path id="Line_16_" fill="none" stroke="#AAB1B5" stroke-linecap="round" stroke-linejoin="round" d="M634,460h160"/>
		<path id="Line_17_" fill="none" stroke="#AAB1B5" stroke-linecap="round" stroke-linejoin="round" d="M137.5,177v-60"/>
		<path id="Line_18_" fill="none" stroke="#AAB1B5" stroke-linecap="round" stroke-linejoin="round" d="M48,147v-30"/>
		<path id="Line_19_" fill="none" stroke="#AAB1B5" stroke-linecap="round" stroke-linejoin="round" d="M228,147v-30"/>
		<path id="Line_20_" fill="none" stroke="#AAB1B5" stroke-linecap="round" stroke-linejoin="round" d="M48,147h180.085"/>
		<path id="Line_21_" fill="none" stroke="#AAB1B5" stroke-linecap="round" stroke-linejoin="round" d="M468,670v-40"/>
		<path id="Line_22_" fill="none" stroke="#AAB1B5" stroke-linecap="round" stroke-linejoin="round" d="M723,669v-39"/>
		<polyline id="Line_23_" fill="none" stroke="#AAB1B5" stroke-linecap="round" stroke-linejoin="round" points="468,630 795,630 
			795,483 		"/>
		<path id="Line_24_" fill="none" stroke="#AAB1B5" stroke-linecap="round" stroke-linejoin="round" d="M185,365h31"/>
		<path id="Line_25_" fill="none" stroke="#AAB1B5" stroke-linecap="round" stroke-linejoin="round" d="M349,365h31"/>
		<path id="Line_26_" fill="none" stroke="#AAB1B5" stroke-linecap="round" stroke-linejoin="round" d="M723,776v-60"/>
		<path id="Line-Copy" fill="none" stroke="#AAB1B5" stroke-linecap="round" stroke-linejoin="round" d="M468,776v-60"/>
		<path id="Line_27_" fill="none" stroke="#AAB1B5" stroke-linecap="round" stroke-linejoin="round" d="M643,776v-30"/>
		<path id="Line-Copy-2" fill="none" stroke="#AAB1B5" stroke-linecap="round" stroke-linejoin="round" d="M388,776v-30"/>
		<path id="Line_28_" fill="none" stroke="#AAB1B5" stroke-linecap="round" stroke-linejoin="round" d="M803,776v-30"/>
		<path id="Line-Copy-3" fill="none" stroke="#AAB1B5" stroke-linecap="round" stroke-linejoin="round" d="M548,776v-30"/>
		<path id="Line_29_" fill="none" stroke="#AAB1B5" stroke-linecap="round" stroke-linejoin="round" d="M643,746h160.457"/>
		<path id="Line-Copy-4" fill="none" stroke="#AAB1B5" stroke-linecap="round" stroke-linejoin="round" d="M388,746h160.457"/>
		<g id="Page-1" transform="translate(18.000000, 55.000000)">
			<polyline id="Stroke-1" fill="none" stroke="#2C2F31" stroke-width="2" stroke-linecap="round" stroke-linejoin="round" points="
				12.188,11.371 12.188,15.659 12.188,20 12.188,20.868 12.188,39.965 20,39.965 27.812,39.965 27.812,20.868 27.812,20 
				27.812,15.659 27.812,11.232 			"/>
			<polyline id="Stroke-3" fill="none" stroke="#2C2F31" stroke-width="2" stroke-linecap="round" stroke-linejoin="round" points="
				10.451,12.188 20,6.979 29.549,12.188 			"/>
			<polyline id="Stroke-4" fill="none" stroke="#2C2F31" stroke-width="2" stroke-linecap="round" stroke-linejoin="round" points="
				12.188,20.868 0.035,20.868 3.507,15.66 12.188,15.66 			"/>
			<polyline id="Stroke-6" fill="none" stroke="#2C2F31" stroke-width="2" stroke-linecap="round" stroke-linejoin="round" points="
				27.812,15.66 36.493,15.66 39.965,20.868 27.812,20.868 			"/>
			<polyline id="Stroke-8" fill="none" stroke="#2C2F31" stroke-width="2" stroke-linecap="round" stroke-linejoin="round" points="
				38.229,20.868 38.229,39.965 1.771,39.965 1.771,20.868 			"/>
			
				<polyline id="Stroke-10" fill="none" stroke="#2C2F31" stroke-width="2" stroke-linecap="round" stroke-linejoin="round" points="
				20,3.507 24.34,3.507 24.34,0.035 20,0.035 20,6.979 			"/>
			<path id="Stroke-12" fill="none" stroke="#2C2F31" stroke-width="2" stroke-linecap="round" stroke-linejoin="round" d="
				M24.34,18.264c0,2.398-1.943,4.34-4.34,4.34s-4.34-1.943-4.34-4.34s1.943-4.34,4.34-4.34S24.34,15.866,24.34,18.264z"/>
			
				<polyline id="Stroke-14" fill="none" stroke="#2C2F31" stroke-width="2" stroke-linecap="round" stroke-linejoin="round" points="
				21.519,19.602 20,18.264 20,16.257 			"/>
			<path id="Stroke-16" fill="none" stroke="#2C2F31" stroke-width="2" stroke-linecap="round" stroke-linejoin="round" d="
				M15.66,39.965v-6.076c0-2.398,1.943-4.34,4.34-4.34s4.34,1.943,4.34,4.34v6.076"/>
			<polygon id="Stroke-18" fill="none" stroke="#2C2F31" stroke-width="2" stroke-linecap="round" stroke-linejoin="round" points="
				5.243,34.757 8.715,34.757 8.715,31.285 5.243,31.285 			"/>
			<polygon id="Stroke-20" fill="none" stroke="#2C2F31" stroke-width="2" stroke-linecap="round" stroke-linejoin="round" points="
				5.243,27.812 8.715,27.812 8.715,24.34 5.243,24.34 			"/>
			<polygon id="Stroke-21" fill="none" stroke="#2C2F31" stroke-width="2" stroke-linecap="round" stroke-linejoin="round" points="
				31.285,34.757 34.757,34.757 34.757,31.285 31.285,31.285 			"/>
			<polygon id="Stroke-22" fill="none" stroke="#2C2F31" stroke-width="2" stroke-linecap="round" stroke-linejoin="round" points="
				31.285,27.812 34.757,27.812 34.757,24.34 31.285,24.34 			"/>
		</g>
		<g id="Page-1-Copy" transform="translate(622.000000, 787.000000)">
			
				<polyline id="Stroke-1_1_" fill="none" stroke="#2C2F31" stroke-width="2" stroke-linecap="round" stroke-linejoin="round" points="
				12.188,11.371 12.188,15.659 12.188,20 12.188,20.868 12.188,39.965 20,39.965 27.812,39.965 27.812,20.868 27.812,20 
				27.812,15.659 27.812,11.232 			"/>
			
				<polyline id="Stroke-3_1_" fill="none" stroke="#2C2F31" stroke-width="2" stroke-linecap="round" stroke-linejoin="round" points="
				10.451,12.188 20,6.979 29.549,12.188 			"/>
			
				<polyline id="Stroke-4_1_" fill="none" stroke="#2C2F31" stroke-width="2" stroke-linecap="round" stroke-linejoin="round" points="
				12.188,20.868 0.035,20.868 3.507,15.66 12.188,15.66 			"/>
			
				<polyline id="Stroke-6_1_" fill="none" stroke="#2C2F31" stroke-width="2" stroke-linecap="round" stroke-linejoin="round" points="
				27.812,15.66 36.493,15.66 39.965,20.868 27.812,20.868 			"/>
			
				<polyline id="Stroke-8_1_" fill="none" stroke="#2C2F31" stroke-width="2" stroke-linecap="round" stroke-linejoin="round" points="
				38.229,20.868 38.229,39.965 1.771,39.965 1.771,20.868 			"/>
			
				<polyline id="Stroke-10_1_" fill="none" stroke="#2C2F31" stroke-width="2" stroke-linecap="round" stroke-linejoin="round" points="
				20,3.507 24.34,3.507 24.34,0.035 20,0.035 20,6.979 			"/>
			<path id="Stroke-12_1_" fill="none" stroke="#2C2F31" stroke-width="2" stroke-linecap="round" stroke-linejoin="round" d="
				M24.34,18.264c0,2.398-1.943,4.34-4.34,4.34s-4.34-1.943-4.34-4.34s1.943-4.34,4.34-4.34S24.34,15.866,24.34,18.264z"/>
			
				<polyline id="Stroke-14_1_" fill="none" stroke="#2C2F31" stroke-width="2" stroke-linecap="round" stroke-linejoin="round" points="
				21.519,19.602 20,18.264 20,16.257 			"/>
			<path id="Stroke-16_1_" fill="none" stroke="#2C2F31" stroke-width="2" stroke-linecap="round" stroke-linejoin="round" d="
				M15.66,39.965v-6.076c0-2.398,1.943-4.34,4.34-4.34s4.34,1.943,4.34,4.34v6.076"/>
			
				<polygon id="Stroke-18_1_" fill="none" stroke="#2C2F31" stroke-width="2" stroke-linecap="round" stroke-linejoin="round" points="
				5.243,34.757 8.715,34.757 8.715,31.285 5.243,31.285 			"/>
			
				<polygon id="Stroke-20_1_" fill="none" stroke="#2C2F31" stroke-width="2" stroke-linecap="round" stroke-linejoin="round" points="
				5.243,27.812 8.715,27.812 8.715,24.34 5.243,24.34 			"/>
			
				<polygon id="Stroke-21_1_" fill="none" stroke="#2C2F31" stroke-width="2" stroke-linecap="round" stroke-linejoin="round" points="
				31.285,34.757 34.757,34.757 34.757,31.285 31.285,31.285 			"/>
			
				<polygon id="Stroke-22_1_" fill="none" stroke="#2C2F31" stroke-width="2" stroke-linecap="round" stroke-linejoin="round" points="
				31.285,27.812 34.757,27.812 34.757,24.34 31.285,24.34 			"/>
		</g>
		<g id="Page-1-Copy-2" transform="translate(367.000000, 787.000000)">
			
				<polyline id="Stroke-1_2_" fill="none" stroke="#2C2F31" stroke-width="2" stroke-linecap="round" stroke-linejoin="round" points="
				12.188,11.371 12.188,15.659 12.188,20 12.188,20.868 12.188,39.965 20,39.965 27.812,39.965 27.812,20.868 27.812,20 
				27.812,15.659 27.812,11.232 			"/>
			
				<polyline id="Stroke-3_2_" fill="none" stroke="#2C2F31" stroke-width="2" stroke-linecap="round" stroke-linejoin="round" points="
				10.451,12.188 20,6.979 29.549,12.188 			"/>
			
				<polyline id="Stroke-4_2_" fill="none" stroke="#2C2F31" stroke-width="2" stroke-linecap="round" stroke-linejoin="round" points="
				12.188,20.868 0.035,20.868 3.507,15.66 12.188,15.66 			"/>
			
				<polyline id="Stroke-6_2_" fill="none" stroke="#2C2F31" stroke-width="2" stroke-linecap="round" stroke-linejoin="round" points="
				27.812,15.66 36.493,15.66 39.965,20.868 27.812,20.868 			"/>
			
				<polyline id="Stroke-8_2_" fill="none" stroke="#2C2F31" stroke-width="2" stroke-linecap="round" stroke-linejoin="round" points="
				38.229,20.868 38.229,39.965 1.771,39.965 1.771,20.868 			"/>
			
				<polyline id="Stroke-10_2_" fill="none" stroke="#2C2F31" stroke-width="2" stroke-linecap="round" stroke-linejoin="round" points="
				20,3.507 24.34,3.507 24.34,0.035 20,0.035 20,6.979 			"/>
			<path id="Stroke-12_2_" fill="none" stroke="#2C2F31" stroke-width="2" stroke-linecap="round" stroke-linejoin="round" d="
				M24.34,18.264c0,2.398-1.943,4.34-4.34,4.34s-4.34-1.943-4.34-4.34s1.943-4.34,4.34-4.34S24.34,15.866,24.34,18.264z"/>
			
				<polyline id="Stroke-14_2_" fill="none" stroke="#2C2F31" stroke-width="2" stroke-linecap="round" stroke-linejoin="round" points="
				21.519,19.602 20,18.264 20,16.257 			"/>
			<path id="Stroke-16_2_" fill="none" stroke="#2C2F31" stroke-width="2" stroke-linecap="round" stroke-linejoin="round" d="
				M15.66,39.965v-6.076c0-2.398,1.943-4.34,4.34-4.34s4.34,1.943,4.34,4.34v6.076"/>
			
				<polygon id="Stroke-18_2_" fill="none" stroke="#2C2F31" stroke-width="2" stroke-linecap="round" stroke-linejoin="round" points="
				5.243,34.757 8.715,34.757 8.715,31.285 5.243,31.285 			"/>
			
				<polygon id="Stroke-20_2_" fill="none" stroke="#2C2F31" stroke-width="2" stroke-linecap="round" stroke-linejoin="round" points="
				5.243,27.812 8.715,27.812 8.715,24.34 5.243,24.34 			"/>
			
				<polygon id="Stroke-21_2_" fill="none" stroke="#2C2F31" stroke-width="2" stroke-linecap="round" stroke-linejoin="round" points="
				31.285,34.757 34.757,34.757 34.757,31.285 31.285,31.285 			"/>
			
				<polygon id="Stroke-22_2_" fill="none" stroke="#2C2F31" stroke-width="2" stroke-linecap="round" stroke-linejoin="round" points="
				31.285,27.812 34.757,27.812 34.757,24.34 31.285,24.34 			"/>
		</g>
		
			<g id="Arrow-head" transform="translate(138.000000, 255.000000) scale(-1, 1) translate(-138.000000, -255.000000) translate(128.000000, 249.000000)">
			<path id="Line-4" fill="none" stroke="#AAB1B5" stroke-linecap="round" stroke-linejoin="round" d="M10,11.25L19.857,0"/>
			<path id="Line-4_1_" fill="none" stroke="#AAB1B5" stroke-linecap="round" stroke-linejoin="round" d="M9.857,11.25L0,0"/>
		</g>
		
			<g id="Arrow-head_1_" transform="translate(795.000000, 487.500000) rotate(-180.000000) translate(-795.000000, -487.500000) translate(785.000000, 482.000000)">
			<path id="Line-4_2_" fill="none" stroke="#AAB1B5" stroke-linecap="round" stroke-linejoin="round" d="M10,11L20,0"/>
			<path id="Line-4_3_" fill="none" stroke="#AAB1B5" stroke-linecap="round" stroke-linejoin="round" d="M10,11L0,0"/>
		</g>
		
			<g id="Arrow-head_2_" transform="translate(253.000000, 190.000000) rotate(-90.000000) translate(-253.000000, -190.000000) translate(243.000000, 184.000000)">
			<path id="Line-4_4_" fill="none" stroke="#AAB1B5" stroke-linecap="round" stroke-linejoin="round" d="M10,11.25L19.857,0"/>
			<path id="Line-4_5_" fill="none" stroke="#AAB1B5" stroke-linecap="round" stroke-linejoin="round" d="M9.857,11.25L0,0"/>
		</g>
		
			<g id="Arrow-head_3_" transform="translate(392.000000, 189.000000) rotate(-90.000000) translate(-392.000000, -189.000000) translate(382.000000, 183.000000)">
			<path id="Line-4_6_" fill="none" stroke="#AAB1B5" stroke-linecap="round" stroke-linejoin="round" d="M10,11.25L19.857,0"/>
			<path id="Line-4_7_" fill="none" stroke="#AAB1B5" stroke-linecap="round" stroke-linejoin="round" d="M9.857,11.25L0,0"/>
		</g>
		
			<g id="Arrow-head_4_" transform="translate(707.000000, 190.000000) rotate(90.000000) translate(-707.000000, -190.000000) translate(697.000000, 184.000000)">
			<path id="Line-4_8_" fill="none" stroke="#AAB1B5" stroke-linecap="round" stroke-linejoin="round" d="M10,11.25L19.857,0"/>
			<path id="Line-4_9_" fill="none" stroke="#AAB1B5" stroke-linecap="round" stroke-linejoin="round" d="M9.857,11.25L0,0"/>
		</g>
		
			<g id="Arrow-head_5_" transform="translate(375.000000, 365.000000) rotate(-90.000000) translate(-375.000000, -365.000000) translate(365.000000, 359.000000)">
			<path id="Line-4_10_" fill="none" stroke="#AAB1B5" stroke-linecap="round" stroke-linejoin="round" d="M10,11.25L19.857,0"/>
			<path id="Line-4_11_" fill="none" stroke="#AAB1B5" stroke-linecap="round" stroke-linejoin="round" d="M9.857,11.25L0,0"/>
		</g>
		
			<g id="Arrow-head_6_" transform="translate(211.000000, 365.000000) rotate(-90.000000) translate(-211.000000, -365.000000) translate(201.000000, 359.000000)">
			<path id="Line-4_12_" fill="none" stroke="#AAB1B5" stroke-linecap="round" stroke-linejoin="round" d="M10,11.25L19.857,0"/>
			<path id="Line-4_13_" fill="none" stroke="#AAB1B5" stroke-linecap="round" stroke-linejoin="round" d="M9.857,11.25L0,0"/>
		</g>
		<polygon id="Blockchain" fill="#F7F7F7" stroke="#2C2F31" stroke-linecap="round" stroke-linejoin="round" points="430,294 
			670,294 670,344 430,343.865 		"/>
		<polygon id="Blockchain_1_" fill="none" stroke="#2C2F31" stroke-linecap="round" stroke-linejoin="round" points="430,144 
			670,144 670,179 660,189 670,199 670,234 430,233.865 430,199 440,188.933 430,179 		"/>
		
			<rect id="_x33_" x="227" y="304" fill="none" stroke="#2C2F31" stroke-linecap="round" stroke-linejoin="round" width="122" height="122"/>
		
			<rect id="_x32_" x="48" y="318" fill="#F7F7F7" stroke="#2C2F31" stroke-linecap="round" stroke-linejoin="round" width="122" height="122"/>
		<polygon fill="#FFFFFF" stroke="#2C2F31" stroke-linecap="round" stroke-linejoin="round" points="55,304 184,304 184,433 55,433 
					"/>
		<text transform="matrix(1 0 0 1 511.22 325)" fill="#2C2F31" font-family="'Helvetica'" font-size="16">Blockchain</text>
		<text transform="matrix(1 0 0 1 519.2 26)" fill="#2C2F31" font-family="'Helvetica'" font-size="20">Dapps</text>
		<text transform="matrix(1 0 0 1 418.22 885)" fill="#2C2F31" font-family="'Helvetica'" font-size="20">Sceptics</text>
		<text transform="matrix(1 0 0 1 676.38 885)" fill="#2C2F31" font-family="'Helvetica'" font-size="20">Holders</text>
		<text transform="matrix(1 0 0 1 131.08 565)" fill="#2C2F31" font-family="'Helvetica'" font-size="20">Raw protocol</text>
		<text transform="matrix(1 0 0 1 109.04 27)" fill="#2C2F31" font-family="'Helvetica'" font-size="20">Issuer</text>
		<text transform="matrix(1 0 0 1 498 548)" fill="#2C2F31" font-family="'Helvetica'" font-size="12">Proof on chain</text>
		<text transform="matrix(1 0 0 1 235 475)" fill="#2C2F31" font-family="'Helvetica'" font-size="12">SDK</text>
		<text transform="matrix(1 0 0 1 281 505)" fill="#2C2F31" font-family="'Helvetica'" font-size="12">DB</text>
		<text transform="matrix(1 0 0 1 304 534)" fill="#2C2F31" font-family="'Helvetica'" font-size="12">Process</text>
		<text transform="matrix(1 0 0 1 454 694)" fill="#2C2F31" font-family="'Helvetica'" font-size="12">Verify</text>
		<text transform="matrix(1 0 0 1 655 684)" fill="#2C2F31" font-family="'Helvetica'" font-size="12">Recipe</text>
		<text transform="matrix(1 0 0 1 657.392 696)" fill="#2C2F31" font-family="'Helvetica'" font-size="12">owner</text>
		<text transform="matrix(1 0 0 1 751.3921 684)" fill="#2C2F31" font-family="'Helvetica'" font-size="12">Xcert</text>
		<text transform="matrix(1 0 0 1 744 696)" fill="#2C2F31" font-family="'Helvetica'" font-size="12">address</text>
		<polygon id="_x2B_" fill="#2C2F31" points="724.281,687.251 724.281,693 721.689,693 721.689,687.251 716,687.251 716,684.779 
			721.689,684.779 721.689,679 724.281,679 724.281,684.779 730,684.779 730,687.251 		"/>
		<text transform="matrix(1 0 0 1 484.224 183)" fill="#2C2F31" font-family="'Helvetica'" font-size="16">Advanced protocol</text>
		<text transform="matrix(1 0 0 1 486.296 204)" fill="#2C2F31" font-family="'Helvetica'" font-size="16">setup for business</text>
		<text transform="matrix(1 0 0 1 255.148 360)" fill="#2C2F31" font-family="'Helvetica'" font-size="16">Encrypted</text>
		<text transform="matrix(1 0 0 1 270.86 381)" fill="#2C2F31" font-family="'Helvetica'" font-size="16">proof</text>
		<text transform="matrix(1 0 0 1 100.86 353)" fill="#2C2F31" font-family="'Helvetica'" font-size="16">Xcert</text>
		<text transform="matrix(1 0 0 1 97.004 374)" fill="#2C2F31" font-family="'Helvetica'" font-size="16">recipe</text>
		<text transform="matrix(1 0 0 1 77.292 395)" fill="#2C2F31" font-family="'Helvetica'" font-size="16">conventions</text>
		<g id="Group-2" transform="translate(525.000000, 47.000000)">
			<path id="Fill-1" fill="none" stroke="#2C2F31" stroke-width="2" stroke-linecap="round" stroke-linejoin="round" d="M2.679,0
				C1.2,0,0,1.2,0,2.679v20.536h8.929L7.143,18.75c0-2.466,1.998-4.464,4.464-4.464s4.464,1.998,4.464,4.464l-1.786,4.464h8.929V0
				H2.679z"/>
			<path id="Fill-3" fill="#FEE4E2" stroke="#2C2F31" stroke-width="2" stroke-linecap="round" stroke-linejoin="round" d="
				M26.786,0v8.929l4.464-1.786c2.466,0,4.464,1.998,4.464,4.464s-1.998,4.464-4.464,4.464l-4.464-1.786v8.929H50V2.679
				C50,1.2,48.8,0,47.321,0H26.786z"/>
			<path id="Fill-5" fill="none" stroke="#2C2F31" stroke-width="2" stroke-linecap="round" stroke-linejoin="round" d="
				M41.071,26.786l1.786,4.464c0,2.466-1.998,4.464-4.464,4.464s-4.464-1.998-4.464-4.464l1.786-4.464h-8.929V50h20.536
				C48.8,50,50,48.8,50,47.321V26.786H41.071z"/>
			<path id="Fill-7" fill="#E8F7FC" stroke="#2C2F31" stroke-width="2" stroke-linecap="round" stroke-linejoin="round" d="
				M0,26.786v20.536C0,48.8,1.2,50,2.679,50h20.536v-8.929l-4.464,1.786c-2.466,0-4.464-1.998-4.464-4.464s1.998-4.464,4.464-4.464
				l4.464,1.786v-8.929C23.215,26.786,0,26.786,0,26.786z"/>
		</g>
		<g id="Coin" transform="translate(269.000000, 153.000000)">
			<circle id="Oval" fill="#0971FF" stroke="#2C2F31" cx="36.5" cy="36.5" r="36.5"/>
			<g id="XCT" transform="translate(22.000000, 27.000000)">
				<text transform="matrix(1 0 0 1 0 15)" fill="#FFFFFF" font-family="'Helvetica'" font-size="16">XCT</text>
			</g>
		</g>
		<g id="Coin_1_" transform="translate(756.000000, 153.000000)">
			<circle id="Oval_1_" fill="#0971FF" stroke="#2C2F31" cx="36.5" cy="36.5" r="36.5"/>
			<g id="XCT_1_" transform="translate(22.000000, 27.000000)">
				<text transform="matrix(1 0 0 1 0 15)" fill="#FFFFFF" font-family="'Helvetica'" font-size="16">XCT</text>
			</g>
		</g>
		<g id="or_1_" transform="translate(126.000000, 175.000000)">
			
				<circle id="Oval_2_" fill="#F7F7F7" stroke="#AAB1B5" stroke-linecap="round" stroke-linejoin="round" cx="11.232" cy="14.232" r="11.232"/>
			<g id="Group" transform="translate(5.000000, 0.000000)">
				<text transform="matrix(1 0 0 1 2 17)" fill="#2C2F31" font-family="'Helvetica'" font-size="10.368">or</text>
			</g>
		</g>
		<g id="or_3_" transform="translate(783.000000, 446.000000)">
			
				<circle id="Oval_3_" fill="#F7F7F7" stroke="#AAB1B5" stroke-linecap="round" stroke-linejoin="round" cx="11.232" cy="14.232" r="11.232"/>
			<g id="Group_1_" transform="translate(5.000000, 0.000000)">
				<text transform="matrix(1 0 0 1 2 17)" fill="#2C2F31" font-family="'Helvetica'" font-size="10.368">or</text>
			</g>
		</g>
		
			<g id="Platform" transform="translate(551.000000, 458.500000) rotate(180.000000) translate(-551.000000, -458.500000) translate(528.000000, 405.000000)">
			
				<polygon id="Xcert-image" fill="none" stroke="#2C2F31" stroke-width="0.8" stroke-linecap="round" stroke-linejoin="round" points="
				46,106.592 0,106.592 0,19.107 19.73,0 46,0 			"/>
			<path id="Fill-10" fill="#3D8CFF" d="M31.537,72.664L20.395,83.617c-0.195,0.192-0.195,0.502,0,0.694l1.166,1.146
				c0.195,0.192,0.195,0.502,0,0.694l-2.138,2.101c-0.195,0.192-0.511,0.192-0.706,0l-4.054-3.985
				c-0.196-0.193-0.195-0.506,0.003-0.697L25.96,72.664h-5.898l1.355,1.332c0.197,0.193,0.195,0.508-0.005,0.699l-2.175,2.077
				c-0.196,0.187-0.508,0.185-0.701-0.005l-4.173-4.103h-2.239c-0.454,0-0.825,0.365-0.825,0.811v21.307
				c0,0.446,0.371,0.811,0.825,0.811h2.127l11.275-11.084c0.195-0.192,0.195-0.502,0-0.694l-1.166-1.146
				c-0.195-0.192-0.195-0.502,0-0.694l2.138-2.101c0.195-0.191,0.511-0.191,0.706,0l4.054,3.985
				c0.196,0.193,0.195,0.506-0.003,0.697l-11.43,11.037h6.167l-1.488-1.462c-0.197-0.194-0.194-0.509,0.005-0.699l2.175-2.077
				c0.196-0.187,0.508-0.185,0.701,0.005l4.29,4.217l2.122,0.015c0.454,0,0.825-0.365,0.825-0.811V73.475
				c0-0.446-0.371-0.811-0.825-0.811H31.537z"/>
		</g>
		
			<g id="Platform_1_" transform="translate(489.000000, 458.500000) rotate(180.000000) translate(-489.000000, -458.500000) translate(466.000000, 405.000000)">
			
				<polygon id="Xcert-image_1_" fill="none" stroke="#2C2F31" stroke-width="0.8" stroke-linecap="round" stroke-linejoin="round" points="
				46,106.592 0,106.592 0,19.107 19.73,0 46,0 			"/>
			<path id="Fill-10_1_" fill="#3D8CFF" d="M31.537,72.664L20.395,83.617c-0.195,0.192-0.195,0.502,0,0.694l1.166,1.146
				c0.195,0.192,0.195,0.502,0,0.694l-2.138,2.101c-0.195,0.192-0.511,0.192-0.706,0l-4.054-3.985
				c-0.196-0.193-0.195-0.506,0.003-0.697L25.96,72.664h-5.898l1.355,1.332c0.197,0.193,0.195,0.508-0.005,0.699l-2.175,2.077
				c-0.196,0.187-0.508,0.185-0.701-0.005l-4.173-4.103h-2.239c-0.454,0-0.825,0.365-0.825,0.811v21.307
				c0,0.446,0.371,0.811,0.825,0.811h2.127l11.275-11.084c0.195-0.192,0.195-0.502,0-0.694l-1.166-1.146
				c-0.195-0.192-0.195-0.502,0-0.694l2.138-2.101c0.195-0.191,0.511-0.191,0.706,0l4.054,3.985
				c0.196,0.193,0.195,0.506-0.003,0.697l-11.43,11.037h6.167l-1.488-1.462c-0.197-0.194-0.194-0.509,0.005-0.699l2.175-2.077
				c0.196-0.187,0.508-0.185,0.701,0.005l4.29,4.217l2.122,0.015c0.454,0,0.825-0.365,0.825-0.811V73.475
				c0-0.446-0.371-0.811-0.825-0.811H31.537z"/>
		</g>
		
			<g id="Platform_2_" transform="translate(611.000000, 458.500000) rotate(180.000000) translate(-611.000000, -458.500000) translate(588.000000, 405.000000)">
			
				<polygon id="Xcert-image_2_" fill="none" stroke="#2C2F31" stroke-width="0.8" stroke-linecap="round" stroke-linejoin="round" points="
				46,106.592 0,106.592 0,19.107 19.73,0 46,0 			"/>
			<path id="Fill-10_2_" fill="#3D8CFF" d="M31.537,72.664L20.395,83.617c-0.195,0.192-0.195,0.502,0,0.694l1.166,1.146
				c0.195,0.192,0.195,0.502,0,0.694l-2.138,2.101c-0.195,0.192-0.511,0.192-0.706,0l-4.054-3.985
				c-0.196-0.193-0.195-0.506,0.003-0.697L25.96,72.664h-5.898l1.355,1.332c0.197,0.193,0.195,0.508-0.005,0.699l-2.175,2.077
				c-0.196,0.187-0.508,0.185-0.701-0.005l-4.173-4.103h-2.239c-0.454,0-0.825,0.365-0.825,0.811v21.307
				c0,0.446,0.371,0.811,0.825,0.811h2.127l11.275-11.084c0.195-0.192,0.195-0.502,0-0.694l-1.166-1.146
				c-0.195-0.192-0.195-0.502,0-0.694l2.138-2.101c0.195-0.191,0.511-0.191,0.706,0l4.054,3.985
				c0.196,0.193,0.195,0.506-0.003,0.697l-11.43,11.037h6.167l-1.488-1.462c-0.197-0.194-0.194-0.509,0.005-0.699l2.175-2.077
				c0.196-0.187,0.508-0.185,0.701,0.005l4.29,4.217l2.122,0.015c0.454,0,0.825-0.365,0.825-0.811V73.475
				c0-0.446-0.371-0.811-0.825-0.811H31.537z"/>
		</g>
		<g id="Page-1-Copy-6" transform="translate(123.000000, 55.000000)">
			<path id="Stroke-1_3_" fill="none" stroke="#2C2F31" stroke-width="2" stroke-linecap="round" stroke-linejoin="round" d="
				M12.064,24.408c-0.502,1.404-0.995,1.481-1.476,1.634C4.65,27.936,0.357,32.688,0.357,39.706h29.616
				c0-7.018-4.292-11.768-10.229-13.663c-0.481-0.154-0.975-0.232-1.477-1.635"/>
			<path id="Stroke-3_3_" fill="none" stroke="#2C2F31" stroke-width="2" stroke-linecap="round" stroke-linejoin="round" d="
				M6.599,13.542c-0.674,0.214-0.751,1.82-0.17,3.587c0.564,1.716,1.537,2.942,2.211,2.816c1.537,2.984,4.436,5.601,6.525,5.601
				s4.989-2.618,6.525-5.601c0.674,0.126,1.648-1.1,2.211-2.816c0.581-1.767,0.504-3.373-0.17-3.587"/>
			<path id="Stroke-5" fill="none" stroke="#2C2F31" stroke-width="2" stroke-linecap="round" stroke-linejoin="round" d="
				M21.593,26.934c0,1.55-2.878,2.807-6.429,2.807s-6.429-1.257-6.429-2.807"/>
			<path id="Stroke-7" fill="none" stroke="#2C2F31" stroke-width="2" stroke-linecap="round" stroke-linejoin="round" d="
				M6.599,13.542c0,0,2.38-0.363,2.737-3.801c1.357-0.842,9.071,2.246,10,3.368c0,0-1-3.228-1-3.509s3.286,1.544,4.071,4.912
				c0,0,2.429-1.544,2.857-5.544c0.429-4-4.071-13.544-15.929-5.474C8.05,3.636,2.599,2.174,6.599,13.542z"/>
		</g>
		<g id="Page-1-Copy-7" transform="translate(707.000000, 787.000000)">
			<path id="Stroke-1_4_" fill="none" stroke="#2C2F31" stroke-width="2" stroke-linecap="round" stroke-linejoin="round" d="
				M12.064,24.408c-0.502,1.404-0.995,1.481-1.476,1.634C4.65,27.936,0.357,32.688,0.357,39.706h29.616
				c0-7.018-4.292-11.768-10.229-13.663c-0.481-0.154-0.975-0.232-1.477-1.635"/>
			<path id="Stroke-3_4_" fill="none" stroke="#2C2F31" stroke-width="2" stroke-linecap="round" stroke-linejoin="round" d="
				M6.599,13.542c-0.674,0.214-0.751,1.82-0.17,3.587c0.564,1.716,1.537,2.942,2.211,2.816c1.537,2.984,4.436,5.601,6.525,5.601
				s4.989-2.618,6.525-5.601c0.674,0.126,1.648-1.1,2.211-2.816c0.581-1.767,0.504-3.373-0.17-3.587"/>
			<path id="Stroke-5_1_" fill="none" stroke="#2C2F31" stroke-width="2" stroke-linecap="round" stroke-linejoin="round" d="
				M21.593,26.934c0,1.55-2.878,2.807-6.429,2.807s-6.429-1.257-6.429-2.807"/>
			<path id="Stroke-7_1_" fill="none" stroke="#2C2F31" stroke-width="2" stroke-linecap="round" stroke-linejoin="round" d="
				M6.599,13.542c0,0,2.38-0.363,2.737-3.801c1.357-0.842,9.071,2.246,10,3.368c0,0-1-3.228-1-3.509s3.286,1.544,4.071,4.912
				c0,0,2.429-1.544,2.857-5.544c0.429-4-4.071-13.544-15.929-5.474C8.05,3.636,2.599,2.174,6.599,13.542z"/>
		</g>
		<g id="Page-1-Copy-8" transform="translate(452.000000, 787.000000)">
			<path id="Stroke-1_5_" fill="none" stroke="#2C2F31" stroke-width="2" stroke-linecap="round" stroke-linejoin="round" d="
				M12.064,24.408c-0.502,1.404-0.995,1.481-1.476,1.634C4.65,27.936,0.357,32.688,0.357,39.706h29.616
				c0-7.018-4.292-11.768-10.229-13.663c-0.481-0.154-0.975-0.232-1.477-1.635"/>
			<path id="Stroke-3_5_" fill="none" stroke="#2C2F31" stroke-width="2" stroke-linecap="round" stroke-linejoin="round" d="
				M6.599,13.542c-0.674,0.214-0.751,1.82-0.17,3.587c0.564,1.716,1.537,2.942,2.211,2.816c1.537,2.984,4.436,5.601,6.525,5.601
				s4.989-2.618,6.525-5.601c0.674,0.126,1.648-1.1,2.211-2.816c0.581-1.767,0.504-3.373-0.17-3.587"/>
			<path id="Stroke-5_2_" fill="none" stroke="#2C2F31" stroke-width="2" stroke-linecap="round" stroke-linejoin="round" d="
				M21.593,26.934c0,1.55-2.878,2.807-6.429,2.807s-6.429-1.257-6.429-2.807"/>
			<path id="Stroke-7_2_" fill="none" stroke="#2C2F31" stroke-width="2" stroke-linecap="round" stroke-linejoin="round" d="
				M6.599,13.542c0,0,2.38-0.363,2.737-3.801c1.357-0.842,9.071,2.246,10,3.368c0,0-1-3.228-1-3.509s3.286,1.544,4.071,4.912
				c0,0,2.429-1.544,2.857-5.544c0.429-4-4.071-13.544-15.929-5.474C8.05,3.636,2.599,2.174,6.599,13.542z"/>
		</g>
		<g id="Group_2_" transform="translate(208.000000, 75.000000)">
			<path id="Layer-5" fill="none" stroke="#2C2F31" stroke-width="2" stroke-linecap="round" stroke-linejoin="round" d="
				M4.618,8.113C4.473,8.205,4.198,8.788,4.322,9.3c0.185,0.761,0.843,1.058,0.843,1.058s1.029,1.405,1.029,2.222
				s0,1.134-0.276,1.816C5.642,15.076,0.23,15.893,0,19.911h7.878l7.964,0.001c-0.23-4.018-5.642-4.835-5.918-5.516
				s-0.276-0.999-0.276-1.816s1.029-2.222,1.029-2.222s0.658-0.297,0.843-1.058c0.124-0.511-0.15-1.094-0.296-1.187
				c0.39-1.23,1.169-5.471-3.259-5.624c-0.02-0.003-0.039-0.002-0.059-0.002C3.45,2.641,4.228,6.882,4.618,8.113z"/>
			<path id="Layer-6" fill="none" stroke="#2C2F31" stroke-width="2" stroke-linecap="round" stroke-linejoin="round" d="
				M28.777,8.113C28.631,8.205,28.356,8.788,28.48,9.3c0.185,0.761,0.843,1.058,0.843,1.058s1.029,1.405,1.029,2.222
				s0,1.134-0.276,1.816c-0.276,0.681-5.688,1.498-5.918,5.516l15.842,0c-0.23-4.018-5.642-4.835-5.918-5.516
				s-0.276-0.999-0.276-1.816s1.029-2.222,1.029-2.222s0.658-0.297,0.843-1.058c0.124-0.511-0.15-1.094-0.296-1.187
				c0.39-1.23,1.169-5.471-3.259-5.624c-0.02-0.003-0.039-0.002-0.059-0.002C27.608,2.641,28.387,6.882,28.777,8.113z"/>
			<path id="Layer-7" fill="none" stroke="#2C2F31" stroke-width="2" stroke-linecap="round" stroke-linejoin="round" d="
				M26.722,16.124c-1.915-1.453-4.418-1.997-4.617-2.48c-0.317-0.774-0.317-1.135-0.317-2.063s1.183-2.524,1.183-2.524
				s0.756-0.337,0.969-1.202c0.143-0.581-0.173-1.244-0.341-1.349c0.448-1.398,1.344-6.217-3.748-6.391
				c-0.023-0.003-0.045-0.003-0.068-0.002c-5.124,0.175-4.228,4.994-3.78,6.392c-0.168,0.106-0.484,0.768-0.341,1.349
				c0.213,0.864,0.969,1.202,0.969,1.202s1.183,1.596,1.183,2.524s0,1.289-0.317,2.063c-0.192,0.469-2.551,0.995-4.44,2.35
				c1.361,0.792,2.672,1.984,2.783,3.918h3.911h4.421h-0.014C24.263,18.081,25.442,16.915,26.722,16.124z"/>
		</g>
		<g id="Group-Copy" transform="translate(783.000000, 807.000000)">
			<path id="Layer-5_1_" fill="none" stroke="#2C2F31" stroke-width="2" stroke-linecap="round" stroke-linejoin="round" d="
				M4.618,8.113C4.473,8.205,4.198,8.788,4.322,9.3c0.185,0.761,0.843,1.058,0.843,1.058s1.029,1.405,1.029,2.222
				s0,1.134-0.276,1.816C5.642,15.076,0.23,15.893,0,19.911h7.878l7.964,0.001c-0.23-4.018-5.642-4.835-5.918-5.516
				s-0.276-0.999-0.276-1.816s1.029-2.222,1.029-2.222s0.658-0.297,0.843-1.058c0.124-0.511-0.15-1.094-0.296-1.187
				c0.39-1.23,1.169-5.471-3.259-5.624c-0.02-0.003-0.039-0.002-0.059-0.002C3.45,2.641,4.228,6.882,4.618,8.113z"/>
			<path id="Layer-6_1_" fill="none" stroke="#2C2F31" stroke-width="2" stroke-linecap="round" stroke-linejoin="round" d="
				M28.777,8.113C28.631,8.205,28.356,8.788,28.48,9.3c0.185,0.761,0.843,1.058,0.843,1.058s1.029,1.405,1.029,2.222
				s0,1.134-0.276,1.816c-0.276,0.681-5.688,1.498-5.918,5.516l15.842,0c-0.23-4.018-5.642-4.835-5.918-5.516
				s-0.276-0.999-0.276-1.816s1.029-2.222,1.029-2.222s0.658-0.297,0.843-1.058c0.124-0.511-0.15-1.094-0.296-1.187
				c0.39-1.23,1.169-5.471-3.259-5.624c-0.02-0.003-0.039-0.002-0.059-0.002C27.608,2.641,28.387,6.882,28.777,8.113z"/>
			<path id="Layer-7_1_" fill="none" stroke="#2C2F31" stroke-width="2" stroke-linecap="round" stroke-linejoin="round" d="
				M26.722,16.124c-1.915-1.453-4.418-1.997-4.617-2.48c-0.317-0.774-0.317-1.135-0.317-2.063s1.183-2.524,1.183-2.524
				s0.756-0.337,0.969-1.202c0.143-0.581-0.173-1.244-0.341-1.349c0.448-1.398,1.344-6.217-3.748-6.391
				c-0.023-0.003-0.045-0.003-0.068-0.002c-5.124,0.175-4.228,4.994-3.78,6.392c-0.168,0.106-0.484,0.768-0.341,1.349
				c0.213,0.864,0.969,1.202,0.969,1.202s1.183,1.596,1.183,2.524s0,1.289-0.317,2.063c-0.192,0.469-2.551,0.995-4.44,2.35
				c1.361,0.792,2.672,1.984,2.783,3.918h3.911h4.421h-0.014C24.263,18.081,25.442,16.915,26.722,16.124z"/>
		</g>
		<g id="Group-Copy-2" transform="translate(528.000000, 807.000000)">
			<path id="Layer-5_2_" fill="none" stroke="#2C2F31" stroke-width="2" stroke-linecap="round" stroke-linejoin="round" d="
				M4.618,8.113C4.473,8.205,4.198,8.788,4.322,9.3c0.185,0.761,0.843,1.058,0.843,1.058s1.029,1.405,1.029,2.222
				s0,1.134-0.276,1.816C5.642,15.076,0.23,15.893,0,19.911h7.878l7.964,0.001c-0.23-4.018-5.642-4.835-5.918-5.516
				s-0.276-0.999-0.276-1.816s1.029-2.222,1.029-2.222s0.658-0.297,0.843-1.058c0.124-0.511-0.15-1.094-0.296-1.187
				c0.39-1.23,1.169-5.471-3.259-5.624c-0.02-0.003-0.039-0.002-0.059-0.002C3.45,2.641,4.228,6.882,4.618,8.113z"/>
			<path id="Layer-6_2_" fill="none" stroke="#2C2F31" stroke-width="2" stroke-linecap="round" stroke-linejoin="round" d="
				M28.777,8.113C28.631,8.205,28.356,8.788,28.48,9.3c0.185,0.761,0.843,1.058,0.843,1.058s1.029,1.405,1.029,2.222
				s0,1.134-0.276,1.816c-0.276,0.681-5.688,1.498-5.918,5.516l15.842,0c-0.23-4.018-5.642-4.835-5.918-5.516
				s-0.276-0.999-0.276-1.816s1.029-2.222,1.029-2.222s0.658-0.297,0.843-1.058c0.124-0.511-0.15-1.094-0.296-1.187
				c0.39-1.23,1.169-5.471-3.259-5.624c-0.02-0.003-0.039-0.002-0.059-0.002C27.608,2.641,28.387,6.882,28.777,8.113z"/>
			<path id="Layer-7_2_" fill="none" stroke="#2C2F31" stroke-width="2" stroke-linecap="round" stroke-linejoin="round" d="
				M26.722,16.124c-1.915-1.453-4.418-1.997-4.617-2.48c-0.317-0.774-0.317-1.135-0.317-2.063s1.183-2.524,1.183-2.524
				s0.756-0.337,0.969-1.202c0.143-0.581-0.173-1.244-0.341-1.349c0.448-1.398,1.344-6.217-3.748-6.391
				c-0.023-0.003-0.045-0.003-0.068-0.002c-5.124,0.175-4.228,4.994-3.78,6.392c-0.168,0.106-0.484,0.768-0.341,1.349
				c0.213,0.864,0.969,1.202,0.969,1.202s1.183,1.596,1.183,2.524s0,1.289-0.317,2.063c-0.192,0.469-2.551,0.995-4.44,2.35
				c1.361,0.792,2.672,1.984,2.783,3.918h3.911h4.421h-0.014C24.263,18.081,25.442,16.915,26.722,16.124z"/>
		</g>
	</g>
</g>
</svg>
