<?xml version="1.0" encoding="utf-8"?>
<!-- Generator: Adobe Illustrator 17.0.0, SVG Export Plug-In . SVG Version: 6.00 Build 0)  -->
<!DOCTYPE svg PUBLIC "-//W3C//DTD SVG 1.1//EN" "http://www.w3.org/Graphics/SVG/1.1/DTD/svg11.dtd">
<svg version="1.1" id="Layer_1" xmlns="http://www.w3.org/2000/svg" xmlns:xlink="http://www.w3.org/1999/xlink" x="0px" y="0px"
	 width="335px" height="268px" viewBox="0 -25 335 268" enable-background="new 0 -25 335 268" xml:space="preserve">
<pattern  x="-552" y="506" width="6" height="6" patternUnits="userSpaceOnUse" id="pattern-11" viewBox="0 -23.56 6 6" overflow="visible">
	<g>
		<polygon fill="none" points="0,-17.56 6,-17.56 6,-23.56 0,-23.56 		"/>
		<g>
			
				<image overflow="visible" enable-background="new    " width="6" height="6" id="image-12_1_" xlink:href="37480745B24D6C3A.png"  transform="matrix(1 0 0 -1 6 0)">
			</image>
		</g>
	</g>
</pattern>
<pattern  x="-552" y="506" width="6" height="6" patternUnits="userSpaceOnUse" id="pattern-2" viewBox="0 -23.56 6 6" overflow="visible">
	<g>
		<polygon fill="none" points="0,-17.56 6,-17.56 6,-23.56 0,-23.56 		"/>
		<g>
			
				<image overflow="visible" enable-background="new    " width="6" height="6" id="image-3_1_" xlink:href="37480745B24D6C3E.png"  transform="matrix(1 0 0 -1 6 0)">
			</image>
		</g>
	</g>
</pattern>
<pattern  x="-552" y="506" width="6" height="6" patternUnits="userSpaceOnUse" id="pattern-5" viewBox="0 -23.56 6 6" overflow="visible">
	<g>
		<polygon fill="none" points="0,-17.56 6,-17.56 6,-23.56 0,-23.56 		"/>
		<g>
			
				<image overflow="visible" enable-background="new    " width="6" height="6" id="image-6_1_" xlink:href="37480745B24D6C39.png"  transform="matrix(1 0 0 -1 6 0)">
			</image>
		</g>
	</g>
</pattern>
<pattern  x="-552" y="506" width="6" height="6" patternUnits="userSpaceOnUse" id="pattern-8" viewBox="0 -23.56 6 6" overflow="visible">
	<g>
		<polygon fill="none" points="0,-17.56 6,-17.56 6,-23.56 0,-23.56 		"/>
		<g>
			
				<image overflow="visible" enable-background="new    " width="6" height="6" id="image-9_1_" xlink:href="37480745B24D6C3B.png"  transform="matrix(1 0 0 -1 6 0)">
			</image>
		</g>
	</g>
</pattern>
<title>XCT</title>
<desc>Created with Sketch.</desc>
<g id="xCERT-official-3" transform="translate(-1032.000000, -3333.000000)">
	<g id="XCT" transform="translate(1033.000000, 3334.000000)">
		<g id="Group-5-Copy-7" transform="translate(227.000000, 51.000000)">
			<g id="Shape">
				<g>
					<path id="path-1" fill="#FFFFFF" d="M105.78,23.56v22.194c0,7.238-6.251,14.959-18.271,20.749
						C65.391,77.12,32.215,77.602,12.982,67.469C4.327,63.126,0,57.335,0,51.062V28.868c0,5.791,4.327,12.064,12.982,16.407
						c19.233,10.133,52.409,9.651,74.527-0.965C99.529,38.519,105.78,30.798,105.78,23.56z"/>
				</g>
				<g>
					<pattern  id="path-1_2_" xlink:href="#pattern-2" patternTransform="matrix(1 0 0 -1 522 -17123.6797)">
					</pattern>
					
						<path id="path-1_1_" fill="url(#path-1_2_)" fill-opacity="0.2" stroke="#2C2F31" stroke-linecap="round" stroke-linejoin="round" d="
						M105.78,23.56v22.194c0,7.238-6.251,14.959-18.271,20.749C65.391,77.12,32.215,77.602,12.982,67.469
						C4.327,63.126,0,57.335,0,51.062V28.868c0,5.791,4.327,12.064,12.982,16.407c19.233,10.133,52.409,9.651,74.527-0.965
						C99.529,38.519,105.78,30.798,105.78,23.56z"/>
				</g>
			</g>
			<path id="Shape_1_" fill="#FFFFFF" stroke="#2C2F31" stroke-linecap="round" stroke-linejoin="round" d="M87.5,44.593
				C65.388,55.24,32.22,55.724,12.992,45.561S-3.832,18.944,18.28,8.297S73.56-2.834,92.787,7.329S109.612,33.946,87.5,44.593z"/>
		</g>
		<g id="Group-5-Copy-3" transform="translate(119.000000, 142.000000)">
			<g id="Shape_2_">
				<g>
					<path id="path-4" fill="#FFFFFF" d="M105.78,23.56v22.194c0,7.238-6.251,14.959-18.271,20.749
						C65.391,77.12,32.215,77.602,12.982,67.469C4.327,63.126,0,57.335,0,51.062V28.868c0,5.791,4.327,12.064,12.982,16.407
						c19.233,10.133,52.409,9.651,74.527-0.965C99.529,38.519,105.78,30.798,105.78,23.56z"/>
				</g>
				<g>
					<pattern  id="path-4_2_" xlink:href="#pattern-5" patternTransform="matrix(1 0 0 -1 414 -17214.6797)">
					</pattern>
					
						<path id="path-4_1_" fill="url(#path-4_2_)" fill-opacity="0.2" stroke="#2C2F31" stroke-linecap="round" stroke-linejoin="round" d="
						M105.78,23.56v22.194c0,7.238-6.251,14.959-18.271,20.749C65.391,77.12,32.215,77.602,12.982,67.469
						C4.327,63.126,0,57.335,0,51.062V28.868c0,5.791,4.327,12.064,12.982,16.407c19.233,10.133,52.409,9.651,74.527-0.965
						C99.529,38.519,105.78,30.798,105.78,23.56z"/>
				</g>
			</g>
			<path id="Shape_3_" fill="#FFFFFF" stroke="#2C2F31" stroke-linecap="round" stroke-linejoin="round" d="M87.5,44.593
				C65.388,55.24,32.22,55.724,12.992,45.561S-3.832,18.944,18.28,8.297S73.56-2.834,92.787,7.329S109.612,33.946,87.5,44.593z"/>
		</g>
		<g id="Group-5-Copy-4" transform="translate(0.000000, 121.000000)">
			<g id="Shape_4_">
				<g>
					<path id="path-7" fill="#FFFFFF" d="M105.78,23.56v22.194c0,7.238-6.251,14.959-18.271,20.749
						C65.391,77.12,32.215,77.602,12.982,67.469C4.327,63.126,0,57.335,0,51.062V28.868c0,5.791,4.327,12.064,12.982,16.407
						c19.233,10.133,52.409,9.651,74.527-0.965C99.529,38.519,105.78,30.798,105.78,23.56z"/>
				</g>
				<g>
					<pattern  id="path-7_2_" xlink:href="#pattern-8" patternTransform="matrix(1 0 0 -1 295 -17193.6797)">
					</pattern>
					
						<path id="path-7_1_" fill="url(#path-7_2_)" fill-opacity="0.2" stroke="#2C2F31" stroke-linecap="round" stroke-linejoin="round" d="
						M105.78,23.56v22.194c0,7.238-6.251,14.959-18.271,20.749C65.391,77.12,32.215,77.602,12.982,67.469
						C4.327,63.126,0,57.335,0,51.062V28.868c0,5.791,4.327,12.064,12.982,16.407c19.233,10.133,52.409,9.651,74.527-0.965
						C99.529,38.519,105.78,30.798,105.78,23.56z"/>
				</g>
			</g>
			<path id="Shape_5_" fill="#FFFFFF" stroke="#2C2F31" stroke-linecap="round" stroke-linejoin="round" d="M87.5,44.593
				C65.388,55.24,32.22,55.724,12.992,45.561S-3.832,18.944,18.28,8.297S73.56-2.834,92.787,7.329S109.612,33.946,87.5,44.593z"/>
		</g>
		<g id="Group-5-Copy-5" transform="translate(45.000000, 95.000000)">
			<g id="Shape_6_">
				<g>
					<path id="path-10" fill="#FFFFFF" d="M105.78,23.56v22.194c0,7.238-6.251,14.959-18.271,20.749
						C65.391,77.12,32.215,77.602,12.982,67.469C4.327,63.126,0,57.335,0,51.062V28.868c0,5.791,4.327,12.064,12.982,16.407
						c19.233,10.133,52.409,9.651,74.527-0.965C99.529,38.519,105.78,30.798,105.78,23.56z"/>
				</g>
				<g>
					<pattern  id="path-10_2_" xlink:href="#pattern-11" patternTransform="matrix(1 0 0 -1 340 -17167.6797)">
					</pattern>
					
						<path id="path-10_1_" fill="url(#path-10_2_)" fill-opacity="0.2" stroke="#2C2F31" stroke-linecap="round" stroke-linejoin="round" d="
						M105.78,23.56v22.194c0,7.238-6.251,14.959-18.271,20.749C65.391,77.12,32.215,77.602,12.982,67.469
						C4.327,63.126,0,57.335,0,51.062V28.868c0,5.791,4.327,12.064,12.982,16.407c19.233,10.133,52.409,9.651,74.527-0.965
						C99.529,38.519,105.78,30.798,105.78,23.56z"/>
				</g>
			</g>
			<path id="Shape_7_" fill="#FFFFFF" stroke="#2C2F31" stroke-linecap="round" stroke-linejoin="round" d="M87.5,44.593
				C65.388,55.24,32.22,55.724,12.992,45.561S-3.832,18.944,18.28,8.297S73.56-2.834,92.787,7.329S109.612,33.946,87.5,44.593z"/>
		</g>
		<g id="Group-5" transform="translate(18.000000, 56.000000)">
			<g id="Group-5-Copy-6">
				<path id="Shape_8_" fill="#FFFFFF" stroke="#2C2F31" stroke-linecap="round" stroke-linejoin="round" d="M105.78,23.56v22.194
					c0,7.238-6.251,14.959-18.271,20.749C65.391,77.12,32.215,77.602,12.982,67.469C4.327,63.126,0,57.335,0,51.062V28.868
					c0,5.791,4.327,12.064,12.982,16.407c19.233,10.133,52.409,9.651,74.527-0.965C99.529,38.519,105.78,30.798,105.78,23.56z"/>
				<path id="Shape_9_" fill="#0971FF" stroke="#2C2F31" stroke-linecap="round" stroke-linejoin="round" d="M87.5,44.593
					C65.388,55.24,32.22,55.724,12.992,45.561S-3.832,18.944,18.28,8.297S73.56-2.834,92.787,7.329S109.612,33.946,87.5,44.593z"/>
			</g>
			<path id="logo" fill="#FFFFFF" d="M71.388,24.052l-21.371-0.116c-0.374-0.002-0.685,0.155-0.694,0.352l-0.055,1.174
				c-0.009,0.196-0.32,0.354-0.694,0.352l-4.1-0.022c-0.374-0.002-0.669-0.163-0.66-0.359l0.191-4.083
				c0.009-0.197,0.324-0.356,0.7-0.352l21.466,0.217l-5.518-3.001l-0.064,1.364c-0.009,0.198-0.326,0.357-0.703,0.352l-4.111-0.054
				c-0.37-0.005-0.659-0.165-0.651-0.359l0.197-4.202l-2.095-1.139c-0.425-0.231-1.137-0.235-1.582-0.009l-21.297,10.8
				c-0.446,0.226-0.464,0.6-0.039,0.831l1.99,1.082l21.627,0.118c0.374,0.002,0.684-0.156,0.694-0.352l0.055-1.174
				c0.009-0.196,0.32-0.354,0.694-0.352l4.1,0.022c0.374,0.002,0.669,0.163,0.661,0.359l-0.191,4.082
				c-0.009,0.198-0.324,0.356-0.699,0.352l-21.724-0.22l5.769,3.137l0.07-1.498c0.01-0.198,0.327-0.357,0.704-0.352l4.11,0.054
				c0.37,0.005,0.659,0.165,0.65,0.359l-0.202,4.32l1.97,1.087c0.424,0.231,1.136,0.235,1.582,0.009l21.297-10.8
				c0.446-0.226,0.463-0.6,0.039-0.831"/>
		</g>
		<g id="Group-5-Copy" transform="translate(199.000000, 0.000000)">
			<g id="Group-5-Copy-6_1_">
				<path id="Shape_10_" fill="#FFFFFF" stroke="#2C2F31" stroke-linecap="round" stroke-linejoin="round" d="M105.78,23.56v22.194
					c0,7.238-6.251,14.959-18.271,20.749C65.391,77.12,32.215,77.602,12.982,67.469C4.327,63.126,0,57.335,0,51.062V28.868
					c0,5.791,4.327,12.064,12.982,16.407c19.233,10.133,52.409,9.651,74.527-0.965C99.529,38.519,105.78,30.798,105.78,23.56z"/>
				<path id="Shape_11_" fill="#0971FF" stroke="#2C2F31" stroke-linecap="round" stroke-linejoin="round" d="M87.5,44.593
					C65.388,55.24,32.22,55.724,12.992,45.561S-3.832,18.944,18.28,8.297S73.56-2.834,92.787,7.329S109.612,33.946,87.5,44.593z"/>
			</g>
			<path id="logo_1_" fill="#FFFFFF" d="M71.388,24.052l-21.371-0.116c-0.374-0.002-0.685,0.155-0.694,0.352l-0.055,1.174
				c-0.009,0.196-0.32,0.354-0.694,0.352l-4.1-0.022c-0.374-0.002-0.669-0.163-0.66-0.359l0.191-4.083
				c0.009-0.197,0.324-0.356,0.7-0.352l21.466,0.217l-5.518-3.001l-0.064,1.364c-0.009,0.198-0.326,0.357-0.703,0.352l-4.111-0.054
				c-0.37-0.005-0.659-0.165-0.651-0.359l0.197-4.202l-2.095-1.139c-0.425-0.231-1.137-0.235-1.582-0.009l-21.297,10.8
				c-0.446,0.226-0.464,0.6-0.039,0.831l1.99,1.082l21.627,0.118c0.374,0.002,0.684-0.156,0.694-0.352l0.055-1.174
				c0.009-0.196,0.32-0.354,0.694-0.352l4.1,0.022c0.374,0.002,0.669,0.163,0.661,0.359l-0.191,4.082
				c-0.009,0.198-0.324,0.356-0.699,0.352l-21.724-0.22l5.769,3.137l0.07-1.498c0.01-0.198,0.327-0.357,0.704-0.352l4.11,0.054
				c0.37,0.005,0.659,0.165,0.65,0.359l-0.202,4.32l1.97,1.087c0.424,0.231,1.136,0.235,1.582,0.009l21.297-10.8
				c0.446-0.226,0.463-0.6,0.039-0.831"/>
		</g>
	</g>
</g>
</svg>
