<?xml version="1.0" encoding="UTF-8"?>
<svg width="335px" height="268px" viewBox="0 0 335 268" version="1.1" xmlns="http://www.w3.org/2000/svg" xmlns:xlink="http://www.w3.org/1999/xlink">
    <!-- Generator: Sketch 49.1 (51147) - http://www.bohemiancoding.com/sketch -->
    <title>09</title>
    <desc>Created with Sketch.</desc>
    <defs></defs>
    <g id="09" stroke="none" stroke-width="1" fill="none" fill-rule="evenodd">
        <path d="M333.779809,100.560048 L333.779809,122.754264 C333.779809,129.992429 327.529184,137.713138 315.508751,143.503671 C293.391155,154.119646 260.21476,154.60219 240.982067,144.468759 C232.327356,140.12586 228,134.335328 228,128.062252 L228,105.868036 C228,111.658568 232.327356,117.931645 240.982067,122.274544 C260.21476,132.407975 293.391155,131.925431 315.508751,121.309455 C327.529184,115.518923 333.779809,107.798213 333.779809,100.560048 Z" id="Shape" stroke="#2C2F31" fill="#F2F2F2" fill-rule="nonzero" stroke-linecap="round" stroke-linejoin="round"></path>
        <path d="M315.499731,121.592864 C293.387897,132.23964 260.220147,132.723584 240.992466,122.560753 C221.764784,112.397922 224.168244,95.9438151 246.280078,85.29704 C268.391912,74.6502648 301.559662,74.1663205 320.787343,84.3291513 C340.015024,94.4919822 337.611564,110.946089 315.499731,121.592864 Z" id="Shape" stroke="#2C2F31" fill="#FFFFFF" fill-rule="nonzero" stroke-linecap="round" stroke-linejoin="round"></path>
        <path d="M225.779809,191.560048 L225.779809,213.754264 C225.779809,220.992429 219.529184,228.713138 207.508751,234.503671 C185.391155,245.119646 152.21476,245.60219 132.982067,235.468759 C124.327356,231.12586 120,225.335328 120,219.062252 L120,196.868036 C120,202.658568 124.327356,208.931645 132.982067,213.274544 C152.21476,223.407975 185.391155,222.925431 207.508751,212.309455 C219.529184,206.518923 225.779809,198.798213 225.779809,191.560048 Z" id="Shape" stroke="#2C2F31" fill="#F2F2F2" fill-rule="nonzero" stroke-linecap="round" stroke-linejoin="round"></path>
        <path d="M207.499731,212.592864 C185.387897,223.23964 152.220147,223.723584 132.992466,213.560753 C113.764784,203.397922 116.168244,186.943815 138.280078,176.29704 C160.391912,165.650265 193.559662,165.166321 212.787343,175.329151 C232.015024,185.491982 229.611564,201.946089 207.499731,212.592864 Z" id="Shape" stroke="#2C2F31" fill="#FFFFFF" fill-rule="nonzero" stroke-linecap="round" stroke-linejoin="round"></path>
        <path d="M106.779809,170.560048 L106.779809,192.754264 C106.779809,199.992429 100.529184,207.713138 88.5087509,213.503671 C66.3911545,224.119646 33.2147599,224.60219 13.9820674,214.468759 C5.32735581,210.12586 1,204.335328 1,198.062252 L1,175.868036 C1,181.658568 5.32735581,187.931645 13.9820674,192.274544 C33.2147599,202.407975 66.3911545,201.925431 88.5087509,191.309455 C100.529184,185.518923 106.779809,177.798213 106.779809,170.560048 Z" id="Shape" stroke="#2C2F31" fill="#F2F2F2" fill-rule="nonzero" stroke-linecap="round" stroke-linejoin="round"></path>
        <path d="M88.4997307,191.592864 C66.3878972,202.23964 33.220147,202.723584 13.9924656,192.560753 C-5.23521567,182.397922 -2.8317555,165.943815 19.280078,155.29704 C41.3919115,144.650265 74.5596618,144.166321 93.7873431,154.329151 C113.015024,164.491982 110.611564,180.946089 88.4997307,191.592864 Z" id="Shape" stroke="#2C2F31" fill="#FFFFFF" fill-rule="nonzero" stroke-linecap="round" stroke-linejoin="round"></path>
        <path d="M151.779809,144.560048 L151.779809,166.754264 C151.779809,173.992429 145.529184,181.713138 133.508751,187.503671 C111.391155,198.119646 78.2147599,198.60219 58.9820674,188.468759 C50.3273558,184.12586 46,178.335328 46,172.062252 L46,149.868036 C46,155.658568 50.3273558,161.931645 58.9820674,166.274544 C78.2147599,176.407975 111.391155,175.925431 133.508751,165.309455 C145.529184,159.518923 151.779809,151.798213 151.779809,144.560048 Z" id="Shape" stroke="#2C2F31" fill="#F2F2F2" fill-rule="nonzero" stroke-linecap="round" stroke-linejoin="round"></path>
        <path d="M133.499731,165.592864 C111.387897,176.23964 78.220147,176.723584 58.9924656,166.560753 C39.7647843,156.397922 42.1682445,139.943815 64.280078,129.29704 C86.3919115,118.650265 119.559662,118.166321 138.787343,128.329151 C158.015024,138.491982 155.611564,154.946089 133.499731,165.592864 Z" id="Shape" stroke="#2C2F31" fill="#FFFFFF" fill-rule="nonzero" stroke-linecap="round" stroke-linejoin="round"></path>
        <g id="Group-5-Copy-6" transform="translate(19.000000, 82.000000)" fill-rule="nonzero" stroke="#2C2F31" stroke-linecap="round" stroke-linejoin="round">
            <path d="M105.779809,23.5600483 L105.779809,45.7542638 C105.779809,52.992429 99.5291837,60.7131385 87.5087509,66.5036706 C65.3911545,77.1196461 32.2147599,77.6021905 12.9820674,67.4687593 C4.32735581,63.1258602 0,57.3353281 0,51.0622516 L0,28.8680361 C0,34.6585682 4.32735581,40.9316447 12.9820674,45.2745438 C32.2147599,55.407975 65.3911545,54.9254306 87.5087509,44.3094551 C99.5291837,38.518923 105.779809,30.7982135 105.779809,23.5600483 Z" id="Shape" fill="#FFFFFF"></path>
            <path d="M87.4997307,44.5928644 C65.3878972,55.2396395 32.220147,55.7235839 12.9924656,45.560753 C-6.23521567,35.3979222 -3.8317555,18.9438151 18.280078,8.29704 C40.3919115,-2.34973515 73.5596618,-2.83367948 92.7873431,7.32915135 C112.015024,17.4919822 109.611564,33.9460892 87.4997307,44.5928644 Z" id="Shape" fill="#000000"></path>
        </g>
        <path d="M90.3878513,106.052091 L69.016479,105.93593 C68.6422228,105.933896 68.3317368,106.091349 68.3225468,106.287836 L68.2676399,107.461773 C68.2584499,107.65826 67.9479638,107.815714 67.5737077,107.813679 L63.4735058,107.791393 C63.0996356,107.789569 62.8040323,107.628821 62.8132224,107.432334 L63.0041726,103.349725 C63.0134015,103.152407 63.3278826,102.994144 63.7040294,102.998059 L85.1704154,103.214875 L79.6523594,100.214182 L79.5881486,101.578581 C79.5792668,101.776939 79.262412,101.935189 78.8851268,101.93023 L74.7745331,101.876308 C74.404755,101.871598 74.1150569,101.711505 74.1237444,101.517301 L74.3206956,97.3148489 L72.2260032,96.1757652 C71.8011217,95.9447167 71.0893923,95.9410559 70.6435247,96.1671638 L49.3464535,106.96731 C48.9001805,107.193623 48.8827136,107.567073 49.3075951,107.798122 L51.2973214,108.880126 L72.9238586,108.997882 C73.2977288,108.999706 73.6082149,108.842253 73.6173855,108.646181 L73.6723118,107.471828 C73.6815018,107.275341 73.9919879,107.117888 74.366244,107.119922 L78.4664458,107.142208 C78.8402967,107.144448 79.1358999,107.305196 79.1271152,107.501477 L78.9357791,111.583877 C78.9265308,111.78161 78.6120691,111.939457 78.2363082,111.935753 L56.5124419,111.716083 L62.281722,114.85339 L62.3513978,113.355226 C62.3610708,113.156872 62.6779256,112.998622 63.0552108,113.003582 L67.1654186,113.057293 C67.5351967,113.062004 67.8248948,113.222096 67.8158019,113.416506 L67.6141241,117.736938 L69.5838168,118.824234 C70.0083123,119.055073 70.7200223,119.059149 71.1662953,118.832836 L92.4633665,108.032689 C92.9092342,107.806582 92.9267204,107.432716 92.5022249,107.201878" id="logo" fill="#FFFFFF"></path>
        <g id="Group-5-Copy-6" transform="translate(200.000000, 26.000000)" fill-rule="nonzero" stroke="#2C2F31" stroke-linecap="round" stroke-linejoin="round">
            <path d="M105.779809,23.5600483 L105.779809,45.7542638 C105.779809,52.992429 99.5291837,60.7131385 87.5087509,66.5036706 C65.3911545,77.1196461 32.2147599,77.6021905 12.9820674,67.4687593 C4.32735581,63.1258602 0,57.3353281 0,51.0622516 L0,28.8680361 C0,34.6585682 4.32735581,40.9316447 12.9820674,45.2745438 C32.2147599,55.407975 65.3911545,54.9254306 87.5087509,44.3094551 C99.5291837,38.518923 105.779809,30.7982135 105.779809,23.5600483 Z" id="Shape" fill="#FFFFFF"></path>
            <path d="M87.4997307,44.5928644 C65.3878972,55.2396395 32.220147,55.7235839 12.9924656,45.560753 C-6.23521567,35.3979222 -3.8317555,18.9438151 18.280078,8.29704 C40.3919115,-2.34973515 73.5596618,-2.83367948 92.7873431,7.32915135 C112.015024,17.4919822 109.611564,33.9460892 87.4997307,44.5928644 Z" id="Shape" fill="#000000"></path>
        </g>
        <path d="M271.387851,50.0520914 L250.016479,49.93593 C249.642223,49.9338958 249.331737,50.0913491 249.322547,50.2878361 L249.26764,51.4617733 C249.25845,51.6582603 248.947964,51.8157136 248.573708,51.8136794 L244.473506,51.7913933 C244.099636,51.7895689 243.804032,51.6288213 243.813222,51.4323343 L244.004173,47.3497247 C244.013401,47.1524069 244.327883,46.9941443 244.704029,46.9980586 L266.170415,47.2148746 L260.652359,44.2141822 L260.588149,45.5785808 C260.579267,45.7769393 260.262412,45.935189 259.885127,45.9302298 L255.774533,45.8763083 C255.404755,45.8715976 255.115057,45.7115053 255.123744,45.5173009 L255.320696,41.3148489 L253.226003,40.1757652 C252.801122,39.9447167 252.089392,39.9410559 251.643525,40.1671638 L230.346453,50.96731 C229.90018,51.1936234 229.882714,51.5670734 230.307595,51.7981219 L232.297321,52.8801255 L253.923859,52.9978815 C254.297729,52.9997059 254.608215,52.8422526 254.617385,52.646181 L254.672312,51.4718284 C254.681502,51.2753414 254.991988,51.1178881 255.366244,51.1199223 L259.466446,51.1422084 C259.840297,51.1444482 260.1359,51.3051958 260.127115,51.5014773 L259.935779,55.583877 C259.926531,55.7816102 259.612069,55.9394574 259.236308,55.935753 L237.512442,55.7160831 L243.281722,58.8533901 L243.351398,57.3552264 C243.361071,57.1568722 243.677926,56.9986225 244.055211,57.0035818 L248.165419,57.0572934 C248.535197,57.0620041 248.824895,57.2220964 248.815802,57.4165063 L248.614124,61.7369379 L250.583817,62.8242343 C251.008312,63.055073 251.720022,63.0591491 252.166295,62.8328357 L273.463367,52.0326895 C273.909234,51.8065816 273.92672,51.4327163 273.502225,51.2018776" id="logo" fill="#FFFFFF"></path>
    </g>
</svg>