<?xml version="1.0" encoding="utf-8"?>
<!-- Generator: Adobe Illustrator 17.0.0, SVG Export Plug-In . SVG Version: 6.00 Build 0)  -->
<!DOCTYPE svg PUBLIC "-//W3C//DTD SVG 1.1//EN" "http://www.w3.org/Graphics/SVG/1.1/DTD/svg11.dtd">
<svg version="1.1" id="Layer_1" xmlns="http://www.w3.org/2000/svg" xmlns:xlink="http://www.w3.org/1999/xlink" x="0px" y="0px"
	 width="1135.525px" height="305.939px" viewBox="0 0 1135.525 305.939" enable-background="new 0 0 1135.525 305.939"
	 xml:space="preserve">
<g>
	<path fill="none" d="M0,305.939h1135.525V0H0V305.939z M1015.722,101.835h18.944V57.63h24.312v44.205h37.89v21.786h-37.89v90.304
		c0,7.262,3.473,10.735,10.42,10.42h20.208c2.841,0,5.368,0,7.578-0.316v21.786h-32.206c-20.208,0-30.312-10.735-30.312-32.206
		v-89.988h-18.944V101.835z M929.994,101.835h63.465v21.786h-38.837v122.193h-24.628V101.835z M788.281,133.094
		c0-20.84,9.788-31.259,29.681-31.259h48.94c20.208,0,30.312,9.788,30.627,29.679v53.994h0h-85.251v29.996
		c0,5.683,2.842,8.525,8.209,8.525h73.253v21.786h-77.042c-18.944,0-28.417-9.157-28.417-27.786V133.094z M652.514,146.986
		c0-29.996,15.787-45.152,47.046-45.152h56.203v41.995h-23.05v-20.208h-32.206c-15.787,0-23.681,8.209-23.681,24.628v75.78h81.463
		v21.786h0H652.514V146.986z M505.812,103.191c0-1.105,0.895-2,2-2h28.81c0.674,0,1.303,0.338,1.672,0.902l30.825,46.97
		l29.629-46.94c0.367-0.581,1.005-0.932,1.692-0.932h25.093c0.729,0,1.4,0.396,1.752,1.035c0.352,0.637,0.329,1.417-0.061,2.033
		l-42.364,67.052l48.527,72.029c0.414,0.613,0.455,1.404,0.107,2.057c-0.347,0.652-1.026,1.06-1.765,1.06h-25.402
		c-0.667,0-1.29-0.332-1.662-0.887l-34.828-51.946l-32.133,51.886c-0.365,0.589-1.008,0.947-1.701,0.947H510.29
		c-0.73,0-1.402-0.398-1.753-1.039s-0.326-1.421,0.068-2.037l45.761-71.692l-30.577-45.122h-15.977c-1.105,0-2-0.896-2-2V103.191z
		 M349.093,99.131c0-24.945,14.209-37.257,42.626-37.257h50.835c28.417,0,42.626,12.312,42.626,37.257v112.722
		c0,25.576-13.893,38.205-41.679,38.205h-52.729c-27.787,0-41.679-12.629-41.679-38.205V99.131z M38.016,40.099
		c0-4.763,3.896-8.659,8.659-8.659h19.574l-2.055-2.027l49.292-12.34l13.975,14.367h64.447L73.372,147.885
		c-2.077,2.041-2.093,5.384-0.033,7.443l44.135,44.135c1.171,1.171,3.071,1.171,4.242,0l25.604-25.604
		c1.172-1.172,1.172-3.071,0-4.243l-17.526-17.528L250.443,31.44h23.722c4.763,0,8.659,3.896,8.659,8.659v227.49
		c0,4.763-3.896,8.66-8.659,8.66l-17.323-0.128l1.661,1.639l-49.291,12.34l-13.483-13.861l-3.49,0.01H127.51l119.958-117.843
		c2.077-2.04,2.093-5.384,0.033-7.443l-44.135-44.134c-1.172-1.172-3.071-1.172-4.242,0l-25.605,25.604
		c-1.171,1.171-1.171,3.072,0,4.242l17.527,17.528L69,276.249H46.675c-4.763,0-8.659-3.898-8.659-8.66V40.099z"/>
	<path fill="none" d="M392.35,227.325h49.572c11.052,0,16.735-5.685,16.735-16.735v-77.136l-83.042,60.668v16.468
		C375.615,221.64,381.299,227.325,392.35,227.325z"/>
	<path fill="none" d="M458.657,99.131c0-9.788-5.368-14.524-16.103-14.524h-50.835c-10.735,0-16.104,4.736-16.104,14.524v62.791
		l83.042-60.668V99.131z"/>
	<path fill="none" d="M873.848,134.041c0-6.946-3.789-10.42-11.05-10.42h-38.522c-7.894,0-11.998,3.789-11.998,11.683v28.733h61.57
		V134.041z"/>
	<path fill="#3D8CFF" d="M46.675,276.249H69l122.046-122.046l-17.527-17.528c-1.171-1.17-1.171-3.071,0-4.242l25.605-25.604
		c1.171-1.172,3.07-1.172,4.242,0l44.135,44.134c2.06,2.059,2.044,5.403-0.033,7.443L127.51,276.249h64.729l3.49-0.01
		l-18.818-19.345c-1.16-1.193-1.128-3.102,0.071-4.255l26.288-25.27c1.18-1.134,3.053-1.113,4.208,0.049l49.364,48.703l17.323,0.128
		c4.763,0,8.659-3.897,8.659-8.66V40.099c0-4.763-3.896-8.659-8.659-8.659h-23.722L129.794,152.088l17.526,17.528
		c1.172,1.172,1.172,3.071,0,4.243l-25.604,25.604c-1.171,1.171-3.071,1.171-4.242,0l-44.135-44.135
		c-2.06-2.059-2.044-5.402,0.033-7.443L191.908,31.44h-64.447l18.325,18.839c1.16,1.193,1.129,3.102-0.071,4.254l-26.288,25.271
		c-1.18,1.134-3.052,1.113-4.207-0.049L66.249,31.44H46.675c-4.763,0-8.659,3.896-8.659,8.659v227.49
		C38.016,272.351,41.912,276.249,46.675,276.249z"/>
	<path fill="#2C2F31" d="M507.812,126.567h15.977l30.577,45.122l-45.761,71.692c-0.394,0.616-0.419,1.396-0.068,2.037
		s1.023,1.039,1.753,1.039h25.713c0.693,0,1.336-0.358,1.701-0.947l32.133-51.886l34.828,51.946
		c0.372,0.555,0.995,0.887,1.662,0.887h25.402c0.739,0,1.418-0.408,1.765-1.06c0.348-0.653,0.307-1.444-0.107-2.057l-48.527-72.029
		l42.364-67.052c0.39-0.616,0.413-1.396,0.061-2.033c-0.352-0.639-1.023-1.035-1.752-1.035H600.44c-0.687,0-1.325,0.351-1.692,0.932
		l-29.629,46.94l-30.825-46.97c-0.369-0.564-0.998-0.902-1.672-0.902h-28.81c-1.105,0-2,0.895-2,2v21.376
		C505.812,125.671,506.707,126.567,507.812,126.567z"/>
	<path fill="#2C2F31" d="M758.289,245.815v-21.786h-81.463v-75.78c0-16.419,7.894-24.628,23.681-24.628h32.206v20.208h23.05v-41.995
		H699.56c-31.259,0-47.046,15.156-47.046,45.152v98.829H758.289L758.289,245.815z"/>
	<path fill="#2C2F31" d="M816.698,245.815h77.042v-21.786h-73.253c-5.367,0-8.209-2.842-8.209-8.525v-29.996h85.251h0v-53.994
		c-0.315-19.891-10.419-29.679-30.627-29.679h-48.94c-19.893,0-29.681,10.419-29.681,31.259v84.935
		C788.281,236.658,797.754,245.815,816.698,245.815z M812.278,135.304c0-7.894,4.104-11.683,11.998-11.683h38.522
		c7.261,0,11.05,3.474,11.05,10.42v29.996h-61.57V135.304z"/>
	<polygon fill="#2C2F31" points="954.622,123.621 993.459,123.621 993.459,101.835 929.994,101.835 929.994,245.814 
		954.622,245.814 	"/>
	<path fill="#2C2F31" d="M1034.666,213.609c0,21.471,10.104,32.206,30.312,32.206h32.206v-21.786
		c-2.21,0.316-4.737,0.316-7.578,0.316h-20.208c-6.947,0.315-10.42-3.158-10.42-10.42v-90.304h37.89v-21.786h-37.89V57.63h-24.312
		v44.205h-18.944v21.786h18.944V213.609z"/>
	<path fill="#2C2F31" d="M390.772,250.058h52.729c27.786,0,41.679-12.629,41.679-38.205V99.131
		c0-24.945-14.209-37.257-42.626-37.257h-50.835c-28.417,0-42.626,12.312-42.626,37.257v112.722
		C349.093,237.429,362.985,250.058,390.772,250.058z M375.615,99.131c0-9.788,5.369-14.524,16.104-14.524h50.835
		c10.735,0,16.103,4.736,16.103,14.524v2.123l-83.042,60.668V99.131z M375.615,194.122l83.042-60.668v77.136
		c0,11.05-5.683,16.735-16.735,16.735H392.35c-11.051,0-16.735-5.685-16.735-16.735V194.122z"/>
</g>
</svg>
