<?xml version="1.0" encoding="utf-8"?>
<!-- Generator: Adobe Illustrator 17.0.0, SVG Export Plug-In . SVG Version: 6.00 Build 0)  -->
<!DOCTYPE svg PUBLIC "-//W3C//DTD SVG 1.1//EN" "http://www.w3.org/Graphics/SVG/1.1/DTD/svg11.dtd">
<svg version="1.1" id="Layer_1" xmlns="http://www.w3.org/2000/svg" xmlns:xlink="http://www.w3.org/1999/xlink" x="0px" y="0px"
	 width="1135.525px" height="305.939px" viewBox="0 0 1135.525 305.939" enable-background="new 0 0 1135.525 305.939"
	 xml:space="preserve">
<g>
	<defs>
		<rect id="SVGID_1_" x="-1437.475" y="-849.432" width="4010.149" height="2006.04"/>
	</defs>
	<clipPath id="SVGID_2_">
		<use xlink:href="#SVGID_1_"  overflow="visible"/>
	</clipPath>
	<path clip-path="url(#SVGID_2_)" fill="#3D8CFF" d="M274.165,31.44h-23.722L129.794,152.088l17.526,17.528
		c1.172,1.172,1.172,3.071,0,4.243l-25.604,25.604c-1.171,1.171-3.071,1.171-4.242,0l-44.135-44.135
		c-2.06-2.059-2.044-5.402,0.033-7.443L191.908,31.44H46.675c-4.763,0-8.659,3.896-8.659,8.659v227.49
		c0,4.762,3.896,8.66,8.659,8.66H69l122.046-122.046l-17.527-17.528c-1.171-1.17-1.171-3.071,0-4.242l25.605-25.604
		c1.171-1.172,3.07-1.172,4.242,0l44.135,44.134c2.06,2.059,2.044,5.403-0.033,7.443L127.51,276.249h64.729l59.655-0.164
		l22.271,0.164c4.763,0,8.659-3.897,8.659-8.66V40.099C282.824,35.336,278.928,31.44,274.165,31.44"/>
	<path clip-path="url(#SVGID_2_)" fill="#2C2F31" d="M633.387,243.34l-48.527-72.029l42.364-67.052
		c0.39-0.616,0.413-1.396,0.061-2.033c-0.352-0.639-1.023-1.035-1.752-1.035H600.44c-0.687,0-1.325,0.351-1.692,0.932l-29.629,46.94
		l-30.825-46.97c-0.369-0.564-0.998-0.902-1.672-0.902h-28.81c-1.105,0-2,0.895-2,2v21.376c0,1.104,0.895,2,2,2h15.977
		l30.577,45.122l-45.761,71.692c-0.394,0.616-0.419,1.396-0.068,2.037c0.351,0.641,1.023,1.039,1.753,1.039h25.713
		c0.693,0,1.336-0.358,1.701-0.947l32.133-51.886l34.828,51.946c0.372,0.555,0.995,0.887,1.662,0.887h25.402
		c0.739,0,1.418-0.408,1.765-1.06C633.842,244.744,633.801,243.953,633.387,243.34"/>
	<path clip-path="url(#SVGID_2_)" fill="#2C2F31" d="M758.289,245.815H652.514v-98.829c0-29.996,15.787-45.152,47.046-45.152h56.203
		v41.995h-23.05v-20.208h-32.206c-15.787,0-23.681,8.209-23.681,24.628v75.78h81.463V245.815z"/>
	<path clip-path="url(#SVGID_2_)" fill="#2C2F31" d="M897.529,185.508h-85.251v29.996c0,5.683,2.842,8.525,8.209,8.525h73.253
		v21.786h-77.042c-18.944,0-28.417-9.157-28.417-27.786v-84.935c0-20.84,9.788-31.259,29.681-31.259h48.94
		c20.208,0,30.312,9.788,30.627,29.679V185.508z M812.278,164.037h61.57v-29.996c0-6.946-3.789-10.42-11.05-10.42h-38.522
		c-7.894,0-11.998,3.789-11.998,11.683V164.037z"/>
	<polygon clip-path="url(#SVGID_2_)" fill="#2C2F31" points="993.459,123.621 954.622,123.621 954.622,245.814 929.994,245.814 
		929.994,101.835 993.459,101.835 	"/>
	<path clip-path="url(#SVGID_2_)" fill="#2C2F31" d="M1034.666,123.621h-18.944v-21.786h18.944V57.63h24.312v44.205h37.89v21.786
		h-37.89v90.304c0,7.262,3.473,10.735,10.42,10.42h20.208c2.841,0,5.368,0,7.578-0.316v21.786h-32.206
		c-20.208,0-30.312-10.735-30.312-32.206V123.621z"/>
	<path clip-path="url(#SVGID_2_)" fill="#2C2F31" d="M442.554,61.874h-50.835c-28.417,0-42.626,12.312-42.626,37.257v112.722
		c0,25.576,13.892,38.205,41.679,38.205h52.729c27.786,0,41.679-12.629,41.679-38.205V99.131
		C485.18,74.186,470.971,61.874,442.554,61.874 M391.719,84.607h50.835c10.735,0,16.103,4.736,16.103,14.524v2.123l-83.042,60.668
		V99.131C375.615,89.343,380.984,84.607,391.719,84.607 M441.922,227.325H392.35c-11.051,0-16.735-5.685-16.735-16.735v-16.468
		l83.042-60.668v77.136C458.657,221.64,452.974,227.325,441.922,227.325"/>
	<path clip-path="url(#SVGID_2_)" fill="#FFFFFF" d="M258.503,277.76l-49.291,12.34l-32.301-33.206
		c-1.16-1.193-1.128-3.102,0.071-4.255l26.288-25.27c1.18-1.134,3.053-1.113,4.208,0.049L258.503,277.76z"/>
	<path clip-path="url(#SVGID_2_)" fill="#FFFFFF" d="M64.194,29.413l49.292-12.34l32.3,33.206c1.16,1.193,1.129,3.102-0.071,4.254
		l-26.288,25.271c-1.18,1.134-3.052,1.113-4.207-0.049L64.194,29.413z"/>
</g>
<g>
	<defs>
		<rect id="SVGID_3_" x="-1437.475" y="-849.432" width="4010.15" height="2006.04"/>
	</defs>
	<clipPath id="SVGID_4_">
		<use xlink:href="#SVGID_3_"  overflow="visible"/>
	</clipPath>
	<g clip-path="url(#SVGID_4_)">
		<text transform="matrix(1 0 0 1 -1371.6909 -729.196)" font-family="'OverpassMono-SemiBold'" font-size="72">!&quot;!#$%&amp;&apos;()$</text>
	</g>
</g>
</svg>
